<?xml version="1.0" standalone="no"?>
<!DOCTYPE svg PUBLIC "-//W3C//DTD SVG 1.1//EN" "http://www.w3.org/Graphics/SVG/1.1/DTD/svg11.dtd" >
<svg xmlns="http://www.w3.org/2000/svg" xmlns:xlink="http://www.w3.org/1999/xlink" version="1.1">
<metadata>
Created by FontForge 20201107 at Thu Jun  8 17:17:00 2023
 By 
Copyright 2020 The Plus Jakarta Sans Project Authors (https://github.com/tokotype/PlusJakartaSans)
</metadata>
<defs>
<font id="PlusJakartaSans-ExtraLightItalic" horiz-adv-x="573" >
  <font-face 
    font-family="Plus Jakarta Sans ExtraLight"
    font-weight="250"
    font-style="italic"
    font-stretch="normal"
    units-per-em="1000"
    panose-1="0 0 0 0 0 0 0 0 0 0"
    ascent="800"
    descent="-200"
    x-height="526"
    cap-height="745"
    bbox="-196 -233 1320 1169"
    underline-thickness="40"
    underline-position="-175"
    slope="-8"
    unicode-range="U+000D-FB02"
  />
<missing-glyph horiz-adv-x="745" 
d="M128 675v70h520v-70h-520zM128 0v70h520v-70h-520zM128 225v70h520v-70h-520zM128 450v70h520v-70h-520z" />
    <glyph glyph-name="fi" unicode="fi" horiz-adv-x="582" 
d="M106 0l68 486h-109l6 40h108l8 57q8 56 34.5 95t65 59t83.5 20q14 0 23.5 -1t16.5 -3l-1 -42q-8 2 -17.5 2.5t-16.5 0.5q-58 0 -95.5 -35t-47.5 -99l-8 -54h314l-6 -40h-313l-68 -486h-45zM430 0l74 526h45l-74 -526h-45z" />
    <glyph glyph-name="fl" unicode="fl" horiz-adv-x="629" 
d="M106 0l68 486h-109l6 40h108l8 57q8 56 34.5 95t65 59t83.5 20q14 0 23.5 -1t16.5 -3l-1 -42q-8 2 -17.5 2.5t-16.5 0.5q-58 0 -95.5 -35t-47.5 -99l-8 -54h314l-6 -40h-313l-68 -486h-45zM459 0l106 757h45l-106 -757h-45z" />
    <glyph glyph-name="f_f" unicode="ff" horiz-adv-x="786" 
d="M106 0l68 486h-109l6 40h108l8 57q8 56 34.5 95t65 59t83.5 20q14 0 23.5 -1t16.5 -3l-1 -42q-8 2 -17.5 2.5t-16.5 0.5q-58 0 -95.5 -35t-47.5 -99l-8 -54h314l-6 -40h-313l-68 -486h-45zM503 0l68 486h-109l6 40h108l8 57q8 56 34.5 95t65 59t83.5 20q14 0 23.5 -1
t16.5 -3l-1 -42q-8 2 -17.5 2.5t-16.5 0.5q-58 0 -95.5 -35t-47.5 -99l-8 -54h134l-6 -40h-133l-68 -486h-45z" />
    <glyph glyph-name="f_f_i" unicode="ffi" horiz-adv-x="979" 
d="M106 0l68 486h-109l6 40h108l8 57q8 56 34.5 95t65 59t83.5 20q14 0 23.5 -1t16.5 -3l-1 -42q-8 2 -17.5 2.5t-16.5 0.5q-58 0 -95.5 -35t-47.5 -99l-8 -54h314l-6 -40h-313l-68 -486h-45zM827 0l74 526h45l-74 -526h-45zM503 0l68 486h-109l6 40h108l8 57q8 56 34.5 95
t65 59t83.5 20q14 0 23.5 -1t16.5 -3l-1 -42q-8 2 -17.5 2.5t-16.5 0.5q-58 0 -95.5 -35t-47.5 -99l-8 -54h314l-6 -40h-313l-68 -486h-45z" />
    <glyph glyph-name="f_f_l" unicode="ffl" horiz-adv-x="1026" 
d="M106 0l68 486h-109l6 40h108l8 57q8 56 34.5 95t65 59t83.5 20q14 0 23.5 -1t16.5 -3l-1 -42q-8 2 -17.5 2.5t-16.5 0.5q-58 0 -95.5 -35t-47.5 -99l-8 -54h314l-6 -40h-313l-68 -486h-45zM856 0l106 757h45l-106 -757h-45zM503 0l68 486h-109l6 40h108l8 57
q8 56 34.5 95t65 59t83.5 20q14 0 23.5 -1t16.5 -3l-1 -42q-8 2 -17.5 2.5t-16.5 0.5q-58 0 -95.5 -35t-47.5 -99l-8 -54h314l-6 -40h-313l-68 -486h-45z" />
    <glyph glyph-name=".notdef" horiz-adv-x="745" 
d="M128 675v70h520v-70h-520zM128 0v70h520v-70h-520zM128 225v70h520v-70h-520zM128 450v70h520v-70h-520z" />
    <glyph glyph-name=".null" horiz-adv-x="0" 
 />
    <glyph glyph-name="nonmarkingreturn" horiz-adv-x="333" 
 />
    <glyph glyph-name="CR" unicode="&#xd;" horiz-adv-x="170" 
 />
    <glyph glyph-name="space" unicode=" " horiz-adv-x="160" 
 />
    <glyph glyph-name="exclam" unicode="!" horiz-adv-x="256" 
d="M98 208l73 537h50l-78 -537h-45zM65 0l12 90h55l-12 -90h-55z" />
    <glyph glyph-name="quotedbl" unicode="&#x22;" horiz-adv-x="346" 
d="M135 560l16 185h55l-36 -185h-35zM260 560l16 185h55l-36 -185h-35z" />
    <glyph glyph-name="numbersign" unicode="#" horiz-adv-x="742" 
d="M58 0l91 213h-120l6 45h133l98 230h-120l7 45h133l90 212h52l-90 -212h234l91 212h52l-91 -212h120l-7 -46h-132l-99 -229h120l-6 -45h-133l-91 -213h-52l91 213h-234l-91 -213h-52zM220 258h234l99 230h-235z" />
    <glyph glyph-name="dollar" unicode="$" horiz-adv-x="640" 
d="M310 -12q-64 0 -118 23.5t-90.5 65.5t-48.5 97l47 14q21 -74 76.5 -115.5t134.5 -41.5q57 0 100 20.5t67.5 57t24.5 83.5q0 50 -26 84t-78 49l-135 40q-69 20 -104.5 68t-35.5 115q0 59 31 106.5t84 75t118 27.5q57 0 104 -22t79.5 -61t42.5 -91l-46 -14
q-18 68 -66.5 106.5t-116.5 38.5q-52 0 -93 -21.5t-65 -59t-24 -84.5q0 -53 27.5 -86t91.5 -53l122 -37q68 -21 103 -66.5t35 -111.5q0 -60 -31 -106.5t-85.5 -73.5t-124.5 -27zM246 -100l132 945h45l-132 -945h-45z" />
    <glyph glyph-name="percent" unicode="%" horiz-adv-x="957" 
d="M102 0l719 745h61l-719 -745h-61zM267 385q-47 0 -86.5 23t-62.5 62t-23 88q0 53 27.5 98.5t72.5 73t98 27.5q48 0 86.5 -23t61.5 -62t23 -88q0 -53 -27 -98.5t-72 -73t-98 -27.5zM270 428q39 0 73 21.5t55 56t21 74.5q0 34 -16 64.5t-45 50t-67 19.5q-40 0 -74.5 -21.5
t-55.5 -56t-21 -74.5q0 -34 16.5 -65t46 -50t67.5 -19zM696 -12q-48 0 -87.5 23.5t-62.5 62.5t-23 87q0 53 27.5 98.5t73 73t98.5 27.5q47 0 85.5 -23t61.5 -62t23 -88q0 -53 -27 -98.5t-71.5 -73t-97.5 -27.5zM699 31q39 0 72.5 21.5t54.5 56t21 74.5q0 34 -16 64.5t-45 50
t-67 19.5q-39 0 -73.5 -21.5t-56 -56t-21.5 -74.5q0 -34 16.5 -64.5t46.5 -50t68 -19.5z" />
    <glyph glyph-name="ampersand" unicode="&#x26;" horiz-adv-x="728" 
d="M221 -12q-52 0 -92.5 19.5t-63.5 55.5t-23 87q0 47 18.5 84t47.5 65.5t61 51.5t60 43l58 41q35 25 65.5 50.5t50 56t19.5 69.5q0 44 -28.5 71t-70.5 27q-35 0 -64 -18t-46.5 -48t-17.5 -66q0 -32 13 -60t32 -52t37 -44l377 -421h-69l-345 387q-18 21 -40 49t-38 63
t-16 77q0 51 24.5 92t65 65t88.5 24q42 0 75.5 -18.5t52.5 -52t19 -78.5q0 -53 -25 -93t-61 -69.5t-69 -52.5l-59 -41q-44 -31 -82 -59.5t-60.5 -62.5t-22.5 -80q0 -57 36 -85.5t92 -28.5q46 0 81.5 16.5t63.5 42t50.5 54t41.5 53.5l133 171h62l-154 -201q-19 -25 -44 -56.5
t-58.5 -60.5t-76.5 -48t-98 -19z" />
    <glyph glyph-name="quotesingle" unicode="'" horiz-adv-x="221" 
d="M135 560l16 185h55l-36 -185h-35z" />
    <glyph glyph-name="parenleft" unicode="(" horiz-adv-x="285" 
d="M159 -130q-54 74 -80 167t-26 190q0 98 23.5 192t68 177.5t106.5 148.5h51q-63 -73 -107.5 -157.5t-67.5 -173t-23 -175.5q0 -92 26 -187.5t80 -181.5h-51z" />
    <glyph glyph-name="parenright" unicode=")" horiz-adv-x="285" 
d="M-4 -130q64 76 108 160.5t67.5 173t23.5 176.5q0 96 -27 190.5t-80 174.5h51q53 -70 80 -160t27 -192q0 -97 -23.5 -191.5t-68 -179.5t-107.5 -152h-51z" />
    <glyph glyph-name="asterisk" unicode="*" horiz-adv-x="459" 
d="M152 398l-36 29l113 125l-130 46l21 47l131 -45l21 145h50l-21 -145l144 45l9 -47l-141 -46l76 -125l-44 -29l-80 125z" />
    <glyph glyph-name="plus" unicode="+" horiz-adv-x="596" 
d="M239 0l32 228h-228l6 45h228l32 227h45l-32 -227h227l-6 -45h-227l-32 -228h-45z" />
    <glyph glyph-name="comma" unicode="," horiz-adv-x="248" 
d="M27 -123l4 29q22 7 38 30.5t23 63.5h-28l13 90h55l-10 -70q-8 -61 -33 -96.5t-62 -46.5z" />
    <glyph glyph-name="hyphen" unicode="-" horiz-adv-x="468" 
d="M71 241l6 45h320l-6 -45h-320z" />
    <glyph glyph-name="period" unicode="." horiz-adv-x="262" 
d="M67 0l12 90h55l-12 -90h-55z" />
    <glyph glyph-name="slash" unicode="/" horiz-adv-x="399" 
d="M-52 -120l454 825h57l-454 -825h-57z" />
    <glyph glyph-name="zero" unicode="0" horiz-adv-x="717" 
d="M338 -12q-78 0 -135 40.5t-87.5 113t-30.5 168.5q0 87 22.5 167t64.5 143t102.5 100t136.5 37q80 0 136 -40t86 -112t30 -169q0 -87 -22 -167t-64 -143.5t-102.5 -100.5t-136.5 -37zM337 36q68 0 120 34.5t86.5 93t52 130.5t17.5 148q0 122 -51.5 194.5t-149.5 72.5
q-69 0 -120.5 -34t-86.5 -92t-52.5 -130t-17.5 -148q0 -80 23.5 -141t68.5 -94.5t110 -33.5z" />
    <glyph glyph-name="one" unicode="1" horiz-adv-x="339" 
d="M141 0l98 700h-140l7 45h190l-104 -745h-51z" />
    <glyph glyph-name="two" unicode="2" horiz-adv-x="598" 
d="M39 0l3 30l283 281q38 37 69.5 70.5t55.5 66t37 65t13 68.5q0 60 -38.5 95.5t-111.5 35.5q-78 0 -133.5 -44.5t-81.5 -123.5l-44 14q21 65 59.5 109.5t89.5 67t108 22.5q58 0 103.5 -22.5t72 -62t26.5 -92.5q0 -42 -16 -80.5t-41.5 -73t-53 -64t-51.5 -52.5l-269 -265
h390l-8 -45h-462z" />
    <glyph glyph-name="three" unicode="3" horiz-adv-x="600" 
d="M275 -12q-63 0 -114.5 24t-84 69.5t-38.5 109.5l47 8q8 -77 58 -121.5t132 -44.5q60 0 107.5 27t75 74.5t27.5 108.5q0 54 -23.5 90t-63 53.5t-89.5 17.5q-10 0 -22.5 -1t-23.5 -3l-6 20l237 280h-377l7 45h442l-4 -30l-241 -284l-2 14q57 3 105.5 -21.5t78.5 -71.5
t30 -113q0 -51 -19.5 -96.5t-55 -80t-82.5 -54.5t-101 -20z" />
    <glyph glyph-name="four" unicode="4" horiz-adv-x="607" 
d="M396 0l24 176h-389l5 40l469 529h45l-73 -524h81l-7 -45h-81l-24 -176h-50zM84 203l-7 18h350l66 475l25 -5z" />
    <glyph glyph-name="five" unicode="5" horiz-adv-x="609" 
d="M277 -12q-63 0 -113 24.5t-81 69.5t-37 107l47 12q8 -76 55.5 -122t126.5 -46q62 0 111 28t77.5 76.5t28.5 107.5q0 54 -22.5 94t-61.5 62.5t-88 22.5q-57 0 -106.5 -26.5t-74.5 -61.5l-44 10l110 400h359l-5 -45h-354l37 9l-89 -322l-9 6q29 36 78 56.5t101 20.5
q63 0 112.5 -28.5t78 -79.5t28.5 -117q0 -52 -19 -99t-54.5 -82.5t-84 -56t-107.5 -20.5z" />
    <glyph glyph-name="six" unicode="6" horiz-adv-x="589" 
d="M268 -12q-63 0 -111 28t-75 77t-27 112q0 56 16.5 103.5t46.5 91t68 87.5l224 258h60l-322 -379l-18 1q26 37 58.5 56.5t66.5 27.5t62 8q60 0 107.5 -26t75 -72.5t27.5 -109.5q0 -77 -36 -136.5t-94.5 -93t-128.5 -33.5zM267 33q58 0 105 28t75.5 77t28.5 110
q0 74 -44.5 120t-118.5 46q-56 0 -103.5 -28.5t-76 -78t-28.5 -112.5q0 -73 46 -117.5t116 -44.5z" />
    <glyph glyph-name="seven" unicode="7" horiz-adv-x="525" 
d="M35 0l447 701h-379l6 45h440l-4 -40l-452 -706h-58z" />
    <glyph glyph-name="eight" unicode="8" horiz-adv-x="605" 
d="M275 -12q-65 0 -114.5 26t-77.5 72t-28 105q0 54 22 101.5t61.5 82t90.5 50.5l5 -15q-46 21 -72 58.5t-26 86.5q0 57 29 103t77.5 72.5t106.5 26.5q54 0 94.5 -22t63 -59.5t22.5 -86.5q0 -41 -14 -75t-42.5 -60.5t-70.5 -45.5l1 16q61 -19 97 -70t36 -117
q0 -71 -35.5 -127.5t-94.5 -89t-131 -32.5zM273 33q62 0 110 26.5t75.5 73t27.5 106.5q0 69 -46 111t-123 42q-61 0 -109 -26t-76 -72.5t-28 -106.5q0 -70 46 -112t123 -42zM316 438q45 0 82 20.5t59.5 56t22.5 78.5q0 53 -36 86t-93 33q-45 0 -82.5 -20.5t-60 -55.5
t-22.5 -79q0 -52 36 -85.5t94 -33.5z" />
    <glyph glyph-name="nine" unicode="9" horiz-adv-x="588" 
d="M149 0l322 379l18 -1q-26 -36 -59 -56t-66 -28t-62 -8q-60 0 -107.5 26t-75 73t-27.5 109q0 77 36 136.5t95 93t128 33.5q63 0 111 -28t75 -76.5t27 -112.5q0 -55 -17 -102.5t-46.5 -91.5t-67.5 -88l-224 -258h-60zM305 331q60 0 107.5 30.5t74.5 80t27 106.5
q0 74 -46 119t-117 45q-57 0 -104 -28t-75.5 -76.5t-28.5 -110.5q0 -74 44.5 -120t117.5 -46z" />
    <glyph glyph-name="colon" unicode=":" horiz-adv-x="261" 
d="M66 0l13 90h55l-13 -90h-55zM127 436l13 90h55l-13 -90h-55z" />
    <glyph glyph-name="semicolon" unicode=";" horiz-adv-x="282" 
d="M49 -123l4 29q23 7 39 30.5t23 63.5h-28l12 90h55l-10 -70q-8 -61 -33 -96.5t-62 -46.5zM148 436l13 90h55l-13 -90h-55z" />
    <glyph glyph-name="less" unicode="&#x3c;" horiz-adv-x="596" 
d="M502 50l-358 195l6 36l412 195l-7 -53l-377 -178l1 32l330 -180z" />
    <glyph glyph-name="equal" unicode="=" horiz-adv-x="596" 
d="M85 346l7 45h450l-7 -45h-450zM52 111l7 45h450l-7 -45h-450z" />
    <glyph glyph-name="greater" unicode="&#x3e;" horiz-adv-x="596" 
d="M34 50l7 53l377 178l-1 -32l-330 180l7 47l358 -195l-6 -36z" />
    <glyph glyph-name="question" unicode="?" horiz-adv-x="473" 
d="M180 208l1 4q17 66 47.5 113t76.5 87q27 24 54.5 51.5t46.5 61.5t19 75q0 44 -33 78.5t-94 34.5q-63 0 -110 -38.5t-67 -107.5l-42 9q14 56 46 96.5t77.5 62.5t98.5 22q50 0 89.5 -21t62 -56.5t22.5 -78.5q0 -52 -25 -92.5t-60 -73t-65 -61.5q-40 -37 -63.5 -76
t-35.5 -86l-1 -4h-45zM147 0l12 90h55l-12 -90h-55z" />
    <glyph glyph-name="at" unicode="@" horiz-adv-x="927" 
d="M447 -205q-77 0 -145.5 28.5t-121 80t-82 121t-29.5 150.5q0 88 32.5 167t91.5 139.5t139 95.5t175 35q85 0 154 -29.5t118 -81.5t75.5 -119.5t26.5 -143.5q0 -69 -21 -123t-58.5 -84.5t-85.5 -30.5q-31 0 -57 13.5t-41.5 37.5t-17.5 54l17 2q-17 -37 -43.5 -61t-58 -35
t-65.5 -11q-54 0 -96.5 25t-66.5 69t-24 100q0 63 29 114.5t78.5 82.5t108.5 31q49 0 92 -24t59 -74l-7 -13l15 101h48l-37 -273q-4 -28 3.5 -49.5t25 -33t41.5 -11.5q53 0 83.5 53t30.5 137q0 101 -44 175.5t-119 115.5t-169 41q-80 0 -150 -29.5t-122.5 -82.5t-82 -123
t-29.5 -151q0 -97 42.5 -174t118.5 -122t176 -45q47 0 90.5 10.5t80.5 32.5l18 -41q-41 -22 -92 -34.5t-104 -12.5zM451 45q46 0 81.5 24t55.5 65t20 91q0 68 -36.5 110t-97.5 42q-46 0 -83 -24t-58.5 -64.5t-21.5 -90.5q0 -68 39.5 -110.5t100.5 -42.5z" />
    <glyph glyph-name="A" unicode="A" horiz-adv-x="644" 
d="M-15 0l380 745h48l172 -745h-54l-44 197h-344l-100 -197h-58zM165 242h312l-104 461l24 -3z" />
    <glyph glyph-name="B" unicode="B" horiz-adv-x="702" 
d="M63 0l104 745h288q83 0 132 -47t49 -119q0 -44 -18 -83.5t-51 -67.5t-77 -39l-1 15q65 -13 102.5 -60.5t37.5 -112.5q0 -69 -31.5 -121t-88 -81t-132.5 -29h-314zM119 45h254q62 0 108 23t72 64.5t26 95.5q0 65 -44 103.5t-118 38.5h-252zM171 415h244q51 0 89.5 20.5
t60 57t21.5 84.5q0 56 -36.5 89.5t-104.5 33.5h-234z" />
    <glyph glyph-name="C" unicode="C" horiz-adv-x="803" 
d="M418 -12q-67 0 -126 24t-104 69.5t-70.5 110.5t-25.5 147q0 87 28.5 163t79.5 133t120 89.5t149 32.5q76 0 134 -27.5t96 -69.5t53 -85l-48 -19q-28 70 -88 111.5t-148 41.5q-73 0 -132.5 -29t-103 -79.5t-67 -117.5t-23.5 -142q0 -93 34.5 -161.5t96.5 -106t144 -37.5
q89 0 156 42.5t105 112.5l46 -23q-21 -43 -64.5 -84.5t-105 -68.5t-136.5 -27z" />
    <glyph glyph-name="D" unicode="D" horiz-adv-x="746" 
d="M63 0l104 745h215q99 0 172 -40t113.5 -114t40.5 -176q0 -81 -26 -155.5t-76.5 -133t-123.5 -92.5t-168 -34h-251zM119 45h198q78 0 140.5 29.5t107.5 81t69 118.5t24 141q0 88 -33.5 152t-96.5 98.5t-152 34.5h-165z" />
    <glyph glyph-name="E" unicode="E" horiz-adv-x="615" 
d="M63 0l104 745h460l-6 -45h-410l-43 -304h390l-6 -45h-390l-43 -306h410l-6 -45h-460z" />
    <glyph glyph-name="F" unicode="F" horiz-adv-x="594" 
d="M63 0l104 745h450l-6 -45h-400l-43 -304h360l-6 -45h-360l-49 -351h-50z" />
    <glyph glyph-name="G" unicode="G" horiz-adv-x="841" 
d="M424 -12q-72 0 -132.5 25.5t-105 72.5t-69 112t-24.5 144q0 86 28.5 161.5t80 132.5t121.5 89t153 32q78 0 137 -27t97.5 -68.5t53.5 -85.5l-48 -21q-28 71 -90.5 112.5t-150.5 41.5q-73 0 -134 -28.5t-105.5 -78.5t-68.5 -116.5t-24 -143.5q0 -97 38 -165.5t102 -104.5
t143 -36q83 0 149 37t107 101t49 145l3 30l19 -26h-305l3 45h334l-4 -49q-6 -67 -33.5 -127t-74 -106t-109.5 -72t-140 -26z" />
    <glyph glyph-name="H" unicode="H" horiz-adv-x="739" 
d="M63 0l104 745h50l-48 -343h440l48 343h50l-104 -745h-50l50 357h-440l-50 -357h-50z" />
    <glyph glyph-name="I" unicode="I" horiz-adv-x="249" 
d="M63 0l104 745h50l-104 -745h-50z" />
    <glyph glyph-name="J" unicode="J" horiz-adv-x="380" 
d="M29 0l7 50h38q63 0 100.5 36.5t47.5 107.5l77 551h50l-78 -554q-8 -59 -35 -102t-70 -66t-99 -23h-38z" />
    <glyph glyph-name="K" unicode="K" horiz-adv-x="652" 
d="M63 0l104 745h50l-64 -460l-21 9l475 451h67l-350 -336l7 35l262 -444h-58l-232 392l-156 -151l-34 -241h-50z" />
    <glyph glyph-name="L" unicode="L" horiz-adv-x="534" 
d="M63 0l104 745h50l-98 -700h340l-6 -45h-390z" />
    <glyph glyph-name="M" unicode="M" horiz-adv-x="819" 
d="M63 0l104 745h40l214 -422h-12l338 422h40l-104 -745h-50l93 662l10 -8l-328 -408h-2l-206 408l6 8l-93 -662h-50z" />
    <glyph glyph-name="N" unicode="N" horiz-adv-x="739" 
d="M63 0l104 745h40l370 -667h-13l93 667h50l-104 -745h-40l-372 671h16l-94 -671h-50z" />
    <glyph glyph-name="O" unicode="O" horiz-adv-x="887" 
d="M434 -12q-72 0 -134 25.5t-108.5 73t-72.5 112.5t-26 144q0 86 30 161t83 132t124.5 89t153.5 32q72 0 134 -25.5t108.5 -73t72.5 -112.5t26 -143q0 -86 -30 -161.5t-83 -132.5t-124 -89t-154 -32zM434 36q74 0 136 29.5t108 80.5t71.5 117t25.5 139q0 84 -35.5 153.5
t-100.5 111.5t-155 42q-74 0 -136.5 -30t-108.5 -81.5t-71 -117t-25 -136.5q0 -84 36 -154t101.5 -112t153.5 -42z" />
    <glyph glyph-name="P" unicode="P" horiz-adv-x="642" 
d="M63 0l104 745h232q61 0 109.5 -24.5t76.5 -69.5t28 -109q0 -67 -32.5 -122t-91 -87.5t-136.5 -32.5h-198l-42 -300h-50zM161 345h196q62 0 108 27t72 72t26 98q0 72 -46 115t-122 43h-184z" />
    <glyph glyph-name="Q" unicode="Q" horiz-adv-x="887" 
d="M434 -12q-72 0 -134 25.5t-108.5 73t-72.5 112.5t-26 144q0 86 30 161t83 132t124.5 89t153.5 32q72 0 134 -25.5t108.5 -73t72.5 -112.5t26 -143q0 -86 -30 -161.5t-83 -132.5t-124 -89t-154 -32zM434 36q74 0 136 29.5t108 80.5t71.5 117t25.5 139q0 84 -35.5 153.5
t-100.5 111.5t-155 42q-74 0 -136.5 -30t-108.5 -81.5t-71 -117t-25 -136.5q0 -84 36 -154t101.5 -112t153.5 -42zM628 -90l-195 388h56l195 -388h-56z" />
    <glyph glyph-name="R" unicode="R" horiz-adv-x="638" 
d="M63 0l104 745h232q61 0 109.5 -24.5t76.5 -69.5t28 -109q0 -56 -23.5 -104.5t-66 -82.5t-101.5 -47l135 -308h-56l-144 333l50 -33h-252l-42 -300h-50zM161 345h196q62 0 108 27t72 72t26 98q0 72 -46 115t-122 43h-184z" />
    <glyph glyph-name="S" unicode="S" horiz-adv-x="640" 
d="M310 -12q-64 0 -118 23.5t-90.5 65.5t-48.5 97l47 14q21 -74 76.5 -115.5t134.5 -41.5q57 0 100 20.5t67.5 57t24.5 83.5q0 50 -26 84t-78 49l-135 40q-69 21 -104.5 68.5t-35.5 114.5q0 59 31 106.5t84 75t118 27.5q57 0 104 -22t79.5 -61t42.5 -91l-46 -14
q-18 68 -66.5 106.5t-116.5 38.5q-52 0 -93 -21.5t-65 -59t-24 -84.5q0 -53 27.5 -86t91.5 -53l122 -37q68 -21 103 -66.5t35 -111.5q0 -60 -31 -106.5t-85.5 -73.5t-124.5 -27z" />
    <glyph glyph-name="T" unicode="T" horiz-adv-x="515" 
d="M197 0l98 700h-211l6 45h470l-6 -45h-209l-98 -700h-50z" />
    <glyph glyph-name="U" unicode="U" horiz-adv-x="691" 
d="M310 -12q-75 0 -127.5 33.5t-76 93t-12.5 138.5l69 492h50l-70 -500q-9 -63 10 -110.5t60.5 -74.5t99.5 -27t107 26.5t82 75.5t42 114l69 496h50l-69 -496q-11 -79 -50.5 -137.5t-99.5 -91t-134 -32.5z" />
    <glyph glyph-name="V" unicode="V" horiz-adv-x="654" 
d="M267 0l-177 745h53l163 -699h-22l358 699h58l-385 -745h-48z" />
    <glyph glyph-name="W" unicode="W" horiz-adv-x="988" 
d="M209 0l-119 745h53l108 -701l-28 1l315 700h48l114 -700l-28 -1l307 701h55l-327 -745h-48l-115 706h27l-314 -706h-48z" />
    <glyph glyph-name="X" unicode="X" horiz-adv-x="590" 
d="M-15 0l297 387l-179 358h59l171 -348l-38 3l264 345h67l-283 -365l188 -380h-59l-180 369l38 -3l-279 -366h-66z" />
    <glyph glyph-name="Y" unicode="Y" horiz-adv-x="624" 
d="M251 0l46 333l-207 412h53l195 -376h-28l297 376h63l-323 -412l-46 -333h-50z" />
    <glyph glyph-name="Z" unicode="Z" horiz-adv-x="606" 
d="M-4 0l4 30l552 670h-431l6 45h503l-4 -30l-551 -670h467l-6 -45h-540z" />
    <glyph glyph-name="bracketleft" unicode="[" horiz-adv-x="282" 
d="M33 -130l123 875h170l-6 -45h-120l-111 -785h120l-6 -45h-170z" />
    <glyph glyph-name="backslash" unicode="\" horiz-adv-x="394" 
d="M286 -120l-222 825h52l222 -825h-52z" />
    <glyph glyph-name="bracketright" unicode="]" horiz-adv-x="281" 
d="M-32 -130l6 45h120l111 785h-120l6 45h170l-123 -875h-170z" />
    <glyph glyph-name="asciicircum" unicode="^" horiz-adv-x="596" 
d="M136 428l211 317h36l123 -317h-49l-110 285h33l-190 -285h-54z" />
    <glyph glyph-name="underscore" unicode="_" horiz-adv-x="548" 
d="M31 -45l6 45h400l-6 -45h-400z" />
    <glyph glyph-name="grave" unicode="`" horiz-adv-x="330" 
d="M263 640l-86 150h61l70 -150h-45z" />
    <glyph glyph-name="a" unicode="a" 
d="M208 -12q-45 0 -81.5 16.5t-57.5 47.5t-21 74q0 46 23.5 81.5t66 59t98.5 32.5l225 37l-4 -43l-208 -34q-70 -11 -112.5 -45.5t-42.5 -87.5q0 -48 33 -72t85 -24q61 0 108.5 30t78.5 80t39 110l15 106q6 43 -10 74t-48.5 48t-77.5 17q-52 0 -98 -25.5t-75 -66.5l-39 23
q18 30 50 55.5t73.5 41t87.5 15.5q56 0 100 -23.5t66.5 -66t14.5 -98.5l-49 -350h-45l16 115h7q-17 -33 -49 -62t-75.5 -47t-93.5 -18z" />
    <glyph glyph-name="b" unicode="b" horiz-adv-x="676" 
d="M333 -12q-76 0 -136 41t-87 112l8 8l-20 -149h-46l106 757h45l-53 -380l-15 18q33 65 95.5 104t137.5 39q71 0 125.5 -33.5t85.5 -90.5t31 -130q0 -61 -21.5 -115t-59.5 -94.5t-88 -63.5t-108 -23zM332 33q68 0 119.5 34.5t81 92t29.5 126.5q0 62 -25.5 108.5t-69 72.5
t-99.5 26q-66 0 -118.5 -34.5t-83 -91.5t-30.5 -125q0 -61 25.5 -108t69.5 -74t101 -27z" />
    <glyph glyph-name="c" unicode="c" horiz-adv-x="619" 
d="M311 -12q-69 0 -124.5 32.5t-88 90t-32.5 132.5q0 61 22 114.5t60.5 94t89.5 63.5t109 23q49 0 90 -16.5t70.5 -44.5t45.5 -64l-39 -19q-24 50 -67 76t-100 26q-68 0 -121.5 -34.5t-84 -92.5t-30.5 -128q0 -66 27 -113t72.5 -72.5t100.5 -25.5q58 0 105.5 27.5t78.5 76.5
l37 -22q-20 -35 -53.5 -63.5t-76 -44.5t-91.5 -16z" />
    <glyph glyph-name="d" unicode="d" horiz-adv-x="675" 
d="M309 -12q-72 0 -127 34.5t-85.5 92.5t-30.5 129q0 60 21.5 113t59 93.5t88.5 64t109 23.5q77 0 136.5 -40.5t83.5 -110.5l-7 -10l53 380h46l-106 -757h-45l20 149l18 -18q-34 -65 -96.5 -104t-137.5 -39zM308 33q67 0 119.5 34.5t82.5 92t30 126.5q0 63 -26.5 109.5
t-70.5 72t-99 25.5q-66 0 -118 -34.5t-82 -91.5t-30 -126q0 -60 24.5 -107t68.5 -74t101 -27z" />
    <glyph glyph-name="e" unicode="e" horiz-adv-x="628" 
d="M316 -12q-72 0 -128.5 34t-88.5 92t-32 131q0 59 21 112t58 93.5t87 64t108 23.5q66 0 116.5 -30.5t79.5 -82.5t29 -119q0 -14 -2 -29t-5 -28h-469l3 40h443l-18 -12q8 63 -13 112.5t-63.5 78t-99.5 28.5q-65 0 -117 -35.5t-82.5 -93.5t-30.5 -125q0 -61 26 -109
t71.5 -75.5t105.5 -27.5q58 0 106.5 27.5t79.5 76.5l37 -22q-22 -38 -56.5 -66t-76.5 -43t-89 -15z" />
    <glyph glyph-name="f" unicode="f" horiz-adv-x="389" 
d="M106 0l68 486h-109l6 40h108l8 57q8 56 34.5 95t65 59t83.5 20q14 0 23.5 -1t16.5 -3l-1 -42q-8 2 -17.5 2.5t-16.5 0.5q-58 0 -95.5 -35t-47.5 -99l-8 -54h134l-6 -40h-133l-68 -486h-45z" />
    <glyph glyph-name="g" unicode="g" horiz-adv-x="667" 
d="M275 -220q-55 0 -98 17t-72.5 46t-44.5 64l39 18q23 -49 69 -76t110 -27q47 0 94.5 20.5t82.5 61.5t43 103l22 162l16 -18q-33 -65 -94 -104t-136 -39q-70 0 -124 33t-84 89t-30 125q0 58 21 109t58 90t86.5 61.5t106.5 22.5q77 0 135.5 -40t80.5 -105l-7 -16l21 149h45
l-73 -524q-9 -63 -47 -113t-95 -79.5t-125 -29.5zM306 53q65 0 116 33t80.5 87.5t29.5 120.5q0 57 -24 102t-67.5 71t-100.5 26q-65 0 -116 -33.5t-79.5 -88t-28.5 -119.5q0 -56 23.5 -101t66.5 -71.5t100 -26.5z" />
    <glyph glyph-name="h" unicode="h" horiz-adv-x="571" 
d="M52 0l106 757h45l-48 -342l-12 7q23 53 74.5 84.5t112.5 31.5q54 0 96.5 -25t64 -71t12.5 -109l-46 -333h-45l46 332q11 79 -27.5 121t-102.5 42q-51 0 -91 -24t-64.5 -64t-31.5 -89l-44 -318h-45z" />
    <glyph glyph-name="i" unicode="i" horiz-adv-x="222" 
d="M52 0l74 526h45l-74 -526h-45zM141 635l15 110h45l-15 -110h-45z" />
    <glyph glyph-name="j" unicode="j" horiz-adv-x="224" 
d="M-79 -220q-13 0 -23 2t-18 4l2 40q8 -1 17.5 -2t16.5 -1q53 0 87.5 30.5t41.5 86.5l83 586h45l-83 -590q-7 -51 -30.5 -86t-58.5 -52.5t-80 -17.5zM143 635l15 110h45l-15 -110h-45z" />
    <glyph glyph-name="k" unicode="k" horiz-adv-x="540" 
d="M52 0l106 757h46l-78 -552h-34l372 321h72l-248 -213l193 -313h-56l-186 299l29 1l-155 -137l10 19l-25 -182h-46z" />
    <glyph glyph-name="l" unicode="l" horiz-adv-x="222" 
d="M52 0l106 757h45l-106 -757h-45z" />
    <glyph glyph-name="m" unicode="m" horiz-adv-x="910" 
d="M51 0l74 526h45l-16 -109l-8 16q26 47 74.5 76t103.5 29q62 0 110 -37t58 -104l-16 3q23 62 78.5 100t119.5 38q52 0 93 -25t62.5 -71t12.5 -109l-46 -333h-45l46 332q8 53 -7.5 89t-46.5 55t-71 19q-48 0 -87 -24t-63.5 -64t-31.5 -89l-44 -318h-45l46 332q8 53 -7.5 89
t-46.5 55t-71 19q-48 0 -87 -24t-63.5 -64t-31.5 -89l-44 -318h-45z" />
    <glyph glyph-name="n" unicode="n" horiz-adv-x="570" 
d="M51 0l74 526h45l-16 -111l-12 7q23 53 74.5 84.5t112.5 31.5q54 0 96.5 -25t64 -71t12.5 -109l-46 -333h-45l46 332q11 79 -27.5 121t-102.5 42q-51 0 -90.5 -24t-64.5 -64t-32 -89l-44 -318h-45z" />
    <glyph glyph-name="o" unicode="o" horiz-adv-x="664" 
d="M315 -12q-72 0 -128.5 33t-88.5 91t-32 131q0 61 21.5 114.5t60 94t90.5 63.5t112 23q73 0 128.5 -33t87.5 -90.5t32 -131.5q0 -61 -21.5 -114.5t-60 -94t-90 -63.5t-111.5 -23zM314 31q67 0 120.5 35t84.5 93t31 126q0 60 -25.5 107.5t-70.5 75t-103 27.5
q-67 0 -120.5 -34.5t-85 -92t-31.5 -125.5q0 -60 26 -108t71.5 -76t102.5 -28z" />
    <glyph glyph-name="p" unicode="p" horiz-adv-x="676" 
d="M24 -200l101 726h46l-21 -149l-15 18q33 65 95.5 104t137.5 39q71 0 125.5 -33.5t85.5 -90.5t31 -130q0 -61 -21.5 -115t-59.5 -94.5t-88 -63.5t-108 -23q-76 0 -136 41t-87 112l8 8l-48 -349h-46zM332 33q68 0 119.5 34.5t81 92t29.5 126.5q0 62 -25.5 108.5t-69 72.5
t-99.5 26q-66 0 -118.5 -34.5t-83 -91.5t-30.5 -125q0 -61 25.5 -108t69.5 -74t101 -27z" />
    <glyph glyph-name="q" unicode="q" horiz-adv-x="676" 
d="M478 -200l47 349l18 -18q-34 -65 -96.5 -104t-137.5 -39q-72 0 -127 34.5t-85.5 92.5t-30.5 129q0 60 21.5 113t59 93.5t88.5 64t109 23.5q77 0 136.5 -40.5t83.5 -110.5l-7 -10l21 149h45l-100 -726h-45zM308 33q67 0 119.5 34.5t82.5 92t30 126.5q0 63 -26.5 109.5
t-70.5 72t-99 25.5q-66 0 -118 -34.5t-82 -91.5t-30 -126q0 -60 24.5 -107t68.5 -74t101 -27z" />
    <glyph glyph-name="r" unicode="r" horiz-adv-x="341" 
d="M51 0l74 526h46l-16 -111l-12 5q23 53 72 82.5t108 29.5h33l-6 -45h-34q-72 0 -118 -47t-57 -120l-45 -320h-45z" />
    <glyph glyph-name="s" unicode="s" horiz-adv-x="506" 
d="M236 -12q-47 0 -88 16.5t-70 46t-43 69.5l42 16q20 -50 61 -77.5t96 -27.5q62 0 101.5 31.5t39.5 80.5q0 33 -20.5 55t-64.5 34l-86 24q-58 17 -86.5 48t-28.5 77q0 45 23 80.5t62.5 56t89.5 20.5q65 0 115 -33.5t65 -86.5l-45 -16q-16 44 -51 68.5t-82 24.5
q-55 0 -92.5 -31.5t-37.5 -78.5q0 -31 19 -51.5t59 -31.5l86 -24q50 -13 86 -44.5t36 -91.5q0 -44 -24.5 -79t-66.5 -55t-95 -20z" />
    <glyph glyph-name="t" unicode="t" horiz-adv-x="380" 
d="M236 -6q-63 0 -92 34t-20 100l50 358h-100l6 40h48q26 0 40.5 14t18.5 42l10 68h45l-17 -124h114l-6 -40h-113l-51 -362q-2 -18 0 -38.5t17 -34.5t52 -14q10 0 22 1t19 2l-2 -42q-10 -3 -23 -3.5t-18 -0.5z" />
    <glyph glyph-name="u" unicode="u" horiz-adv-x="571" 
d="M241 -12q-53 0 -96 24t-65 71t-12 115l47 328h45l-47 -332q-8 -55 8 -91.5t48.5 -54t73.5 -17.5q52 0 91.5 24t64 64.5t31.5 88.5l45 318h45l-74 -526h-45l15 111l12 -7q-23 -52 -73.5 -84t-113.5 -32z" />
    <glyph glyph-name="v" unicode="v" horiz-adv-x="519" 
d="M197 0l-138 526h49l127 -487h-20l264 487h55l-289 -526h-48z" />
    <glyph glyph-name="w" unicode="w" horiz-adv-x="769" 
d="M165 0l-106 526h49l96 -493h-23l215 493h48l76 -493h-26l236 493h54l-255 -526h-48l-73 469h12l-207 -469h-48z" />
    <glyph glyph-name="x" unicode="x" horiz-adv-x="477" 
d="M-15 0l225 263l-148 263h57l144 -255l-42 3l209 252h62l-222 -270l145 -256h-60l-138 252l44 -5l-213 -247h-63z" />
    <glyph glyph-name="y" unicode="y" horiz-adv-x="531" 
d="M19 -220q-13 0 -29.5 2t-30.5 7l2 40q15 -4 29 -5t24 -1q34 1 59.5 13t46 35t39.5 55l56 96l-2 -46l-146 550h49l131 -496h-28l273 496h54l-337 -609q-15 -27 -40.5 -59t-62.5 -55t-87 -23z" />
    <glyph glyph-name="z" unicode="z" horiz-adv-x="436" 
d="M-3 0l3 30l403 486l13 -30h-332l6 40h358l-4 -30l-405 -486l-12 30h355l-5 -40h-380z" />
    <glyph glyph-name="braceleft" unicode="{" horiz-adv-x="292" 
d="M186 -130q-54 0 -84 36.5t-22 94.5l29 204q5 35 -9 57.5t-51 22.5h-27l6 46h27q38 0 58 22.5t25 58.5l28 202q8 58 48.5 94.5t94.5 36.5h28l-7 -45h-28q-34 0 -57 -24t-28 -60l-29 -204q-4 -29 -16 -55t-39 -49q20 -22 24.5 -50.5t0.5 -54.5l-28 -204q-5 -36 11.5 -60
t50.5 -24h28l-6 -45h-28z" />
    <glyph glyph-name="bar" unicode="|" horiz-adv-x="270" 
d="M46 -190l146 1035h50l-146 -1035h-50z" />
    <glyph glyph-name="braceright" unicode="}" horiz-adv-x="291" 
d="M-32 -130l6 45h28q35 0 58 24t28 60l29 204q4 26 16.5 54.5t38.5 50.5q-20 23 -25 48t-1 56l29 204q5 36 -11.5 60t-50.5 24h-28l6 45h28q53 0 83.5 -36.5t22.5 -94.5l-29 -202q-5 -36 9 -58.5t51 -22.5h27l-7 -46h-27q-37 0 -57 -22.5t-25 -57.5l-29 -204
q-8 -58 -48 -94.5t-94 -36.5h-28z" />
    <glyph glyph-name="asciitilde" unicode="~" horiz-adv-x="596" 
d="M388 203q-34 0 -56 12.5t-39.5 28.5t-37 28.5t-46.5 12.5q-28 0 -51.5 -16.5t-34.5 -61.5h-43q11 65 49 94t81 29q34 0 56.5 -12.5t40 -28.5t37 -28.5t46.5 -12.5q29 0 51.5 16.5t33.5 61.5h43q-11 -64 -48.5 -93.5t-81.5 -29.5z" />
    <glyph glyph-name="uni00A0" unicode="&#xa0;" horiz-adv-x="160" 
 />
    <glyph glyph-name="exclamdown" unicode="&#xa1;" horiz-adv-x="256" 
d="M37 -219l78 537h45l-73 -537h-50zM126 436l12 90h55l-12 -90h-55z" />
    <glyph glyph-name="cent" unicode="&#xa2;" horiz-adv-x="620" 
d="M327 98q-68 0 -124 32.5t-88.5 90t-32.5 132.5q0 61 22 114.5t60.5 94t89.5 63.5t109 23q49 0 90 -16.5t70.5 -44.5t45.5 -64l-39 -19q-24 50 -67 76t-100 26q-68 0 -121.5 -34.5t-84 -92.5t-30.5 -128q0 -66 27 -113.5t72.5 -72.5t100.5 -25q58 0 105.5 27.5t78.5 76.5
l37 -22q-20 -35 -53.5 -63.5t-76 -44.5t-91.5 -16zM261 0l105 745h45l-105 -745h-45z" />
    <glyph glyph-name="sterling" unicode="&#xa3;" horiz-adv-x="649" 
d="M14 0l6 45h100l69 491q10 67 43.5 116.5t86 77t116.5 27.5q60 0 106 -22.5t73 -65.5t27 -105l-46 -6q0 74 -41.5 114t-116.5 40q-77 0 -131.5 -49t-66.5 -131l-68 -487h348l-6 -45h-499zM63 356l6 45h350l-6 -45h-350z" />
    <glyph glyph-name="currency" unicode="&#xa4;" horiz-adv-x="597" 
d="M81 43l-28 32l82 74q-16 23 -23.5 49t-7.5 51q0 37 14.5 73t41.5 68l-66 75l34 30l66 -74q28 20 62 32t64 12q32 0 62 -12t54 -32l82 74l28 -30l-81 -75q15 -25 22 -50.5t7 -51.5q0 -37 -14 -72.5t-40 -66.5l65 -74l-34 -32l-67 74q-31 -22 -63.5 -32t-61.5 -10
q-28 0 -59.5 10t-57.5 32zM284 123q44 0 81 22.5t60 59.5t23 79q0 37 -17.5 66.5t-47.5 47.5t-68 18q-43 0 -80.5 -22.5t-61 -59.5t-23.5 -79q0 -36 18 -66t48.5 -48t67.5 -18z" />
    <glyph glyph-name="yen" unicode="&#xa5;" horiz-adv-x="624" 
d="M251 0l46 333l-207 412h53l195 -376h-28l297 376h63l-323 -412l-46 -333h-50zM144 308l6 45h350l-6 -45h-350zM122 153l6 45h350l-6 -45h-350z" />
    <glyph glyph-name="brokenbar" unicode="&#xa6;" horiz-adv-x="270" 
d="M133 428l59 417h50l-59 -417h-50zM46 -190l59 418h50l-59 -418h-50z" />
    <glyph glyph-name="section" unicode="&#xa7;" horiz-adv-x="537" 
d="M229 -90q-71 0 -127 36.5t-77 100.5l46 20q21 -55 66.5 -83.5t98.5 -28.5q42 0 75 16t52.5 43t19.5 60q0 22 -10 40t-30 32t-50 22l-90 26q-59 17 -89.5 51t-30.5 80t25.5 83.5t68 60t94.5 22.5l-4 -35q-36 0 -67 -17t-50 -45t-19 -62q0 -19 9.5 -36t28.5 -30.5t47 -21.5
l90 -26q63 -18 95 -55t32 -83q0 -47 -27 -86t-73.5 -61.5t-103.5 -22.5zM275 176l3 35q43 0 77.5 17t55 46.5t20.5 65.5q0 22 -10 40t-30 32t-50 22l-90 26q-59 17 -89.5 51t-30.5 80t25.5 83.5t68.5 60t95 22.5q65 0 117 -34.5t68 -89.5l-49 -21q-18 47 -56 73.5t-86 26.5
q-37 0 -67.5 -15.5t-49 -41t-18.5 -57.5q0 -19 9.5 -36t28.5 -30.5t47 -21.5l90 -26q61 -17 94 -54t33 -84t-28 -85.5t-74.5 -61.5t-103.5 -23z" />
    <glyph glyph-name="dieresis" unicode="&#xa8;" horiz-adv-x="398" 
d="M156 640l11 75h70l-11 -75h-70zM306 640l11 75h70l-11 -75h-70z" />
    <glyph glyph-name="copyright" unicode="&#xa9;" horiz-adv-x="898" 
d="M440 -12q-77 0 -143 27.5t-115 76.5t-76 114t-27 141q0 84 32.5 158t89.5 130.5t131 89t158 32.5q77 0 142.5 -27.5t114.5 -77t76 -114.5t27 -140q0 -85 -33 -159t-90 -130.5t-131 -88.5t-156 -32zM440 36q73 0 138 28.5t115 78t78.5 115.5t28.5 141q0 65 -23 121
t-65 98.5t-98.5 66.5t-123.5 24q-73 0 -138.5 -28.5t-115.5 -78.5t-78.5 -115.5t-28.5 -140.5q0 -87 40.5 -157.5t110.5 -111.5t160 -41zM455 163q-54 0 -95.5 25t-65.5 69.5t-24 100.5q0 65 28.5 115.5t76.5 79.5t106 29q42 0 75 -15t54.5 -38.5t29.5 -49.5l-44 -19
q-12 33 -42 54.5t-73 21.5q-46 0 -82.5 -23t-57.5 -64t-21 -94q0 -65 37 -105.5t98 -40.5q46 0 78.5 22.5t48.5 55.5l44 -23q-12 -25 -36.5 -48.5t-59 -38t-75.5 -14.5z" />
    <glyph glyph-name="ordfeminine" unicode="&#xaa;" horiz-adv-x="457" 
d="M212 367q-46 0 -81 25.5t-35 73.5q0 32 16.5 57t46 42t69.5 23l153 25l-3 -40l-140 -23q-44 -7 -70 -28.5t-26 -53.5q0 -30 21 -46.5t55 -16.5q38 0 69.5 19t51.5 50.5t25 69.5l11 81q6 44 -21 66.5t-66 22.5q-37 0 -66.5 -17.5t-48.5 -46.5l-36 23q19 34 60.5 58
t91.5 24q41 0 72.5 -17.5t47.5 -47.5t10 -68l-35 -247h-44l11 77l8 -3q-20 -36 -60 -59t-87 -23z" />
    <glyph glyph-name="guillemotleft" unicode="&#xab;" horiz-adv-x="476" 
d="M156 83l-126 186l177 186h51l-178 -190l119 -182h-43zM372 83l-126 186l177 186h51l-178 -190l119 -182h-43z" />
    <glyph glyph-name="logicalnot" unicode="&#xac;" horiz-adv-x="596" 
d="M472 40l26 188h-455l6 45h500l-32 -233h-45z" />
    <glyph glyph-name="registered" unicode="&#xae;" horiz-adv-x="639" 
d="M341 272q-68 0 -123 31.5t-86.5 86t-31.5 121.5q0 55 21.5 104.5t59.5 87.5t87.5 59.5t105.5 21.5q68 0 122 -32.5t85.5 -86.5t31.5 -120q0 -56 -22 -105.5t-60 -87t-87 -59t-103 -21.5zM341 315q61 0 113 31t84 83.5t32 115.5q0 54 -25.5 98.5t-70 70.5t-101.5 26
q-63 0 -115 -31t-83 -83t-31 -115q0 -55 25.5 -99.5t70.5 -70.5t101 -26zM250 394l37 270h90q38 0 62 -21t24 -58q0 -31 -15 -52t-41 -32l55 -107h-49l-50 101h-54l-15 -101h-44zM314 533h55q22 0 37 14.5t15 36.5q0 18 -12 29t-32 11h-51z" />
    <glyph glyph-name="macron" unicode="&#xaf;" horiz-adv-x="433" 
d="M159 660l6 40h250l-6 -40h-250z" />
    <glyph glyph-name="degree" unicode="&#xb0;" horiz-adv-x="441" 
d="M261 486q-36 0 -64.5 16t-45 44t-16.5 64q0 41 19.5 74.5t52.5 53t73 19.5q37 0 65 -16.5t44.5 -45t16.5 -64.5q0 -40 -19.5 -73t-52 -52.5t-73.5 -19.5zM264 524q24 0 47.5 12.5t39.5 36t16 55.5q0 41 -27.5 65.5t-62.5 24.5q-41 0 -72 -29.5t-31 -75.5
q0 -40 26.5 -64.5t63.5 -24.5z" />
    <glyph glyph-name="plusminus" unicode="&#xb1;" horiz-adv-x="596" 
d="M260 145l28 198h-228l6 45h228l28 197h45l-28 -197h227l-6 -45h-227l-28 -198h-45zM12 0l6 45h500l-6 -45h-500z" />
    <glyph glyph-name="uni00B2" unicode="&#xb2;" horiz-adv-x="442" 
d="M54 223l3 30l182 179q42 42 71.5 73t44.5 59t15 61q0 39 -25.5 62.5t-72.5 23.5q-49 0 -85.5 -28.5t-54.5 -80.5l-42 12q22 67 71.5 103t110.5 36q41 0 73.5 -15.5t51.5 -44t19 -67.5q0 -40 -19 -74.5t-46.5 -64.5t-54.5 -56l-170 -166h265l-6 -42h-331z" />
    <glyph glyph-name="uni00B3" unicode="&#xb3;" horiz-adv-x="429" 
d="M217 215q-43 0 -78.5 15.5t-58.5 44.5t-30 70l42 14q8 -48 41.5 -75.5t85.5 -27.5q59 0 98 38t39 97q0 53 -33 81t-83 28q-7 0 -16.5 -1t-19.5 -3l-7 21l164 186h-253l7 42h309l-5 -36l-160 -183l-5 11q44 1 77 -18.5t52 -53t19 -75.5q0 -49 -24.5 -88.5t-66.5 -63
t-94 -23.5z" />
    <glyph glyph-name="acute" unicode="&#xb4;" horiz-adv-x="330" 
d="M156 640l114 150h61l-130 -150h-45z" />
    <glyph glyph-name="uni00B5" unicode="&#xb5;" horiz-adv-x="570" 
d="M20 -140l94 666h46l-49 -342q-7 -50 9 -84.5t48.5 -51.5t73.5 -17q52 0 91.5 24t64 64.5t31.5 88.5l45 318h45l-74 -526h-45l15 113l8 -17q-25 -49 -74 -78.5t-109 -29.5q-52 0 -95 23t-63 66l16 14l-32 -231h-46z" />
    <glyph glyph-name="paragraph" unicode="&#xb6;" horiz-adv-x="358" 
d="M147 -100l77 553q-45 0 -76 18t-45 51t-8 77t29 77t59 51t82 18h50l-118 -845h-50z" />
    <glyph glyph-name="periodcentered" unicode="&#xb7;" horiz-adv-x="261" 
d="M98 226l12 90h55l-12 -90h-55z" />
    <glyph glyph-name="cedilla" unicode="&#xb8;" horiz-adv-x="382" 
d="M132 -220q-25 0 -49.5 9.5t-41.5 29.5l19 32q14 -17 34.5 -26.5t39.5 -9.5q26 0 43.5 15.5t17.5 37.5q0 25 -25 38.5t-69 17.5l37 86h43l-24 -59q41 -7 61.5 -28.5t20.5 -48.5q0 -26 -14.5 -47.5t-38.5 -34t-54 -12.5z" />
    <glyph glyph-name="uni00B9" unicode="&#xb9;" horiz-adv-x="292" 
d="M120 223l67 480h-98l6 42h145l-73 -522h-47z" />
    <glyph glyph-name="ordmasculine" unicode="&#xba;" horiz-adv-x="511" 
d="M286 367q-50 0 -90.5 23.5t-64 64.5t-23.5 94q0 57 27 103.5t72.5 74.5t101.5 28q51 0 91.5 -23.5t63.5 -64.5t23 -93q0 -56 -27 -103.5t-72.5 -75.5t-101.5 -28zM285 409q44 0 79 23t55.5 61t20.5 82q0 59 -37 98.5t-93 39.5q-43 0 -78.5 -22.5t-56.5 -60t-21 -82.5
q0 -40 17 -71t47 -49.5t67 -18.5z" />
    <glyph glyph-name="guillemotright" unicode="&#xbb;" horiz-adv-x="476" 
d="M220 83l178 190l-119 182h43l126 -186l-177 -186h-51zM4 83l178 190l-119 182h43l126 -186l-177 -186h-51z" />
    <glyph glyph-name="onequarter" unicode="&#xbc;" horiz-adv-x="846" 
d="M116 327l53 378h-79l6 40h124l-59 -418h-45zM75 0l550 745h56l-550 -745h-56zM669 0l13 97h-210l5 37l250 284h43l-40 -283h51l-5 -38h-51l-13 -97h-43zM512 119l-5 16h181l34 244l15 -4z" />
    <glyph glyph-name="onehalf" unicode="&#xbd;" horiz-adv-x="829" 
d="M116 327l53 378h-79l6 40h124l-59 -418h-45zM75 0l550 745h56l-550 -745h-56zM473 0l3 30l140 137q35 35 58.5 59t35 45.5t11.5 47.5q0 29 -19 46.5t-54 17.5q-38 0 -65 -21.5t-41 -59.5l-40 12q17 53 57 81.5t89 28.5q51 0 84.5 -28t33.5 -75q0 -30 -14 -57.5t-36 -51.5
t-46 -47l-129 -125h206l-6 -40h-268z" />
    <glyph glyph-name="threequarters" unicode="&#xbe;" horiz-adv-x="937" 
d="M196 321q-35 0 -63.5 12t-47 35t-24.5 55l40 14q7 -36 33 -56.5t64 -20.5q44 0 74 28.5t30 73.5q0 40 -25 61.5t-63 21.5q-7 0 -16 -1t-16 -3l-7 20l129 144h-196l7 40h249l-5 -36l-126 -141l-4 12q53 0 85 -34t32 -84q0 -40 -20 -72t-54 -50.5t-76 -18.5zM166 0l550 745
h56l-550 -745h-56zM760 0l13 97h-210l5 37l250 284h43l-40 -283h51l-5 -38h-51l-13 -97h-43zM603 119l-5 16h181l34 244l15 -4z" />
    <glyph glyph-name="questiondown" unicode="&#xbf;" horiz-adv-x="473" 
d="M172 -231q-50 0 -89.5 21t-62 56.5t-22.5 78.5q0 52 25 92.5t60 73.5t65 61q40 38 63.5 77t35.5 85l1 4h45l-1 -4q-16 -66 -47 -113t-77 -87q-26 -23 -54 -51t-47 -62t-19 -75q0 -43 33 -78t94 -35q63 0 110 38.5t67 107.5l42 -9q-13 -56 -45.5 -96.5t-78 -62.5
t-98.5 -22zM259 436l12 90h55l-12 -90h-55z" />
    <glyph glyph-name="Agrave" unicode="&#xc0;" horiz-adv-x="644" 
d="M-15 0l380 745h48l172 -745h-54l-44 197h-344l-100 -197h-58zM165 242h312l-104 461l24 -3zM384 859l-86 150h61l70 -150h-45z" />
    <glyph glyph-name="Aacute" unicode="&#xc1;" horiz-adv-x="644" 
d="M-15 0l380 745h48l172 -745h-54l-44 197h-344l-100 -197h-58zM165 242h312l-104 461l24 -3zM383 859l114 150h61l-130 -150h-45z" />
    <glyph glyph-name="Acircumflex" unicode="&#xc2;" horiz-adv-x="644" 
d="M-15 0l380 745h48l172 -745h-54l-44 197h-344l-100 -197h-58zM165 242h312l-104 461l24 -3zM259 859l147 150h43l104 -150h-48l-79 112l-111 -112h-56z" />
    <glyph glyph-name="Atilde" unicode="&#xc3;" horiz-adv-x="644" 
d="M-15 0l380 745h48l172 -745h-54l-44 197h-344l-100 -197h-58zM165 242h312l-104 461l24 -3zM463 859q-25 0 -40 10.5t-24.5 25t-19 25t-25.5 10.5q-19 0 -31.5 -16t-17.5 -51h-40q5 32 18 56t33.5 37t46.5 13q25 0 38.5 -10.5t23 -25t19.5 -25t27 -10.5q21 0 34.5 16.5
t17.5 50.5h40q-6 -46 -32.5 -76t-67.5 -30z" />
    <glyph glyph-name="Adieresis" unicode="&#xc4;" horiz-adv-x="644" 
d="M-15 0l380 745h48l172 -745h-54l-44 197h-344l-100 -197h-58zM165 242h312l-104 461l24 -3zM296 859l11 75h70l-11 -75h-70zM446 859l11 75h70l-11 -75h-70z" />
    <glyph glyph-name="Aring" unicode="&#xc5;" horiz-adv-x="644" 
d="M-15 0l380 745h48l172 -745h-54l-44 197h-344l-100 -197h-58zM165 242h312l-104 461l24 -3zM402 839q-35 0 -58.5 21.5t-23.5 57.5q0 30 14.5 54.5t39.5 39.5t54 15q36 0 59.5 -22t23.5 -57q0 -30 -14.5 -54.5t-39.5 -39.5t-55 -15zM407 875q27 0 47 20t20 47
q0 22 -15 35t-36 13q-26 0 -45.5 -19.5t-19.5 -47.5q0 -22 14 -35t35 -13z" />
    <glyph glyph-name="AE" unicode="&#xc6;" horiz-adv-x="987" 
d="M-15 0l380 745h634l-6 -45h-410l-43 -304h390l-6 -45h-390l-43 -306h410l-6 -45h-460l27 197h-320l-99 -197h-58zM165 242h304l64 458h-136z" />
    <glyph glyph-name="Ccedilla" unicode="&#xc7;" horiz-adv-x="803" 
d="M418 -12q-67 0 -126 24t-104 69.5t-70.5 110.5t-25.5 147q0 87 28.5 163t79.5 133t120 89.5t149 32.5q76 0 134 -27.5t96 -69.5t53 -85l-48 -19q-28 70 -88 111.5t-148 41.5q-73 0 -132.5 -29t-103 -79.5t-67 -117.5t-23.5 -142q0 -93 34.5 -161.5t96.5 -106t144 -37.5
q89 0 156 42.5t105 112.5l46 -23q-21 -43 -64.5 -84.5t-105 -68.5t-136.5 -27zM396 -220q-25 0 -49.5 9.5t-41.5 29.5l19 32q14 -17 34.5 -26.5t39.5 -9.5q26 0 43.5 15.5t17.5 37.5q0 25 -25 38.5t-69 17.5l37 86h43l-24 -59q41 -7 61.5 -28.5t20.5 -48.5
q0 -26 -14.5 -47.5t-38.5 -34t-54 -12.5z" />
    <glyph glyph-name="Egrave" unicode="&#xc8;" horiz-adv-x="615" 
d="M63 0l104 745h460l-6 -45h-410l-43 -304h390l-6 -45h-390l-43 -306h410l-6 -45h-460zM392 859l-86 150h61l70 -150h-45z" />
    <glyph glyph-name="Eacute" unicode="&#xc9;" horiz-adv-x="615" 
d="M63 0l104 745h460l-6 -45h-410l-43 -304h390l-6 -45h-390l-43 -306h410l-6 -45h-460zM391 859l114 150h61l-130 -150h-45z" />
    <glyph glyph-name="Ecircumflex" unicode="&#xca;" horiz-adv-x="615" 
d="M63 0l104 745h460l-6 -45h-410l-43 -304h390l-6 -45h-390l-43 -306h410l-6 -45h-460zM267 859l147 150h43l104 -150h-48l-79 112l-111 -112h-56z" />
    <glyph glyph-name="Edieresis" unicode="&#xcb;" horiz-adv-x="615" 
d="M63 0l104 745h460l-6 -45h-410l-43 -304h390l-6 -45h-390l-43 -306h410l-6 -45h-460zM304 859l11 75h70l-11 -75h-70zM454 859l11 75h70l-11 -75h-70z" />
    <glyph glyph-name="Igrave" unicode="&#xcc;" horiz-adv-x="249" 
d="M63 0l104 745h50l-104 -745h-50zM187 859l-86 150h61l70 -150h-45z" />
    <glyph glyph-name="Iacute" unicode="&#xcd;" horiz-adv-x="249" 
d="M63 0l104 745h50l-104 -745h-50zM186 859l114 150h61l-130 -150h-45z" />
    <glyph glyph-name="Icircumflex" unicode="&#xce;" horiz-adv-x="249" 
d="M63 0l104 745h50l-104 -745h-50zM62 859l147 150h43l104 -150h-48l-79 112l-111 -112h-56z" />
    <glyph glyph-name="Idieresis" unicode="&#xcf;" horiz-adv-x="249" 
d="M63 0l104 745h50l-104 -745h-50zM99 859l11 75h70l-11 -75h-70zM249 859l11 75h70l-11 -75h-70z" />
    <glyph glyph-name="Eth" unicode="&#xd0;" horiz-adv-x="746" 
d="M42 350l6 45h290l-6 -45h-290zM63 0l104 745h215q99 0 172 -40t113.5 -114t40.5 -176q0 -81 -26 -155.5t-76.5 -133t-123.5 -92.5t-168 -34h-251zM119 45h198q78 0 140.5 29.5t107.5 81t69 118.5t24 141q0 88 -33.5 152t-96.5 98.5t-152 34.5h-165z" />
    <glyph glyph-name="Ntilde" unicode="&#xd1;" horiz-adv-x="739" 
d="M63 0l104 745h40l370 -667h-13l93 667h50l-104 -745h-40l-372 671h16l-94 -671h-50zM511 859q-25 0 -40 10.5t-24.5 25t-19 25t-25.5 10.5q-19 0 -31.5 -16t-17.5 -51h-40q5 32 18 56t33.5 37t46.5 13q25 0 38.5 -10.5t23 -25t19.5 -25t27 -10.5q21 0 34.5 16.5
t17.5 50.5h40q-6 -46 -32.5 -76t-67.5 -30z" />
    <glyph glyph-name="Ograve" unicode="&#xd2;" horiz-adv-x="887" 
d="M434 -12q-72 0 -134 25.5t-108.5 73t-72.5 112.5t-26 144q0 86 30 161t83 132t124.5 89t153.5 32q72 0 134 -25.5t108.5 -73t72.5 -112.5t26 -143q0 -86 -30 -161.5t-83 -132.5t-124 -89t-154 -32zM434 36q74 0 136 29.5t108 80.5t71.5 117t25.5 139q0 84 -35.5 153.5
t-100.5 111.5t-155 42q-74 0 -136.5 -30t-108.5 -81.5t-71 -117t-25 -136.5q0 -84 36 -154t101.5 -112t153.5 -42zM506 859l-86 150h61l70 -150h-45z" />
    <glyph glyph-name="Oacute" unicode="&#xd3;" horiz-adv-x="887" 
d="M434 -12q-72 0 -134 25.5t-108.5 73t-72.5 112.5t-26 144q0 86 30 161t83 132t124.5 89t153.5 32q72 0 134 -25.5t108.5 -73t72.5 -112.5t26 -143q0 -86 -30 -161.5t-83 -132.5t-124 -89t-154 -32zM434 36q74 0 136 29.5t108 80.5t71.5 117t25.5 139q0 84 -35.5 153.5
t-100.5 111.5t-155 42q-74 0 -136.5 -30t-108.5 -81.5t-71 -117t-25 -136.5q0 -84 36 -154t101.5 -112t153.5 -42zM505 859l114 150h61l-130 -150h-45z" />
    <glyph glyph-name="Ocircumflex" unicode="&#xd4;" horiz-adv-x="887" 
d="M434 -12q-72 0 -134 25.5t-108.5 73t-72.5 112.5t-26 144q0 86 30 161t83 132t124.5 89t153.5 32q72 0 134 -25.5t108.5 -73t72.5 -112.5t26 -143q0 -86 -30 -161.5t-83 -132.5t-124 -89t-154 -32zM434 36q74 0 136 29.5t108 80.5t71.5 117t25.5 139q0 84 -35.5 153.5
t-100.5 111.5t-155 42q-74 0 -136.5 -30t-108.5 -81.5t-71 -117t-25 -136.5q0 -84 36 -154t101.5 -112t153.5 -42zM381 859l147 150h43l104 -150h-48l-79 112l-111 -112h-56z" />
    <glyph glyph-name="Otilde" unicode="&#xd5;" horiz-adv-x="887" 
d="M434 -12q-72 0 -134 25.5t-108.5 73t-72.5 112.5t-26 144q0 86 30 161t83 132t124.5 89t153.5 32q72 0 134 -25.5t108.5 -73t72.5 -112.5t26 -143q0 -86 -30 -161.5t-83 -132.5t-124 -89t-154 -32zM434 36q74 0 136 29.5t108 80.5t71.5 117t25.5 139q0 84 -35.5 153.5
t-100.5 111.5t-155 42q-74 0 -136.5 -30t-108.5 -81.5t-71 -117t-25 -136.5q0 -84 36 -154t101.5 -112t153.5 -42zM585 859q-25 0 -40 10.5t-24.5 25t-19 25t-25.5 10.5q-19 0 -31.5 -16t-17.5 -51h-40q5 32 18 56t33.5 37t46.5 13q25 0 38.5 -10.5t23 -25t19.5 -25
t27 -10.5q21 0 34.5 16.5t17.5 50.5h40q-6 -46 -32.5 -76t-67.5 -30z" />
    <glyph glyph-name="Odieresis" unicode="&#xd6;" horiz-adv-x="887" 
d="M434 -12q-72 0 -134 25.5t-108.5 73t-72.5 112.5t-26 144q0 86 30 161t83 132t124.5 89t153.5 32q72 0 134 -25.5t108.5 -73t72.5 -112.5t26 -143q0 -86 -30 -161.5t-83 -132.5t-124 -89t-154 -32zM434 36q74 0 136 29.5t108 80.5t71.5 117t25.5 139q0 84 -35.5 153.5
t-100.5 111.5t-155 42q-74 0 -136.5 -30t-108.5 -81.5t-71 -117t-25 -136.5q0 -84 36 -154t101.5 -112t153.5 -42zM418 859l11 75h70l-11 -75h-70zM568 859l11 75h70l-11 -75h-70z" />
    <glyph glyph-name="multiply" unicode="&#xd7;" horiz-adv-x="596" 
d="M87 0l-29 31l200 176l-150 174l34 32l151 -174l199 174l28 -32l-198 -174l150 -176l-35 -31l-150 175z" />
    <glyph glyph-name="Oslash" unicode="&#xd8;" horiz-adv-x="887" 
d="M70 0l714 745h64l-714 -745h-64zM434 -12q-72 0 -134 25.5t-108.5 73t-72.5 112.5t-26 144q0 86 30 161t83 132t124.5 89t153.5 32q72 0 134 -25.5t108.5 -73t72.5 -112.5t26 -143q0 -86 -30 -161.5t-83 -132.5t-124 -89t-154 -32zM434 36q74 0 136 29.5t108 80.5
t71.5 117t25.5 139q0 84 -35.5 153.5t-100.5 111.5t-155 42q-74 0 -136.5 -30t-108.5 -81.5t-71 -117t-25 -136.5q0 -84 36 -154t101.5 -112t153.5 -42z" />
    <glyph glyph-name="Ugrave" unicode="&#xd9;" horiz-adv-x="691" 
d="M310 -12q-75 0 -127.5 33.5t-76 93t-12.5 138.5l69 492h50l-70 -500q-9 -63 10 -110.5t60.5 -74.5t99.5 -27t107 26.5t82 75.5t42 114l69 496h50l-69 -496q-11 -79 -50.5 -137.5t-99.5 -91t-134 -32.5zM408 859l-86 150h61l70 -150h-45z" />
    <glyph glyph-name="Uacute" unicode="&#xda;" horiz-adv-x="691" 
d="M310 -12q-75 0 -127.5 33.5t-76 93t-12.5 138.5l69 492h50l-70 -500q-9 -63 10 -110.5t60.5 -74.5t99.5 -27t107 26.5t82 75.5t42 114l69 496h50l-69 -496q-11 -79 -50.5 -137.5t-99.5 -91t-134 -32.5zM407 859l114 150h61l-130 -150h-45z" />
    <glyph glyph-name="Ucircumflex" unicode="&#xdb;" horiz-adv-x="691" 
d="M310 -12q-75 0 -127.5 33.5t-76 93t-12.5 138.5l69 492h50l-70 -500q-9 -63 10 -110.5t60.5 -74.5t99.5 -27t107 26.5t82 75.5t42 114l69 496h50l-69 -496q-11 -79 -50.5 -137.5t-99.5 -91t-134 -32.5zM283 859l147 150h43l104 -150h-48l-79 112l-111 -112h-56z" />
    <glyph glyph-name="Udieresis" unicode="&#xdc;" horiz-adv-x="691" 
d="M310 -12q-75 0 -127.5 33.5t-76 93t-12.5 138.5l69 492h50l-70 -500q-9 -63 10 -110.5t60.5 -74.5t99.5 -27t107 26.5t82 75.5t42 114l69 496h50l-69 -496q-11 -79 -50.5 -137.5t-99.5 -91t-134 -32.5zM320 859l11 75h70l-11 -75h-70zM470 859l11 75h70l-11 -75h-70z" />
    <glyph glyph-name="Yacute" unicode="&#xdd;" horiz-adv-x="624" 
d="M251 0l46 333l-207 412h53l195 -376h-28l297 376h63l-323 -412l-46 -333h-50zM373 859l114 150h61l-130 -150h-45z" />
    <glyph glyph-name="Thorn" unicode="&#xde;" horiz-adv-x="653" 
d="M59 0l104 745h50l-21 -150h203q65 0 113 -25.5t74.5 -70.5t26.5 -104q0 -71 -34 -126.5t-92.5 -87t-133.5 -31.5h-219l-21 -150h-50zM136 195h217q59 0 105.5 26.5t73.5 71.5t27 102q0 70 -46 112.5t-122 42.5h-205z" />
    <glyph glyph-name="germandbls" unicode="&#xdf;" horiz-adv-x="606" 
d="M42 -140l96 683q10 68 44 115.5t84 73t107 25.5q51 0 91 -20t63.5 -57.5t23.5 -92.5q0 -43 -17 -82.5t-54 -70.5t-97 -50l3 17q70 -12 108.5 -60.5t38.5 -110.5q0 -35 -14 -75t-44.5 -75t-81 -57.5t-124.5 -22.5h-61l6 45h57q59 0 99 17.5t65 45.5t36 60.5t11 62.5
q0 65 -42.5 103t-115.5 38h-64l6 45h53q50 0 84.5 18t56 46t31.5 58.5t10 55.5q0 50 -34.5 83.5t-95.5 33.5q-45 0 -85.5 -20.5t-67.5 -59.5t-35 -93l-96 -679h-45z" />
    <glyph glyph-name="agrave" unicode="&#xe0;" 
d="M208 -12q-45 0 -81.5 16.5t-57.5 47.5t-21 74q0 46 23.5 81.5t66 59t98.5 32.5l225 37l-4 -43l-208 -34q-70 -11 -112.5 -45.5t-42.5 -87.5q0 -48 33 -72t85 -24q61 0 108.5 30t78.5 80t39 110l15 106q6 43 -10 74t-48.5 48t-77.5 17q-52 0 -98 -25.5t-75 -66.5l-39 23
q18 30 50 55.5t73.5 41t87.5 15.5q56 0 100 -23.5t66.5 -66t14.5 -98.5l-49 -350h-45l16 115h7q-17 -33 -49 -62t-75.5 -47t-93.5 -18zM318 640l-86 150h61l70 -150h-45z" />
    <glyph glyph-name="aacute" unicode="&#xe1;" 
d="M208 -12q-45 0 -81.5 16.5t-57.5 47.5t-21 74q0 46 23.5 81.5t66 59t98.5 32.5l225 37l-4 -43l-208 -34q-70 -11 -112.5 -45.5t-42.5 -87.5q0 -48 33 -72t85 -24q61 0 108.5 30t78.5 80t39 110l15 106q6 43 -10 74t-48.5 48t-77.5 17q-52 0 -98 -25.5t-75 -66.5l-39 23
q18 30 50 55.5t73.5 41t87.5 15.5q56 0 100 -23.5t66.5 -66t14.5 -98.5l-49 -350h-45l16 115h7q-17 -33 -49 -62t-75.5 -47t-93.5 -18zM317 640l114 150h61l-130 -150h-45z" />
    <glyph glyph-name="acircumflex" unicode="&#xe2;" 
d="M208 -12q-45 0 -81.5 16.5t-57.5 47.5t-21 74q0 46 23.5 81.5t66 59t98.5 32.5l225 37l-4 -43l-208 -34q-70 -11 -112.5 -45.5t-42.5 -87.5q0 -48 33 -72t85 -24q61 0 108.5 30t78.5 80t39 110l15 106q6 43 -10 74t-48.5 48t-77.5 17q-52 0 -98 -25.5t-75 -66.5l-39 23
q18 30 50 55.5t73.5 41t87.5 15.5q56 0 100 -23.5t66.5 -66t14.5 -98.5l-49 -350h-45l16 115h7q-17 -33 -49 -62t-75.5 -47t-93.5 -18zM193 640l147 150h43l104 -150h-48l-79 112l-111 -112h-56z" />
    <glyph glyph-name="atilde" unicode="&#xe3;" 
d="M208 -12q-45 0 -81.5 16.5t-57.5 47.5t-21 74q0 46 23.5 81.5t66 59t98.5 32.5l225 37l-4 -43l-208 -34q-70 -11 -112.5 -45.5t-42.5 -87.5q0 -48 33 -72t85 -24q61 0 108.5 30t78.5 80t39 110l15 106q6 43 -10 74t-48.5 48t-77.5 17q-52 0 -98 -25.5t-75 -66.5l-39 23
q18 30 50 55.5t73.5 41t87.5 15.5q56 0 100 -23.5t66.5 -66t14.5 -98.5l-49 -350h-45l16 115h7q-17 -33 -49 -62t-75.5 -47t-93.5 -18zM397 640q-25 0 -40 10.5t-24.5 25t-19 25t-25.5 10.5q-19 0 -31.5 -16t-17.5 -51h-40q5 32 18 56t33.5 37t46.5 13q25 0 38.5 -10.5
t23 -25t19.5 -25t27 -10.5q21 0 34.5 16.5t17.5 50.5h40q-6 -46 -32.5 -76t-67.5 -30z" />
    <glyph glyph-name="adieresis" unicode="&#xe4;" 
d="M208 -12q-45 0 -81.5 16.5t-57.5 47.5t-21 74q0 46 23.5 81.5t66 59t98.5 32.5l225 37l-4 -43l-208 -34q-70 -11 -112.5 -45.5t-42.5 -87.5q0 -48 33 -72t85 -24q61 0 108.5 30t78.5 80t39 110l15 106q6 43 -10 74t-48.5 48t-77.5 17q-52 0 -98 -25.5t-75 -66.5l-39 23
q18 30 50 55.5t73.5 41t87.5 15.5q56 0 100 -23.5t66.5 -66t14.5 -98.5l-49 -350h-45l16 115h7q-17 -33 -49 -62t-75.5 -47t-93.5 -18zM230 640l11 75h70l-11 -75h-70zM380 640l11 75h70l-11 -75h-70z" />
    <glyph glyph-name="aring" unicode="&#xe5;" 
d="M208 -12q-45 0 -81.5 16.5t-57.5 47.5t-21 74q0 46 23.5 81.5t66 59t98.5 32.5l225 37l-4 -43l-208 -34q-70 -11 -112.5 -45.5t-42.5 -87.5q0 -48 33 -72t85 -24q61 0 108.5 30t78.5 80t39 110l15 106q6 43 -10 74t-48.5 48t-77.5 17q-52 0 -98 -25.5t-75 -66.5l-39 23
q18 30 50 55.5t73.5 41t87.5 15.5q56 0 100 -23.5t66.5 -66t14.5 -98.5l-49 -350h-45l16 115h7q-17 -33 -49 -62t-75.5 -47t-93.5 -18zM336 620q-35 0 -58.5 21.5t-23.5 57.5q0 30 14.5 54.5t39.5 39.5t54 15q36 0 59.5 -22t23.5 -57q0 -30 -14.5 -54.5t-39.5 -39.5t-55 -15
zM341 656q27 0 47 20t20 47q0 22 -15 35t-36 13q-26 0 -45.5 -19.5t-19.5 -47.5q0 -22 14 -35t35 -13z" />
    <glyph glyph-name="ae" unicode="&#xe6;" horiz-adv-x="1005" 
d="M208 -12q-45 0 -81.5 16.5t-57.5 47.5t-21 74q0 46 23.5 81.5t66 59t98.5 32.5l214 35l3 22q6 43 -10 74t-48.5 48t-77.5 17q-52 0 -98 -25.5t-75 -66.5l-39 23q18 30 50 55.5t73.5 41t87.5 15.5q49 0 89 -18.5t65.5 -51.5t28.5 -78l-16 3q35 65 97 105t138 40
q66 0 116.5 -30.5t79.5 -82.5t29 -119q0 -14 -2 -29t-5 -28h-447q0 -66 26 -115.5t72 -76.5t105 -27q58 0 106.5 27.5t79.5 76.5l37 -22q-22 -38 -56.5 -66t-76.5 -43t-89 -15q-85 0 -147.5 46.5t-87.5 122.5l14 13l-24 -170h-45l19 135l5 -19q-17 -32 -49.5 -61.5
t-75.5 -48t-94 -18.5zM212 30q61 0 108.5 30t78.5 80t39 110l6 41l-195 -32q-70 -11 -112.5 -45.5t-42.5 -87.5q0 -48 33 -72t85 -24zM493 289h403q5 60 -17 107t-63.5 73.5t-96.5 26.5q-57 0 -105 -28t-79.5 -75t-41.5 -104z" />
    <glyph glyph-name="ccedilla" unicode="&#xe7;" horiz-adv-x="619" 
d="M311 -12q-69 0 -124.5 32.5t-88 90t-32.5 132.5q0 61 22 114.5t60.5 94t89.5 63.5t109 23q49 0 90 -16.5t70.5 -44.5t45.5 -64l-39 -19q-24 50 -67 76t-100 26q-68 0 -121.5 -34.5t-84 -92.5t-30.5 -128q0 -66 27 -113t72.5 -72.5t100.5 -25.5q58 0 105.5 27.5t78.5 76.5
l37 -22q-20 -35 -53.5 -63.5t-76 -44.5t-91.5 -16zM289 -220q-25 0 -49.5 9.5t-41.5 29.5l19 32q14 -17 34.5 -26.5t39.5 -9.5q26 0 43.5 15.5t17.5 37.5q0 25 -25 38.5t-69 17.5l37 86h43l-24 -59q41 -7 61.5 -28.5t20.5 -48.5q0 -26 -14.5 -47.5t-38.5 -34t-54 -12.5z" />
    <glyph glyph-name="egrave" unicode="&#xe8;" horiz-adv-x="628" 
d="M316 -12q-72 0 -128.5 34t-88.5 92t-32 131q0 59 21 112t58 93.5t87 64t108 23.5q66 0 116.5 -30.5t79.5 -82.5t29 -119q0 -14 -2 -29t-5 -28h-469l3 40h443l-18 -12q8 63 -13 112.5t-63.5 78t-99.5 28.5q-65 0 -117 -35.5t-82.5 -93.5t-30.5 -125q0 -61 26 -109
t71.5 -75.5t105.5 -27.5q58 0 106.5 27.5t79.5 76.5l37 -22q-22 -38 -56.5 -66t-76.5 -43t-89 -15zM345 640l-86 150h61l70 -150h-45z" />
    <glyph glyph-name="eacute" unicode="&#xe9;" horiz-adv-x="628" 
d="M316 -12q-72 0 -128.5 34t-88.5 92t-32 131q0 59 21 112t58 93.5t87 64t108 23.5q66 0 116.5 -30.5t79.5 -82.5t29 -119q0 -14 -2 -29t-5 -28h-469l3 40h443l-18 -12q8 63 -13 112.5t-63.5 78t-99.5 28.5q-65 0 -117 -35.5t-82.5 -93.5t-30.5 -125q0 -61 26 -109
t71.5 -75.5t105.5 -27.5q58 0 106.5 27.5t79.5 76.5l37 -22q-22 -38 -56.5 -66t-76.5 -43t-89 -15zM344 640l114 150h61l-130 -150h-45z" />
    <glyph glyph-name="ecircumflex" unicode="&#xea;" horiz-adv-x="628" 
d="M316 -12q-72 0 -128.5 34t-88.5 92t-32 131q0 59 21 112t58 93.5t87 64t108 23.5q66 0 116.5 -30.5t79.5 -82.5t29 -119q0 -14 -2 -29t-5 -28h-469l3 40h443l-18 -12q8 63 -13 112.5t-63.5 78t-99.5 28.5q-65 0 -117 -35.5t-82.5 -93.5t-30.5 -125q0 -61 26 -109
t71.5 -75.5t105.5 -27.5q58 0 106.5 27.5t79.5 76.5l37 -22q-22 -38 -56.5 -66t-76.5 -43t-89 -15zM220 640l147 150h43l104 -150h-48l-79 112l-111 -112h-56z" />
    <glyph glyph-name="edieresis" unicode="&#xeb;" horiz-adv-x="628" 
d="M316 -12q-72 0 -128.5 34t-88.5 92t-32 131q0 59 21 112t58 93.5t87 64t108 23.5q66 0 116.5 -30.5t79.5 -82.5t29 -119q0 -14 -2 -29t-5 -28h-469l3 40h443l-18 -12q8 63 -13 112.5t-63.5 78t-99.5 28.5q-65 0 -117 -35.5t-82.5 -93.5t-30.5 -125q0 -61 26 -109
t71.5 -75.5t105.5 -27.5q58 0 106.5 27.5t79.5 76.5l37 -22q-22 -38 -56.5 -66t-76.5 -43t-89 -15zM257 640l11 75h70l-11 -75h-70zM407 640l11 75h70l-11 -75h-70z" />
    <glyph glyph-name="igrave" unicode="&#xec;" horiz-adv-x="185" 
d="M33 0l74 526h45l-74 -526h-45zM123 640l-86 150h61l70 -150h-45z" />
    <glyph glyph-name="iacute" unicode="&#xed;" horiz-adv-x="185" 
d="M33 0l74 526h45l-74 -526h-45zM122 640l114 150h61l-130 -150h-45z" />
    <glyph glyph-name="icircumflex" unicode="&#xee;" horiz-adv-x="185" 
d="M33 0l74 526h45l-74 -526h-45zM-2 640l147 150h43l104 -150h-48l-79 112l-111 -112h-56z" />
    <glyph glyph-name="idieresis" unicode="&#xef;" horiz-adv-x="185" 
d="M33 0l74 526h45l-74 -526h-45zM35 640l11 75h70l-11 -75h-70zM185 640l11 75h70l-11 -75h-70z" />
    <glyph glyph-name="eth" unicode="&#xf0;" horiz-adv-x="688" 
d="M343 -12q-75 0 -132 33t-89 90t-32 128q0 61 21.5 113.5t60 92t90.5 61.5t112 22q46 0 90 -15.5t80 -51.5t56 -98l-21 -14q2 80 -21.5 152.5t-68 129.5t-105 89.5t-131.5 32.5q-24 0 -49.5 -4t-52.5 -13l-13 42q31 9 61 13.5t58 4.5q92 0 161 -39.5t115.5 -106t70 -147.5
t23.5 -164q0 -99 -33 -178.5t-96 -126t-155 -46.5zM338 31q70 0 123 34.5t83 91t30 123.5q0 58 -25 104.5t-70 73.5t-105 27q-66 0 -119.5 -33.5t-85 -89t-31.5 -123.5q0 -60 26.5 -107t72 -74t101.5 -27zM299 588l3 42l283 97l-3 -43z" />
    <glyph glyph-name="ntilde" unicode="&#xf1;" horiz-adv-x="570" 
d="M51 0l74 526h45l-16 -111l-12 7q23 53 74.5 84.5t112.5 31.5q54 0 96.5 -25t64 -71t12.5 -109l-46 -333h-45l46 332q11 79 -27.5 121t-102.5 42q-51 0 -90.5 -24t-64.5 -64t-32 -89l-44 -318h-45zM395 640q-25 0 -40 10.5t-24.5 25t-19 25t-25.5 10.5q-19 0 -31.5 -16
t-17.5 -51h-40q5 32 18 56t33.5 37t46.5 13q25 0 38.5 -10.5t23 -25t19.5 -25t27 -10.5q21 0 34.5 16.5t17.5 50.5h40q-6 -46 -32.5 -76t-67.5 -30z" />
    <glyph glyph-name="ograve" unicode="&#xf2;" horiz-adv-x="664" 
d="M315 -12q-72 0 -128.5 33t-88.5 91t-32 131q0 61 21.5 114.5t60 94t90.5 63.5t112 23q73 0 128.5 -33t87.5 -90.5t32 -131.5q0 -61 -21.5 -114.5t-60 -94t-90 -63.5t-111.5 -23zM314 31q67 0 120.5 35t84.5 93t31 126q0 60 -25.5 107.5t-70.5 75t-103 27.5
q-67 0 -120.5 -34.5t-85 -92t-31.5 -125.5q0 -60 26 -108t71.5 -76t102.5 -28zM363 640l-86 150h61l70 -150h-45z" />
    <glyph glyph-name="oacute" unicode="&#xf3;" horiz-adv-x="664" 
d="M315 -12q-72 0 -128.5 33t-88.5 91t-32 131q0 61 21.5 114.5t60 94t90.5 63.5t112 23q73 0 128.5 -33t87.5 -90.5t32 -131.5q0 -61 -21.5 -114.5t-60 -94t-90 -63.5t-111.5 -23zM314 31q67 0 120.5 35t84.5 93t31 126q0 60 -25.5 107.5t-70.5 75t-103 27.5
q-67 0 -120.5 -34.5t-85 -92t-31.5 -125.5q0 -60 26 -108t71.5 -76t102.5 -28zM362 640l114 150h61l-130 -150h-45z" />
    <glyph glyph-name="ocircumflex" unicode="&#xf4;" horiz-adv-x="664" 
d="M315 -12q-72 0 -128.5 33t-88.5 91t-32 131q0 61 21.5 114.5t60 94t90.5 63.5t112 23q73 0 128.5 -33t87.5 -90.5t32 -131.5q0 -61 -21.5 -114.5t-60 -94t-90 -63.5t-111.5 -23zM314 31q67 0 120.5 35t84.5 93t31 126q0 60 -25.5 107.5t-70.5 75t-103 27.5
q-67 0 -120.5 -34.5t-85 -92t-31.5 -125.5q0 -60 26 -108t71.5 -76t102.5 -28zM238 640l147 150h43l104 -150h-48l-79 112l-111 -112h-56z" />
    <glyph glyph-name="otilde" unicode="&#xf5;" horiz-adv-x="664" 
d="M315 -12q-72 0 -128.5 33t-88.5 91t-32 131q0 61 21.5 114.5t60 94t90.5 63.5t112 23q73 0 128.5 -33t87.5 -90.5t32 -131.5q0 -61 -21.5 -114.5t-60 -94t-90 -63.5t-111.5 -23zM314 31q67 0 120.5 35t84.5 93t31 126q0 60 -25.5 107.5t-70.5 75t-103 27.5
q-67 0 -120.5 -34.5t-85 -92t-31.5 -125.5q0 -60 26 -108t71.5 -76t102.5 -28zM442 640q-25 0 -40 10.5t-24.5 25t-19 25t-25.5 10.5q-19 0 -31.5 -16t-17.5 -51h-40q5 32 18 56t33.5 37t46.5 13q25 0 38.5 -10.5t23 -25t19.5 -25t27 -10.5q21 0 34.5 16.5t17.5 50.5h40
q-6 -46 -32.5 -76t-67.5 -30z" />
    <glyph glyph-name="odieresis" unicode="&#xf6;" horiz-adv-x="664" 
d="M315 -12q-72 0 -128.5 33t-88.5 91t-32 131q0 61 21.5 114.5t60 94t90.5 63.5t112 23q73 0 128.5 -33t87.5 -90.5t32 -131.5q0 -61 -21.5 -114.5t-60 -94t-90 -63.5t-111.5 -23zM314 31q67 0 120.5 35t84.5 93t31 126q0 60 -25.5 107.5t-70.5 75t-103 27.5
q-67 0 -120.5 -34.5t-85 -92t-31.5 -125.5q0 -60 26 -108t71.5 -76t102.5 -28zM275 640l11 75h70l-11 -75h-70zM425 640l11 75h70l-11 -75h-70z" />
    <glyph glyph-name="divide" unicode="&#xf7;" horiz-adv-x="596" 
d="M43 228l6 45h500l-6 -45h-500zM234 0l11 78h55l-11 -78h-55zM293 422l11 78h55l-11 -78h-55z" />
    <glyph glyph-name="oslash" unicode="&#xf8;" horiz-adv-x="664" 
d="M27 0l543 526h66l-543 -526h-66zM315 -12q-72 0 -128.5 33t-88.5 91t-32 131q0 61 21.5 114.5t60 94t90.5 63.5t112 23q73 0 128.5 -33t87.5 -90.5t32 -131.5q0 -61 -21.5 -114.5t-60 -94t-90 -63.5t-111.5 -23zM314 31q67 0 120.5 35t84.5 93t31 126q0 60 -25.5 107.5
t-70.5 75t-103 27.5q-67 0 -120.5 -34.5t-85 -92t-31.5 -125.5q0 -60 26 -108t71.5 -76t102.5 -28z" />
    <glyph glyph-name="ugrave" unicode="&#xf9;" horiz-adv-x="571" 
d="M241 -12q-53 0 -96 24t-65 71t-12 115l47 328h45l-47 -332q-8 -55 8 -91.5t48.5 -54t73.5 -17.5q52 0 91.5 24t64 64.5t31.5 88.5l45 318h45l-74 -526h-45l15 111l12 -7q-23 -52 -73.5 -84t-113.5 -32zM317 640l-86 150h61l70 -150h-45z" />
    <glyph glyph-name="uacute" unicode="&#xfa;" horiz-adv-x="571" 
d="M241 -12q-53 0 -96 24t-65 71t-12 115l47 328h45l-47 -332q-8 -55 8 -91.5t48.5 -54t73.5 -17.5q52 0 91.5 24t64 64.5t31.5 88.5l45 318h45l-74 -526h-45l15 111l12 -7q-23 -52 -73.5 -84t-113.5 -32zM316 640l114 150h61l-130 -150h-45z" />
    <glyph glyph-name="ucircumflex" unicode="&#xfb;" horiz-adv-x="571" 
d="M241 -12q-53 0 -96 24t-65 71t-12 115l47 328h45l-47 -332q-8 -55 8 -91.5t48.5 -54t73.5 -17.5q52 0 91.5 24t64 64.5t31.5 88.5l45 318h45l-74 -526h-45l15 111l12 -7q-23 -52 -73.5 -84t-113.5 -32zM192 640l147 150h43l104 -150h-48l-79 112l-111 -112h-56z" />
    <glyph glyph-name="udieresis" unicode="&#xfc;" horiz-adv-x="571" 
d="M241 -12q-53 0 -96 24t-65 71t-12 115l47 328h45l-47 -332q-8 -55 8 -91.5t48.5 -54t73.5 -17.5q52 0 91.5 24t64 64.5t31.5 88.5l45 318h45l-74 -526h-45l15 111l12 -7q-23 -52 -73.5 -84t-113.5 -32zM229 640l11 75h70l-11 -75h-70zM379 640l11 75h70l-11 -75h-70z" />
    <glyph glyph-name="yacute" unicode="&#xfd;" horiz-adv-x="531" 
d="M19 -220q-13 0 -29.5 2t-30.5 7l2 40q15 -4 29 -5t24 -1q34 1 59.5 13t46 35t39.5 55l56 96l-2 -46l-146 550h49l131 -496h-28l273 496h54l-337 -609q-15 -27 -40.5 -59t-62.5 -55t-87 -23zM296 640l114 150h61l-130 -150h-45z" />
    <glyph glyph-name="thorn" unicode="&#xfe;" horiz-adv-x="676" 
d="M24 -200l132 945h45l-51 -368l-15 18q33 65 95.5 104t137.5 39q71 0 125.5 -33.5t85.5 -90.5t31 -130q0 -61 -21.5 -115t-59.5 -94.5t-88 -63.5t-108 -23q-76 0 -136 41t-87 112l8 8l-48 -349h-46zM332 33q68 0 119.5 34.5t81 92t29.5 126.5q0 62 -25.5 108.5t-69 72.5
t-99.5 26q-66 0 -118.5 -34.5t-83 -91.5t-30.5 -125q0 -61 25.5 -108t69.5 -74t101 -27z" />
    <glyph glyph-name="ydieresis" unicode="&#xff;" horiz-adv-x="531" 
d="M19 -220q-13 0 -29.5 2t-30.5 7l2 40q15 -4 29 -5t24 -1q34 1 59.5 13t46 35t39.5 55l56 96l-2 -46l-146 550h49l131 -496h-28l273 496h54l-337 -609q-15 -27 -40.5 -59t-62.5 -55t-87 -23zM209 640l11 75h70l-11 -75h-70zM359 640l11 75h70l-11 -75h-70z" />
    <glyph glyph-name="Amacron" unicode="&#x100;" horiz-adv-x="644" 
d="M-15 0l380 745h48l172 -745h-54l-44 197h-344l-100 -197h-58zM165 242h312l-104 461l24 -3zM284 879l6 40h250l-6 -40h-250z" />
    <glyph glyph-name="amacron" unicode="&#x101;" 
d="M208 -12q-45 0 -81.5 16.5t-57.5 47.5t-21 74q0 46 23.5 81.5t66 59t98.5 32.5l225 37l-4 -43l-208 -34q-70 -11 -112.5 -45.5t-42.5 -87.5q0 -48 33 -72t85 -24q61 0 108.5 30t78.5 80t39 110l15 106q6 43 -10 74t-48.5 48t-77.5 17q-52 0 -98 -25.5t-75 -66.5l-39 23
q18 30 50 55.5t73.5 41t87.5 15.5q56 0 100 -23.5t66.5 -66t14.5 -98.5l-49 -350h-45l16 115h7q-17 -33 -49 -62t-75.5 -47t-93.5 -18zM218 660l6 40h250l-6 -40h-250z" />
    <glyph glyph-name="Abreve" unicode="&#x102;" horiz-adv-x="644" 
d="M-15 0l380 745h48l172 -745h-54l-44 197h-344l-100 -197h-58zM165 242h312l-104 461l24 -3zM411 859q-43 0 -72.5 18t-42.5 49.5t-7 72.5h46q-6 -44 13.5 -72t63.5 -28t71.5 28t33.5 72h46q-6 -41 -25.5 -72.5t-51.5 -49.5t-75 -18z" />
    <glyph glyph-name="abreve" unicode="&#x103;" 
d="M208 -12q-45 0 -81.5 16.5t-57.5 47.5t-21 74q0 46 23.5 81.5t66 59t98.5 32.5l225 37l-4 -43l-208 -34q-70 -11 -112.5 -45.5t-42.5 -87.5q0 -48 33 -72t85 -24q61 0 108.5 30t78.5 80t39 110l15 106q6 43 -10 74t-48.5 48t-77.5 17q-52 0 -98 -25.5t-75 -66.5l-39 23
q18 30 50 55.5t73.5 41t87.5 15.5q56 0 100 -23.5t66.5 -66t14.5 -98.5l-49 -350h-45l16 115h7q-17 -33 -49 -62t-75.5 -47t-93.5 -18zM345 640q-43 0 -72.5 18t-42.5 49.5t-7 72.5h46q-6 -44 13.5 -72t63.5 -28t71.5 28t33.5 72h46q-6 -41 -25.5 -72.5t-51.5 -49.5t-75 -18
z" />
    <glyph glyph-name="Aogonek" unicode="&#x104;" horiz-adv-x="644" 
d="M-15 0l380 745h48l172 -745h-54l-44 197h-344l-100 -197h-58zM165 242h312l-104 461l24 -3zM488 -220q-35 0 -59.5 18.5t-24.5 52.5t21 68.5t54.5 61t72.5 34.5h17l-2 -15q-32 -12 -59 -35t-43.5 -51t-16.5 -55q0 -21 12 -32.5t35 -11.5q20 0 43 9.5t41 26.5l11 -32
q-21 -19 -47.5 -29t-54.5 -10z" />
    <glyph glyph-name="aogonek" unicode="&#x105;" 
d="M208 -12q-45 0 -81.5 16.5t-57.5 47.5t-21 74q0 46 23.5 81.5t66 59t98.5 32.5l225 37l-4 -43l-208 -34q-70 -11 -112.5 -45.5t-42.5 -87.5q0 -48 33 -72t85 -24q61 0 108.5 30t78.5 80t39 110l15 106q6 43 -10 74t-48.5 48t-77.5 17q-52 0 -98 -25.5t-75 -66.5l-39 23
q18 30 50 55.5t73.5 41t87.5 15.5q56 0 100 -23.5t66.5 -66t14.5 -98.5l-49 -350h-45l16 115h7q-17 -33 -49 -62t-75.5 -47t-93.5 -18zM356 -220q-35 0 -59.5 18.5t-24.5 52.5t21 68.5t54.5 61t72.5 34.5h17l-2 -15q-32 -12 -59 -35t-43.5 -51t-16.5 -55q0 -21 12 -32.5
t35 -11.5q20 0 43 9.5t41 26.5l11 -32q-21 -19 -47.5 -29t-54.5 -10z" />
    <glyph glyph-name="Cacute" unicode="&#x106;" horiz-adv-x="803" 
d="M418 -12q-67 0 -126 24t-104 69.5t-70.5 110.5t-25.5 147q0 87 28.5 163t79.5 133t120 89.5t149 32.5q76 0 134 -27.5t96 -69.5t53 -85l-48 -19q-28 70 -88 111.5t-148 41.5q-73 0 -132.5 -29t-103 -79.5t-67 -117.5t-23.5 -142q0 -93 34.5 -161.5t96.5 -106t144 -37.5
q89 0 156 42.5t105 112.5l46 -23q-21 -43 -64.5 -84.5t-105 -68.5t-136.5 -27zM463 859l114 150h61l-130 -150h-45z" />
    <glyph glyph-name="cacute" unicode="&#x107;" horiz-adv-x="619" 
d="M311 -12q-69 0 -124.5 32.5t-88 90t-32.5 132.5q0 61 22 114.5t60.5 94t89.5 63.5t109 23q49 0 90 -16.5t70.5 -44.5t45.5 -64l-39 -19q-24 50 -67 76t-100 26q-68 0 -121.5 -34.5t-84 -92.5t-30.5 -128q0 -66 27 -113t72.5 -72.5t100.5 -25.5q58 0 105.5 27.5t78.5 76.5
l37 -22q-20 -35 -53.5 -63.5t-76 -44.5t-91.5 -16zM338 640l114 150h61l-130 -150h-45z" />
    <glyph glyph-name="Ccircumflex" unicode="&#x108;" horiz-adv-x="803" 
d="M418 -12q-67 0 -126 24t-104 69.5t-70.5 110.5t-25.5 147q0 87 28.5 163t79.5 133t120 89.5t149 32.5q76 0 134 -27.5t96 -69.5t53 -85l-48 -19q-28 70 -88 111.5t-148 41.5q-73 0 -132.5 -29t-103 -79.5t-67 -117.5t-23.5 -142q0 -93 34.5 -161.5t96.5 -106t144 -37.5
q89 0 156 42.5t105 112.5l46 -23q-21 -43 -64.5 -84.5t-105 -68.5t-136.5 -27zM339 859l147 150h43l104 -150h-48l-79 112l-111 -112h-56z" />
    <glyph glyph-name="ccircumflex" unicode="&#x109;" horiz-adv-x="619" 
d="M311 -12q-69 0 -124.5 32.5t-88 90t-32.5 132.5q0 61 22 114.5t60.5 94t89.5 63.5t109 23q49 0 90 -16.5t70.5 -44.5t45.5 -64l-39 -19q-24 50 -67 76t-100 26q-68 0 -121.5 -34.5t-84 -92.5t-30.5 -128q0 -66 27 -113t72.5 -72.5t100.5 -25.5q58 0 105.5 27.5t78.5 76.5
l37 -22q-20 -35 -53.5 -63.5t-76 -44.5t-91.5 -16zM214 640l147 150h43l104 -150h-48l-79 112l-111 -112h-56z" />
    <glyph glyph-name="Cdotaccent" unicode="&#x10a;" horiz-adv-x="803" 
d="M418 -12q-67 0 -126 24t-104 69.5t-70.5 110.5t-25.5 147q0 87 28.5 163t79.5 133t120 89.5t149 32.5q76 0 134 -27.5t96 -69.5t53 -85l-48 -19q-28 70 -88 111.5t-148 41.5q-73 0 -132.5 -29t-103 -79.5t-67 -117.5t-23.5 -142q0 -93 34.5 -161.5t96.5 -106t144 -37.5
q89 0 156 42.5t105 112.5l46 -23q-21 -43 -64.5 -84.5t-105 -68.5t-136.5 -27zM451 859l10 75h70l-10 -75h-70z" />
    <glyph glyph-name="cdotaccent" unicode="&#x10b;" horiz-adv-x="619" 
d="M311 -12q-69 0 -124.5 32.5t-88 90t-32.5 132.5q0 61 22 114.5t60.5 94t89.5 63.5t109 23q49 0 90 -16.5t70.5 -44.5t45.5 -64l-39 -19q-24 50 -67 76t-100 26q-68 0 -121.5 -34.5t-84 -92.5t-30.5 -128q0 -66 27 -113t72.5 -72.5t100.5 -25.5q58 0 105.5 27.5t78.5 76.5
l37 -22q-20 -35 -53.5 -63.5t-76 -44.5t-91.5 -16zM326 640l10 75h70l-10 -75h-70z" />
    <glyph glyph-name="Ccaron" unicode="&#x10c;" horiz-adv-x="803" 
d="M418 -12q-67 0 -126 24t-104 69.5t-70.5 110.5t-25.5 147q0 87 28.5 163t79.5 133t120 89.5t149 32.5q76 0 134 -27.5t96 -69.5t53 -85l-48 -19q-28 70 -88 111.5t-148 41.5q-73 0 -132.5 -29t-103 -79.5t-67 -117.5t-23.5 -142q0 -93 34.5 -161.5t96.5 -106t144 -37.5
q89 0 156 42.5t105 112.5l46 -23q-21 -43 -64.5 -84.5t-105 -68.5t-136.5 -27zM437 859l-103 150h48l79 -112l111 112h56l-148 -150h-43z" />
    <glyph glyph-name="ccaron" unicode="&#x10d;" horiz-adv-x="619" 
d="M311 -12q-69 0 -124.5 32.5t-88 90t-32.5 132.5q0 61 22 114.5t60.5 94t89.5 63.5t109 23q49 0 90 -16.5t70.5 -44.5t45.5 -64l-39 -19q-24 50 -67 76t-100 26q-68 0 -121.5 -34.5t-84 -92.5t-30.5 -128q0 -66 27 -113t72.5 -72.5t100.5 -25.5q58 0 105.5 27.5t78.5 76.5
l37 -22q-20 -35 -53.5 -63.5t-76 -44.5t-91.5 -16zM312 640l-103 150h48l79 -112l111 112h56l-148 -150h-43z" />
    <glyph glyph-name="Dcaron" unicode="&#x10e;" horiz-adv-x="746" 
d="M63 0l104 745h215q99 0 172 -40t113.5 -114t40.5 -176q0 -81 -26 -155.5t-76.5 -133t-123.5 -92.5t-168 -34h-251zM119 45h198q78 0 140.5 29.5t107.5 81t69 118.5t24 141q0 88 -33.5 152t-96.5 98.5t-152 34.5h-165zM419 859l-103 150h48l79 -112l111 112h56l-148 -150
h-43z" />
    <glyph glyph-name="dcaron" unicode="&#x10f;" horiz-adv-x="774" 
d="M309 -12q-72 0 -127 34.5t-85.5 92.5t-30.5 129q0 60 21.5 113t59 93.5t88.5 64t109 23.5q77 0 136.5 -40.5t83.5 -110.5l-7 -10l53 380h46l-106 -757h-45l20 149l18 -18q-34 -65 -96.5 -104t-137.5 -39zM308 33q67 0 119.5 34.5t82.5 92t30 126.5q0 63 -26.5 109.5
t-70.5 72t-99 25.5q-66 0 -118 -34.5t-82 -91.5t-30 -126q0 -60 24.5 -107t68.5 -74t101 -27zM722 600l22 157h55l-36 -157h-41z" />
    <glyph glyph-name="Dcroat" unicode="&#x110;" horiz-adv-x="746" 
d="M42 350l6 45h290l-6 -45h-290zM63 0l104 745h215q99 0 172 -40t113.5 -114t40.5 -176q0 -81 -26 -155.5t-76.5 -133t-123.5 -92.5t-168 -34h-251zM119 45h198q78 0 140.5 29.5t107.5 81t69 118.5t24 141q0 88 -33.5 152t-96.5 98.5t-152 34.5h-165z" />
    <glyph glyph-name="dcroat" unicode="&#x111;" horiz-adv-x="675" 
d="M483 620l6 40h260l-6 -40h-260zM309 -12q-72 0 -127 34.5t-85.5 92.5t-30.5 129q0 60 21.5 113t59 93.5t88.5 64t109 23.5q77 0 136.5 -40.5t83.5 -110.5l-7 -10l53 380h46l-106 -757h-45l20 149l18 -18q-34 -65 -96.5 -104t-137.5 -39zM308 33q67 0 119.5 34.5t82.5 92
t30 126.5q0 63 -26.5 109.5t-70.5 72t-99 25.5q-66 0 -118 -34.5t-82 -91.5t-30 -126q0 -60 24.5 -107t68.5 -74t101 -27z" />
    <glyph glyph-name="Emacron" unicode="&#x112;" horiz-adv-x="615" 
d="M63 0l104 745h460l-6 -45h-410l-43 -304h390l-6 -45h-390l-43 -306h410l-6 -45h-460zM292 879l6 40h250l-6 -40h-250z" />
    <glyph glyph-name="emacron" unicode="&#x113;" horiz-adv-x="628" 
d="M316 -12q-72 0 -128.5 34t-88.5 92t-32 131q0 59 21 112t58 93.5t87 64t108 23.5q66 0 116.5 -30.5t79.5 -82.5t29 -119q0 -14 -2 -29t-5 -28h-469l3 40h443l-18 -12q8 63 -13 112.5t-63.5 78t-99.5 28.5q-65 0 -117 -35.5t-82.5 -93.5t-30.5 -125q0 -61 26 -109
t71.5 -75.5t105.5 -27.5q58 0 106.5 27.5t79.5 76.5l37 -22q-22 -38 -56.5 -66t-76.5 -43t-89 -15zM245 660l6 40h250l-6 -40h-250z" />
    <glyph glyph-name="Ebreve" unicode="&#x114;" horiz-adv-x="615" 
d="M63 0l104 745h460l-6 -45h-410l-43 -304h390l-6 -45h-390l-43 -306h410l-6 -45h-460zM419 859q-43 0 -72.5 18t-42.5 49.5t-7 72.5h46q-6 -44 13.5 -72t63.5 -28t71.5 28t33.5 72h46q-6 -41 -25.5 -72.5t-51.5 -49.5t-75 -18z" />
    <glyph glyph-name="ebreve" unicode="&#x115;" horiz-adv-x="628" 
d="M316 -12q-72 0 -128.5 34t-88.5 92t-32 131q0 59 21 112t58 93.5t87 64t108 23.5q66 0 116.5 -30.5t79.5 -82.5t29 -119q0 -14 -2 -29t-5 -28h-469l3 40h443l-18 -12q8 63 -13 112.5t-63.5 78t-99.5 28.5q-65 0 -117 -35.5t-82.5 -93.5t-30.5 -125q0 -61 26 -109
t71.5 -75.5t105.5 -27.5q58 0 106.5 27.5t79.5 76.5l37 -22q-22 -38 -56.5 -66t-76.5 -43t-89 -15zM372 640q-43 0 -72.5 18t-42.5 49.5t-7 72.5h46q-6 -44 13.5 -72t63.5 -28t71.5 28t33.5 72h46q-6 -41 -25.5 -72.5t-51.5 -49.5t-75 -18z" />
    <glyph glyph-name="Edotaccent" unicode="&#x116;" horiz-adv-x="615" 
d="M63 0l104 745h460l-6 -45h-410l-43 -304h390l-6 -45h-390l-43 -306h410l-6 -45h-460zM379 859l10 75h70l-10 -75h-70z" />
    <glyph glyph-name="edotaccent" unicode="&#x117;" horiz-adv-x="628" 
d="M316 -12q-72 0 -128.5 34t-88.5 92t-32 131q0 59 21 112t58 93.5t87 64t108 23.5q66 0 116.5 -30.5t79.5 -82.5t29 -119q0 -14 -2 -29t-5 -28h-469l3 40h443l-18 -12q8 63 -13 112.5t-63.5 78t-99.5 28.5q-65 0 -117 -35.5t-82.5 -93.5t-30.5 -125q0 -61 26 -109
t71.5 -75.5t105.5 -27.5q58 0 106.5 27.5t79.5 76.5l37 -22q-22 -38 -56.5 -66t-76.5 -43t-89 -15zM332 640l10 75h70l-10 -75h-70z" />
    <glyph glyph-name="Eogonek" unicode="&#x118;" horiz-adv-x="615" 
d="M63 0l104 745h460l-6 -45h-410l-43 -304h390l-6 -45h-390l-43 -306h410l-6 -45h-460zM353 -220q-35 0 -59.5 18.5t-24.5 52.5t21 68.5t54.5 61t72.5 34.5h17l-2 -15q-32 -12 -59 -35t-43.5 -51t-16.5 -55q0 -21 12 -32.5t35 -11.5q20 0 43 9.5t41 26.5l11 -32
q-21 -19 -47.5 -29t-54.5 -10z" />
    <glyph glyph-name="eogonek" unicode="&#x119;" horiz-adv-x="628" 
d="M316 -12q-72 0 -128.5 34t-88.5 92t-32 131q0 59 21 112t58 93.5t87 64t108 23.5q66 0 116.5 -30.5t79.5 -82.5t29 -119q0 -14 -2 -29t-5 -28h-469l3 40h443l-18 -12q8 63 -13 112.5t-63.5 78t-99.5 28.5q-65 0 -117 -35.5t-82.5 -93.5t-30.5 -125q0 -61 26 -109
t71.5 -75.5t105.5 -27.5q58 0 106.5 27.5t79.5 76.5l37 -22q-22 -38 -56.5 -66t-76.5 -43t-89 -15zM309 -220q-35 0 -59.5 18.5t-24.5 52.5t21 68.5t54.5 61t72.5 34.5h17l-2 -15q-32 -12 -59 -35t-43.5 -51t-16.5 -55q0 -21 12 -32.5t35 -11.5q20 0 43 9.5t41 26.5l11 -32
q-21 -19 -47.5 -29t-54.5 -10z" />
    <glyph glyph-name="Ecaron" unicode="&#x11a;" horiz-adv-x="615" 
d="M63 0l104 745h460l-6 -45h-410l-43 -304h390l-6 -45h-390l-43 -306h410l-6 -45h-460zM365 859l-103 150h48l79 -112l111 112h56l-148 -150h-43z" />
    <glyph glyph-name="ecaron" unicode="&#x11b;" horiz-adv-x="628" 
d="M316 -12q-72 0 -128.5 34t-88.5 92t-32 131q0 59 21 112t58 93.5t87 64t108 23.5q66 0 116.5 -30.5t79.5 -82.5t29 -119q0 -14 -2 -29t-5 -28h-469l3 40h443l-18 -12q8 63 -13 112.5t-63.5 78t-99.5 28.5q-65 0 -117 -35.5t-82.5 -93.5t-30.5 -125q0 -61 26 -109
t71.5 -75.5t105.5 -27.5q58 0 106.5 27.5t79.5 76.5l37 -22q-22 -38 -56.5 -66t-76.5 -43t-89 -15zM318 640l-103 150h48l79 -112l111 112h56l-148 -150h-43z" />
    <glyph glyph-name="Gcircumflex" unicode="&#x11c;" horiz-adv-x="841" 
d="M424 -12q-72 0 -132.5 25.5t-105 72.5t-69 112t-24.5 144q0 86 28.5 161.5t80 132.5t121.5 89t153 32q78 0 137 -27t97.5 -68.5t53.5 -85.5l-48 -21q-28 71 -90.5 112.5t-150.5 41.5q-73 0 -134 -28.5t-105.5 -78.5t-68.5 -116.5t-24 -143.5q0 -97 38 -165.5t102 -104.5
t143 -36q83 0 149 37t107 101t49 145l3 30l19 -26h-305l3 45h334l-4 -49q-6 -67 -33.5 -127t-74 -106t-109.5 -72t-140 -26zM358 859l147 150h43l104 -150h-48l-79 112l-111 -112h-56z" />
    <glyph glyph-name="gcircumflex" unicode="&#x11d;" horiz-adv-x="667" 
d="M275 -220q-55 0 -98 17t-72.5 46t-44.5 64l39 18q23 -49 69 -76t110 -27q47 0 94.5 20.5t82.5 61.5t43 103l22 162l16 -18q-33 -65 -94 -104t-136 -39q-70 0 -124 33t-84 89t-30 125q0 58 21 109t58 90t86.5 61.5t106.5 22.5q77 0 135.5 -40t80.5 -105l-7 -16l21 149h45
l-73 -524q-9 -63 -47 -113t-95 -79.5t-125 -29.5zM306 53q65 0 116 33t80.5 87.5t29.5 120.5q0 57 -24 102t-67.5 71t-100.5 26q-65 0 -116 -33.5t-79.5 -88t-28.5 -119.5q0 -56 23.5 -101t66.5 -71.5t100 -26.5zM240 640l147 150h43l104 -150h-48l-79 112l-111 -112h-56z
" />
    <glyph glyph-name="Gbreve" unicode="&#x11e;" horiz-adv-x="841" 
d="M424 -12q-72 0 -132.5 25.5t-105 72.5t-69 112t-24.5 144q0 86 28.5 161.5t80 132.5t121.5 89t153 32q78 0 137 -27t97.5 -68.5t53.5 -85.5l-48 -21q-28 71 -90.5 112.5t-150.5 41.5q-73 0 -134 -28.5t-105.5 -78.5t-68.5 -116.5t-24 -143.5q0 -97 38 -165.5t102 -104.5
t143 -36q83 0 149 37t107 101t49 145l3 30l19 -26h-305l3 45h334l-4 -49q-6 -67 -33.5 -127t-74 -106t-109.5 -72t-140 -26zM510 859q-43 0 -72.5 18t-42.5 49.5t-7 72.5h46q-6 -44 13.5 -72t63.5 -28t71.5 28t33.5 72h46q-6 -41 -25.5 -72.5t-51.5 -49.5t-75 -18z" />
    <glyph glyph-name="gbreve" unicode="&#x11f;" horiz-adv-x="667" 
d="M275 -220q-55 0 -98 17t-72.5 46t-44.5 64l39 18q23 -49 69 -76t110 -27q47 0 94.5 20.5t82.5 61.5t43 103l22 162l16 -18q-33 -65 -94 -104t-136 -39q-70 0 -124 33t-84 89t-30 125q0 58 21 109t58 90t86.5 61.5t106.5 22.5q77 0 135.5 -40t80.5 -105l-7 -16l21 149h45
l-73 -524q-9 -63 -47 -113t-95 -79.5t-125 -29.5zM306 53q65 0 116 33t80.5 87.5t29.5 120.5q0 57 -24 102t-67.5 71t-100.5 26q-65 0 -116 -33.5t-79.5 -88t-28.5 -119.5q0 -56 23.5 -101t66.5 -71.5t100 -26.5zM392 640q-43 0 -72.5 18t-42.5 49.5t-7 72.5h46
q-6 -44 13.5 -72t63.5 -28t71.5 28t33.5 72h46q-6 -41 -25.5 -72.5t-51.5 -49.5t-75 -18z" />
    <glyph glyph-name="Gdotaccent" unicode="&#x120;" horiz-adv-x="841" 
d="M424 -12q-72 0 -132.5 25.5t-105 72.5t-69 112t-24.5 144q0 86 28.5 161.5t80 132.5t121.5 89t153 32q78 0 137 -27t97.5 -68.5t53.5 -85.5l-48 -21q-28 71 -90.5 112.5t-150.5 41.5q-73 0 -134 -28.5t-105.5 -78.5t-68.5 -116.5t-24 -143.5q0 -97 38 -165.5t102 -104.5
t143 -36q83 0 149 37t107 101t49 145l3 30l19 -26h-305l3 45h334l-4 -49q-6 -67 -33.5 -127t-74 -106t-109.5 -72t-140 -26zM470 859l10 75h70l-10 -75h-70z" />
    <glyph glyph-name="gdotaccent" unicode="&#x121;" horiz-adv-x="667" 
d="M275 -220q-55 0 -98 17t-72.5 46t-44.5 64l39 18q23 -49 69 -76t110 -27q47 0 94.5 20.5t82.5 61.5t43 103l22 162l16 -18q-33 -65 -94 -104t-136 -39q-70 0 -124 33t-84 89t-30 125q0 58 21 109t58 90t86.5 61.5t106.5 22.5q77 0 135.5 -40t80.5 -105l-7 -16l21 149h45
l-73 -524q-9 -63 -47 -113t-95 -79.5t-125 -29.5zM306 53q65 0 116 33t80.5 87.5t29.5 120.5q0 57 -24 102t-67.5 71t-100.5 26q-65 0 -116 -33.5t-79.5 -88t-28.5 -119.5q0 -56 23.5 -101t66.5 -71.5t100 -26.5zM352 640l10 75h70l-10 -75h-70z" />
    <glyph glyph-name="uni0122" unicode="&#x122;" horiz-adv-x="841" 
d="M424 -12q-72 0 -132.5 25.5t-105 72.5t-69 112t-24.5 144q0 86 28.5 161.5t80 132.5t121.5 89t153 32q78 0 137 -27t97.5 -68.5t53.5 -85.5l-48 -21q-28 71 -90.5 112.5t-150.5 41.5q-73 0 -134 -28.5t-105.5 -78.5t-68.5 -116.5t-24 -143.5q0 -97 38 -165.5t102 -104.5
t143 -36q83 0 149 37t107 101t49 145l3 30l19 -26h-305l3 45h334l-4 -49q-6 -67 -33.5 -127t-74 -106t-109.5 -72t-140 -26zM282 -233l70 163h45l-80 -163h-35z" />
    <glyph glyph-name="uni0123" unicode="&#x123;" horiz-adv-x="667" 
d="M275 -220q-55 0 -98 17t-72.5 46t-44.5 64l39 18q23 -49 69 -76t110 -27q47 0 94.5 20.5t82.5 61.5t43 103l22 162l16 -18q-33 -65 -94 -104t-136 -39q-70 0 -124 33t-84 89t-30 125q0 58 21 109t58 90t86.5 61.5t106.5 22.5q77 0 135.5 -40t80.5 -105l-7 -16l21 149h45
l-73 -524q-9 -63 -47 -113t-95 -79.5t-125 -29.5zM306 53q65 0 116 33t80.5 87.5t29.5 120.5q0 57 -24 102t-67.5 71t-100.5 26q-65 0 -116 -33.5t-79.5 -88t-28.5 -119.5q0 -56 23.5 -101t66.5 -71.5t100 -26.5zM360 611l81 163h35l-71 -163h-45z" />
    <glyph glyph-name="Hcircumflex" unicode="&#x124;" horiz-adv-x="739" 
d="M63 0l104 745h50l-48 -343h440l48 343h50l-104 -745h-50l50 357h-440l-50 -357h-50zM307 859l147 150h43l104 -150h-48l-79 112l-111 -112h-56z" />
    <glyph glyph-name="hcircumflex" unicode="&#x125;" horiz-adv-x="571" 
d="M52 0l106 757h45l-48 -342l-12 7q23 53 74.5 84.5t112.5 31.5q54 0 96.5 -25t64 -71t12.5 -109l-46 -333h-45l46 332q11 79 -27.5 121t-102.5 42q-51 0 -91 -24t-64.5 -64t-31.5 -89l-44 -318h-45zM48 859l147 150h43l104 -150h-48l-79 112l-111 -112h-56z" />
    <glyph glyph-name="Hbar" unicode="&#x126;" horiz-adv-x="739" 
d="M47 573l6 45h732l-6 -45h-732zM63 0l104 745h50l-48 -343h440l48 343h50l-104 -745h-50l50 357h-440l-50 -357h-50z" />
    <glyph glyph-name="hbar" unicode="&#x127;" horiz-adv-x="571" 
d="M31 620l6 40h260l-6 -40h-260zM52 0l106 757h45l-48 -342l-12 7q23 53 74.5 84.5t112.5 31.5q54 0 96.5 -25t64 -71t12.5 -109l-46 -333h-45l46 332q11 79 -27.5 121t-102.5 42q-51 0 -91 -24t-64.5 -64t-31.5 -89l-44 -318h-45z" />
    <glyph glyph-name="Itilde" unicode="&#x128;" horiz-adv-x="249" 
d="M63 0l104 745h50l-104 -745h-50zM266 859q-25 0 -40 10.5t-24.5 25t-19 25t-25.5 10.5q-19 0 -31.5 -16t-17.5 -51h-40q5 32 18 56t33.5 37t46.5 13q25 0 38.5 -10.5t23 -25t19.5 -25t27 -10.5q21 0 34.5 16.5t17.5 50.5h40q-6 -46 -32.5 -76t-67.5 -30z" />
    <glyph glyph-name="itilde" unicode="&#x129;" horiz-adv-x="185" 
d="M33 0l74 526h45l-74 -526h-45zM202 640q-25 0 -40 10.5t-24.5 25t-19 25t-25.5 10.5q-19 0 -31.5 -16t-17.5 -51h-40q5 32 18 56t33.5 37t46.5 13q25 0 38.5 -10.5t23 -25t19.5 -25t27 -10.5q21 0 34.5 16.5t17.5 50.5h40q-6 -46 -32.5 -76t-67.5 -30z" />
    <glyph glyph-name="Imacron" unicode="&#x12a;" horiz-adv-x="249" 
d="M63 0l104 745h50l-104 -745h-50zM87 879l6 40h250l-6 -40h-250z" />
    <glyph glyph-name="imacron" unicode="&#x12b;" horiz-adv-x="185" 
d="M33 0l74 526h45l-74 -526h-45zM23 660l6 40h250l-6 -40h-250z" />
    <glyph glyph-name="Ibreve" unicode="&#x12c;" horiz-adv-x="249" 
d="M63 0l104 745h50l-104 -745h-50zM214 859q-43 0 -72.5 18t-42.5 49.5t-7 72.5h46q-6 -44 13.5 -72t63.5 -28t71.5 28t33.5 72h46q-6 -41 -25.5 -72.5t-51.5 -49.5t-75 -18z" />
    <glyph glyph-name="ibreve" unicode="&#x12d;" horiz-adv-x="185" 
d="M33 0l74 526h45l-74 -526h-45zM150 640q-43 0 -72.5 18t-42.5 49.5t-7 72.5h46q-6 -44 13.5 -72t63.5 -28t71.5 28t33.5 72h46q-6 -41 -25.5 -72.5t-51.5 -49.5t-75 -18z" />
    <glyph glyph-name="Iogonek" unicode="&#x12e;" horiz-adv-x="249" 
d="M63 0l104 745h50l-104 -745h-50zM23 -220q-35 0 -59.5 18.5t-24.5 52.5t21 68.5t54.5 61t72.5 34.5h17l-2 -15q-32 -12 -59 -35t-43.5 -51t-16.5 -55q0 -21 12 -32.5t35 -11.5q20 0 43 9.5t41 26.5l11 -32q-21 -19 -47.5 -29t-54.5 -10z" />
    <glyph glyph-name="iogonek" unicode="&#x12f;" horiz-adv-x="185" 
d="M33 0l74 526h45l-74 -526h-45zM110 640l10 75h70l-10 -75h-70zM-4 -220q-35 0 -59.5 18.5t-24.5 52.5t21 68.5t54.5 61t72.5 34.5h17l-2 -15q-32 -12 -59 -35t-43.5 -51t-16.5 -55q0 -21 12 -32.5t35 -11.5q20 0 43 9.5t41 26.5l11 -32q-21 -19 -47.5 -29t-54.5 -10z" />
    <glyph glyph-name="Idotaccent" unicode="&#x130;" horiz-adv-x="249" 
d="M63 0l104 745h50l-104 -745h-50zM174 859l10 75h70l-10 -75h-70z" />
    <glyph glyph-name="dotlessi" unicode="&#x131;" horiz-adv-x="185" 
d="M33 0l74 526h45l-74 -526h-45z" />
    <glyph glyph-name="IJ" unicode="&#x132;" horiz-adv-x="629" 
d="M63 0l104 745h50l-104 -745h-50zM278 0l7 50h38q63 0 100.5 36.5t47.5 107.5l77 551h50l-78 -554q-8 -59 -35 -102t-70 -66t-99 -23h-38z" />
    <glyph glyph-name="ij" unicode="&#x133;" horiz-adv-x="446" 
d="M52 0l74 526h45l-74 -526h-45zM141 635l15 110h45l-15 -110h-45zM143 -220q-13 0 -23 2t-18 4l2 40q8 -1 17.5 -2t16.5 -1q53 0 87.5 30.5t41.5 86.5l83 586h45l-83 -590q-7 -51 -30.5 -86t-58.5 -52.5t-80 -17.5zM365 635l15 110h45l-15 -110h-45z" />
    <glyph glyph-name="Jcircumflex" unicode="&#x134;" horiz-adv-x="380" 
d="M29 0l7 50h38q63 0 100.5 36.5t47.5 107.5l77 551h50l-78 -554q-8 -59 -35 -102t-70 -66t-99 -23h-38zM193 859l147 150h43l104 -150h-48l-79 112l-111 -112h-56z" />
    <glyph glyph-name="jcircumflex" unicode="&#x135;" horiz-adv-x="224" 
d="M-79 -220q-13 0 -23 2t-18 4l2 40q8 -1 17.5 -2t16.5 -1q53 0 87.5 30.5t41.5 86.5l83 586h45l-83 -590q-7 -51 -30.5 -86t-58.5 -52.5t-80 -17.5zM18 640l147 150h43l104 -150h-48l-79 112l-111 -112h-56z" />
    <glyph glyph-name="uni0136" unicode="&#x136;" horiz-adv-x="652" 
d="M63 0l104 745h50l-64 -460l-21 9l475 451h67l-350 -336l7 35l262 -444h-58l-232 392l-156 -151l-34 -241h-50zM187 -233l70 163h45l-80 -163h-35z" />
    <glyph glyph-name="uni0137" unicode="&#x137;" horiz-adv-x="540" 
d="M52 0l106 757h46l-78 -552h-34l372 321h72l-248 -213l193 -313h-56l-186 299l29 1l-155 -137l10 19l-25 -182h-46zM131 -233l70 163h45l-80 -163h-35z" />
    <glyph glyph-name="kgreenlandic" unicode="&#x138;" horiz-adv-x="541" 
d="M430 0l-163 276l-3 24l190 226h62l-200 -237l166 -289h-52zM52 0l73 526h45l-73 -526h-45zM110 266l6 40h190l-6 -40h-190z" />
    <glyph glyph-name="Lacute" unicode="&#x139;" horiz-adv-x="534" 
d="M63 0l104 745h50l-98 -700h340l-6 -45h-390zM185 859l114 150h61l-130 -150h-45z" />
    <glyph glyph-name="lacute" unicode="&#x13a;" horiz-adv-x="222" 
d="M52 0l106 757h45l-106 -757h-45zM172 859l114 150h61l-130 -150h-45z" />
    <glyph glyph-name="uni013B" unicode="&#x13b;" horiz-adv-x="534" 
d="M63 0l104 745h50l-98 -700h340l-6 -45h-390zM156 -233l70 163h45l-80 -163h-35z" />
    <glyph glyph-name="uni013C" unicode="&#x13c;" horiz-adv-x="222" 
d="M52 0l106 757h45l-106 -757h-45zM-28 -233l70 163h45l-80 -163h-35z" />
    <glyph glyph-name="Lcaron" unicode="&#x13d;" horiz-adv-x="534" 
d="M63 0l104 745h50l-98 -700h340l-6 -45h-390zM367 600l22 157h55l-36 -157h-41z" />
    <glyph glyph-name="lcaron" unicode="&#x13e;" horiz-adv-x="321" 
d="M52 0l106 757h45l-106 -757h-45zM269 600l22 157h55l-36 -157h-41z" />
    <glyph glyph-name="Ldot" unicode="&#x13f;" horiz-adv-x="534" 
d="M335 332q-16 0 -28 11.5t-12 28.5t12 28.5t28 11.5t28 -11.5t12 -28.5t-12 -28.5t-28 -11.5zM63 0l104 745h50l-98 -700h340l-6 -45h-390z" />
    <glyph glyph-name="ldot" unicode="&#x140;" horiz-adv-x="356" 
d="M287 332q-16 0 -28 11.5t-12 28.5t12 28.5t28 11.5t28 -11.5t12 -28.5t-12 -28.5t-28 -11.5zM52 0l106 757h45l-106 -757h-45z" />
    <glyph glyph-name="Lslash" unicode="&#x141;" horiz-adv-x="601" 
d="M47 245l8 55l311 200l-8 -55zM130 0l104 745h50l-98 -700h340l-6 -45h-390z" />
    <glyph glyph-name="lslash" unicode="&#x142;" horiz-adv-x="339" 
d="M49 292l8 55l226 144l-8 -55zM89 0l106 757h45l-106 -757h-45z" />
    <glyph glyph-name="Nacute" unicode="&#x143;" horiz-adv-x="739" 
d="M63 0l104 745h40l370 -667h-13l93 667h50l-104 -745h-40l-372 671h16l-94 -671h-50zM431 859l114 150h61l-130 -150h-45z" />
    <glyph glyph-name="nacute" unicode="&#x144;" horiz-adv-x="570" 
d="M51 0l74 526h45l-16 -111l-12 7q23 53 74.5 84.5t112.5 31.5q54 0 96.5 -25t64 -71t12.5 -109l-46 -333h-45l46 332q11 79 -27.5 121t-102.5 42q-51 0 -90.5 -24t-64.5 -64t-32 -89l-44 -318h-45zM315 640l114 150h61l-130 -150h-45z" />
    <glyph glyph-name="uni0145" unicode="&#x145;" horiz-adv-x="739" 
d="M63 0l104 745h40l370 -667h-13l93 667h50l-104 -745h-40l-372 671h16l-94 -671h-50zM231 -233l70 163h45l-80 -163h-35z" />
    <glyph glyph-name="uni0146" unicode="&#x146;" horiz-adv-x="570" 
d="M51 0l74 526h45l-16 -111l-12 7q23 53 74.5 84.5t112.5 31.5q54 0 96.5 -25t64 -71t12.5 -109l-46 -333h-45l46 332q11 79 -27.5 121t-102.5 42q-51 0 -90.5 -24t-64.5 -64t-32 -89l-44 -318h-45zM146 -233l70 163h45l-80 -163h-35z" />
    <glyph glyph-name="Ncaron" unicode="&#x147;" horiz-adv-x="739" 
d="M63 0l104 745h40l370 -667h-13l93 667h50l-104 -745h-40l-372 671h16l-94 -671h-50zM405 859l-103 150h48l79 -112l111 112h56l-148 -150h-43z" />
    <glyph glyph-name="ncaron" unicode="&#x148;" horiz-adv-x="570" 
d="M51 0l74 526h45l-16 -111l-12 7q23 53 74.5 84.5t112.5 31.5q54 0 96.5 -25t64 -71t12.5 -109l-46 -333h-45l46 332q11 79 -27.5 121t-102.5 42q-51 0 -90.5 -24t-64.5 -64t-32 -89l-44 -318h-45zM289 640l-103 150h48l79 -112l111 112h56l-148 -150h-43z" />
    <glyph glyph-name="Eng" unicode="&#x14a;" horiz-adv-x="740" 
d="M416 -220q-12 0 -21.5 1.5t-16.5 3.5l6 43q17 -3 36 -3q52 0 84 29t40 84l16 112l12 -67l-385 696l22 5l-96 -684h-50l104 745h40l377 -679l-22 -5l95 684h50l-112 -807q-7 -51 -32 -86.5t-63 -53.5t-84 -18z" />
    <glyph glyph-name="eng" unicode="&#x14b;" horiz-adv-x="600" 
d="M267 -220q-13 0 -23 2t-18 4l2 40q8 -1 17.5 -2t16.5 -1q53 0 87.5 30.5t41.5 86.5l55 392q11 79 -27.5 121t-102.5 42q-51 0 -91 -24t-64.5 -64t-31.5 -89l-44 -318h-45l74 526h45l-16 -111l-12 7q23 53 74.5 84.5t112.5 31.5q54 0 96.5 -25t64 -71t12.5 -109l-55 -397
q-7 -51 -30.5 -86t-58.5 -52.5t-80 -17.5z" />
    <glyph glyph-name="Omacron" unicode="&#x14c;" horiz-adv-x="887" 
d="M434 -12q-72 0 -134 25.5t-108.5 73t-72.5 112.5t-26 144q0 86 30 161t83 132t124.5 89t153.5 32q72 0 134 -25.5t108.5 -73t72.5 -112.5t26 -143q0 -86 -30 -161.5t-83 -132.5t-124 -89t-154 -32zM434 36q74 0 136 29.5t108 80.5t71.5 117t25.5 139q0 84 -35.5 153.5
t-100.5 111.5t-155 42q-74 0 -136.5 -30t-108.5 -81.5t-71 -117t-25 -136.5q0 -84 36 -154t101.5 -112t153.5 -42zM406 879l6 40h250l-6 -40h-250z" />
    <glyph glyph-name="omacron" unicode="&#x14d;" horiz-adv-x="664" 
d="M315 -12q-72 0 -128.5 33t-88.5 91t-32 131q0 61 21.5 114.5t60 94t90.5 63.5t112 23q73 0 128.5 -33t87.5 -90.5t32 -131.5q0 -61 -21.5 -114.5t-60 -94t-90 -63.5t-111.5 -23zM314 31q67 0 120.5 35t84.5 93t31 126q0 60 -25.5 107.5t-70.5 75t-103 27.5
q-67 0 -120.5 -34.5t-85 -92t-31.5 -125.5q0 -60 26 -108t71.5 -76t102.5 -28zM263 660l6 40h250l-6 -40h-250z" />
    <glyph glyph-name="Obreve" unicode="&#x14e;" horiz-adv-x="887" 
d="M434 -12q-72 0 -134 25.5t-108.5 73t-72.5 112.5t-26 144q0 86 30 161t83 132t124.5 89t153.5 32q72 0 134 -25.5t108.5 -73t72.5 -112.5t26 -143q0 -86 -30 -161.5t-83 -132.5t-124 -89t-154 -32zM434 36q74 0 136 29.5t108 80.5t71.5 117t25.5 139q0 84 -35.5 153.5
t-100.5 111.5t-155 42q-74 0 -136.5 -30t-108.5 -81.5t-71 -117t-25 -136.5q0 -84 36 -154t101.5 -112t153.5 -42zM533 859q-43 0 -72.5 18t-42.5 49.5t-7 72.5h46q-6 -44 13.5 -72t63.5 -28t71.5 28t33.5 72h46q-6 -41 -25.5 -72.5t-51.5 -49.5t-75 -18z" />
    <glyph glyph-name="obreve" unicode="&#x14f;" horiz-adv-x="664" 
d="M315 -12q-72 0 -128.5 33t-88.5 91t-32 131q0 61 21.5 114.5t60 94t90.5 63.5t112 23q73 0 128.5 -33t87.5 -90.5t32 -131.5q0 -61 -21.5 -114.5t-60 -94t-90 -63.5t-111.5 -23zM314 31q67 0 120.5 35t84.5 93t31 126q0 60 -25.5 107.5t-70.5 75t-103 27.5
q-67 0 -120.5 -34.5t-85 -92t-31.5 -125.5q0 -60 26 -108t71.5 -76t102.5 -28zM390 640q-43 0 -72.5 18t-42.5 49.5t-7 72.5h46q-6 -44 13.5 -72t63.5 -28t71.5 28t33.5 72h46q-6 -41 -25.5 -72.5t-51.5 -49.5t-75 -18z" />
    <glyph glyph-name="Ohungarumlaut" unicode="&#x150;" horiz-adv-x="887" 
d="M434 -12q-72 0 -134 25.5t-108.5 73t-72.5 112.5t-26 144q0 86 30 161t83 132t124.5 89t153.5 32q72 0 134 -25.5t108.5 -73t72.5 -112.5t26 -143q0 -86 -30 -161.5t-83 -132.5t-124 -89t-154 -32zM434 36q74 0 136 29.5t108 80.5t71.5 117t25.5 139q0 84 -35.5 153.5
t-100.5 111.5t-155 42q-74 0 -136.5 -30t-108.5 -81.5t-71 -117t-25 -136.5q0 -84 36 -154t101.5 -112t153.5 -42zM435 859l74 150h61l-90 -150h-45zM576 859l74 150h61l-90 -150h-45z" />
    <glyph glyph-name="ohungarumlaut" unicode="&#x151;" horiz-adv-x="664" 
d="M315 -12q-72 0 -128.5 33t-88.5 91t-32 131q0 61 21.5 114.5t60 94t90.5 63.5t112 23q73 0 128.5 -33t87.5 -90.5t32 -131.5q0 -61 -21.5 -114.5t-60 -94t-90 -63.5t-111.5 -23zM314 31q67 0 120.5 35t84.5 93t31 126q0 60 -25.5 107.5t-70.5 75t-103 27.5
q-67 0 -120.5 -34.5t-85 -92t-31.5 -125.5q0 -60 26 -108t71.5 -76t102.5 -28zM292 640l74 150h61l-90 -150h-45zM433 640l74 150h61l-90 -150h-45z" />
    <glyph glyph-name="OE" unicode="&#x152;" horiz-adv-x="1281" 
d="M434 -12q-72 0 -134 25.5t-108.5 73t-72.5 112.5t-26 144q0 86 30 161t83 132t124.5 89t153.5 32q79 0 145.5 -30.5t114 -86t68.5 -130.5l-13 -12l34 247h460l-6 -45h-409l-43 -304h389l-6 -45h-389l-43 -306h409l-6 -45h-460l27 194l8 -16q-51 -85 -138 -137.5
t-192 -52.5zM434 36q74 0 136 29.5t108 80.5t71.5 117t25.5 139q0 84 -35.5 153.5t-100.5 111.5t-155 42q-74 0 -136.5 -30t-108.5 -81.5t-71 -117t-25 -136.5q0 -84 36 -154t101.5 -112t153.5 -42z" />
    <glyph glyph-name="oe" unicode="&#x153;" horiz-adv-x="1116" 
d="M315 -12q-72 0 -128.5 33t-88.5 91t-32 131q0 61 21.5 114.5t60 94t90.5 63.5t112 23q92 0 156.5 -52t83.5 -136l-17 1q21 54 58.5 96.5t88 66.5t109.5 24q66 0 116.5 -30.5t79.5 -82.5t29 -119q0 -14 -2 -29t-5 -28h-447q0 -66 26 -115.5t72 -76.5t105 -27
q58 0 106.5 27.5t79.5 76.5l37 -22q-22 -38 -56.5 -66t-76.5 -43t-89 -15q-60 0 -110 24t-83.5 67t-47.5 98l16 -2q-20 -54 -58.5 -96t-91 -66.5t-114.5 -24.5zM314 31q67 0 120.5 35t84.5 93t31 126q0 60 -25.5 107.5t-70.5 75t-103 27.5q-67 0 -120.5 -34.5t-85 -92
t-31.5 -125.5q0 -60 26 -108t71.5 -76t102.5 -28zM604 289h403q5 60 -17 107t-63.5 73.5t-96.5 26.5q-57 0 -105 -28t-79.5 -75t-41.5 -104z" />
    <glyph glyph-name="Racute" unicode="&#x154;" horiz-adv-x="638" 
d="M63 0l104 745h232q61 0 109.5 -24.5t76.5 -69.5t28 -109q0 -56 -23.5 -104.5t-66 -82.5t-101.5 -47l135 -308h-56l-144 333l50 -33h-252l-42 -300h-50zM161 345h196q62 0 108 27t72 72t26 98q0 72 -46 115t-122 43h-184zM375 859l114 150h61l-130 -150h-45z" />
    <glyph glyph-name="racute" unicode="&#x155;" horiz-adv-x="341" 
d="M51 0l74 526h46l-16 -111l-12 5q23 53 72 82.5t108 29.5h33l-6 -45h-34q-72 0 -118 -47t-57 -120l-45 -320h-45zM233 640l114 150h61l-130 -150h-45z" />
    <glyph glyph-name="uni0156" unicode="&#x156;" horiz-adv-x="638" 
d="M63 0l104 745h232q61 0 109.5 -24.5t76.5 -69.5t28 -109q0 -56 -23.5 -104.5t-66 -82.5t-101.5 -47l135 -308h-56l-144 333l50 -33h-252l-42 -300h-50zM161 345h196q62 0 108 27t72 72t26 98q0 72 -46 115t-122 43h-184zM175 -233l70 163h45l-80 -163h-35z" />
    <glyph glyph-name="uni0157" unicode="&#x157;" horiz-adv-x="341" 
d="M51 0l74 526h46l-16 -111l-12 5q23 53 72 82.5t108 29.5h33l-6 -45h-34q-72 0 -118 -47t-57 -120l-45 -320h-45zM-28 -233l70 163h45l-80 -163h-35z" />
    <glyph glyph-name="Rcaron" unicode="&#x158;" horiz-adv-x="638" 
d="M63 0l104 745h232q61 0 109.5 -24.5t76.5 -69.5t28 -109q0 -56 -23.5 -104.5t-66 -82.5t-101.5 -47l135 -308h-56l-144 333l50 -33h-252l-42 -300h-50zM161 345h196q62 0 108 27t72 72t26 98q0 72 -46 115t-122 43h-184zM349 859l-103 150h48l79 -112l111 112h56
l-148 -150h-43z" />
    <glyph glyph-name="rcaron" unicode="&#x159;" horiz-adv-x="341" 
d="M51 0l74 526h46l-16 -111l-12 5q23 53 72 82.5t108 29.5h33l-6 -45h-34q-72 0 -118 -47t-57 -120l-45 -320h-45zM207 640l-103 150h48l79 -112l111 112h56l-148 -150h-43z" />
    <glyph glyph-name="Sacute" unicode="&#x15a;" horiz-adv-x="640" 
d="M310 -12q-64 0 -118 23.5t-90.5 65.5t-48.5 97l47 14q21 -74 76.5 -115.5t134.5 -41.5q57 0 100 20.5t67.5 57t24.5 83.5q0 50 -26 84t-78 49l-135 40q-69 21 -104.5 68.5t-35.5 114.5q0 59 31 106.5t84 75t118 27.5q57 0 104 -22t79.5 -61t42.5 -91l-46 -14
q-18 68 -66.5 106.5t-116.5 38.5q-52 0 -93 -21.5t-65 -59t-24 -84.5q0 -53 27.5 -86t91.5 -53l122 -37q68 -21 103 -66.5t35 -111.5q0 -60 -31 -106.5t-85.5 -73.5t-124.5 -27zM381 859l114 150h61l-130 -150h-45z" />
    <glyph glyph-name="sacute" unicode="&#x15b;" horiz-adv-x="506" 
d="M236 -12q-47 0 -88 16.5t-70 46t-43 69.5l42 16q20 -50 61 -77.5t96 -27.5q62 0 101.5 31.5t39.5 80.5q0 33 -20.5 55t-64.5 34l-86 24q-58 17 -86.5 48t-28.5 77q0 45 23 80.5t62.5 56t89.5 20.5q65 0 115 -33.5t65 -86.5l-45 -16q-16 44 -51 68.5t-82 24.5
q-55 0 -92.5 -31.5t-37.5 -78.5q0 -31 19 -51.5t59 -31.5l86 -24q50 -13 86 -44.5t36 -91.5q0 -44 -24.5 -79t-66.5 -55t-95 -20zM283 640l114 150h61l-130 -150h-45z" />
    <glyph glyph-name="Scircumflex" unicode="&#x15c;" horiz-adv-x="640" 
d="M310 -12q-64 0 -118 23.5t-90.5 65.5t-48.5 97l47 14q21 -74 76.5 -115.5t134.5 -41.5q57 0 100 20.5t67.5 57t24.5 83.5q0 50 -26 84t-78 49l-135 40q-69 21 -104.5 68.5t-35.5 114.5q0 59 31 106.5t84 75t118 27.5q57 0 104 -22t79.5 -61t42.5 -91l-46 -14
q-18 68 -66.5 106.5t-116.5 38.5q-52 0 -93 -21.5t-65 -59t-24 -84.5q0 -53 27.5 -86t91.5 -53l122 -37q68 -21 103 -66.5t35 -111.5q0 -60 -31 -106.5t-85.5 -73.5t-124.5 -27zM257 859l147 150h43l104 -150h-48l-79 112l-111 -112h-56z" />
    <glyph glyph-name="scircumflex" unicode="&#x15d;" horiz-adv-x="506" 
d="M236 -12q-47 0 -88 16.5t-70 46t-43 69.5l42 16q20 -50 61 -77.5t96 -27.5q62 0 101.5 31.5t39.5 80.5q0 33 -20.5 55t-64.5 34l-86 24q-58 17 -86.5 48t-28.5 77q0 45 23 80.5t62.5 56t89.5 20.5q65 0 115 -33.5t65 -86.5l-45 -16q-16 44 -51 68.5t-82 24.5
q-55 0 -92.5 -31.5t-37.5 -78.5q0 -31 19 -51.5t59 -31.5l86 -24q50 -13 86 -44.5t36 -91.5q0 -44 -24.5 -79t-66.5 -55t-95 -20zM159 640l147 150h43l104 -150h-48l-79 112l-111 -112h-56z" />
    <glyph glyph-name="Scedilla" unicode="&#x15e;" horiz-adv-x="640" 
d="M310 -12q-64 0 -118 23.5t-90.5 65.5t-48.5 97l47 14q21 -74 76.5 -115.5t134.5 -41.5q57 0 100 20.5t67.5 57t24.5 83.5q0 50 -26 84t-78 49l-135 40q-69 21 -104.5 68.5t-35.5 114.5q0 59 31 106.5t84 75t118 27.5q57 0 104 -22t79.5 -61t42.5 -91l-46 -14
q-18 68 -66.5 106.5t-116.5 38.5q-52 0 -93 -21.5t-65 -59t-24 -84.5q0 -53 27.5 -86t91.5 -53l122 -37q68 -21 103 -66.5t35 -111.5q0 -60 -31 -106.5t-85.5 -73.5t-124.5 -27zM261 -220q-25 0 -49.5 9.5t-41.5 29.5l19 32q14 -17 34.5 -26.5t39.5 -9.5q26 0 43.5 15.5
t17.5 37.5q0 25 -25 38.5t-69 17.5l37 86h43l-24 -59q41 -7 61.5 -28.5t20.5 -48.5q0 -26 -14.5 -47.5t-38.5 -34t-54 -12.5z" />
    <glyph glyph-name="scedilla" unicode="&#x15f;" horiz-adv-x="506" 
d="M236 -12q-47 0 -88 16.5t-70 46t-43 69.5l42 16q20 -50 61 -77.5t96 -27.5q62 0 101.5 31.5t39.5 80.5q0 33 -20.5 55t-64.5 34l-86 24q-58 17 -86.5 48t-28.5 77q0 45 23 80.5t62.5 56t89.5 20.5q65 0 115 -33.5t65 -86.5l-45 -16q-16 44 -51 68.5t-82 24.5
q-55 0 -92.5 -31.5t-37.5 -78.5q0 -31 19 -51.5t59 -31.5l86 -24q50 -13 86 -44.5t36 -91.5q0 -44 -24.5 -79t-66.5 -55t-95 -20zM194 -220q-25 0 -49.5 9.5t-41.5 29.5l19 32q14 -17 34.5 -26.5t39.5 -9.5q26 0 43.5 15.5t17.5 37.5q0 25 -25 38.5t-69 17.5l37 86h43
l-24 -59q41 -7 61.5 -28.5t20.5 -48.5q0 -26 -14.5 -47.5t-38.5 -34t-54 -12.5z" />
    <glyph glyph-name="Scaron" unicode="&#x160;" horiz-adv-x="640" 
d="M310 -12q-64 0 -118 23.5t-90.5 65.5t-48.5 97l47 14q21 -74 76.5 -115.5t134.5 -41.5q57 0 100 20.5t67.5 57t24.5 83.5q0 50 -26 84t-78 49l-135 40q-69 21 -104.5 68.5t-35.5 114.5q0 59 31 106.5t84 75t118 27.5q57 0 104 -22t79.5 -61t42.5 -91l-46 -14
q-18 68 -66.5 106.5t-116.5 38.5q-52 0 -93 -21.5t-65 -59t-24 -84.5q0 -53 27.5 -86t91.5 -53l122 -37q68 -21 103 -66.5t35 -111.5q0 -60 -31 -106.5t-85.5 -73.5t-124.5 -27zM355 859l-103 150h48l79 -112l111 112h56l-148 -150h-43z" />
    <glyph glyph-name="scaron" unicode="&#x161;" horiz-adv-x="506" 
d="M236 -12q-47 0 -88 16.5t-70 46t-43 69.5l42 16q20 -50 61 -77.5t96 -27.5q62 0 101.5 31.5t39.5 80.5q0 33 -20.5 55t-64.5 34l-86 24q-58 17 -86.5 48t-28.5 77q0 45 23 80.5t62.5 56t89.5 20.5q65 0 115 -33.5t65 -86.5l-45 -16q-16 44 -51 68.5t-82 24.5
q-55 0 -92.5 -31.5t-37.5 -78.5q0 -31 19 -51.5t59 -31.5l86 -24q50 -13 86 -44.5t36 -91.5q0 -44 -24.5 -79t-66.5 -55t-95 -20zM257 640l-103 150h48l79 -112l111 112h56l-148 -150h-43z" />
    <glyph glyph-name="uni0162" unicode="&#x162;" horiz-adv-x="515" 
d="M197 0l98 700h-211l6 45h470l-6 -45h-209l-98 -700h-50zM199 -220q-25 0 -49.5 9.5t-41.5 29.5l19 32q14 -17 34.5 -26.5t39.5 -9.5q26 0 43.5 15.5t17.5 37.5q0 25 -25 38.5t-69 17.5l37 86h43l-24 -59q41 -7 61.5 -28.5t20.5 -48.5q0 -26 -14.5 -47.5t-38.5 -34
t-54 -12.5z" />
    <glyph glyph-name="uni0163" unicode="&#x163;" horiz-adv-x="380" 
d="M236 -6q-63 0 -92 34t-20 100l50 358h-100l6 40h48q26 0 40.5 14t18.5 42l10 68h45l-17 -124h114l-6 -40h-113l-51 -362q-2 -18 0 -38.5t17 -34.5t52 -14q10 0 22 1t19 2l-2 -42q-10 -3 -23 -3.5t-18 -0.5zM181 -220q-25 0 -49.5 9.5t-41.5 29.5l19 32q14 -17 34.5 -26.5
t39.5 -9.5q26 0 43.5 15.5t17.5 37.5q0 25 -25 38.5t-69 17.5l37 86h43l-24 -59q41 -7 61.5 -28.5t20.5 -48.5q0 -26 -14.5 -47.5t-38.5 -34t-54 -12.5z" />
    <glyph glyph-name="Tcaron" unicode="&#x164;" horiz-adv-x="515" 
d="M197 0l98 700h-211l6 45h470l-6 -45h-209l-98 -700h-50zM293 859l-103 150h48l79 -112l111 112h56l-148 -150h-43z" />
    <glyph glyph-name="tcaron" unicode="&#x165;" horiz-adv-x="347" 
d="M236 -6q-63 0 -92 34t-20 100l50 358h-100l6 40h48q26 0 40.5 14t18.5 42l10 68h45l-17 -124h114l-6 -40h-113l-51 -362q-2 -18 0 -38.5t17 -34.5t52 -14q10 0 22 1t19 2l-2 -42q-10 -3 -23 -3.5t-18 -0.5zM292 600l22 157h55l-36 -157h-41z" />
    <glyph glyph-name="Tbar" unicode="&#x166;" horiz-adv-x="515" 
d="M125 350l6 45h290l-6 -45h-290zM197 0l98 700h-211l6 45h470l-6 -45h-209l-98 -700h-50z" />
    <glyph glyph-name="tbar" unicode="&#x167;" horiz-adv-x="380" 
d="M236 -6q-63 0 -92 34t-20 100l50 358h-100l6 40h48q26 0 40.5 14t18.5 42l10 68h45l-17 -124h114l-6 -40h-113l-51 -362q-2 -18 0 -38.5t17 -34.5t52 -14q10 0 22 1t19 2l-2 -42q-10 -3 -23 -3.5t-18 -0.5zM33 243l6 40h259l-6 -40h-259z" />
    <glyph glyph-name="Utilde" unicode="&#x168;" horiz-adv-x="691" 
d="M310 -12q-75 0 -127.5 33.5t-76 93t-12.5 138.5l69 492h50l-70 -500q-9 -63 10 -110.5t60.5 -74.5t99.5 -27t107 26.5t82 75.5t42 114l69 496h50l-69 -496q-11 -79 -50.5 -137.5t-99.5 -91t-134 -32.5zM487 859q-25 0 -40 10.5t-24.5 25t-19 25t-25.5 10.5
q-19 0 -31.5 -16t-17.5 -51h-40q5 32 18 56t33.5 37t46.5 13q25 0 38.5 -10.5t23 -25t19.5 -25t27 -10.5q21 0 34.5 16.5t17.5 50.5h40q-6 -46 -32.5 -76t-67.5 -30z" />
    <glyph glyph-name="utilde" unicode="&#x169;" horiz-adv-x="571" 
d="M241 -12q-53 0 -96 24t-65 71t-12 115l47 328h45l-47 -332q-8 -55 8 -91.5t48.5 -54t73.5 -17.5q52 0 91.5 24t64 64.5t31.5 88.5l45 318h45l-74 -526h-45l15 111l12 -7q-23 -52 -73.5 -84t-113.5 -32zM396 640q-25 0 -40 10.5t-24.5 25t-19 25t-25.5 10.5
q-19 0 -31.5 -16t-17.5 -51h-40q5 32 18 56t33.5 37t46.5 13q25 0 38.5 -10.5t23 -25t19.5 -25t27 -10.5q21 0 34.5 16.5t17.5 50.5h40q-6 -46 -32.5 -76t-67.5 -30z" />
    <glyph glyph-name="Umacron" unicode="&#x16a;" horiz-adv-x="691" 
d="M310 -12q-75 0 -127.5 33.5t-76 93t-12.5 138.5l69 492h50l-70 -500q-9 -63 10 -110.5t60.5 -74.5t99.5 -27t107 26.5t82 75.5t42 114l69 496h50l-69 -496q-11 -79 -50.5 -137.5t-99.5 -91t-134 -32.5zM308 879l6 40h250l-6 -40h-250z" />
    <glyph glyph-name="umacron" unicode="&#x16b;" horiz-adv-x="571" 
d="M241 -12q-53 0 -96 24t-65 71t-12 115l47 328h45l-47 -332q-8 -55 8 -91.5t48.5 -54t73.5 -17.5q52 0 91.5 24t64 64.5t31.5 88.5l45 318h45l-74 -526h-45l15 111l12 -7q-23 -52 -73.5 -84t-113.5 -32zM217 660l6 40h250l-6 -40h-250z" />
    <glyph glyph-name="Ubreve" unicode="&#x16c;" horiz-adv-x="691" 
d="M310 -12q-75 0 -127.5 33.5t-76 93t-12.5 138.5l69 492h50l-70 -500q-9 -63 10 -110.5t60.5 -74.5t99.5 -27t107 26.5t82 75.5t42 114l69 496h50l-69 -496q-11 -79 -50.5 -137.5t-99.5 -91t-134 -32.5zM435 859q-43 0 -72.5 18t-42.5 49.5t-7 72.5h46q-6 -44 13.5 -72
t63.5 -28t71.5 28t33.5 72h46q-6 -41 -25.5 -72.5t-51.5 -49.5t-75 -18z" />
    <glyph glyph-name="ubreve" unicode="&#x16d;" horiz-adv-x="571" 
d="M241 -12q-53 0 -96 24t-65 71t-12 115l47 328h45l-47 -332q-8 -55 8 -91.5t48.5 -54t73.5 -17.5q52 0 91.5 24t64 64.5t31.5 88.5l45 318h45l-74 -526h-45l15 111l12 -7q-23 -52 -73.5 -84t-113.5 -32zM344 640q-43 0 -72.5 18t-42.5 49.5t-7 72.5h46q-6 -44 13.5 -72
t63.5 -28t71.5 28t33.5 72h46q-6 -41 -25.5 -72.5t-51.5 -49.5t-75 -18z" />
    <glyph glyph-name="Uring" unicode="&#x16e;" horiz-adv-x="691" 
d="M310 -12q-75 0 -127.5 33.5t-76 93t-12.5 138.5l69 492h50l-70 -500q-9 -63 10 -110.5t60.5 -74.5t99.5 -27t107 26.5t82 75.5t42 114l69 496h50l-69 -496q-11 -79 -50.5 -137.5t-99.5 -91t-134 -32.5zM426 839q-35 0 -58.5 21.5t-23.5 57.5q0 30 14.5 54.5t39.5 39.5
t54 15q36 0 59.5 -22t23.5 -57q0 -30 -14.5 -54.5t-39.5 -39.5t-55 -15zM431 875q27 0 47 20t20 47q0 22 -15 35t-36 13q-26 0 -45.5 -19.5t-19.5 -47.5q0 -22 14 -35t35 -13z" />
    <glyph glyph-name="uring" unicode="&#x16f;" horiz-adv-x="571" 
d="M241 -12q-53 0 -96 24t-65 71t-12 115l47 328h45l-47 -332q-8 -55 8 -91.5t48.5 -54t73.5 -17.5q52 0 91.5 24t64 64.5t31.5 88.5l45 318h45l-74 -526h-45l15 111l12 -7q-23 -52 -73.5 -84t-113.5 -32zM335 620q-35 0 -58.5 21.5t-23.5 57.5q0 30 14.5 54.5t39.5 39.5
t54 15q36 0 59.5 -22t23.5 -57q0 -30 -14.5 -54.5t-39.5 -39.5t-55 -15zM340 656q27 0 47 20t20 47q0 22 -15 35t-36 13q-26 0 -45.5 -19.5t-19.5 -47.5q0 -22 14 -35t35 -13z" />
    <glyph glyph-name="Uhungarumlaut" unicode="&#x170;" horiz-adv-x="691" 
d="M310 -12q-75 0 -127.5 33.5t-76 93t-12.5 138.5l69 492h50l-70 -500q-9 -63 10 -110.5t60.5 -74.5t99.5 -27t107 26.5t82 75.5t42 114l69 496h50l-69 -496q-11 -79 -50.5 -137.5t-99.5 -91t-134 -32.5zM337 859l74 150h61l-90 -150h-45zM478 859l74 150h61l-90 -150h-45z
" />
    <glyph glyph-name="uhungarumlaut" unicode="&#x171;" horiz-adv-x="571" 
d="M241 -12q-53 0 -96 24t-65 71t-12 115l47 328h45l-47 -332q-8 -55 8 -91.5t48.5 -54t73.5 -17.5q52 0 91.5 24t64 64.5t31.5 88.5l45 318h45l-74 -526h-45l15 111l12 -7q-23 -52 -73.5 -84t-113.5 -32zM246 640l74 150h61l-90 -150h-45zM387 640l74 150h61l-90 -150h-45z
" />
    <glyph glyph-name="Uogonek" unicode="&#x172;" horiz-adv-x="691" 
d="M310 -12q-75 0 -127.5 33.5t-76 93t-12.5 138.5l69 492h50l-70 -500q-9 -63 10 -110.5t60.5 -74.5t99.5 -27t107 26.5t82 75.5t42 114l69 496h50l-69 -496q-11 -79 -50.5 -137.5t-99.5 -91t-134 -32.5zM260 -220q-35 0 -59.5 18.5t-24.5 52.5t21 68.5t54.5 61t72.5 34.5
h17l-2 -15q-32 -12 -59 -35t-43.5 -51t-16.5 -55q0 -21 12 -32.5t35 -11.5q20 0 43 9.5t41 26.5l11 -32q-21 -19 -47.5 -29t-54.5 -10z" />
    <glyph glyph-name="uogonek" unicode="&#x173;" horiz-adv-x="571" 
d="M241 -12q-53 0 -96 24t-65 71t-12 115l47 328h45l-47 -332q-8 -55 8 -91.5t48.5 -54t73.5 -17.5q52 0 91.5 24t64 64.5t31.5 88.5l45 318h45l-74 -526h-45l15 111l12 -7q-23 -52 -73.5 -84t-113.5 -32zM354 -220q-35 0 -59.5 18.5t-24.5 52.5t21 68.5t54.5 61t72.5 34.5
h17l-2 -15q-32 -12 -59 -35t-43.5 -51t-16.5 -55q0 -21 12 -32.5t35 -11.5q20 0 43 9.5t41 26.5l11 -32q-21 -19 -47.5 -29t-54.5 -10z" />
    <glyph glyph-name="Wcircumflex" unicode="&#x174;" horiz-adv-x="988" 
d="M209 0l-119 745h53l108 -701l-28 1l315 700h48l114 -700l-28 -1l307 701h55l-327 -745h-48l-115 706h27l-314 -706h-48zM431 859l147 150h43l104 -150h-48l-79 112l-111 -112h-56z" />
    <glyph glyph-name="wcircumflex" unicode="&#x175;" horiz-adv-x="769" 
d="M165 0l-106 526h49l96 -493h-23l215 493h48l76 -493h-26l236 493h54l-255 -526h-48l-73 469h12l-207 -469h-48zM291 640l147 150h43l104 -150h-48l-79 112l-111 -112h-56z" />
    <glyph glyph-name="Ycircumflex" unicode="&#x176;" horiz-adv-x="624" 
d="M251 0l46 333l-207 412h53l195 -376h-28l297 376h63l-323 -412l-46 -333h-50zM249 859l147 150h43l104 -150h-48l-79 112l-111 -112h-56z" />
    <glyph glyph-name="ycircumflex" unicode="&#x177;" horiz-adv-x="531" 
d="M19 -220q-13 0 -29.5 2t-30.5 7l2 40q15 -4 29 -5t24 -1q34 1 59.5 13t46 35t39.5 55l56 96l-2 -46l-146 550h49l131 -496h-28l273 496h54l-337 -609q-15 -27 -40.5 -59t-62.5 -55t-87 -23zM172 640l147 150h43l104 -150h-48l-79 112l-111 -112h-56z" />
    <glyph glyph-name="Ydieresis" unicode="&#x178;" horiz-adv-x="624" 
d="M251 0l46 333l-207 412h53l195 -376h-28l297 376h63l-323 -412l-46 -333h-50zM286 859l11 75h70l-11 -75h-70zM436 859l11 75h70l-11 -75h-70z" />
    <glyph glyph-name="Zacute" unicode="&#x179;" horiz-adv-x="606" 
d="M-4 0l4 30l552 670h-431l6 45h503l-4 -30l-551 -670h467l-6 -45h-540zM364 859l114 150h61l-130 -150h-45z" />
    <glyph glyph-name="zacute" unicode="&#x17a;" horiz-adv-x="436" 
d="M-3 0l3 30l403 486l13 -30h-332l6 40h358l-4 -30l-405 -486l-12 30h355l-5 -40h-380zM248 640l114 150h61l-130 -150h-45z" />
    <glyph glyph-name="Zdotaccent" unicode="&#x17b;" horiz-adv-x="606" 
d="M-4 0l4 30l552 670h-431l6 45h503l-4 -30l-551 -670h467l-6 -45h-540zM352 859l10 75h70l-10 -75h-70z" />
    <glyph glyph-name="zdotaccent" unicode="&#x17c;" horiz-adv-x="436" 
d="M-3 0l3 30l403 486l13 -30h-332l6 40h358l-4 -30l-405 -486l-12 30h355l-5 -40h-380zM236 640l10 75h70l-10 -75h-70z" />
    <glyph glyph-name="Zcaron" unicode="&#x17d;" horiz-adv-x="606" 
d="M-4 0l4 30l552 670h-431l6 45h503l-4 -30l-551 -670h467l-6 -45h-540zM338 859l-103 150h48l79 -112l111 112h56l-148 -150h-43z" />
    <glyph glyph-name="zcaron" unicode="&#x17e;" horiz-adv-x="436" 
d="M-3 0l3 30l403 486l13 -30h-332l6 40h358l-4 -30l-405 -486l-12 30h355l-5 -40h-380zM222 640l-103 150h48l79 -112l111 112h56l-148 -150h-43z" />
    <glyph glyph-name="uni018F" unicode="&#x18f;" horiz-adv-x="850" 
d="M406 -12q-89 0 -159.5 42t-111.5 115t-41 165q0 30 3.5 49.5t4.5 28.5h670l-3 -46h-642l18 12q-1 -26 -1.5 -29t-0.5 -8q0 -81 34 -144.5t93.5 -100t135.5 -36.5q69 0 129 29t105.5 79t71.5 116t26 139q0 89 -37.5 159t-104.5 110.5t-154 40.5q-86 0 -161 -40t-119 -109
l-40 22q30 52 80 91.5t113 61.5t130 22q73 0 135.5 -26.5t109 -74.5t72.5 -113.5t26 -143.5q0 -85 -30 -159.5t-83 -131t-122 -88.5t-147 -32z" />
    <glyph glyph-name="florin" unicode="&#x192;" horiz-adv-x="467" 
d="M60 -12q-13 0 -23 2t-17 4l1 40q8 -1 17.5 -2t16.5 -1q58 0 96.5 38t48.5 109l24 173h-133l6 45h133l25 175q9 61 34.5 102.5t64 62.5t85.5 21q14 0 23.5 -2t16.5 -4l-1 -40q-8 2 -17.5 2.5t-16.5 0.5q-58 0 -96 -38t-49 -109l-24 -171h133l-6 -45h-133l-25 -177
q-8 -61 -33.5 -102.5t-64 -62.5t-86.5 -21z" />
    <glyph glyph-name="Ohorn" unicode="&#x1a0;" horiz-adv-x="887" 
d="M434 -12q-72 0 -134 25.5t-108.5 73t-72.5 112.5t-26 144q0 86 30 161t83 132t124.5 89t153.5 32h213q19 0 32.5 8t21.5 24t8 40q0 16 -3 32t-7 32h45q5 -19 7.5 -35.5t2.5 -32.5q0 -49 -30 -79t-80 -30h-66l9 7q85 -41 136.5 -124.5t51.5 -195.5q0 -86 -30 -161.5
t-83 -132.5t-124 -89t-154 -32zM434 36q74 0 136 29.5t108 80.5t71.5 117t25.5 139q0 84 -35.5 153.5t-100.5 111.5t-155 42q-74 0 -136.5 -30t-108.5 -81.5t-71 -117t-25 -136.5q0 -84 36 -154t101.5 -112t153.5 -42z" />
    <glyph glyph-name="ohorn" unicode="&#x1a1;" horiz-adv-x="664" 
d="M315 -12q-72 0 -128.5 33t-88.5 91t-32 131q0 61 21.5 114.5t60 94t90.5 63.5t112 23h113q19 0 32.5 8t21.5 24t8 40q0 16 -3 32t-7 32h45q5 -19 7.5 -35.5t2.5 -32.5q0 -47 -27 -76t-72 -32l4 9q57 -31 90 -90t33 -134q0 -61 -21.5 -114.5t-60 -94t-90 -63.5t-111.5 -23
zM314 31q67 0 120.5 35t84.5 93t31 126q0 60 -25.5 107.5t-70.5 75t-103 27.5q-67 0 -120.5 -34.5t-85 -92t-31.5 -125.5q0 -60 26 -108t71.5 -76t102.5 -28z" />
    <glyph glyph-name="Uhorn" unicode="&#x1af;" horiz-adv-x="690" 
d="M310 -12q-75 0 -127.5 33.5t-76 93t-12.5 138.5l69 492h50l-70 -500q-9 -63 10 -110.5t60.5 -74.5t99.5 -27t107 26.5t82 75.5t42 114l69 496h50l-69 -496q-11 -79 -50.5 -137.5t-99.5 -91t-134 -32.5zM637 704l6 41h13q19 0 32.5 8t21.5 24t8 40q0 16 -3 32t-7 32h45
q5 -19 7.5 -35.5t2.5 -32.5q0 -49 -30 -79t-80 -30h-16z" />
    <glyph glyph-name="uhorn" unicode="&#x1b0;" horiz-adv-x="576" 
d="M241 -12q-53 0 -96 24t-65 71t-12 115l47 328h45l-47 -332q-8 -55 8 -91.5t48.5 -54t73.5 -17.5q52 0 91.5 24t64 64.5t31.5 88.5l45 318h28q19 0 32.5 8t21.5 24t8 40q0 16 -3 32t-7 32h45q5 -19 7.5 -35.5t2.5 -32.5q0 -50 -31 -80t-82 -29l20 23l-71 -508h-45l10 74
q-27 -40 -72 -63t-98 -23z" />
    <glyph glyph-name="uni01C4" unicode="&#x1c4;" horiz-adv-x="1182" 
d="M63 0l104 745h215q99 0 172 -40t113.5 -114t40.5 -176q0 -81 -26 -155.5t-76.5 -133t-123.5 -92.5t-168 -34h-251zM119 45h198q78 0 140.5 29.5t107.5 81t69 118.5t24 141q0 88 -33.5 152t-96.5 98.5t-152 34.5h-165zM743 0l3 30l403 486l13 -30h-332l6 40h358l-4 -30
l-405 -486l-12 30h355l-5 -40h-380zM968 640l-103 150h48l79 -112l111 112h56l-148 -150h-43z" />
    <glyph glyph-name="uni01C5" unicode="&#x1c5;" horiz-adv-x="1182" 
d="M63 0l104 745h215q99 0 172 -40t113.5 -114t40.5 -176q0 -81 -26 -155.5t-76.5 -133t-123.5 -92.5t-168 -34h-251zM119 45h198q78 0 140.5 29.5t107.5 81t69 118.5t24 141q0 88 -33.5 152t-96.5 98.5t-152 34.5h-165zM743 0l3 30l403 486l13 -30h-332l6 40h358l-4 -30
l-405 -486l-12 30h355l-5 -40h-380zM968 640l-103 150h48l79 -112l111 112h56l-148 -150h-43z" />
    <glyph glyph-name="uni01C6" unicode="&#x1c6;" horiz-adv-x="1111" 
d="M309 -12q-72 0 -127 34.5t-85.5 92.5t-30.5 129q0 60 21.5 113t59 93.5t88.5 64t109 23.5q77 0 136.5 -40.5t83.5 -110.5l-7 -10l53 380h46l-106 -757h-45l20 149l18 -18q-34 -65 -96.5 -104t-137.5 -39zM308 33q67 0 119.5 34.5t82.5 92t30 126.5q0 63 -26.5 109.5
t-70.5 72t-99 25.5q-66 0 -118 -34.5t-82 -91.5t-30 -126q0 -60 24.5 -107t68.5 -74t101 -27zM672 0l3 30l403 486l13 -30h-332l6 40h358l-4 -30l-405 -486l-12 30h355l-5 -40h-380zM897 640l-103 150h48l79 -112l111 112h56l-148 -150h-43z" />
    <glyph glyph-name="uni01C7" unicode="&#x1c7;" horiz-adv-x="1087" 
d="M63 0l104 745h50l-98 -700h340l-6 -45h-390zM756 -12q-77 0 -129 44.5t-63 120.5l46 11q11 -61 50.5 -96t100.5 -35q67 0 112 43t56 121l77 548h50l-79 -562q-8 -58 -37 -101.5t-75.5 -68.5t-108.5 -25z" />
    <glyph glyph-name="uni01C8" unicode="&#x1c8;" horiz-adv-x="758" 
d="M63 0l104 745h50l-98 -700h340l-6 -45h-390zM455 -220q-13 0 -23 2t-18 4l2 40q8 -1 17.5 -2t16.5 -1q53 0 87.5 30.5t41.5 86.5l83 586h45l-83 -590q-7 -51 -30.5 -86t-58.5 -52.5t-80 -17.5zM677 635l15 110h45l-15 -110h-45z" />
    <glyph glyph-name="uni01C9" unicode="&#x1c9;" horiz-adv-x="446" 
d="M52 0l106 757h45l-106 -757h-45zM143 -220q-13 0 -23 2t-18 4l2 40q8 -1 17.5 -2t16.5 -1q53 0 87.5 30.5t41.5 86.5l83 586h45l-83 -590q-7 -51 -30.5 -86t-58.5 -52.5t-80 -17.5zM365 635l15 110h45l-15 -110h-45z" />
    <glyph glyph-name="uni01CA" unicode="&#x1ca;" horiz-adv-x="1119" 
d="M63 0l104 745h40l370 -667h-13l93 667h50l-104 -745h-40l-372 671h16l-94 -671h-50zM768 0l7 50h38q63 0 100.5 36.5t47.5 107.5l77 551h50l-78 -554q-8 -59 -35 -102t-70 -66t-99 -23h-38z" />
    <glyph glyph-name="uni01CB" unicode="&#x1cb;" horiz-adv-x="963" 
d="M63 0l104 745h40l370 -667h-13l93 667h50l-104 -745h-40l-372 671h16l-94 -671h-50zM660 -220q-13 0 -23 2t-18 4l2 40q8 -1 17.5 -2t16.5 -1q53 0 87.5 30.5t41.5 86.5l83 586h45l-83 -590q-7 -51 -30.5 -86t-58.5 -52.5t-80 -17.5zM882 635l15 110h45l-15 -110h-45z
" />
    <glyph glyph-name="uni01CC" unicode="&#x1cc;" horiz-adv-x="794" 
d="M51 0l74 526h45l-16 -111l-12 7q23 53 74.5 84.5t112.5 31.5q54 0 96.5 -25t64 -71t12.5 -109l-46 -333h-45l46 332q11 79 -27.5 121t-102.5 42q-51 0 -90.5 -24t-64.5 -64t-32 -89l-44 -318h-45zM491 -220q-13 0 -23 2t-18 4l2 40q8 -1 17.5 -2t16.5 -1q53 0 87.5 30.5
t41.5 86.5l83 586h45l-83 -590q-7 -51 -30.5 -86t-58.5 -52.5t-80 -17.5zM713 635l15 110h45l-15 -110h-45z" />
    <glyph glyph-name="Gcaron" unicode="&#x1e6;" horiz-adv-x="841" 
d="M424 -12q-72 0 -132.5 25.5t-105 72.5t-69 112t-24.5 144q0 86 28.5 161.5t80 132.5t121.5 89t153 32q78 0 137 -27t97.5 -68.5t53.5 -85.5l-48 -21q-28 71 -90.5 112.5t-150.5 41.5q-73 0 -134 -28.5t-105.5 -78.5t-68.5 -116.5t-24 -143.5q0 -97 38 -165.5t102 -104.5
t143 -36q83 0 149 37t107 101t49 145l3 30l19 -26h-305l3 45h334l-4 -49q-6 -67 -33.5 -127t-74 -106t-109.5 -72t-140 -26zM456 859l-103 150h48l79 -112l111 112h56l-148 -150h-43z" />
    <glyph glyph-name="gcaron" unicode="&#x1e7;" horiz-adv-x="667" 
d="M275 -220q-55 0 -98 17t-72.5 46t-44.5 64l39 18q23 -49 69 -76t110 -27q47 0 94.5 20.5t82.5 61.5t43 103l22 162l16 -18q-33 -65 -94 -104t-136 -39q-70 0 -124 33t-84 89t-30 125q0 58 21 109t58 90t86.5 61.5t106.5 22.5q77 0 135.5 -40t80.5 -105l-7 -16l21 149h45
l-73 -524q-9 -63 -47 -113t-95 -79.5t-125 -29.5zM306 53q65 0 116 33t80.5 87.5t29.5 120.5q0 57 -24 102t-67.5 71t-100.5 26q-65 0 -116 -33.5t-79.5 -88t-28.5 -119.5q0 -56 23.5 -101t66.5 -71.5t100 -26.5zM338 640l-103 150h48l79 -112l111 112h56l-148 -150h-43z
" />
    <glyph glyph-name="uni01EA" unicode="&#x1ea;" horiz-adv-x="887" 
d="M434 -12q-72 0 -134 25.5t-108.5 73t-72.5 112.5t-26 144q0 86 30 161t83 132t124.5 89t153.5 32q72 0 134 -25.5t108.5 -73t72.5 -112.5t26 -143q0 -86 -30 -161.5t-83 -132.5t-124 -89t-154 -32zM434 36q74 0 136 29.5t108 80.5t71.5 117t25.5 139q0 84 -35.5 153.5
t-100.5 111.5t-155 42q-74 0 -136.5 -30t-108.5 -81.5t-71 -117t-25 -136.5q0 -84 36 -154t101.5 -112t153.5 -42zM357 -220q-35 0 -59.5 18.5t-24.5 52.5t21 68.5t54.5 61t72.5 34.5h17l-2 -15q-32 -12 -59 -35t-43.5 -51t-16.5 -55q0 -21 12 -32.5t35 -11.5q20 0 43 9.5
t41 26.5l11 -32q-21 -19 -47.5 -29t-54.5 -10z" />
    <glyph glyph-name="uni01EB" unicode="&#x1eb;" horiz-adv-x="664" 
d="M315 -12q-72 0 -128.5 33t-88.5 91t-32 131q0 61 21.5 114.5t60 94t90.5 63.5t112 23q73 0 128.5 -33t87.5 -90.5t32 -131.5q0 -61 -21.5 -114.5t-60 -94t-90 -63.5t-111.5 -23zM314 31q67 0 120.5 35t84.5 93t31 126q0 60 -25.5 107.5t-70.5 75t-103 27.5
q-67 0 -120.5 -34.5t-85 -92t-31.5 -125.5q0 -60 26 -108t71.5 -76t102.5 -28zM245 -220q-35 0 -59.5 18.5t-24.5 52.5t21 68.5t54.5 61t72.5 34.5h17l-2 -15q-32 -12 -59 -35t-43.5 -51t-16.5 -55q0 -21 12 -32.5t35 -11.5q20 0 43 9.5t41 26.5l11 -32q-21 -19 -47.5 -29
t-54.5 -10z" />
    <glyph glyph-name="Aringacute" unicode="&#x1fa;" horiz-adv-x="644" 
d="M-15 0l380 745h48l172 -745h-54l-44 197h-344l-100 -197h-58zM165 242h312l-104 461l24 -3zM402 839q-35 0 -58.5 21.5t-23.5 57.5q0 30 14.5 54.5t39.5 39.5t54 15q36 0 59.5 -22t23.5 -57q0 -30 -14.5 -54.5t-39.5 -39.5t-55 -15zM407 875q27 0 47 20t20 47
q0 22 -15 35t-36 13q-26 0 -45.5 -19.5t-19.5 -47.5q0 -22 14 -35t35 -13zM433 999l78 120h61l-89 -120h-50z" />
    <glyph glyph-name="aringacute" unicode="&#x1fb;" 
d="M208 -12q-45 0 -81.5 16.5t-57.5 47.5t-21 74q0 46 23.5 81.5t66 59t98.5 32.5l225 37l-4 -43l-208 -34q-70 -11 -112.5 -45.5t-42.5 -87.5q0 -48 33 -72t85 -24q61 0 108.5 30t78.5 80t39 110l15 106q6 43 -10 74t-48.5 48t-77.5 17q-52 0 -98 -25.5t-75 -66.5l-39 23
q18 30 50 55.5t73.5 41t87.5 15.5q56 0 100 -23.5t66.5 -66t14.5 -98.5l-49 -350h-45l16 115h7q-17 -33 -49 -62t-75.5 -47t-93.5 -18zM336 620q-35 0 -58.5 21.5t-23.5 57.5q0 30 14.5 54.5t39.5 39.5t54 15q36 0 59.5 -22t23.5 -57q0 -30 -14.5 -54.5t-39.5 -39.5t-55 -15
zM341 656q27 0 47 20t20 47q0 22 -15 35t-36 13q-26 0 -45.5 -19.5t-19.5 -47.5q0 -22 14 -35t35 -13zM367 780l78 120h61l-89 -120h-50z" />
    <glyph glyph-name="AEacute" unicode="&#x1fc;" horiz-adv-x="987" 
d="M-15 0l380 745h634l-6 -45h-410l-43 -304h390l-6 -45h-390l-43 -306h410l-6 -45h-460l27 197h-320l-99 -197h-58zM165 242h304l64 458h-136zM555 859l114 150h61l-130 -150h-45z" />
    <glyph glyph-name="aeacute" unicode="&#x1fd;" horiz-adv-x="1005" 
d="M208 -12q-45 0 -81.5 16.5t-57.5 47.5t-21 74q0 46 23.5 81.5t66 59t98.5 32.5l214 35l3 22q6 43 -10 74t-48.5 48t-77.5 17q-52 0 -98 -25.5t-75 -66.5l-39 23q18 30 50 55.5t73.5 41t87.5 15.5q49 0 89 -18.5t65.5 -51.5t28.5 -78l-16 3q35 65 97 105t138 40
q66 0 116.5 -30.5t79.5 -82.5t29 -119q0 -14 -2 -29t-5 -28h-447q0 -66 26 -115.5t72 -76.5t105 -27q58 0 106.5 27.5t79.5 76.5l37 -22q-22 -38 -56.5 -66t-76.5 -43t-89 -15q-85 0 -147.5 46.5t-87.5 122.5l14 13l-24 -170h-45l19 135l5 -19q-17 -32 -49.5 -61.5
t-75.5 -48t-94 -18.5zM212 30q61 0 108.5 30t78.5 80t39 110l6 41l-195 -32q-70 -11 -112.5 -45.5t-42.5 -87.5q0 -48 33 -72t85 -24zM493 289h403q5 60 -17 107t-63.5 73.5t-96.5 26.5q-57 0 -105 -28t-79.5 -75t-41.5 -104zM533 640l114 150h61l-130 -150h-45z" />
    <glyph glyph-name="Oslashacute" unicode="&#x1fe;" horiz-adv-x="887" 
d="M70 0l714 745h64l-714 -745h-64zM434 -12q-72 0 -134 25.5t-108.5 73t-72.5 112.5t-26 144q0 86 30 161t83 132t124.5 89t153.5 32q72 0 134 -25.5t108.5 -73t72.5 -112.5t26 -143q0 -86 -30 -161.5t-83 -132.5t-124 -89t-154 -32zM434 36q74 0 136 29.5t108 80.5
t71.5 117t25.5 139q0 84 -35.5 153.5t-100.5 111.5t-155 42q-74 0 -136.5 -30t-108.5 -81.5t-71 -117t-25 -136.5q0 -84 36 -154t101.5 -112t153.5 -42zM505 859l114 150h61l-130 -150h-45z" />
    <glyph glyph-name="oslashacute" unicode="&#x1ff;" horiz-adv-x="664" 
d="M27 0l543 526h66l-543 -526h-66zM315 -12q-72 0 -128.5 33t-88.5 91t-32 131q0 61 21.5 114.5t60 94t90.5 63.5t112 23q73 0 128.5 -33t87.5 -90.5t32 -131.5q0 -61 -21.5 -114.5t-60 -94t-90 -63.5t-111.5 -23zM314 31q67 0 120.5 35t84.5 93t31 126q0 60 -25.5 107.5
t-70.5 75t-103 27.5q-67 0 -120.5 -34.5t-85 -92t-31.5 -125.5q0 -60 26 -108t71.5 -76t102.5 -28zM362 640l114 150h61l-130 -150h-45z" />
    <glyph glyph-name="uni0200" unicode="&#x200;" horiz-adv-x="644" 
d="M-15 0l380 745h48l172 -745h-54l-44 197h-344l-100 -197h-58zM165 242h312l-104 461l24 -3zM313 859l-87 148h61l71 -148h-45zM454 859l-87 148h61l71 -148h-45z" />
    <glyph glyph-name="uni0201" unicode="&#x201;" 
d="M208 -12q-45 0 -81.5 16.5t-57.5 47.5t-21 74q0 46 23.5 81.5t66 59t98.5 32.5l225 37l-4 -43l-208 -34q-70 -11 -112.5 -45.5t-42.5 -87.5q0 -48 33 -72t85 -24q61 0 108.5 30t78.5 80t39 110l15 106q6 43 -10 74t-48.5 48t-77.5 17q-52 0 -98 -25.5t-75 -66.5l-39 23
q18 30 50 55.5t73.5 41t87.5 15.5q56 0 100 -23.5t66.5 -66t14.5 -98.5l-49 -350h-45l16 115h7q-17 -33 -49 -62t-75.5 -47t-93.5 -18zM247 640l-87 148h61l71 -148h-45zM388 640l-87 148h61l71 -148h-45z" />
    <glyph glyph-name="uni0202" unicode="&#x202;" horiz-adv-x="644" 
d="M-15 0l380 745h48l172 -745h-54l-44 197h-344l-100 -197h-58zM165 242h312l-104 461l24 -3zM269 859q6 40 24.5 71.5t51 50t76.5 18.5q45 0 74 -19t41.5 -50.5t6.5 -70.5h-46q6 44 -13.5 72t-63.5 28t-71.5 -28t-33.5 -72h-46z" />
    <glyph glyph-name="uni0203" unicode="&#x203;" 
d="M208 -12q-45 0 -81.5 16.5t-57.5 47.5t-21 74q0 46 23.5 81.5t66 59t98.5 32.5l225 37l-4 -43l-208 -34q-70 -11 -112.5 -45.5t-42.5 -87.5q0 -48 33 -72t85 -24q61 0 108.5 30t78.5 80t39 110l15 106q6 43 -10 74t-48.5 48t-77.5 17q-52 0 -98 -25.5t-75 -66.5l-39 23
q18 30 50 55.5t73.5 41t87.5 15.5q56 0 100 -23.5t66.5 -66t14.5 -98.5l-49 -350h-45l16 115h7q-17 -33 -49 -62t-75.5 -47t-93.5 -18zM203 640q6 40 24.5 71.5t51 50t76.5 18.5q45 0 74 -19t41.5 -50.5t6.5 -70.5h-46q6 44 -13.5 72t-63.5 28t-71.5 -28t-33.5 -72h-46z" />
    <glyph glyph-name="uni0204" unicode="&#x204;" horiz-adv-x="615" 
d="M63 0l104 745h460l-6 -45h-410l-43 -304h390l-6 -45h-390l-43 -306h410l-6 -45h-460zM321 859l-87 148h61l71 -148h-45zM462 859l-87 148h61l71 -148h-45z" />
    <glyph glyph-name="uni0205" unicode="&#x205;" horiz-adv-x="628" 
d="M316 -12q-72 0 -128.5 34t-88.5 92t-32 131q0 59 21 112t58 93.5t87 64t108 23.5q66 0 116.5 -30.5t79.5 -82.5t29 -119q0 -14 -2 -29t-5 -28h-469l3 40h443l-18 -12q8 63 -13 112.5t-63.5 78t-99.5 28.5q-65 0 -117 -35.5t-82.5 -93.5t-30.5 -125q0 -61 26 -109
t71.5 -75.5t105.5 -27.5q58 0 106.5 27.5t79.5 76.5l37 -22q-22 -38 -56.5 -66t-76.5 -43t-89 -15zM274 640l-87 148h61l71 -148h-45zM415 640l-87 148h61l71 -148h-45z" />
    <glyph glyph-name="uni0206" unicode="&#x206;" horiz-adv-x="615" 
d="M63 0l104 745h460l-6 -45h-410l-43 -304h390l-6 -45h-390l-43 -306h410l-6 -45h-460zM277 859q6 40 24.5 71.5t51 50t76.5 18.5q45 0 74 -19t41.5 -50.5t6.5 -70.5h-46q6 44 -13.5 72t-63.5 28t-71.5 -28t-33.5 -72h-46z" />
    <glyph glyph-name="uni0207" unicode="&#x207;" horiz-adv-x="628" 
d="M316 -12q-72 0 -128.5 34t-88.5 92t-32 131q0 59 21 112t58 93.5t87 64t108 23.5q66 0 116.5 -30.5t79.5 -82.5t29 -119q0 -14 -2 -29t-5 -28h-469l3 40h443l-18 -12q8 63 -13 112.5t-63.5 78t-99.5 28.5q-65 0 -117 -35.5t-82.5 -93.5t-30.5 -125q0 -61 26 -109
t71.5 -75.5t105.5 -27.5q58 0 106.5 27.5t79.5 76.5l37 -22q-22 -38 -56.5 -66t-76.5 -43t-89 -15zM230 640q6 40 24.5 71.5t51 50t76.5 18.5q45 0 74 -19t41.5 -50.5t6.5 -70.5h-46q6 44 -13.5 72t-63.5 28t-71.5 -28t-33.5 -72h-46z" />
    <glyph glyph-name="uni0208" unicode="&#x208;" horiz-adv-x="249" 
d="M63 0l104 745h50l-104 -745h-50zM116 859l-87 148h61l71 -148h-45zM257 859l-87 148h61l71 -148h-45z" />
    <glyph glyph-name="uni0209" unicode="&#x209;" horiz-adv-x="185" 
d="M33 0l74 526h45l-74 -526h-45zM52 640l-87 148h61l71 -148h-45zM193 640l-87 148h61l71 -148h-45z" />
    <glyph glyph-name="uni020A" unicode="&#x20a;" horiz-adv-x="249" 
d="M63 0l104 745h50l-104 -745h-50zM72 859q6 40 24.5 71.5t51 50t76.5 18.5q45 0 74 -19t41.5 -50.5t6.5 -70.5h-46q6 44 -13.5 72t-63.5 28t-71.5 -28t-33.5 -72h-46z" />
    <glyph glyph-name="uni020B" unicode="&#x20b;" horiz-adv-x="185" 
d="M33 0l74 526h45l-74 -526h-45zM8 640q6 40 24.5 71.5t51 50t76.5 18.5q45 0 74 -19t41.5 -50.5t6.5 -70.5h-46q6 44 -13.5 72t-63.5 28t-71.5 -28t-33.5 -72h-46z" />
    <glyph glyph-name="uni020C" unicode="&#x20c;" horiz-adv-x="887" 
d="M434 -12q-72 0 -134 25.5t-108.5 73t-72.5 112.5t-26 144q0 86 30 161t83 132t124.5 89t153.5 32q72 0 134 -25.5t108.5 -73t72.5 -112.5t26 -143q0 -86 -30 -161.5t-83 -132.5t-124 -89t-154 -32zM434 36q74 0 136 29.5t108 80.5t71.5 117t25.5 139q0 84 -35.5 153.5
t-100.5 111.5t-155 42q-74 0 -136.5 -30t-108.5 -81.5t-71 -117t-25 -136.5q0 -84 36 -154t101.5 -112t153.5 -42zM435 859l-87 148h61l71 -148h-45zM576 859l-87 148h61l71 -148h-45z" />
    <glyph glyph-name="uni020D" unicode="&#x20d;" horiz-adv-x="664" 
d="M315 -12q-72 0 -128.5 33t-88.5 91t-32 131q0 61 21.5 114.5t60 94t90.5 63.5t112 23q73 0 128.5 -33t87.5 -90.5t32 -131.5q0 -61 -21.5 -114.5t-60 -94t-90 -63.5t-111.5 -23zM314 31q67 0 120.5 35t84.5 93t31 126q0 60 -25.5 107.5t-70.5 75t-103 27.5
q-67 0 -120.5 -34.5t-85 -92t-31.5 -125.5q0 -60 26 -108t71.5 -76t102.5 -28zM292 640l-87 148h61l71 -148h-45zM433 640l-87 148h61l71 -148h-45z" />
    <glyph glyph-name="uni020E" unicode="&#x20e;" horiz-adv-x="887" 
d="M434 -12q-72 0 -134 25.5t-108.5 73t-72.5 112.5t-26 144q0 86 30 161t83 132t124.5 89t153.5 32q72 0 134 -25.5t108.5 -73t72.5 -112.5t26 -143q0 -86 -30 -161.5t-83 -132.5t-124 -89t-154 -32zM434 36q74 0 136 29.5t108 80.5t71.5 117t25.5 139q0 84 -35.5 153.5
t-100.5 111.5t-155 42q-74 0 -136.5 -30t-108.5 -81.5t-71 -117t-25 -136.5q0 -84 36 -154t101.5 -112t153.5 -42zM391 859q6 40 24.5 71.5t51 50t76.5 18.5q45 0 74 -19t41.5 -50.5t6.5 -70.5h-46q6 44 -13.5 72t-63.5 28t-71.5 -28t-33.5 -72h-46z" />
    <glyph glyph-name="uni020F" unicode="&#x20f;" horiz-adv-x="664" 
d="M315 -12q-72 0 -128.5 33t-88.5 91t-32 131q0 61 21.5 114.5t60 94t90.5 63.5t112 23q73 0 128.5 -33t87.5 -90.5t32 -131.5q0 -61 -21.5 -114.5t-60 -94t-90 -63.5t-111.5 -23zM314 31q67 0 120.5 35t84.5 93t31 126q0 60 -25.5 107.5t-70.5 75t-103 27.5
q-67 0 -120.5 -34.5t-85 -92t-31.5 -125.5q0 -60 26 -108t71.5 -76t102.5 -28zM248 640q6 40 24.5 71.5t51 50t76.5 18.5q45 0 74 -19t41.5 -50.5t6.5 -70.5h-46q6 44 -13.5 72t-63.5 28t-71.5 -28t-33.5 -72h-46z" />
    <glyph glyph-name="uni0210" unicode="&#x210;" horiz-adv-x="638" 
d="M63 0l104 745h232q61 0 109.5 -24.5t76.5 -69.5t28 -109q0 -56 -23.5 -104.5t-66 -82.5t-101.5 -47l135 -308h-56l-144 333l50 -33h-252l-42 -300h-50zM161 345h196q62 0 108 27t72 72t26 98q0 72 -46 115t-122 43h-184zM305 859l-87 148h61l71 -148h-45zM446 859
l-87 148h61l71 -148h-45z" />
    <glyph glyph-name="uni0211" unicode="&#x211;" horiz-adv-x="341" 
d="M51 0l74 526h46l-16 -111l-12 5q23 53 72 82.5t108 29.5h33l-6 -45h-34q-72 0 -118 -47t-57 -120l-45 -320h-45zM163 640l-87 148h61l71 -148h-45zM304 640l-87 148h61l71 -148h-45z" />
    <glyph glyph-name="uni0212" unicode="&#x212;" horiz-adv-x="638" 
d="M63 0l104 745h232q61 0 109.5 -24.5t76.5 -69.5t28 -109q0 -56 -23.5 -104.5t-66 -82.5t-101.5 -47l135 -308h-56l-144 333l50 -33h-252l-42 -300h-50zM161 345h196q62 0 108 27t72 72t26 98q0 72 -46 115t-122 43h-184zM261 859q6 40 24.5 71.5t51 50t76.5 18.5
q45 0 74 -19t41.5 -50.5t6.5 -70.5h-46q6 44 -13.5 72t-63.5 28t-71.5 -28t-33.5 -72h-46z" />
    <glyph glyph-name="uni0213" unicode="&#x213;" horiz-adv-x="341" 
d="M51 0l74 526h46l-16 -111l-12 5q23 53 72 82.5t108 29.5h33l-6 -45h-34q-72 0 -118 -47t-57 -120l-45 -320h-45zM119 640q6 40 24.5 71.5t51 50t76.5 18.5q45 0 74 -19t41.5 -50.5t6.5 -70.5h-46q6 44 -13.5 72t-63.5 28t-71.5 -28t-33.5 -72h-46z" />
    <glyph glyph-name="uni0214" unicode="&#x214;" horiz-adv-x="691" 
d="M310 -12q-75 0 -127.5 33.5t-76 93t-12.5 138.5l69 492h50l-70 -500q-9 -63 10 -110.5t60.5 -74.5t99.5 -27t107 26.5t82 75.5t42 114l69 496h50l-69 -496q-11 -79 -50.5 -137.5t-99.5 -91t-134 -32.5zM337 859l-87 148h61l71 -148h-45zM478 859l-87 148h61l71 -148h-45z
" />
    <glyph glyph-name="uni0215" unicode="&#x215;" horiz-adv-x="571" 
d="M241 -12q-53 0 -96 24t-65 71t-12 115l47 328h45l-47 -332q-8 -55 8 -91.5t48.5 -54t73.5 -17.5q52 0 91.5 24t64 64.5t31.5 88.5l45 318h45l-74 -526h-45l15 111l12 -7q-23 -52 -73.5 -84t-113.5 -32zM246 640l-87 148h61l71 -148h-45zM387 640l-87 148h61l71 -148h-45z
" />
    <glyph glyph-name="uni0216" unicode="&#x216;" horiz-adv-x="691" 
d="M310 -12q-75 0 -127.5 33.5t-76 93t-12.5 138.5l69 492h50l-70 -500q-9 -63 10 -110.5t60.5 -74.5t99.5 -27t107 26.5t82 75.5t42 114l69 496h50l-69 -496q-11 -79 -50.5 -137.5t-99.5 -91t-134 -32.5zM293 859q6 40 24.5 71.5t51 50t76.5 18.5q45 0 74 -19t41.5 -50.5
t6.5 -70.5h-46q6 44 -13.5 72t-63.5 28t-71.5 -28t-33.5 -72h-46z" />
    <glyph glyph-name="uni0217" unicode="&#x217;" horiz-adv-x="571" 
d="M241 -12q-53 0 -96 24t-65 71t-12 115l47 328h45l-47 -332q-8 -55 8 -91.5t48.5 -54t73.5 -17.5q52 0 91.5 24t64 64.5t31.5 88.5l45 318h45l-74 -526h-45l15 111l12 -7q-23 -52 -73.5 -84t-113.5 -32zM202 640q6 40 24.5 71.5t51 50t76.5 18.5q45 0 74 -19t41.5 -50.5
t6.5 -70.5h-46q6 44 -13.5 72t-63.5 28t-71.5 -28t-33.5 -72h-46z" />
    <glyph glyph-name="uni0218" unicode="&#x218;" horiz-adv-x="640" 
d="M310 -12q-64 0 -118 23.5t-90.5 65.5t-48.5 97l47 14q21 -74 76.5 -115.5t134.5 -41.5q57 0 100 20.5t67.5 57t24.5 83.5q0 50 -26 84t-78 49l-135 40q-69 21 -104.5 68.5t-35.5 114.5q0 59 31 106.5t84 75t118 27.5q57 0 104 -22t79.5 -61t42.5 -91l-46 -14
q-18 68 -66.5 106.5t-116.5 38.5q-52 0 -93 -21.5t-65 -59t-24 -84.5q0 -53 27.5 -86t91.5 -53l122 -37q68 -21 103 -66.5t35 -111.5q0 -60 -31 -106.5t-85.5 -73.5t-124.5 -27zM181 -233l70 163h45l-80 -163h-35z" />
    <glyph glyph-name="uni0219" unicode="&#x219;" horiz-adv-x="506" 
d="M236 -12q-47 0 -88 16.5t-70 46t-43 69.5l42 16q20 -50 61 -77.5t96 -27.5q62 0 101.5 31.5t39.5 80.5q0 33 -20.5 55t-64.5 34l-86 24q-58 17 -86.5 48t-28.5 77q0 45 23 80.5t62.5 56t89.5 20.5q65 0 115 -33.5t65 -86.5l-45 -16q-16 44 -51 68.5t-82 24.5
q-55 0 -92.5 -31.5t-37.5 -78.5q0 -31 19 -51.5t59 -31.5l86 -24q50 -13 86 -44.5t36 -91.5q0 -44 -24.5 -79t-66.5 -55t-95 -20zM114 -233l70 163h45l-80 -163h-35z" />
    <glyph glyph-name="uni021A" unicode="&#x21a;" horiz-adv-x="515" 
d="M197 0l98 700h-211l6 45h470l-6 -45h-209l-98 -700h-50zM119 -233l70 163h45l-80 -163h-35z" />
    <glyph glyph-name="uni021B" unicode="&#x21b;" horiz-adv-x="380" 
d="M236 -6q-63 0 -92 34t-20 100l50 358h-100l6 40h48q26 0 40.5 14t18.5 42l10 68h45l-17 -124h114l-6 -40h-113l-51 -362q-2 -18 0 -38.5t17 -34.5t52 -14q10 0 22 1t19 2l-2 -42q-10 -3 -23 -3.5t-18 -0.5zM101 -233l70 163h45l-80 -163h-35z" />
    <glyph glyph-name="uni022A" unicode="&#x22a;" horiz-adv-x="887" 
d="M434 -12q-72 0 -134 25.5t-108.5 73t-72.5 112.5t-26 144q0 86 30 161t83 132t124.5 89t153.5 32q72 0 134 -25.5t108.5 -73t72.5 -112.5t26 -143q0 -86 -30 -161.5t-83 -132.5t-124 -89t-154 -32zM434 36q74 0 136 29.5t108 80.5t71.5 117t25.5 139q0 84 -35.5 153.5
t-100.5 111.5t-155 42q-74 0 -136.5 -30t-108.5 -81.5t-71 -117t-25 -136.5q0 -84 36 -154t101.5 -112t153.5 -42zM418 859l10 75h70l-10 -75h-70zM568 859l10 75h70l-10 -75h-70zM430 1049l5 40h250l-5 -40h-250z" />
    <glyph glyph-name="uni022B" unicode="&#x22b;" horiz-adv-x="664" 
d="M315 -12q-72 0 -128.5 33t-88.5 91t-32 131q0 61 21.5 114.5t60 94t90.5 63.5t112 23q73 0 128.5 -33t87.5 -90.5t32 -131.5q0 -61 -21.5 -114.5t-60 -94t-90 -63.5t-111.5 -23zM314 31q67 0 120.5 35t84.5 93t31 126q0 60 -25.5 107.5t-70.5 75t-103 27.5
q-67 0 -120.5 -34.5t-85 -92t-31.5 -125.5q0 -60 26 -108t71.5 -76t102.5 -28zM275 640l10 75h70l-10 -75h-70zM425 640l10 75h70l-10 -75h-70zM287 830l5 40h250l-5 -40h-250z" />
    <glyph glyph-name="uni022C" unicode="&#x22c;" horiz-adv-x="887" 
d="M434 -12q-72 0 -134 25.5t-108.5 73t-72.5 112.5t-26 144q0 86 30 161t83 132t124.5 89t153.5 32q72 0 134 -25.5t108.5 -73t72.5 -112.5t26 -143q0 -86 -30 -161.5t-83 -132.5t-124 -89t-154 -32zM434 36q74 0 136 29.5t108 80.5t71.5 117t25.5 139q0 84 -35.5 153.5
t-100.5 111.5t-155 42q-74 0 -136.5 -30t-108.5 -81.5t-71 -117t-25 -136.5q0 -84 36 -154t101.5 -112t153.5 -42zM585 859q-25 0 -40 10.5t-24.5 25t-19 25t-25.5 10.5q-19 0 -31.5 -16t-17.5 -51h-40q5 32 18 56t33.5 37t46.5 13q25 0 38.5 -10.5t23 -25t19.5 -25
t27 -10.5q21 0 34.5 16.5t17.5 50.5h40q-6 -46 -32.5 -76t-67.5 -30zM430 1049l6 40h250l-6 -40h-250z" />
    <glyph glyph-name="uni022D" unicode="&#x22d;" horiz-adv-x="664" 
d="M315 -12q-72 0 -128.5 33t-88.5 91t-32 131q0 61 21.5 114.5t60 94t90.5 63.5t112 23q73 0 128.5 -33t87.5 -90.5t32 -131.5q0 -61 -21.5 -114.5t-60 -94t-90 -63.5t-111.5 -23zM314 31q67 0 120.5 35t84.5 93t31 126q0 60 -25.5 107.5t-70.5 75t-103 27.5
q-67 0 -120.5 -34.5t-85 -92t-31.5 -125.5q0 -60 26 -108t71.5 -76t102.5 -28zM442 640q-25 0 -40 10.5t-24.5 25t-19 25t-25.5 10.5q-19 0 -31.5 -16t-17.5 -51h-40q5 32 18 56t33.5 37t46.5 13q25 0 38.5 -10.5t23 -25t19.5 -25t27 -10.5q21 0 34.5 16.5t17.5 50.5h40
q-6 -46 -32.5 -76t-67.5 -30zM287 830l6 40h250l-6 -40h-250z" />
    <glyph glyph-name="uni0230" unicode="&#x230;" horiz-adv-x="887" 
d="M434 -12q-72 0 -134 25.5t-108.5 73t-72.5 112.5t-26 144q0 86 30 161t83 132t124.5 89t153.5 32q72 0 134 -25.5t108.5 -73t72.5 -112.5t26 -143q0 -86 -30 -161.5t-83 -132.5t-124 -89t-154 -32zM434 36q74 0 136 29.5t108 80.5t71.5 117t25.5 139q0 84 -35.5 153.5
t-100.5 111.5t-155 42q-74 0 -136.5 -30t-108.5 -81.5t-71 -117t-25 -136.5q0 -84 36 -154t101.5 -112t153.5 -42zM493 859l10 75h70l-10 -75h-70zM430 1049l5 40h250l-5 -40h-250z" />
    <glyph glyph-name="uni0231" unicode="&#x231;" horiz-adv-x="664" 
d="M315 -12q-72 0 -128.5 33t-88.5 91t-32 131q0 61 21.5 114.5t60 94t90.5 63.5t112 23q73 0 128.5 -33t87.5 -90.5t32 -131.5q0 -61 -21.5 -114.5t-60 -94t-90 -63.5t-111.5 -23zM314 31q67 0 120.5 35t84.5 93t31 126q0 60 -25.5 107.5t-70.5 75t-103 27.5
q-67 0 -120.5 -34.5t-85 -92t-31.5 -125.5q0 -60 26 -108t71.5 -76t102.5 -28zM350 640l10 75h70l-10 -75h-70zM287 830l5 40h250l-5 -40h-250z" />
    <glyph glyph-name="uni0232" unicode="&#x232;" horiz-adv-x="624" 
d="M251 0l46 333l-207 412h53l195 -376h-28l297 376h63l-323 -412l-46 -333h-50zM274 879l6 40h250l-6 -40h-250z" />
    <glyph glyph-name="uni0233" unicode="&#x233;" horiz-adv-x="531" 
d="M19 -220q-13 0 -29.5 2t-30.5 7l2 40q15 -4 29 -5t24 -1q34 1 59.5 13t46 35t39.5 55l56 96l-2 -46l-146 550h49l131 -496h-28l273 496h54l-337 -609q-15 -27 -40.5 -59t-62.5 -55t-87 -23zM197 660l6 40h250l-6 -40h-250z" />
    <glyph glyph-name="uni0237" unicode="&#x237;" horiz-adv-x="224" 
d="M-79 -220q-13 0 -23 2t-18 4l2 40q8 -1 17.5 -2t16.5 -1q53 0 87.5 30.5t41.5 86.5l83 586h45l-83 -590q-7 -51 -30.5 -86t-58.5 -52.5t-80 -17.5z" />
    <glyph glyph-name="uni0259" unicode="&#x259;" horiz-adv-x="628" 
d="M287 -12q-65 0 -116 30.5t-80 83t-29 118.5q0 14 2 29t5 28h469l-3 -40h-443l18 12q-7 -63 13.5 -112.5t63 -78t99.5 -28.5q65 0 117 35.5t82.5 93.5t30.5 125q0 61 -26 109t-71.5 75.5t-105.5 27.5q-58 0 -106 -27.5t-80 -76.5l-37 22q22 39 56.5 66.5t77 42.5t88.5 15
q72 0 128.5 -34t88.5 -92t32 -131q0 -59 -21 -112t-58 -93.5t-87 -64t-108 -23.5z" />
    <glyph glyph-name="circumflex" unicode="&#x2c6;" horiz-adv-x="474" 
d="M156 640l147 150h43l104 -150h-48l-79 112l-111 -112h-56z" />
    <glyph glyph-name="caron" unicode="&#x2c7;" horiz-adv-x="474" 
d="M280 640l-103 150h48l79 -112l111 112h56l-148 -150h-43z" />
    <glyph glyph-name="breve" unicode="&#x2d8;" horiz-adv-x="446" 
d="M298 640q-43 0 -72.5 18t-42.5 49.5t-7 72.5h46q-6 -44 13.5 -72t63.5 -28t71.5 28t33.5 72h46q-6 -41 -25.5 -72.5t-51.5 -49.5t-75 -18z" />
    <glyph glyph-name="dotaccent" unicode="&#x2d9;" horiz-adv-x="258" 
d="M157 640l10 75h70l-10 -75h-70z" />
    <glyph glyph-name="ring" unicode="&#x2da;" horiz-adv-x="365" 
d="M247 620q-35 0 -58.5 21.5t-23.5 57.5q0 30 14.5 54.5t39.5 39.5t54 15q36 0 59.5 -22t23.5 -57q0 -30 -14.5 -54.5t-39.5 -39.5t-55 -15zM252 656q27 0 47 20t20 47q0 22 -15 35t-36 13q-26 0 -45.5 -19.5t-19.5 -47.5q0 -22 14 -35t35 -13z" />
    <glyph glyph-name="ogonek" unicode="&#x2db;" horiz-adv-x="382" 
d="M130 -220q-35 0 -59.5 18.5t-24.5 52.5t21 68.5t54.5 61t72.5 34.5h17l-2 -15q-32 -12 -59 -35t-43.5 -51t-16.5 -55q0 -21 12 -32.5t35 -11.5q20 0 43 9.5t41 26.5l11 -32q-21 -19 -47.5 -29t-54.5 -10z" />
    <glyph glyph-name="tilde" unicode="&#x2dc;" horiz-adv-x="462" 
d="M355 640q-25 0 -40 10.5t-24.5 25t-19 25t-25.5 10.5q-19 0 -31.5 -16t-17.5 -51h-40q5 32 18 56t33.5 37t46.5 13q25 0 38.5 -10.5t23 -25t19.5 -25t27 -10.5q21 0 34.5 16.5t17.5 50.5h40q-6 -46 -32.5 -76t-67.5 -30z" />
    <glyph glyph-name="hungarumlaut" unicode="&#x2dd;" horiz-adv-x="453" 
d="M156 640l74 150h61l-90 -150h-45zM297 640l74 150h61l-90 -150h-45z" />
    <glyph glyph-name="gravecomb" unicode="&#x300;" horiz-adv-x="0" 
d="M263 640l-86 150h61l70 -150h-45z" />
    <glyph glyph-name="acutecomb" unicode="&#x301;" horiz-adv-x="0" 
d="M156 640l114 150h61l-130 -150h-45z" />
    <glyph glyph-name="uni0302" unicode="&#x302;" horiz-adv-x="0" 
d="M156 640l147 150h43l104 -150h-48l-79 112l-111 -112h-56z" />
    <glyph glyph-name="tildecomb" unicode="&#x303;" horiz-adv-x="0" 
d="M355 640q-25 0 -40 10.5t-24.5 25t-19 25t-25.5 10.5q-19 0 -31.5 -16t-17.5 -51h-40q5 32 18 56t33.5 37t46.5 13q25 0 38.5 -10.5t23 -25t19.5 -25t27 -10.5q21 0 34.5 16.5t17.5 50.5h40q-6 -46 -32.5 -76t-67.5 -30z" />
    <glyph glyph-name="uni0304" unicode="&#x304;" horiz-adv-x="0" 
d="M159 660l6 40h250l-6 -40h-250z" />
    <glyph glyph-name="uni0306" unicode="&#x306;" horiz-adv-x="0" 
d="M298 640q-43 0 -72.5 18t-42.5 49.5t-7 72.5h46q-6 -44 13.5 -72t63.5 -28t71.5 28t33.5 72h46q-6 -41 -25.5 -72.5t-51.5 -49.5t-75 -18z" />
    <glyph glyph-name="uni0307" unicode="&#x307;" horiz-adv-x="0" 
d="M157 640l10 75h70l-10 -75h-70z" />
    <glyph glyph-name="uni0308" unicode="&#x308;" horiz-adv-x="0" 
d="M156 640l11 75h70l-11 -75h-70zM306 640l11 75h70l-11 -75h-70z" />
    <glyph glyph-name="hookabovecomb" unicode="&#x309;" horiz-adv-x="0" 
d="M242 600l-18 27q23 8 38.5 26.5t15.5 40.5q0 18 -13 29.5t-35 11.5q-14 0 -27.5 -3.5t-26.5 -11.5l-4 32q14 9 33 13.5t35 4.5q37 0 58 -18.5t21 -49.5q0 -22 -11 -42.5t-28.5 -36t-37.5 -23.5z" />
    <glyph glyph-name="uni030A" unicode="&#x30a;" horiz-adv-x="0" 
d="M247 620q-35 0 -58.5 21.5t-23.5 57.5q0 30 14.5 54.5t39.5 39.5t54 15q36 0 59.5 -22t23.5 -57q0 -30 -14.5 -54.5t-39.5 -39.5t-55 -15zM252 656q27 0 47 20t20 47q0 22 -15 35t-36 13q-26 0 -45.5 -19.5t-19.5 -47.5q0 -22 14 -35t35 -13z" />
    <glyph glyph-name="uni030B" unicode="&#x30b;" horiz-adv-x="0" 
d="M156 640l74 150h61l-90 -150h-45zM297 640l74 150h61l-90 -150h-45z" />
    <glyph glyph-name="uni030C" unicode="&#x30c;" horiz-adv-x="0" 
d="M280 640l-103 150h48l79 -112l111 112h56l-148 -150h-43z" />
    <glyph glyph-name="uni030F" unicode="&#x30f;" horiz-adv-x="0" 
d="M264 640l-87 148h61l71 -148h-45zM405 640l-87 148h61l71 -148h-45z" />
    <glyph glyph-name="uni0311" unicode="&#x311;" horiz-adv-x="0" 
d="M156 640q6 40 24.5 71.5t51 50t76.5 18.5q45 0 74 -19t41.5 -50.5t6.5 -70.5h-46q6 44 -13.5 72t-63.5 28t-71.5 -28t-33.5 -72h-46z" />
    <glyph glyph-name="uni0312" unicode="&#x312;" horiz-adv-x="0" 
d="M150 600l81 163h35l-71 -163h-45z" />
    <glyph glyph-name="uni031B" unicode="&#x31b;" horiz-adv-x="0" 
d="M156 640l6 41h13q20 0 34 8.5t21 25t7 39.5q0 11 -2 24.5t-8 38.5h45q5 -19 7.5 -35t2.5 -32q0 -50 -30 -80t-80 -30h-16z" />
    <glyph glyph-name="dotbelowcomb" unicode="&#x323;" horiz-adv-x="0" 
d="M43 -165l10 75h70l-10 -75h-70z" />
    <glyph glyph-name="uni0324" unicode="&#x324;" horiz-adv-x="0" 
d="M43 -165l10 75h70l-10 -75h-70zM193 -165l10 75h70l-10 -75h-70z" />
    <glyph glyph-name="uni0326" unicode="&#x326;" horiz-adv-x="0" 
d="M33 -233l70 163h45l-80 -163h-35z" />
    <glyph glyph-name="uni0327" unicode="&#x327;" horiz-adv-x="0" 
d="M132 -220q-25 0 -49.5 9.5t-41.5 29.5l19 32q14 -17 34.5 -26.5t39.5 -9.5q26 0 43.5 15.5t17.5 37.5q0 25 -25 38.5t-69 17.5l37 86h43l-24 -59q41 -7 61.5 -28.5t20.5 -48.5q0 -26 -14.5 -47.5t-38.5 -34t-54 -12.5z" />
    <glyph glyph-name="uni0328" unicode="&#x328;" horiz-adv-x="0" 
d="M130 -220q-35 0 -59.5 18.5t-24.5 52.5t21 68.5t54.5 61t72.5 34.5h17l-2 -15q-32 -12 -59 -35t-43.5 -51t-16.5 -55q0 -21 12 -32.5t35 -11.5q20 0 43 9.5t41 26.5l11 -32q-21 -19 -47.5 -29t-54.5 -10z" />
    <glyph glyph-name="uni032E" unicode="&#x32e;" horiz-adv-x="0" 
d="M175 -230q-45 0 -74 19t-41 51t-7 70h46q-6 -44 13.5 -72t63.5 -28t71.5 28t33.5 72h46q-5 -39 -24 -71t-51 -50.5t-77 -18.5z" />
    <glyph glyph-name="uni0331" unicode="&#x331;" horiz-adv-x="0" 
d="M46 -140l6 40h250l-6 -40h-250z" />
    <glyph glyph-name="uni0394" unicode="&#x394;" horiz-adv-x="610" 
d="M-15 0l6 45l358 700h48l160 -700l-6 -45h-566zM27 11l-18 34h530l-22 -34l-156 694h16z" />
    <glyph glyph-name="uni03A9" unicode="&#x3a9;" horiz-adv-x="911" 
d="M66 0l7 45h209l-17 -12q-78 45 -125 125t-47 186q0 85 30 159.5t84 131.5t125 89.5t153 32.5q72 0 133.5 -25.5t108 -72t72.5 -111.5t26 -143q0 -80 -26.5 -151t-75.5 -127.5t-118 -93.5l-15 12h213l-7 -45h-250l7 45q67 28 116.5 81.5t77.5 123.5t28 146q0 88 -37 159
t-102.5 112.5t-152.5 41.5q-71 0 -132.5 -28.5t-108 -78.5t-73 -116t-26.5 -142q0 -68 22 -126.5t62.5 -103t95.5 -69.5l-7 -45h-250z" />
    <glyph glyph-name="pi" unicode="&#x3c0;" horiz-adv-x="626" 
d="M106 0l68 486h-100l6 40h540l-6 -40h-100l-68 -486h-45l68 486h-250l-68 -486h-45z" />
    <glyph glyph-name="uni0E3F" unicode="&#xe3f;" horiz-adv-x="702" 
d="M63 0l104 745h288q83 0 132 -47t49 -119q0 -44 -18 -83.5t-51 -67.5t-77 -39l-1 15q65 -13 102.5 -60.5t37.5 -112.5q0 -69 -31.5 -121t-88 -81t-132.5 -29h-314zM119 45h254q62 0 108 23t72 64.5t26 95.5q0 65 -44 103.5t-118 38.5h-252zM171 415h244q51 0 89.5 20.5
t60 57t21.5 84.5q0 56 -36.5 89.5t-104.5 33.5h-234zM265 -100l132 945h45l-132 -945h-45z" />
    <glyph glyph-name="uni1E08" unicode="&#x1e08;" horiz-adv-x="803" 
d="M418 -12q-67 0 -126 24t-104 69.5t-70.5 110.5t-25.5 147q0 87 28.5 163t79.5 133t120 89.5t149 32.5q76 0 134 -27.5t96 -69.5t53 -85l-48 -19q-28 70 -88 111.5t-148 41.5q-73 0 -132.5 -29t-103 -79.5t-67 -117.5t-23.5 -142q0 -93 34.5 -161.5t96.5 -106t144 -37.5
q89 0 156 42.5t105 112.5l46 -23q-21 -43 -64.5 -84.5t-105 -68.5t-136.5 -27zM396 -220q-25 0 -49.5 9.5t-41.5 29.5l19 32q14 -17 34.5 -26.5t39.5 -9.5q26 0 43.5 15.5t17.5 37.5q0 25 -25 38.5t-69 17.5l37 86h43l-24 -59q41 -7 61.5 -28.5t20.5 -48.5
q0 -26 -14.5 -47.5t-38.5 -34t-54 -12.5zM463 859l114 150h61l-130 -150h-45z" />
    <glyph glyph-name="uni1E09" unicode="&#x1e09;" horiz-adv-x="619" 
d="M311 -12q-69 0 -124.5 32.5t-88 90t-32.5 132.5q0 61 22 114.5t60.5 94t89.5 63.5t109 23q49 0 90 -16.5t70.5 -44.5t45.5 -64l-39 -19q-24 50 -67 76t-100 26q-68 0 -121.5 -34.5t-84 -92.5t-30.5 -128q0 -66 27 -113t72.5 -72.5t100.5 -25.5q58 0 105.5 27.5t78.5 76.5
l37 -22q-20 -35 -53.5 -63.5t-76 -44.5t-91.5 -16zM289 -220q-25 0 -49.5 9.5t-41.5 29.5l19 32q14 -17 34.5 -26.5t39.5 -9.5q26 0 43.5 15.5t17.5 37.5q0 25 -25 38.5t-69 17.5l37 86h43l-24 -59q41 -7 61.5 -28.5t20.5 -48.5q0 -26 -14.5 -47.5t-38.5 -34t-54 -12.5z
M338 640l114 150h61l-130 -150h-45z" />
    <glyph glyph-name="uni1E0C" unicode="&#x1e0c;" horiz-adv-x="746" 
d="M63 0l104 745h215q99 0 172 -40t113.5 -114t40.5 -176q0 -81 -26 -155.5t-76.5 -133t-123.5 -92.5t-168 -34h-251zM119 45h198q78 0 140.5 29.5t107.5 81t69 118.5t24 141q0 88 -33.5 152t-96.5 98.5t-152 34.5h-165zM289 -165l10 75h70l-10 -75h-70z" />
    <glyph glyph-name="uni1E0D" unicode="&#x1e0d;" horiz-adv-x="675" 
d="M309 -12q-72 0 -127 34.5t-85.5 92.5t-30.5 129q0 60 21.5 113t59 93.5t88.5 64t109 23.5q77 0 136.5 -40.5t83.5 -110.5l-7 -10l53 380h46l-106 -757h-45l20 149l18 -18q-34 -65 -96.5 -104t-137.5 -39zM308 33q67 0 119.5 34.5t82.5 92t30 126.5q0 63 -26.5 109.5
t-70.5 72t-99 25.5q-66 0 -118 -34.5t-82 -91.5t-30 -126q0 -60 24.5 -107t68.5 -74t101 -27zM243 -165l10 75h70l-10 -75h-70z" />
    <glyph glyph-name="uni1E0E" unicode="&#x1e0e;" horiz-adv-x="746" 
d="M63 0l104 745h215q99 0 172 -40t113.5 -114t40.5 -176q0 -81 -26 -155.5t-76.5 -133t-123.5 -92.5t-168 -34h-251zM119 45h198q78 0 140.5 29.5t107.5 81t69 118.5t24 141q0 88 -33.5 152t-96.5 98.5t-152 34.5h-165zM202 -140l6 40h250l-6 -40h-250z" />
    <glyph glyph-name="uni1E0F" unicode="&#x1e0f;" horiz-adv-x="675" 
d="M309 -12q-72 0 -127 34.5t-85.5 92.5t-30.5 129q0 60 21.5 113t59 93.5t88.5 64t109 23.5q77 0 136.5 -40.5t83.5 -110.5l-7 -10l53 380h46l-106 -757h-45l20 149l18 -18q-34 -65 -96.5 -104t-137.5 -39zM308 33q67 0 119.5 34.5t82.5 92t30 126.5q0 63 -26.5 109.5
t-70.5 72t-99 25.5q-66 0 -118 -34.5t-82 -91.5t-30 -126q0 -60 24.5 -107t68.5 -74t101 -27zM156 -140l6 40h250l-6 -40h-250z" />
    <glyph glyph-name="uni1E14" unicode="&#x1e14;" horiz-adv-x="615" 
d="M63 0l104 745h460l-6 -45h-410l-43 -304h390l-6 -45h-390l-43 -306h410l-6 -45h-460zM292 879l6 40h250l-6 -40h-250zM413 1009l-87 150h61l71 -150h-45z" />
    <glyph glyph-name="uni1E15" unicode="&#x1e15;" horiz-adv-x="628" 
d="M316 -12q-72 0 -128.5 34t-88.5 92t-32 131q0 59 21 112t58 93.5t87 64t108 23.5q66 0 116.5 -30.5t79.5 -82.5t29 -119q0 -14 -2 -29t-5 -28h-469l3 40h443l-18 -12q8 63 -13 112.5t-63.5 78t-99.5 28.5q-65 0 -117 -35.5t-82.5 -93.5t-30.5 -125q0 -61 26 -109
t71.5 -75.5t105.5 -27.5q58 0 106.5 27.5t79.5 76.5l37 -22q-22 -38 -56.5 -66t-76.5 -43t-89 -15zM245 660l6 40h250l-6 -40h-250zM366 790l-87 150h61l71 -150h-45z" />
    <glyph glyph-name="uni1E16" unicode="&#x1e16;" horiz-adv-x="615" 
d="M63 0l104 745h460l-6 -45h-410l-43 -304h390l-6 -45h-390l-43 -306h410l-6 -45h-460zM409 1009l113 150h61l-129 -150h-45zM289 879l6 40h250l-6 -40h-250z" />
    <glyph glyph-name="uni1E17" unicode="&#x1e17;" horiz-adv-x="628" 
d="M316 -12q-72 0 -128.5 34t-88.5 92t-32 131q0 59 21 112t58 93.5t87 64t108 23.5q66 0 116.5 -30.5t79.5 -82.5t29 -119q0 -14 -2 -29t-5 -28h-469l3 40h443l-18 -12q8 63 -13 112.5t-63.5 78t-99.5 28.5q-65 0 -117 -35.5t-82.5 -93.5t-30.5 -125q0 -61 26 -109
t71.5 -75.5t105.5 -27.5q58 0 106.5 27.5t79.5 76.5l37 -22q-22 -38 -56.5 -66t-76.5 -43t-89 -15zM362 790l113 150h61l-129 -150h-45zM242 660l6 40h250l-6 -40h-250z" />
    <glyph glyph-name="uni1E1C" unicode="&#x1e1c;" horiz-adv-x="615" 
d="M63 0l104 745h460l-6 -45h-410l-43 -304h390l-6 -45h-390l-43 -306h410l-6 -45h-460zM271 -220q-25 0 -49.5 9.5t-41.5 29.5l19 32q14 -17 34.5 -26.5t39.5 -9.5q26 0 43.5 15.5t17.5 37.5q0 25 -25 38.5t-69 17.5l37 86h43l-24 -59q41 -7 61.5 -28.5t20.5 -48.5
q0 -26 -14.5 -47.5t-38.5 -34t-54 -12.5zM419 859q-43 0 -72.5 18t-42.5 49.5t-7 72.5h46q-6 -44 13.5 -72t63.5 -28t71.5 28t33.5 72h46q-6 -41 -25.5 -72.5t-51.5 -49.5t-75 -18z" />
    <glyph glyph-name="uni1E1D" unicode="&#x1e1d;" horiz-adv-x="628" 
d="M316 -12q-72 0 -128.5 34t-88.5 92t-32 131q0 59 21 112t58 93.5t87 64t108 23.5q66 0 116.5 -30.5t79.5 -82.5t29 -119q0 -14 -2 -29t-5 -28h-469l3 40h443l-18 -12q8 63 -13 112.5t-63.5 78t-99.5 28.5q-65 0 -117 -35.5t-82.5 -93.5t-30.5 -125q0 -61 26 -109
t71.5 -75.5t105.5 -27.5q58 0 106.5 27.5t79.5 76.5l37 -22q-22 -38 -56.5 -66t-76.5 -43t-89 -15zM255 -220q-25 0 -49.5 9.5t-41.5 29.5l19 32q14 -17 34.5 -26.5t39.5 -9.5q26 0 43.5 15.5t17.5 37.5q0 25 -25 38.5t-69 17.5l37 86h43l-24 -59q41 -7 61.5 -28.5
t20.5 -48.5q0 -26 -14.5 -47.5t-38.5 -34t-54 -12.5zM372 640q-43 0 -72.5 18t-42.5 49.5t-7 72.5h46q-6 -44 13.5 -72t63.5 -28t71.5 28t33.5 72h46q-6 -41 -25.5 -72.5t-51.5 -49.5t-75 -18z" />
    <glyph glyph-name="uni1E20" unicode="&#x1e20;" horiz-adv-x="841" 
d="M424 -12q-72 0 -132.5 25.5t-105 72.5t-69 112t-24.5 144q0 86 28.5 161.5t80 132.5t121.5 89t153 32q78 0 137 -27t97.5 -68.5t53.5 -85.5l-48 -21q-28 71 -90.5 112.5t-150.5 41.5q-73 0 -134 -28.5t-105.5 -78.5t-68.5 -116.5t-24 -143.5q0 -97 38 -165.5t102 -104.5
t143 -36q83 0 149 37t107 101t49 145l3 30l19 -26h-305l3 45h334l-4 -49q-6 -67 -33.5 -127t-74 -106t-109.5 -72t-140 -26zM383 879l6 40h250l-6 -40h-250z" />
    <glyph glyph-name="uni1E21" unicode="&#x1e21;" horiz-adv-x="667" 
d="M275 -220q-55 0 -98 17t-72.5 46t-44.5 64l39 18q23 -49 69 -76t110 -27q47 0 94.5 20.5t82.5 61.5t43 103l22 162l16 -18q-33 -65 -94 -104t-136 -39q-70 0 -124 33t-84 89t-30 125q0 58 21 109t58 90t86.5 61.5t106.5 22.5q77 0 135.5 -40t80.5 -105l-7 -16l21 149h45
l-73 -524q-9 -63 -47 -113t-95 -79.5t-125 -29.5zM306 53q65 0 116 33t80.5 87.5t29.5 120.5q0 57 -24 102t-67.5 71t-100.5 26q-65 0 -116 -33.5t-79.5 -88t-28.5 -119.5q0 -56 23.5 -101t66.5 -71.5t100 -26.5zM265 660l6 40h250l-6 -40h-250z" />
    <glyph glyph-name="uni1E24" unicode="&#x1e24;" horiz-adv-x="739" 
d="M63 0l104 745h50l-48 -343h440l48 343h50l-104 -745h-50l50 357h-440l-50 -357h-50zM275 -165l10 75h70l-10 -75h-70z" />
    <glyph glyph-name="uni1E25" unicode="&#x1e25;" horiz-adv-x="571" 
d="M52 0l106 757h45l-48 -342l-12 7q23 53 74.5 84.5t112.5 31.5q54 0 96.5 -25t64 -71t12.5 -109l-46 -333h-45l46 332q11 79 -27.5 121t-102.5 42q-51 0 -91 -24t-64.5 -64t-31.5 -89l-44 -318h-45zM191 -165l10 75h70l-10 -75h-70z" />
    <glyph glyph-name="uni1E2A" unicode="&#x1e2a;" horiz-adv-x="739" 
d="M63 0l104 745h50l-48 -343h440l48 343h50l-104 -745h-50l50 357h-440l-50 -357h-50zM305 -230q-45 0 -74 19t-41 51t-7 70h46q-6 -44 13.5 -72t63.5 -28t71.5 28t33.5 72h46q-5 -39 -24 -71t-51 -50.5t-77 -18.5z" />
    <glyph glyph-name="uni1E2B" unicode="&#x1e2b;" horiz-adv-x="571" 
d="M52 0l106 757h45l-48 -342l-12 7q23 53 74.5 84.5t112.5 31.5q54 0 96.5 -25t64 -71t12.5 -109l-46 -333h-45l46 332q11 79 -27.5 121t-102.5 42q-51 0 -91 -24t-64.5 -64t-31.5 -89l-44 -318h-45zM221 -230q-45 0 -74 19t-41 51t-7 70h46q-6 -44 13.5 -72t63.5 -28
t71.5 28t33.5 72h46q-5 -39 -24 -71t-51 -50.5t-77 -18.5z" />
    <glyph glyph-name="uni1E2E" unicode="&#x1e2e;" horiz-adv-x="249" 
d="M63 0l104 745h50l-104 -745h-50zM196 1009l113 150h61l-129 -150h-45zM91 859l11 75h70l-11 -75h-70zM241 859l11 75h70l-11 -75h-70z" />
    <glyph glyph-name="uni1E2F" unicode="&#x1e2f;" horiz-adv-x="185" 
d="M33 0l74 526h45l-74 -526h-45zM132 790l113 150h61l-129 -150h-45zM27 640l11 75h70l-11 -75h-70zM177 640l11 75h70l-11 -75h-70z" />
    <glyph glyph-name="uni1E36" unicode="&#x1e36;" horiz-adv-x="534" 
d="M63 0l104 745h50l-98 -700h340l-6 -45h-390zM200 -165l10 75h70l-10 -75h-70z" />
    <glyph glyph-name="uni1E37" unicode="&#x1e37;" horiz-adv-x="222" 
d="M52 0l106 757h45l-106 -757h-45zM16 -165l10 75h70l-10 -75h-70z" />
    <glyph glyph-name="uni1E3A" unicode="&#x1e3a;" horiz-adv-x="534" 
d="M63 0l104 745h50l-98 -700h340l-6 -45h-390zM113 -140l6 40h250l-6 -40h-250z" />
    <glyph glyph-name="uni1E3B" unicode="&#x1e3b;" horiz-adv-x="222" 
d="M52 0l106 757h45l-106 -757h-45zM-71 -140l6 40h250l-6 -40h-250z" />
    <glyph glyph-name="uni1E42" unicode="&#x1e42;" horiz-adv-x="819" 
d="M63 0l104 745h40l214 -422h-12l338 422h40l-104 -745h-50l93 662l10 -8l-328 -408h-2l-206 408l6 8l-93 -662h-50zM315 -165l10 75h70l-10 -75h-70z" />
    <glyph glyph-name="uni1E43" unicode="&#x1e43;" horiz-adv-x="910" 
d="M51 0l74 526h45l-16 -109l-8 16q26 47 74.5 76t103.5 29q62 0 110 -37t58 -104l-16 3q23 62 78.5 100t119.5 38q52 0 93 -25t62.5 -71t12.5 -109l-46 -333h-45l46 332q8 53 -7.5 89t-46.5 55t-71 19q-48 0 -87 -24t-63.5 -64t-31.5 -89l-44 -318h-45l46 332q8 53 -7.5 89
t-46.5 55t-71 19q-48 0 -87 -24t-63.5 -64t-31.5 -89l-44 -318h-45zM360 -165l10 75h70l-10 -75h-70z" />
    <glyph glyph-name="uni1E44" unicode="&#x1e44;" horiz-adv-x="739" 
d="M63 0l104 745h40l370 -667h-13l93 667h50l-104 -745h-40l-372 671h16l-94 -671h-50zM419 859l10 75h70l-10 -75h-70z" />
    <glyph glyph-name="uni1E45" unicode="&#x1e45;" horiz-adv-x="570" 
d="M51 0l74 526h45l-16 -111l-12 7q23 53 74.5 84.5t112.5 31.5q54 0 96.5 -25t64 -71t12.5 -109l-46 -333h-45l46 332q11 79 -27.5 121t-102.5 42q-51 0 -90.5 -24t-64.5 -64t-32 -89l-44 -318h-45zM303 640l10 75h70l-10 -75h-70z" />
    <glyph glyph-name="uni1E46" unicode="&#x1e46;" horiz-adv-x="739" 
d="M63 0l104 745h40l370 -667h-13l93 667h50l-104 -745h-40l-372 671h16l-94 -671h-50zM275 -165l10 75h70l-10 -75h-70z" />
    <glyph glyph-name="uni1E47" unicode="&#x1e47;" horiz-adv-x="570" 
d="M51 0l74 526h45l-16 -111l-12 7q23 53 74.5 84.5t112.5 31.5q54 0 96.5 -25t64 -71t12.5 -109l-46 -333h-45l46 332q11 79 -27.5 121t-102.5 42q-51 0 -90.5 -24t-64.5 -64t-32 -89l-44 -318h-45zM190 -165l10 75h70l-10 -75h-70z" />
    <glyph glyph-name="uni1E48" unicode="&#x1e48;" horiz-adv-x="739" 
d="M63 0l104 745h40l370 -667h-13l93 667h50l-104 -745h-40l-372 671h16l-94 -671h-50zM188 -140l6 40h250l-6 -40h-250z" />
    <glyph glyph-name="uni1E49" unicode="&#x1e49;" horiz-adv-x="570" 
d="M51 0l74 526h45l-16 -111l-12 7q23 53 74.5 84.5t112.5 31.5q54 0 96.5 -25t64 -71t12.5 -109l-46 -333h-45l46 332q11 79 -27.5 121t-102.5 42q-51 0 -90.5 -24t-64.5 -64t-32 -89l-44 -318h-45zM103 -140l6 40h250l-6 -40h-250z" />
    <glyph glyph-name="uni1E4C" unicode="&#x1e4c;" horiz-adv-x="887" 
d="M434 -12q-72 0 -134 25.5t-108.5 73t-72.5 112.5t-26 144q0 86 30 161t83 132t124.5 89t153.5 32q72 0 134 -25.5t108.5 -73t72.5 -112.5t26 -143q0 -86 -30 -161.5t-83 -132.5t-124 -89t-154 -32zM434 36q74 0 136 29.5t108 80.5t71.5 117t25.5 139q0 84 -35.5 153.5
t-100.5 111.5t-155 42q-74 0 -136.5 -30t-108.5 -81.5t-71 -117t-25 -136.5q0 -84 36 -154t101.5 -112t153.5 -42zM585 859q-25 0 -40 10.5t-24.5 25t-19 25t-25.5 10.5q-19 0 -31.5 -16t-17.5 -51h-40q5 32 18 56t33.5 37t46.5 13q25 0 38.5 -10.5t23 -25t19.5 -25
t27 -10.5q21 0 34.5 16.5t17.5 50.5h40q-6 -46 -32.5 -76t-67.5 -30zM527 1009l113 150h61l-129 -150h-45z" />
    <glyph glyph-name="uni1E4D" unicode="&#x1e4d;" horiz-adv-x="664" 
d="M315 -12q-72 0 -128.5 33t-88.5 91t-32 131q0 61 21.5 114.5t60 94t90.5 63.5t112 23q73 0 128.5 -33t87.5 -90.5t32 -131.5q0 -61 -21.5 -114.5t-60 -94t-90 -63.5t-111.5 -23zM314 31q67 0 120.5 35t84.5 93t31 126q0 60 -25.5 107.5t-70.5 75t-103 27.5
q-67 0 -120.5 -34.5t-85 -92t-31.5 -125.5q0 -60 26 -108t71.5 -76t102.5 -28zM442 640q-25 0 -40 10.5t-24.5 25t-19 25t-25.5 10.5q-19 0 -31.5 -16t-17.5 -51h-40q5 32 18 56t33.5 37t46.5 13q25 0 38.5 -10.5t23 -25t19.5 -25t27 -10.5q21 0 34.5 16.5t17.5 50.5h40
q-6 -46 -32.5 -76t-67.5 -30zM384 790l113 150h61l-129 -150h-45z" />
    <glyph glyph-name="uni1E4E" unicode="&#x1e4e;" horiz-adv-x="887" 
d="M434 -12q-72 0 -134 25.5t-108.5 73t-72.5 112.5t-26 144q0 86 30 161t83 132t124.5 89t153.5 32q72 0 134 -25.5t108.5 -73t72.5 -112.5t26 -143q0 -86 -30 -161.5t-83 -132.5t-124 -89t-154 -32zM434 36q74 0 136 29.5t108 80.5t71.5 117t25.5 139q0 84 -35.5 153.5
t-100.5 111.5t-155 42q-74 0 -136.5 -30t-108.5 -81.5t-71 -117t-25 -136.5q0 -84 36 -154t101.5 -112t153.5 -42zM585 859q-25 0 -40 10.5t-24.5 25t-19 25t-25.5 10.5q-19 0 -31.5 -16t-17.5 -51h-40q5 32 18 56t33.5 37t46.5 13q25 0 38.5 -10.5t23 -25t19.5 -25
t27 -10.5q21 0 34.5 16.5t17.5 50.5h40q-6 -46 -32.5 -76t-67.5 -30zM444 1044l11 75h70l-11 -75h-70zM594 1044l11 75h70l-11 -75h-70z" />
    <glyph glyph-name="uni1E4F" unicode="&#x1e4f;" horiz-adv-x="664" 
d="M315 -12q-72 0 -128.5 33t-88.5 91t-32 131q0 61 21.5 114.5t60 94t90.5 63.5t112 23q73 0 128.5 -33t87.5 -90.5t32 -131.5q0 -61 -21.5 -114.5t-60 -94t-90 -63.5t-111.5 -23zM314 31q67 0 120.5 35t84.5 93t31 126q0 60 -25.5 107.5t-70.5 75t-103 27.5
q-67 0 -120.5 -34.5t-85 -92t-31.5 -125.5q0 -60 26 -108t71.5 -76t102.5 -28zM442 640q-25 0 -40 10.5t-24.5 25t-19 25t-25.5 10.5q-19 0 -31.5 -16t-17.5 -51h-40q5 32 18 56t33.5 37t46.5 13q25 0 38.5 -10.5t23 -25t19.5 -25t27 -10.5q21 0 34.5 16.5t17.5 50.5h40
q-6 -46 -32.5 -76t-67.5 -30zM301 825l11 75h70l-11 -75h-70zM451 825l11 75h70l-11 -75h-70z" />
    <glyph glyph-name="uni1E50" unicode="&#x1e50;" horiz-adv-x="887" 
d="M434 -12q-72 0 -134 25.5t-108.5 73t-72.5 112.5t-26 144q0 86 30 161t83 132t124.5 89t153.5 32q72 0 134 -25.5t108.5 -73t72.5 -112.5t26 -143q0 -86 -30 -161.5t-83 -132.5t-124 -89t-154 -32zM434 36q74 0 136 29.5t108 80.5t71.5 117t25.5 139q0 84 -35.5 153.5
t-100.5 111.5t-155 42q-74 0 -136.5 -30t-108.5 -81.5t-71 -117t-25 -136.5q0 -84 36 -154t101.5 -112t153.5 -42zM406 879l6 40h250l-6 -40h-250zM527 1009l-87 150h61l71 -150h-45z" />
    <glyph glyph-name="uni1E51" unicode="&#x1e51;" horiz-adv-x="664" 
d="M315 -12q-72 0 -128.5 33t-88.5 91t-32 131q0 61 21.5 114.5t60 94t90.5 63.5t112 23q73 0 128.5 -33t87.5 -90.5t32 -131.5q0 -61 -21.5 -114.5t-60 -94t-90 -63.5t-111.5 -23zM314 31q67 0 120.5 35t84.5 93t31 126q0 60 -25.5 107.5t-70.5 75t-103 27.5
q-67 0 -120.5 -34.5t-85 -92t-31.5 -125.5q0 -60 26 -108t71.5 -76t102.5 -28zM263 660l6 40h250l-6 -40h-250zM384 790l-87 150h61l71 -150h-45z" />
    <glyph glyph-name="uni1E52" unicode="&#x1e52;" horiz-adv-x="887" 
d="M434 -12q-72 0 -134 25.5t-108.5 73t-72.5 112.5t-26 144q0 86 30 161t83 132t124.5 89t153.5 32q72 0 134 -25.5t108.5 -73t72.5 -112.5t26 -143q0 -86 -30 -161.5t-83 -132.5t-124 -89t-154 -32zM434 36q74 0 136 29.5t108 80.5t71.5 117t25.5 139q0 84 -35.5 153.5
t-100.5 111.5t-155 42q-74 0 -136.5 -30t-108.5 -81.5t-71 -117t-25 -136.5q0 -84 36 -154t101.5 -112t153.5 -42zM523 1009l113 150h61l-129 -150h-45zM403 879l6 40h250l-6 -40h-250z" />
    <glyph glyph-name="uni1E53" unicode="&#x1e53;" horiz-adv-x="664" 
d="M315 -12q-72 0 -128.5 33t-88.5 91t-32 131q0 61 21.5 114.5t60 94t90.5 63.5t112 23q73 0 128.5 -33t87.5 -90.5t32 -131.5q0 -61 -21.5 -114.5t-60 -94t-90 -63.5t-111.5 -23zM314 31q67 0 120.5 35t84.5 93t31 126q0 60 -25.5 107.5t-70.5 75t-103 27.5
q-67 0 -120.5 -34.5t-85 -92t-31.5 -125.5q0 -60 26 -108t71.5 -76t102.5 -28zM380 790l113 150h61l-129 -150h-45zM260 660l6 40h250l-6 -40h-250z" />
    <glyph glyph-name="uni1E5A" unicode="&#x1e5a;" horiz-adv-x="638" 
d="M63 0l104 745h232q61 0 109.5 -24.5t76.5 -69.5t28 -109q0 -56 -23.5 -104.5t-66 -82.5t-101.5 -47l135 -308h-56l-144 333l50 -33h-252l-42 -300h-50zM161 345h196q62 0 108 27t72 72t26 98q0 72 -46 115t-122 43h-184zM219 -165l10 75h70l-10 -75h-70z" />
    <glyph glyph-name="uni1E5B" unicode="&#x1e5b;" horiz-adv-x="341" 
d="M51 0l74 526h46l-16 -111l-12 5q23 53 72 82.5t108 29.5h33l-6 -45h-34q-72 0 -118 -47t-57 -120l-45 -320h-45zM16 -165l10 75h70l-10 -75h-70z" />
    <glyph glyph-name="uni1E5E" unicode="&#x1e5e;" horiz-adv-x="638" 
d="M63 0l104 745h232q61 0 109.5 -24.5t76.5 -69.5t28 -109q0 -56 -23.5 -104.5t-66 -82.5t-101.5 -47l135 -308h-56l-144 333l50 -33h-252l-42 -300h-50zM161 345h196q62 0 108 27t72 72t26 98q0 72 -46 115t-122 43h-184zM132 -140l6 40h250l-6 -40h-250z" />
    <glyph glyph-name="uni1E5F" unicode="&#x1e5f;" horiz-adv-x="341" 
d="M51 0l74 526h46l-16 -111l-12 5q23 53 72 82.5t108 29.5h33l-6 -45h-34q-72 0 -118 -47t-57 -120l-45 -320h-45zM-71 -140l6 40h250l-6 -40h-250z" />
    <glyph glyph-name="uni1E60" unicode="&#x1e60;" horiz-adv-x="640" 
d="M310 -12q-64 0 -118 23.5t-90.5 65.5t-48.5 97l47 14q21 -74 76.5 -115.5t134.5 -41.5q57 0 100 20.5t67.5 57t24.5 83.5q0 50 -26 84t-78 49l-135 40q-69 21 -104.5 68.5t-35.5 114.5q0 59 31 106.5t84 75t118 27.5q57 0 104 -22t79.5 -61t42.5 -91l-46 -14
q-18 68 -66.5 106.5t-116.5 38.5q-52 0 -93 -21.5t-65 -59t-24 -84.5q0 -53 27.5 -86t91.5 -53l122 -37q68 -21 103 -66.5t35 -111.5q0 -60 -31 -106.5t-85.5 -73.5t-124.5 -27zM369 859l10 75h70l-10 -75h-70z" />
    <glyph glyph-name="uni1E61" unicode="&#x1e61;" horiz-adv-x="506" 
d="M236 -12q-47 0 -88 16.5t-70 46t-43 69.5l42 16q20 -50 61 -77.5t96 -27.5q62 0 101.5 31.5t39.5 80.5q0 33 -20.5 55t-64.5 34l-86 24q-58 17 -86.5 48t-28.5 77q0 45 23 80.5t62.5 56t89.5 20.5q65 0 115 -33.5t65 -86.5l-45 -16q-16 44 -51 68.5t-82 24.5
q-55 0 -92.5 -31.5t-37.5 -78.5q0 -31 19 -51.5t59 -31.5l86 -24q50 -13 86 -44.5t36 -91.5q0 -44 -24.5 -79t-66.5 -55t-95 -20zM271 640l10 75h70l-10 -75h-70z" />
    <glyph glyph-name="uni1E62" unicode="&#x1e62;" horiz-adv-x="640" 
d="M310 -12q-64 0 -118 23.5t-90.5 65.5t-48.5 97l47 14q21 -74 76.5 -115.5t134.5 -41.5q57 0 100 20.5t67.5 57t24.5 83.5q0 50 -26 84t-78 49l-135 40q-69 21 -104.5 68.5t-35.5 114.5q0 59 31 106.5t84 75t118 27.5q57 0 104 -22t79.5 -61t42.5 -91l-46 -14
q-18 68 -66.5 106.5t-116.5 38.5q-52 0 -93 -21.5t-65 -59t-24 -84.5q0 -53 27.5 -86t91.5 -53l122 -37q68 -21 103 -66.5t35 -111.5q0 -60 -31 -106.5t-85.5 -73.5t-124.5 -27zM225 -165l10 75h70l-10 -75h-70z" />
    <glyph glyph-name="uni1E63" unicode="&#x1e63;" horiz-adv-x="506" 
d="M236 -12q-47 0 -88 16.5t-70 46t-43 69.5l42 16q20 -50 61 -77.5t96 -27.5q62 0 101.5 31.5t39.5 80.5q0 33 -20.5 55t-64.5 34l-86 24q-58 17 -86.5 48t-28.5 77q0 45 23 80.5t62.5 56t89.5 20.5q65 0 115 -33.5t65 -86.5l-45 -16q-16 44 -51 68.5t-82 24.5
q-55 0 -92.5 -31.5t-37.5 -78.5q0 -31 19 -51.5t59 -31.5l86 -24q50 -13 86 -44.5t36 -91.5q0 -44 -24.5 -79t-66.5 -55t-95 -20zM158 -165l10 75h70l-10 -75h-70z" />
    <glyph glyph-name="uni1E64" unicode="&#x1e64;" horiz-adv-x="640" 
d="M310 -12q-64 0 -118 23.5t-90.5 65.5t-48.5 97l47 14q21 -74 76.5 -115.5t134.5 -41.5q57 0 100 20.5t67.5 57t24.5 83.5q0 50 -26 84t-78 49l-135 40q-69 21 -104.5 68.5t-35.5 114.5q0 59 31 106.5t84 75t118 27.5q57 0 104 -22t79.5 -61t42.5 -91l-46 -14
q-18 68 -66.5 106.5t-116.5 38.5q-52 0 -93 -21.5t-65 -59t-24 -84.5q0 -53 27.5 -86t91.5 -53l122 -37q68 -21 103 -66.5t35 -111.5q0 -60 -31 -106.5t-85.5 -73.5t-124.5 -27zM381 859l109 120h61l-125 -120h-45zM334 924l11 75h70l-11 -75h-70z" />
    <glyph glyph-name="uni1E65" unicode="&#x1e65;" horiz-adv-x="506" 
d="M236 -12q-47 0 -88 16.5t-70 46t-43 69.5l42 16q20 -50 61 -77.5t96 -27.5q62 0 101.5 31.5t39.5 80.5q0 33 -20.5 55t-64.5 34l-86 24q-58 17 -86.5 48t-28.5 77q0 45 23 80.5t62.5 56t89.5 20.5q65 0 115 -33.5t65 -86.5l-45 -16q-16 44 -51 68.5t-82 24.5
q-55 0 -92.5 -31.5t-37.5 -78.5q0 -31 19 -51.5t59 -31.5l86 -24q50 -13 86 -44.5t36 -91.5q0 -44 -24.5 -79t-66.5 -55t-95 -20zM283 640l109 120h61l-125 -120h-45zM236 705l11 75h70l-11 -75h-70z" />
    <glyph glyph-name="uni1E66" unicode="&#x1e66;" horiz-adv-x="640" 
d="M310 -12q-64 0 -118 23.5t-90.5 65.5t-48.5 97l47 14q21 -74 76.5 -115.5t134.5 -41.5q57 0 100 20.5t67.5 57t24.5 83.5q0 50 -26 84t-78 49l-135 40q-69 21 -104.5 68.5t-35.5 114.5q0 59 31 106.5t84 75t118 27.5q57 0 104 -22t79.5 -61t42.5 -91l-46 -14
q-18 68 -66.5 106.5t-116.5 38.5q-52 0 -93 -21.5t-65 -59t-24 -84.5q0 -53 27.5 -86t91.5 -53l122 -37q68 -21 103 -66.5t35 -111.5q0 -60 -31 -106.5t-85.5 -73.5t-124.5 -27zM382 859l-107 130h51l79 -94l105 94h59l-144 -130h-43zM395 1044l10 75h70l-10 -75h-70z" />
    <glyph glyph-name="uni1E67" unicode="&#x1e67;" horiz-adv-x="506" 
d="M236 -12q-47 0 -88 16.5t-70 46t-43 69.5l42 16q20 -50 61 -77.5t96 -27.5q62 0 101.5 31.5t39.5 80.5q0 33 -20.5 55t-64.5 34l-86 24q-58 17 -86.5 48t-28.5 77q0 45 23 80.5t62.5 56t89.5 20.5q65 0 115 -33.5t65 -86.5l-45 -16q-16 44 -51 68.5t-82 24.5
q-55 0 -92.5 -31.5t-37.5 -78.5q0 -31 19 -51.5t59 -31.5l86 -24q50 -13 86 -44.5t36 -91.5q0 -44 -24.5 -79t-66.5 -55t-95 -20zM284 640l-107 130h51l79 -94l105 94h59l-144 -130h-43zM297 825l10 75h70l-10 -75h-70z" />
    <glyph glyph-name="uni1E68" unicode="&#x1e68;" horiz-adv-x="640" 
d="M310 -12q-64 0 -118 23.5t-90.5 65.5t-48.5 97l47 14q21 -74 76.5 -115.5t134.5 -41.5q57 0 100 20.5t67.5 57t24.5 83.5q0 50 -26 84t-78 49l-135 40q-69 21 -104.5 68.5t-35.5 114.5q0 59 31 106.5t84 75t118 27.5q57 0 104 -22t79.5 -61t42.5 -91l-46 -14
q-18 68 -66.5 106.5t-116.5 38.5q-52 0 -93 -21.5t-65 -59t-24 -84.5q0 -53 27.5 -86t91.5 -53l122 -37q68 -21 103 -66.5t35 -111.5q0 -60 -31 -106.5t-85.5 -73.5t-124.5 -27zM225 -165l10 75h70l-10 -75h-70zM369 859l10 75h70l-10 -75h-70z" />
    <glyph glyph-name="uni1E69" unicode="&#x1e69;" horiz-adv-x="506" 
d="M236 -12q-47 0 -88 16.5t-70 46t-43 69.5l42 16q20 -50 61 -77.5t96 -27.5q62 0 101.5 31.5t39.5 80.5q0 33 -20.5 55t-64.5 34l-86 24q-58 17 -86.5 48t-28.5 77q0 45 23 80.5t62.5 56t89.5 20.5q65 0 115 -33.5t65 -86.5l-45 -16q-16 44 -51 68.5t-82 24.5
q-55 0 -92.5 -31.5t-37.5 -78.5q0 -31 19 -51.5t59 -31.5l86 -24q50 -13 86 -44.5t36 -91.5q0 -44 -24.5 -79t-66.5 -55t-95 -20zM158 -165l10 75h70l-10 -75h-70zM271 640l10 75h70l-10 -75h-70z" />
    <glyph glyph-name="uni1E6C" unicode="&#x1e6c;" horiz-adv-x="515" 
d="M197 0l98 700h-211l6 45h470l-6 -45h-209l-98 -700h-50zM163 -165l10 75h70l-10 -75h-70z" />
    <glyph glyph-name="uni1E6D" unicode="&#x1e6d;" horiz-adv-x="380" 
d="M236 -6q-63 0 -92 34t-20 100l50 358h-100l6 40h48q26 0 40.5 14t18.5 42l10 68h45l-17 -124h114l-6 -40h-113l-51 -362q-2 -18 0 -38.5t17 -34.5t52 -14q10 0 22 1t19 2l-2 -42q-10 -3 -23 -3.5t-18 -0.5zM145 -165l10 75h70l-10 -75h-70z" />
    <glyph glyph-name="uni1E6E" unicode="&#x1e6e;" horiz-adv-x="515" 
d="M197 0l98 700h-211l6 45h470l-6 -45h-209l-98 -700h-50zM76 -140l6 40h250l-6 -40h-250z" />
    <glyph glyph-name="uni1E6F" unicode="&#x1e6f;" horiz-adv-x="380" 
d="M236 -6q-63 0 -92 34t-20 100l50 358h-100l6 40h48q26 0 40.5 14t18.5 42l10 68h45l-17 -124h114l-6 -40h-113l-51 -362q-2 -18 0 -38.5t17 -34.5t52 -14q10 0 22 1t19 2l-2 -42q-10 -3 -23 -3.5t-18 -0.5zM58 -140l6 40h250l-6 -40h-250z" />
    <glyph glyph-name="uni1E78" unicode="&#x1e78;" horiz-adv-x="691" 
d="M310 -12q-75 0 -127.5 33.5t-76 93t-12.5 138.5l69 492h50l-70 -500q-9 -63 10 -110.5t60.5 -74.5t99.5 -27t107 26.5t82 75.5t42 114l69 496h50l-69 -496q-11 -79 -50.5 -137.5t-99.5 -91t-134 -32.5zM487 859q-25 0 -40 10.5t-24.5 25t-19 25t-25.5 10.5
q-19 0 -31.5 -16t-17.5 -51h-40q5 32 18 56t33.5 37t46.5 13q25 0 38.5 -10.5t23 -25t19.5 -25t27 -10.5q21 0 34.5 16.5t17.5 50.5h40q-6 -46 -32.5 -76t-67.5 -30zM429 1009l113 150h61l-129 -150h-45z" />
    <glyph glyph-name="uni1E79" unicode="&#x1e79;" horiz-adv-x="571" 
d="M241 -12q-53 0 -96 24t-65 71t-12 115l47 328h45l-47 -332q-8 -55 8 -91.5t48.5 -54t73.5 -17.5q52 0 91.5 24t64 64.5t31.5 88.5l45 318h45l-74 -526h-45l15 111l12 -7q-23 -52 -73.5 -84t-113.5 -32zM396 640q-25 0 -40 10.5t-24.5 25t-19 25t-25.5 10.5
q-19 0 -31.5 -16t-17.5 -51h-40q5 32 18 56t33.5 37t46.5 13q25 0 38.5 -10.5t23 -25t19.5 -25t27 -10.5q21 0 34.5 16.5t17.5 50.5h40q-6 -46 -32.5 -76t-67.5 -30zM338 790l113 150h61l-129 -150h-45z" />
    <glyph glyph-name="uni1E7A" unicode="&#x1e7a;" horiz-adv-x="691" 
d="M310 -12q-75 0 -127.5 33.5t-76 93t-12.5 138.5l69 492h50l-70 -500q-9 -63 10 -110.5t60.5 -74.5t99.5 -27t107 26.5t82 75.5t42 114l69 496h50l-69 -496q-11 -79 -50.5 -137.5t-99.5 -91t-134 -32.5zM308 879l6 40h250l-6 -40h-250zM346 1044l11 75h70l-11 -75h-70z
M496 1044l11 75h70l-11 -75h-70z" />
    <glyph glyph-name="uni1E7B" unicode="&#x1e7b;" horiz-adv-x="571" 
d="M241 -12q-53 0 -96 24t-65 71t-12 115l47 328h45l-47 -332q-8 -55 8 -91.5t48.5 -54t73.5 -17.5q52 0 91.5 24t64 64.5t31.5 88.5l45 318h45l-74 -526h-45l15 111l12 -7q-23 -52 -73.5 -84t-113.5 -32zM217 660l6 40h250l-6 -40h-250zM255 825l11 75h70l-11 -75h-70z
M405 825l11 75h70l-11 -75h-70z" />
    <glyph glyph-name="Wgrave" unicode="&#x1e80;" horiz-adv-x="988" 
d="M209 0l-119 745h53l108 -701l-28 1l315 700h48l114 -700l-28 -1l307 701h55l-327 -745h-48l-115 706h27l-314 -706h-48zM556 859l-86 150h61l70 -150h-45z" />
    <glyph glyph-name="wgrave" unicode="&#x1e81;" horiz-adv-x="769" 
d="M165 0l-106 526h49l96 -493h-23l215 493h48l76 -493h-26l236 493h54l-255 -526h-48l-73 469h12l-207 -469h-48zM416 640l-86 150h61l70 -150h-45z" />
    <glyph glyph-name="Wacute" unicode="&#x1e82;" horiz-adv-x="988" 
d="M209 0l-119 745h53l108 -701l-28 1l315 700h48l114 -700l-28 -1l307 701h55l-327 -745h-48l-115 706h27l-314 -706h-48zM555 859l114 150h61l-130 -150h-45z" />
    <glyph glyph-name="wacute" unicode="&#x1e83;" horiz-adv-x="769" 
d="M165 0l-106 526h49l96 -493h-23l215 493h48l76 -493h-26l236 493h54l-255 -526h-48l-73 469h12l-207 -469h-48zM415 640l114 150h61l-130 -150h-45z" />
    <glyph glyph-name="Wdieresis" unicode="&#x1e84;" horiz-adv-x="988" 
d="M209 0l-119 745h53l108 -701l-28 1l315 700h48l114 -700l-28 -1l307 701h55l-327 -745h-48l-115 706h27l-314 -706h-48zM468 859l11 75h70l-11 -75h-70zM618 859l11 75h70l-11 -75h-70z" />
    <glyph glyph-name="wdieresis" unicode="&#x1e85;" horiz-adv-x="769" 
d="M165 0l-106 526h49l96 -493h-23l215 493h48l76 -493h-26l236 493h54l-255 -526h-48l-73 469h12l-207 -469h-48zM328 640l11 75h70l-11 -75h-70zM478 640l11 75h70l-11 -75h-70z" />
    <glyph glyph-name="uni1E8E" unicode="&#x1e8e;" horiz-adv-x="624" 
d="M251 0l46 333l-207 412h53l195 -376h-28l297 376h63l-323 -412l-46 -333h-50zM361 859l10 75h70l-10 -75h-70z" />
    <glyph glyph-name="uni1E8F" unicode="&#x1e8f;" horiz-adv-x="531" 
d="M19 -220q-13 0 -29.5 2t-30.5 7l2 40q15 -4 29 -5t24 -1q34 1 59.5 13t46 35t39.5 55l56 96l-2 -46l-146 550h49l131 -496h-28l273 496h54l-337 -609q-15 -27 -40.5 -59t-62.5 -55t-87 -23zM284 640l10 75h70l-10 -75h-70z" />
    <glyph glyph-name="uni1E92" unicode="&#x1e92;" horiz-adv-x="606" 
d="M-4 0l4 30l552 670h-431l6 45h503l-4 -30l-551 -670h467l-6 -45h-540zM208 -165l10 75h70l-10 -75h-70z" />
    <glyph glyph-name="uni1E93" unicode="&#x1e93;" horiz-adv-x="436" 
d="M-3 0l3 30l403 486l13 -30h-332l6 40h358l-4 -30l-405 -486l-12 30h355l-5 -40h-380zM123 -165l10 75h70l-10 -75h-70z" />
    <glyph glyph-name="uni1E97" unicode="&#x1e97;" horiz-adv-x="380" 
d="M236 -6q-63 0 -92 34t-20 100l50 358h-100l6 40h48q26 0 40.5 14t18.5 42l10 68h45l-17 -124h114l-6 -40h-113l-51 -362q-2 -18 0 -38.5t17 -34.5t52 -14q10 0 22 1t19 2l-2 -42q-10 -3 -23 -3.5t-18 -0.5zM126 764l11 75h70l-11 -75h-70zM276 764l11 75h70l-11 -75h-70z
" />
    <glyph glyph-name="uni1E9E" unicode="&#x1e9e;" horiz-adv-x="1280" 
d="M310 -12q-64 0 -118 23.5t-90.5 65.5t-48.5 97l47 14q21 -74 76.5 -115.5t134.5 -41.5q57 0 100 20.5t67.5 57t24.5 83.5q0 50 -26 84t-78 49l-135 40q-69 21 -104.5 68.5t-35.5 114.5q0 59 31 106.5t84 75t118 27.5q57 0 104 -22t79.5 -61t42.5 -91l-46 -14
q-18 68 -66.5 106.5t-116.5 38.5q-52 0 -93 -21.5t-65 -59t-24 -84.5q0 -53 27.5 -86t91.5 -53l122 -37q68 -21 103 -66.5t35 -111.5q0 -60 -31 -106.5t-85.5 -73.5t-124.5 -27zM950 -12q-64 0 -118 23.5t-90.5 65.5t-48.5 97l47 14q21 -74 76.5 -115.5t134.5 -41.5
q57 0 100 20.5t67.5 57t24.5 83.5q0 50 -26 84t-78 49l-135 40q-69 21 -104.5 68.5t-35.5 114.5q0 59 31 106.5t84 75t118 27.5q57 0 104 -22t79.5 -61t42.5 -91l-46 -14q-18 68 -66.5 106.5t-116.5 38.5q-52 0 -93 -21.5t-65 -59t-24 -84.5q0 -53 27.5 -86t91.5 -53
l122 -37q68 -21 103 -66.5t35 -111.5q0 -60 -31 -106.5t-85.5 -73.5t-124.5 -27z" />
    <glyph glyph-name="uni1EA0" unicode="&#x1ea0;" horiz-adv-x="644" 
d="M-15 0l380 745h48l172 -745h-54l-44 197h-344l-100 -197h-58zM165 242h312l-104 461l24 -3zM227 -165l10 75h70l-10 -75h-70z" />
    <glyph glyph-name="uni1EA1" unicode="&#x1ea1;" 
d="M208 -12q-45 0 -81.5 16.5t-57.5 47.5t-21 74q0 46 23.5 81.5t66 59t98.5 32.5l225 37l-4 -43l-208 -34q-70 -11 -112.5 -45.5t-42.5 -87.5q0 -48 33 -72t85 -24q61 0 108.5 30t78.5 80t39 110l15 106q6 43 -10 74t-48.5 48t-77.5 17q-52 0 -98 -25.5t-75 -66.5l-39 23
q18 30 50 55.5t73.5 41t87.5 15.5q56 0 100 -23.5t66.5 -66t14.5 -98.5l-49 -350h-45l16 115h7q-17 -33 -49 -62t-75.5 -47t-93.5 -18zM192 -165l10 75h70l-10 -75h-70z" />
    <glyph glyph-name="uni1EA2" unicode="&#x1ea2;" horiz-adv-x="644" 
d="M-15 0l380 745h48l172 -745h-54l-44 197h-344l-100 -197h-58zM165 242h312l-104 461l24 -3zM414 819l-18 27q23 8 38.5 26.5t15.5 40.5q0 18 -13 29.5t-35 11.5q-14 0 -27.5 -3.5t-26.5 -11.5l-4 32q14 9 33 13.5t35 4.5q37 0 58 -18.5t21 -49.5q0 -22 -11 -42.5
t-28.5 -36t-37.5 -23.5z" />
    <glyph glyph-name="uni1EA3" unicode="&#x1ea3;" 
d="M208 -12q-45 0 -81.5 16.5t-57.5 47.5t-21 74q0 46 23.5 81.5t66 59t98.5 32.5l225 37l-4 -43l-208 -34q-70 -11 -112.5 -45.5t-42.5 -87.5q0 -48 33 -72t85 -24q61 0 108.5 30t78.5 80t39 110l15 106q6 43 -10 74t-48.5 48t-77.5 17q-52 0 -98 -25.5t-75 -66.5l-39 23
q18 30 50 55.5t73.5 41t87.5 15.5q56 0 100 -23.5t66.5 -66t14.5 -98.5l-49 -350h-45l16 115h7q-17 -33 -49 -62t-75.5 -47t-93.5 -18zM348 600l-18 27q23 8 38.5 26.5t15.5 40.5q0 18 -13 29.5t-35 11.5q-14 0 -27.5 -3.5t-26.5 -11.5l-4 32q14 9 33 13.5t35 4.5
q37 0 58 -18.5t21 -49.5q0 -22 -11 -42.5t-28.5 -36t-37.5 -23.5z" />
    <glyph glyph-name="uni1EA4" unicode="&#x1ea4;" horiz-adv-x="644" 
d="M-15 0l380 745h48l172 -745h-54l-44 197h-344l-100 -197h-58zM165 242h312l-104 461l24 -3zM259 859l143 130h43l108 -130h-52l-79 94l-105 -94h-58zM521 924l90 125h61l-106 -125h-45z" />
    <glyph glyph-name="uni1EA5" unicode="&#x1ea5;" 
d="M208 -12q-45 0 -81.5 16.5t-57.5 47.5t-21 74q0 46 23.5 81.5t66 59t98.5 32.5l225 37l-4 -43l-208 -34q-70 -11 -112.5 -45.5t-42.5 -87.5q0 -48 33 -72t85 -24q61 0 108.5 30t78.5 80t39 110l15 106q6 43 -10 74t-48.5 48t-77.5 17q-52 0 -98 -25.5t-75 -66.5l-39 23
q18 30 50 55.5t73.5 41t87.5 15.5q56 0 100 -23.5t66.5 -66t14.5 -98.5l-49 -350h-45l16 115h7q-17 -33 -49 -62t-75.5 -47t-93.5 -18zM193 640l143 130h43l108 -130h-52l-79 94l-105 -94h-58zM455 705l90 125h61l-106 -125h-45z" />
    <glyph glyph-name="uni1EA6" unicode="&#x1ea6;" horiz-adv-x="644" 
d="M-15 0l380 745h48l172 -745h-54l-44 197h-344l-100 -197h-58zM165 242h312l-104 461l24 -3zM259 859l143 130h43l108 -130h-52l-79 94l-105 -94h-58zM569 924l-70 125h61l54 -125h-45z" />
    <glyph glyph-name="uni1EA7" unicode="&#x1ea7;" 
d="M208 -12q-45 0 -81.5 16.5t-57.5 47.5t-21 74q0 46 23.5 81.5t66 59t98.5 32.5l225 37l-4 -43l-208 -34q-70 -11 -112.5 -45.5t-42.5 -87.5q0 -48 33 -72t85 -24q61 0 108.5 30t78.5 80t39 110l15 106q6 43 -10 74t-48.5 48t-77.5 17q-52 0 -98 -25.5t-75 -66.5l-39 23
q18 30 50 55.5t73.5 41t87.5 15.5q56 0 100 -23.5t66.5 -66t14.5 -98.5l-49 -350h-45l16 115h7q-17 -33 -49 -62t-75.5 -47t-93.5 -18zM193 640l143 130h43l108 -130h-52l-79 94l-105 -94h-58zM503 705l-70 125h61l54 -125h-45z" />
    <glyph glyph-name="uni1EA8" unicode="&#x1ea8;" horiz-adv-x="644" 
d="M-15 0l380 745h48l172 -745h-54l-44 197h-344l-100 -197h-58zM165 242h312l-104 461l24 -3zM258 859l143 130h43l108 -130h-52l-79 94l-105 -94h-58zM543 929l-17 27q23 8 38.5 26.5t15.5 40.5q0 18 -13.5 29.5t-35.5 11.5q-13 0 -27 -3.5t-27 -11.5l-4 32q14 8 32.5 13
t35.5 5q37 0 58 -18.5t21 -49.5q0 -23 -11 -43.5t-28.5 -35.5t-37.5 -23z" />
    <glyph glyph-name="uni1EA9" unicode="&#x1ea9;" 
d="M208 -12q-45 0 -81.5 16.5t-57.5 47.5t-21 74q0 46 23.5 81.5t66 59t98.5 32.5l225 37l-4 -43l-208 -34q-70 -11 -112.5 -45.5t-42.5 -87.5q0 -48 33 -72t85 -24q61 0 108.5 30t78.5 80t39 110l15 106q6 43 -10 74t-48.5 48t-77.5 17q-52 0 -98 -25.5t-75 -66.5l-39 23
q18 30 50 55.5t73.5 41t87.5 15.5q56 0 100 -23.5t66.5 -66t14.5 -98.5l-49 -350h-45l16 115h7q-17 -33 -49 -62t-75.5 -47t-93.5 -18zM192 640l143 130h43l108 -130h-52l-79 94l-105 -94h-58zM477 710l-17 27q23 8 38.5 26.5t15.5 40.5q0 18 -13.5 29.5t-35.5 11.5
q-13 0 -27 -3.5t-27 -11.5l-4 32q14 8 32.5 13t35.5 5q37 0 58 -18.5t21 -49.5q0 -23 -11 -43.5t-28.5 -35.5t-37.5 -23z" />
    <glyph glyph-name="uni1EAA" unicode="&#x1eaa;" horiz-adv-x="644" 
d="M-15 0l380 745h48l172 -745h-54l-44 197h-344l-100 -197h-58zM165 242h312l-104 461l24 -3zM259 859l143 130h43l108 -130h-52l-79 94l-105 -94h-58zM478 1049q-21 0 -32 10.5t-18 25t-14.5 25t-20.5 10.5q-15 0 -26 -16t-16 -51h-36q5 32 16.5 56t29 37t38.5 13
q20 0 31 -10.5t18 -25t14.5 -25t21.5 -10.5q17 0 28 16.5t16 50.5h36q-7 -46 -30 -76t-56 -30z" />
    <glyph glyph-name="uni1EAB" unicode="&#x1eab;" 
d="M208 -12q-45 0 -81.5 16.5t-57.5 47.5t-21 74q0 46 23.5 81.5t66 59t98.5 32.5l225 37l-4 -43l-208 -34q-70 -11 -112.5 -45.5t-42.5 -87.5q0 -48 33 -72t85 -24q61 0 108.5 30t78.5 80t39 110l15 106q6 43 -10 74t-48.5 48t-77.5 17q-52 0 -98 -25.5t-75 -66.5l-39 23
q18 30 50 55.5t73.5 41t87.5 15.5q56 0 100 -23.5t66.5 -66t14.5 -98.5l-49 -350h-45l16 115h7q-17 -33 -49 -62t-75.5 -47t-93.5 -18zM193 640l143 130h43l108 -130h-52l-79 94l-105 -94h-58zM412 830q-21 0 -32 10.5t-18 25t-14.5 25t-20.5 10.5q-15 0 -26 -16t-16 -51
h-36q5 32 16.5 56t29 37t38.5 13q20 0 31 -10.5t18 -25t14.5 -25t21.5 -10.5q17 0 28 16.5t16 50.5h36q-7 -46 -30 -76t-56 -30z" />
    <glyph glyph-name="uni1EAC" unicode="&#x1eac;" horiz-adv-x="644" 
d="M-15 0l380 745h48l172 -745h-54l-44 197h-344l-100 -197h-58zM165 242h312l-104 461l24 -3zM227 -165l10 75h70l-10 -75h-70zM259 859l147 150h43l104 -150h-48l-79 112l-111 -112h-56z" />
    <glyph glyph-name="uni1EAD" unicode="&#x1ead;" 
d="M208 -12q-45 0 -81.5 16.5t-57.5 47.5t-21 74q0 46 23.5 81.5t66 59t98.5 32.5l225 37l-4 -43l-208 -34q-70 -11 -112.5 -45.5t-42.5 -87.5q0 -48 33 -72t85 -24q61 0 108.5 30t78.5 80t39 110l15 106q6 43 -10 74t-48.5 48t-77.5 17q-52 0 -98 -25.5t-75 -66.5l-39 23
q18 30 50 55.5t73.5 41t87.5 15.5q56 0 100 -23.5t66.5 -66t14.5 -98.5l-49 -350h-45l16 115h7q-17 -33 -49 -62t-75.5 -47t-93.5 -18zM192 -165l10 75h70l-10 -75h-70zM193 640l147 150h43l104 -150h-48l-79 112l-111 -112h-56z" />
    <glyph glyph-name="uni1EAE" unicode="&#x1eae;" horiz-adv-x="644" 
d="M-15 0l380 745h48l172 -745h-54l-44 197h-344l-100 -197h-58zM165 242h312l-104 461l24 -3zM411 859q-42 0 -72 15.5t-44 42.5t-9 62h46q-5 -35 16 -57.5t64 -22.5q45 0 71 22.5t31 57.5h46q-5 -35 -24 -62t-50.5 -42.5t-74.5 -15.5zM404 1009l113 150h61l-129 -150h-45z
" />
    <glyph glyph-name="uni1EAF" unicode="&#x1eaf;" 
d="M208 -12q-45 0 -81.5 16.5t-57.5 47.5t-21 74q0 46 23.5 81.5t66 59t98.5 32.5l225 37l-4 -43l-208 -34q-70 -11 -112.5 -45.5t-42.5 -87.5q0 -48 33 -72t85 -24q61 0 108.5 30t78.5 80t39 110l15 106q6 43 -10 74t-48.5 48t-77.5 17q-52 0 -98 -25.5t-75 -66.5l-39 23
q18 30 50 55.5t73.5 41t87.5 15.5q56 0 100 -23.5t66.5 -66t14.5 -98.5l-49 -350h-45l16 115h7q-17 -33 -49 -62t-75.5 -47t-93.5 -18zM345 640q-42 0 -72 15.5t-44 42.5t-9 62h46q-5 -35 16 -57.5t64 -22.5q45 0 71 22.5t31 57.5h46q-5 -35 -24 -62t-50.5 -42.5
t-74.5 -15.5zM338 790l113 150h61l-129 -150h-45z" />
    <glyph glyph-name="uni1EB0" unicode="&#x1eb0;" horiz-adv-x="644" 
d="M-15 0l380 745h48l172 -745h-54l-44 197h-344l-100 -197h-58zM165 242h312l-104 461l24 -3zM411 859q-42 0 -72 15.5t-44 42.5t-9 62h46q-5 -35 16 -57.5t64 -22.5q45 0 71 22.5t31 57.5h46q-5 -35 -24 -62t-50.5 -42.5t-74.5 -15.5zM405 1009l-87 150h61l71 -150h-45z
" />
    <glyph glyph-name="uni1EB1" unicode="&#x1eb1;" 
d="M208 -12q-45 0 -81.5 16.5t-57.5 47.5t-21 74q0 46 23.5 81.5t66 59t98.5 32.5l225 37l-4 -43l-208 -34q-70 -11 -112.5 -45.5t-42.5 -87.5q0 -48 33 -72t85 -24q61 0 108.5 30t78.5 80t39 110l15 106q6 43 -10 74t-48.5 48t-77.5 17q-52 0 -98 -25.5t-75 -66.5l-39 23
q18 30 50 55.5t73.5 41t87.5 15.5q56 0 100 -23.5t66.5 -66t14.5 -98.5l-49 -350h-45l16 115h7q-17 -33 -49 -62t-75.5 -47t-93.5 -18zM345 640q-42 0 -72 15.5t-44 42.5t-9 62h46q-5 -35 16 -57.5t64 -22.5q45 0 71 22.5t31 57.5h46q-5 -35 -24 -62t-50.5 -42.5
t-74.5 -15.5zM339 790l-87 150h61l71 -150h-45z" />
    <glyph glyph-name="uni1EB2" unicode="&#x1eb2;" horiz-adv-x="644" 
d="M-15 0l380 745h48l172 -745h-54l-44 197h-344l-100 -197h-58zM165 242h312l-104 461l24 -3zM411 859q-42 0 -72 15.5t-44 42.5t-9 62h46q-5 -35 16 -57.5t64 -22.5q45 0 71 22.5t31 57.5h46q-5 -35 -24 -62t-50.5 -42.5t-74.5 -15.5zM438 999l-17 27q23 8 38.5 26.5
t15.5 40.5q0 18 -13.5 29.5t-35.5 11.5q-13 0 -27 -3.5t-27 -11.5l-4 32q14 8 32 13t36 5q37 0 58 -18.5t21 -49.5q0 -23 -11 -43.5t-28.5 -35.5t-37.5 -23z" />
    <glyph glyph-name="uni1EB3" unicode="&#x1eb3;" 
d="M208 -12q-45 0 -81.5 16.5t-57.5 47.5t-21 74q0 46 23.5 81.5t66 59t98.5 32.5l225 37l-4 -43l-208 -34q-70 -11 -112.5 -45.5t-42.5 -87.5q0 -48 33 -72t85 -24q61 0 108.5 30t78.5 80t39 110l15 106q6 43 -10 74t-48.5 48t-77.5 17q-52 0 -98 -25.5t-75 -66.5l-39 23
q18 30 50 55.5t73.5 41t87.5 15.5q56 0 100 -23.5t66.5 -66t14.5 -98.5l-49 -350h-45l16 115h7q-17 -33 -49 -62t-75.5 -47t-93.5 -18zM345 640q-42 0 -72 15.5t-44 42.5t-9 62h46q-5 -35 16 -57.5t64 -22.5q45 0 71 22.5t31 57.5h46q-5 -35 -24 -62t-50.5 -42.5
t-74.5 -15.5zM372 780l-17 27q23 8 38.5 26.5t15.5 40.5q0 18 -13.5 29.5t-35.5 11.5q-13 0 -27 -3.5t-27 -11.5l-4 32q14 8 32 13t36 5q37 0 58 -18.5t21 -49.5q0 -23 -11 -43.5t-28.5 -35.5t-37.5 -23z" />
    <glyph glyph-name="uni1EB4" unicode="&#x1eb4;" horiz-adv-x="644" 
d="M-15 0l380 745h48l172 -745h-54l-44 197h-344l-100 -197h-58zM165 242h312l-104 461l24 -3zM479 1049q-21 0 -32 10.5t-18 25t-14.5 25t-20.5 10.5q-15 0 -26 -16t-16 -51h-36q5 32 16.5 56t29 37t38.5 13q20 0 31 -10.5t18 -25t14.5 -25t21.5 -10.5q16 0 27.5 16
t16.5 51h36q-4 -30 -16 -54t-29.5 -38t-40.5 -14zM411 859q-42 0 -72 15.5t-44 42.5t-9 62h46q-5 -35 16 -57.5t64 -22.5q45 0 71 22.5t31 57.5h46q-5 -35 -24 -62t-50.5 -42.5t-74.5 -15.5z" />
    <glyph glyph-name="uni1EB5" unicode="&#x1eb5;" 
d="M208 -12q-45 0 -81.5 16.5t-57.5 47.5t-21 74q0 46 23.5 81.5t66 59t98.5 32.5l225 37l-4 -43l-208 -34q-70 -11 -112.5 -45.5t-42.5 -87.5q0 -48 33 -72t85 -24q61 0 108.5 30t78.5 80t39 110l15 106q6 43 -10 74t-48.5 48t-77.5 17q-52 0 -98 -25.5t-75 -66.5l-39 23
q18 30 50 55.5t73.5 41t87.5 15.5q56 0 100 -23.5t66.5 -66t14.5 -98.5l-49 -350h-45l16 115h7q-17 -33 -49 -62t-75.5 -47t-93.5 -18zM413 830q-21 0 -32 10.5t-18 25t-14.5 25t-20.5 10.5q-15 0 -26 -16t-16 -51h-36q5 32 16.5 56t29 37t38.5 13q20 0 31 -10.5t18 -25
t14.5 -25t21.5 -10.5q16 0 27.5 16t16.5 51h36q-4 -30 -16 -54t-29.5 -38t-40.5 -14zM345 640q-42 0 -72 15.5t-44 42.5t-9 62h46q-5 -35 16 -57.5t64 -22.5q45 0 71 22.5t31 57.5h46q-5 -35 -24 -62t-50.5 -42.5t-74.5 -15.5z" />
    <glyph glyph-name="uni1EB6" unicode="&#x1eb6;" horiz-adv-x="644" 
d="M-15 0l380 745h48l172 -745h-54l-44 197h-344l-100 -197h-58zM165 242h312l-104 461l24 -3zM227 -165l10 75h70l-10 -75h-70zM411 859q-43 0 -72.5 18t-42.5 49.5t-7 72.5h46q-6 -44 13.5 -72t63.5 -28t71.5 28t33.5 72h46q-6 -41 -25.5 -72.5t-51.5 -49.5t-75 -18z" />
    <glyph glyph-name="uni1EB7" unicode="&#x1eb7;" 
d="M208 -12q-45 0 -81.5 16.5t-57.5 47.5t-21 74q0 46 23.5 81.5t66 59t98.5 32.5l225 37l-4 -43l-208 -34q-70 -11 -112.5 -45.5t-42.5 -87.5q0 -48 33 -72t85 -24q61 0 108.5 30t78.5 80t39 110l15 106q6 43 -10 74t-48.5 48t-77.5 17q-52 0 -98 -25.5t-75 -66.5l-39 23
q18 30 50 55.5t73.5 41t87.5 15.5q56 0 100 -23.5t66.5 -66t14.5 -98.5l-49 -350h-45l16 115h7q-17 -33 -49 -62t-75.5 -47t-93.5 -18zM192 -165l10 75h70l-10 -75h-70zM345 640q-43 0 -72.5 18t-42.5 49.5t-7 72.5h46q-6 -44 13.5 -72t63.5 -28t71.5 28t33.5 72h46
q-6 -41 -25.5 -72.5t-51.5 -49.5t-75 -18z" />
    <glyph glyph-name="uni1EB8" unicode="&#x1eb8;" horiz-adv-x="615" 
d="M63 0l104 745h460l-6 -45h-410l-43 -304h390l-6 -45h-390l-43 -306h410l-6 -45h-460zM235 -165l10 75h70l-10 -75h-70z" />
    <glyph glyph-name="uni1EB9" unicode="&#x1eb9;" horiz-adv-x="628" 
d="M316 -12q-72 0 -128.5 34t-88.5 92t-32 131q0 59 21 112t58 93.5t87 64t108 23.5q66 0 116.5 -30.5t79.5 -82.5t29 -119q0 -14 -2 -29t-5 -28h-469l3 40h443l-18 -12q8 63 -13 112.5t-63.5 78t-99.5 28.5q-65 0 -117 -35.5t-82.5 -93.5t-30.5 -125q0 -61 26 -109
t71.5 -75.5t105.5 -27.5q58 0 106.5 27.5t79.5 76.5l37 -22q-22 -38 -56.5 -66t-76.5 -43t-89 -15zM219 -165l10 75h70l-10 -75h-70z" />
    <glyph glyph-name="uni1EBA" unicode="&#x1eba;" horiz-adv-x="615" 
d="M63 0l104 745h460l-6 -45h-410l-43 -304h390l-6 -45h-390l-43 -306h410l-6 -45h-460zM422 819l-18 27q23 8 38.5 26.5t15.5 40.5q0 18 -13 29.5t-35 11.5q-14 0 -27.5 -3.5t-26.5 -11.5l-4 32q14 9 33 13.5t35 4.5q37 0 58 -18.5t21 -49.5q0 -22 -11 -42.5t-28.5 -36
t-37.5 -23.5z" />
    <glyph glyph-name="uni1EBB" unicode="&#x1ebb;" horiz-adv-x="628" 
d="M316 -12q-72 0 -128.5 34t-88.5 92t-32 131q0 59 21 112t58 93.5t87 64t108 23.5q66 0 116.5 -30.5t79.5 -82.5t29 -119q0 -14 -2 -29t-5 -28h-469l3 40h443l-18 -12q8 63 -13 112.5t-63.5 78t-99.5 28.5q-65 0 -117 -35.5t-82.5 -93.5t-30.5 -125q0 -61 26 -109
t71.5 -75.5t105.5 -27.5q58 0 106.5 27.5t79.5 76.5l37 -22q-22 -38 -56.5 -66t-76.5 -43t-89 -15zM375 600l-18 27q23 8 38.5 26.5t15.5 40.5q0 18 -13 29.5t-35 11.5q-14 0 -27.5 -3.5t-26.5 -11.5l-4 32q14 9 33 13.5t35 4.5q37 0 58 -18.5t21 -49.5q0 -22 -11 -42.5
t-28.5 -36t-37.5 -23.5z" />
    <glyph glyph-name="uni1EBC" unicode="&#x1ebc;" horiz-adv-x="615" 
d="M63 0l104 745h460l-6 -45h-410l-43 -304h390l-6 -45h-390l-43 -306h410l-6 -45h-460zM471 859q-25 0 -40 10.5t-24.5 25t-19 25t-25.5 10.5q-19 0 -31.5 -16t-17.5 -51h-40q5 32 18 56t33.5 37t46.5 13q25 0 38.5 -10.5t23 -25t19.5 -25t27 -10.5q21 0 34.5 16.5
t17.5 50.5h40q-6 -46 -32.5 -76t-67.5 -30z" />
    <glyph glyph-name="uni1EBD" unicode="&#x1ebd;" horiz-adv-x="628" 
d="M316 -12q-72 0 -128.5 34t-88.5 92t-32 131q0 59 21 112t58 93.5t87 64t108 23.5q66 0 116.5 -30.5t79.5 -82.5t29 -119q0 -14 -2 -29t-5 -28h-469l3 40h443l-18 -12q8 63 -13 112.5t-63.5 78t-99.5 28.5q-65 0 -117 -35.5t-82.5 -93.5t-30.5 -125q0 -61 26 -109
t71.5 -75.5t105.5 -27.5q58 0 106.5 27.5t79.5 76.5l37 -22q-22 -38 -56.5 -66t-76.5 -43t-89 -15zM424 640q-25 0 -40 10.5t-24.5 25t-19 25t-25.5 10.5q-19 0 -31.5 -16t-17.5 -51h-40q5 32 18 56t33.5 37t46.5 13q25 0 38.5 -10.5t23 -25t19.5 -25t27 -10.5
q21 0 34.5 16.5t17.5 50.5h40q-6 -46 -32.5 -76t-67.5 -30z" />
    <glyph glyph-name="uni1EBE" unicode="&#x1ebe;" horiz-adv-x="615" 
d="M63 0l104 745h460l-6 -45h-410l-43 -304h390l-6 -45h-390l-43 -306h410l-6 -45h-460zM267 859l143 130h43l108 -130h-52l-79 94l-105 -94h-58zM529 924l90 125h61l-106 -125h-45z" />
    <glyph glyph-name="uni1EBF" unicode="&#x1ebf;" horiz-adv-x="628" 
d="M316 -12q-72 0 -128.5 34t-88.5 92t-32 131q0 59 21 112t58 93.5t87 64t108 23.5q66 0 116.5 -30.5t79.5 -82.5t29 -119q0 -14 -2 -29t-5 -28h-469l3 40h443l-18 -12q8 63 -13 112.5t-63.5 78t-99.5 28.5q-65 0 -117 -35.5t-82.5 -93.5t-30.5 -125q0 -61 26 -109
t71.5 -75.5t105.5 -27.5q58 0 106.5 27.5t79.5 76.5l37 -22q-22 -38 -56.5 -66t-76.5 -43t-89 -15zM220 640l143 130h43l108 -130h-52l-79 94l-105 -94h-58zM482 705l90 125h61l-106 -125h-45z" />
    <glyph glyph-name="uni1EC0" unicode="&#x1ec0;" horiz-adv-x="615" 
d="M63 0l104 745h460l-6 -45h-410l-43 -304h390l-6 -45h-390l-43 -306h410l-6 -45h-460zM267 859l143 130h43l108 -130h-52l-79 94l-105 -94h-58zM577 924l-70 125h61l54 -125h-45z" />
    <glyph glyph-name="uni1EC1" unicode="&#x1ec1;" horiz-adv-x="628" 
d="M316 -12q-72 0 -128.5 34t-88.5 92t-32 131q0 59 21 112t58 93.5t87 64t108 23.5q66 0 116.5 -30.5t79.5 -82.5t29 -119q0 -14 -2 -29t-5 -28h-469l3 40h443l-18 -12q8 63 -13 112.5t-63.5 78t-99.5 28.5q-65 0 -117 -35.5t-82.5 -93.5t-30.5 -125q0 -61 26 -109
t71.5 -75.5t105.5 -27.5q58 0 106.5 27.5t79.5 76.5l37 -22q-22 -38 -56.5 -66t-76.5 -43t-89 -15zM220 640l143 130h43l108 -130h-52l-79 94l-105 -94h-58zM530 705l-70 125h61l54 -125h-45z" />
    <glyph glyph-name="uni1EC2" unicode="&#x1ec2;" horiz-adv-x="615" 
d="M63 0l104 745h460l-6 -45h-410l-43 -304h390l-6 -45h-390l-43 -306h410l-6 -45h-460zM266 859l143 130h43l108 -130h-52l-79 94l-105 -94h-58zM551 929l-17 27q23 8 38.5 26.5t15.5 40.5q0 18 -13.5 29.5t-35.5 11.5q-13 0 -27 -3.5t-27 -11.5l-4 32q14 8 32.5 13t35.5 5
q37 0 58 -18.5t21 -49.5q0 -23 -11 -43.5t-28.5 -35.5t-37.5 -23z" />
    <glyph glyph-name="uni1EC3" unicode="&#x1ec3;" horiz-adv-x="628" 
d="M316 -12q-72 0 -128.5 34t-88.5 92t-32 131q0 59 21 112t58 93.5t87 64t108 23.5q66 0 116.5 -30.5t79.5 -82.5t29 -119q0 -14 -2 -29t-5 -28h-469l3 40h443l-18 -12q8 63 -13 112.5t-63.5 78t-99.5 28.5q-65 0 -117 -35.5t-82.5 -93.5t-30.5 -125q0 -61 26 -109
t71.5 -75.5t105.5 -27.5q58 0 106.5 27.5t79.5 76.5l37 -22q-22 -38 -56.5 -66t-76.5 -43t-89 -15zM219 640l143 130h43l108 -130h-52l-79 94l-105 -94h-58zM504 710l-17 27q23 8 38.5 26.5t15.5 40.5q0 18 -13.5 29.5t-35.5 11.5q-13 0 -27 -3.5t-27 -11.5l-4 32
q14 8 32.5 13t35.5 5q37 0 58 -18.5t21 -49.5q0 -23 -11 -43.5t-28.5 -35.5t-37.5 -23z" />
    <glyph glyph-name="uni1EC4" unicode="&#x1ec4;" horiz-adv-x="615" 
d="M63 0l104 745h460l-6 -45h-410l-43 -304h390l-6 -45h-390l-43 -306h410l-6 -45h-460zM267 859l143 130h43l108 -130h-52l-79 94l-105 -94h-58zM486 1049q-21 0 -32 10.5t-18 25t-14.5 25t-20.5 10.5q-15 0 -26 -16t-16 -51h-36q5 32 16.5 56t29 37t38.5 13q20 0 31 -10.5
t18 -25t14.5 -25t21.5 -10.5q17 0 28 16.5t16 50.5h36q-7 -46 -30 -76t-56 -30z" />
    <glyph glyph-name="uni1EC5" unicode="&#x1ec5;" horiz-adv-x="628" 
d="M316 -12q-72 0 -128.5 34t-88.5 92t-32 131q0 59 21 112t58 93.5t87 64t108 23.5q66 0 116.5 -30.5t79.5 -82.5t29 -119q0 -14 -2 -29t-5 -28h-469l3 40h443l-18 -12q8 63 -13 112.5t-63.5 78t-99.5 28.5q-65 0 -117 -35.5t-82.5 -93.5t-30.5 -125q0 -61 26 -109
t71.5 -75.5t105.5 -27.5q58 0 106.5 27.5t79.5 76.5l37 -22q-22 -38 -56.5 -66t-76.5 -43t-89 -15zM220 640l143 130h43l108 -130h-52l-79 94l-105 -94h-58zM439 830q-21 0 -32 10.5t-18 25t-14.5 25t-20.5 10.5q-15 0 -26 -16t-16 -51h-36q5 32 16.5 56t29 37t38.5 13
q20 0 31 -10.5t18 -25t14.5 -25t21.5 -10.5q17 0 28 16.5t16 50.5h36q-7 -46 -30 -76t-56 -30z" />
    <glyph glyph-name="uni1EC6" unicode="&#x1ec6;" horiz-adv-x="615" 
d="M63 0l104 745h460l-6 -45h-410l-43 -304h390l-6 -45h-390l-43 -306h410l-6 -45h-460zM235 -165l10 75h70l-10 -75h-70zM267 859l147 150h43l104 -150h-48l-79 112l-111 -112h-56z" />
    <glyph glyph-name="uni1EC7" unicode="&#x1ec7;" horiz-adv-x="628" 
d="M316 -12q-72 0 -128.5 34t-88.5 92t-32 131q0 59 21 112t58 93.5t87 64t108 23.5q66 0 116.5 -30.5t79.5 -82.5t29 -119q0 -14 -2 -29t-5 -28h-469l3 40h443l-18 -12q8 63 -13 112.5t-63.5 78t-99.5 28.5q-65 0 -117 -35.5t-82.5 -93.5t-30.5 -125q0 -61 26 -109
t71.5 -75.5t105.5 -27.5q58 0 106.5 27.5t79.5 76.5l37 -22q-22 -38 -56.5 -66t-76.5 -43t-89 -15zM219 -165l10 75h70l-10 -75h-70zM220 640l147 150h43l104 -150h-48l-79 112l-111 -112h-56z" />
    <glyph glyph-name="uni1EC8" unicode="&#x1ec8;" horiz-adv-x="249" 
d="M63 0l104 745h50l-104 -745h-50zM217 819l-18 27q23 8 38.5 26.5t15.5 40.5q0 18 -13 29.5t-35 11.5q-14 0 -27.5 -3.5t-26.5 -11.5l-4 32q14 9 33 13.5t35 4.5q37 0 58 -18.5t21 -49.5q0 -22 -11 -42.5t-28.5 -36t-37.5 -23.5z" />
    <glyph glyph-name="uni1EC9" unicode="&#x1ec9;" horiz-adv-x="185" 
d="M33 0l74 526h45l-74 -526h-45zM153 600l-18 27q23 8 38.5 26.5t15.5 40.5q0 18 -13 29.5t-35 11.5q-14 0 -27.5 -3.5t-26.5 -11.5l-4 32q14 9 33 13.5t35 4.5q37 0 58 -18.5t21 -49.5q0 -22 -11 -42.5t-28.5 -36t-37.5 -23.5z" />
    <glyph glyph-name="uni1ECA" unicode="&#x1eca;" horiz-adv-x="249" 
d="M63 0l104 745h50l-104 -745h-50zM30 -165l10 75h70l-10 -75h-70z" />
    <glyph glyph-name="uni1ECB" unicode="&#x1ecb;" horiz-adv-x="222" 
d="M52 0l74 526h45l-74 -526h-45zM141 635l15 110h45l-15 -110h-45zM16 -165l10 75h70l-10 -75h-70z" />
    <glyph glyph-name="uni1ECC" unicode="&#x1ecc;" horiz-adv-x="887" 
d="M434 -12q-72 0 -134 25.5t-108.5 73t-72.5 112.5t-26 144q0 86 30 161t83 132t124.5 89t153.5 32q72 0 134 -25.5t108.5 -73t72.5 -112.5t26 -143q0 -86 -30 -161.5t-83 -132.5t-124 -89t-154 -32zM434 36q74 0 136 29.5t108 80.5t71.5 117t25.5 139q0 84 -35.5 153.5
t-100.5 111.5t-155 42q-74 0 -136.5 -30t-108.5 -81.5t-71 -117t-25 -136.5q0 -84 36 -154t101.5 -112t153.5 -42zM349 -165l10 75h70l-10 -75h-70z" />
    <glyph glyph-name="uni1ECD" unicode="&#x1ecd;" horiz-adv-x="664" 
d="M315 -12q-72 0 -128.5 33t-88.5 91t-32 131q0 61 21.5 114.5t60 94t90.5 63.5t112 23q73 0 128.5 -33t87.5 -90.5t32 -131.5q0 -61 -21.5 -114.5t-60 -94t-90 -63.5t-111.5 -23zM314 31q67 0 120.5 35t84.5 93t31 126q0 60 -25.5 107.5t-70.5 75t-103 27.5
q-67 0 -120.5 -34.5t-85 -92t-31.5 -125.5q0 -60 26 -108t71.5 -76t102.5 -28zM237 -165l10 75h70l-10 -75h-70z" />
    <glyph glyph-name="uni1ECE" unicode="&#x1ece;" horiz-adv-x="887" 
d="M434 -12q-72 0 -134 25.5t-108.5 73t-72.5 112.5t-26 144q0 86 30 161t83 132t124.5 89t153.5 32q72 0 134 -25.5t108.5 -73t72.5 -112.5t26 -143q0 -86 -30 -161.5t-83 -132.5t-124 -89t-154 -32zM434 36q74 0 136 29.5t108 80.5t71.5 117t25.5 139q0 84 -35.5 153.5
t-100.5 111.5t-155 42q-74 0 -136.5 -30t-108.5 -81.5t-71 -117t-25 -136.5q0 -84 36 -154t101.5 -112t153.5 -42zM536 819l-18 27q23 8 38.5 26.5t15.5 40.5q0 18 -13 29.5t-35 11.5q-14 0 -27.5 -3.5t-26.5 -11.5l-4 32q14 9 33 13.5t35 4.5q37 0 58 -18.5t21 -49.5
q0 -22 -11 -42.5t-28.5 -36t-37.5 -23.5z" />
    <glyph glyph-name="uni1ECF" unicode="&#x1ecf;" horiz-adv-x="664" 
d="M315 -12q-72 0 -128.5 33t-88.5 91t-32 131q0 61 21.5 114.5t60 94t90.5 63.5t112 23q73 0 128.5 -33t87.5 -90.5t32 -131.5q0 -61 -21.5 -114.5t-60 -94t-90 -63.5t-111.5 -23zM314 31q67 0 120.5 35t84.5 93t31 126q0 60 -25.5 107.5t-70.5 75t-103 27.5
q-67 0 -120.5 -34.5t-85 -92t-31.5 -125.5q0 -60 26 -108t71.5 -76t102.5 -28zM393 600l-18 27q23 8 38.5 26.5t15.5 40.5q0 18 -13 29.5t-35 11.5q-14 0 -27.5 -3.5t-26.5 -11.5l-4 32q14 9 33 13.5t35 4.5q37 0 58 -18.5t21 -49.5q0 -22 -11 -42.5t-28.5 -36t-37.5 -23.5z
" />
    <glyph glyph-name="uni1ED0" unicode="&#x1ed0;" horiz-adv-x="887" 
d="M434 -12q-72 0 -134 25.5t-108.5 73t-72.5 112.5t-26 144q0 86 30 161t83 132t124.5 89t153.5 32q72 0 134 -25.5t108.5 -73t72.5 -112.5t26 -143q0 -86 -30 -161.5t-83 -132.5t-124 -89t-154 -32zM434 36q74 0 136 29.5t108 80.5t71.5 117t25.5 139q0 84 -35.5 153.5
t-100.5 111.5t-155 42q-74 0 -136.5 -30t-108.5 -81.5t-71 -117t-25 -136.5q0 -84 36 -154t101.5 -112t153.5 -42zM381 859l143 130h43l108 -130h-52l-79 94l-105 -94h-58zM643 924l90 125h61l-106 -125h-45z" />
    <glyph glyph-name="uni1ED1" unicode="&#x1ed1;" horiz-adv-x="664" 
d="M315 -12q-72 0 -128.5 33t-88.5 91t-32 131q0 61 21.5 114.5t60 94t90.5 63.5t112 23q73 0 128.5 -33t87.5 -90.5t32 -131.5q0 -61 -21.5 -114.5t-60 -94t-90 -63.5t-111.5 -23zM314 31q67 0 120.5 35t84.5 93t31 126q0 60 -25.5 107.5t-70.5 75t-103 27.5
q-67 0 -120.5 -34.5t-85 -92t-31.5 -125.5q0 -60 26 -108t71.5 -76t102.5 -28zM238 640l143 130h43l108 -130h-52l-79 94l-105 -94h-58zM500 705l90 125h61l-106 -125h-45z" />
    <glyph glyph-name="uni1ED2" unicode="&#x1ed2;" horiz-adv-x="887" 
d="M434 -12q-72 0 -134 25.5t-108.5 73t-72.5 112.5t-26 144q0 86 30 161t83 132t124.5 89t153.5 32q72 0 134 -25.5t108.5 -73t72.5 -112.5t26 -143q0 -86 -30 -161.5t-83 -132.5t-124 -89t-154 -32zM434 36q74 0 136 29.5t108 80.5t71.5 117t25.5 139q0 84 -35.5 153.5
t-100.5 111.5t-155 42q-74 0 -136.5 -30t-108.5 -81.5t-71 -117t-25 -136.5q0 -84 36 -154t101.5 -112t153.5 -42zM381 859l143 130h43l108 -130h-52l-79 94l-105 -94h-58zM691 924l-70 125h61l54 -125h-45z" />
    <glyph glyph-name="uni1ED3" unicode="&#x1ed3;" horiz-adv-x="664" 
d="M315 -12q-72 0 -128.5 33t-88.5 91t-32 131q0 61 21.5 114.5t60 94t90.5 63.5t112 23q73 0 128.5 -33t87.5 -90.5t32 -131.5q0 -61 -21.5 -114.5t-60 -94t-90 -63.5t-111.5 -23zM314 31q67 0 120.5 35t84.5 93t31 126q0 60 -25.5 107.5t-70.5 75t-103 27.5
q-67 0 -120.5 -34.5t-85 -92t-31.5 -125.5q0 -60 26 -108t71.5 -76t102.5 -28zM238 640l143 130h43l108 -130h-52l-79 94l-105 -94h-58zM548 705l-70 125h61l54 -125h-45z" />
    <glyph glyph-name="uni1ED4" unicode="&#x1ed4;" horiz-adv-x="887" 
d="M434 -12q-72 0 -134 25.5t-108.5 73t-72.5 112.5t-26 144q0 86 30 161t83 132t124.5 89t153.5 32q72 0 134 -25.5t108.5 -73t72.5 -112.5t26 -143q0 -86 -30 -161.5t-83 -132.5t-124 -89t-154 -32zM434 36q74 0 136 29.5t108 80.5t71.5 117t25.5 139q0 84 -35.5 153.5
t-100.5 111.5t-155 42q-74 0 -136.5 -30t-108.5 -81.5t-71 -117t-25 -136.5q0 -84 36 -154t101.5 -112t153.5 -42zM380 859l143 130h43l108 -130h-52l-79 94l-105 -94h-58zM665 929l-17 27q23 8 38.5 26.5t15.5 40.5q0 18 -13.5 29.5t-35.5 11.5q-13 0 -27 -3.5t-27 -11.5
l-4 32q14 8 32.5 13t35.5 5q37 0 58 -18.5t21 -49.5q0 -23 -11 -43.5t-28.5 -35.5t-37.5 -23z" />
    <glyph glyph-name="uni1ED5" unicode="&#x1ed5;" horiz-adv-x="664" 
d="M315 -12q-72 0 -128.5 33t-88.5 91t-32 131q0 61 21.5 114.5t60 94t90.5 63.5t112 23q73 0 128.5 -33t87.5 -90.5t32 -131.5q0 -61 -21.5 -114.5t-60 -94t-90 -63.5t-111.5 -23zM314 31q67 0 120.5 35t84.5 93t31 126q0 60 -25.5 107.5t-70.5 75t-103 27.5
q-67 0 -120.5 -34.5t-85 -92t-31.5 -125.5q0 -60 26 -108t71.5 -76t102.5 -28zM237 640l143 130h43l108 -130h-52l-79 94l-105 -94h-58zM522 710l-17 27q23 8 38.5 26.5t15.5 40.5q0 18 -13.5 29.5t-35.5 11.5q-13 0 -27 -3.5t-27 -11.5l-4 32q14 8 32.5 13t35.5 5
q37 0 58 -18.5t21 -49.5q0 -23 -11 -43.5t-28.5 -35.5t-37.5 -23z" />
    <glyph glyph-name="uni1ED6" unicode="&#x1ed6;" horiz-adv-x="887" 
d="M434 -12q-72 0 -134 25.5t-108.5 73t-72.5 112.5t-26 144q0 86 30 161t83 132t124.5 89t153.5 32q72 0 134 -25.5t108.5 -73t72.5 -112.5t26 -143q0 -86 -30 -161.5t-83 -132.5t-124 -89t-154 -32zM434 36q74 0 136 29.5t108 80.5t71.5 117t25.5 139q0 84 -35.5 153.5
t-100.5 111.5t-155 42q-74 0 -136.5 -30t-108.5 -81.5t-71 -117t-25 -136.5q0 -84 36 -154t101.5 -112t153.5 -42zM381 859l143 130h43l108 -130h-52l-79 94l-105 -94h-58zM600 1049q-21 0 -32 10.5t-18 25t-14.5 25t-20.5 10.5q-15 0 -26 -16t-16 -51h-36q5 32 16.5 56
t29 37t38.5 13q20 0 31 -10.5t18 -25t14.5 -25t21.5 -10.5q17 0 28 16.5t16 50.5h36q-7 -46 -30 -76t-56 -30z" />
    <glyph glyph-name="uni1ED7" unicode="&#x1ed7;" horiz-adv-x="664" 
d="M315 -12q-72 0 -128.5 33t-88.5 91t-32 131q0 61 21.5 114.5t60 94t90.5 63.5t112 23q73 0 128.5 -33t87.5 -90.5t32 -131.5q0 -61 -21.5 -114.5t-60 -94t-90 -63.5t-111.5 -23zM314 31q67 0 120.5 35t84.5 93t31 126q0 60 -25.5 107.5t-70.5 75t-103 27.5
q-67 0 -120.5 -34.5t-85 -92t-31.5 -125.5q0 -60 26 -108t71.5 -76t102.5 -28zM238 640l143 130h43l108 -130h-52l-79 94l-105 -94h-58zM457 830q-21 0 -32 10.5t-18 25t-14.5 25t-20.5 10.5q-15 0 -26 -16t-16 -51h-36q5 32 16.5 56t29 37t38.5 13q20 0 31 -10.5t18 -25
t14.5 -25t21.5 -10.5q17 0 28 16.5t16 50.5h36q-7 -46 -30 -76t-56 -30z" />
    <glyph glyph-name="uni1ED8" unicode="&#x1ed8;" horiz-adv-x="887" 
d="M434 -12q-72 0 -134 25.5t-108.5 73t-72.5 112.5t-26 144q0 86 30 161t83 132t124.5 89t153.5 32q72 0 134 -25.5t108.5 -73t72.5 -112.5t26 -143q0 -86 -30 -161.5t-83 -132.5t-124 -89t-154 -32zM434 36q74 0 136 29.5t108 80.5t71.5 117t25.5 139q0 84 -35.5 153.5
t-100.5 111.5t-155 42q-74 0 -136.5 -30t-108.5 -81.5t-71 -117t-25 -136.5q0 -84 36 -154t101.5 -112t153.5 -42zM349 -165l10 75h70l-10 -75h-70zM381 859l147 150h43l104 -150h-48l-79 112l-111 -112h-56z" />
    <glyph glyph-name="uni1ED9" unicode="&#x1ed9;" horiz-adv-x="664" 
d="M315 -12q-72 0 -128.5 33t-88.5 91t-32 131q0 61 21.5 114.5t60 94t90.5 63.5t112 23q73 0 128.5 -33t87.5 -90.5t32 -131.5q0 -61 -21.5 -114.5t-60 -94t-90 -63.5t-111.5 -23zM314 31q67 0 120.5 35t84.5 93t31 126q0 60 -25.5 107.5t-70.5 75t-103 27.5
q-67 0 -120.5 -34.5t-85 -92t-31.5 -125.5q0 -60 26 -108t71.5 -76t102.5 -28zM237 -165l10 75h70l-10 -75h-70zM238 640l147 150h43l104 -150h-48l-79 112l-111 -112h-56z" />
    <glyph glyph-name="uni1EDA" unicode="&#x1eda;" horiz-adv-x="887" 
d="M434 -12q-72 0 -134 25.5t-108.5 73t-72.5 112.5t-26 144q0 86 30 161t83 132t124.5 89t153.5 32h213q19 0 32.5 8t21.5 24t8 40q0 16 -3 32t-7 32h45q5 -19 7.5 -35.5t2.5 -32.5q0 -49 -30 -79t-80 -30h-66l9 7q85 -41 136.5 -124.5t51.5 -195.5q0 -86 -30 -161.5
t-83 -132.5t-124 -89t-154 -32zM434 36q74 0 136 29.5t108 80.5t71.5 117t25.5 139q0 84 -35.5 153.5t-100.5 111.5t-155 42q-74 0 -136.5 -30t-108.5 -81.5t-71 -117t-25 -136.5q0 -84 36 -154t101.5 -112t153.5 -42zM505 859l114 150h61l-130 -150h-45z" />
    <glyph glyph-name="uni1EDB" unicode="&#x1edb;" horiz-adv-x="664" 
d="M315 -12q-72 0 -128.5 33t-88.5 91t-32 131q0 61 21.5 114.5t60 94t90.5 63.5t112 23h113q19 0 32.5 8t21.5 24t8 40q0 16 -3 32t-7 32h45q5 -19 7.5 -35.5t2.5 -32.5q0 -47 -27 -76t-72 -32l4 9q57 -31 90 -90t33 -134q0 -61 -21.5 -114.5t-60 -94t-90 -63.5t-111.5 -23
zM314 31q67 0 120.5 35t84.5 93t31 126q0 60 -25.5 107.5t-70.5 75t-103 27.5q-67 0 -120.5 -34.5t-85 -92t-31.5 -125.5q0 -60 26 -108t71.5 -76t102.5 -28zM362 640l114 150h61l-130 -150h-45z" />
    <glyph glyph-name="uni1EDC" unicode="&#x1edc;" horiz-adv-x="887" 
d="M434 -12q-72 0 -134 25.5t-108.5 73t-72.5 112.5t-26 144q0 86 30 161t83 132t124.5 89t153.5 32h213q19 0 32.5 8t21.5 24t8 40q0 16 -3 32t-7 32h45q5 -19 7.5 -35.5t2.5 -32.5q0 -49 -30 -79t-80 -30h-66l9 7q85 -41 136.5 -124.5t51.5 -195.5q0 -86 -30 -161.5
t-83 -132.5t-124 -89t-154 -32zM434 36q74 0 136 29.5t108 80.5t71.5 117t25.5 139q0 84 -35.5 153.5t-100.5 111.5t-155 42q-74 0 -136.5 -30t-108.5 -81.5t-71 -117t-25 -136.5q0 -84 36 -154t101.5 -112t153.5 -42zM506 859l-86 150h61l70 -150h-45z" />
    <glyph glyph-name="uni1EDD" unicode="&#x1edd;" horiz-adv-x="664" 
d="M315 -12q-72 0 -128.5 33t-88.5 91t-32 131q0 61 21.5 114.5t60 94t90.5 63.5t112 23h113q19 0 32.5 8t21.5 24t8 40q0 16 -3 32t-7 32h45q5 -19 7.5 -35.5t2.5 -32.5q0 -47 -27 -76t-72 -32l4 9q57 -31 90 -90t33 -134q0 -61 -21.5 -114.5t-60 -94t-90 -63.5t-111.5 -23
zM314 31q67 0 120.5 35t84.5 93t31 126q0 60 -25.5 107.5t-70.5 75t-103 27.5q-67 0 -120.5 -34.5t-85 -92t-31.5 -125.5q0 -60 26 -108t71.5 -76t102.5 -28zM363 640l-86 150h61l70 -150h-45z" />
    <glyph glyph-name="uni1EDE" unicode="&#x1ede;" horiz-adv-x="887" 
d="M434 -12q-72 0 -134 25.5t-108.5 73t-72.5 112.5t-26 144q0 86 30 161t83 132t124.5 89t153.5 32h213q19 0 32.5 8t21.5 24t8 40q0 16 -3 32t-7 32h45q5 -19 7.5 -35.5t2.5 -32.5q0 -49 -30 -79t-80 -30h-66l9 7q85 -41 136.5 -124.5t51.5 -195.5q0 -86 -30 -161.5
t-83 -132.5t-124 -89t-154 -32zM434 36q74 0 136 29.5t108 80.5t71.5 117t25.5 139q0 84 -35.5 153.5t-100.5 111.5t-155 42q-74 0 -136.5 -30t-108.5 -81.5t-71 -117t-25 -136.5q0 -84 36 -154t101.5 -112t153.5 -42zM536 819l-18 27q23 8 38.5 26.5t15.5 40.5
q0 18 -13 29.5t-35 11.5q-14 0 -27.5 -3.5t-26.5 -11.5l-4 32q14 9 33 13.5t35 4.5q37 0 58 -18.5t21 -49.5q0 -22 -11 -42.5t-28.5 -36t-37.5 -23.5z" />
    <glyph glyph-name="uni1EDF" unicode="&#x1edf;" horiz-adv-x="664" 
d="M315 -12q-72 0 -128.5 33t-88.5 91t-32 131q0 61 21.5 114.5t60 94t90.5 63.5t112 23h113q19 0 32.5 8t21.5 24t8 40q0 16 -3 32t-7 32h45q5 -19 7.5 -35.5t2.5 -32.5q0 -47 -27 -76t-72 -32l4 9q57 -31 90 -90t33 -134q0 -61 -21.5 -114.5t-60 -94t-90 -63.5t-111.5 -23
zM314 31q67 0 120.5 35t84.5 93t31 126q0 60 -25.5 107.5t-70.5 75t-103 27.5q-67 0 -120.5 -34.5t-85 -92t-31.5 -125.5q0 -60 26 -108t71.5 -76t102.5 -28zM393 600l-18 27q23 8 38.5 26.5t15.5 40.5q0 18 -13 29.5t-35 11.5q-14 0 -27.5 -3.5t-26.5 -11.5l-4 32
q14 9 33 13.5t35 4.5q37 0 58 -18.5t21 -49.5q0 -22 -11 -42.5t-28.5 -36t-37.5 -23.5z" />
    <glyph glyph-name="uni1EE0" unicode="&#x1ee0;" horiz-adv-x="887" 
d="M434 -12q-72 0 -134 25.5t-108.5 73t-72.5 112.5t-26 144q0 86 30 161t83 132t124.5 89t153.5 32h213q19 0 32.5 8t21.5 24t8 40q0 16 -3 32t-7 32h45q5 -19 7.5 -35.5t2.5 -32.5q0 -49 -30 -79t-80 -30h-66l9 7q85 -41 136.5 -124.5t51.5 -195.5q0 -86 -30 -161.5
t-83 -132.5t-124 -89t-154 -32zM434 36q74 0 136 29.5t108 80.5t71.5 117t25.5 139q0 84 -35.5 153.5t-100.5 111.5t-155 42q-74 0 -136.5 -30t-108.5 -81.5t-71 -117t-25 -136.5q0 -84 36 -154t101.5 -112t153.5 -42zM585 859q-25 0 -40 10.5t-24.5 25t-19 25t-25.5 10.5
q-19 0 -31.5 -16t-17.5 -51h-40q5 32 18 56t33.5 37t46.5 13q25 0 38.5 -10.5t23 -25t19.5 -25t27 -10.5q21 0 34.5 16.5t17.5 50.5h40q-6 -46 -32.5 -76t-67.5 -30z" />
    <glyph glyph-name="uni1EE1" unicode="&#x1ee1;" horiz-adv-x="664" 
d="M315 -12q-72 0 -128.5 33t-88.5 91t-32 131q0 61 21.5 114.5t60 94t90.5 63.5t112 23h113q19 0 32.5 8t21.5 24t8 40q0 16 -3 32t-7 32h45q5 -19 7.5 -35.5t2.5 -32.5q0 -47 -27 -76t-72 -32l4 9q57 -31 90 -90t33 -134q0 -61 -21.5 -114.5t-60 -94t-90 -63.5t-111.5 -23
zM314 31q67 0 120.5 35t84.5 93t31 126q0 60 -25.5 107.5t-70.5 75t-103 27.5q-67 0 -120.5 -34.5t-85 -92t-31.5 -125.5q0 -60 26 -108t71.5 -76t102.5 -28zM442 640q-25 0 -40 10.5t-24.5 25t-19 25t-25.5 10.5q-19 0 -31.5 -16t-17.5 -51h-40q5 32 18 56t33.5 37t46.5 13
q25 0 38.5 -10.5t23 -25t19.5 -25t27 -10.5q21 0 34.5 16.5t17.5 50.5h40q-6 -46 -32.5 -76t-67.5 -30z" />
    <glyph glyph-name="uni1EE2" unicode="&#x1ee2;" horiz-adv-x="887" 
d="M434 -12q-72 0 -134 25.5t-108.5 73t-72.5 112.5t-26 144q0 86 30 161t83 132t124.5 89t153.5 32h213q19 0 32.5 8t21.5 24t8 40q0 16 -3 32t-7 32h45q5 -19 7.5 -35.5t2.5 -32.5q0 -49 -30 -79t-80 -30h-66l9 7q85 -41 136.5 -124.5t51.5 -195.5q0 -86 -30 -161.5
t-83 -132.5t-124 -89t-154 -32zM434 36q74 0 136 29.5t108 80.5t71.5 117t25.5 139q0 84 -35.5 153.5t-100.5 111.5t-155 42q-74 0 -136.5 -30t-108.5 -81.5t-71 -117t-25 -136.5q0 -84 36 -154t101.5 -112t153.5 -42zM349 -165l10 75h70l-10 -75h-70z" />
    <glyph glyph-name="uni1EE3" unicode="&#x1ee3;" horiz-adv-x="664" 
d="M315 -12q-72 0 -128.5 33t-88.5 91t-32 131q0 61 21.5 114.5t60 94t90.5 63.5t112 23h113q19 0 32.5 8t21.5 24t8 40q0 16 -3 32t-7 32h45q5 -19 7.5 -35.5t2.5 -32.5q0 -47 -27 -76t-72 -32l4 9q57 -31 90 -90t33 -134q0 -61 -21.5 -114.5t-60 -94t-90 -63.5t-111.5 -23
zM314 31q67 0 120.5 35t84.5 93t31 126q0 60 -25.5 107.5t-70.5 75t-103 27.5q-67 0 -120.5 -34.5t-85 -92t-31.5 -125.5q0 -60 26 -108t71.5 -76t102.5 -28zM237 -165l10 75h70l-10 -75h-70z" />
    <glyph glyph-name="uni1EE4" unicode="&#x1ee4;" horiz-adv-x="691" 
d="M310 -12q-75 0 -127.5 33.5t-76 93t-12.5 138.5l69 492h50l-70 -500q-9 -63 10 -110.5t60.5 -74.5t99.5 -27t107 26.5t82 75.5t42 114l69 496h50l-69 -496q-11 -79 -50.5 -137.5t-99.5 -91t-134 -32.5zM251 -165l10 75h70l-10 -75h-70z" />
    <glyph glyph-name="uni1EE5" unicode="&#x1ee5;" horiz-adv-x="571" 
d="M241 -12q-53 0 -96 24t-65 71t-12 115l47 328h45l-47 -332q-8 -55 8 -91.5t48.5 -54t73.5 -17.5q52 0 91.5 24t64 64.5t31.5 88.5l45 318h45l-74 -526h-45l15 111l12 -7q-23 -52 -73.5 -84t-113.5 -32zM191 -165l10 75h70l-10 -75h-70z" />
    <glyph glyph-name="uni1EE6" unicode="&#x1ee6;" horiz-adv-x="691" 
d="M310 -12q-75 0 -127.5 33.5t-76 93t-12.5 138.5l69 492h50l-70 -500q-9 -63 10 -110.5t60.5 -74.5t99.5 -27t107 26.5t82 75.5t42 114l69 496h50l-69 -496q-11 -79 -50.5 -137.5t-99.5 -91t-134 -32.5zM438 819l-18 27q23 8 38.5 26.5t15.5 40.5q0 18 -13 29.5t-35 11.5
q-14 0 -27.5 -3.5t-26.5 -11.5l-4 32q14 9 33 13.5t35 4.5q37 0 58 -18.5t21 -49.5q0 -22 -11 -42.5t-28.5 -36t-37.5 -23.5z" />
    <glyph glyph-name="uni1EE7" unicode="&#x1ee7;" horiz-adv-x="571" 
d="M241 -12q-53 0 -96 24t-65 71t-12 115l47 328h45l-47 -332q-8 -55 8 -91.5t48.5 -54t73.5 -17.5q52 0 91.5 24t64 64.5t31.5 88.5l45 318h45l-74 -526h-45l15 111l12 -7q-23 -52 -73.5 -84t-113.5 -32zM347 600l-18 27q23 8 38.5 26.5t15.5 40.5q0 18 -13 29.5t-35 11.5
q-14 0 -27.5 -3.5t-26.5 -11.5l-4 32q14 9 33 13.5t35 4.5q37 0 58 -18.5t21 -49.5q0 -22 -11 -42.5t-28.5 -36t-37.5 -23.5z" />
    <glyph glyph-name="uni1EE8" unicode="&#x1ee8;" horiz-adv-x="690" 
d="M310 -12q-75 0 -127.5 33.5t-76 93t-12.5 138.5l69 492h50l-70 -500q-9 -63 10 -110.5t60.5 -74.5t99.5 -27t107 26.5t82 75.5t42 114l69 496h50l-69 -496q-11 -79 -50.5 -137.5t-99.5 -91t-134 -32.5zM637 704l6 41h13q19 0 32.5 8t21.5 24t8 40q0 16 -3 32t-7 32h45
q5 -19 7.5 -35.5t2.5 -32.5q0 -49 -30 -79t-80 -30h-16zM407 859l114 150h61l-130 -150h-45z" />
    <glyph glyph-name="uni1EE9" unicode="&#x1ee9;" horiz-adv-x="576" 
d="M241 -12q-53 0 -96 24t-65 71t-12 115l47 328h45l-47 -332q-8 -55 8 -91.5t48.5 -54t73.5 -17.5q52 0 91.5 24t64 64.5t31.5 88.5l45 318h28q19 0 32.5 8t21.5 24t8 40q0 16 -3 32t-7 32h45q5 -19 7.5 -35.5t2.5 -32.5q0 -50 -31 -80t-82 -29l20 23l-71 -508h-45l10 74
q-27 -40 -72 -63t-98 -23zM316 640l114 150h61l-130 -150h-45z" />
    <glyph glyph-name="uni1EEA" unicode="&#x1eea;" horiz-adv-x="690" 
d="M310 -12q-75 0 -127.5 33.5t-76 93t-12.5 138.5l69 492h50l-70 -500q-9 -63 10 -110.5t60.5 -74.5t99.5 -27t107 26.5t82 75.5t42 114l69 496h50l-69 -496q-11 -79 -50.5 -137.5t-99.5 -91t-134 -32.5zM637 704l6 41h13q19 0 32.5 8t21.5 24t8 40q0 16 -3 32t-7 32h45
q5 -19 7.5 -35.5t2.5 -32.5q0 -49 -30 -79t-80 -30h-16zM408 859l-86 150h61l70 -150h-45z" />
    <glyph glyph-name="uni1EEB" unicode="&#x1eeb;" horiz-adv-x="576" 
d="M241 -12q-53 0 -96 24t-65 71t-12 115l47 328h45l-47 -332q-8 -55 8 -91.5t48.5 -54t73.5 -17.5q52 0 91.5 24t64 64.5t31.5 88.5l45 318h28q19 0 32.5 8t21.5 24t8 40q0 16 -3 32t-7 32h45q5 -19 7.5 -35.5t2.5 -32.5q0 -50 -31 -80t-82 -29l20 23l-71 -508h-45l10 74
q-27 -40 -72 -63t-98 -23zM317 640l-86 150h61l70 -150h-45z" />
    <glyph glyph-name="uni1EEC" unicode="&#x1eec;" horiz-adv-x="690" 
d="M310 -12q-75 0 -127.5 33.5t-76 93t-12.5 138.5l69 492h50l-70 -500q-9 -63 10 -110.5t60.5 -74.5t99.5 -27t107 26.5t82 75.5t42 114l69 496h50l-69 -496q-11 -79 -50.5 -137.5t-99.5 -91t-134 -32.5zM637 704l6 41h13q19 0 32.5 8t21.5 24t8 40q0 16 -3 32t-7 32h45
q5 -19 7.5 -35.5t2.5 -32.5q0 -49 -30 -79t-80 -30h-16zM438 819l-18 27q23 8 38.5 26.5t15.5 40.5q0 18 -13 29.5t-35 11.5q-14 0 -27.5 -3.5t-26.5 -11.5l-4 32q14 9 33 13.5t35 4.5q37 0 58 -18.5t21 -49.5q0 -22 -11 -42.5t-28.5 -36t-37.5 -23.5z" />
    <glyph glyph-name="uni1EED" unicode="&#x1eed;" horiz-adv-x="576" 
d="M241 -12q-53 0 -96 24t-65 71t-12 115l47 328h45l-47 -332q-8 -55 8 -91.5t48.5 -54t73.5 -17.5q52 0 91.5 24t64 64.5t31.5 88.5l45 318h28q19 0 32.5 8t21.5 24t8 40q0 16 -3 32t-7 32h45q5 -19 7.5 -35.5t2.5 -32.5q0 -50 -31 -80t-82 -29l20 23l-71 -508h-45l10 74
q-27 -40 -72 -63t-98 -23zM347 600l-18 27q23 8 38.5 26.5t15.5 40.5q0 18 -13 29.5t-35 11.5q-14 0 -27.5 -3.5t-26.5 -11.5l-4 32q14 9 33 13.5t35 4.5q37 0 58 -18.5t21 -49.5q0 -22 -11 -42.5t-28.5 -36t-37.5 -23.5z" />
    <glyph glyph-name="uni1EEE" unicode="&#x1eee;" horiz-adv-x="690" 
d="M310 -12q-75 0 -127.5 33.5t-76 93t-12.5 138.5l69 492h50l-70 -500q-9 -63 10 -110.5t60.5 -74.5t99.5 -27t107 26.5t82 75.5t42 114l69 496h50l-69 -496q-11 -79 -50.5 -137.5t-99.5 -91t-134 -32.5zM637 704l6 41h13q19 0 32.5 8t21.5 24t8 40q0 16 -3 32t-7 32h45
q5 -19 7.5 -35.5t2.5 -32.5q0 -49 -30 -79t-80 -30h-16zM487 859q-25 0 -40 10.5t-24.5 25t-19 25t-25.5 10.5q-19 0 -31.5 -16t-17.5 -51h-40q5 32 18 56t33.5 37t46.5 13q25 0 38.5 -10.5t23 -25t19.5 -25t27 -10.5q21 0 34.5 16.5t17.5 50.5h40q-6 -46 -32.5 -76
t-67.5 -30z" />
    <glyph glyph-name="uni1EEF" unicode="&#x1eef;" horiz-adv-x="576" 
d="M241 -12q-53 0 -96 24t-65 71t-12 115l47 328h45l-47 -332q-8 -55 8 -91.5t48.5 -54t73.5 -17.5q52 0 91.5 24t64 64.5t31.5 88.5l45 318h28q19 0 32.5 8t21.5 24t8 40q0 16 -3 32t-7 32h45q5 -19 7.5 -35.5t2.5 -32.5q0 -50 -31 -80t-82 -29l20 23l-71 -508h-45l10 74
q-27 -40 -72 -63t-98 -23zM396 640q-25 0 -40 10.5t-24.5 25t-19 25t-25.5 10.5q-19 0 -31.5 -16t-17.5 -51h-40q5 32 18 56t33.5 37t46.5 13q25 0 38.5 -10.5t23 -25t19.5 -25t27 -10.5q21 0 34.5 16.5t17.5 50.5h40q-6 -46 -32.5 -76t-67.5 -30z" />
    </font>
</defs>
</svg>
