<?xml version="1.0" standalone="no"?>
<!DOCTYPE svg PUBLIC "-//W3C//DTD SVG 1.1//EN" "http://www.w3.org/Graphics/SVG/1.1/DTD/svg11.dtd" >
<svg xmlns="http://www.w3.org/2000/svg" xmlns:xlink="http://www.w3.org/1999/xlink" version="1.1">
<metadata>
Created by FontForge 20201107 at Thu Jun  8 17:17:00 2023
 By 
Copyright 2020 The Plus Jakarta Sans Project Authors (https://github.com/tokotype/PlusJakartaSans)
</metadata>
<defs>
<font id="PlusJakartaSans-MediumItalic" horiz-adv-x="576" >
  <font-face 
    font-family="Plus Jakarta Sans Medium"
    font-weight="500"
    font-style="italic"
    font-stretch="normal"
    units-per-em="1000"
    panose-1="0 0 0 0 0 0 0 0 0 0"
    ascent="800"
    descent="-200"
    x-height="539"
    cap-height="745"
    bbox="-199 -246 1391 1216"
    underline-thickness="40"
    underline-position="-175"
    slope="-8"
    unicode-range="U+000D-FB02"
  />
<missing-glyph horiz-adv-x="745" 
d="M127 675v70h520v-70h-520zM127 0v70h520v-70h-520zM127 225v70h520v-70h-520zM127 450v70h520v-70h-520z" />
    <glyph glyph-name="fi" unicode="fi" horiz-adv-x="598" 
d="M91 0l63 450h-103l13 89h103l5 33q9 61 39 102.5t73.5 62t92.5 20.5q14 0 28 -1.5t24 -3.5l-6 -83q-8 2 -18.5 2.5t-14.5 0.5q-48 0 -82.5 -23t-42.5 -82l-4 -28h280l-12 -89h-281l-62 -450h-95zM408 0l75 539h95l-75 -539h-95z" />
    <glyph glyph-name="fl" unicode="fl" horiz-adv-x="636" 
d="M91 0l63 450h-103l13 89h103l5 33q9 61 39 102.5t73.5 62t92.5 20.5q14 0 28 -1.5t24 -3.5l-6 -83q-8 2 -18.5 2.5t-14.5 0.5q-48 0 -82.5 -23t-42.5 -82l-4 -28h280l-12 -89h-281l-62 -450h-95zM432 0l106 757h95l-106 -757h-95z" />
    <glyph glyph-name="f_f" unicode="ff" horiz-adv-x="788" 
d="M91 0l63 450h-103l13 89h103l5 33q9 61 39 102.5t73.5 62t92.5 20.5q14 0 28 -1.5t24 -3.5l-6 -83q-8 2 -18.5 2.5t-14.5 0.5q-48 0 -82.5 -23t-42.5 -82l-4 -28h280l-12 -89h-281l-62 -450h-95zM479 0l62 450h-102l13 89h102l5 33q10 61 40 102.5t73 62t92 20.5
q15 0 28.5 -1.5t23.5 -3.5l-6 -83q-8 2 -18 2.5t-15 0.5q-48 0 -82 -23t-42 -82l-4 -28h127l-13 -89h-127l-63 -450h-94z" />
    <glyph glyph-name="f_f_i" unicode="ffi" horiz-adv-x="986" 
d="M91 0l63 450h-103l13 89h103l5 33q9 61 39 102.5t73.5 62t92.5 20.5q14 0 28 -1.5t24 -3.5l-6 -83q-8 2 -18.5 2.5t-14.5 0.5q-48 0 -82.5 -23t-42.5 -82l-4 -28h280l-12 -89h-281l-62 -450h-95zM795 0l76 539h94l-75 -539h-95zM479 0l62 450h-102l13 89h102l5 33
q10 61 40 102.5t73 62t92 20.5q15 0 28.5 -1.5t23.5 -3.5l-6 -83q-8 2 -18 2.5t-15 0.5q-48 0 -82 -23t-42 -82l-4 -28h280l-13 -89h-280l-63 -450h-94z" />
    <glyph glyph-name="f_f_l" unicode="ffl" horiz-adv-x="1024" 
d="M91 0l63 450h-103l13 89h103l5 33q9 61 39 102.5t73.5 62t92.5 20.5q14 0 28 -1.5t24 -3.5l-6 -83q-8 2 -18.5 2.5t-14.5 0.5q-48 0 -82.5 -23t-42.5 -82l-4 -28h280l-12 -89h-281l-62 -450h-95zM819 0l106 757h95l-106 -757h-95zM479 0l62 450h-102l13 89h102l5 33
q10 61 40 102.5t73 62t92 20.5q15 0 28.5 -1.5t23.5 -3.5l-6 -83q-8 2 -18 2.5t-15 0.5q-48 0 -82 -23t-42 -82l-4 -28h280l-13 -89h-280l-63 -450h-94z" />
    <glyph glyph-name=".notdef" horiz-adv-x="745" 
d="M127 675v70h520v-70h-520zM127 0v70h520v-70h-520zM127 225v70h520v-70h-520zM127 450v70h520v-70h-520z" />
    <glyph glyph-name=".null" horiz-adv-x="0" 
 />
    <glyph glyph-name="nonmarkingreturn" horiz-adv-x="333" 
 />
    <glyph glyph-name="CR" unicode="&#xd;" horiz-adv-x="173" 
 />
    <glyph glyph-name="space" unicode=" " horiz-adv-x="173" 
 />
    <glyph glyph-name="exclam" unicode="!" horiz-adv-x="312" 
d="M107 218l67 527h97l-79 -527h-85zM70 0l16 120h98l-17 -120h-97z" />
    <glyph glyph-name="quotedbl" unicode="&#x22;" horiz-adv-x="429" 
d="M135 505l19 240h92l-46 -240h-65zM297 505l19 240h92l-46 -240h-65z" />
    <glyph glyph-name="numbersign" unicode="#" horiz-adv-x="832" 
d="M77 0l78 185h-120l12 85h144l89 206h-120l12 85h144l79 184h97l-78 -184h195l78 184h97l-78 -184h120l-12 -85h-144l-89 -206h120l-12 -85h-144l-78 -185h-98l78 185h-194l-79 -185h-97zM289 270h195l88 206h-195z" />
    <glyph glyph-name="dollar" unicode="$" horiz-adv-x="648" 
d="M316 -12q-70 0 -127.5 25.5t-96.5 72t-53 107.5l88 30q18 -72 68.5 -109.5t124.5 -37.5q50 0 85.5 16.5t54 45.5t18.5 64q0 39 -23.5 64.5t-69.5 39.5l-130 42q-73 23 -111 71.5t-38 114.5q0 61 32 112t88.5 81t129.5 30q67 0 119.5 -24.5t87 -65.5t46.5 -93l-86 -31
q-15 60 -59.5 93t-108.5 33q-44 0 -78.5 -16t-53.5 -44.5t-19 -66.5q0 -36 22.5 -64.5t71.5 -43.5l118 -38q81 -26 121 -74t40 -114q0 -59 -32.5 -109t-90.5 -80.5t-138 -30.5zM237 -100l132 945h76l-132 -945h-76z" />
    <glyph glyph-name="percent" unicode="%" horiz-adv-x="1025" 
d="M119 0l712 745h111l-712 -745h-111zM283 367q-52 0 -93.5 24t-65.5 65.5t-24 91.5q0 57 28.5 104.5t76 76t105.5 28.5q51 0 92 -24t65 -65t24 -92q0 -56 -28.5 -104t-76 -76.5t-103.5 -28.5zM288 449q32 0 59 17t43 44.5t16 59.5q0 27 -12.5 51.5t-35.5 39.5t-54 15
q-32 0 -59 -17.5t-43.5 -44.5t-16.5 -60q0 -27 13 -51t36 -39t54 -15zM745 -12q-52 0 -93.5 24t-65.5 65.5t-24 91.5q0 57 29 104.5t77 76t105 28.5q51 0 92 -24t64.5 -65t23.5 -92q0 -56 -28.5 -104t-75.5 -76.5t-104 -28.5zM751 70q32 0 58.5 16.5t42.5 44.5t16 60
q0 27 -12.5 51t-35 39.5t-53.5 15.5q-32 0 -59 -17.5t-43.5 -44.5t-16.5 -60q0 -27 13 -51t36 -39t54 -15z" />
    <glyph glyph-name="ampersand" unicode="&#x26;" horiz-adv-x="762" 
d="M253 -12q-58 0 -103.5 21.5t-72 62t-26.5 97.5q0 45 15.5 80.5t41 62.5t56.5 48.5t62 38.5l77 43q48 27 76.5 52t41 50t12.5 50q0 35 -21.5 56.5t-56.5 21.5q-30 0 -54 -14.5t-38 -38.5t-14 -53q0 -25 10.5 -48.5t25.5 -45t31 -40.5l361 -432h-122l-315 375
q-19 23 -39 50.5t-33 61t-13 72.5q0 54 26.5 99.5t72.5 72t103 26.5q50 0 87.5 -20.5t59 -57t21.5 -82.5q0 -51 -22.5 -91t-59.5 -71.5t-82 -56.5l-79 -46q-31 -18 -61 -39.5t-48.5 -50.5t-18.5 -70q0 -47 29 -72t75 -25q36 0 63 11t48.5 30t39.5 40.5t34 42.5l134 169h108
l-155 -208q-19 -25 -44 -54.5t-58.5 -56.5t-76.5 -44t-98 -17z" />
    <glyph glyph-name="quotesingle" unicode="'" horiz-adv-x="267" 
d="M135 505l19 240h92l-46 -240h-65z" />
    <glyph glyph-name="parenleft" unicode="(" horiz-adv-x="340" 
d="M175 -150q-60 78 -90.5 171.5t-30.5 198.5q0 99 24.5 192.5t73 178.5t117.5 154h80q-60 -75 -104.5 -160t-68.5 -177t-24 -187q0 -98 26 -191.5t77 -179.5h-80z" />
    <glyph glyph-name="parenright" unicode=")" horiz-adv-x="340" 
d="M-2 -150q62 78 106 163.5t67.5 177t23.5 185.5q0 97 -26 190.5t-77 178.5h80q62 -79 92 -172.5t30 -195.5q0 -98 -25 -191.5t-72.5 -178.5t-118.5 -157h-80z" />
    <glyph glyph-name="asterisk" unicode="*" horiz-adv-x="499" 
d="M182 377l-59 47l97 109l-117 42l36 77l118 -41l18 134h82l-19 -134l129 41l14 -77l-128 -42l66 -109l-72 -47l-67 109z" />
    <glyph glyph-name="plus" unicode="+" horiz-adv-x="625" 
d="M232 0l29 207h-207l12 87h207l29 206h88l-29 -206h205l-12 -87h-205l-29 -207h-88z" />
    <glyph glyph-name="comma" unicode="," horiz-adv-x="299" 
d="M30 -139l6 42q33 8 53.5 32.5t29.5 64.5h-49l17 120h97l-13 -95q-9 -65 -45 -107.5t-96 -56.5z" />
    <glyph glyph-name="hyphen" unicode="-" horiz-adv-x="532" 
d="M73 227l12 85h375l-12 -85h-375z" />
    <glyph glyph-name="period" unicode="." horiz-adv-x="317" 
d="M72 0l17 120h98l-18 -120h-97z" />
    <glyph glyph-name="slash" unicode="/" horiz-adv-x="460" 
d="M-48 -120l452 825h111l-452 -825h-111z" />
    <glyph glyph-name="zero" unicode="0" horiz-adv-x="727" 
d="M342 -12q-81 0 -140.5 40t-91 113t-31.5 171q0 88 22.5 168t66 142t105.5 98.5t141 36.5q81 0 140 -40t91 -112t32 -170q0 -88 -22.5 -168t-65 -142.5t-105 -99.5t-142.5 -37zM344 79q59 0 103 31.5t73 83.5t43.5 115.5t14.5 126.5q0 106 -44 168t-123 62
q-57 0 -101 -30.5t-73.5 -81.5t-44.5 -114.5t-15 -128.5q0 -71 20 -123t57.5 -80.5t89.5 -28.5z" />
    <glyph glyph-name="one" unicode="1" horiz-adv-x="382" 
d="M140 0l93 660h-141l12 85h240l-104 -745h-100z" />
    <glyph glyph-name="two" unicode="2" horiz-adv-x="619" 
d="M37 0l7 68l229 223q52 52 89.5 89t61 66t34.5 56.5t11 59.5q0 50 -31.5 79t-87.5 29q-59 0 -104.5 -35t-68.5 -99l-87 27q19 60 57.5 103.5t91 67t114.5 23.5t111 -23t76.5 -65t27.5 -100q0 -39 -12 -73.5t-35 -68t-55.5 -68.5t-74.5 -74l-209 -200h354l-11 -85h-488z
" />
    <glyph glyph-name="three" unicode="3" horiz-adv-x="610" 
d="M268 -12q-60 0 -110.5 21t-85 59.5t-46.5 91.5l86 34q15 -56 58 -87t103 -31q51 0 89.5 20.5t61 57.5t22.5 85q0 44 -18.5 75.5t-51 48.5t-75.5 17q-15 0 -32.5 -2.5t-31.5 -7.5l-15 47l224 243h-331l11 85h447l-10 -82l-214 -234l-10 26q64 0 110 -29t71 -77t25 -109
q0 -55 -21.5 -101t-59.5 -79.5t-88 -52.5t-108 -19z" />
    <glyph glyph-name="four" unicode="4" horiz-adv-x="639" 
d="M372 0l24 172h-367l11 81l434 492h95l-69 -492h96l-12 -81h-96l-23 -172h-93zM113 218l-11 35h306l57 410l31 -8z" />
    <glyph glyph-name="five" unicode="5" horiz-adv-x="615" 
d="M273 -12q-60 0 -110 20.5t-84 59t-46 90.5l83 34q15 -55 59.5 -85.5t100.5 -30.5q50 0 89.5 24t62.5 64t23 89q0 42 -18.5 74t-49.5 50t-73 18q-55 0 -93.5 -21t-59.5 -53l-78 17l114 408h380l-10 -85h-345l45 38l-87 -317l-29 17q37 47 82.5 64.5t99.5 17.5
q67 0 116.5 -30.5t77 -81.5t27.5 -113q0 -58 -22 -106.5t-60.5 -85t-88 -56.5t-106.5 -20z" />
    <glyph glyph-name="six" unicode="6" horiz-adv-x="600" 
d="M273 -12q-66 0 -117 28t-79 77t-28 114q0 51 15.5 97.5t42.5 88.5t60 81l235 271h123l-292 -334l-23 2q18 21 37 32t40.5 15.5t45.5 4.5q60 0 107.5 -26.5t75.5 -74.5t28 -111q0 -74 -36.5 -134.5t-97.5 -95.5t-137 -35zM278 76q46 0 83.5 23t60.5 62t23 87
q0 59 -36.5 95.5t-94.5 36.5q-46 0 -84 -23t-60.5 -61.5t-22.5 -87.5q0 -59 36.5 -95.5t94.5 -36.5z" />
    <glyph glyph-name="seven" unicode="7" horiz-adv-x="550" 
d="M34 0l422 661h-361l11 85h468l-11 -85l-417 -661h-112z" />
    <glyph glyph-name="eight" unicode="8" horiz-adv-x="631" 
d="M290 -12q-71 0 -124.5 26.5t-83.5 73.5t-30 106q0 52 22 97t61 78t90 49l-5 -25q-46 19 -71 59.5t-25 91.5q0 58 31.5 106.5t85.5 77.5t122 29q59 0 104 -22t71 -61.5t26 -91.5q0 -42 -17 -79.5t-46 -66t-67 -44.5v26q62 -21 96 -68.5t34 -113.5q0 -67 -35 -123.5
t-96.5 -90.5t-142.5 -34zM293 73q51 0 89.5 20.5t60.5 56.5t22 82q0 59 -38 93t-104 34q-51 0 -90 -21t-60.5 -56.5t-21.5 -80.5q0 -58 38.5 -93t103.5 -35zM332 444q39 0 68.5 17.5t46.5 46t17 63.5q0 46 -30 73.5t-78 27.5q-38 0 -68 -16.5t-47.5 -45t-17.5 -64.5
q0 -45 30.5 -73.5t78.5 -28.5z" />
    <glyph glyph-name="nine" unicode="9" horiz-adv-x="601" 
d="M105 0l292 335l23 -3q-17 -20 -36.5 -31.5t-40.5 -16t-46 -4.5q-60 0 -107.5 26.5t-75.5 74.5t-28 111q0 75 36.5 135t97.5 95t137 35q67 0 117.5 -27.5t78.5 -77t28 -114.5q0 -51 -15.5 -97.5t-42.5 -88.5t-60 -80l-235 -272h-123zM316 366q47 0 84.5 22.5t60 61.5
t22.5 87q0 59 -36.5 96t-94.5 37q-45 0 -83 -23t-61 -62.5t-23 -87.5q0 -59 36.5 -95t94.5 -36z" />
    <glyph glyph-name="colon" unicode=":" horiz-adv-x="317" 
d="M72 0l17 120h97l-17 -120h-97zM130 419l18 120h97l-17 -120h-98z" />
    <glyph glyph-name="semicolon" unicode=";" horiz-adv-x="337" 
d="M52 -139l6 42q33 8 53.5 32.5t28.5 64.5h-49l18 120h97l-13 -95q-9 -65 -45 -107.5t-96 -56.5zM150 419l18 120h97l-17 -120h-98z" />
    <glyph glyph-name="less" unicode="&#x3c;" horiz-adv-x="625" 
d="M509 30l-399 196l12 88l454 195l-14 -102l-371 -158l1 35l329 -162z" />
    <glyph glyph-name="equal" unicode="=" horiz-adv-x="625" 
d="M95 321l12 88h450l-12 -88h-450zM61 84l13 87h450l-13 -87h-450z" />
    <glyph glyph-name="greater" unicode="&#x3e;" horiz-adv-x="625" 
d="M49 30l14 102l371 158l-1 -35l-329 162l12 92l399 -196l-12 -88z" />
    <glyph glyph-name="question" unicode="?" horiz-adv-x="528" 
d="M200 218l2 13q14 66 43.5 112.5t72.5 84.5q24 23 48 44.5t39.5 47t15.5 56.5q0 38 -27.5 66t-79.5 28q-51 0 -90.5 -32t-52.5 -85l-87 20q13 55 47 96.5t82.5 64.5t107.5 23q62 0 106.5 -24t68.5 -64t24 -87q0 -46 -20.5 -82t-51 -66t-60.5 -58q-35 -32 -58.5 -67
t-33.5 -80l-2 -11h-94zM170 0l18 120h97l-17 -120h-98z" />
    <glyph glyph-name="at" unicode="@" horiz-adv-x="930" 
d="M446 -211q-86 0 -158 29.5t-124.5 82t-81.5 123t-29 153.5q0 93 32.5 173.5t92 142.5t141 97.5t179.5 35.5q89 0 161.5 -30.5t124.5 -83.5t80 -122.5t28 -148.5q0 -72 -23 -126.5t-63.5 -84.5t-95.5 -30q-33 0 -63 12t-48.5 36t-21.5 59l17 -25q-15 -27 -40 -45
t-55.5 -27.5t-63.5 -9.5q-56 0 -99 25.5t-68 70t-25 101.5q0 63 29.5 115.5t80.5 84.5t114 32q49 0 89.5 -19.5t59.5 -53.5l-11 -20l13 83h73l-35 -253q-5 -32 3 -51.5t23 -27.5t32 -8q43 0 67.5 41t24.5 113q0 92 -37.5 162.5t-106 110.5t-162.5 40q-78 0 -144.5 -28.5
t-115 -78t-75 -115t-26.5 -139.5q0 -92 39.5 -163t111 -112t164.5 -41q45 0 88 10.5t80 30.5l31 -69q-45 -25 -97.5 -38.5t-109.5 -13.5zM446 79q39 0 70 20t49.5 53.5t18.5 73.5q0 54 -33.5 88t-85.5 35q-40 0 -71 -19.5t-49 -52.5t-18 -72q0 -55 34 -90.5t85 -35.5z" />
    <glyph glyph-name="A" unicode="A" horiz-adv-x="672" 
d="M-27 0l371 745h116l163 -745h-101l-37 175h-317l-85 -175h-110zM212 265h255l-85 408l28 -3z" />
    <glyph glyph-name="B" unicode="B" horiz-adv-x="699" 
d="M45 0l104 745h301q93 0 145.5 -47t52.5 -129q0 -40 -14.5 -75.5t-41 -63t-65.5 -44.5l-4 31q60 -24 90 -70.5t30 -102.5q0 -72 -34 -127.5t-94.5 -86t-141.5 -30.5h-328zM156 90h231q46 0 82 18.5t55.5 52t19.5 76.5q0 51 -35 82.5t-95 31.5h-221zM205 439h211
q39 0 68.5 16.5t46.5 45t17 64.5q0 43 -29.5 67t-79.5 24h-203z" />
    <glyph glyph-name="C" unicode="C" horiz-adv-x="794" 
d="M416 -12q-72 0 -134 24.5t-108 71.5t-72 112.5t-26 147.5q0 86 29 161t81.5 131.5t123.5 88.5t154 32q80 0 140.5 -27.5t100 -71t54.5 -91.5l-93 -39q-22 62 -73.5 100t-130.5 38q-62 0 -114.5 -24t-91.5 -68t-60.5 -102.5t-21.5 -127.5q0 -80 30.5 -139.5t85.5 -92.5
t127 -33q80 0 138 39t89 101l88 -44q-22 -48 -67 -91t-108 -69.5t-141 -26.5z" />
    <glyph glyph-name="D" unicode="D" horiz-adv-x="744" 
d="M45 0l104 745h232q103 0 178.5 -42.5t117 -117t41.5 -172.5q0 -90 -28 -165.5t-81.5 -131t-128.5 -86t-169 -30.5h-266zM156 90h157q68 0 123 23t95.5 65.5t62.5 100.5t22 128q0 76 -29.5 132t-84 86t-130.5 30h-136z" />
    <glyph glyph-name="E" unicode="E" horiz-adv-x="607" 
d="M45 0l104 745h486l-13 -90h-386l-34 -236h367l-12 -90h-367l-34 -239h387l-12 -90h-486z" />
    <glyph glyph-name="F" unicode="F" horiz-adv-x="583" 
d="M45 0l104 745h473l-12 -90h-374l-34 -241h338l-12 -90h-339l-45 -324h-99z" />
    <glyph glyph-name="G" unicode="G" horiz-adv-x="823" 
d="M414 -12q-72 0 -133.5 25t-107.5 72t-71.5 112.5t-25.5 146.5q0 88 30.5 163t83.5 131.5t124.5 87.5t152.5 31q78 0 138 -27t99.5 -70t54.5 -92l-91 -43q-21 65 -74 103t-132 38q-64 0 -116.5 -24.5t-91 -68t-59.5 -101.5t-21 -124q0 -82 31.5 -142t87.5 -93.5t130 -33.5
q68 0 123.5 29t91 80.5t42.5 117.5l6 46l40 -42h-290l9 85h343l-7 -71q-7 -76 -38.5 -138t-81.5 -106.5t-113 -68t-134 -23.5z" />
    <glyph glyph-name="H" unicode="H" horiz-adv-x="736" 
d="M45 0l104 745h99l-46 -332h372l47 332h98l-104 -745h-98l45 323h-373l-45 -323h-99z" />
    <glyph glyph-name="I" unicode="I" horiz-adv-x="265" 
d="M45 0l104 745h99l-104 -745h-99z" />
    <glyph glyph-name="J" unicode="J" horiz-adv-x="386" 
d="M12 0l13 95h34q56 0 94 31.5t45 85.5l75 533h98l-75 -539q-8 -61 -39.5 -107.5t-82 -72.5t-115.5 -26h-47z" />
    <glyph glyph-name="K" unicode="K" horiz-adv-x="663" 
d="M45 0l104 745h99l-59 -419l-25 10l413 409h126l-348 -345l15 70l244 -470h-110l-189 359l-141 -139l-30 -220h-99z" />
    <glyph glyph-name="L" unicode="L" horiz-adv-x="536" 
d="M45 0l104 745h99l-92 -655h327l-13 -90h-425z" />
    <glyph glyph-name="M" unicode="M" horiz-adv-x="856" 
d="M45 0l104 745h90l222 -401l-55 2l342 399h91l-104 -745h-98l86 620l34 -11l-332 -389h-8l-219 399l33 1l-87 -620h-99z" />
    <glyph glyph-name="N" unicode="N" horiz-adv-x="738" 
d="M45 0l104 745h83l337 -602l-31 -4l85 606h99l-104 -745h-83l-335 606l29 4l-85 -610h-99z" />
    <glyph glyph-name="O" unicode="O" horiz-adv-x="881" 
d="M431 -12q-76 0 -140.5 26.5t-113 74t-75 113t-26.5 144.5q0 86 30.5 160t85 131t128 88.5t158.5 31.5q77 0 142 -26t113 -74t75 -113.5t27 -143.5q0 -86 -31 -160.5t-86 -131t-128.5 -88.5t-158.5 -32zM432 79q65 0 120.5 25.5t96.5 69.5t64 101.5t23 122.5
q0 76 -32.5 136.5t-90 96t-135.5 35.5q-65 0 -120.5 -25.5t-96.5 -69.5t-64 -101t-23 -122q0 -76 33 -137t90.5 -96.5t134.5 -35.5z" />
    <glyph glyph-name="P" unicode="P" horiz-adv-x="644" 
d="M45 0l104 745h252q69 0 120 -26.5t79 -75.5t28 -117q0 -69 -33.5 -124t-93.5 -86t-141 -31h-176l-40 -285h-99zM197 375h169q48 0 84.5 20t57.5 54t21 79q0 59 -36.5 93t-97.5 34h-159z" />
    <glyph glyph-name="Q" unicode="Q" horiz-adv-x="881" 
d="M431 -12q-76 0 -140.5 26.5t-113 74t-75 113t-26.5 144.5q0 86 30.5 160t85 131t128 88.5t158.5 31.5q77 0 142 -26t113 -74t75 -113.5t27 -143.5q0 -86 -31 -160.5t-86 -131t-128.5 -88.5t-158.5 -32zM432 79q65 0 120.5 25.5t96.5 69.5t64 101.5t23 122.5
q0 76 -32.5 136.5t-90 96t-135.5 35.5q-65 0 -120.5 -25.5t-96.5 -69.5t-64 -101t-23 -122q0 -76 33 -137t90.5 -96.5t134.5 -35.5zM595 -90l-199 388h102l200 -388h-103z" />
    <glyph glyph-name="R" unicode="R" horiz-adv-x="651" 
d="M45 0l104 745h252q69 0 120 -26.5t79 -75.5t28 -117q0 -55 -21 -101t-60 -78.5t-93 -48.5l129 -298h-108l-138 325l60 -40h-213l-40 -285h-99zM197 375h169q48 0 84.5 20t57.5 54t21 79q0 59 -36.5 93t-97.5 34h-159z" />
    <glyph glyph-name="S" unicode="S" horiz-adv-x="648" 
d="M316 -12q-70 0 -127.5 25.5t-96.5 72t-53 107.5l88 30q18 -72 68.5 -109.5t124.5 -37.5q50 0 85.5 16.5t54 45.5t18.5 64q0 39 -23.5 64.5t-69.5 39.5l-130 42q-73 23 -111 71.5t-38 114.5q0 61 32 112t88.5 81t129.5 30q67 0 119.5 -24.5t87 -65.5t46.5 -93l-86 -31
q-15 60 -59.5 93t-108.5 33q-44 0 -78.5 -16t-53.5 -44.5t-19 -66.5q0 -36 22.5 -64.5t71.5 -43.5l118 -38q81 -26 121 -74t40 -114q0 -59 -32.5 -109t-90.5 -80.5t-138 -30.5z" />
    <glyph glyph-name="T" unicode="T" horiz-adv-x="523" 
d="M176 0l91 655h-201l12 90h500l-12 -90h-200l-92 -655h-98z" />
    <glyph glyph-name="U" unicode="U" horiz-adv-x="706" 
d="M323 -12q-83 0 -142 34.5t-87 94.5t-18 136l69 492h99l-68 -493q-7 -51 9.5 -90t53.5 -61t89 -22t94.5 22t70.5 61t35 92l69 491h98l-70 -497q-10 -76 -51.5 -134.5t-105.5 -92t-145 -33.5z" />
    <glyph glyph-name="V" unicode="V" horiz-adv-x="667" 
d="M242 0l-164 745h101l136 -655h-22l319 655h111l-373 -745h-108z" />
    <glyph glyph-name="W" unicode="W" horiz-adv-x="996" 
d="M183 0l-105 745h100l84 -656h-27l278 656h101l91 -656h-30l272 656h105l-313 -745h-109l-91 653h28l-275 -653h-109z" />
    <glyph glyph-name="X" unicode="X" horiz-adv-x="619" 
d="M-27 0l296 381l-183 364h105l163 -326l-46 3l239 323h120l-283 -374l186 -371h-105l-165 332l47 -5l-256 -327h-118z" />
    <glyph glyph-name="Y" unicode="Y" horiz-adv-x="635" 
d="M231 0l48 341l-201 404h105l169 -341l-40 3l261 338h118l-312 -404l-48 -341h-100z" />
    <glyph glyph-name="Z" unicode="Z" horiz-adv-x="581" 
d="M-18 0l10 72l478 583h-372l12 90h508l-9 -72l-480 -583h407l-13 -90h-541z" />
    <glyph glyph-name="bracketleft" unicode="[" horiz-adv-x="349" 
d="M35 -150l125 895h220l-11 -85h-122l-103 -725h123l-12 -85h-220z" />
    <glyph glyph-name="backslash" unicode="\" horiz-adv-x="451" 
d="M287 -120l-220 825h102l220 -825h-102z" />
    <glyph glyph-name="bracketright" unicode="]" horiz-adv-x="349" 
d="M-23 -150l12 85h122l102 725h-122l11 85h220l-125 -895h-220z" />
    <glyph glyph-name="asciicircum" unicode="^" horiz-adv-x="625" 
d="M121 423l214 322h88l125 -322h-101l-93 247h41l-163 -247h-111z" />
    <glyph glyph-name="underscore" unicode="_" horiz-adv-x="620" 
d="M29 -85l12 85h462l-12 -85h-462z" />
    <glyph glyph-name="grave" unicode="`" horiz-adv-x="362" 
d="M272 640l-88 158h125l57 -158h-94z" />
    <glyph glyph-name="a" unicode="a" 
d="M206 -12q-46 0 -85.5 16.5t-63.5 49t-24 81.5q0 47 23.5 83.5t67 60t102.5 32.5l204 33l-8 -78l-180 -31q-51 -9 -81 -33.5t-30 -61.5q0 -34 25.5 -53.5t66.5 -19.5q47 0 85.5 22t64 59.5t31.5 82.5l17 128q6 36 -9 59.5t-41.5 35t-56.5 11.5q-49 0 -87.5 -25t-59.5 -63
l-78 47q20 37 54.5 65.5t80 45t96.5 16.5q60 0 107.5 -25t72 -69t16.5 -102l-50 -355h-92l14 102l20 -9q-21 -32 -52 -55.5t-69 -36.5t-81 -13z" />
    <glyph glyph-name="b" unicode="b" horiz-adv-x="668" 
d="M332 -12q-68 0 -123.5 30t-82.5 82l16 15l-15 -115h-93l106 757h95l-47 -334l-28 24q34 49 87.5 76.5t118.5 27.5q75 0 132 -35t88.5 -94t31.5 -133q0 -61 -21.5 -115.5t-60.5 -96.5t-91 -65.5t-113 -23.5zM326 78q56 0 99 29t68.5 76.5t25.5 104.5q0 50 -21 89
t-57.5 61.5t-86.5 22.5q-55 0 -98.5 -28.5t-68 -75.5t-24.5 -103q0 -51 21 -91t58 -62.5t84 -22.5z" />
    <glyph glyph-name="c" unicode="c" horiz-adv-x="615" 
d="M303 -12q-74 0 -131 34.5t-89 94t-32 134.5q0 63 22 117.5t61.5 95.5t92 64t112.5 23q54 0 99.5 -18.5t78.5 -51.5t47 -76l-85 -38q-15 42 -52 68t-88 26q-55 0 -98 -29.5t-67 -77.5t-24 -103q0 -50 20 -89t56 -61.5t82 -22.5q52 0 93 27t64 71l81 -45q-21 -42 -57 -74
t-84 -50.5t-102 -18.5z" />
    <glyph glyph-name="d" unicode="d" horiz-adv-x="669" 
d="M300 -12q-73 0 -130 33.5t-88.5 92t-31.5 133.5q0 64 21.5 119.5t61 96.5t92 64.5t113.5 23.5q71 0 122.5 -29.5t79.5 -79.5l-16 -19l46 334h95l-105 -757h-92l15 115l25 -15q-31 -54 -87 -83t-121 -29zM310 78q55 0 99.5 29t70 76.5t25.5 103.5q0 50 -21 89t-58 62
t-85 23q-55 0 -99 -29t-68.5 -77t-24.5 -106q0 -49 20.5 -87.5t57 -61t83.5 -22.5z" />
    <glyph glyph-name="e" unicode="e" horiz-adv-x="616" 
d="M305 -12q-75 0 -132 34t-89.5 93.5t-32.5 135.5q0 61 20.5 115t59 96t89 65.5t111.5 23.5q76 0 129 -34t81 -88.5t28 -118.5q0 -17 -3 -36t-6 -32h-442l5 80h389l-47 -35q13 51 -2 91.5t-50 65t-83 24.5q-61 0 -101.5 -29.5t-61 -82t-20.5 -120.5q0 -50 21.5 -87
t57.5 -56.5t80 -19.5q55 0 94.5 25.5t64.5 64.5l77 -42q-19 -37 -54 -67.5t-82 -48t-101 -17.5z" />
    <glyph glyph-name="f" unicode="f" horiz-adv-x="401" 
d="M91 0l63 450h-103l13 89h103l5 33q9 61 39 102.5t73.5 62t92.5 20.5q14 0 28 -1.5t24 -3.5l-6 -83q-8 2 -18.5 2.5t-14.5 0.5q-48 0 -82.5 -23t-42.5 -82l-4 -28h128l-13 -89h-128l-62 -450h-95z" />
    <glyph glyph-name="g" unicode="g" horiz-adv-x="660" 
d="M269 -220q-60 0 -107 18.5t-77.5 51t-42.5 74.5l88 32q10 -36 46.5 -61t100.5 -25q43 0 82 16.5t66 48.5t33 80l18 129l26 -19q-31 -55 -85.5 -83.5t-118.5 -28.5q-68 0 -124.5 31.5t-89 88t-32.5 130.5q0 60 21 112.5t59.5 91.5t89.5 61.5t111 22.5q67 0 119 -29t81 -80
l-16 -23l16 120h93l-73 -527q-9 -69 -49.5 -121.5t-101 -81.5t-133.5 -29zM308 103q53 0 95.5 27t68 71t25.5 95q0 47 -20 84.5t-55.5 59t-83.5 21.5q-50 0 -93 -26t-68.5 -69.5t-25.5 -99.5q0 -46 20.5 -83t56 -58.5t80.5 -21.5z" />
    <glyph glyph-name="h" unicode="h" horiz-adv-x="580" 
d="M34 0l106 757h94l-45 -323l-16 11q26 51 74 78.5t105 27.5q59 0 102 -28t63.5 -76.5t11.5 -110.5l-47 -336h-95l46 328q8 61 -22 97t-85 36q-38 0 -70.5 -17.5t-54.5 -49.5t-28 -76l-44 -318h-95z" />
    <glyph glyph-name="i" unicode="i" horiz-adv-x="239" 
d="M34 0l76 539h94l-75 -539h-95zM122 625l16 120h95l-16 -120h-95z" />
    <glyph glyph-name="j" unicode="j" horiz-adv-x="240" 
d="M-78 -220q-10 0 -25 1.5t-24 3.5l7 82q11 -1 20.5 -1.5t17.5 -0.5q43 0 74.5 24.5t38.5 70.5l81 579h95l-82 -584q-9 -57 -37 -96.5t-71 -59t-95 -19.5zM124 625l17 120h95l-17 -120h-95z" />
    <glyph glyph-name="k" unicode="k" horiz-adv-x="557" 
d="M34 0l106 757h94l-72 -519l-46 9l327 292h127l-238 -217l176 -322h-104l-162 292l54 3l-181 -164l41 68l-28 -199h-94z" />
    <glyph glyph-name="l" unicode="l" horiz-adv-x="239" 
d="M34 0l106 757h95l-106 -757h-95z" />
    <glyph glyph-name="m" unicode="m" horiz-adv-x="914" 
d="M34 0l76 539h91l-14 -106l-11 16q28 51 72.5 76.5t98.5 25.5q64 0 109.5 -35t58.5 -94h-28q30 66 84.5 97.5t116.5 31.5q57 0 99 -27t63.5 -75t12.5 -110l-47 -339h-94l45 328q6 41 -5.5 70.5t-36 46t-60.5 16.5q-35 0 -67 -16t-53.5 -46t-27.5 -72l-45 -327h-94l46 328
q5 41 -6.5 70.5t-36 46t-60.5 16.5t-68 -17.5t-53 -49.5t-28 -76l-44 -318h-94z" />
    <glyph glyph-name="n" unicode="n" horiz-adv-x="580" 
d="M34 0l76 539h91l-14 -105l-14 11q26 51 74 78.5t105 27.5q59 0 102 -28t63.5 -76.5t11.5 -110.5l-47 -336h-94l46 328q8 61 -22 97t-86 36q-39 0 -71.5 -17.5t-54 -49.5t-28.5 -76l-44 -318h-94z" />
    <glyph glyph-name="o" unicode="o" horiz-adv-x="657" 
d="M314 -12q-74 0 -133.5 34t-94.5 94t-35 138q0 62 22.5 115.5t62.5 94.5t93.5 64t114.5 23q75 0 134.5 -34t94.5 -93.5t35 -136.5q0 -62 -23 -116t-64 -95.5t-94 -64.5t-113 -23zM313 78q56 0 100 29t70 76.5t26 104.5q0 50 -21 89t-58.5 61.5t-85.5 22.5
q-54 0 -98.5 -28.5t-70 -75.5t-25.5 -105q0 -50 21 -89.5t58 -62t84 -22.5z" />
    <glyph glyph-name="p" unicode="p" horiz-adv-x="668" 
d="M6 -200l104 739h92l-16 -116l-26 24q34 49 87.5 76.5t118.5 27.5q75 0 132 -35t88.5 -94t31.5 -133q0 -61 -21.5 -115.5t-60.5 -96.5t-91 -65.5t-113 -23.5q-68 0 -123.5 30t-82.5 82l20 15l-43 -315h-97zM326 78q56 0 99 29t68.5 76.5t25.5 104.5q0 50 -21 89
t-57.5 61.5t-86.5 22.5q-55 0 -98.5 -28.5t-68 -75.5t-24.5 -103q0 -51 21 -91t58 -62.5t84 -22.5z" />
    <glyph glyph-name="q" unicode="q" horiz-adv-x="670" 
d="M439 -200l42 315l27 -15q-31 -54 -87 -83t-121 -29q-73 0 -130 33.5t-88.5 92t-31.5 133.5q0 64 21.5 119.5t61 96.5t92 64.5t113.5 23.5q71 0 122.5 -29.5t79.5 -79.5l-14 -19l16 116h93l-102 -739h-94zM310 78q55 0 99.5 29t70 76.5t25.5 103.5q0 50 -21 89t-58 62
t-85 23q-55 0 -99 -29t-68.5 -77t-24.5 -106q0 -49 20.5 -87.5t57 -61t83.5 -22.5z" />
    <glyph glyph-name="r" unicode="r" horiz-adv-x="350" 
d="M34 0l76 539h92l-14 -99l-9 14q26 46 68 68.5t98 22.5h33l-13 -88h-47q-57 0 -96 -36.5t-50 -109.5l-43 -311h-95z" />
    <glyph glyph-name="s" unicode="s" horiz-adv-x="511" 
d="M236 -12q-53 0 -97.5 18.5t-75.5 52.5t-43 79l77 31q18 -47 56.5 -74t88.5 -27q48 0 77.5 23.5t29.5 58.5q0 26 -19 42.5t-53 25.5l-79 22q-61 17 -93.5 53.5t-32.5 87.5q0 47 27 85.5t72.5 61.5t100.5 23q74 0 127.5 -37.5t69.5 -101.5l-78 -31q-14 43 -46.5 66
t-76.5 23q-45 0 -73 -22t-28 -56q0 -26 16.5 -42t49.5 -26l85 -26q61 -18 93.5 -54.5t32.5 -87.5q0 -47 -27 -85t-74.5 -60.5t-106.5 -22.5z" />
    <glyph glyph-name="t" unicode="t" horiz-adv-x="399" 
d="M258 -6q-80 0 -118 46t-27 129l39 281h-97l12 89h18q36 0 61.5 23t29.5 59l6 42h95l-17 -124h119l-13 -89h-119l-40 -284q-4 -27 1 -46.5t22 -30t49 -10.5q9 0 19.5 1t19.5 2l-7 -83q-13 -4 -28.5 -4.5t-24.5 -0.5z" />
    <glyph glyph-name="u" unicode="u" horiz-adv-x="581" 
d="M229 -12q-60 0 -103 28t-62.5 79t-10.5 120l46 324h94l-47 -328q-5 -40 7 -70t38 -46.5t64 -16.5q39 0 71 17.5t54 49.5t28 76l45 318h93l-75 -539h-91l14 105l14 -11q-26 -52 -73.5 -79t-105.5 -27z" />
    <glyph glyph-name="v" unicode="v" horiz-adv-x="533" 
d="M183 0l-134 539h99l105 -456h-35l234 456h108l-288 -539h-89z" />
    <glyph glyph-name="w" unicode="w" horiz-adv-x="826" 
d="M158 0l-109 539h98l84 -451l-36 1l210 450h88l81 -450l-36 -1l210 451h105l-261 -539h-89l-78 450h31l-209 -450h-89z" />
    <glyph glyph-name="x" unicode="x" horiz-adv-x="513" 
d="M-27 0l229 274l-146 265h105l125 -230l-51 3l186 227h119l-226 -272l148 -267h-105l-126 230l45 -3l-186 -227h-117z" />
    <glyph glyph-name="y" unicode="y" horiz-adv-x="553" 
d="M36 -220q-19 0 -37.5 3.5t-33.5 9.5l7 82q11 -2 26.5 -4.5t29.5 -2.5q33 0 55.5 10t41 31t37.5 53l47 79l-11 -81l-149 579h98l114 -460h-34l247 460h106l-328 -605q-23 -44 -54 -79t-71 -55t-91 -20z" />
    <glyph glyph-name="z" unicode="z" horiz-adv-x="461" 
d="M-18 0l10 79l373 403l16 -32h-320l13 89h403l-10 -79l-371 -403l-15 32h335l-12 -89h-422z" />
    <glyph glyph-name="braceleft" unicode="{" horiz-adv-x="345" 
d="M213 -150q-71 0 -107.5 40t-27.5 108l27 187q4 31 -8.5 49.5t-42.5 18.5h-29l12 85h29q30 0 48 18.5t22 49.5l26 192q10 67 58 107t118 40h38l-12 -85h-38q-26 0 -44 -17t-22 -46l-25 -184q-4 -36 -22 -66t-47 -51q23 -19 32 -49t4 -64l-27 -184q-3 -28 9.5 -46t40.5 -18
h38l-12 -85h-38z" />
    <glyph glyph-name="bar" unicode="|" horiz-adv-x="333" 
d="M53 -190l146 1035h97l-146 -1035h-97z" />
    <glyph glyph-name="braceright" unicode="}" horiz-adv-x="344" 
d="M-23 -150l12 85h38q27 0 45 17.5t22 46.5l24 184q5 34 22.5 64t45.5 49q-22 20 -31.5 50t-3.5 67l26 184q5 29 -8.5 46t-39.5 17h-38l11 85h38q71 0 108 -40t27 -107l-27 -192q-4 -31 8 -49.5t42 -18.5h29l-12 -85h-29q-29 0 -47 -18.5t-22 -49.5l-27 -187
q-9 -68 -56.5 -108t-118.5 -40h-38z" />
    <glyph glyph-name="asciitilde" unicode="~" horiz-adv-x="625" 
d="M407 210q-34 0 -56.5 10.5t-40 24t-34 24t-39.5 10.5q-29 0 -50 -18t-31 -50h-80q9 71 52.5 111t99.5 40q34 0 57 -10.5t39.5 -24t33.5 -24t40 -10.5q26 0 46 17t30 51h80q-8 -71 -49.5 -111t-97.5 -40z" />
    <glyph glyph-name="uni00A0" unicode="&#xa0;" horiz-adv-x="173" 
 />
    <glyph glyph-name="exclamdown" unicode="&#xa1;" horiz-adv-x="312" 
d="M41 -206l80 527h85l-67 -527h-98zM129 419l16 120h98l-17 -120h-97z" />
    <glyph glyph-name="cent" unicode="&#xa2;" horiz-adv-x="614" 
d="M317 92q-74 0 -131 34t-89 93.5t-32 135.5q0 63 22 117.5t61.5 95.5t92 63.5t112.5 22.5q54 0 99.5 -18.5t78.5 -51t47 -76.5l-85 -37q-15 42 -52 67.5t-88 25.5q-55 0 -98 -29t-67 -77t-24 -103q0 -51 20 -90t56 -61t82 -22q52 0 93 27t64 71l81 -45q-21 -42 -57 -74
t-84 -50.5t-102 -18.5zM243 0l105 745h76l-105 -745h-76z" />
    <glyph glyph-name="sterling" unicode="&#xa3;" horiz-adv-x="651" 
d="M5 0l11 85h100l64 449q9 68 44.5 117.5t92 77.5t126.5 28q62 0 109 -24t73.5 -68t25.5 -104l-91 -16q2 62 -31 93.5t-89 31.5q-66 0 -109 -38t-52 -103l-63 -444h333l-11 -85h-533zM52 343l10 71h373l-10 -71h-373z" />
    <glyph glyph-name="currency" unicode="&#xa4;" horiz-adv-x="604" 
d="M89 24l-52 58l85 76q-12 20 -18 43t-6 47q0 35 12.5 69t34.5 63l-69 77l64 58l69 -77q27 16 56.5 25t57.5 9q29 0 57 -9t50 -25l85 77l52 -58l-85 -77q12 -22 18 -44.5t6 -45.5q0 -35 -12.5 -69t-34.5 -63l69 -76l-64 -58l-69 76q-25 -15 -54.5 -24.5t-59.5 -9.5
q-28 0 -56 8.5t-51 25.5zM290 156q34 0 62 17.5t46 46t18 61.5q0 29 -13.5 52t-36.5 36.5t-52 13.5q-34 0 -63 -17.5t-46.5 -46t-17.5 -62.5q0 -28 13.5 -51.5t37 -36.5t52.5 -13z" />
    <glyph glyph-name="yen" unicode="&#xa5;" horiz-adv-x="635" 
d="M231 0l48 341l-201 404h105l169 -341l-40 3l261 338h118l-312 -404l-48 -341h-100zM135 302l10 71h373l-10 -71h-373zM114 150l10 72h372l-9 -72h-373z" />
    <glyph glyph-name="brokenbar" unicode="&#xa6;" horiz-adv-x="333" 
d="M140 428l59 417h97l-59 -417h-97zM53 -190l59 418h97l-59 -418h-97z" />
    <glyph glyph-name="section" unicode="&#xa7;" horiz-adv-x="530" 
d="M229 -102q-84 0 -143 41.5t-78 113.5l80 36q20 -51 59 -80.5t90 -29.5q34 0 60.5 12t42.5 32t16 46q0 22 -12.5 36.5t-30.5 23t-36 13.5l-83 25q-67 20 -99 56.5t-32 84.5q0 51 28.5 92.5t77 66t108.5 24.5l-8 -58q-31 0 -55 -13t-38 -35.5t-14 -52.5q0 -24 11.5 -40.5
t29 -25t33.5 -14.5l87 -26q62 -19 95.5 -57t33.5 -89q0 -52 -29 -93t-79.5 -65t-114.5 -24zM257 164l6 56q34 0 61 14t43 37.5t16 53.5q0 24 -12.5 40.5t-31 27.5t-38.5 16l-79 24q-68 20 -99.5 57t-31.5 84q0 51 28.5 92.5t77 66t108.5 24.5q73 0 129 -37.5t73 -104.5
l-80 -37q-15 45 -51 70.5t-82 25.5q-30 0 -54 -11t-37.5 -30t-13.5 -45q0 -22 11.5 -35.5t28 -21t31.5 -12.5l90 -27q62 -19 96 -57t34 -89q0 -52 -29 -93t-79.5 -65t-114.5 -24z" />
    <glyph glyph-name="dieresis" unicode="&#xa8;" horiz-adv-x="469" 
d="M162 640l15 113h113l-16 -113h-112zM354 640l16 113h112l-15 -113h-113z" />
    <glyph glyph-name="copyright" unicode="&#xa9;" horiz-adv-x="912" 
d="M447 -12q-77 0 -143 27.5t-115.5 76.5t-76.5 114.5t-27 141.5q0 84 32.5 158t89.5 130t131 88.5t158 32.5q77 0 142.5 -27.5t114.5 -77t76 -114.5t27 -140q0 -85 -32.5 -159t-89.5 -130.5t-131 -88.5t-156 -32zM447 66q68 0 127.5 25.5t105.5 71.5t72.5 106t26.5 129
q0 60 -21.5 111t-59.5 89.5t-90 60t-113 21.5q-68 0 -128 -26t-106 -71.5t-72 -105.5t-26 -129q0 -80 37 -144t101.5 -101t145.5 -37zM464 163q-56 0 -99.5 25.5t-68 70t-24.5 100.5q0 65 29 115t78.5 79t109.5 29q44 0 78.5 -15t57.5 -39.5t31 -53.5l-72 -29q-9 27 -33 46
t-62 19q-39 0 -70 -19.5t-48.5 -54t-17.5 -79.5q0 -54 30 -87.5t82 -33.5q37 0 65.5 19t41.5 48l71 -34q-13 -29 -38.5 -53t-61.5 -38.5t-79 -14.5z" />
    <glyph glyph-name="ordfeminine" unicode="&#xaa;" horiz-adv-x="452" 
d="M203 359q-53 0 -89 26.5t-36 77.5q0 35 18 61t50 42t73 22l132 22l-6 -66l-114 -20q-27 -5 -46 -19t-19 -37q0 -21 15 -32.5t40 -11.5q29 0 53 14t39.5 37t19.5 50l12 95q5 31 -17 46.5t-50 15.5q-32 0 -57.5 -16.5t-38.5 -43.5l-68 39q21 43 67 68.5t103 25.5
q44 0 79 -17.5t53.5 -49t12.5 -73.5l-34 -248h-81l9 68l21 -3q-25 -36 -61 -54.5t-80 -18.5z" />
    <glyph glyph-name="guillemotleft" unicode="&#xab;" horiz-adv-x="592" 
d="M159 77l-125 192l181 193h114l-187 -203l118 -182h-101zM414 77l-125 192l181 193h114l-187 -203l118 -182h-101z" />
    <glyph glyph-name="logicalnot" unicode="&#xac;" horiz-adv-x="625" 
d="M443 40l24 167h-413l12 87h500l-35 -254h-88z" />
    <glyph glyph-name="registered" unicode="&#xae;" horiz-adv-x="655" 
d="M348 272q-68 0 -123 32t-86.5 86.5t-31.5 122.5q0 55 21.5 104t59.5 86.5t87.5 59t104.5 21.5q68 0 122.5 -32t86.5 -86.5t32 -121.5q0 -55 -22 -104.5t-60 -87t-87 -59t-104 -21.5zM348 334q57 0 105 28.5t77 76.5t29 106q0 51 -23.5 90.5t-64 63t-91.5 23.5
q-58 0 -106.5 -28.5t-77 -76t-28.5 -105.5q0 -51 23.5 -91t64.5 -63.5t92 -23.5zM243 394l38 270h102q41 0 67 -20.5t26 -61.5q0 -29 -13 -50t-35 -32l53 -106h-69l-45 94h-46l-13 -94h-65zM328 543h48q15 0 26 11t11 26q0 13 -8.5 20.5t-22.5 7.5h-44z" />
    <glyph glyph-name="macron" unicode="&#xaf;" horiz-adv-x="445" 
d="M164 660l12 83h288l-12 -83h-288z" />
    <glyph glyph-name="degree" unicode="&#xb0;" horiz-adv-x="501" 
d="M284 434q-43 0 -77 19.5t-54 53.5t-20 76q0 49 23.5 88t63 62.5t87.5 23.5q44 0 78 -19.5t54 -53.5t20 -77q0 -47 -23.5 -86.5t-63 -63t-88.5 -23.5zM289 506q28 0 49.5 13t35 35t13.5 49q0 37 -25 60t-61 23q-40 0 -68 -28.5t-28 -69.5q0 -37 24.5 -59.5t59.5 -22.5z
" />
    <glyph glyph-name="plusminus" unicode="&#xb1;" horiz-adv-x="625" 
d="M254 158l23 164h-207l13 87h207l23 164h87l-22 -164h205l-13 -87h-204l-23 -164h-89zM25 0l13 88h500l-13 -88h-500z" />
    <glyph glyph-name="uni00B2" unicode="&#xb2;" horiz-adv-x="435" 
d="M42 223l6 65l158 150q48 46 76 74.5t40 50.5t12 47q0 30 -19.5 47t-51.5 17q-37 0 -65 -21t-43 -60l-75 26q19 62 70 98t116 36q46 0 81 -16.5t55 -47t20 -71.5q0 -38 -15.5 -69.5t-42 -60.5t-58.5 -60l-140 -130h234l-11 -75h-347z" />
    <glyph glyph-name="uni00B3" unicode="&#xb3;" horiz-adv-x="432" 
d="M212 215q-43 0 -80.5 15.5t-62 43.5t-31.5 66l78 28q11 -37 37.5 -56t62.5 -19q47 0 77 28.5t30 73.5q0 40 -24.5 62.5t-65.5 22.5q-11 0 -25.5 -2.5t-26.5 -7.5l-15 41l154 160h-220l10 74h322l-9 -70l-151 -160l-3 30q44 0 75.5 -19.5t49 -53t17.5 -75.5
q0 -53 -27.5 -94.5t-72.5 -64.5t-99 -23z" />
    <glyph glyph-name="acute" unicode="&#xb4;" horiz-adv-x="362" 
d="M162 640l102 158h126l-135 -158h-93z" />
    <glyph glyph-name="uni00B5" unicode="&#xb5;" horiz-adv-x="580" 
d="M3 -140l96 679h94l-46 -329q-6 -40 5.5 -70t37.5 -46t62 -16q40 0 72.5 18t54.5 50t28 76l45 317h94l-75 -539h-91l14 110l10 -19q-25 -51 -71.5 -77t-103.5 -26q-40 0 -72.5 14t-56.5 36l26 28l-28 -206h-95z" />
    <glyph glyph-name="paragraph" unicode="&#xb6;" horiz-adv-x="453" 
d="M186 -100l67 485q-52 0 -89.5 23.5t-55 64.5t-10.5 92q7 52 36 92.5t73 64t97 23.5h98l-118 -845h-98z" />
    <glyph glyph-name="periodcentered" unicode="&#xb7;" horiz-adv-x="317" 
d="M101 209l17 120h98l-18 -120h-97z" />
    <glyph glyph-name="cedilla" unicode="&#xb8;" horiz-adv-x="382" 
d="M146 -232q-28 0 -56.5 9.5t-45.5 25.5l32 61q14 -13 31.5 -20t35.5 -7q23 0 38.5 12.5t15.5 31.5t-22.5 30.5t-66.5 16.5l34 82h62l-18 -45q45 -9 69.5 -30t24.5 -54q0 -32 -18 -57.5t-48 -40.5t-68 -15z" />
    <glyph glyph-name="uni00B9" unicode="&#xb9;" horiz-adv-x="308" 
d="M113 223l62 447h-99l10 75h188l-73 -522h-88z" />
    <glyph glyph-name="ordmasculine" unicode="&#xba;" horiz-adv-x="500" 
d="M279 359q-53 0 -95.5 24t-68 66.5t-25.5 96.5q0 59 28.5 106t77 75t105.5 28q54 0 96.5 -23.5t67.5 -66t25 -96.5q0 -58 -28.5 -106t-76.5 -76t-106 -28zM280 437q35 0 62.5 18t43.5 48.5t16 66.5q0 47 -28.5 77t-72.5 30q-35 0 -62.5 -17.5t-44 -47.5t-16.5 -67
q0 -31 13 -55.5t36 -38.5t53 -14z" />
    <glyph glyph-name="guillemotright" unicode="&#xbb;" horiz-adv-x="592" 
d="M262 77l188 202l-119 183h101l125 -193l-180 -192h-115zM7 77l188 202l-119 183h101l125 -193l-180 -192h-115z" />
    <glyph glyph-name="onequarter" unicode="&#xbc;" horiz-adv-x="883" 
d="M109 328l48 350h-80l9 67h161l-58 -417h-80zM81 0l550 745h91l-550 -745h-91zM671 0l14 92h-191l9 66l222 259h84l-37 -259h61l-9 -66h-61l-12 -92h-80zM557 129l-9 29h145l28 197l21 -6z" />
    <glyph glyph-name="onehalf" unicode="&#xbd;" horiz-adv-x="849" 
d="M109 328l48 350h-80l9 67h161l-58 -417h-80zM81 0l550 745h91l-550 -745h-91zM492 0l6 60l123 117q38 35 59.5 57t30.5 38.5t9 34.5q0 21 -14 33.5t-37 12.5q-27 0 -47.5 -16t-31.5 -44l-68 25q16 49 58 77.5t94 28.5q54 0 90 -30t36 -80q0 -31 -13.5 -57t-34 -48
t-41.5 -42l-108 -99h179l-9 -68h-281z" />
    <glyph glyph-name="threequarters" unicode="&#xbe;" horiz-adv-x="966" 
d="M192 321q-34 0 -64.5 12.5t-51 36t-25.5 54.5l72 25q7 -28 26.5 -42t45.5 -14q35 0 57 21.5t22 53.5q0 28 -18 44t-48 16q-10 0 -22.5 -2t-22.5 -7l-14 38l121 122h-169l9 66h261l-8 -63l-121 -124l-1 29q53 0 83 -33.5t30 -83.5q0 -44 -22.5 -77.5t-59.5 -52.5t-80 -19z
M165 0l550 745h91l-550 -745h-91zM754 0l14 92h-191l9 66l222 259h84l-37 -259h61l-9 -66h-61l-12 -92h-80zM640 129l-9 29h145l28 197l21 -6z" />
    <glyph glyph-name="questiondown" unicode="&#xbf;" horiz-adv-x="528" 
d="M207 -218q-61 0 -106 24.5t-68.5 64t-23.5 85.5t20 82t50.5 66t61.5 59q35 32 58.5 67t32.5 80l2 11h95l-3 -14q-12 -65 -42.5 -111t-72.5 -85q-25 -22 -48.5 -44t-39 -47t-15.5 -58q0 -37 27.5 -65t79.5 -28q51 0 90 32t52 85l87 -20q-13 -55 -46.5 -96.5t-82.5 -64.5
t-108 -23zM243 419l18 120h97l-17 -120h-98z" />
    <glyph glyph-name="Agrave" unicode="&#xc0;" horiz-adv-x="672" 
d="M-27 0l371 745h116l163 -745h-101l-37 175h-317l-85 -175h-110zM212 265h255l-85 408l28 -3zM370 847l-88 158h125l57 -158h-94z" />
    <glyph glyph-name="Aacute" unicode="&#xc1;" horiz-adv-x="672" 
d="M-27 0l371 745h116l163 -745h-101l-37 175h-317l-85 -175h-110zM212 265h255l-85 408l28 -3zM370 847l102 158h126l-135 -158h-93z" />
    <glyph glyph-name="Acircumflex" unicode="&#xc2;" horiz-adv-x="672" 
d="M-27 0l371 745h116l163 -745h-101l-37 175h-317l-85 -175h-110zM212 265h255l-85 408l28 -3zM219 847l141 155h108l97 -155h-95l-59 91l-84 -91h-108z" />
    <glyph glyph-name="Atilde" unicode="&#xc3;" horiz-adv-x="672" 
d="M-27 0l371 745h116l163 -745h-101l-37 175h-317l-85 -175h-110zM212 265h255l-85 408l28 -3zM481 847q-27 0 -42.5 9t-25.5 21t-20.5 21t-27.5 9q-16 0 -27.5 -13t-15.5 -43h-76q7 45 25 74.5t44 44.5t56 15q27 0 42.5 -9t26 -21t21 -21t27.5 -9q19 0 30.5 15t15.5 41h74
q-9 -63 -44.5 -98.5t-82.5 -35.5z" />
    <glyph glyph-name="Adieresis" unicode="&#xc4;" horiz-adv-x="672" 
d="M-27 0l371 745h116l163 -745h-101l-37 175h-317l-85 -175h-110zM212 265h255l-85 408l28 -3zM265 847l15 113h113l-16 -113h-112zM457 847l16 113h112l-15 -113h-113z" />
    <glyph glyph-name="Aring" unicode="&#xc5;" horiz-adv-x="672" 
d="M-27 0l371 745h116l163 -745h-101l-37 175h-317l-85 -175h-110zM212 265h255l-85 408l28 -3zM414 820q-43 0 -72 25t-29 69q0 36 18 65t47.5 46.5t66.5 17.5q43 0 71.5 -25.5t28.5 -68.5q0 -36 -17.5 -65.5t-47.5 -46.5t-66 -17zM423 882q23 0 39.5 17t16.5 41
q0 18 -12 29.5t-31 11.5q-23 0 -39.5 -17t-16.5 -41q0 -19 12 -30t31 -11z" />
    <glyph glyph-name="AE" unicode="&#xc6;" horiz-adv-x="987" 
d="M-27 0l371 745h671l-13 -90h-386l-34 -236h367l-12 -90h-367l-34 -239h387l-13 -90h-485l24 175h-280l-86 -175h-110zM212 265h250l55 390h-114z" />
    <glyph glyph-name="Ccedilla" unicode="&#xc7;" horiz-adv-x="794" 
d="M416 -12q-72 0 -134 24.5t-108 71.5t-72 112.5t-26 147.5q0 86 29 161t81.5 131.5t123.5 88.5t154 32q80 0 140.5 -27.5t100 -71t54.5 -91.5l-93 -39q-22 62 -73.5 100t-130.5 38q-62 0 -114.5 -24t-91.5 -68t-60.5 -102.5t-21.5 -127.5q0 -80 30.5 -139.5t85.5 -92.5
t127 -33q80 0 138 39t89 101l88 -44q-22 -48 -67 -91t-108 -69.5t-141 -26.5zM395 -232q-28 0 -56.5 9.5t-45.5 25.5l32 61q14 -13 31.5 -20t35.5 -7q23 0 38.5 12.5t15.5 31.5t-22.5 30.5t-66.5 16.5l34 82h62l-18 -45q45 -9 69.5 -30t24.5 -54q0 -32 -18 -57.5t-48 -40.5
t-68 -15z" />
    <glyph glyph-name="Egrave" unicode="&#xc8;" horiz-adv-x="607" 
d="M45 0l104 745h486l-13 -90h-386l-34 -236h367l-12 -90h-367l-34 -239h387l-12 -90h-486zM359 847l-88 158h125l57 -158h-94z" />
    <glyph glyph-name="Eacute" unicode="&#xc9;" horiz-adv-x="607" 
d="M45 0l104 745h486l-13 -90h-386l-34 -236h367l-12 -90h-367l-34 -239h387l-12 -90h-486zM359 847l102 158h126l-135 -158h-93z" />
    <glyph glyph-name="Ecircumflex" unicode="&#xca;" horiz-adv-x="607" 
d="M45 0l104 745h486l-13 -90h-386l-34 -236h367l-12 -90h-367l-34 -239h387l-12 -90h-486zM208 847l141 155h108l97 -155h-95l-59 91l-84 -91h-108z" />
    <glyph glyph-name="Edieresis" unicode="&#xcb;" horiz-adv-x="607" 
d="M45 0l104 745h486l-13 -90h-386l-34 -236h367l-12 -90h-367l-34 -239h387l-12 -90h-486zM255 847l15 113h113l-16 -113h-112zM447 847l16 113h112l-15 -113h-113z" />
    <glyph glyph-name="Igrave" unicode="&#xcc;" horiz-adv-x="265" 
d="M45 0l104 745h99l-104 -745h-99zM167 847l-88 158h125l57 -158h-94z" />
    <glyph glyph-name="Iacute" unicode="&#xcd;" horiz-adv-x="265" 
d="M45 0l104 745h99l-104 -745h-99zM167 847l102 158h126l-135 -158h-93z" />
    <glyph glyph-name="Icircumflex" unicode="&#xce;" horiz-adv-x="265" 
d="M45 0l104 745h99l-104 -745h-99zM16 847l141 155h108l97 -155h-95l-59 91l-84 -91h-108z" />
    <glyph glyph-name="Idieresis" unicode="&#xcf;" horiz-adv-x="265" 
d="M45 0l104 745h99l-104 -745h-99zM62 847l15 113h113l-16 -113h-112zM254 847l16 113h112l-15 -113h-113z" />
    <glyph glyph-name="Eth" unicode="&#xd0;" horiz-adv-x="744" 
d="M33 331l12 85h316l-12 -85h-316zM45 0l104 745h232q103 0 178.5 -42.5t117 -117t41.5 -172.5q0 -90 -28 -165.5t-81.5 -131t-128.5 -86t-169 -30.5h-266zM156 90h157q68 0 123 23t95.5 65.5t62.5 100.5t22 128q0 76 -29.5 132t-84 86t-130.5 30h-136z" />
    <glyph glyph-name="Ntilde" unicode="&#xd1;" horiz-adv-x="738" 
d="M45 0l104 745h83l337 -602l-31 -4l85 606h99l-104 -745h-83l-335 606l29 4l-85 -610h-99zM514 847q-27 0 -42.5 9t-25.5 21t-20.5 21t-27.5 9q-16 0 -27.5 -13t-15.5 -43h-76q7 45 25 74.5t44 44.5t56 15q27 0 42.5 -9t26 -21t21 -21t27.5 -9q19 0 30.5 15t15.5 41h74
q-9 -63 -44.5 -98.5t-82.5 -35.5z" />
    <glyph glyph-name="Ograve" unicode="&#xd2;" horiz-adv-x="881" 
d="M431 -12q-76 0 -140.5 26.5t-113 74t-75 113t-26.5 144.5q0 86 30.5 160t85 131t128 88.5t158.5 31.5q77 0 142 -26t113 -74t75 -113.5t27 -143.5q0 -86 -31 -160.5t-86 -131t-128.5 -88.5t-158.5 -32zM432 79q65 0 120.5 25.5t96.5 69.5t64 101.5t23 122.5
q0 76 -32.5 136.5t-90 96t-135.5 35.5q-65 0 -120.5 -25.5t-96.5 -69.5t-64 -101t-23 -122q0 -76 33 -137t90.5 -96.5t134.5 -35.5zM475 847l-88 158h125l57 -158h-94z" />
    <glyph glyph-name="Oacute" unicode="&#xd3;" horiz-adv-x="881" 
d="M431 -12q-76 0 -140.5 26.5t-113 74t-75 113t-26.5 144.5q0 86 30.5 160t85 131t128 88.5t158.5 31.5q77 0 142 -26t113 -74t75 -113.5t27 -143.5q0 -86 -31 -160.5t-86 -131t-128.5 -88.5t-158.5 -32zM432 79q65 0 120.5 25.5t96.5 69.5t64 101.5t23 122.5
q0 76 -32.5 136.5t-90 96t-135.5 35.5q-65 0 -120.5 -25.5t-96.5 -69.5t-64 -101t-23 -122q0 -76 33 -137t90.5 -96.5t134.5 -35.5zM475 847l102 158h126l-135 -158h-93z" />
    <glyph glyph-name="Ocircumflex" unicode="&#xd4;" horiz-adv-x="881" 
d="M431 -12q-76 0 -140.5 26.5t-113 74t-75 113t-26.5 144.5q0 86 30.5 160t85 131t128 88.5t158.5 31.5q77 0 142 -26t113 -74t75 -113.5t27 -143.5q0 -86 -31 -160.5t-86 -131t-128.5 -88.5t-158.5 -32zM432 79q65 0 120.5 25.5t96.5 69.5t64 101.5t23 122.5
q0 76 -32.5 136.5t-90 96t-135.5 35.5q-65 0 -120.5 -25.5t-96.5 -69.5t-64 -101t-23 -122q0 -76 33 -137t90.5 -96.5t134.5 -35.5zM324 847l141 155h108l97 -155h-95l-59 91l-84 -91h-108z" />
    <glyph glyph-name="Otilde" unicode="&#xd5;" horiz-adv-x="881" 
d="M431 -12q-76 0 -140.5 26.5t-113 74t-75 113t-26.5 144.5q0 86 30.5 160t85 131t128 88.5t158.5 31.5q77 0 142 -26t113 -74t75 -113.5t27 -143.5q0 -86 -31 -160.5t-86 -131t-128.5 -88.5t-158.5 -32zM432 79q65 0 120.5 25.5t96.5 69.5t64 101.5t23 122.5
q0 76 -32.5 136.5t-90 96t-135.5 35.5q-65 0 -120.5 -25.5t-96.5 -69.5t-64 -101t-23 -122q0 -76 33 -137t90.5 -96.5t134.5 -35.5zM586 847q-27 0 -42.5 9t-25.5 21t-20.5 21t-27.5 9q-16 0 -27.5 -13t-15.5 -43h-76q7 45 25 74.5t44 44.5t56 15q27 0 42.5 -9t26 -21
t21 -21t27.5 -9q19 0 30.5 15t15.5 41h74q-9 -63 -44.5 -98.5t-82.5 -35.5z" />
    <glyph glyph-name="Odieresis" unicode="&#xd6;" horiz-adv-x="881" 
d="M431 -12q-76 0 -140.5 26.5t-113 74t-75 113t-26.5 144.5q0 86 30.5 160t85 131t128 88.5t158.5 31.5q77 0 142 -26t113 -74t75 -113.5t27 -143.5q0 -86 -31 -160.5t-86 -131t-128.5 -88.5t-158.5 -32zM432 79q65 0 120.5 25.5t96.5 69.5t64 101.5t23 122.5
q0 76 -32.5 136.5t-90 96t-135.5 35.5q-65 0 -120.5 -25.5t-96.5 -69.5t-64 -101t-23 -122q0 -76 33 -137t90.5 -96.5t134.5 -35.5zM370 847l15 113h113l-16 -113h-112zM562 847l16 113h112l-15 -113h-113z" />
    <glyph glyph-name="multiply" unicode="&#xd7;" horiz-adv-x="625" 
d="M119 0l-60 66l184 161l-134 155l69 62l134 -155l181 159l59 -66l-182 -159l138 -161l-68 -62l-138 161z" />
    <glyph glyph-name="Oslash" unicode="&#xd8;" horiz-adv-x="881" 
d="M39 0l714 745h120l-714 -745h-120zM431 -12q-76 0 -140.5 26.5t-113 74t-75 113t-26.5 144.5q0 86 30.5 160t85 131t128 88.5t158.5 31.5q77 0 142 -26t113 -74t75 -113.5t27 -143.5q0 -86 -31 -160.5t-86 -131t-128.5 -88.5t-158.5 -32zM432 79q65 0 120.5 25.5
t96.5 69.5t64 101.5t23 122.5q0 76 -32.5 136.5t-90 96t-135.5 35.5q-65 0 -120.5 -25.5t-96.5 -69.5t-64 -101t-23 -122q0 -76 33 -137t90.5 -96.5t134.5 -35.5z" />
    <glyph glyph-name="Ugrave" unicode="&#xd9;" horiz-adv-x="706" 
d="M323 -12q-83 0 -142 34.5t-87 94.5t-18 136l69 492h99l-68 -493q-7 -51 9.5 -90t53.5 -61t89 -22t94.5 22t70.5 61t35 92l69 491h98l-70 -497q-10 -76 -51.5 -134.5t-105.5 -92t-145 -33.5zM387 847l-88 158h125l57 -158h-94z" />
    <glyph glyph-name="Uacute" unicode="&#xda;" horiz-adv-x="706" 
d="M323 -12q-83 0 -142 34.5t-87 94.5t-18 136l69 492h99l-68 -493q-7 -51 9.5 -90t53.5 -61t89 -22t94.5 22t70.5 61t35 92l69 491h98l-70 -497q-10 -76 -51.5 -134.5t-105.5 -92t-145 -33.5zM387 847l102 158h126l-135 -158h-93z" />
    <glyph glyph-name="Ucircumflex" unicode="&#xdb;" horiz-adv-x="706" 
d="M323 -12q-83 0 -142 34.5t-87 94.5t-18 136l69 492h99l-68 -493q-7 -51 9.5 -90t53.5 -61t89 -22t94.5 22t70.5 61t35 92l69 491h98l-70 -497q-10 -76 -51.5 -134.5t-105.5 -92t-145 -33.5zM236 847l141 155h108l97 -155h-95l-59 91l-84 -91h-108z" />
    <glyph glyph-name="Udieresis" unicode="&#xdc;" horiz-adv-x="706" 
d="M323 -12q-83 0 -142 34.5t-87 94.5t-18 136l69 492h99l-68 -493q-7 -51 9.5 -90t53.5 -61t89 -22t94.5 22t70.5 61t35 92l69 491h98l-70 -497q-10 -76 -51.5 -134.5t-105.5 -92t-145 -33.5zM282 847l15 113h113l-16 -113h-112zM474 847l16 113h112l-15 -113h-113z" />
    <glyph glyph-name="Yacute" unicode="&#xdd;" horiz-adv-x="635" 
d="M231 0l48 341l-201 404h105l169 -341l-40 3l261 338h118l-312 -404l-48 -341h-100zM352 847l102 158h126l-135 -158h-93z" />
    <glyph glyph-name="Thorn" unicode="&#xde;" horiz-adv-x="659" 
d="M38 0l104 745h99l-20 -142h173q69 0 120 -27t78.5 -75.5t27.5 -116.5q0 -70 -33.5 -124.5t-93 -85.5t-140.5 -31h-197l-19 -143h-99zM169 233h189q49 0 85.5 19.5t57 54t20.5 78.5q0 60 -36 94t-98 34h-179z" />
    <glyph glyph-name="germandbls" unicode="&#xdf;" horiz-adv-x="617" 
d="M24 -152l96 682q10 71 46.5 122t92 78t120.5 27q60 0 104.5 -21t70 -59.5t25.5 -91.5q0 -36 -14.5 -77t-46 -74.5t-84.5 -50.5l3 26q61 -21 92.5 -63.5t31.5 -106.5q0 -35 -13.5 -77t-44.5 -78.5t-85 -60t-135 -23.5h-56l11 85h50q53 0 87.5 15t53 39t26.5 50t8 47
q0 55 -34.5 86t-98.5 31h-54l12 85h40q44 0 73.5 15t46.5 37.5t24.5 46.5t7.5 42q0 43 -28 68t-77 25q-41 0 -75.5 -18t-57 -51t-29.5 -78l-94 -677h-95z" />
    <glyph glyph-name="agrave" unicode="&#xe0;" 
d="M206 -12q-46 0 -85.5 16.5t-63.5 49t-24 81.5q0 47 23.5 83.5t67 60t102.5 32.5l204 33l-8 -78l-180 -31q-51 -9 -81 -33.5t-30 -61.5q0 -34 25.5 -53.5t66.5 -19.5q47 0 85.5 22t64 59.5t31.5 82.5l17 128q6 36 -9 59.5t-41.5 35t-56.5 11.5q-49 0 -87.5 -25t-59.5 -63
l-78 47q20 37 54.5 65.5t80 45t96.5 16.5q60 0 107.5 -25t72 -69t16.5 -102l-50 -355h-92l14 102l20 -9q-21 -32 -52 -55.5t-69 -36.5t-81 -13zM293 640l-88 158h125l57 -158h-94z" />
    <glyph glyph-name="aacute" unicode="&#xe1;" 
d="M206 -12q-46 0 -85.5 16.5t-63.5 49t-24 81.5q0 47 23.5 83.5t67 60t102.5 32.5l204 33l-8 -78l-180 -31q-51 -9 -81 -33.5t-30 -61.5q0 -34 25.5 -53.5t66.5 -19.5q47 0 85.5 22t64 59.5t31.5 82.5l17 128q6 36 -9 59.5t-41.5 35t-56.5 11.5q-49 0 -87.5 -25t-59.5 -63
l-78 47q20 37 54.5 65.5t80 45t96.5 16.5q60 0 107.5 -25t72 -69t16.5 -102l-50 -355h-92l14 102l20 -9q-21 -32 -52 -55.5t-69 -36.5t-81 -13zM294 640l102 158h126l-135 -158h-93z" />
    <glyph glyph-name="acircumflex" unicode="&#xe2;" 
d="M206 -12q-46 0 -85.5 16.5t-63.5 49t-24 81.5q0 47 23.5 83.5t67 60t102.5 32.5l204 33l-8 -78l-180 -31q-51 -9 -81 -33.5t-30 -61.5q0 -34 25.5 -53.5t66.5 -19.5q47 0 85.5 22t64 59.5t31.5 82.5l17 128q6 36 -9 59.5t-41.5 35t-56.5 11.5q-49 0 -87.5 -25t-59.5 -63
l-78 47q20 37 54.5 65.5t80 45t96.5 16.5q60 0 107.5 -25t72 -69t16.5 -102l-50 -355h-92l14 102l20 -9q-21 -32 -52 -55.5t-69 -36.5t-81 -13zM143 640l141 155h108l97 -155h-95l-59 91l-84 -91h-108z" />
    <glyph glyph-name="atilde" unicode="&#xe3;" 
d="M206 -12q-46 0 -85.5 16.5t-63.5 49t-24 81.5q0 47 23.5 83.5t67 60t102.5 32.5l204 33l-8 -78l-180 -31q-51 -9 -81 -33.5t-30 -61.5q0 -34 25.5 -53.5t66.5 -19.5q47 0 85.5 22t64 59.5t31.5 82.5l17 128q6 36 -9 59.5t-41.5 35t-56.5 11.5q-49 0 -87.5 -25t-59.5 -63
l-78 47q20 37 54.5 65.5t80 45t96.5 16.5q60 0 107.5 -25t72 -69t16.5 -102l-50 -355h-92l14 102l20 -9q-21 -32 -52 -55.5t-69 -36.5t-81 -13zM404 640q-27 0 -42.5 9t-25.5 21t-20.5 21t-27.5 9q-16 0 -27.5 -13t-15.5 -43h-76q7 45 25 74.5t44 44.5t56 15q27 0 42.5 -9
t26 -21t21 -21t27.5 -9q19 0 30.5 15t15.5 41h74q-9 -63 -44.5 -98.5t-82.5 -35.5z" />
    <glyph glyph-name="adieresis" unicode="&#xe4;" 
d="M206 -12q-46 0 -85.5 16.5t-63.5 49t-24 81.5q0 47 23.5 83.5t67 60t102.5 32.5l204 33l-8 -78l-180 -31q-51 -9 -81 -33.5t-30 -61.5q0 -34 25.5 -53.5t66.5 -19.5q47 0 85.5 22t64 59.5t31.5 82.5l17 128q6 36 -9 59.5t-41.5 35t-56.5 11.5q-49 0 -87.5 -25t-59.5 -63
l-78 47q20 37 54.5 65.5t80 45t96.5 16.5q60 0 107.5 -25t72 -69t16.5 -102l-50 -355h-92l14 102l20 -9q-21 -32 -52 -55.5t-69 -36.5t-81 -13zM189 640l15 113h113l-16 -113h-112zM381 640l16 113h112l-15 -113h-113z" />
    <glyph glyph-name="aring" unicode="&#xe5;" 
d="M206 -12q-46 0 -85.5 16.5t-63.5 49t-24 81.5q0 47 23.5 83.5t67 60t102.5 32.5l204 33l-8 -78l-180 -31q-51 -9 -81 -33.5t-30 -61.5q0 -34 25.5 -53.5t66.5 -19.5q47 0 85.5 22t64 59.5t31.5 82.5l17 128q6 36 -9 59.5t-41.5 35t-56.5 11.5q-49 0 -87.5 -25t-59.5 -63
l-78 47q20 37 54.5 65.5t80 45t96.5 16.5q60 0 107.5 -25t72 -69t16.5 -102l-50 -355h-92l14 102l20 -9q-21 -32 -52 -55.5t-69 -36.5t-81 -13zM338 613q-43 0 -72 25t-29 69q0 36 18 65t47.5 46.5t66.5 17.5q43 0 71.5 -25.5t28.5 -68.5q0 -36 -17.5 -65.5t-47.5 -46.5
t-66 -17zM347 675q23 0 39.5 17t16.5 41q0 18 -12 29.5t-31 11.5q-23 0 -39.5 -17t-16.5 -41q0 -19 12 -30t31 -11z" />
    <glyph glyph-name="ae" unicode="&#xe6;" horiz-adv-x="979" 
d="M206 -12q-46 0 -85.5 16.5t-63.5 49t-24 81.5q0 47 23.5 83.5t67 60t102.5 32.5l193 31l2 17q5 36 -10 59.5t-41 35t-56 11.5q-49 0 -87.5 -25t-59.5 -63l-78 47q20 37 54.5 65.5t80 45t96.5 16.5q44 0 81.5 -14t65 -39t39.5 -59l-31 2q38 50 94.5 80t123.5 30
q77 0 130 -34t80.5 -88.5t27.5 -118.5q0 -17 -3 -36t-5 -32h-413q1 -53 21 -90.5t56 -58t82 -20.5q55 0 94.5 25.5t64.5 64.5l77 -42q-19 -37 -54.5 -67.5t-82 -48t-100.5 -17.5q-68 0 -122 29t-86 80l23 22l-17 -119h-92l15 105l13 -21q-22 -30 -52 -51.5t-66 -33
t-78 -11.5zM223 67q47 0 85.5 22t64 59.5t31.5 82.5l4 33l-166 -29q-51 -9 -81 -33.5t-30 -61.5q0 -34 25.5 -53.5t66.5 -19.5zM519 322h314q3 41 -15 74.5t-50.5 52.5t-75.5 19q-46 0 -81.5 -18t-58 -51t-33.5 -77z" />
    <glyph glyph-name="ccedilla" unicode="&#xe7;" horiz-adv-x="615" 
d="M303 -12q-74 0 -131 34.5t-89 94t-32 134.5q0 63 22 117.5t61.5 95.5t92 64t112.5 23q54 0 99.5 -18.5t78.5 -51.5t47 -76l-85 -38q-15 42 -52 68t-88 26q-55 0 -98 -29.5t-67 -77.5t-24 -103q0 -50 20 -89t56 -61.5t82 -22.5q52 0 93 27t64 71l81 -45q-21 -42 -57 -74
t-84 -50.5t-102 -18.5zM283 -232q-28 0 -56.5 9.5t-45.5 25.5l32 61q14 -13 31.5 -20t35.5 -7q23 0 38.5 12.5t15.5 31.5t-22.5 30.5t-66.5 16.5l34 82h62l-18 -45q45 -9 69.5 -30t24.5 -54q0 -32 -18 -57.5t-48 -40.5t-68 -15z" />
    <glyph glyph-name="egrave" unicode="&#xe8;" horiz-adv-x="616" 
d="M305 -12q-75 0 -132 34t-89.5 93.5t-32.5 135.5q0 61 20.5 115t59 96t89 65.5t111.5 23.5q76 0 129 -34t81 -88.5t28 -118.5q0 -17 -3 -36t-6 -32h-442l5 80h389l-47 -35q13 51 -2 91.5t-50 65t-83 24.5q-61 0 -101.5 -29.5t-61 -82t-20.5 -120.5q0 -50 21.5 -87
t57.5 -56.5t80 -19.5q55 0 94.5 25.5t64.5 64.5l77 -42q-19 -37 -54 -67.5t-82 -48t-101 -17.5zM313 640l-88 158h125l57 -158h-94z" />
    <glyph glyph-name="eacute" unicode="&#xe9;" horiz-adv-x="616" 
d="M305 -12q-75 0 -132 34t-89.5 93.5t-32.5 135.5q0 61 20.5 115t59 96t89 65.5t111.5 23.5q76 0 129 -34t81 -88.5t28 -118.5q0 -17 -3 -36t-6 -32h-442l5 80h389l-47 -35q13 51 -2 91.5t-50 65t-83 24.5q-61 0 -101.5 -29.5t-61 -82t-20.5 -120.5q0 -50 21.5 -87
t57.5 -56.5t80 -19.5q55 0 94.5 25.5t64.5 64.5l77 -42q-19 -37 -54 -67.5t-82 -48t-101 -17.5zM314 640l102 158h126l-135 -158h-93z" />
    <glyph glyph-name="ecircumflex" unicode="&#xea;" horiz-adv-x="616" 
d="M305 -12q-75 0 -132 34t-89.5 93.5t-32.5 135.5q0 61 20.5 115t59 96t89 65.5t111.5 23.5q76 0 129 -34t81 -88.5t28 -118.5q0 -17 -3 -36t-6 -32h-442l5 80h389l-47 -35q13 51 -2 91.5t-50 65t-83 24.5q-61 0 -101.5 -29.5t-61 -82t-20.5 -120.5q0 -50 21.5 -87
t57.5 -56.5t80 -19.5q55 0 94.5 25.5t64.5 64.5l77 -42q-19 -37 -54 -67.5t-82 -48t-101 -17.5zM163 640l141 155h108l97 -155h-95l-59 91l-84 -91h-108z" />
    <glyph glyph-name="edieresis" unicode="&#xeb;" horiz-adv-x="616" 
d="M305 -12q-75 0 -132 34t-89.5 93.5t-32.5 135.5q0 61 20.5 115t59 96t89 65.5t111.5 23.5q76 0 129 -34t81 -88.5t28 -118.5q0 -17 -3 -36t-6 -32h-442l5 80h389l-47 -35q13 51 -2 91.5t-50 65t-83 24.5q-61 0 -101.5 -29.5t-61 -82t-20.5 -120.5q0 -50 21.5 -87
t57.5 -56.5t80 -19.5q55 0 94.5 25.5t64.5 64.5l77 -42q-19 -37 -54 -67.5t-82 -48t-101 -17.5zM209 640l15 113h113l-16 -113h-112zM401 640l16 113h112l-15 -113h-113z" />
    <glyph glyph-name="igrave" unicode="&#xec;" horiz-adv-x="211" 
d="M20 0l76 539h94l-75 -539h-95zM110 640l-88 158h125l57 -158h-94z" />
    <glyph glyph-name="iacute" unicode="&#xed;" horiz-adv-x="211" 
d="M20 0l76 539h94l-75 -539h-95zM110 640l102 158h126l-135 -158h-93z" />
    <glyph glyph-name="icircumflex" unicode="&#xee;" horiz-adv-x="211" 
d="M20 0l76 539h94l-75 -539h-95zM-41 640l141 155h108l97 -155h-95l-59 91l-84 -91h-108z" />
    <glyph glyph-name="idieresis" unicode="&#xef;" horiz-adv-x="211" 
d="M20 0l76 539h94l-75 -539h-95zM6 640l15 113h113l-16 -113h-112zM198 640l16 113h112l-15 -113h-113z" />
    <glyph glyph-name="eth" unicode="&#xf0;" horiz-adv-x="677" 
d="M329 -12q-74 0 -132 33.5t-91 92t-33 133.5q0 62 22.5 115t62 93.5t92.5 63t115 22.5q36 0 71.5 -9t66 -30t49.5 -58l-22 -38q7 62 -12 117t-57.5 97t-92 66t-115.5 24q-29 0 -58 -4.5t-59 -14.5l-12 80q37 13 72.5 18.5t67.5 5.5q93 0 162 -35.5t115.5 -97t69.5 -140
t23 -163.5q0 -106 -34 -190t-102 -132.5t-169 -48.5zM336 78q54 0 98.5 28.5t70 75.5t25.5 101q0 48 -20 85.5t-56.5 60t-86.5 22.5q-55 0 -100 -28t-70.5 -73.5t-25.5 -100.5q0 -50 22 -88.5t59.5 -60.5t83.5 -22zM281 580l4 59l320 116l-3 -60z" />
    <glyph glyph-name="ntilde" unicode="&#xf1;" horiz-adv-x="580" 
d="M34 0l76 539h91l-14 -105l-14 11q26 51 74 78.5t105 27.5q59 0 102 -28t63.5 -76.5t11.5 -110.5l-47 -336h-94l46 328q8 61 -22 97t-86 36q-39 0 -71.5 -17.5t-54 -49.5t-28.5 -76l-44 -318h-94zM406 640q-27 0 -42.5 9t-25.5 21t-20.5 21t-27.5 9q-16 0 -27.5 -13
t-15.5 -43h-76q7 45 25 74.5t44 44.5t56 15q27 0 42.5 -9t26 -21t21 -21t27.5 -9q19 0 30.5 15t15.5 41h74q-9 -63 -44.5 -98.5t-82.5 -35.5z" />
    <glyph glyph-name="ograve" unicode="&#xf2;" horiz-adv-x="657" 
d="M314 -12q-74 0 -133.5 34t-94.5 94t-35 138q0 62 22.5 115.5t62.5 94.5t93.5 64t114.5 23q75 0 134.5 -34t94.5 -93.5t35 -136.5q0 -62 -23 -116t-64 -95.5t-94 -64.5t-113 -23zM313 78q56 0 100 29t70 76.5t26 104.5q0 50 -21 89t-58.5 61.5t-85.5 22.5
q-54 0 -98.5 -28.5t-70 -75.5t-25.5 -105q0 -50 21 -89.5t58 -62t84 -22.5zM334 640l-88 158h125l57 -158h-94z" />
    <glyph glyph-name="oacute" unicode="&#xf3;" horiz-adv-x="657" 
d="M314 -12q-74 0 -133.5 34t-94.5 94t-35 138q0 62 22.5 115.5t62.5 94.5t93.5 64t114.5 23q75 0 134.5 -34t94.5 -93.5t35 -136.5q0 -62 -23 -116t-64 -95.5t-94 -64.5t-113 -23zM313 78q56 0 100 29t70 76.5t26 104.5q0 50 -21 89t-58.5 61.5t-85.5 22.5
q-54 0 -98.5 -28.5t-70 -75.5t-25.5 -105q0 -50 21 -89.5t58 -62t84 -22.5zM334 640l102 158h126l-135 -158h-93z" />
    <glyph glyph-name="ocircumflex" unicode="&#xf4;" horiz-adv-x="657" 
d="M314 -12q-74 0 -133.5 34t-94.5 94t-35 138q0 62 22.5 115.5t62.5 94.5t93.5 64t114.5 23q75 0 134.5 -34t94.5 -93.5t35 -136.5q0 -62 -23 -116t-64 -95.5t-94 -64.5t-113 -23zM313 78q56 0 100 29t70 76.5t26 104.5q0 50 -21 89t-58.5 61.5t-85.5 22.5
q-54 0 -98.5 -28.5t-70 -75.5t-25.5 -105q0 -50 21 -89.5t58 -62t84 -22.5zM183 640l141 155h108l97 -155h-95l-59 91l-84 -91h-108z" />
    <glyph glyph-name="otilde" unicode="&#xf5;" horiz-adv-x="657" 
d="M314 -12q-74 0 -133.5 34t-94.5 94t-35 138q0 62 22.5 115.5t62.5 94.5t93.5 64t114.5 23q75 0 134.5 -34t94.5 -93.5t35 -136.5q0 -62 -23 -116t-64 -95.5t-94 -64.5t-113 -23zM313 78q56 0 100 29t70 76.5t26 104.5q0 50 -21 89t-58.5 61.5t-85.5 22.5
q-54 0 -98.5 -28.5t-70 -75.5t-25.5 -105q0 -50 21 -89.5t58 -62t84 -22.5zM445 640q-27 0 -42.5 9t-25.5 21t-20.5 21t-27.5 9q-16 0 -27.5 -13t-15.5 -43h-76q7 45 25 74.5t44 44.5t56 15q27 0 42.5 -9t26 -21t21 -21t27.5 -9q19 0 30.5 15t15.5 41h74q-9 -63 -44.5 -98.5
t-82.5 -35.5z" />
    <glyph glyph-name="odieresis" unicode="&#xf6;" horiz-adv-x="657" 
d="M314 -12q-74 0 -133.5 34t-94.5 94t-35 138q0 62 22.5 115.5t62.5 94.5t93.5 64t114.5 23q75 0 134.5 -34t94.5 -93.5t35 -136.5q0 -62 -23 -116t-64 -95.5t-94 -64.5t-113 -23zM313 78q56 0 100 29t70 76.5t26 104.5q0 50 -21 89t-58.5 61.5t-85.5 22.5
q-54 0 -98.5 -28.5t-70 -75.5t-25.5 -105q0 -50 21 -89.5t58 -62t84 -22.5zM229 640l15 113h113l-16 -113h-112zM421 640l16 113h112l-15 -113h-113z" />
    <glyph glyph-name="divide" unicode="&#xf7;" horiz-adv-x="625" 
d="M54 207l12 87h500l-12 -87h-500zM226 0l15 107h97l-14 -107h-98zM282 393l14 107h98l-15 -107h-97z" />
    <glyph glyph-name="oslash" unicode="&#xf8;" horiz-adv-x="657" 
d="M-4 0l545 539h120l-545 -539h-120zM314 -12q-74 0 -133.5 34t-94.5 94t-35 138q0 62 22.5 115.5t62.5 94.5t93.5 64t114.5 23q75 0 134.5 -34t94.5 -93.5t35 -136.5q0 -62 -23 -116t-64 -95.5t-94 -64.5t-113 -23zM313 78q56 0 100 29t70 76.5t26 104.5q0 50 -21 89
t-58.5 61.5t-85.5 22.5q-54 0 -98.5 -28.5t-70 -75.5t-25.5 -105q0 -50 21 -89.5t58 -62t84 -22.5z" />
    <glyph glyph-name="ugrave" unicode="&#xf9;" horiz-adv-x="581" 
d="M229 -12q-60 0 -103 28t-62.5 79t-10.5 120l46 324h94l-47 -328q-5 -40 7 -70t38 -46.5t64 -16.5q39 0 71 17.5t54 49.5t28 76l45 318h93l-75 -539h-91l14 105l14 -11q-26 -52 -73.5 -79t-105.5 -27zM295 640l-88 158h125l57 -158h-94z" />
    <glyph glyph-name="uacute" unicode="&#xfa;" horiz-adv-x="581" 
d="M229 -12q-60 0 -103 28t-62.5 79t-10.5 120l46 324h94l-47 -328q-5 -40 7 -70t38 -46.5t64 -16.5q39 0 71 17.5t54 49.5t28 76l45 318h93l-75 -539h-91l14 105l14 -11q-26 -52 -73.5 -79t-105.5 -27zM296 640l102 158h126l-135 -158h-93z" />
    <glyph glyph-name="ucircumflex" unicode="&#xfb;" horiz-adv-x="581" 
d="M229 -12q-60 0 -103 28t-62.5 79t-10.5 120l46 324h94l-47 -328q-5 -40 7 -70t38 -46.5t64 -16.5q39 0 71 17.5t54 49.5t28 76l45 318h93l-75 -539h-91l14 105l14 -11q-26 -52 -73.5 -79t-105.5 -27zM145 640l141 155h108l97 -155h-95l-59 91l-84 -91h-108z" />
    <glyph glyph-name="udieresis" unicode="&#xfc;" horiz-adv-x="581" 
d="M229 -12q-60 0 -103 28t-62.5 79t-10.5 120l46 324h94l-47 -328q-5 -40 7 -70t38 -46.5t64 -16.5q39 0 71 17.5t54 49.5t28 76l45 318h93l-75 -539h-91l14 105l14 -11q-26 -52 -73.5 -79t-105.5 -27zM191 640l15 113h113l-16 -113h-112zM383 640l16 113h112l-15 -113
h-113z" />
    <glyph glyph-name="yacute" unicode="&#xfd;" horiz-adv-x="553" 
d="M36 -220q-19 0 -37.5 3.5t-33.5 9.5l7 82q11 -2 26.5 -4.5t29.5 -2.5q33 0 55.5 10t41 31t37.5 53l47 79l-11 -81l-149 579h98l114 -460h-34l247 460h106l-328 -605q-23 -44 -54 -79t-71 -55t-91 -20zM282 640l102 158h126l-135 -158h-93z" />
    <glyph glyph-name="thorn" unicode="&#xfe;" horiz-adv-x="668" 
d="M6 -200l132 945h96l-44 -322l-30 24q34 49 87.5 76.5t118.5 27.5q75 0 132 -35t88.5 -94t31.5 -133q0 -61 -21.5 -115.5t-60.5 -96.5t-91 -65.5t-113 -23.5q-68 0 -123.5 30t-82.5 82l20 15l-43 -315h-97zM326 78q56 0 99 29t68.5 76.5t25.5 104.5q0 50 -21 89
t-57.5 61.5t-86.5 22.5q-55 0 -98.5 -28.5t-68 -75.5t-24.5 -103q0 -51 21 -91t58 -62.5t84 -22.5z" />
    <glyph glyph-name="ydieresis" unicode="&#xff;" horiz-adv-x="553" 
d="M36 -220q-19 0 -37.5 3.5t-33.5 9.5l7 82q11 -2 26.5 -4.5t29.5 -2.5q33 0 55.5 10t41 31t37.5 53l47 79l-11 -81l-149 579h98l114 -460h-34l247 460h106l-328 -605q-23 -44 -54 -79t-71 -55t-91 -20zM177 640l15 113h113l-16 -113h-112zM369 640l16 113h112l-15 -113
h-113z" />
    <glyph glyph-name="Amacron" unicode="&#x100;" horiz-adv-x="672" 
d="M-27 0l371 745h116l163 -745h-101l-37 175h-317l-85 -175h-110zM212 265h255l-85 408l28 -3zM276 867l12 83h288l-12 -83h-288z" />
    <glyph glyph-name="amacron" unicode="&#x101;" 
d="M206 -12q-46 0 -85.5 16.5t-63.5 49t-24 81.5q0 47 23.5 83.5t67 60t102.5 32.5l204 33l-8 -78l-180 -31q-51 -9 -81 -33.5t-30 -61.5q0 -34 25.5 -53.5t66.5 -19.5q47 0 85.5 22t64 59.5t31.5 82.5l17 128q6 36 -9 59.5t-41.5 35t-56.5 11.5q-49 0 -87.5 -25t-59.5 -63
l-78 47q20 37 54.5 65.5t80 45t96.5 16.5q60 0 107.5 -25t72 -69t16.5 -102l-50 -355h-92l14 102l20 -9q-21 -32 -52 -55.5t-69 -36.5t-81 -13zM199 660l12 83h288l-12 -83h-288z" />
    <glyph glyph-name="Abreve" unicode="&#x102;" horiz-adv-x="672" 
d="M-27 0l371 745h116l163 -745h-101l-37 175h-317l-85 -175h-110zM212 265h255l-85 408l28 -3zM422 848q-57 0 -93 20.5t-51.5 56t-10.5 78.5h91q-5 -39 13 -60t57 -21q38 0 62.5 21t30.5 60h90q-6 -44 -29.5 -79t-63 -55.5t-96.5 -20.5z" />
    <glyph glyph-name="abreve" unicode="&#x103;" 
d="M206 -12q-46 0 -85.5 16.5t-63.5 49t-24 81.5q0 47 23.5 83.5t67 60t102.5 32.5l204 33l-8 -78l-180 -31q-51 -9 -81 -33.5t-30 -61.5q0 -34 25.5 -53.5t66.5 -19.5q47 0 85.5 22t64 59.5t31.5 82.5l17 128q6 36 -9 59.5t-41.5 35t-56.5 11.5q-49 0 -87.5 -25t-59.5 -63
l-78 47q20 37 54.5 65.5t80 45t96.5 16.5q60 0 107.5 -25t72 -69t16.5 -102l-50 -355h-92l14 102l20 -9q-21 -32 -52 -55.5t-69 -36.5t-81 -13zM346 641q-57 0 -93 20.5t-51.5 56t-10.5 78.5h91q-5 -39 13 -60t57 -21q38 0 62.5 21t30.5 60h90q-6 -44 -29.5 -79t-63 -55.5
t-96.5 -20.5z" />
    <glyph glyph-name="Aogonek" unicode="&#x104;" horiz-adv-x="672" 
d="M-27 0l371 745h116l163 -745h-101l-37 175h-317l-85 -175h-110zM212 265h255l-85 408l28 -3zM512 -232q-52 0 -81.5 25t-29.5 66q0 37 20.5 71t57 59.5t82.5 36.5h31l-4 -26q-25 -5 -48 -25t-38 -45.5t-15 -49.5q0 -18 13.5 -30.5t34.5 -12.5q19 0 37.5 7t34.5 20l14 -61
q-21 -16 -50 -25.5t-59 -9.5z" />
    <glyph glyph-name="aogonek" unicode="&#x105;" 
d="M206 -12q-46 0 -85.5 16.5t-63.5 49t-24 81.5q0 47 23.5 83.5t67 60t102.5 32.5l204 33l-8 -78l-180 -31q-51 -9 -81 -33.5t-30 -61.5q0 -34 25.5 -53.5t66.5 -19.5q47 0 85.5 22t64 59.5t31.5 82.5l17 128q6 36 -9 59.5t-41.5 35t-56.5 11.5q-49 0 -87.5 -25t-59.5 -63
l-78 47q20 37 54.5 65.5t80 45t96.5 16.5q60 0 107.5 -25t72 -69t16.5 -102l-50 -355h-92l14 102l20 -9q-21 -32 -52 -55.5t-69 -36.5t-81 -13zM369 -232q-52 0 -81.5 25t-29.5 66q0 37 20.5 71t57 59.5t82.5 36.5h31l-4 -26q-25 -5 -48 -25t-38 -45.5t-15 -49.5
q0 -18 13.5 -30.5t34.5 -12.5q19 0 37.5 7t34.5 20l14 -61q-21 -16 -50 -25.5t-59 -9.5z" />
    <glyph glyph-name="Cacute" unicode="&#x106;" horiz-adv-x="794" 
d="M416 -12q-72 0 -134 24.5t-108 71.5t-72 112.5t-26 147.5q0 86 29 161t81.5 131.5t123.5 88.5t154 32q80 0 140.5 -27.5t100 -71t54.5 -91.5l-93 -39q-22 62 -73.5 100t-130.5 38q-62 0 -114.5 -24t-91.5 -68t-60.5 -102.5t-21.5 -127.5q0 -80 30.5 -139.5t85.5 -92.5
t127 -33q80 0 138 39t89 101l88 -44q-22 -48 -67 -91t-108 -69.5t-141 -26.5zM431 847l102 158h126l-135 -158h-93z" />
    <glyph glyph-name="cacute" unicode="&#x107;" horiz-adv-x="615" 
d="M303 -12q-74 0 -131 34.5t-89 94t-32 134.5q0 63 22 117.5t61.5 95.5t92 64t112.5 23q54 0 99.5 -18.5t78.5 -51.5t47 -76l-85 -38q-15 42 -52 68t-88 26q-55 0 -98 -29.5t-67 -77.5t-24 -103q0 -50 20 -89t56 -61.5t82 -22.5q52 0 93 27t64 71l81 -45q-21 -42 -57 -74
t-84 -50.5t-102 -18.5zM313 640l102 158h126l-135 -158h-93z" />
    <glyph glyph-name="Ccircumflex" unicode="&#x108;" horiz-adv-x="794" 
d="M416 -12q-72 0 -134 24.5t-108 71.5t-72 112.5t-26 147.5q0 86 29 161t81.5 131.5t123.5 88.5t154 32q80 0 140.5 -27.5t100 -71t54.5 -91.5l-93 -39q-22 62 -73.5 100t-130.5 38q-62 0 -114.5 -24t-91.5 -68t-60.5 -102.5t-21.5 -127.5q0 -80 30.5 -139.5t85.5 -92.5
t127 -33q80 0 138 39t89 101l88 -44q-22 -48 -67 -91t-108 -69.5t-141 -26.5zM280 847l141 155h108l97 -155h-95l-59 91l-84 -91h-108z" />
    <glyph glyph-name="ccircumflex" unicode="&#x109;" horiz-adv-x="615" 
d="M303 -12q-74 0 -131 34.5t-89 94t-32 134.5q0 63 22 117.5t61.5 95.5t92 64t112.5 23q54 0 99.5 -18.5t78.5 -51.5t47 -76l-85 -38q-15 42 -52 68t-88 26q-55 0 -98 -29.5t-67 -77.5t-24 -103q0 -50 20 -89t56 -61.5t82 -22.5q52 0 93 27t64 71l81 -45q-21 -42 -57 -74
t-84 -50.5t-102 -18.5zM162 640l141 155h108l97 -155h-95l-59 91l-84 -91h-108z" />
    <glyph glyph-name="Cdotaccent" unicode="&#x10a;" horiz-adv-x="794" 
d="M416 -12q-72 0 -134 24.5t-108 71.5t-72 112.5t-26 147.5q0 86 29 161t81.5 131.5t123.5 88.5t154 32q80 0 140.5 -27.5t100 -71t54.5 -91.5l-93 -39q-22 62 -73.5 100t-130.5 38q-62 0 -114.5 -24t-91.5 -68t-60.5 -102.5t-21.5 -127.5q0 -80 30.5 -139.5t85.5 -92.5
t127 -33q80 0 138 39t89 101l88 -44q-22 -48 -67 -91t-108 -69.5t-141 -26.5zM423 847l16 113h112l-16 -113h-112z" />
    <glyph glyph-name="cdotaccent" unicode="&#x10b;" horiz-adv-x="615" 
d="M303 -12q-74 0 -131 34.5t-89 94t-32 134.5q0 63 22 117.5t61.5 95.5t92 64t112.5 23q54 0 99.5 -18.5t78.5 -51.5t47 -76l-85 -38q-15 42 -52 68t-88 26q-55 0 -98 -29.5t-67 -77.5t-24 -103q0 -50 20 -89t56 -61.5t82 -22.5q52 0 93 27t64 71l81 -45q-21 -42 -57 -74
t-84 -50.5t-102 -18.5zM304 640l16 113h112l-16 -113h-112z" />
    <glyph glyph-name="Ccaron" unicode="&#x10c;" horiz-adv-x="794" 
d="M416 -12q-72 0 -134 24.5t-108 71.5t-72 112.5t-26 147.5q0 86 29 161t81.5 131.5t123.5 88.5t154 32q80 0 140.5 -27.5t100 -71t54.5 -91.5l-93 -39q-22 62 -73.5 100t-130.5 38q-62 0 -114.5 -24t-91.5 -68t-60.5 -102.5t-21.5 -127.5q0 -80 30.5 -139.5t85.5 -92.5
t127 -33q80 0 138 39t89 101l88 -44q-22 -48 -67 -91t-108 -69.5t-141 -26.5zM405 847l-97 155h95l58 -90l84 90h110l-143 -155h-107z" />
    <glyph glyph-name="ccaron" unicode="&#x10d;" horiz-adv-x="615" 
d="M303 -12q-74 0 -131 34.5t-89 94t-32 134.5q0 63 22 117.5t61.5 95.5t92 64t112.5 23q54 0 99.5 -18.5t78.5 -51.5t47 -76l-85 -38q-15 42 -52 68t-88 26q-55 0 -98 -29.5t-67 -77.5t-24 -103q0 -50 20 -89t56 -61.5t82 -22.5q52 0 93 27t64 71l81 -45q-21 -42 -57 -74
t-84 -50.5t-102 -18.5zM286 640l-97 155h95l58 -90l84 90h110l-143 -155h-107z" />
    <glyph glyph-name="Dcaron" unicode="&#x10e;" horiz-adv-x="744" 
d="M45 0l104 745h232q103 0 178.5 -42.5t117 -117t41.5 -172.5q0 -90 -28 -165.5t-81.5 -131t-128.5 -86t-169 -30.5h-266zM156 90h157q68 0 123 23t95.5 65.5t62.5 100.5t22 128q0 76 -29.5 132t-84 86t-130.5 30h-136zM390 847l-97 155h95l58 -90l84 90h110l-143 -155
h-107z" />
    <glyph glyph-name="dcaron" unicode="&#x10f;" horiz-adv-x="816" 
d="M300 -12q-73 0 -130 33.5t-88.5 92t-31.5 133.5q0 64 21.5 119.5t61 96.5t92 64.5t113.5 23.5q71 0 122.5 -29.5t79.5 -79.5l-16 -19l46 334h95l-105 -757h-92l15 115l25 -15q-31 -54 -87 -83t-121 -29zM310 78q55 0 99.5 29t70 76.5t25.5 103.5q0 50 -21 89t-58 62
t-85 23q-55 0 -99 -29t-68.5 -77t-24.5 -106q0 -49 20.5 -87.5t57 -61t83.5 -22.5zM713 583l25 174h111l-54 -174h-82z" />
    <glyph glyph-name="Dcroat" unicode="&#x110;" horiz-adv-x="744" 
d="M33 331l12 85h316l-12 -85h-316zM45 0l104 745h232q103 0 178.5 -42.5t117 -117t41.5 -172.5q0 -90 -28 -165.5t-81.5 -131t-128.5 -86t-169 -30.5h-266zM156 90h157q68 0 123 23t95.5 65.5t62.5 100.5t22 128q0 76 -29.5 132t-84 86t-130.5 30h-136z" />
    <glyph glyph-name="dcroat" unicode="&#x111;" horiz-adv-x="669" 
d="M453 600l11 80h285l-11 -80h-285zM300 -12q-73 0 -130 33.5t-88.5 92t-31.5 133.5q0 64 21.5 119.5t61 96.5t92 64.5t113.5 23.5q71 0 122.5 -29.5t79.5 -79.5l-16 -19l46 334h95l-105 -757h-92l15 115l25 -15q-31 -54 -87 -83t-121 -29zM310 78q55 0 99.5 29t70 76.5
t25.5 103.5q0 50 -21 89t-58 62t-85 23q-55 0 -99 -29t-68.5 -77t-24.5 -106q0 -49 20.5 -87.5t57 -61t83.5 -22.5z" />
    <glyph glyph-name="Emacron" unicode="&#x112;" horiz-adv-x="607" 
d="M45 0l104 745h486l-13 -90h-386l-34 -236h367l-12 -90h-367l-34 -239h387l-12 -90h-486zM265 867l12 83h288l-12 -83h-288z" />
    <glyph glyph-name="emacron" unicode="&#x113;" horiz-adv-x="616" 
d="M305 -12q-75 0 -132 34t-89.5 93.5t-32.5 135.5q0 61 20.5 115t59 96t89 65.5t111.5 23.5q76 0 129 -34t81 -88.5t28 -118.5q0 -17 -3 -36t-6 -32h-442l5 80h389l-47 -35q13 51 -2 91.5t-50 65t-83 24.5q-61 0 -101.5 -29.5t-61 -82t-20.5 -120.5q0 -50 21.5 -87
t57.5 -56.5t80 -19.5q55 0 94.5 25.5t64.5 64.5l77 -42q-19 -37 -54 -67.5t-82 -48t-101 -17.5zM219 660l12 83h288l-12 -83h-288z" />
    <glyph glyph-name="Ebreve" unicode="&#x114;" horiz-adv-x="607" 
d="M45 0l104 745h486l-13 -90h-386l-34 -236h367l-12 -90h-367l-34 -239h387l-12 -90h-486zM411 848q-57 0 -93 20.5t-51.5 56t-10.5 78.5h91q-5 -39 13 -60t57 -21q38 0 62.5 21t30.5 60h90q-6 -44 -29.5 -79t-63 -55.5t-96.5 -20.5z" />
    <glyph glyph-name="ebreve" unicode="&#x115;" horiz-adv-x="616" 
d="M305 -12q-75 0 -132 34t-89.5 93.5t-32.5 135.5q0 61 20.5 115t59 96t89 65.5t111.5 23.5q76 0 129 -34t81 -88.5t28 -118.5q0 -17 -3 -36t-6 -32h-442l5 80h389l-47 -35q13 51 -2 91.5t-50 65t-83 24.5q-61 0 -101.5 -29.5t-61 -82t-20.5 -120.5q0 -50 21.5 -87
t57.5 -56.5t80 -19.5q55 0 94.5 25.5t64.5 64.5l77 -42q-19 -37 -54 -67.5t-82 -48t-101 -17.5zM366 641q-57 0 -93 20.5t-51.5 56t-10.5 78.5h91q-5 -39 13 -60t57 -21q38 0 62.5 21t30.5 60h90q-6 -44 -29.5 -79t-63 -55.5t-96.5 -20.5z" />
    <glyph glyph-name="Edotaccent" unicode="&#x116;" horiz-adv-x="607" 
d="M45 0l104 745h486l-13 -90h-386l-34 -236h367l-12 -90h-367l-34 -239h387l-12 -90h-486zM351 847l16 113h112l-16 -113h-112z" />
    <glyph glyph-name="edotaccent" unicode="&#x117;" horiz-adv-x="616" 
d="M305 -12q-75 0 -132 34t-89.5 93.5t-32.5 135.5q0 61 20.5 115t59 96t89 65.5t111.5 23.5q76 0 129 -34t81 -88.5t28 -118.5q0 -17 -3 -36t-6 -32h-442l5 80h389l-47 -35q13 51 -2 91.5t-50 65t-83 24.5q-61 0 -101.5 -29.5t-61 -82t-20.5 -120.5q0 -50 21.5 -87
t57.5 -56.5t80 -19.5q55 0 94.5 25.5t64.5 64.5l77 -42q-19 -37 -54 -67.5t-82 -48t-101 -17.5zM305 640l16 113h112l-16 -113h-112z" />
    <glyph glyph-name="Eogonek" unicode="&#x118;" horiz-adv-x="607" 
d="M45 0l104 745h486l-13 -90h-386l-34 -236h367l-12 -90h-367l-34 -239h387l-12 -90h-486zM370 -232q-52 0 -81.5 25t-29.5 66q0 37 20.5 71t57 59.5t82.5 36.5h31l-4 -26q-25 -5 -48 -25t-38 -45.5t-15 -49.5q0 -18 13.5 -30.5t34.5 -12.5q19 0 37.5 7t34.5 20l14 -61
q-21 -16 -50 -25.5t-59 -9.5z" />
    <glyph glyph-name="eogonek" unicode="&#x119;" horiz-adv-x="616" 
d="M305 -12q-75 0 -132 34t-89.5 93.5t-32.5 135.5q0 61 20.5 115t59 96t89 65.5t111.5 23.5q76 0 129 -34t81 -88.5t28 -118.5q0 -17 -3 -36t-6 -32h-442l5 80h389l-47 -35q13 51 -2 91.5t-50 65t-83 24.5q-61 0 -101.5 -29.5t-61 -82t-20.5 -120.5q0 -50 21.5 -87
t57.5 -56.5t80 -19.5q55 0 94.5 25.5t64.5 64.5l77 -42q-19 -37 -54 -67.5t-82 -48t-101 -17.5zM311 -232q-52 0 -81.5 25t-29.5 66q0 37 20.5 71t57 59.5t82.5 36.5h31l-4 -26q-25 -5 -48 -25t-38 -45.5t-15 -49.5q0 -18 13.5 -30.5t34.5 -12.5q19 0 37.5 7t34.5 20l14 -61
q-21 -16 -50 -25.5t-59 -9.5z" />
    <glyph glyph-name="Ecaron" unicode="&#x11a;" horiz-adv-x="607" 
d="M45 0l104 745h486l-13 -90h-386l-34 -236h367l-12 -90h-367l-34 -239h387l-12 -90h-486zM333 847l-97 155h95l58 -90l84 90h110l-143 -155h-107z" />
    <glyph glyph-name="ecaron" unicode="&#x11b;" horiz-adv-x="616" 
d="M305 -12q-75 0 -132 34t-89.5 93.5t-32.5 135.5q0 61 20.5 115t59 96t89 65.5t111.5 23.5q76 0 129 -34t81 -88.5t28 -118.5q0 -17 -3 -36t-6 -32h-442l5 80h389l-47 -35q13 51 -2 91.5t-50 65t-83 24.5q-61 0 -101.5 -29.5t-61 -82t-20.5 -120.5q0 -50 21.5 -87
t57.5 -56.5t80 -19.5q55 0 94.5 25.5t64.5 64.5l77 -42q-19 -37 -54 -67.5t-82 -48t-101 -17.5zM287 640l-97 155h95l58 -90l84 90h110l-143 -155h-107z" />
    <glyph glyph-name="Gcircumflex" unicode="&#x11c;" horiz-adv-x="823" 
d="M414 -12q-72 0 -133.5 25t-107.5 72t-71.5 112.5t-25.5 146.5q0 88 30.5 163t83.5 131.5t124.5 87.5t152.5 31q78 0 138 -27t99.5 -70t54.5 -92l-91 -43q-21 65 -74 103t-132 38q-64 0 -116.5 -24.5t-91 -68t-59.5 -101.5t-21 -124q0 -82 31.5 -142t87.5 -93.5t130 -33.5
q68 0 123.5 29t91 80.5t42.5 117.5l6 46l40 -42h-290l9 85h343l-7 -71q-7 -76 -38.5 -138t-81.5 -106.5t-113 -68t-134 -23.5zM295 847l141 155h108l97 -155h-95l-59 91l-84 -91h-108z" />
    <glyph glyph-name="gcircumflex" unicode="&#x11d;" horiz-adv-x="660" 
d="M269 -220q-60 0 -107 18.5t-77.5 51t-42.5 74.5l88 32q10 -36 46.5 -61t100.5 -25q43 0 82 16.5t66 48.5t33 80l18 129l26 -19q-31 -55 -85.5 -83.5t-118.5 -28.5q-68 0 -124.5 31.5t-89 88t-32.5 130.5q0 60 21 112.5t59.5 91.5t89.5 61.5t111 22.5q67 0 119 -29t81 -80
l-16 -23l16 120h93l-73 -527q-9 -69 -49.5 -121.5t-101 -81.5t-133.5 -29zM308 103q53 0 95.5 27t68 71t25.5 95q0 47 -20 84.5t-55.5 59t-83.5 21.5q-50 0 -93 -26t-68.5 -69.5t-25.5 -99.5q0 -46 20.5 -83t56 -58.5t80.5 -21.5zM185 640l141 155h108l97 -155h-95l-59 91
l-84 -91h-108z" />
    <glyph glyph-name="Gbreve" unicode="&#x11e;" horiz-adv-x="823" 
d="M414 -12q-72 0 -133.5 25t-107.5 72t-71.5 112.5t-25.5 146.5q0 88 30.5 163t83.5 131.5t124.5 87.5t152.5 31q78 0 138 -27t99.5 -70t54.5 -92l-91 -43q-21 65 -74 103t-132 38q-64 0 -116.5 -24.5t-91 -68t-59.5 -101.5t-21 -124q0 -82 31.5 -142t87.5 -93.5t130 -33.5
q68 0 123.5 29t91 80.5t42.5 117.5l6 46l40 -42h-290l9 85h343l-7 -71q-7 -76 -38.5 -138t-81.5 -106.5t-113 -68t-134 -23.5zM498 848q-57 0 -93 20.5t-51.5 56t-10.5 78.5h91q-5 -39 13 -60t57 -21q38 0 62.5 21t30.5 60h90q-6 -44 -29.5 -79t-63 -55.5t-96.5 -20.5z" />
    <glyph glyph-name="gbreve" unicode="&#x11f;" horiz-adv-x="660" 
d="M269 -220q-60 0 -107 18.5t-77.5 51t-42.5 74.5l88 32q10 -36 46.5 -61t100.5 -25q43 0 82 16.5t66 48.5t33 80l18 129l26 -19q-31 -55 -85.5 -83.5t-118.5 -28.5q-68 0 -124.5 31.5t-89 88t-32.5 130.5q0 60 21 112.5t59.5 91.5t89.5 61.5t111 22.5q67 0 119 -29t81 -80
l-16 -23l16 120h93l-73 -527q-9 -69 -49.5 -121.5t-101 -81.5t-133.5 -29zM308 103q53 0 95.5 27t68 71t25.5 95q0 47 -20 84.5t-55.5 59t-83.5 21.5q-50 0 -93 -26t-68.5 -69.5t-25.5 -99.5q0 -46 20.5 -83t56 -58.5t80.5 -21.5zM388 641q-57 0 -93 20.5t-51.5 56
t-10.5 78.5h91q-5 -39 13 -60t57 -21q38 0 62.5 21t30.5 60h90q-6 -44 -29.5 -79t-63 -55.5t-96.5 -20.5z" />
    <glyph glyph-name="Gdotaccent" unicode="&#x120;" horiz-adv-x="823" 
d="M414 -12q-72 0 -133.5 25t-107.5 72t-71.5 112.5t-25.5 146.5q0 88 30.5 163t83.5 131.5t124.5 87.5t152.5 31q78 0 138 -27t99.5 -70t54.5 -92l-91 -43q-21 65 -74 103t-132 38q-64 0 -116.5 -24.5t-91 -68t-59.5 -101.5t-21 -124q0 -82 31.5 -142t87.5 -93.5t130 -33.5
q68 0 123.5 29t91 80.5t42.5 117.5l6 46l40 -42h-290l9 85h343l-7 -71q-7 -76 -38.5 -138t-81.5 -106.5t-113 -68t-134 -23.5zM437 847l16 113h112l-16 -113h-112z" />
    <glyph glyph-name="gdotaccent" unicode="&#x121;" horiz-adv-x="660" 
d="M269 -220q-60 0 -107 18.5t-77.5 51t-42.5 74.5l88 32q10 -36 46.5 -61t100.5 -25q43 0 82 16.5t66 48.5t33 80l18 129l26 -19q-31 -55 -85.5 -83.5t-118.5 -28.5q-68 0 -124.5 31.5t-89 88t-32.5 130.5q0 60 21 112.5t59.5 91.5t89.5 61.5t111 22.5q67 0 119 -29t81 -80
l-16 -23l16 120h93l-73 -527q-9 -69 -49.5 -121.5t-101 -81.5t-133.5 -29zM308 103q53 0 95.5 27t68 71t25.5 95q0 47 -20 84.5t-55.5 59t-83.5 21.5q-50 0 -93 -26t-68.5 -69.5t-25.5 -99.5q0 -46 20.5 -83t56 -58.5t80.5 -21.5zM327 640l16 113h112l-16 -113h-112z" />
    <glyph glyph-name="uni0122" unicode="&#x122;" horiz-adv-x="823" 
d="M414 -12q-72 0 -133.5 25t-107.5 72t-71.5 112.5t-25.5 146.5q0 88 30.5 163t83.5 131.5t124.5 87.5t152.5 31q78 0 138 -27t99.5 -70t54.5 -92l-91 -43q-21 65 -74 103t-132 38q-64 0 -116.5 -24.5t-91 -68t-59.5 -101.5t-21 -124q0 -82 31.5 -142t87.5 -93.5t130 -33.5
q68 0 123.5 29t91 80.5t42.5 117.5l6 46l40 -42h-290l9 85h343l-7 -71q-7 -76 -38.5 -138t-81.5 -106.5t-113 -68t-134 -23.5zM243 -246l64 176h115l-92 -176h-87z" />
    <glyph glyph-name="uni0123" unicode="&#x123;" horiz-adv-x="660" 
d="M269 -220q-60 0 -107 18.5t-77.5 51t-42.5 74.5l88 32q10 -36 46.5 -61t100.5 -25q43 0 82 16.5t66 48.5t33 80l18 129l26 -19q-31 -55 -85.5 -83.5t-118.5 -28.5q-68 0 -124.5 31.5t-89 88t-32.5 130.5q0 60 21 112.5t59.5 91.5t89.5 61.5t111 22.5q67 0 119 -29t81 -80
l-16 -23l16 120h93l-73 -527q-9 -69 -49.5 -121.5t-101 -81.5t-133.5 -29zM308 103q53 0 95.5 27t68 71t25.5 95q0 47 -20 84.5t-55.5 59t-83.5 21.5q-50 0 -93 -26t-68.5 -69.5t-25.5 -99.5q0 -46 20.5 -83t56 -58.5t80.5 -21.5zM315 614l93 176h87l-64 -176h-116z" />
    <glyph glyph-name="Hcircumflex" unicode="&#x124;" horiz-adv-x="736" 
d="M45 0l104 745h99l-46 -332h372l47 332h98l-104 -745h-98l45 323h-373l-45 -323h-99zM251 847l141 155h108l97 -155h-95l-59 91l-84 -91h-108z" />
    <glyph glyph-name="hcircumflex" unicode="&#x125;" horiz-adv-x="580" 
d="M34 0l106 757h94l-45 -323l-16 11q26 51 74 78.5t105 27.5q59 0 102 -28t63.5 -76.5t11.5 -110.5l-47 -336h-95l46 328q8 61 -22 97t-85 36q-38 0 -70.5 -17.5t-54.5 -49.5t-28 -76l-44 -318h-95zM2 847l141 155h108l97 -155h-95l-59 91l-84 -91h-108z" />
    <glyph glyph-name="Hbar" unicode="&#x126;" horiz-adv-x="736" 
d="M38 551l12 89h739l-12 -89h-739zM45 0l104 745h99l-46 -332h372l47 332h98l-104 -745h-98l45 323h-373l-45 -323h-99z" />
    <glyph glyph-name="hbar" unicode="&#x127;" horiz-adv-x="580" 
d="M22 600l12 80h285l-12 -80h-285zM34 0l106 757h94l-45 -323l-16 11q26 51 74 78.5t105 27.5q59 0 102 -28t63.5 -76.5t11.5 -110.5l-47 -336h-95l46 328q8 61 -22 97t-85 36q-38 0 -70.5 -17.5t-54.5 -49.5t-28 -76l-44 -318h-95z" />
    <glyph glyph-name="Itilde" unicode="&#x128;" horiz-adv-x="265" 
d="M45 0l104 745h99l-104 -745h-99zM277 847q-27 0 -42.5 9t-25.5 21t-20.5 21t-27.5 9q-16 0 -27.5 -13t-15.5 -43h-76q7 45 25 74.5t44 44.5t56 15q27 0 42.5 -9t26 -21t21 -21t27.5 -9q19 0 30.5 15t15.5 41h74q-9 -63 -44.5 -98.5t-82.5 -35.5z" />
    <glyph glyph-name="itilde" unicode="&#x129;" horiz-adv-x="211" 
d="M20 0l76 539h94l-75 -539h-95zM221 640q-27 0 -42.5 9t-25.5 21t-20.5 21t-27.5 9q-16 0 -27.5 -13t-15.5 -43h-76q7 45 25 74.5t44 44.5t56 15q27 0 42.5 -9t26 -21t21 -21t27.5 -9q19 0 30.5 15t15.5 41h74q-9 -63 -44.5 -98.5t-82.5 -35.5z" />
    <glyph glyph-name="Imacron" unicode="&#x12a;" horiz-adv-x="265" 
d="M45 0l104 745h99l-104 -745h-99zM72 867l12 83h288l-12 -83h-288z" />
    <glyph glyph-name="imacron" unicode="&#x12b;" horiz-adv-x="211" 
d="M20 0l76 539h94l-75 -539h-95zM16 660l12 83h288l-12 -83h-288z" />
    <glyph glyph-name="Ibreve" unicode="&#x12c;" horiz-adv-x="265" 
d="M45 0l104 745h99l-104 -745h-99zM219 848q-57 0 -93 20.5t-51.5 56t-10.5 78.5h91q-5 -39 13 -60t57 -21q38 0 62.5 21t30.5 60h90q-6 -44 -29.5 -79t-63 -55.5t-96.5 -20.5z" />
    <glyph glyph-name="ibreve" unicode="&#x12d;" horiz-adv-x="211" 
d="M20 0l76 539h94l-75 -539h-95zM162 641q-57 0 -93 20.5t-51.5 56t-10.5 78.5h91q-5 -39 13 -60t57 -21q38 0 62.5 21t30.5 60h90q-6 -44 -29.5 -79t-63 -55.5t-96.5 -20.5z" />
    <glyph glyph-name="Iogonek" unicode="&#x12e;" horiz-adv-x="265" 
d="M45 0l104 745h99l-104 -745h-99zM48 -232q-52 0 -81.5 25t-29.5 66q0 37 20.5 71t57 59.5t82.5 36.5h31l-4 -26q-25 -5 -48 -25t-38 -45.5t-15 -49.5q0 -18 13.5 -30.5t34.5 -12.5q19 0 37.5 7t34.5 20l14 -61q-21 -16 -50 -25.5t-59 -9.5z" />
    <glyph glyph-name="iogonek" unicode="&#x12f;" horiz-adv-x="211" 
d="M20 0l76 539h94l-75 -539h-95zM102 640l16 113h112l-16 -113h-112zM27 -232q-52 0 -81.5 25t-29.5 66q0 37 20.5 71t57 59.5t82.5 36.5h31l-4 -26q-25 -5 -48 -25t-38 -45.5t-15 -49.5q0 -18 13.5 -30.5t34.5 -12.5q19 0 37.5 7t34.5 20l14 -61q-21 -16 -50 -25.5
t-59 -9.5z" />
    <glyph glyph-name="Idotaccent" unicode="&#x130;" horiz-adv-x="265" 
d="M45 0l104 745h99l-104 -745h-99zM158 847l16 113h112l-16 -113h-112z" />
    <glyph glyph-name="dotlessi" unicode="&#x131;" horiz-adv-x="211" 
d="M20 0l76 539h94l-75 -539h-95z" />
    <glyph glyph-name="IJ" unicode="&#x132;" horiz-adv-x="651" 
d="M45 0l104 745h99l-104 -745h-99zM277 0l13 95h34q56 0 94 31.5t45 85.5l75 533h98l-75 -539q-8 -61 -39.5 -107.5t-82 -72.5t-115.5 -26h-47z" />
    <glyph glyph-name="ij" unicode="&#x133;" horiz-adv-x="479" 
d="M34 0l76 539h94l-75 -539h-95zM122 625l16 120h95l-16 -120h-95zM161 -220q-10 0 -25 1.5t-24 3.5l7 82q11 -1 20.5 -1.5t17.5 -0.5q43 0 74.5 24.5t38.5 70.5l81 579h95l-82 -584q-9 -57 -37 -96.5t-71 -59t-95 -19.5zM363 625l17 120h95l-17 -120h-95z" />
    <glyph glyph-name="Jcircumflex" unicode="&#x134;" horiz-adv-x="386" 
d="M12 0l13 95h34q56 0 94 31.5t45 85.5l75 533h98l-75 -539q-8 -61 -39.5 -107.5t-82 -72.5t-115.5 -26h-47zM138 847l141 155h108l97 -155h-95l-59 91l-84 -91h-108z" />
    <glyph glyph-name="jcircumflex" unicode="&#x135;" horiz-adv-x="240" 
d="M-78 -220q-10 0 -25 1.5t-24 3.5l7 82q11 -1 20.5 -1.5t17.5 -0.5q43 0 74.5 24.5t38.5 70.5l81 579h95l-82 -584q-9 -57 -37 -96.5t-71 -59t-95 -19.5zM-25 640l141 155h108l97 -155h-95l-59 91l-84 -91h-108z" />
    <glyph glyph-name="uni0136" unicode="&#x136;" horiz-adv-x="663" 
d="M45 0l104 745h99l-59 -419l-25 10l413 409h126l-348 -345l15 70l244 -470h-110l-189 359l-141 -139l-30 -220h-99zM163 -246l64 176h115l-92 -176h-87z" />
    <glyph glyph-name="uni0137" unicode="&#x137;" horiz-adv-x="557" 
d="M34 0l106 757h94l-72 -519l-46 9l327 292h127l-238 -217l176 -322h-104l-162 292l54 3l-181 -164l41 68l-28 -199h-94zM110 -246l64 176h115l-92 -176h-87z" />
    <glyph glyph-name="kgreenlandic" unicode="&#x138;" horiz-adv-x="558" 
d="M406 0l-139 243v82l173 214h115l-204 -256l158 -283h-103zM34 0l76 539h94l-75 -539h-95zM123 240l13 89h198l-13 -89h-198z" />
    <glyph glyph-name="Lacute" unicode="&#x139;" horiz-adv-x="536" 
d="M45 0l104 745h99l-92 -655h327l-13 -90h-425zM166 847l102 158h126l-135 -158h-93z" />
    <glyph glyph-name="lacute" unicode="&#x13a;" horiz-adv-x="239" 
d="M34 0l106 757h95l-106 -757h-95zM153 847l102 158h126l-135 -158h-93z" />
    <glyph glyph-name="uni013B" unicode="&#x13b;" horiz-adv-x="536" 
d="M45 0l104 745h99l-92 -655h327l-13 -90h-425zM127 -246l64 176h115l-92 -176h-87z" />
    <glyph glyph-name="uni013C" unicode="&#x13c;" horiz-adv-x="239" 
d="M34 0l106 757h95l-106 -757h-95zM-49 -246l64 176h115l-92 -176h-87z" />
    <glyph glyph-name="Lcaron" unicode="&#x13d;" horiz-adv-x="536" 
d="M45 0l104 745h99l-92 -655h327l-13 -90h-425zM388 583l25 174h111l-54 -174h-82z" />
    <glyph glyph-name="lcaron" unicode="&#x13e;" horiz-adv-x="386" 
d="M34 0l106 757h95l-106 -757h-95zM282 583l25 174h111l-54 -174h-82z" />
    <glyph glyph-name="Ldot" unicode="&#x13f;" horiz-adv-x="536" 
d="M360 310q-27 0 -45 18t-18 45q0 26 18 44t45 18q26 0 44 -18t18 -44q0 -27 -18 -45t-44 -18zM45 0l104 745h99l-92 -655h327l-13 -90h-425z" />
    <glyph glyph-name="ldot" unicode="&#x140;" horiz-adv-x="393" 
d="M309 310q-27 0 -45 18t-18 45q0 26 18 44t45 18q26 0 44 -18t18 -44q0 -27 -18 -45t-44 -18zM34 0l106 757h95l-106 -757h-95z" />
    <glyph glyph-name="Lslash" unicode="&#x141;" horiz-adv-x="611" 
d="M35 224l14 98l359 200l-14 -98zM120 0l104 745h99l-92 -655h326l-12 -90h-425z" />
    <glyph glyph-name="lslash" unicode="&#x142;" horiz-adv-x="381" 
d="M35 260l14 98l296 165l-14 -97zM88 0l106 757h95l-106 -757h-95z" />
    <glyph glyph-name="Nacute" unicode="&#x143;" horiz-adv-x="738" 
d="M45 0l104 745h83l337 -602l-31 -4l85 606h99l-104 -745h-83l-335 606l29 4l-85 -610h-99zM404 847l102 158h126l-135 -158h-93z" />
    <glyph glyph-name="nacute" unicode="&#x144;" horiz-adv-x="580" 
d="M34 0l76 539h91l-14 -105l-14 11q26 51 74 78.5t105 27.5q59 0 102 -28t63.5 -76.5t11.5 -110.5l-47 -336h-94l46 328q8 61 -22 97t-86 36q-39 0 -71.5 -17.5t-54 -49.5t-28.5 -76l-44 -318h-94zM296 640l102 158h126l-135 -158h-93z" />
    <glyph glyph-name="uni0145" unicode="&#x145;" horiz-adv-x="738" 
d="M45 0l104 745h83l337 -602l-31 -4l85 606h99l-104 -745h-83l-335 606l29 4l-85 -610h-99zM201 -246l64 176h115l-92 -176h-87z" />
    <glyph glyph-name="uni0146" unicode="&#x146;" horiz-adv-x="580" 
d="M34 0l76 539h91l-14 -105l-14 11q26 51 74 78.5t105 27.5q59 0 102 -28t63.5 -76.5t11.5 -110.5l-47 -336h-94l46 328q8 61 -22 97t-86 36q-39 0 -71.5 -17.5t-54 -49.5t-28.5 -76l-44 -318h-94zM121 -246l64 176h115l-92 -176h-87z" />
    <glyph glyph-name="Ncaron" unicode="&#x147;" horiz-adv-x="738" 
d="M45 0l104 745h83l337 -602l-31 -4l85 606h99l-104 -745h-83l-335 606l29 4l-85 -610h-99zM377 847l-97 155h95l58 -90l84 90h110l-143 -155h-107z" />
    <glyph glyph-name="ncaron" unicode="&#x148;" horiz-adv-x="580" 
d="M34 0l76 539h91l-14 -105l-14 11q26 51 74 78.5t105 27.5q59 0 102 -28t63.5 -76.5t11.5 -110.5l-47 -336h-94l46 328q8 61 -22 97t-86 36q-39 0 -71.5 -17.5t-54 -49.5t-28.5 -76l-44 -318h-94zM269 640l-97 155h95l58 -90l84 90h110l-143 -155h-107z" />
    <glyph glyph-name="Eng" unicode="&#x14a;" horiz-adv-x="738" 
d="M401 -220q-9 0 -22 1t-21 3l12 87q20 -3 40 -3q42 0 69 21.5t35 68.5l16 107l15 -82l-343 621l27 5l-85 -609h-99l104 745h83l334 -598l-28 -5l85 603h99l-110 -787q-8 -58 -38.5 -97.5t-75 -60t-97.5 -20.5z" />
    <glyph glyph-name="eng" unicode="&#x14b;" horiz-adv-x="600" 
d="M260 -220q-10 0 -23.5 1.5t-22.5 3.5l7 82q11 -1 20.5 -1.5t17.5 -0.5q43 0 74.5 24.5t37.5 70.5l52 368q9 61 -21 97t-86 36q-39 0 -71.5 -17.5t-54.5 -49.5t-28 -76l-44 -318h-94l75 539h92l-14 -105l-15 11q26 51 74 78.5t106 27.5q59 0 102 -28t63.5 -76.5
t11.5 -110.5l-54 -381q-9 -57 -38 -96t-72 -59t-95 -20z" />
    <glyph glyph-name="Omacron" unicode="&#x14c;" horiz-adv-x="881" 
d="M431 -12q-76 0 -140.5 26.5t-113 74t-75 113t-26.5 144.5q0 86 30.5 160t85 131t128 88.5t158.5 31.5q77 0 142 -26t113 -74t75 -113.5t27 -143.5q0 -86 -31 -160.5t-86 -131t-128.5 -88.5t-158.5 -32zM432 79q65 0 120.5 25.5t96.5 69.5t64 101.5t23 122.5
q0 76 -32.5 136.5t-90 96t-135.5 35.5q-65 0 -120.5 -25.5t-96.5 -69.5t-64 -101t-23 -122q0 -76 33 -137t90.5 -96.5t134.5 -35.5zM381 867l12 83h288l-12 -83h-288z" />
    <glyph glyph-name="omacron" unicode="&#x14d;" horiz-adv-x="657" 
d="M314 -12q-74 0 -133.5 34t-94.5 94t-35 138q0 62 22.5 115.5t62.5 94.5t93.5 64t114.5 23q75 0 134.5 -34t94.5 -93.5t35 -136.5q0 -62 -23 -116t-64 -95.5t-94 -64.5t-113 -23zM313 78q56 0 100 29t70 76.5t26 104.5q0 50 -21 89t-58.5 61.5t-85.5 22.5
q-54 0 -98.5 -28.5t-70 -75.5t-25.5 -105q0 -50 21 -89.5t58 -62t84 -22.5zM240 660l12 83h288l-12 -83h-288z" />
    <glyph glyph-name="Obreve" unicode="&#x14e;" horiz-adv-x="881" 
d="M431 -12q-76 0 -140.5 26.5t-113 74t-75 113t-26.5 144.5q0 86 30.5 160t85 131t128 88.5t158.5 31.5q77 0 142 -26t113 -74t75 -113.5t27 -143.5q0 -86 -31 -160.5t-86 -131t-128.5 -88.5t-158.5 -32zM432 79q65 0 120.5 25.5t96.5 69.5t64 101.5t23 122.5
q0 76 -32.5 136.5t-90 96t-135.5 35.5q-65 0 -120.5 -25.5t-96.5 -69.5t-64 -101t-23 -122q0 -76 33 -137t90.5 -96.5t134.5 -35.5zM527 848q-57 0 -93 20.5t-51.5 56t-10.5 78.5h91q-5 -39 13 -60t57 -21q38 0 62.5 21t30.5 60h90q-6 -44 -29.5 -79t-63 -55.5t-96.5 -20.5z
" />
    <glyph glyph-name="obreve" unicode="&#x14f;" horiz-adv-x="657" 
d="M314 -12q-74 0 -133.5 34t-94.5 94t-35 138q0 62 22.5 115.5t62.5 94.5t93.5 64t114.5 23q75 0 134.5 -34t94.5 -93.5t35 -136.5q0 -62 -23 -116t-64 -95.5t-94 -64.5t-113 -23zM313 78q56 0 100 29t70 76.5t26 104.5q0 50 -21 89t-58.5 61.5t-85.5 22.5
q-54 0 -98.5 -28.5t-70 -75.5t-25.5 -105q0 -50 21 -89.5t58 -62t84 -22.5zM386 641q-57 0 -93 20.5t-51.5 56t-10.5 78.5h91q-5 -39 13 -60t57 -21q38 0 62.5 21t30.5 60h90q-6 -44 -29.5 -79t-63 -55.5t-96.5 -20.5z" />
    <glyph glyph-name="Ohungarumlaut" unicode="&#x150;" horiz-adv-x="881" 
d="M431 -12q-76 0 -140.5 26.5t-113 74t-75 113t-26.5 144.5q0 86 30.5 160t85 131t128 88.5t158.5 31.5q77 0 142 -26t113 -74t75 -113.5t27 -143.5q0 -86 -31 -160.5t-86 -131t-128.5 -88.5t-158.5 -32zM432 79q65 0 120.5 25.5t96.5 69.5t64 101.5t23 122.5
q0 76 -32.5 136.5t-90 96t-135.5 35.5q-65 0 -120.5 -25.5t-96.5 -69.5t-64 -101t-23 -122q0 -76 33 -137t90.5 -96.5t134.5 -35.5zM389 847l75 158h118l-107 -158h-86zM569 847l75 158h118l-107 -158h-86z" />
    <glyph glyph-name="ohungarumlaut" unicode="&#x151;" horiz-adv-x="657" 
d="M314 -12q-74 0 -133.5 34t-94.5 94t-35 138q0 62 22.5 115.5t62.5 94.5t93.5 64t114.5 23q75 0 134.5 -34t94.5 -93.5t35 -136.5q0 -62 -23 -116t-64 -95.5t-94 -64.5t-113 -23zM313 78q56 0 100 29t70 76.5t26 104.5q0 50 -21 89t-58.5 61.5t-85.5 22.5
q-54 0 -98.5 -28.5t-70 -75.5t-25.5 -105q0 -50 21 -89.5t58 -62t84 -22.5zM248 640l75 158h118l-107 -158h-86zM428 640l75 158h118l-107 -158h-86z" />
    <glyph glyph-name="OE" unicode="&#x152;" horiz-adv-x="1253" 
d="M431 -12q-76 0 -140.5 26.5t-113 74t-75 113t-26.5 144.5q0 86 30.5 160t85 131t128 88.5t158.5 31.5q70 0 130 -21t106.5 -63t76.5 -104l-22 -13l26 189h486l-13 -90h-385l-34 -236h366l-12 -90h-366l-34 -239h386l-13 -90h-485l20 144l14 -18q-54 -68 -129.5 -103
t-164.5 -35zM432 79q65 0 120.5 25.5t96.5 69.5t64 101.5t23 122.5q0 76 -32.5 136.5t-90 96t-135.5 35.5q-65 0 -120.5 -25.5t-96.5 -69.5t-64 -101t-23 -122q0 -76 33 -137t90.5 -96.5t134.5 -35.5z" />
    <glyph glyph-name="oe" unicode="&#x153;" horiz-adv-x="1079" 
d="M314 -12q-74 0 -133.5 34t-94.5 94t-35 138q0 62 22.5 115.5t62.5 94.5t93.5 64t114.5 23q81 0 144.5 -40.5t93.5 -107.5l-30 1q24 44 60 76.5t82.5 51.5t99.5 19q76 0 129 -34t81 -88.5t28 -118.5q0 -17 -3 -36t-6 -32h-412q0 -53 20.5 -90.5t56 -58t81.5 -20.5
q55 0 94.5 25.5t64.5 64.5l77 -42q-19 -37 -54 -67.5t-82 -48t-101 -17.5t-99.5 18.5t-79 52t-52.5 78.5l29 -1q-25 -44 -64 -77.5t-86.5 -52t-101.5 -18.5zM313 78q56 0 100 29t70 76.5t26 104.5q0 50 -21 89t-58.5 61.5t-85.5 22.5q-54 0 -98.5 -28.5t-70 -75.5
t-25.5 -105q0 -50 21 -89.5t58 -62t84 -22.5zM619 322h314q3 41 -14.5 74.5t-50.5 52.5t-75 19q-47 0 -82 -18t-58 -51t-34 -77z" />
    <glyph glyph-name="Racute" unicode="&#x154;" horiz-adv-x="651" 
d="M45 0l104 745h252q69 0 120 -26.5t79 -75.5t28 -117q0 -55 -21 -101t-60 -78.5t-93 -48.5l129 -298h-108l-138 325l60 -40h-213l-40 -285h-99zM197 375h169q48 0 84.5 20t57.5 54t21 79q0 59 -36.5 93t-97.5 34h-159zM355 847l102 158h126l-135 -158h-93z" />
    <glyph glyph-name="racute" unicode="&#x155;" horiz-adv-x="350" 
d="M34 0l76 539h92l-14 -99l-9 14q26 46 68 68.5t98 22.5h33l-13 -88h-47q-57 0 -96 -36.5t-50 -109.5l-43 -311h-95zM211 640l102 158h126l-135 -158h-93z" />
    <glyph glyph-name="uni0156" unicode="&#x156;" horiz-adv-x="651" 
d="M45 0l104 745h252q69 0 120 -26.5t79 -75.5t28 -117q0 -55 -21 -101t-60 -78.5t-93 -48.5l129 -298h-108l-138 325l60 -40h-213l-40 -285h-99zM197 375h169q48 0 84.5 20t57.5 54t21 79q0 59 -36.5 93t-97.5 34h-159zM152 -246l64 176h115l-92 -176h-87z" />
    <glyph glyph-name="uni0157" unicode="&#x157;" horiz-adv-x="350" 
d="M34 0l76 539h92l-14 -99l-9 14q26 46 68 68.5t98 22.5h33l-13 -88h-47q-57 0 -96 -36.5t-50 -109.5l-43 -311h-95zM-49 -246l64 176h115l-92 -176h-87z" />
    <glyph glyph-name="Rcaron" unicode="&#x158;" horiz-adv-x="651" 
d="M45 0l104 745h252q69 0 120 -26.5t79 -75.5t28 -117q0 -55 -21 -101t-60 -78.5t-93 -48.5l129 -298h-108l-138 325l60 -40h-213l-40 -285h-99zM197 375h169q48 0 84.5 20t57.5 54t21 79q0 59 -36.5 93t-97.5 34h-159zM328 847l-97 155h95l58 -90l84 90h110l-143 -155
h-107z" />
    <glyph glyph-name="rcaron" unicode="&#x159;" horiz-adv-x="350" 
d="M34 0l76 539h92l-14 -99l-9 14q26 46 68 68.5t98 22.5h33l-13 -88h-47q-57 0 -96 -36.5t-50 -109.5l-43 -311h-95zM184 640l-97 155h95l58 -90l84 90h110l-143 -155h-107z" />
    <glyph glyph-name="Sacute" unicode="&#x15a;" horiz-adv-x="648" 
d="M316 -12q-70 0 -127.5 25.5t-96.5 72t-53 107.5l88 30q18 -72 68.5 -109.5t124.5 -37.5q50 0 85.5 16.5t54 45.5t18.5 64q0 39 -23.5 64.5t-69.5 39.5l-130 42q-73 23 -111 71.5t-38 114.5q0 61 32 112t88.5 81t129.5 30q67 0 119.5 -24.5t87 -65.5t46.5 -93l-86 -31
q-15 60 -59.5 93t-108.5 33q-44 0 -78.5 -16t-53.5 -44.5t-19 -66.5q0 -36 22.5 -64.5t71.5 -43.5l118 -38q81 -26 121 -74t40 -114q0 -59 -32.5 -109t-90.5 -80.5t-138 -30.5zM358 847l102 158h126l-135 -158h-93z" />
    <glyph glyph-name="sacute" unicode="&#x15b;" horiz-adv-x="511" 
d="M236 -12q-53 0 -97.5 18.5t-75.5 52.5t-43 79l77 31q18 -47 56.5 -74t88.5 -27q48 0 77.5 23.5t29.5 58.5q0 26 -19 42.5t-53 25.5l-79 22q-61 17 -93.5 53.5t-32.5 87.5q0 47 27 85.5t72.5 61.5t100.5 23q74 0 127.5 -37.5t69.5 -101.5l-78 -31q-14 43 -46.5 66
t-76.5 23q-45 0 -73 -22t-28 -56q0 -26 16.5 -42t49.5 -26l85 -26q61 -18 93.5 -54.5t32.5 -87.5q0 -47 -27 -85t-74.5 -60.5t-106.5 -22.5zM261 640l102 158h126l-135 -158h-93z" />
    <glyph glyph-name="Scircumflex" unicode="&#x15c;" horiz-adv-x="648" 
d="M316 -12q-70 0 -127.5 25.5t-96.5 72t-53 107.5l88 30q18 -72 68.5 -109.5t124.5 -37.5q50 0 85.5 16.5t54 45.5t18.5 64q0 39 -23.5 64.5t-69.5 39.5l-130 42q-73 23 -111 71.5t-38 114.5q0 61 32 112t88.5 81t129.5 30q67 0 119.5 -24.5t87 -65.5t46.5 -93l-86 -31
q-15 60 -59.5 93t-108.5 33q-44 0 -78.5 -16t-53.5 -44.5t-19 -66.5q0 -36 22.5 -64.5t71.5 -43.5l118 -38q81 -26 121 -74t40 -114q0 -59 -32.5 -109t-90.5 -80.5t-138 -30.5zM207 847l141 155h108l97 -155h-95l-59 91l-84 -91h-108z" />
    <glyph glyph-name="scircumflex" unicode="&#x15d;" horiz-adv-x="511" 
d="M236 -12q-53 0 -97.5 18.5t-75.5 52.5t-43 79l77 31q18 -47 56.5 -74t88.5 -27q48 0 77.5 23.5t29.5 58.5q0 26 -19 42.5t-53 25.5l-79 22q-61 17 -93.5 53.5t-32.5 87.5q0 47 27 85.5t72.5 61.5t100.5 23q74 0 127.5 -37.5t69.5 -101.5l-78 -31q-14 43 -46.5 66
t-76.5 23q-45 0 -73 -22t-28 -56q0 -26 16.5 -42t49.5 -26l85 -26q61 -18 93.5 -54.5t32.5 -87.5q0 -47 -27 -85t-74.5 -60.5t-106.5 -22.5zM110 640l141 155h108l97 -155h-95l-59 91l-84 -91h-108z" />
    <glyph glyph-name="Scedilla" unicode="&#x15e;" horiz-adv-x="648" 
d="M316 -12q-70 0 -127.5 25.5t-96.5 72t-53 107.5l88 30q18 -72 68.5 -109.5t124.5 -37.5q50 0 85.5 16.5t54 45.5t18.5 64q0 39 -23.5 64.5t-69.5 39.5l-130 42q-73 23 -111 71.5t-38 114.5q0 61 32 112t88.5 81t129.5 30q67 0 119.5 -24.5t87 -65.5t46.5 -93l-86 -31
q-15 60 -59.5 93t-108.5 33q-44 0 -78.5 -16t-53.5 -44.5t-19 -66.5q0 -36 22.5 -64.5t71.5 -43.5l118 -38q81 -26 121 -74t40 -114q0 -59 -32.5 -109t-90.5 -80.5t-138 -30.5zM265 -232q-28 0 -56.5 9.5t-45.5 25.5l32 61q14 -13 31.5 -20t35.5 -7q23 0 38.5 12.5
t15.5 31.5t-22.5 30.5t-66.5 16.5l34 82h62l-18 -45q45 -9 69.5 -30t24.5 -54q0 -32 -18 -57.5t-48 -40.5t-68 -15z" />
    <glyph glyph-name="scedilla" unicode="&#x15f;" horiz-adv-x="511" 
d="M236 -12q-53 0 -97.5 18.5t-75.5 52.5t-43 79l77 31q18 -47 56.5 -74t88.5 -27q48 0 77.5 23.5t29.5 58.5q0 26 -19 42.5t-53 25.5l-79 22q-61 17 -93.5 53.5t-32.5 87.5q0 47 27 85.5t72.5 61.5t100.5 23q74 0 127.5 -37.5t69.5 -101.5l-78 -31q-14 43 -46.5 66
t-76.5 23q-45 0 -73 -22t-28 -56q0 -26 16.5 -42t49.5 -26l85 -26q61 -18 93.5 -54.5t32.5 -87.5q0 -47 -27 -85t-74.5 -60.5t-106.5 -22.5zM196 -232q-28 0 -56.5 9.5t-45.5 25.5l32 61q14 -13 31.5 -20t35.5 -7q23 0 38.5 12.5t15.5 31.5t-22.5 30.5t-66.5 16.5l34 82h62
l-18 -45q45 -9 69.5 -30t24.5 -54q0 -32 -18 -57.5t-48 -40.5t-68 -15z" />
    <glyph glyph-name="Scaron" unicode="&#x160;" horiz-adv-x="648" 
d="M316 -12q-70 0 -127.5 25.5t-96.5 72t-53 107.5l88 30q18 -72 68.5 -109.5t124.5 -37.5q50 0 85.5 16.5t54 45.5t18.5 64q0 39 -23.5 64.5t-69.5 39.5l-130 42q-73 23 -111 71.5t-38 114.5q0 61 32 112t88.5 81t129.5 30q67 0 119.5 -24.5t87 -65.5t46.5 -93l-86 -31
q-15 60 -59.5 93t-108.5 33q-44 0 -78.5 -16t-53.5 -44.5t-19 -66.5q0 -36 22.5 -64.5t71.5 -43.5l118 -38q81 -26 121 -74t40 -114q0 -59 -32.5 -109t-90.5 -80.5t-138 -30.5zM332 847l-97 155h95l58 -90l84 90h110l-143 -155h-107z" />
    <glyph glyph-name="scaron" unicode="&#x161;" horiz-adv-x="511" 
d="M236 -12q-53 0 -97.5 18.5t-75.5 52.5t-43 79l77 31q18 -47 56.5 -74t88.5 -27q48 0 77.5 23.5t29.5 58.5q0 26 -19 42.5t-53 25.5l-79 22q-61 17 -93.5 53.5t-32.5 87.5q0 47 27 85.5t72.5 61.5t100.5 23q74 0 127.5 -37.5t69.5 -101.5l-78 -31q-14 43 -46.5 66
t-76.5 23q-45 0 -73 -22t-28 -56q0 -26 16.5 -42t49.5 -26l85 -26q61 -18 93.5 -54.5t32.5 -87.5q0 -47 -27 -85t-74.5 -60.5t-106.5 -22.5zM234 640l-97 155h95l58 -90l84 90h110l-143 -155h-107z" />
    <glyph glyph-name="uni0162" unicode="&#x162;" horiz-adv-x="523" 
d="M176 0l91 655h-201l12 90h500l-12 -90h-200l-92 -655h-98zM203 -232q-28 0 -56.5 9.5t-45.5 25.5l32 61q14 -13 31.5 -20t35.5 -7q23 0 38.5 12.5t15.5 31.5t-22.5 30.5t-66.5 16.5l34 82h62l-18 -45q45 -9 69.5 -30t24.5 -54q0 -32 -18 -57.5t-48 -40.5t-68 -15z" />
    <glyph glyph-name="uni0163" unicode="&#x163;" horiz-adv-x="399" 
d="M258 -6q-80 0 -118 46t-27 129l39 281h-97l12 89h18q36 0 61.5 23t29.5 59l6 42h95l-17 -124h119l-13 -89h-119l-40 -284q-4 -27 1 -46.5t22 -30t49 -10.5q9 0 19.5 1t19.5 2l-7 -83q-13 -4 -28.5 -4.5t-24.5 -0.5zM226 -232q-28 0 -56.5 9.5t-45.5 25.5l32 61
q14 -13 31.5 -20t35.5 -7q23 0 38.5 12.5t15.5 31.5t-22.5 30.5t-66.5 16.5l34 82h62l-18 -45q45 -9 69.5 -30t24.5 -54q0 -32 -18 -57.5t-48 -40.5t-68 -15z" />
    <glyph glyph-name="Tcaron" unicode="&#x164;" horiz-adv-x="523" 
d="M176 0l91 655h-201l12 90h500l-12 -90h-200l-92 -655h-98zM269 847l-97 155h95l58 -90l84 90h110l-143 -155h-107z" />
    <glyph glyph-name="tcaron" unicode="&#x165;" horiz-adv-x="418" 
d="M258 -6q-80 0 -118 46t-27 129l39 281h-97l12 89h18q36 0 61.5 23t29.5 59l6 42h95l-17 -124h119l-13 -89h-119l-40 -284q-4 -27 1 -46.5t22 -30t49 -10.5q9 0 19.5 1t19.5 2l-7 -83q-13 -4 -28.5 -4.5t-24.5 -0.5zM325 583l25 174h111l-54 -174h-82z" />
    <glyph glyph-name="Tbar" unicode="&#x166;" horiz-adv-x="523" 
d="M113 331l12 85h316l-12 -85h-316zM176 0l91 655h-201l12 90h500l-12 -90h-200l-92 -655h-98z" />
    <glyph glyph-name="tbar" unicode="&#x167;" horiz-adv-x="399" 
d="M258 -6q-80 0 -118 46t-27 129l39 281h-97l12 89h18q36 0 61.5 23t29.5 59l6 42h95l-17 -124h119l-13 -89h-119l-40 -284q-4 -27 1 -46.5t22 -30t49 -10.5q9 0 19.5 1t19.5 2l-7 -83q-13 -4 -28.5 -4.5t-24.5 -0.5zM13 225l12 89h311l-12 -89h-311z" />
    <glyph glyph-name="Utilde" unicode="&#x168;" horiz-adv-x="706" 
d="M323 -12q-83 0 -142 34.5t-87 94.5t-18 136l69 492h99l-68 -493q-7 -51 9.5 -90t53.5 -61t89 -22t94.5 22t70.5 61t35 92l69 491h98l-70 -497q-10 -76 -51.5 -134.5t-105.5 -92t-145 -33.5zM498 847q-27 0 -42.5 9t-25.5 21t-20.5 21t-27.5 9q-16 0 -27.5 -13t-15.5 -43
h-76q7 45 25 74.5t44 44.5t56 15q27 0 42.5 -9t26 -21t21 -21t27.5 -9q19 0 30.5 15t15.5 41h74q-9 -63 -44.5 -98.5t-82.5 -35.5z" />
    <glyph glyph-name="utilde" unicode="&#x169;" horiz-adv-x="581" 
d="M229 -12q-60 0 -103 28t-62.5 79t-10.5 120l46 324h94l-47 -328q-5 -40 7 -70t38 -46.5t64 -16.5q39 0 71 17.5t54 49.5t28 76l45 318h93l-75 -539h-91l14 105l14 -11q-26 -52 -73.5 -79t-105.5 -27zM406 640q-27 0 -42.5 9t-25.5 21t-20.5 21t-27.5 9q-16 0 -27.5 -13
t-15.5 -43h-76q7 45 25 74.5t44 44.5t56 15q27 0 42.5 -9t26 -21t21 -21t27.5 -9q19 0 30.5 15t15.5 41h74q-9 -63 -44.5 -98.5t-82.5 -35.5z" />
    <glyph glyph-name="Umacron" unicode="&#x16a;" horiz-adv-x="706" 
d="M323 -12q-83 0 -142 34.5t-87 94.5t-18 136l69 492h99l-68 -493q-7 -51 9.5 -90t53.5 -61t89 -22t94.5 22t70.5 61t35 92l69 491h98l-70 -497q-10 -76 -51.5 -134.5t-105.5 -92t-145 -33.5zM293 867l12 83h288l-12 -83h-288z" />
    <glyph glyph-name="umacron" unicode="&#x16b;" horiz-adv-x="581" 
d="M229 -12q-60 0 -103 28t-62.5 79t-10.5 120l46 324h94l-47 -328q-5 -40 7 -70t38 -46.5t64 -16.5q39 0 71 17.5t54 49.5t28 76l45 318h93l-75 -539h-91l14 105l14 -11q-26 -52 -73.5 -79t-105.5 -27zM201 660l12 83h288l-12 -83h-288z" />
    <glyph glyph-name="Ubreve" unicode="&#x16c;" horiz-adv-x="706" 
d="M323 -12q-83 0 -142 34.5t-87 94.5t-18 136l69 492h99l-68 -493q-7 -51 9.5 -90t53.5 -61t89 -22t94.5 22t70.5 61t35 92l69 491h98l-70 -497q-10 -76 -51.5 -134.5t-105.5 -92t-145 -33.5zM439 848q-57 0 -93 20.5t-51.5 56t-10.5 78.5h91q-5 -39 13 -60t57 -21
q38 0 62.5 21t30.5 60h90q-6 -44 -29.5 -79t-63 -55.5t-96.5 -20.5z" />
    <glyph glyph-name="ubreve" unicode="&#x16d;" horiz-adv-x="581" 
d="M229 -12q-60 0 -103 28t-62.5 79t-10.5 120l46 324h94l-47 -328q-5 -40 7 -70t38 -46.5t64 -16.5q39 0 71 17.5t54 49.5t28 76l45 318h93l-75 -539h-91l14 105l14 -11q-26 -52 -73.5 -79t-105.5 -27zM348 641q-57 0 -93 20.5t-51.5 56t-10.5 78.5h91q-5 -39 13 -60
t57 -21q38 0 62.5 21t30.5 60h90q-6 -44 -29.5 -79t-63 -55.5t-96.5 -20.5z" />
    <glyph glyph-name="Uring" unicode="&#x16e;" horiz-adv-x="706" 
d="M323 -12q-83 0 -142 34.5t-87 94.5t-18 136l69 492h99l-68 -493q-7 -51 9.5 -90t53.5 -61t89 -22t94.5 22t70.5 61t35 92l69 491h98l-70 -497q-10 -76 -51.5 -134.5t-105.5 -92t-145 -33.5zM431 820q-43 0 -72 25t-29 69q0 36 18 65t47.5 46.5t66.5 17.5q43 0 71.5 -25.5
t28.5 -68.5q0 -36 -17.5 -65.5t-47.5 -46.5t-66 -17zM440 882q23 0 39.5 17t16.5 41q0 18 -12 29.5t-31 11.5q-23 0 -39.5 -17t-16.5 -41q0 -19 12 -30t31 -11z" />
    <glyph glyph-name="uring" unicode="&#x16f;" horiz-adv-x="581" 
d="M229 -12q-60 0 -103 28t-62.5 79t-10.5 120l46 324h94l-47 -328q-5 -40 7 -70t38 -46.5t64 -16.5q39 0 71 17.5t54 49.5t28 76l45 318h93l-75 -539h-91l14 105l14 -11q-26 -52 -73.5 -79t-105.5 -27zM340 613q-43 0 -72 25t-29 69q0 36 18 65t47.5 46.5t66.5 17.5
q43 0 71.5 -25.5t28.5 -68.5q0 -36 -17.5 -65.5t-47.5 -46.5t-66 -17zM349 675q23 0 39.5 17t16.5 41q0 18 -12 29.5t-31 11.5q-23 0 -39.5 -17t-16.5 -41q0 -19 12 -30t31 -11z" />
    <glyph glyph-name="Uhungarumlaut" unicode="&#x170;" horiz-adv-x="706" 
d="M323 -12q-83 0 -142 34.5t-87 94.5t-18 136l69 492h99l-68 -493q-7 -51 9.5 -90t53.5 -61t89 -22t94.5 22t70.5 61t35 92l69 491h98l-70 -497q-10 -76 -51.5 -134.5t-105.5 -92t-145 -33.5zM301 847l75 158h118l-107 -158h-86zM481 847l75 158h118l-107 -158h-86z" />
    <glyph glyph-name="uhungarumlaut" unicode="&#x171;" horiz-adv-x="581" 
d="M229 -12q-60 0 -103 28t-62.5 79t-10.5 120l46 324h94l-47 -328q-5 -40 7 -70t38 -46.5t64 -16.5q39 0 71 17.5t54 49.5t28 76l45 318h93l-75 -539h-91l14 105l14 -11q-26 -52 -73.5 -79t-105.5 -27zM209 640l75 158h118l-107 -158h-86zM389 640l75 158h118l-107 -158
h-86z" />
    <glyph glyph-name="Uogonek" unicode="&#x172;" horiz-adv-x="706" 
d="M323 -12q-83 0 -142 34.5t-87 94.5t-18 136l69 492h99l-68 -493q-7 -51 9.5 -90t53.5 -61t89 -22t94.5 22t70.5 61t35 92l69 491h98l-70 -497q-10 -76 -51.5 -134.5t-105.5 -92t-145 -33.5zM274 -232q-52 0 -81.5 25t-29.5 66q0 37 20.5 71t57 59.5t82.5 36.5h31l-4 -26
q-25 -5 -48 -25t-38 -45.5t-15 -49.5q0 -18 13.5 -30.5t34.5 -12.5q19 0 37.5 7t34.5 20l14 -61q-21 -16 -50 -25.5t-59 -9.5z" />
    <glyph glyph-name="uogonek" unicode="&#x173;" horiz-adv-x="581" 
d="M229 -12q-60 0 -103 28t-62.5 79t-10.5 120l46 324h94l-47 -328q-5 -40 7 -70t38 -46.5t64 -16.5q39 0 71 17.5t54 49.5t28 76l45 318h93l-75 -539h-91l14 105l14 -11q-26 -52 -73.5 -79t-105.5 -27zM375 -232q-52 0 -81.5 25t-29.5 66q0 37 20.5 71t57 59.5t82.5 36.5
h31l-4 -26q-25 -5 -48 -25t-38 -45.5t-15 -49.5q0 -18 13.5 -30.5t34.5 -12.5q19 0 37.5 7t34.5 20l14 -61q-21 -16 -50 -25.5t-59 -9.5z" />
    <glyph glyph-name="Wcircumflex" unicode="&#x174;" horiz-adv-x="996" 
d="M183 0l-105 745h100l84 -656h-27l278 656h101l91 -656h-30l272 656h105l-313 -745h-109l-91 653h28l-275 -653h-109zM381 847l141 155h108l97 -155h-95l-59 91l-84 -91h-108z" />
    <glyph glyph-name="wcircumflex" unicode="&#x175;" horiz-adv-x="826" 
d="M158 0l-109 539h98l84 -451l-36 1l210 450h88l81 -450l-36 -1l210 451h105l-261 -539h-89l-78 450h31l-209 -450h-89zM268 640l141 155h108l97 -155h-95l-59 91l-84 -91h-108z" />
    <glyph glyph-name="Ycircumflex" unicode="&#x176;" horiz-adv-x="635" 
d="M231 0l48 341l-201 404h105l169 -341l-40 3l261 338h118l-312 -404l-48 -341h-100zM201 847l141 155h108l97 -155h-95l-59 91l-84 -91h-108z" />
    <glyph glyph-name="ycircumflex" unicode="&#x177;" horiz-adv-x="553" 
d="M36 -220q-19 0 -37.5 3.5t-33.5 9.5l7 82q11 -2 26.5 -4.5t29.5 -2.5q33 0 55.5 10t41 31t37.5 53l47 79l-11 -81l-149 579h98l114 -460h-34l247 460h106l-328 -605q-23 -44 -54 -79t-71 -55t-91 -20zM131 640l141 155h108l97 -155h-95l-59 91l-84 -91h-108z" />
    <glyph glyph-name="Ydieresis" unicode="&#x178;" horiz-adv-x="635" 
d="M231 0l48 341l-201 404h105l169 -341l-40 3l261 338h118l-312 -404l-48 -341h-100zM247 847l15 113h113l-16 -113h-112zM439 847l16 113h112l-15 -113h-113z" />
    <glyph glyph-name="Zacute" unicode="&#x179;" horiz-adv-x="581" 
d="M-18 0l10 72l478 583h-372l12 90h508l-9 -72l-480 -583h407l-13 -90h-541zM325 847l102 158h126l-135 -158h-93z" />
    <glyph glyph-name="zacute" unicode="&#x17a;" horiz-adv-x="461" 
d="M-18 0l10 79l373 403l16 -32h-320l13 89h403l-10 -79l-371 -403l-15 32h335l-12 -89h-422zM233 640l102 158h126l-135 -158h-93z" />
    <glyph glyph-name="Zdotaccent" unicode="&#x17b;" horiz-adv-x="581" 
d="M-18 0l10 72l478 583h-372l12 90h508l-9 -72l-480 -583h407l-13 -90h-541zM316 847l16 113h112l-16 -113h-112z" />
    <glyph glyph-name="zdotaccent" unicode="&#x17c;" horiz-adv-x="461" 
d="M-18 0l10 79l373 403l16 -32h-320l13 89h403l-10 -79l-371 -403l-15 32h335l-12 -89h-422zM225 640l16 113h112l-16 -113h-112z" />
    <glyph glyph-name="Zcaron" unicode="&#x17d;" horiz-adv-x="581" 
d="M-18 0l10 72l478 583h-372l12 90h508l-9 -72l-480 -583h407l-13 -90h-541zM298 847l-97 155h95l58 -90l84 90h110l-143 -155h-107z" />
    <glyph glyph-name="zcaron" unicode="&#x17e;" horiz-adv-x="461" 
d="M-18 0l10 79l373 403l16 -32h-320l13 89h403l-10 -79l-371 -403l-15 32h335l-12 -89h-422zM207 640l-97 155h95l58 -90l84 90h110l-143 -155h-107z" />
    <glyph glyph-name="uni018F" unicode="&#x18f;" horiz-adv-x="826" 
d="M397 -12q-94 0 -168 41.5t-116 114.5t-42 169q0 35 4.5 58t6.5 33h621l-6 -86h-559l44 27q-1 -9 -2.5 -23.5t-1.5 -25.5q0 -63 28 -111.5t79.5 -77t119.5 -28.5q56 0 104 20.5t85.5 59t59.5 93t26 121.5q8 83 -22.5 149t-90.5 105t-142 39q-74 0 -136 -33.5t-99 -94.5
l-81 43q28 53 77.5 92.5t112.5 61.5t133 22q74 0 138 -26t111 -74t73 -114t26 -145q0 -84 -28.5 -158.5t-79.5 -131t-121 -88.5t-154 -32z" />
    <glyph glyph-name="florin" unicode="&#x192;" horiz-adv-x="520" 
d="M84 -12q-12 0 -25.5 2t-21.5 4l6 82q8 -1 18 -2t15 -1q48 0 82.5 25t42.5 86l21 148h-128l12 81h128l22 156q9 64 39.5 105.5t74.5 62t95 20.5q12 0 26 -2t21 -4l-6 -82q-8 2 -18 2.5t-15 0.5q-47 0 -81.5 -24.5t-43.5 -85.5l-21 -149h128l-12 -81h-128l-22 -156
q-8 -64 -39 -105.5t-75 -62t-95 -20.5z" />
    <glyph glyph-name="Ohorn" unicode="&#x1a0;" horiz-adv-x="881" 
d="M431 -12q-76 0 -140.5 26.5t-113 74t-75 113t-26.5 144.5q0 86 30.5 160t85 131t128 88.5t158.5 31.5h210q13 0 26.5 5t22.5 19t9 42q0 16 -3 32t-9 32h101q6 -15 10 -31.5t4 -33.5q0 -68 -33.5 -107t-89.5 -39h-48l17 14q65 -47 102.5 -122t37.5 -168q0 -86 -31 -160.5
t-86 -131t-128.5 -88.5t-158.5 -32zM432 79q65 0 120.5 25.5t96.5 69.5t64 101.5t23 122.5q0 76 -32.5 136.5t-90 96t-135.5 35.5q-65 0 -120.5 -25.5t-96.5 -69.5t-64 -101t-23 -122q0 -76 33 -137t90.5 -96.5t134.5 -35.5z" />
    <glyph glyph-name="ohorn" unicode="&#x1a1;" horiz-adv-x="657" 
d="M314 -12q-74 0 -133.5 34t-94.5 94t-35 138q0 62 22.5 115.5t62.5 94.5t93.5 64t114.5 23h110q13 0 26.5 5t22.5 19t9 42q0 15 -3.5 31.5t-8.5 32.5h100q7 -16 11 -32.5t4 -33.5q0 -55 -32 -90.5t-87 -44.5l8 20q47 -35 75.5 -89.5t28.5 -123.5q0 -62 -23 -116t-64 -95.5
t-94 -64.5t-113 -23zM313 78q56 0 100 29t70 76.5t26 104.5q0 50 -21 89t-58 61.5t-86 22.5q-54 0 -98.5 -28.5t-70 -75.5t-25.5 -105q0 -50 21 -89.5t58 -62t84 -22.5z" />
    <glyph glyph-name="Uhorn" unicode="&#x1af;" horiz-adv-x="706" 
d="M323 -12q-83 0 -142 34.5t-87 94.5t-18 136l69 492h99l-68 -493q-7 -51 9.5 -90t53.5 -61t89 -22t94.5 22t70.5 61t35 92l69 491h98l-70 -497q-10 -76 -51.5 -134.5t-105.5 -92t-145 -33.5zM656 664l11 81h15q13 0 26.5 5t22.5 19t9 42q0 16 -3 32t-9 32h101
q6 -15 10 -31.5t4 -33.5q0 -68 -42 -107t-113 -39h-32z" />
    <glyph glyph-name="uhorn" unicode="&#x1b0;" horiz-adv-x="618" 
d="M229 -12q-60 0 -103 28t-62.5 79t-10.5 120l46 324h94l-47 -328q-5 -40 7 -70t38 -46.5t64 -16.5q39 0 71 17.5t54 49.5t28 76l45 318h53q15 0 28.5 5.5t22.5 20t9 41.5q0 14 -3 29.5t-9 34.5h87q5 -17 8.5 -34t3.5 -33q0 -62 -38.5 -99t-104.5 -36l32 35l-71 -503h-91
l9 63q-29 -36 -70.5 -55.5t-89.5 -19.5z" />
    <glyph glyph-name="uni01C4" unicode="&#x1c4;" horiz-adv-x="1205" 
d="M45 0l104 745h232q103 0 178.5 -42.5t117 -117t41.5 -172.5q0 -90 -28 -165.5t-81.5 -131t-128.5 -86t-169 -30.5h-266zM156 90h157q68 0 123 23t95.5 65.5t62.5 100.5t22 128q0 76 -29.5 132t-84 86t-130.5 30h-136zM726 0l10 79l373 403l16 -32h-320l13 89h403l-10 -79
l-371 -403l-15 32h335l-12 -89h-422zM951 640l-97 155h95l58 -90l84 90h110l-143 -155h-107z" />
    <glyph glyph-name="uni01C5" unicode="&#x1c5;" horiz-adv-x="1205" 
d="M45 0l104 745h232q103 0 178.5 -42.5t117 -117t41.5 -172.5q0 -90 -28 -165.5t-81.5 -131t-128.5 -86t-169 -30.5h-266zM156 90h157q68 0 123 23t95.5 65.5t62.5 100.5t22 128q0 76 -29.5 132t-84 86t-130.5 30h-136zM726 0l10 79l373 403l16 -32h-320l13 89h403l-10 -79
l-371 -403l-15 32h335l-12 -89h-422zM951 640l-97 155h95l58 -90l84 90h110l-143 -155h-107z" />
    <glyph glyph-name="uni01C6" unicode="&#x1c6;" horiz-adv-x="1130" 
d="M300 -12q-73 0 -130 33.5t-88.5 92t-31.5 133.5q0 64 21.5 119.5t61 96.5t92 64.5t113.5 23.5q71 0 122.5 -29.5t79.5 -79.5l-16 -19l46 334h95l-105 -757h-92l15 115l25 -15q-31 -54 -87 -83t-121 -29zM310 78q55 0 99.5 29t70 76.5t25.5 103.5q0 50 -21 89t-58 62
t-85 23q-55 0 -99 -29t-68.5 -77t-24.5 -106q0 -49 20.5 -87.5t57 -61t83.5 -22.5zM651 0l10 79l373 403l16 -32h-320l13 89h403l-10 -79l-371 -403l-15 32h335l-12 -89h-422zM876 640l-97 155h95l58 -90l84 90h110l-143 -155h-107z" />
    <glyph glyph-name="uni01C7" unicode="&#x1c7;" horiz-adv-x="1126" 
d="M45 0l104 745h99l-92 -655h327l-13 -90h-425zM783 -12q-94 0 -153 50.5t-68 133.5l94 21q8 -55 43 -84.5t88 -29.5q62 0 102 37t48 94l74 535h100l-76 -540q-8 -61 -41 -110t-86.5 -78t-124.5 -29z" />
    <glyph glyph-name="uni01C8" unicode="&#x1c8;" horiz-adv-x="776" 
d="M45 0l104 745h99l-92 -655h327l-13 -90h-425zM458 -220q-10 0 -25 1.5t-24 3.5l7 82q11 -1 20.5 -1.5t17.5 -0.5q43 0 74.5 24.5t38.5 70.5l81 579h95l-82 -584q-9 -57 -37 -96.5t-71 -59t-95 -19.5zM660 625l17 120h95l-17 -120h-95z" />
    <glyph glyph-name="uni01C9" unicode="&#x1c9;" horiz-adv-x="479" 
d="M34 0l106 757h95l-106 -757h-95zM161 -220q-10 0 -25 1.5t-24 3.5l7 82q11 -1 20.5 -1.5t17.5 -0.5q43 0 74.5 24.5t38.5 70.5l81 579h95l-82 -584q-9 -57 -37 -96.5t-71 -59t-95 -19.5zM363 625l17 120h95l-17 -120h-95z" />
    <glyph glyph-name="uni01CA" unicode="&#x1ca;" horiz-adv-x="1125" 
d="M45 0l104 745h83l337 -602l-31 -4l85 606h99l-104 -745h-83l-335 606l29 4l-85 -610h-99zM750 0l13 95h34q56 0 94 31.5t45 85.5l75 533h98l-75 -539q-8 -61 -39.5 -107.5t-82 -72.5t-115.5 -26h-47z" />
    <glyph glyph-name="uni01CB" unicode="&#x1cb;" horiz-adv-x="979" 
d="M45 0l104 745h83l337 -602l-31 -4l85 606h99l-104 -745h-83l-335 606l29 4l-85 -610h-99zM660 -220q-10 0 -25 1.5t-24 3.5l7 82q11 -1 20.5 -1.5t17.5 -0.5q43 0 74.5 24.5t38.5 70.5l81 579h95l-82 -584q-9 -57 -37 -96.5t-71 -59t-95 -19.5zM862 625l17 120h95
l-17 -120h-95z" />
    <glyph glyph-name="uni01CC" unicode="&#x1cc;" horiz-adv-x="821" 
d="M34 0l76 539h91l-14 -105l-14 11q26 51 74 78.5t105 27.5q59 0 102 -28t63.5 -76.5t11.5 -110.5l-47 -336h-94l46 328q8 61 -22 97t-86 36q-39 0 -71.5 -17.5t-54 -49.5t-28.5 -76l-44 -318h-94zM502 -220q-10 0 -25 1.5t-24 3.5l7 82q11 -1 20.5 -1.5t17.5 -0.5
q43 0 74.5 24.5t38.5 70.5l81 579h95l-82 -584q-9 -57 -37 -96.5t-71 -59t-95 -19.5zM704 625l17 120h95l-17 -120h-95z" />
    <glyph glyph-name="Gcaron" unicode="&#x1e6;" horiz-adv-x="823" 
d="M414 -12q-72 0 -133.5 25t-107.5 72t-71.5 112.5t-25.5 146.5q0 88 30.5 163t83.5 131.5t124.5 87.5t152.5 31q78 0 138 -27t99.5 -70t54.5 -92l-91 -43q-21 65 -74 103t-132 38q-64 0 -116.5 -24.5t-91 -68t-59.5 -101.5t-21 -124q0 -82 31.5 -142t87.5 -93.5t130 -33.5
q68 0 123.5 29t91 80.5t42.5 117.5l6 46l40 -42h-290l9 85h343l-7 -71q-7 -76 -38.5 -138t-81.5 -106.5t-113 -68t-134 -23.5zM419 847l-97 155h95l58 -90l84 90h110l-143 -155h-107z" />
    <glyph glyph-name="gcaron" unicode="&#x1e7;" horiz-adv-x="660" 
d="M269 -220q-60 0 -107 18.5t-77.5 51t-42.5 74.5l88 32q10 -36 46.5 -61t100.5 -25q43 0 82 16.5t66 48.5t33 80l18 129l26 -19q-31 -55 -85.5 -83.5t-118.5 -28.5q-68 0 -124.5 31.5t-89 88t-32.5 130.5q0 60 21 112.5t59.5 91.5t89.5 61.5t111 22.5q67 0 119 -29t81 -80
l-16 -23l16 120h93l-73 -527q-9 -69 -49.5 -121.5t-101 -81.5t-133.5 -29zM308 103q53 0 95.5 27t68 71t25.5 95q0 47 -20 84.5t-55.5 59t-83.5 21.5q-50 0 -93 -26t-68.5 -69.5t-25.5 -99.5q0 -46 20.5 -83t56 -58.5t80.5 -21.5zM309 640l-97 155h95l58 -90l84 90h110
l-143 -155h-107z" />
    <glyph glyph-name="uni01EA" unicode="&#x1ea;" horiz-adv-x="881" 
d="M431 -12q-76 0 -140.5 26.5t-113 74t-75 113t-26.5 144.5q0 86 30.5 160t85 131t128 88.5t158.5 31.5q77 0 142 -26t113 -74t75 -113.5t27 -143.5q0 -86 -31 -160.5t-86 -131t-128.5 -88.5t-158.5 -32zM432 79q65 0 120.5 25.5t96.5 69.5t64 101.5t23 122.5
q0 76 -32.5 136.5t-90 96t-135.5 35.5q-65 0 -120.5 -25.5t-96.5 -69.5t-64 -101t-23 -122q0 -76 33 -137t90.5 -96.5t134.5 -35.5zM362 -232q-52 0 -81.5 25t-29.5 66q0 37 20.5 71t57 59.5t82.5 36.5h31l-4 -26q-25 -5 -48 -25t-38 -45.5t-15 -49.5q0 -18 13.5 -30.5
t34.5 -12.5q19 0 37.5 7t34.5 20l14 -61q-21 -16 -50 -25.5t-59 -9.5z" />
    <glyph glyph-name="uni01EB" unicode="&#x1eb;" horiz-adv-x="657" 
d="M314 -12q-74 0 -133.5 34t-94.5 94t-35 138q0 62 22.5 115.5t62.5 94.5t93.5 64t114.5 23q75 0 134.5 -34t94.5 -93.5t35 -136.5q0 -62 -23 -116t-64 -95.5t-94 -64.5t-113 -23zM313 78q56 0 100 29t70 76.5t26 104.5q0 50 -21 89t-58.5 61.5t-85.5 22.5
q-54 0 -98.5 -28.5t-70 -75.5t-25.5 -105q0 -50 21 -89.5t58 -62t84 -22.5zM250 -232q-52 0 -81.5 25t-29.5 66q0 37 20.5 71t57 59.5t82.5 36.5h31l-4 -26q-25 -5 -48 -25t-38 -45.5t-15 -49.5q0 -18 13.5 -30.5t34.5 -12.5q19 0 37.5 7t34.5 20l14 -61q-21 -16 -50 -25.5
t-59 -9.5z" />
    <glyph glyph-name="Aringacute" unicode="&#x1fa;" horiz-adv-x="672" 
d="M-27 0l371 745h116l163 -745h-101l-37 175h-317l-85 -175h-110zM212 265h255l-85 408l28 -3zM414 820q-43 0 -72 25t-29 69q0 36 18 65t47.5 46.5t66.5 17.5q43 0 71.5 -25.5t28.5 -68.5q0 -36 -17.5 -65.5t-47.5 -46.5t-66 -17zM423 882q23 0 39.5 17t16.5 41
q0 18 -12 29.5t-31 11.5q-23 0 -39.5 -17t-16.5 -41q0 -19 12 -30t31 -11zM420 993l78 139h118l-102 -139h-94z" />
    <glyph glyph-name="aringacute" unicode="&#x1fb;" 
d="M206 -12q-46 0 -85.5 16.5t-63.5 49t-24 81.5q0 47 23.5 83.5t67 60t102.5 32.5l204 33l-8 -78l-180 -31q-51 -9 -81 -33.5t-30 -61.5q0 -34 25.5 -53.5t66.5 -19.5q47 0 85.5 22t64 59.5t31.5 82.5l17 128q6 36 -9 59.5t-41.5 35t-56.5 11.5q-49 0 -87.5 -25t-59.5 -63
l-78 47q20 37 54.5 65.5t80 45t96.5 16.5q60 0 107.5 -25t72 -69t16.5 -102l-50 -355h-92l14 102l20 -9q-21 -32 -52 -55.5t-69 -36.5t-81 -13zM338 613q-43 0 -72 25t-29 69q0 36 18 65t47.5 46.5t66.5 17.5q43 0 71.5 -25.5t28.5 -68.5q0 -36 -17.5 -65.5t-47.5 -46.5
t-66 -17zM347 675q23 0 39.5 17t16.5 41q0 18 -12 29.5t-31 11.5q-23 0 -39.5 -17t-16.5 -41q0 -19 12 -30t31 -11zM344 786l78 139h118l-102 -139h-94z" />
    <glyph glyph-name="AEacute" unicode="&#x1fc;" horiz-adv-x="987" 
d="M-27 0l371 745h671l-13 -90h-386l-34 -236h367l-12 -90h-367l-34 -239h387l-13 -90h-485l24 175h-280l-86 -175h-110zM212 265h250l55 390h-114zM528 847l102 158h126l-135 -158h-93z" />
    <glyph glyph-name="aeacute" unicode="&#x1fd;" horiz-adv-x="979" 
d="M206 -12q-46 0 -85.5 16.5t-63.5 49t-24 81.5q0 47 23.5 83.5t67 60t102.5 32.5l193 31l2 17q5 36 -10 59.5t-41 35t-56 11.5q-49 0 -87.5 -25t-59.5 -63l-78 47q20 37 54.5 65.5t80 45t96.5 16.5q44 0 81.5 -14t65 -39t39.5 -59l-31 2q38 50 94.5 80t123.5 30
q77 0 130 -34t80.5 -88.5t27.5 -118.5q0 -17 -3 -36t-5 -32h-413q1 -53 21 -90.5t56 -58t82 -20.5q55 0 94.5 25.5t64.5 64.5l77 -42q-19 -37 -54.5 -67.5t-82 -48t-100.5 -17.5q-68 0 -122 29t-86 80l23 22l-17 -119h-92l15 105l13 -21q-22 -30 -52 -51.5t-66 -33
t-78 -11.5zM223 67q47 0 85.5 22t64 59.5t31.5 82.5l4 33l-166 -29q-51 -9 -81 -33.5t-30 -61.5q0 -34 25.5 -53.5t66.5 -19.5zM519 322h314q3 41 -15 74.5t-50.5 52.5t-75.5 19q-46 0 -81.5 -18t-58 -51t-33.5 -77zM495 640l102 158h126l-135 -158h-93z" />
    <glyph glyph-name="Oslashacute" unicode="&#x1fe;" horiz-adv-x="881" 
d="M39 0l714 745h120l-714 -745h-120zM431 -12q-76 0 -140.5 26.5t-113 74t-75 113t-26.5 144.5q0 86 30.5 160t85 131t128 88.5t158.5 31.5q77 0 142 -26t113 -74t75 -113.5t27 -143.5q0 -86 -31 -160.5t-86 -131t-128.5 -88.5t-158.5 -32zM432 79q65 0 120.5 25.5
t96.5 69.5t64 101.5t23 122.5q0 76 -32.5 136.5t-90 96t-135.5 35.5q-65 0 -120.5 -25.5t-96.5 -69.5t-64 -101t-23 -122q0 -76 33 -137t90.5 -96.5t134.5 -35.5zM475 847l102 158h126l-135 -158h-93z" />
    <glyph glyph-name="oslashacute" unicode="&#x1ff;" horiz-adv-x="657" 
d="M-4 0l545 539h120l-545 -539h-120zM314 -12q-74 0 -133.5 34t-94.5 94t-35 138q0 62 22.5 115.5t62.5 94.5t93.5 64t114.5 23q75 0 134.5 -34t94.5 -93.5t35 -136.5q0 -62 -23 -116t-64 -95.5t-94 -64.5t-113 -23zM313 78q56 0 100 29t70 76.5t26 104.5q0 50 -21 89
t-58.5 61.5t-85.5 22.5q-54 0 -98.5 -28.5t-70 -75.5t-25.5 -105q0 -50 21 -89.5t58 -62t84 -22.5zM334 640l102 158h126l-135 -158h-93z" />
    <glyph glyph-name="uni0200" unicode="&#x200;" horiz-adv-x="672" 
d="M-27 0l371 745h116l163 -745h-101l-37 175h-317l-85 -175h-110zM212 265h255l-85 408l28 -3zM284 847l-89 159h118l57 -159h-86zM464 847l-89 159h118l58 -159h-87z" />
    <glyph glyph-name="uni0201" unicode="&#x201;" 
d="M206 -12q-46 0 -85.5 16.5t-63.5 49t-24 81.5q0 47 23.5 83.5t67 60t102.5 32.5l204 33l-8 -78l-180 -31q-51 -9 -81 -33.5t-30 -61.5q0 -34 25.5 -53.5t66.5 -19.5q47 0 85.5 22t64 59.5t31.5 82.5l17 128q6 36 -9 59.5t-41.5 35t-56.5 11.5q-49 0 -87.5 -25t-59.5 -63
l-78 47q20 37 54.5 65.5t80 45t96.5 16.5q60 0 107.5 -25t72 -69t16.5 -102l-50 -355h-92l14 102l20 -9q-21 -32 -52 -55.5t-69 -36.5t-81 -13zM208 640l-89 159h118l57 -159h-86zM388 640l-89 159h118l58 -159h-87z" />
    <glyph glyph-name="uni0202" unicode="&#x202;" horiz-adv-x="672" 
d="M-27 0l371 745h116l163 -745h-101l-37 175h-317l-85 -175h-110zM212 265h255l-85 408l28 -3zM246 847q6 43 29 78.5t63 56t97 20.5q58 0 94 -21t51 -56t9 -78h-90q5 39 -13.5 60t-55.5 21q-39 0 -63 -21t-30 -60h-91z" />
    <glyph glyph-name="uni0203" unicode="&#x203;" 
d="M206 -12q-46 0 -85.5 16.5t-63.5 49t-24 81.5q0 47 23.5 83.5t67 60t102.5 32.5l204 33l-8 -78l-180 -31q-51 -9 -81 -33.5t-30 -61.5q0 -34 25.5 -53.5t66.5 -19.5q47 0 85.5 22t64 59.5t31.5 82.5l17 128q6 36 -9 59.5t-41.5 35t-56.5 11.5q-49 0 -87.5 -25t-59.5 -63
l-78 47q20 37 54.5 65.5t80 45t96.5 16.5q60 0 107.5 -25t72 -69t16.5 -102l-50 -355h-92l14 102l20 -9q-21 -32 -52 -55.5t-69 -36.5t-81 -13zM169 640q6 43 29 78.5t63 56t97 20.5q58 0 94 -21t51 -56t9 -78h-90q5 39 -13.5 60t-55.5 21q-39 0 -63 -21t-30 -60h-91z" />
    <glyph glyph-name="uni0204" unicode="&#x204;" horiz-adv-x="607" 
d="M45 0l104 745h486l-13 -90h-386l-34 -236h367l-12 -90h-367l-34 -239h387l-12 -90h-486zM273 847l-89 159h118l57 -159h-86zM453 847l-89 159h118l58 -159h-87z" />
    <glyph glyph-name="uni0205" unicode="&#x205;" horiz-adv-x="616" 
d="M305 -12q-75 0 -132 34t-89.5 93.5t-32.5 135.5q0 61 20.5 115t59 96t89 65.5t111.5 23.5q76 0 129 -34t81 -88.5t28 -118.5q0 -17 -3 -36t-6 -32h-442l5 80h389l-47 -35q13 51 -2 91.5t-50 65t-83 24.5q-61 0 -101.5 -29.5t-61 -82t-20.5 -120.5q0 -50 21.5 -87
t57.5 -56.5t80 -19.5q55 0 94.5 25.5t64.5 64.5l77 -42q-19 -37 -54 -67.5t-82 -48t-101 -17.5zM228 640l-89 159h118l57 -159h-86zM408 640l-89 159h118l58 -159h-87z" />
    <glyph glyph-name="uni0206" unicode="&#x206;" horiz-adv-x="607" 
d="M45 0l104 745h486l-13 -90h-386l-34 -236h367l-12 -90h-367l-34 -239h387l-12 -90h-486zM235 847q6 43 29 78.5t63 56t97 20.5q58 0 94 -21t51 -56t9 -78h-90q5 39 -13.5 60t-55.5 21q-39 0 -63 -21t-30 -60h-91z" />
    <glyph glyph-name="uni0207" unicode="&#x207;" horiz-adv-x="616" 
d="M305 -12q-75 0 -132 34t-89.5 93.5t-32.5 135.5q0 61 20.5 115t59 96t89 65.5t111.5 23.5q76 0 129 -34t81 -88.5t28 -118.5q0 -17 -3 -36t-6 -32h-442l5 80h389l-47 -35q13 51 -2 91.5t-50 65t-83 24.5q-61 0 -101.5 -29.5t-61 -82t-20.5 -120.5q0 -50 21.5 -87
t57.5 -56.5t80 -19.5q55 0 94.5 25.5t64.5 64.5l77 -42q-19 -37 -54 -67.5t-82 -48t-101 -17.5zM189 640q6 43 29 78.5t63 56t97 20.5q58 0 94 -21t51 -56t9 -78h-90q5 39 -13.5 60t-55.5 21q-39 0 -63 -21t-30 -60h-91z" />
    <glyph glyph-name="uni0208" unicode="&#x208;" horiz-adv-x="265" 
d="M45 0l104 745h99l-104 -745h-99zM81 847l-89 159h118l57 -159h-86zM261 847l-89 159h118l58 -159h-87z" />
    <glyph glyph-name="uni0209" unicode="&#x209;" horiz-adv-x="211" 
d="M20 0l76 539h94l-75 -539h-95zM24 640l-89 159h118l57 -159h-86zM204 640l-89 159h118l58 -159h-87z" />
    <glyph glyph-name="uni020A" unicode="&#x20a;" horiz-adv-x="265" 
d="M45 0l104 745h99l-104 -745h-99zM42 847q6 43 29 78.5t63 56t97 20.5q58 0 94 -21t51 -56t9 -78h-90q5 39 -13.5 60t-55.5 21q-39 0 -63 -21t-30 -60h-91z" />
    <glyph glyph-name="uni020B" unicode="&#x20b;" horiz-adv-x="211" 
d="M20 0l76 539h94l-75 -539h-95zM-14 640q6 43 29 78.5t63 56t97 20.5q58 0 94 -21t51 -56t9 -78h-90q5 39 -13.5 60t-55.5 21q-39 0 -63 -21t-30 -60h-91z" />
    <glyph glyph-name="uni020C" unicode="&#x20c;" horiz-adv-x="881" 
d="M431 -12q-76 0 -140.5 26.5t-113 74t-75 113t-26.5 144.5q0 86 30.5 160t85 131t128 88.5t158.5 31.5q77 0 142 -26t113 -74t75 -113.5t27 -143.5q0 -86 -31 -160.5t-86 -131t-128.5 -88.5t-158.5 -32zM432 79q65 0 120.5 25.5t96.5 69.5t64 101.5t23 122.5
q0 76 -32.5 136.5t-90 96t-135.5 35.5q-65 0 -120.5 -25.5t-96.5 -69.5t-64 -101t-23 -122q0 -76 33 -137t90.5 -96.5t134.5 -35.5zM389 847l-89 159h118l57 -159h-86zM569 847l-89 159h118l58 -159h-87z" />
    <glyph glyph-name="uni020D" unicode="&#x20d;" horiz-adv-x="657" 
d="M314 -12q-74 0 -133.5 34t-94.5 94t-35 138q0 62 22.5 115.5t62.5 94.5t93.5 64t114.5 23q75 0 134.5 -34t94.5 -93.5t35 -136.5q0 -62 -23 -116t-64 -95.5t-94 -64.5t-113 -23zM313 78q56 0 100 29t70 76.5t26 104.5q0 50 -21 89t-58.5 61.5t-85.5 22.5
q-54 0 -98.5 -28.5t-70 -75.5t-25.5 -105q0 -50 21 -89.5t58 -62t84 -22.5zM248 640l-89 159h118l57 -159h-86zM428 640l-89 159h118l58 -159h-87z" />
    <glyph glyph-name="uni020E" unicode="&#x20e;" horiz-adv-x="881" 
d="M431 -12q-76 0 -140.5 26.5t-113 74t-75 113t-26.5 144.5q0 86 30.5 160t85 131t128 88.5t158.5 31.5q77 0 142 -26t113 -74t75 -113.5t27 -143.5q0 -86 -31 -160.5t-86 -131t-128.5 -88.5t-158.5 -32zM432 79q65 0 120.5 25.5t96.5 69.5t64 101.5t23 122.5
q0 76 -32.5 136.5t-90 96t-135.5 35.5q-65 0 -120.5 -25.5t-96.5 -69.5t-64 -101t-23 -122q0 -76 33 -137t90.5 -96.5t134.5 -35.5zM351 847q6 43 29 78.5t63 56t97 20.5q58 0 94 -21t51 -56t9 -78h-90q5 39 -13.5 60t-55.5 21q-39 0 -63 -21t-30 -60h-91z" />
    <glyph glyph-name="uni020F" unicode="&#x20f;" horiz-adv-x="657" 
d="M314 -12q-74 0 -133.5 34t-94.5 94t-35 138q0 62 22.5 115.5t62.5 94.5t93.5 64t114.5 23q75 0 134.5 -34t94.5 -93.5t35 -136.5q0 -62 -23 -116t-64 -95.5t-94 -64.5t-113 -23zM313 78q56 0 100 29t70 76.5t26 104.5q0 50 -21 89t-58.5 61.5t-85.5 22.5
q-54 0 -98.5 -28.5t-70 -75.5t-25.5 -105q0 -50 21 -89.5t58 -62t84 -22.5zM210 640q6 43 29 78.5t63 56t97 20.5q58 0 94 -21t51 -56t9 -78h-90q5 39 -13.5 60t-55.5 21q-39 0 -63 -21t-30 -60h-91z" />
    <glyph glyph-name="uni0210" unicode="&#x210;" horiz-adv-x="651" 
d="M45 0l104 745h252q69 0 120 -26.5t79 -75.5t28 -117q0 -55 -21 -101t-60 -78.5t-93 -48.5l129 -298h-108l-138 325l60 -40h-213l-40 -285h-99zM197 375h169q48 0 84.5 20t57.5 54t21 79q0 59 -36.5 93t-97.5 34h-159zM269 847l-89 159h118l57 -159h-86zM449 847l-89 159
h118l58 -159h-87z" />
    <glyph glyph-name="uni0211" unicode="&#x211;" horiz-adv-x="350" 
d="M34 0l76 539h92l-14 -99l-9 14q26 46 68 68.5t98 22.5h33l-13 -88h-47q-57 0 -96 -36.5t-50 -109.5l-43 -311h-95zM125 640l-89 159h118l57 -159h-86zM305 640l-89 159h118l58 -159h-87z" />
    <glyph glyph-name="uni0212" unicode="&#x212;" horiz-adv-x="651" 
d="M45 0l104 745h252q69 0 120 -26.5t79 -75.5t28 -117q0 -55 -21 -101t-60 -78.5t-93 -48.5l129 -298h-108l-138 325l60 -40h-213l-40 -285h-99zM197 375h169q48 0 84.5 20t57.5 54t21 79q0 59 -36.5 93t-97.5 34h-159zM230 847q6 43 29 78.5t63 56t97 20.5q58 0 94 -21
t51 -56t9 -78h-90q5 39 -13.5 60t-55.5 21q-39 0 -63 -21t-30 -60h-91z" />
    <glyph glyph-name="uni0213" unicode="&#x213;" horiz-adv-x="350" 
d="M34 0l76 539h92l-14 -99l-9 14q26 46 68 68.5t98 22.5h33l-13 -88h-47q-57 0 -96 -36.5t-50 -109.5l-43 -311h-95zM86 640q6 43 29 78.5t63 56t97 20.5q58 0 94 -21t51 -56t9 -78h-90q5 39 -13.5 60t-55.5 21q-39 0 -63 -21t-30 -60h-91z" />
    <glyph glyph-name="uni0214" unicode="&#x214;" horiz-adv-x="706" 
d="M323 -12q-83 0 -142 34.5t-87 94.5t-18 136l69 492h99l-68 -493q-7 -51 9.5 -90t53.5 -61t89 -22t94.5 22t70.5 61t35 92l69 491h98l-70 -497q-10 -76 -51.5 -134.5t-105.5 -92t-145 -33.5zM301 847l-89 159h118l57 -159h-86zM481 847l-89 159h118l58 -159h-87z" />
    <glyph glyph-name="uni0215" unicode="&#x215;" horiz-adv-x="581" 
d="M229 -12q-60 0 -103 28t-62.5 79t-10.5 120l46 324h94l-47 -328q-5 -40 7 -70t38 -46.5t64 -16.5q39 0 71 17.5t54 49.5t28 76l45 318h93l-75 -539h-91l14 105l14 -11q-26 -52 -73.5 -79t-105.5 -27zM210 640l-89 159h118l57 -159h-86zM390 640l-89 159h118l58 -159h-87z
" />
    <glyph glyph-name="uni0216" unicode="&#x216;" horiz-adv-x="706" 
d="M323 -12q-83 0 -142 34.5t-87 94.5t-18 136l69 492h99l-68 -493q-7 -51 9.5 -90t53.5 -61t89 -22t94.5 22t70.5 61t35 92l69 491h98l-70 -497q-10 -76 -51.5 -134.5t-105.5 -92t-145 -33.5zM263 847q6 43 29 78.5t63 56t97 20.5q58 0 94 -21t51 -56t9 -78h-90
q5 39 -13.5 60t-55.5 21q-39 0 -63 -21t-30 -60h-91z" />
    <glyph glyph-name="uni0217" unicode="&#x217;" horiz-adv-x="581" 
d="M229 -12q-60 0 -103 28t-62.5 79t-10.5 120l46 324h94l-47 -328q-5 -40 7 -70t38 -46.5t64 -16.5q39 0 71 17.5t54 49.5t28 76l45 318h93l-75 -539h-91l14 105l14 -11q-26 -52 -73.5 -79t-105.5 -27zM171 640q6 43 29 78.5t63 56t97 20.5q58 0 94 -21t51 -56t9 -78h-90
q5 39 -13.5 60t-55.5 21q-39 0 -63 -21t-30 -60h-91z" />
    <glyph glyph-name="uni0218" unicode="&#x218;" horiz-adv-x="648" 
d="M316 -12q-70 0 -127.5 25.5t-96.5 72t-53 107.5l88 30q18 -72 68.5 -109.5t124.5 -37.5q50 0 85.5 16.5t54 45.5t18.5 64q0 39 -23.5 64.5t-69.5 39.5l-130 42q-73 23 -111 71.5t-38 114.5q0 61 32 112t88.5 81t129.5 30q67 0 119.5 -24.5t87 -65.5t46.5 -93l-86 -31
q-15 60 -59.5 93t-108.5 33q-44 0 -78.5 -16t-53.5 -44.5t-19 -66.5q0 -36 22.5 -64.5t71.5 -43.5l118 -38q81 -26 121 -74t40 -114q0 -59 -32.5 -109t-90.5 -80.5t-138 -30.5zM155 -246l64 176h115l-92 -176h-87z" />
    <glyph glyph-name="uni0219" unicode="&#x219;" horiz-adv-x="511" 
d="M236 -12q-53 0 -97.5 18.5t-75.5 52.5t-43 79l77 31q18 -47 56.5 -74t88.5 -27q48 0 77.5 23.5t29.5 58.5q0 26 -19 42.5t-53 25.5l-79 22q-61 17 -93.5 53.5t-32.5 87.5q0 47 27 85.5t72.5 61.5t100.5 23q74 0 127.5 -37.5t69.5 -101.5l-78 -31q-14 43 -46.5 66
t-76.5 23q-45 0 -73 -22t-28 -56q0 -26 16.5 -42t49.5 -26l85 -26q61 -18 93.5 -54.5t32.5 -87.5q0 -47 -27 -85t-74.5 -60.5t-106.5 -22.5zM86 -246l64 176h115l-92 -176h-87z" />
    <glyph glyph-name="uni021A" unicode="&#x21a;" horiz-adv-x="523" 
d="M176 0l91 655h-201l12 90h500l-12 -90h-200l-92 -655h-98zM93 -246l64 176h115l-92 -176h-87z" />
    <glyph glyph-name="uni021B" unicode="&#x21b;" horiz-adv-x="399" 
d="M258 -6q-80 0 -118 46t-27 129l39 281h-97l12 89h18q36 0 61.5 23t29.5 59l6 42h95l-17 -124h119l-13 -89h-119l-40 -284q-4 -27 1 -46.5t22 -30t49 -10.5q9 0 19.5 1t19.5 2l-7 -83q-13 -4 -28.5 -4.5t-24.5 -0.5zM116 -246l64 176h115l-92 -176h-87z" />
    <glyph glyph-name="uni022A" unicode="&#x22a;" horiz-adv-x="881" 
d="M431 -12q-76 0 -140.5 26.5t-113 74t-75 113t-26.5 144.5q0 86 30.5 160t85 131t128 88.5t158.5 31.5q77 0 142 -26t113 -74t75 -113.5t27 -143.5q0 -86 -31 -160.5t-86 -131t-128.5 -88.5t-158.5 -32zM432 79q65 0 120.5 25.5t96.5 69.5t64 101.5t23 122.5
q0 76 -32.5 136.5t-90 96t-135.5 35.5q-65 0 -120.5 -25.5t-96.5 -69.5t-64 -101t-23 -122q0 -76 33 -137t90.5 -96.5t134.5 -35.5zM370 847l16 113h112l-16 -113h-112zM562 847l16 113h113l-16 -113h-113zM405 1040l12 82h287l-11 -82h-288z" />
    <glyph glyph-name="uni022B" unicode="&#x22b;" horiz-adv-x="657" 
d="M314 -12q-74 0 -133.5 34t-94.5 94t-35 138q0 62 22.5 115.5t62.5 94.5t93.5 64t114.5 23q75 0 134.5 -34t94.5 -93.5t35 -136.5q0 -62 -23 -116t-64 -95.5t-94 -64.5t-113 -23zM313 78q56 0 100 29t70 76.5t26 104.5q0 50 -21 89t-58.5 61.5t-85.5 22.5
q-54 0 -98.5 -28.5t-70 -75.5t-25.5 -105q0 -50 21 -89.5t58 -62t84 -22.5zM229 640l16 113h112l-16 -113h-112zM421 640l16 113h113l-16 -113h-113zM264 833l12 82h287l-11 -82h-288z" />
    <glyph glyph-name="uni022C" unicode="&#x22c;" horiz-adv-x="881" 
d="M431 -12q-76 0 -140.5 26.5t-113 74t-75 113t-26.5 144.5q0 86 30.5 160t85 131t128 88.5t158.5 31.5q77 0 142 -26t113 -74t75 -113.5t27 -143.5q0 -86 -31 -160.5t-86 -131t-128.5 -88.5t-158.5 -32zM432 79q65 0 120.5 25.5t96.5 69.5t64 101.5t23 122.5
q0 76 -32.5 136.5t-90 96t-135.5 35.5q-65 0 -120.5 -25.5t-96.5 -69.5t-64 -101t-23 -122q0 -76 33 -137t90.5 -96.5t134.5 -35.5zM586 847q-27 0 -42.5 9t-25.5 21t-20.5 21t-27.5 9q-16 0 -27.5 -13t-15.5 -43h-76q7 45 25 74.5t44 44.5t56 15q27 0 42.5 -9t26 -21
t21 -21t27.5 -9q19 0 30.5 15t15.5 41h74q-9 -63 -44.5 -98.5t-82.5 -35.5zM405 1035l12 82h288l-12 -82h-288z" />
    <glyph glyph-name="uni022D" unicode="&#x22d;" horiz-adv-x="657" 
d="M314 -12q-74 0 -133.5 34t-94.5 94t-35 138q0 62 22.5 115.5t62.5 94.5t93.5 64t114.5 23q75 0 134.5 -34t94.5 -93.5t35 -136.5q0 -62 -23 -116t-64 -95.5t-94 -64.5t-113 -23zM313 78q56 0 100 29t70 76.5t26 104.5q0 50 -21 89t-58.5 61.5t-85.5 22.5
q-54 0 -98.5 -28.5t-70 -75.5t-25.5 -105q0 -50 21 -89.5t58 -62t84 -22.5zM445 640q-27 0 -42.5 9t-25.5 21t-20.5 21t-27.5 9q-16 0 -27.5 -13t-15.5 -43h-76q7 45 25 74.5t44 44.5t56 15q27 0 42.5 -9t26 -21t21 -21t27.5 -9q19 0 30.5 15t15.5 41h74q-9 -63 -44.5 -98.5
t-82.5 -35.5zM264 828l12 82h288l-12 -82h-288z" />
    <glyph glyph-name="uni0230" unicode="&#x230;" horiz-adv-x="881" 
d="M431 -12q-76 0 -140.5 26.5t-113 74t-75 113t-26.5 144.5q0 86 30.5 160t85 131t128 88.5t158.5 31.5q77 0 142 -26t113 -74t75 -113.5t27 -143.5q0 -86 -31 -160.5t-86 -131t-128.5 -88.5t-158.5 -32zM432 79q65 0 120.5 25.5t96.5 69.5t64 101.5t23 122.5
q0 76 -32.5 136.5t-90 96t-135.5 35.5q-65 0 -120.5 -25.5t-96.5 -69.5t-64 -101t-23 -122q0 -76 33 -137t90.5 -96.5t134.5 -35.5zM467 847l16 113h112l-16 -113h-112zM406 1040l12 82h287l-12 -82h-287z" />
    <glyph glyph-name="uni0231" unicode="&#x231;" horiz-adv-x="657" 
d="M314 -12q-74 0 -133.5 34t-94.5 94t-35 138q0 62 22.5 115.5t62.5 94.5t93.5 64t114.5 23q75 0 134.5 -34t94.5 -93.5t35 -136.5q0 -62 -23 -116t-64 -95.5t-94 -64.5t-113 -23zM313 78q56 0 100 29t70 76.5t26 104.5q0 50 -21 89t-58.5 61.5t-85.5 22.5
q-54 0 -98.5 -28.5t-70 -75.5t-25.5 -105q0 -50 21 -89.5t58 -62t84 -22.5zM326 640l16 113h112l-16 -113h-112zM265 833l12 82h287l-12 -82h-287z" />
    <glyph glyph-name="uni0232" unicode="&#x232;" horiz-adv-x="635" 
d="M231 0l48 341l-201 404h105l169 -341l-40 3l261 338h118l-312 -404l-48 -341h-100zM258 867l12 83h288l-12 -83h-288z" />
    <glyph glyph-name="uni0233" unicode="&#x233;" horiz-adv-x="553" 
d="M36 -220q-19 0 -37.5 3.5t-33.5 9.5l7 82q11 -2 26.5 -4.5t29.5 -2.5q33 0 55.5 10t41 31t37.5 53l47 79l-11 -81l-149 579h98l114 -460h-34l247 460h106l-328 -605q-23 -44 -54 -79t-71 -55t-91 -20zM187 660l12 83h288l-12 -83h-288z" />
    <glyph glyph-name="uni0237" unicode="&#x237;" horiz-adv-x="240" 
d="M-78 -220q-10 0 -25 1.5t-24 3.5l7 82q11 -1 20.5 -1.5t17.5 -0.5q43 0 74.5 24.5t38.5 70.5l81 579h95l-82 -584q-9 -57 -37 -96.5t-71 -59t-95 -19.5z" />
    <glyph glyph-name="uni0259" unicode="&#x259;" horiz-adv-x="616" 
d="M285 -12q-76 0 -129 33.5t-81 88.5t-28 119q0 16 3 35.5t6 32.5h442l-5 -80h-389l47 34q-13 -49 2 -90.5t50 -65.5t83 -24q62 0 102 29.5t60.5 82t20.5 120.5q0 51 -21.5 87.5t-57.5 56t-80 19.5q-55 0 -94.5 -26t-64.5 -64l-77 42q19 38 54 68t82 47.5t101 17.5
q75 0 132.5 -34t89.5 -93.5t32 -135.5q0 -61 -20.5 -115.5t-59 -96t-89 -65t-111.5 -23.5z" />
    <glyph glyph-name="circumflex" unicode="&#x2c6;" horiz-adv-x="500" 
d="M162 640l141 155h108l97 -155h-95l-59 91l-84 -91h-108z" />
    <glyph glyph-name="caron" unicode="&#x2c7;" horiz-adv-x="500" 
d="M280 640l-97 155h95l58 -90l84 90h110l-143 -155h-107z" />
    <glyph glyph-name="breve" unicode="&#x2d8;" horiz-adv-x="492" 
d="M338 640q-57 0 -93 20.5t-51.5 56t-10.5 78.5h91q-5 -39 13 -60t57 -21q38 0 62.5 21t30.5 60h90q-6 -44 -29.5 -79t-63 -55.5t-96.5 -20.5z" />
    <glyph glyph-name="dotaccent" unicode="&#x2d9;" horiz-adv-x="278" 
d="M162 640l16 113h112l-16 -113h-112z" />
    <glyph glyph-name="ring" unicode="&#x2da;" horiz-adv-x="384" 
d="M273 613q-43 0 -72 25t-29 69q0 36 18 65t47.5 46.5t66.5 17.5q43 0 71.5 -25.5t28.5 -68.5q0 -36 -17.5 -65.5t-47.5 -46.5t-66 -17zM282 675q23 0 39.5 17t16.5 41q0 18 -12 29.5t-31 11.5q-23 0 -39.5 -17t-16.5 -41q0 -19 12 -30t31 -11z" />
    <glyph glyph-name="ogonek" unicode="&#x2db;" horiz-adv-x="382" 
d="M164 -232q-52 0 -81.5 25t-29.5 66q0 37 20.5 71t57 59.5t82.5 36.5h31l-4 -26q-25 -5 -48 -25t-38 -45.5t-15 -49.5q0 -18 13.5 -30.5t34.5 -12.5q19 0 37.5 7t34.5 20l14 -61q-21 -16 -50 -25.5t-59 -9.5z" />
    <glyph glyph-name="tilde" unicode="&#x2dc;" horiz-adv-x="495" 
d="M397 640q-27 0 -42.5 9t-25.5 21t-20.5 21t-27.5 9q-16 0 -27.5 -13t-15.5 -43h-76q7 45 25 74.5t44 44.5t56 15q27 0 42.5 -9t26 -21t21 -21t27.5 -9q19 0 30.5 15t15.5 41h74q-9 -63 -44.5 -98.5t-82.5 -35.5z" />
    <glyph glyph-name="hungarumlaut" unicode="&#x2dd;" horiz-adv-x="506" 
d="M162 640l75 158h118l-107 -158h-86zM342 640l75 158h118l-107 -158h-86z" />
    <glyph glyph-name="gravecomb" unicode="&#x300;" horiz-adv-x="0" 
d="M272 640l-88 158h125l57 -158h-94z" />
    <glyph glyph-name="acutecomb" unicode="&#x301;" horiz-adv-x="0" 
d="M162 640l102 158h126l-135 -158h-93z" />
    <glyph glyph-name="uni0302" unicode="&#x302;" horiz-adv-x="0" 
d="M162 640l141 155h108l97 -155h-95l-59 91l-84 -91h-108z" />
    <glyph glyph-name="tildecomb" unicode="&#x303;" horiz-adv-x="0" 
d="M397 640q-27 0 -42.5 9t-25.5 21t-20.5 21t-27.5 9q-16 0 -27.5 -13t-15.5 -43h-76q7 45 25 74.5t44 44.5t56 15q27 0 42.5 -9t26 -21t21 -21t27.5 -9q19 0 30.5 15t15.5 41h74q-9 -63 -44.5 -98.5t-82.5 -35.5z" />
    <glyph glyph-name="uni0304" unicode="&#x304;" horiz-adv-x="0" 
d="M164 660l12 83h288l-12 -83h-288z" />
    <glyph glyph-name="uni0306" unicode="&#x306;" horiz-adv-x="0" 
d="M338 640q-57 0 -93 20.5t-51.5 56t-10.5 78.5h91q-5 -39 13 -60t57 -21q38 0 62.5 21t30.5 60h90q-6 -44 -29.5 -79t-63 -55.5t-96.5 -20.5z" />
    <glyph glyph-name="uni0307" unicode="&#x307;" horiz-adv-x="0" 
d="M162 640l16 113h112l-16 -113h-112z" />
    <glyph glyph-name="uni0308" unicode="&#x308;" horiz-adv-x="0" 
d="M162 640l15 113h113l-16 -113h-112zM354 640l16 113h112l-15 -113h-113z" />
    <glyph glyph-name="hookabovecomb" unicode="&#x309;" horiz-adv-x="0" 
d="M265 600l-33 52q28 10 42.5 26t14.5 36q0 16 -13 26.5t-34 10.5q-12 0 -24 -2t-29 -9l-5 61q20 11 41 14.5t40 3.5q52 0 81.5 -24t29.5 -64q0 -28 -14.5 -53.5t-39.5 -45t-57 -32.5z" />
    <glyph glyph-name="uni030A" unicode="&#x30a;" horiz-adv-x="0" 
d="M273 613q-43 0 -72 25t-29 69q0 36 18 65t47.5 46.5t66.5 17.5q43 0 71.5 -25.5t28.5 -68.5q0 -36 -17.5 -65.5t-47.5 -46.5t-66 -17zM282 675q23 0 39.5 17t16.5 41q0 18 -12 29.5t-31 11.5q-23 0 -39.5 -17t-16.5 -41q0 -19 12 -30t31 -11z" />
    <glyph glyph-name="uni030B" unicode="&#x30b;" horiz-adv-x="0" 
d="M162 640l75 158h118l-107 -158h-86zM342 640l75 158h118l-107 -158h-86z" />
    <glyph glyph-name="uni030C" unicode="&#x30c;" horiz-adv-x="0" 
d="M280 640l-97 155h95l58 -90l84 90h110l-143 -155h-107z" />
    <glyph glyph-name="uni030F" unicode="&#x30f;" horiz-adv-x="0" 
d="M273 640l-89 159h118l57 -159h-86zM453 640l-89 159h118l58 -159h-87z" />
    <glyph glyph-name="uni0311" unicode="&#x311;" horiz-adv-x="0" 
d="M162 640q6 43 29 78.5t63 56t97 20.5q58 0 94 -21t51 -56t9 -78h-90q5 39 -13.5 60t-55.5 21q-39 0 -63 -21t-30 -60h-91z" />
    <glyph glyph-name="uni0312" unicode="&#x312;" horiz-adv-x="0" 
d="M156 600l93 176h87l-64 -176h-116z" />
    <glyph glyph-name="uni031B" unicode="&#x31b;" horiz-adv-x="0" 
d="M162 640l10 72h11q14 0 27.5 6t22 21t8.5 40q0 15 -3 30.5t-9 33.5h87q5 -16 8.5 -32.5t3.5 -33.5q0 -63 -38.5 -100t-103.5 -37h-24z" />
    <glyph glyph-name="dotbelowcomb" unicode="&#x323;" horiz-adv-x="0" 
d="M44 -202l16 112h112l-16 -112h-112z" />
    <glyph glyph-name="uni0324" unicode="&#x324;" horiz-adv-x="0" 
d="M44 -202l16 112h112l-16 -112h-112zM236 -202l16 112h113l-16 -112h-113z" />
    <glyph glyph-name="uni0326" unicode="&#x326;" horiz-adv-x="0" 
d="M38 -246l64 176h115l-92 -176h-87z" />
    <glyph glyph-name="uni0327" unicode="&#x327;" horiz-adv-x="0" 
d="M146 -232q-28 0 -56.5 9.5t-45.5 25.5l32 61q14 -13 31.5 -20t35.5 -7q23 0 38.5 12.5t15.5 31.5t-22.5 30.5t-66.5 16.5l34 82h62l-18 -45q45 -9 69.5 -30t24.5 -54q0 -32 -18 -57.5t-48 -40.5t-68 -15z" />
    <glyph glyph-name="uni0328" unicode="&#x328;" horiz-adv-x="0" 
d="M164 -232q-52 0 -81.5 25t-29.5 66q0 37 20.5 71t57 59.5t82.5 36.5h31l-4 -26q-25 -5 -48 -25t-38 -45.5t-15 -49.5q0 -18 13.5 -30.5t34.5 -12.5q19 0 37.5 7t34.5 20l14 -61q-21 -16 -50 -25.5t-59 -9.5z" />
    <glyph glyph-name="uni032E" unicode="&#x32e;" horiz-adv-x="0" 
d="M215 -245q-57 0 -94 21t-52 56.5t-10 77.5h91q-4 -39 14.5 -60t55.5 -21q38 0 62.5 21t30.5 60h90q-6 -45 -29.5 -80t-63.5 -55t-95 -20z" />
    <glyph glyph-name="uni0331" unicode="&#x331;" horiz-adv-x="0" 
d="M46 -182l12 82h287l-11 -82h-288z" />
    <glyph glyph-name="uni0394" unicode="&#x394;" horiz-adv-x="609" 
d="M-27 0l13 90l327 655h116l144 -655l-13 -90h-587zM74 49l-27 41h465l-30 -41l-130 624h27z" />
    <glyph glyph-name="uni03A9" unicode="&#x3a9;" horiz-adv-x="903" 
d="M47 0l13 90h175l-22 -17q-63 44 -100 114.5t-37 160.5q0 82 30.5 156t85.5 131t129 89.5t160 32.5q77 0 141.5 -26t112 -73.5t74 -112t26.5 -141.5q0 -71 -22.5 -133.5t-62.5 -113t-95 -84.5l-20 17h182l-13 -90h-299l13 90q66 18 114.5 63t76 108t27.5 134
q0 78 -33 139.5t-92 96.5t-135 35q-65 0 -119.5 -25t-95.5 -69t-64 -100t-23 -120t23 -117.5t65 -91t97 -53.5l-13 -90h-299z" />
    <glyph glyph-name="pi" unicode="&#x3c0;" horiz-adv-x="658" 
d="M89 0l63 450h-97l12 89h600l-13 -89h-97l-63 -450h-94l63 450h-217l-63 -450h-94z" />
    <glyph glyph-name="uni0E3F" unicode="&#xe3f;" horiz-adv-x="699" 
d="M45 0l104 745h301q93 0 145.5 -47t52.5 -129q0 -40 -14.5 -75.5t-41 -63t-65.5 -44.5l-4 31q60 -24 90 -70.5t30 -102.5q0 -72 -34 -127.5t-94.5 -86t-141.5 -30.5h-328zM156 90h231q46 0 82 18.5t55.5 52t19.5 76.5q0 51 -35 82.5t-95 31.5h-221zM205 439h211
q39 0 68.5 16.5t46.5 45t17 64.5q0 43 -29.5 67t-79.5 24h-203zM243 -100l132 945h76l-132 -945h-76z" />
    <glyph glyph-name="uni1E08" unicode="&#x1e08;" horiz-adv-x="794" 
d="M416 -12q-72 0 -134 24.5t-108 71.5t-72 112.5t-26 147.5q0 86 29 161t81.5 131.5t123.5 88.5t154 32q80 0 140.5 -27.5t100 -71t54.5 -91.5l-93 -39q-22 62 -73.5 100t-130.5 38q-62 0 -114.5 -24t-91.5 -68t-60.5 -102.5t-21.5 -127.5q0 -80 30.5 -139.5t85.5 -92.5
t127 -33q80 0 138 39t89 101l88 -44q-22 -48 -67 -91t-108 -69.5t-141 -26.5zM395 -232q-28 0 -56.5 9.5t-45.5 25.5l32 61q14 -13 31.5 -20t35.5 -7q23 0 38.5 12.5t15.5 31.5t-22.5 30.5t-66.5 16.5l34 82h62l-18 -45q45 -9 69.5 -30t24.5 -54q0 -32 -18 -57.5t-48 -40.5
t-68 -15zM431 847l102 158h126l-135 -158h-93z" />
    <glyph glyph-name="uni1E09" unicode="&#x1e09;" horiz-adv-x="615" 
d="M303 -12q-74 0 -131 34.5t-89 94t-32 134.5q0 63 22 117.5t61.5 95.5t92 64t112.5 23q54 0 99.5 -18.5t78.5 -51.5t47 -76l-85 -38q-15 42 -52 68t-88 26q-55 0 -98 -29.5t-67 -77.5t-24 -103q0 -50 20 -89t56 -61.5t82 -22.5q52 0 93 27t64 71l81 -45q-21 -42 -57 -74
t-84 -50.5t-102 -18.5zM283 -232q-28 0 -56.5 9.5t-45.5 25.5l32 61q14 -13 31.5 -20t35.5 -7q23 0 38.5 12.5t15.5 31.5t-22.5 30.5t-66.5 16.5l34 82h62l-18 -45q45 -9 69.5 -30t24.5 -54q0 -32 -18 -57.5t-48 -40.5t-68 -15zM313 640l102 158h126l-135 -158h-93z" />
    <glyph glyph-name="uni1E0C" unicode="&#x1e0c;" horiz-adv-x="744" 
d="M45 0l104 745h232q103 0 178.5 -42.5t117 -117t41.5 -172.5q0 -90 -28 -165.5t-81.5 -131t-128.5 -86t-169 -30.5h-266zM156 90h157q68 0 123 23t95.5 65.5t62.5 100.5t22 128q0 76 -29.5 132t-84 86t-130.5 30h-136zM260 -202l16 112h112l-16 -112h-112z" />
    <glyph glyph-name="uni1E0D" unicode="&#x1e0d;" horiz-adv-x="669" 
d="M300 -12q-73 0 -130 33.5t-88.5 92t-31.5 133.5q0 64 21.5 119.5t61 96.5t92 64.5t113.5 23.5q71 0 122.5 -29.5t79.5 -79.5l-16 -19l46 334h95l-105 -757h-92l15 115l25 -15q-31 -54 -87 -83t-121 -29zM310 78q55 0 99.5 29t70 76.5t25.5 103.5q0 50 -21 89t-58 62
t-85 23q-55 0 -99 -29t-68.5 -77t-24.5 -106q0 -49 20.5 -87.5t57 -61t83.5 -22.5zM213 -202l16 112h112l-16 -112h-112z" />
    <glyph glyph-name="uni1E0E" unicode="&#x1e0e;" horiz-adv-x="744" 
d="M45 0l104 745h232q103 0 178.5 -42.5t117 -117t41.5 -172.5q0 -90 -28 -165.5t-81.5 -131t-128.5 -86t-169 -30.5h-266zM156 90h157q68 0 123 23t95.5 65.5t62.5 100.5t22 128q0 76 -29.5 132t-84 86t-130.5 30h-136zM175 -182l12 82h287l-11 -82h-288z" />
    <glyph glyph-name="uni1E0F" unicode="&#x1e0f;" horiz-adv-x="669" 
d="M300 -12q-73 0 -130 33.5t-88.5 92t-31.5 133.5q0 64 21.5 119.5t61 96.5t92 64.5t113.5 23.5q71 0 122.5 -29.5t79.5 -79.5l-16 -19l46 334h95l-105 -757h-92l15 115l25 -15q-31 -54 -87 -83t-121 -29zM310 78q55 0 99.5 29t70 76.5t25.5 103.5q0 50 -21 89t-58 62
t-85 23q-55 0 -99 -29t-68.5 -77t-24.5 -106q0 -49 20.5 -87.5t57 -61t83.5 -22.5zM128 -182l12 82h287l-11 -82h-288z" />
    <glyph glyph-name="uni1E14" unicode="&#x1e14;" horiz-adv-x="607" 
d="M45 0l104 745h486l-13 -90h-386l-34 -236h367l-12 -90h-367l-34 -239h387l-12 -90h-486zM265 867l12 83h287l-12 -83h-287zM383 1017l-89 158h125l58 -158h-94z" />
    <glyph glyph-name="uni1E15" unicode="&#x1e15;" horiz-adv-x="616" 
d="M305 -12q-75 0 -132 34t-89.5 93.5t-32.5 135.5q0 61 20.5 115t59 96t89 65.5t111.5 23.5q76 0 129 -34t81 -88.5t28 -118.5q0 -17 -3 -36t-6 -32h-442l5 80h389l-47 -35q13 51 -2 91.5t-50 65t-83 24.5q-61 0 -101.5 -29.5t-61 -82t-20.5 -120.5q0 -50 21.5 -87
t57.5 -56.5t80 -19.5q55 0 94.5 25.5t64.5 64.5l77 -42q-19 -37 -54 -67.5t-82 -48t-101 -17.5zM220 660l12 83h287l-12 -83h-287zM338 810l-89 158h125l58 -158h-94z" />
    <glyph glyph-name="uni1E16" unicode="&#x1e16;" horiz-adv-x="607" 
d="M45 0l104 745h486l-13 -90h-386l-34 -236h367l-12 -90h-367l-34 -239h387l-12 -90h-486zM376 1017l102 158h126l-134 -158h-94zM258 867l12 83h288l-12 -83h-288z" />
    <glyph glyph-name="uni1E17" unicode="&#x1e17;" horiz-adv-x="616" 
d="M305 -12q-75 0 -132 34t-89.5 93.5t-32.5 135.5q0 61 20.5 115t59 96t89 65.5t111.5 23.5q76 0 129 -34t81 -88.5t28 -118.5q0 -17 -3 -36t-6 -32h-442l5 80h389l-47 -35q13 51 -2 91.5t-50 65t-83 24.5q-61 0 -101.5 -29.5t-61 -82t-20.5 -120.5q0 -50 21.5 -87
t57.5 -56.5t80 -19.5q55 0 94.5 25.5t64.5 64.5l77 -42q-19 -37 -54 -67.5t-82 -48t-101 -17.5zM330 810l102 158h126l-134 -158h-94zM212 660l12 83h288l-12 -83h-288z" />
    <glyph glyph-name="uni1E1C" unicode="&#x1e1c;" horiz-adv-x="607" 
d="M45 0l104 745h486l-13 -90h-386l-34 -236h367l-12 -90h-367l-34 -239h387l-12 -90h-486zM266 -232q-28 0 -56.5 9.5t-45.5 25.5l32 61q14 -13 31.5 -20t35.5 -7q23 0 38.5 12.5t15.5 31.5t-22.5 30.5t-66.5 16.5l34 82h62l-18 -45q45 -9 69.5 -30t24.5 -54
q0 -32 -18 -57.5t-48 -40.5t-68 -15zM411 848q-57 0 -93 20.5t-51.5 56t-10.5 78.5h91q-5 -39 13 -60t57 -21q38 0 62.5 21t30.5 60h90q-6 -44 -29.5 -79t-63 -55.5t-96.5 -20.5z" />
    <glyph glyph-name="uni1E1D" unicode="&#x1e1d;" horiz-adv-x="616" 
d="M305 -12q-75 0 -132 34t-89.5 93.5t-32.5 135.5q0 61 20.5 115t59 96t89 65.5t111.5 23.5q76 0 129 -34t81 -88.5t28 -118.5q0 -17 -3 -36t-6 -32h-442l5 80h389l-47 -35q13 51 -2 91.5t-50 65t-83 24.5q-61 0 -101.5 -29.5t-61 -82t-20.5 -120.5q0 -50 21.5 -87
t57.5 -56.5t80 -19.5q55 0 94.5 25.5t64.5 64.5l77 -42q-19 -37 -54 -67.5t-82 -48t-101 -17.5zM249 -232q-28 0 -56.5 9.5t-45.5 25.5l32 61q14 -13 31.5 -20t35.5 -7q23 0 38.5 12.5t15.5 31.5t-22.5 30.5t-66.5 16.5l34 82h62l-18 -45q45 -9 69.5 -30t24.5 -54
q0 -32 -18 -57.5t-48 -40.5t-68 -15zM366 641q-57 0 -93 20.5t-51.5 56t-10.5 78.5h91q-5 -39 13 -60t57 -21q38 0 62.5 21t30.5 60h90q-6 -44 -29.5 -79t-63 -55.5t-96.5 -20.5z" />
    <glyph glyph-name="uni1E20" unicode="&#x1e20;" horiz-adv-x="823" 
d="M414 -12q-72 0 -133.5 25t-107.5 72t-71.5 112.5t-25.5 146.5q0 88 30.5 163t83.5 131.5t124.5 87.5t152.5 31q78 0 138 -27t99.5 -70t54.5 -92l-91 -43q-21 65 -74 103t-132 38q-64 0 -116.5 -24.5t-91 -68t-59.5 -101.5t-21 -124q0 -82 31.5 -142t87.5 -93.5t130 -33.5
q68 0 123.5 29t91 80.5t42.5 117.5l6 46l40 -42h-290l9 85h343l-7 -71q-7 -76 -38.5 -138t-81.5 -106.5t-113 -68t-134 -23.5zM351 867l12 83h288l-12 -83h-288z" />
    <glyph glyph-name="uni1E21" unicode="&#x1e21;" horiz-adv-x="660" 
d="M269 -220q-60 0 -107 18.5t-77.5 51t-42.5 74.5l88 32q10 -36 46.5 -61t100.5 -25q43 0 82 16.5t66 48.5t33 80l18 129l26 -19q-31 -55 -85.5 -83.5t-118.5 -28.5q-68 0 -124.5 31.5t-89 88t-32.5 130.5q0 60 21 112.5t59.5 91.5t89.5 61.5t111 22.5q67 0 119 -29t81 -80
l-16 -23l16 120h93l-73 -527q-9 -69 -49.5 -121.5t-101 -81.5t-133.5 -29zM308 103q53 0 95.5 27t68 71t25.5 95q0 47 -20 84.5t-55.5 59t-83.5 21.5q-50 0 -93 -26t-68.5 -69.5t-25.5 -99.5q0 -46 20.5 -83t56 -58.5t80.5 -21.5zM241 660l12 83h288l-12 -83h-288z" />
    <glyph glyph-name="uni1E24" unicode="&#x1e24;" horiz-adv-x="736" 
d="M45 0l104 745h99l-46 -332h372l47 332h98l-104 -745h-98l45 323h-373l-45 -323h-99zM246 -202l16 112h112l-16 -112h-112z" />
    <glyph glyph-name="uni1E25" unicode="&#x1e25;" horiz-adv-x="580" 
d="M34 0l106 757h94l-45 -323l-16 11q26 51 74 78.5t105 27.5q59 0 102 -28t63.5 -76.5t11.5 -110.5l-47 -336h-95l46 328q8 61 -22 97t-85 36q-38 0 -70.5 -17.5t-54.5 -49.5t-28 -76l-44 -318h-95zM168 -202l16 112h112l-16 -112h-112z" />
    <glyph glyph-name="uni1E2A" unicode="&#x1e2a;" horiz-adv-x="736" 
d="M45 0l104 745h99l-46 -332h372l47 332h98l-104 -745h-98l45 323h-373l-45 -323h-99zM301 -245q-57 0 -94 21t-52 56.5t-10 77.5h91q-4 -39 14.5 -60t55.5 -21q38 0 62.5 21t30.5 60h90q-6 -45 -29.5 -80t-63.5 -55t-95 -20z" />
    <glyph glyph-name="uni1E2B" unicode="&#x1e2b;" horiz-adv-x="580" 
d="M34 0l106 757h94l-45 -323l-16 11q26 51 74 78.5t105 27.5q59 0 102 -28t63.5 -76.5t11.5 -110.5l-47 -336h-95l46 328q8 61 -22 97t-85 36q-38 0 -70.5 -17.5t-54.5 -49.5t-28 -76l-44 -318h-95zM223 -245q-57 0 -94 21t-52 56.5t-10 77.5h91q-4 -39 14.5 -60t55.5 -21
q38 0 62.5 21t30.5 60h90q-6 -45 -29.5 -80t-63.5 -55t-95 -20z" />
    <glyph glyph-name="uni1E2E" unicode="&#x1e2e;" horiz-adv-x="265" 
d="M45 0l104 745h99l-104 -745h-99zM186 1017l102 158h126l-135 -158h-93zM58 847l15 113h113l-16 -113h-112zM250 847l16 113h112l-15 -113h-113z" />
    <glyph glyph-name="uni1E2F" unicode="&#x1e2f;" horiz-adv-x="211" 
d="M20 0l76 539h94l-75 -539h-95zM130 810l102 158h126l-135 -158h-93zM2 640l15 113h113l-16 -113h-112zM194 640l16 113h112l-15 -113h-113z" />
    <glyph glyph-name="uni1E36" unicode="&#x1e36;" horiz-adv-x="536" 
d="M45 0l104 745h99l-92 -655h327l-13 -90h-425zM173 -202l16 112h112l-16 -112h-112z" />
    <glyph glyph-name="uni1E37" unicode="&#x1e37;" horiz-adv-x="239" 
d="M34 0l106 757h95l-106 -757h-95zM-3 -202l16 112h112l-16 -112h-112z" />
    <glyph glyph-name="uni1E3A" unicode="&#x1e3a;" horiz-adv-x="536" 
d="M45 0l104 745h99l-92 -655h327l-13 -90h-425zM89 -182l12 82h287l-11 -82h-288z" />
    <glyph glyph-name="uni1E3B" unicode="&#x1e3b;" horiz-adv-x="239" 
d="M34 0l106 757h95l-106 -757h-95zM-87 -182l12 82h287l-11 -82h-288z" />
    <glyph glyph-name="uni1E42" unicode="&#x1e42;" horiz-adv-x="856" 
d="M45 0l104 745h90l222 -401l-55 2l342 399h91l-104 -745h-98l86 620l34 -11l-332 -389h-8l-219 399l33 1l-87 -620h-99zM306 -202l16 112h112l-16 -112h-112z" />
    <glyph glyph-name="uni1E43" unicode="&#x1e43;" horiz-adv-x="914" 
d="M34 0l76 539h91l-14 -106l-11 16q28 51 72.5 76.5t98.5 25.5q64 0 109.5 -35t58.5 -94h-28q30 66 84.5 97.5t116.5 31.5q57 0 99 -27t63.5 -75t12.5 -110l-47 -339h-94l45 328q6 41 -5.5 70.5t-36 46t-60.5 16.5q-35 0 -67 -16t-53.5 -46t-27.5 -72l-45 -327h-94l46 328
q5 41 -6.5 70.5t-36 46t-60.5 16.5t-68 -17.5t-53 -49.5t-28 -76l-44 -318h-94zM335 -202l16 112h112l-16 -112h-112z" />
    <glyph glyph-name="uni1E44" unicode="&#x1e44;" horiz-adv-x="738" 
d="M45 0l104 745h83l337 -602l-31 -4l85 606h99l-104 -745h-83l-335 606l29 4l-85 -610h-99zM395 847l16 113h112l-16 -113h-112z" />
    <glyph glyph-name="uni1E45" unicode="&#x1e45;" horiz-adv-x="580" 
d="M34 0l76 539h91l-14 -105l-14 11q26 51 74 78.5t105 27.5q59 0 102 -28t63.5 -76.5t11.5 -110.5l-47 -336h-94l46 328q8 61 -22 97t-86 36q-39 0 -71.5 -17.5t-54 -49.5t-28.5 -76l-44 -318h-94zM287 640l16 113h112l-16 -113h-112z" />
    <glyph glyph-name="uni1E46" unicode="&#x1e46;" horiz-adv-x="738" 
d="M45 0l104 745h83l337 -602l-31 -4l85 606h99l-104 -745h-83l-335 606l29 4l-85 -610h-99zM247 -202l16 112h112l-16 -112h-112z" />
    <glyph glyph-name="uni1E47" unicode="&#x1e47;" horiz-adv-x="580" 
d="M34 0l76 539h91l-14 -105l-14 11q26 51 74 78.5t105 27.5q59 0 102 -28t63.5 -76.5t11.5 -110.5l-47 -336h-94l46 328q8 61 -22 97t-86 36q-39 0 -71.5 -17.5t-54 -49.5t-28.5 -76l-44 -318h-94zM168 -202l16 112h112l-16 -112h-112z" />
    <glyph glyph-name="uni1E48" unicode="&#x1e48;" horiz-adv-x="738" 
d="M45 0l104 745h83l337 -602l-31 -4l85 606h99l-104 -745h-83l-335 606l29 4l-85 -610h-99zM162 -182l12 82h287l-11 -82h-288z" />
    <glyph glyph-name="uni1E49" unicode="&#x1e49;" horiz-adv-x="580" 
d="M34 0l76 539h91l-14 -105l-14 11q26 51 74 78.5t105 27.5q59 0 102 -28t63.5 -76.5t11.5 -110.5l-47 -336h-94l46 328q8 61 -22 97t-86 36q-39 0 -71.5 -17.5t-54 -49.5t-28.5 -76l-44 -318h-94zM83 -182l12 82h287l-11 -82h-288z" />
    <glyph glyph-name="uni1E4C" unicode="&#x1e4c;" horiz-adv-x="881" 
d="M431 -12q-76 0 -140.5 26.5t-113 74t-75 113t-26.5 144.5q0 86 30.5 160t85 131t128 88.5t158.5 31.5q77 0 142 -26t113 -74t75 -113.5t27 -143.5q0 -86 -31 -160.5t-86 -131t-128.5 -88.5t-158.5 -32zM432 79q65 0 120.5 25.5t96.5 69.5t64 101.5t23 122.5
q0 76 -32.5 136.5t-90 96t-135.5 35.5q-65 0 -120.5 -25.5t-96.5 -69.5t-64 -101t-23 -122q0 -76 33 -137t90.5 -96.5t134.5 -35.5zM586 847q-27 0 -42.5 9t-25.5 21t-20.5 21t-27.5 9q-16 0 -27.5 -13t-15.5 -43h-76q7 45 25 74.5t44 44.5t56 15q27 0 42.5 -9t26 -21
t21 -21t27.5 -9q19 0 30.5 15t15.5 41h74q-9 -63 -44.5 -98.5t-82.5 -35.5zM500 1017l101 158h126l-134 -158h-93z" />
    <glyph glyph-name="uni1E4D" unicode="&#x1e4d;" horiz-adv-x="657" 
d="M314 -12q-74 0 -133.5 34t-94.5 94t-35 138q0 62 22.5 115.5t62.5 94.5t93.5 64t114.5 23q75 0 134.5 -34t94.5 -93.5t35 -136.5q0 -62 -23 -116t-64 -95.5t-94 -64.5t-113 -23zM313 78q56 0 100 29t70 76.5t26 104.5q0 50 -21 89t-58.5 61.5t-85.5 22.5
q-54 0 -98.5 -28.5t-70 -75.5t-25.5 -105q0 -50 21 -89.5t58 -62t84 -22.5zM445 640q-27 0 -42.5 9t-25.5 21t-20.5 21t-27.5 9q-16 0 -27.5 -13t-15.5 -43h-76q7 45 25 74.5t44 44.5t56 15q27 0 42.5 -9t26 -21t21 -21t27.5 -9q19 0 30.5 15t15.5 41h74q-9 -63 -44.5 -98.5
t-82.5 -35.5zM359 810l101 158h126l-134 -158h-93z" />
    <glyph glyph-name="uni1E4E" unicode="&#x1e4e;" horiz-adv-x="881" 
d="M431 -12q-76 0 -140.5 26.5t-113 74t-75 113t-26.5 144.5q0 86 30.5 160t85 131t128 88.5t158.5 31.5q77 0 142 -26t113 -74t75 -113.5t27 -143.5q0 -86 -31 -160.5t-86 -131t-128.5 -88.5t-158.5 -32zM432 79q65 0 120.5 25.5t96.5 69.5t64 101.5t23 122.5
q0 76 -32.5 136.5t-90 96t-135.5 35.5q-65 0 -120.5 -25.5t-96.5 -69.5t-64 -101t-23 -122q0 -76 33 -137t90.5 -96.5t134.5 -35.5zM586 847q-27 0 -42.5 9t-25.5 21t-20.5 21t-27.5 9q-16 0 -27.5 -13t-15.5 -43h-76q7 45 25 74.5t44 44.5t56 15q27 0 42.5 -9t26 -21
t21 -21t27.5 -9q19 0 30.5 15t15.5 41h74q-9 -63 -44.5 -98.5t-82.5 -35.5zM396 1032l16 113h113l-16 -113h-113zM589 1032l16 113h112l-16 -113h-112z" />
    <glyph glyph-name="uni1E4F" unicode="&#x1e4f;" horiz-adv-x="657" 
d="M314 -12q-74 0 -133.5 34t-94.5 94t-35 138q0 62 22.5 115.5t62.5 94.5t93.5 64t114.5 23q75 0 134.5 -34t94.5 -93.5t35 -136.5q0 -62 -23 -116t-64 -95.5t-94 -64.5t-113 -23zM313 78q56 0 100 29t70 76.5t26 104.5q0 50 -21 89t-58.5 61.5t-85.5 22.5
q-54 0 -98.5 -28.5t-70 -75.5t-25.5 -105q0 -50 21 -89.5t58 -62t84 -22.5zM445 640q-27 0 -42.5 9t-25.5 21t-20.5 21t-27.5 9q-16 0 -27.5 -13t-15.5 -43h-76q7 45 25 74.5t44 44.5t56 15q27 0 42.5 -9t26 -21t21 -21t27.5 -9q19 0 30.5 15t15.5 41h74q-9 -63 -44.5 -98.5
t-82.5 -35.5zM255 825l16 113h113l-16 -113h-113zM448 825l16 113h112l-16 -113h-112z" />
    <glyph glyph-name="uni1E50" unicode="&#x1e50;" horiz-adv-x="881" 
d="M431 -12q-76 0 -140.5 26.5t-113 74t-75 113t-26.5 144.5q0 86 30.5 160t85 131t128 88.5t158.5 31.5q77 0 142 -26t113 -74t75 -113.5t27 -143.5q0 -86 -31 -160.5t-86 -131t-128.5 -88.5t-158.5 -32zM432 79q65 0 120.5 25.5t96.5 69.5t64 101.5t23 122.5
q0 76 -32.5 136.5t-90 96t-135.5 35.5q-65 0 -120.5 -25.5t-96.5 -69.5t-64 -101t-23 -122q0 -76 33 -137t90.5 -96.5t134.5 -35.5zM381 867l12 83h287l-12 -83h-287zM499 1017l-89 158h125l58 -158h-94z" />
    <glyph glyph-name="uni1E51" unicode="&#x1e51;" horiz-adv-x="657" 
d="M314 -12q-74 0 -133.5 34t-94.5 94t-35 138q0 62 22.5 115.5t62.5 94.5t93.5 64t114.5 23q75 0 134.5 -34t94.5 -93.5t35 -136.5q0 -62 -23 -116t-64 -95.5t-94 -64.5t-113 -23zM313 78q56 0 100 29t70 76.5t26 104.5q0 50 -21 89t-58.5 61.5t-85.5 22.5
q-54 0 -98.5 -28.5t-70 -75.5t-25.5 -105q0 -50 21 -89.5t58 -62t84 -22.5zM240 660l12 83h287l-12 -83h-287zM358 810l-89 158h125l58 -158h-94z" />
    <glyph glyph-name="uni1E52" unicode="&#x1e52;" horiz-adv-x="881" 
d="M431 -12q-76 0 -140.5 26.5t-113 74t-75 113t-26.5 144.5q0 86 30.5 160t85 131t128 88.5t158.5 31.5q77 0 142 -26t113 -74t75 -113.5t27 -143.5q0 -86 -31 -160.5t-86 -131t-128.5 -88.5t-158.5 -32zM432 79q65 0 120.5 25.5t96.5 69.5t64 101.5t23 122.5
q0 76 -32.5 136.5t-90 96t-135.5 35.5q-65 0 -120.5 -25.5t-96.5 -69.5t-64 -101t-23 -122q0 -76 33 -137t90.5 -96.5t134.5 -35.5zM492 1017l102 158h126l-134 -158h-94zM374 867l12 83h288l-12 -83h-288z" />
    <glyph glyph-name="uni1E53" unicode="&#x1e53;" horiz-adv-x="657" 
d="M314 -12q-74 0 -133.5 34t-94.5 94t-35 138q0 62 22.5 115.5t62.5 94.5t93.5 64t114.5 23q75 0 134.5 -34t94.5 -93.5t35 -136.5q0 -62 -23 -116t-64 -95.5t-94 -64.5t-113 -23zM313 78q56 0 100 29t70 76.5t26 104.5q0 50 -21 89t-58.5 61.5t-85.5 22.5
q-54 0 -98.5 -28.5t-70 -75.5t-25.5 -105q0 -50 21 -89.5t58 -62t84 -22.5zM351 810l102 158h126l-134 -158h-94zM233 660l12 83h288l-12 -83h-288z" />
    <glyph glyph-name="uni1E5A" unicode="&#x1e5a;" horiz-adv-x="651" 
d="M45 0l104 745h252q69 0 120 -26.5t79 -75.5t28 -117q0 -55 -21 -101t-60 -78.5t-93 -48.5l129 -298h-108l-138 325l60 -40h-213l-40 -285h-99zM197 375h169q48 0 84.5 20t57.5 54t21 79q0 59 -36.5 93t-97.5 34h-159zM198 -202l16 112h112l-16 -112h-112z" />
    <glyph glyph-name="uni1E5B" unicode="&#x1e5b;" horiz-adv-x="350" 
d="M34 0l76 539h92l-14 -99l-9 14q26 46 68 68.5t98 22.5h33l-13 -88h-47q-57 0 -96 -36.5t-50 -109.5l-43 -311h-95zM-3 -202l16 112h112l-16 -112h-112z" />
    <glyph glyph-name="uni1E5E" unicode="&#x1e5e;" horiz-adv-x="651" 
d="M45 0l104 745h252q69 0 120 -26.5t79 -75.5t28 -117q0 -55 -21 -101t-60 -78.5t-93 -48.5l129 -298h-108l-138 325l60 -40h-213l-40 -285h-99zM197 375h169q48 0 84.5 20t57.5 54t21 79q0 59 -36.5 93t-97.5 34h-159zM113 -182l12 82h287l-11 -82h-288z" />
    <glyph glyph-name="uni1E5F" unicode="&#x1e5f;" horiz-adv-x="350" 
d="M34 0l76 539h92l-14 -99l-9 14q26 46 68 68.5t98 22.5h33l-13 -88h-47q-57 0 -96 -36.5t-50 -109.5l-43 -311h-95zM-87 -182l12 82h287l-11 -82h-288z" />
    <glyph glyph-name="uni1E60" unicode="&#x1e60;" horiz-adv-x="648" 
d="M316 -12q-70 0 -127.5 25.5t-96.5 72t-53 107.5l88 30q18 -72 68.5 -109.5t124.5 -37.5q50 0 85.5 16.5t54 45.5t18.5 64q0 39 -23.5 64.5t-69.5 39.5l-130 42q-73 23 -111 71.5t-38 114.5q0 61 32 112t88.5 81t129.5 30q67 0 119.5 -24.5t87 -65.5t46.5 -93l-86 -31
q-15 60 -59.5 93t-108.5 33q-44 0 -78.5 -16t-53.5 -44.5t-19 -66.5q0 -36 22.5 -64.5t71.5 -43.5l118 -38q81 -26 121 -74t40 -114q0 -59 -32.5 -109t-90.5 -80.5t-138 -30.5zM350 847l16 113h112l-16 -113h-112z" />
    <glyph glyph-name="uni1E61" unicode="&#x1e61;" horiz-adv-x="511" 
d="M236 -12q-53 0 -97.5 18.5t-75.5 52.5t-43 79l77 31q18 -47 56.5 -74t88.5 -27q48 0 77.5 23.5t29.5 58.5q0 26 -19 42.5t-53 25.5l-79 22q-61 17 -93.5 53.5t-32.5 87.5q0 47 27 85.5t72.5 61.5t100.5 23q74 0 127.5 -37.5t69.5 -101.5l-78 -31q-14 43 -46.5 66
t-76.5 23q-45 0 -73 -22t-28 -56q0 -26 16.5 -42t49.5 -26l85 -26q61 -18 93.5 -54.5t32.5 -87.5q0 -47 -27 -85t-74.5 -60.5t-106.5 -22.5zM252 640l16 113h112l-16 -113h-112z" />
    <glyph glyph-name="uni1E62" unicode="&#x1e62;" horiz-adv-x="648" 
d="M316 -12q-70 0 -127.5 25.5t-96.5 72t-53 107.5l88 30q18 -72 68.5 -109.5t124.5 -37.5q50 0 85.5 16.5t54 45.5t18.5 64q0 39 -23.5 64.5t-69.5 39.5l-130 42q-73 23 -111 71.5t-38 114.5q0 61 32 112t88.5 81t129.5 30q67 0 119.5 -24.5t87 -65.5t46.5 -93l-86 -31
q-15 60 -59.5 93t-108.5 33q-44 0 -78.5 -16t-53.5 -44.5t-19 -66.5q0 -36 22.5 -64.5t71.5 -43.5l118 -38q81 -26 121 -74t40 -114q0 -59 -32.5 -109t-90.5 -80.5t-138 -30.5zM202 -202l16 112h112l-16 -112h-112z" />
    <glyph glyph-name="uni1E63" unicode="&#x1e63;" horiz-adv-x="511" 
d="M236 -12q-53 0 -97.5 18.5t-75.5 52.5t-43 79l77 31q18 -47 56.5 -74t88.5 -27q48 0 77.5 23.5t29.5 58.5q0 26 -19 42.5t-53 25.5l-79 22q-61 17 -93.5 53.5t-32.5 87.5q0 47 27 85.5t72.5 61.5t100.5 23q74 0 127.5 -37.5t69.5 -101.5l-78 -31q-14 43 -46.5 66
t-76.5 23q-45 0 -73 -22t-28 -56q0 -26 16.5 -42t49.5 -26l85 -26q61 -18 93.5 -54.5t32.5 -87.5q0 -47 -27 -85t-74.5 -60.5t-106.5 -22.5zM133 -202l16 112h112l-16 -112h-112z" />
    <glyph glyph-name="uni1E64" unicode="&#x1e64;" horiz-adv-x="648" 
d="M316 -12q-70 0 -127.5 25.5t-96.5 72t-53 107.5l88 30q18 -72 68.5 -109.5t124.5 -37.5q50 0 85.5 16.5t54 45.5t18.5 64q0 39 -23.5 64.5t-69.5 39.5l-130 42q-73 23 -111 71.5t-38 114.5q0 61 32 112t88.5 81t129.5 30q67 0 119.5 -24.5t87 -65.5t46.5 -93l-86 -31
q-15 60 -59.5 93t-108.5 33q-44 0 -78.5 -16t-53.5 -44.5t-19 -66.5q0 -36 22.5 -64.5t71.5 -43.5l118 -38q81 -26 121 -74t40 -114q0 -59 -32.5 -109t-90.5 -80.5t-138 -30.5zM347 847l101 150h131l-133 -150h-99zM256 950l16 112h112l-16 -112h-112z" />
    <glyph glyph-name="uni1E65" unicode="&#x1e65;" horiz-adv-x="511" 
d="M236 -12q-53 0 -97.5 18.5t-75.5 52.5t-43 79l77 31q18 -47 56.5 -74t88.5 -27q48 0 77.5 23.5t29.5 58.5q0 26 -19 42.5t-53 25.5l-79 22q-61 17 -93.5 53.5t-32.5 87.5q0 47 27 85.5t72.5 61.5t100.5 23q74 0 127.5 -37.5t69.5 -101.5l-78 -31q-14 43 -46.5 66
t-76.5 23q-45 0 -73 -22t-28 -56q0 -26 16.5 -42t49.5 -26l85 -26q61 -18 93.5 -54.5t32.5 -87.5q0 -47 -27 -85t-74.5 -60.5t-106.5 -22.5zM249 640l101 150h131l-133 -150h-99zM158 743l16 112h112l-16 -112h-112z" />
    <glyph glyph-name="uni1E66" unicode="&#x1e66;" horiz-adv-x="648" 
d="M316 -12q-70 0 -127.5 25.5t-96.5 72t-53 107.5l88 30q18 -72 68.5 -109.5t124.5 -37.5q50 0 85.5 16.5t54 45.5t18.5 64q0 39 -23.5 64.5t-69.5 39.5l-130 42q-73 23 -111 71.5t-38 114.5q0 61 32 112t88.5 81t129.5 30q67 0 119.5 -24.5t87 -65.5t46.5 -93l-86 -31
q-15 60 -59.5 93t-108.5 33q-44 0 -78.5 -16t-53.5 -44.5t-19 -66.5q0 -36 22.5 -64.5t71.5 -43.5l118 -38q81 -26 121 -74t40 -114q0 -59 -32.5 -109t-90.5 -80.5t-138 -30.5zM315 847l-98 145h95l60 -79l81 79h111l-141 -145h-108zM341 1032l15 113h113l-16 -113h-112z
" />
    <glyph glyph-name="uni1E67" unicode="&#x1e67;" horiz-adv-x="511" 
d="M236 -12q-53 0 -97.5 18.5t-75.5 52.5t-43 79l77 31q18 -47 56.5 -74t88.5 -27q48 0 77.5 23.5t29.5 58.5q0 26 -19 42.5t-53 25.5l-79 22q-61 17 -93.5 53.5t-32.5 87.5q0 47 27 85.5t72.5 61.5t100.5 23q74 0 127.5 -37.5t69.5 -101.5l-78 -31q-14 43 -46.5 66
t-76.5 23q-45 0 -73 -22t-28 -56q0 -26 16.5 -42t49.5 -26l85 -26q61 -18 93.5 -54.5t32.5 -87.5q0 -47 -27 -85t-74.5 -60.5t-106.5 -22.5zM217 640l-98 145h95l60 -79l81 79h111l-141 -145h-108zM243 825l15 113h113l-16 -113h-112z" />
    <glyph glyph-name="uni1E68" unicode="&#x1e68;" horiz-adv-x="648" 
d="M316 -12q-70 0 -127.5 25.5t-96.5 72t-53 107.5l88 30q18 -72 68.5 -109.5t124.5 -37.5q50 0 85.5 16.5t54 45.5t18.5 64q0 39 -23.5 64.5t-69.5 39.5l-130 42q-73 23 -111 71.5t-38 114.5q0 61 32 112t88.5 81t129.5 30q67 0 119.5 -24.5t87 -65.5t46.5 -93l-86 -31
q-15 60 -59.5 93t-108.5 33q-44 0 -78.5 -16t-53.5 -44.5t-19 -66.5q0 -36 22.5 -64.5t71.5 -43.5l118 -38q81 -26 121 -74t40 -114q0 -59 -32.5 -109t-90.5 -80.5t-138 -30.5zM202 -202l16 112h112l-16 -112h-112zM350 847l16 113h112l-16 -113h-112z" />
    <glyph glyph-name="uni1E69" unicode="&#x1e69;" horiz-adv-x="511" 
d="M236 -12q-53 0 -97.5 18.5t-75.5 52.5t-43 79l77 31q18 -47 56.5 -74t88.5 -27q48 0 77.5 23.5t29.5 58.5q0 26 -19 42.5t-53 25.5l-79 22q-61 17 -93.5 53.5t-32.5 87.5q0 47 27 85.5t72.5 61.5t100.5 23q74 0 127.5 -37.5t69.5 -101.5l-78 -31q-14 43 -46.5 66
t-76.5 23q-45 0 -73 -22t-28 -56q0 -26 16.5 -42t49.5 -26l85 -26q61 -18 93.5 -54.5t32.5 -87.5q0 -47 -27 -85t-74.5 -60.5t-106.5 -22.5zM133 -202l16 112h112l-16 -112h-112zM252 640l16 113h112l-16 -113h-112z" />
    <glyph glyph-name="uni1E6C" unicode="&#x1e6c;" horiz-adv-x="523" 
d="M176 0l91 655h-201l12 90h500l-12 -90h-200l-92 -655h-98zM139 -202l16 112h112l-16 -112h-112z" />
    <glyph glyph-name="uni1E6D" unicode="&#x1e6d;" horiz-adv-x="399" 
d="M258 -6q-80 0 -118 46t-27 129l39 281h-97l12 89h18q36 0 61.5 23t29.5 59l6 42h95l-17 -124h119l-13 -89h-119l-40 -284q-4 -27 1 -46.5t22 -30t49 -10.5q9 0 19.5 1t19.5 2l-7 -83q-13 -4 -28.5 -4.5t-24.5 -0.5zM162 -202l16 112h112l-16 -112h-112z" />
    <glyph glyph-name="uni1E6E" unicode="&#x1e6e;" horiz-adv-x="523" 
d="M176 0l91 655h-201l12 90h500l-12 -90h-200l-92 -655h-98zM55 -182l12 82h287l-11 -82h-288z" />
    <glyph glyph-name="uni1E6F" unicode="&#x1e6f;" horiz-adv-x="399" 
d="M258 -6q-80 0 -118 46t-27 129l39 281h-97l12 89h18q36 0 61.5 23t29.5 59l6 42h95l-17 -124h119l-13 -89h-119l-40 -284q-4 -27 1 -46.5t22 -30t49 -10.5q9 0 19.5 1t19.5 2l-7 -83q-13 -4 -28.5 -4.5t-24.5 -0.5zM77 -182l12 82h287l-11 -82h-288z" />
    <glyph glyph-name="uni1E78" unicode="&#x1e78;" horiz-adv-x="706" 
d="M323 -12q-83 0 -142 34.5t-87 94.5t-18 136l69 492h99l-68 -493q-7 -51 9.5 -90t53.5 -61t89 -22t94.5 22t70.5 61t35 92l69 491h98l-70 -497q-10 -76 -51.5 -134.5t-105.5 -92t-145 -33.5zM498 847q-27 0 -42.5 9t-25.5 21t-20.5 21t-27.5 9q-16 0 -27.5 -13t-15.5 -43
h-76q7 45 25 74.5t44 44.5t56 15q27 0 42.5 -9t26 -21t21 -21t27.5 -9q19 0 30.5 15t15.5 41h74q-9 -63 -44.5 -98.5t-82.5 -35.5zM412 1017l101 158h126l-134 -158h-93z" />
    <glyph glyph-name="uni1E79" unicode="&#x1e79;" horiz-adv-x="581" 
d="M229 -12q-60 0 -103 28t-62.5 79t-10.5 120l46 324h94l-47 -328q-5 -40 7 -70t38 -46.5t64 -16.5q39 0 71 17.5t54 49.5t28 76l45 318h93l-75 -539h-91l14 105l14 -11q-26 -52 -73.5 -79t-105.5 -27zM406 640q-27 0 -42.5 9t-25.5 21t-20.5 21t-27.5 9q-16 0 -27.5 -13
t-15.5 -43h-76q7 45 25 74.5t44 44.5t56 15q27 0 42.5 -9t26 -21t21 -21t27.5 -9q19 0 30.5 15t15.5 41h74q-9 -63 -44.5 -98.5t-82.5 -35.5zM320 810l101 158h126l-134 -158h-93z" />
    <glyph glyph-name="uni1E7A" unicode="&#x1e7a;" horiz-adv-x="706" 
d="M323 -12q-83 0 -142 34.5t-87 94.5t-18 136l69 492h99l-68 -493q-7 -51 9.5 -90t53.5 -61t89 -22t94.5 22t70.5 61t35 92l69 491h98l-70 -497q-10 -76 -51.5 -134.5t-105.5 -92t-145 -33.5zM293 867l12 83h287l-11 -83h-288zM307 1032l17 113h112l-16 -113h-113z
M500 1032l16 113h113l-17 -113h-112z" />
    <glyph glyph-name="uni1E7B" unicode="&#x1e7b;" horiz-adv-x="581" 
d="M229 -12q-60 0 -103 28t-62.5 79t-10.5 120l46 324h94l-47 -328q-5 -40 7 -70t38 -46.5t64 -16.5q39 0 71 17.5t54 49.5t28 76l45 318h93l-75 -539h-91l14 105l14 -11q-26 -52 -73.5 -79t-105.5 -27zM201 660l12 83h287l-11 -83h-288zM215 825l17 113h112l-16 -113h-113z
M408 825l16 113h113l-17 -113h-112z" />
    <glyph glyph-name="Wgrave" unicode="&#x1e80;" horiz-adv-x="996" 
d="M183 0l-105 745h100l84 -656h-27l278 656h101l91 -656h-30l272 656h105l-313 -745h-109l-91 653h28l-275 -653h-109zM532 847l-88 158h125l57 -158h-94z" />
    <glyph glyph-name="wgrave" unicode="&#x1e81;" horiz-adv-x="826" 
d="M158 0l-109 539h98l84 -451l-36 1l210 450h88l81 -450l-36 -1l210 451h105l-261 -539h-89l-78 450h31l-209 -450h-89zM418 640l-88 158h125l57 -158h-94z" />
    <glyph glyph-name="Wacute" unicode="&#x1e82;" horiz-adv-x="996" 
d="M183 0l-105 745h100l84 -656h-27l278 656h101l91 -656h-30l272 656h105l-313 -745h-109l-91 653h28l-275 -653h-109zM532 847l102 158h126l-135 -158h-93z" />
    <glyph glyph-name="wacute" unicode="&#x1e83;" horiz-adv-x="826" 
d="M158 0l-109 539h98l84 -451l-36 1l210 450h88l81 -450l-36 -1l210 451h105l-261 -539h-89l-78 450h31l-209 -450h-89zM419 640l102 158h126l-135 -158h-93z" />
    <glyph glyph-name="Wdieresis" unicode="&#x1e84;" horiz-adv-x="996" 
d="M183 0l-105 745h100l84 -656h-27l278 656h101l91 -656h-30l272 656h105l-313 -745h-109l-91 653h28l-275 -653h-109zM427 847l15 113h113l-16 -113h-112zM619 847l16 113h112l-15 -113h-113z" />
    <glyph glyph-name="wdieresis" unicode="&#x1e85;" horiz-adv-x="826" 
d="M158 0l-109 539h98l84 -451l-36 1l210 450h88l81 -450l-36 -1l210 451h105l-261 -539h-89l-78 450h31l-209 -450h-89zM314 640l15 113h113l-16 -113h-112zM506 640l16 113h112l-15 -113h-113z" />
    <glyph glyph-name="uni1E8E" unicode="&#x1e8e;" horiz-adv-x="635" 
d="M231 0l48 341l-201 404h105l169 -341l-40 3l261 338h118l-312 -404l-48 -341h-100zM344 847l16 113h112l-16 -113h-112z" />
    <glyph glyph-name="uni1E8F" unicode="&#x1e8f;" horiz-adv-x="553" 
d="M36 -220q-19 0 -37.5 3.5t-33.5 9.5l7 82q11 -2 26.5 -4.5t29.5 -2.5q33 0 55.5 10t41 31t37.5 53l47 79l-11 -81l-149 579h98l114 -460h-34l247 460h106l-328 -605q-23 -44 -54 -79t-71 -55t-91 -20zM273 640l16 113h112l-16 -113h-112z" />
    <glyph glyph-name="uni1E92" unicode="&#x1e92;" horiz-adv-x="581" 
d="M-18 0l10 72l478 583h-372l12 90h508l-9 -72l-480 -583h407l-13 -90h-541zM168 -202l16 112h112l-16 -112h-112z" />
    <glyph glyph-name="uni1E93" unicode="&#x1e93;" horiz-adv-x="461" 
d="M-18 0l10 79l373 403l16 -32h-320l13 89h403l-10 -79l-371 -403l-15 32h335l-12 -89h-422zM106 -202l16 112h112l-16 -112h-112z" />
    <glyph glyph-name="uni1E97" unicode="&#x1e97;" horiz-adv-x="399" 
d="M258 -6q-80 0 -118 46t-27 129l39 281h-97l12 89h18q36 0 61.5 23t29.5 59l6 42h95l-17 -124h119l-13 -89h-119l-40 -284q-4 -27 1 -46.5t22 -30t49 -10.5q9 0 19.5 1t19.5 2l-7 -83q-13 -4 -28.5 -4.5t-24.5 -0.5zM92 764l15 113h113l-16 -113h-112zM284 764l16 113h112
l-15 -113h-113z" />
    <glyph glyph-name="uni1E9E" unicode="&#x1e9e;" horiz-adv-x="1296" 
d="M316 -12q-70 0 -127.5 25.5t-96.5 72t-53 107.5l88 30q18 -72 68.5 -109.5t124.5 -37.5q50 0 85.5 16.5t54 45.5t18.5 64q0 39 -23.5 64.5t-69.5 39.5l-130 42q-73 23 -111 71.5t-38 114.5q0 61 32 112t88.5 81t129.5 30q67 0 119.5 -24.5t87 -65.5t46.5 -93l-86 -31
q-15 60 -59.5 93t-108.5 33q-44 0 -78.5 -16t-53.5 -44.5t-19 -66.5q0 -36 22.5 -64.5t71.5 -43.5l118 -38q81 -26 121 -74t40 -114q0 -59 -32.5 -109t-90.5 -80.5t-138 -30.5zM964 -12q-70 0 -127.5 25.5t-96.5 72t-53 107.5l88 30q18 -72 68.5 -109.5t124.5 -37.5
q50 0 85.5 16.5t54 45.5t18.5 64q0 39 -23.5 64.5t-69.5 39.5l-130 42q-73 23 -111 71.5t-38 114.5q0 61 32 112t88.5 81t129.5 30q67 0 119.5 -24.5t87 -65.5t46.5 -93l-86 -31q-15 60 -59.5 93t-108.5 33q-44 0 -78.5 -16t-53.5 -44.5t-19 -66.5q0 -36 22.5 -64.5
t71.5 -43.5l118 -38q81 -26 121 -74t40 -114q0 -59 -32.5 -109t-90.5 -80.5t-138 -30.5z" />
    <glyph glyph-name="uni1EA0" unicode="&#x1ea0;" horiz-adv-x="672" 
d="M-27 0l371 745h116l163 -745h-101l-37 175h-317l-85 -175h-110zM212 265h255l-85 408l28 -3zM214 -202l16 112h112l-16 -112h-112z" />
    <glyph glyph-name="uni1EA1" unicode="&#x1ea1;" 
d="M206 -12q-46 0 -85.5 16.5t-63.5 49t-24 81.5q0 47 23.5 83.5t67 60t102.5 32.5l204 33l-8 -78l-180 -31q-51 -9 -81 -33.5t-30 -61.5q0 -34 25.5 -53.5t66.5 -19.5q47 0 85.5 22t64 59.5t31.5 82.5l17 128q6 36 -9 59.5t-41.5 35t-56.5 11.5q-49 0 -87.5 -25t-59.5 -63
l-78 47q20 37 54.5 65.5t80 45t96.5 16.5q60 0 107.5 -25t72 -69t16.5 -102l-50 -355h-92l14 102l20 -9q-21 -32 -52 -55.5t-69 -36.5t-81 -13zM166 -202l16 112h112l-16 -112h-112z" />
    <glyph glyph-name="uni1EA2" unicode="&#x1ea2;" horiz-adv-x="672" 
d="M-27 0l371 745h116l163 -745h-101l-37 175h-317l-85 -175h-110zM212 265h255l-85 408l28 -3zM419 807l-33 52q28 10 42.5 26t14.5 36q0 16 -13 26.5t-34 10.5q-12 0 -24 -2t-29 -9l-5 61q20 11 41 14.5t40 3.5q52 0 81.5 -24t29.5 -64q0 -28 -14.5 -53.5t-39.5 -45
t-57 -32.5z" />
    <glyph glyph-name="uni1EA3" unicode="&#x1ea3;" 
d="M206 -12q-46 0 -85.5 16.5t-63.5 49t-24 81.5q0 47 23.5 83.5t67 60t102.5 32.5l204 33l-8 -78l-180 -31q-51 -9 -81 -33.5t-30 -61.5q0 -34 25.5 -53.5t66.5 -19.5q47 0 85.5 22t64 59.5t31.5 82.5l17 128q6 36 -9 59.5t-41.5 35t-56.5 11.5q-49 0 -87.5 -25t-59.5 -63
l-78 47q20 37 54.5 65.5t80 45t96.5 16.5q60 0 107.5 -25t72 -69t16.5 -102l-50 -355h-92l14 102l20 -9q-21 -32 -52 -55.5t-69 -36.5t-81 -13zM343 600l-33 52q28 10 42.5 26t14.5 36q0 16 -13 26.5t-34 10.5q-12 0 -24 -2t-29 -9l-5 61q20 11 41 14.5t40 3.5
q52 0 81.5 -24t29.5 -64q0 -28 -14.5 -53.5t-39.5 -45t-57 -32.5z" />
    <glyph glyph-name="uni1EA4" unicode="&#x1ea4;" horiz-adv-x="672" 
d="M-27 0l371 745h116l163 -745h-101l-37 175h-317l-85 -175h-110zM212 265h255l-85 408l28 -3zM245 847l139 145h108l99 -145h-95l-60 80l-80 -80h-111zM560 920l79 135h118l-111 -135h-86z" />
    <glyph glyph-name="uni1EA5" unicode="&#x1ea5;" 
d="M206 -12q-46 0 -85.5 16.5t-63.5 49t-24 81.5q0 47 23.5 83.5t67 60t102.5 32.5l204 33l-8 -78l-180 -31q-51 -9 -81 -33.5t-30 -61.5q0 -34 25.5 -53.5t66.5 -19.5q47 0 85.5 22t64 59.5t31.5 82.5l17 128q6 36 -9 59.5t-41.5 35t-56.5 11.5q-49 0 -87.5 -25t-59.5 -63
l-78 47q20 37 54.5 65.5t80 45t96.5 16.5q60 0 107.5 -25t72 -69t16.5 -102l-50 -355h-92l14 102l20 -9q-21 -32 -52 -55.5t-69 -36.5t-81 -13zM168 640l139 145h108l99 -145h-95l-60 80l-80 -80h-111zM483 713l79 135h118l-111 -135h-86z" />
    <glyph glyph-name="uni1EA6" unicode="&#x1ea6;" horiz-adv-x="672" 
d="M-27 0l371 745h116l163 -745h-101l-37 175h-317l-85 -175h-110zM212 265h255l-85 408l28 -3zM245 847l139 145h108l99 -145h-95l-60 80l-80 -80h-111zM620 920l-73 135h118l41 -135h-86z" />
    <glyph glyph-name="uni1EA7" unicode="&#x1ea7;" 
d="M206 -12q-46 0 -85.5 16.5t-63.5 49t-24 81.5q0 47 23.5 83.5t67 60t102.5 32.5l204 33l-8 -78l-180 -31q-51 -9 -81 -33.5t-30 -61.5q0 -34 25.5 -53.5t66.5 -19.5q47 0 85.5 22t64 59.5t31.5 82.5l17 128q6 36 -9 59.5t-41.5 35t-56.5 11.5q-49 0 -87.5 -25t-59.5 -63
l-78 47q20 37 54.5 65.5t80 45t96.5 16.5q60 0 107.5 -25t72 -69t16.5 -102l-50 -355h-92l14 102l20 -9q-21 -32 -52 -55.5t-69 -36.5t-81 -13zM168 640l139 145h108l99 -145h-95l-60 80l-80 -80h-111zM543 713l-73 135h118l41 -135h-86z" />
    <glyph glyph-name="uni1EA8" unicode="&#x1ea8;" horiz-adv-x="672" 
d="M-27 0l371 745h116l163 -745h-101l-37 175h-317l-85 -175h-110zM212 265h255l-85 408l28 -3zM245 847l139 145h108l99 -145h-95l-60 80l-80 -80h-111zM590 917l-32 50q27 10 41.5 25t14.5 36q0 16 -12.5 26t-33.5 10q-12 0 -23.5 -2t-28.5 -9l-5 59q17 9 36.5 13.5
t42.5 4.5q50 0 79.5 -23.5t29.5 -62.5q0 -27 -14.5 -52t-38.5 -44t-56 -31z" />
    <glyph glyph-name="uni1EA9" unicode="&#x1ea9;" 
d="M206 -12q-46 0 -85.5 16.5t-63.5 49t-24 81.5q0 47 23.5 83.5t67 60t102.5 32.5l204 33l-8 -78l-180 -31q-51 -9 -81 -33.5t-30 -61.5q0 -34 25.5 -53.5t66.5 -19.5q47 0 85.5 22t64 59.5t31.5 82.5l17 128q6 36 -9 59.5t-41.5 35t-56.5 11.5q-49 0 -87.5 -25t-59.5 -63
l-78 47q20 37 54.5 65.5t80 45t96.5 16.5q60 0 107.5 -25t72 -69t16.5 -102l-50 -355h-92l14 102l20 -9q-21 -32 -52 -55.5t-69 -36.5t-81 -13zM168 640l139 145h108l99 -145h-95l-60 80l-80 -80h-111zM513 710l-32 50q27 10 41.5 25t14.5 36q0 16 -12.5 26t-33.5 10
q-12 0 -23.5 -2t-28.5 -9l-5 59q17 9 36.5 13.5t42.5 4.5q50 0 79.5 -23.5t29.5 -62.5q0 -27 -14.5 -52t-38.5 -44t-56 -31z" />
    <glyph glyph-name="uni1EAA" unicode="&#x1eaa;" horiz-adv-x="672" 
d="M-27 0l371 745h116l163 -745h-101l-37 175h-317l-85 -175h-110zM212 265h255l-85 408l28 -3zM244 847l140 145h108l99 -145h-95l-60 80l-81 -80h-111zM502 1054q-22 0 -34.5 9.5t-21.5 21t-17.5 21t-22.5 9.5t-22.5 -14t-13.5 -43h-73q7 45 23.5 74.5t40 44.5t48.5 15
q23 0 36 -9t22 -21t17.5 -21t21.5 -9q15 0 24 13.5t12 42.5h74q-9 -61 -41 -97.5t-73 -36.5z" />
    <glyph glyph-name="uni1EAB" unicode="&#x1eab;" 
d="M206 -12q-46 0 -85.5 16.5t-63.5 49t-24 81.5q0 47 23.5 83.5t67 60t102.5 32.5l204 33l-8 -78l-180 -31q-51 -9 -81 -33.5t-30 -61.5q0 -34 25.5 -53.5t66.5 -19.5q47 0 85.5 22t64 59.5t31.5 82.5l17 128q6 36 -9 59.5t-41.5 35t-56.5 11.5q-49 0 -87.5 -25t-59.5 -63
l-78 47q20 37 54.5 65.5t80 45t96.5 16.5q60 0 107.5 -25t72 -69t16.5 -102l-50 -355h-92l14 102l20 -9q-21 -32 -52 -55.5t-69 -36.5t-81 -13zM168 640l140 145h108l99 -145h-95l-60 80l-81 -80h-111zM426 847q-22 0 -34.5 9.5t-21.5 21t-17.5 21t-22.5 9.5t-22.5 -14
t-13.5 -43h-73q7 45 23.5 74.5t40 44.5t48.5 15q23 0 36 -9t22 -21t17.5 -21t21.5 -9q15 0 24 13.5t12 42.5h74q-9 -61 -41 -97.5t-73 -36.5z" />
    <glyph glyph-name="uni1EAC" unicode="&#x1eac;" horiz-adv-x="672" 
d="M-27 0l371 745h116l163 -745h-101l-37 175h-317l-85 -175h-110zM212 265h255l-85 408l28 -3zM214 -202l16 112h112l-16 -112h-112zM219 847l141 155h108l97 -155h-95l-59 91l-84 -91h-108z" />
    <glyph glyph-name="uni1EAD" unicode="&#x1ead;" 
d="M206 -12q-46 0 -85.5 16.5t-63.5 49t-24 81.5q0 47 23.5 83.5t67 60t102.5 32.5l204 33l-8 -78l-180 -31q-51 -9 -81 -33.5t-30 -61.5q0 -34 25.5 -53.5t66.5 -19.5q47 0 85.5 22t64 59.5t31.5 82.5l17 128q6 36 -9 59.5t-41.5 35t-56.5 11.5q-49 0 -87.5 -25t-59.5 -63
l-78 47q20 37 54.5 65.5t80 45t96.5 16.5q60 0 107.5 -25t72 -69t16.5 -102l-50 -355h-92l14 102l20 -9q-21 -32 -52 -55.5t-69 -36.5t-81 -13zM166 -202l16 112h112l-16 -112h-112zM143 640l141 155h108l97 -155h-95l-59 91l-84 -91h-108z" />
    <glyph glyph-name="uni1EAE" unicode="&#x1eae;" horiz-adv-x="672" 
d="M-27 0l371 745h116l163 -745h-101l-37 175h-317l-85 -175h-110zM212 265h255l-85 408l28 -3zM422 848q-56 0 -93 19t-53 51t-11 70h91q-4 -31 14.5 -48.5t56.5 -17.5q39 0 63 17.5t28 48.5h90q-5 -39 -28 -71t-62 -50.5t-96 -18.5zM394 1018l102 158h125l-133 -158h-94z
" />
    <glyph glyph-name="uni1EAF" unicode="&#x1eaf;" 
d="M206 -12q-46 0 -85.5 16.5t-63.5 49t-24 81.5q0 47 23.5 83.5t67 60t102.5 32.5l204 33l-8 -78l-180 -31q-51 -9 -81 -33.5t-30 -61.5q0 -34 25.5 -53.5t66.5 -19.5q47 0 85.5 22t64 59.5t31.5 82.5l17 128q6 36 -9 59.5t-41.5 35t-56.5 11.5q-49 0 -87.5 -25t-59.5 -63
l-78 47q20 37 54.5 65.5t80 45t96.5 16.5q60 0 107.5 -25t72 -69t16.5 -102l-50 -355h-92l14 102l20 -9q-21 -32 -52 -55.5t-69 -36.5t-81 -13zM346 641q-56 0 -93 19t-53 51t-11 70h91q-4 -31 14.5 -48.5t56.5 -17.5q39 0 63 17.5t28 48.5h90q-5 -39 -28 -71t-62 -50.5
t-96 -18.5zM318 811l102 158h125l-133 -158h-94z" />
    <glyph glyph-name="uni1EB0" unicode="&#x1eb0;" horiz-adv-x="672" 
d="M-27 0l371 745h116l163 -745h-101l-37 175h-317l-85 -175h-110zM212 265h255l-85 408l28 -3zM423 848q-57 0 -94 18.5t-52.5 50.5t-10.5 71h90q-4 -31 15 -48.5t57 -17.5t62 17.5t28 48.5h91q-5 -38 -28 -70t-62 -51t-96 -19zM394 1018l-89 158h126l57 -158h-94z" />
    <glyph glyph-name="uni1EB1" unicode="&#x1eb1;" 
d="M206 -12q-46 0 -85.5 16.5t-63.5 49t-24 81.5q0 47 23.5 83.5t67 60t102.5 32.5l204 33l-8 -78l-180 -31q-51 -9 -81 -33.5t-30 -61.5q0 -34 25.5 -53.5t66.5 -19.5q47 0 85.5 22t64 59.5t31.5 82.5l17 128q6 36 -9 59.5t-41.5 35t-56.5 11.5q-49 0 -87.5 -25t-59.5 -63
l-78 47q20 37 54.5 65.5t80 45t96.5 16.5q60 0 107.5 -25t72 -69t16.5 -102l-50 -355h-92l14 102l20 -9q-21 -32 -52 -55.5t-69 -36.5t-81 -13zM347 641q-57 0 -94 18.5t-52.5 50.5t-10.5 71h90q-4 -31 15 -48.5t57 -17.5t62 17.5t28 48.5h91q-5 -38 -28 -70t-62 -51
t-96 -19zM318 811l-89 158h126l57 -158h-94z" />
    <glyph glyph-name="uni1EB2" unicode="&#x1eb2;" horiz-adv-x="672" 
d="M-27 0l371 745h116l163 -745h-101l-37 175h-317l-85 -175h-110zM212 265h255l-85 408l28 -3zM422 848q-57 0 -94 19t-52.5 51t-10.5 70h90q-3 -31 15.5 -48.5t56.5 -17.5t62 17.5t29 48.5h90q-6 -39 -28.5 -71t-62 -50.5t-95.5 -18.5zM445 997l-33 51q28 11 42.5 26.5
t14.5 36.5q0 16 -12.5 26t-34.5 10q-12 0 -24 -1.5t-29 -9.5l-5 62q21 10 41.5 14t39.5 4q52 0 81.5 -24.5t29.5 -64.5q0 -28 -14 -53t-39.5 -45t-57.5 -32z" />
    <glyph glyph-name="uni1EB3" unicode="&#x1eb3;" 
d="M206 -12q-46 0 -85.5 16.5t-63.5 49t-24 81.5q0 47 23.5 83.5t67 60t102.5 32.5l204 33l-8 -78l-180 -31q-51 -9 -81 -33.5t-30 -61.5q0 -34 25.5 -53.5t66.5 -19.5q47 0 85.5 22t64 59.5t31.5 82.5l17 128q6 36 -9 59.5t-41.5 35t-56.5 11.5q-49 0 -87.5 -25t-59.5 -63
l-78 47q20 37 54.5 65.5t80 45t96.5 16.5q60 0 107.5 -25t72 -69t16.5 -102l-50 -355h-92l14 102l20 -9q-21 -32 -52 -55.5t-69 -36.5t-81 -13zM346 641q-57 0 -94 19t-52.5 51t-10.5 70h90q-3 -31 15.5 -48.5t56.5 -17.5t62 17.5t29 48.5h90q-6 -39 -28.5 -71t-62 -50.5
t-95.5 -18.5zM369 790l-33 51q28 11 42.5 26.5t14.5 36.5q0 16 -12.5 26t-34.5 10q-12 0 -24 -1.5t-29 -9.5l-5 62q21 10 41.5 14t39.5 4q52 0 81.5 -24.5t29.5 -64.5q0 -28 -14 -53t-39.5 -45t-57.5 -32z" />
    <glyph glyph-name="uni1EB4" unicode="&#x1eb4;" horiz-adv-x="672" 
d="M-27 0l371 745h116l163 -745h-101l-37 175h-317l-85 -175h-110zM212 265h255l-85 408l28 -3zM500 1054q-22 0 -34.5 9.5t-21 21t-17 21t-22.5 9.5q-13 0 -22 -13.5t-13 -43.5h-74q7 45 23.5 74.5t40 44.5t48.5 15q23 0 36 -9t21.5 -21t17.5 -21t21 -9q15 0 24.5 14
t12.5 42h74q-6 -41 -23.5 -71t-41 -46.5t-50.5 -16.5zM422 847q-56 0 -93 19t-53 51t-11 70h90q-3 -31 16 -48.5t56 -17.5q39 0 63 17.5t28 48.5h91q-6 -39 -29 -71t-62 -50.5t-96 -18.5z" />
    <glyph glyph-name="uni1EB5" unicode="&#x1eb5;" 
d="M206 -12q-46 0 -85.5 16.5t-63.5 49t-24 81.5q0 47 23.5 83.5t67 60t102.5 32.5l204 33l-8 -78l-180 -31q-51 -9 -81 -33.5t-30 -61.5q0 -34 25.5 -53.5t66.5 -19.5q47 0 85.5 22t64 59.5t31.5 82.5l17 128q6 36 -9 59.5t-41.5 35t-56.5 11.5q-49 0 -87.5 -25t-59.5 -63
l-78 47q20 37 54.5 65.5t80 45t96.5 16.5q60 0 107.5 -25t72 -69t16.5 -102l-50 -355h-92l14 102l20 -9q-21 -32 -52 -55.5t-69 -36.5t-81 -13zM423 847q-22 0 -34.5 9.5t-21 21t-17 21t-22.5 9.5q-13 0 -22 -13.5t-13 -43.5h-74q7 45 23.5 74.5t40 44.5t48.5 15q23 0 36 -9
t21.5 -21t17.5 -21t21 -9q15 0 24.5 14t12.5 42h74q-6 -41 -23.5 -71t-41 -46.5t-50.5 -16.5zM345 640q-56 0 -93 19t-53 51t-11 70h90q-3 -31 16 -48.5t56 -17.5q39 0 63 17.5t28 48.5h91q-6 -39 -29 -71t-62 -50.5t-96 -18.5z" />
    <glyph glyph-name="uni1EB6" unicode="&#x1eb6;" horiz-adv-x="672" 
d="M-27 0l371 745h116l163 -745h-101l-37 175h-317l-85 -175h-110zM212 265h255l-85 408l28 -3zM214 -202l16 112h112l-16 -112h-112zM422 848q-57 0 -93 20.5t-51.5 56t-10.5 78.5h91q-5 -39 13 -60t57 -21q38 0 62.5 21t30.5 60h90q-6 -44 -29.5 -79t-63 -55.5
t-96.5 -20.5z" />
    <glyph glyph-name="uni1EB7" unicode="&#x1eb7;" 
d="M206 -12q-46 0 -85.5 16.5t-63.5 49t-24 81.5q0 47 23.5 83.5t67 60t102.5 32.5l204 33l-8 -78l-180 -31q-51 -9 -81 -33.5t-30 -61.5q0 -34 25.5 -53.5t66.5 -19.5q47 0 85.5 22t64 59.5t31.5 82.5l17 128q6 36 -9 59.5t-41.5 35t-56.5 11.5q-49 0 -87.5 -25t-59.5 -63
l-78 47q20 37 54.5 65.5t80 45t96.5 16.5q60 0 107.5 -25t72 -69t16.5 -102l-50 -355h-92l14 102l20 -9q-21 -32 -52 -55.5t-69 -36.5t-81 -13zM166 -202l16 112h112l-16 -112h-112zM346 641q-57 0 -93 20.5t-51.5 56t-10.5 78.5h91q-5 -39 13 -60t57 -21q38 0 62.5 21
t30.5 60h90q-6 -44 -29.5 -79t-63 -55.5t-96.5 -20.5z" />
    <glyph glyph-name="uni1EB8" unicode="&#x1eb8;" horiz-adv-x="607" 
d="M45 0l104 745h486l-13 -90h-386l-34 -236h367l-12 -90h-367l-34 -239h387l-12 -90h-486zM203 -202l16 112h112l-16 -112h-112z" />
    <glyph glyph-name="uni1EB9" unicode="&#x1eb9;" horiz-adv-x="616" 
d="M305 -12q-75 0 -132 34t-89.5 93.5t-32.5 135.5q0 61 20.5 115t59 96t89 65.5t111.5 23.5q76 0 129 -34t81 -88.5t28 -118.5q0 -17 -3 -36t-6 -32h-442l5 80h389l-47 -35q13 51 -2 91.5t-50 65t-83 24.5q-61 0 -101.5 -29.5t-61 -82t-20.5 -120.5q0 -50 21.5 -87
t57.5 -56.5t80 -19.5q55 0 94.5 25.5t64.5 64.5l77 -42q-19 -37 -54 -67.5t-82 -48t-101 -17.5zM186 -202l16 112h112l-16 -112h-112z" />
    <glyph glyph-name="uni1EBA" unicode="&#x1eba;" horiz-adv-x="607" 
d="M45 0l104 745h486l-13 -90h-386l-34 -236h367l-12 -90h-367l-34 -239h387l-12 -90h-486zM408 807l-33 52q28 10 42.5 26t14.5 36q0 16 -13 26.5t-34 10.5q-12 0 -24 -2t-29 -9l-5 61q20 11 41 14.5t40 3.5q52 0 81.5 -24t29.5 -64q0 -28 -14.5 -53.5t-39.5 -45t-57 -32.5
z" />
    <glyph glyph-name="uni1EBB" unicode="&#x1ebb;" horiz-adv-x="616" 
d="M305 -12q-75 0 -132 34t-89.5 93.5t-32.5 135.5q0 61 20.5 115t59 96t89 65.5t111.5 23.5q76 0 129 -34t81 -88.5t28 -118.5q0 -17 -3 -36t-6 -32h-442l5 80h389l-47 -35q13 51 -2 91.5t-50 65t-83 24.5q-61 0 -101.5 -29.5t-61 -82t-20.5 -120.5q0 -50 21.5 -87
t57.5 -56.5t80 -19.5q55 0 94.5 25.5t64.5 64.5l77 -42q-19 -37 -54 -67.5t-82 -48t-101 -17.5zM363 600l-33 52q28 10 42.5 26t14.5 36q0 16 -13 26.5t-34 10.5q-12 0 -24 -2t-29 -9l-5 61q20 11 41 14.5t40 3.5q52 0 81.5 -24t29.5 -64q0 -28 -14.5 -53.5t-39.5 -45
t-57 -32.5z" />
    <glyph glyph-name="uni1EBC" unicode="&#x1ebc;" horiz-adv-x="607" 
d="M45 0l104 745h486l-13 -90h-386l-34 -236h367l-12 -90h-367l-34 -239h387l-12 -90h-486zM470 847q-27 0 -42.5 9t-25.5 21t-20.5 21t-27.5 9q-16 0 -27.5 -13t-15.5 -43h-76q7 45 25 74.5t44 44.5t56 15q27 0 42.5 -9t26 -21t21 -21t27.5 -9q19 0 30.5 15t15.5 41h74
q-9 -63 -44.5 -98.5t-82.5 -35.5z" />
    <glyph glyph-name="uni1EBD" unicode="&#x1ebd;" horiz-adv-x="616" 
d="M305 -12q-75 0 -132 34t-89.5 93.5t-32.5 135.5q0 61 20.5 115t59 96t89 65.5t111.5 23.5q76 0 129 -34t81 -88.5t28 -118.5q0 -17 -3 -36t-6 -32h-442l5 80h389l-47 -35q13 51 -2 91.5t-50 65t-83 24.5q-61 0 -101.5 -29.5t-61 -82t-20.5 -120.5q0 -50 21.5 -87
t57.5 -56.5t80 -19.5q55 0 94.5 25.5t64.5 64.5l77 -42q-19 -37 -54 -67.5t-82 -48t-101 -17.5zM424 640q-27 0 -42.5 9t-25.5 21t-20.5 21t-27.5 9q-16 0 -27.5 -13t-15.5 -43h-76q7 45 25 74.5t44 44.5t56 15q27 0 42.5 -9t26 -21t21 -21t27.5 -9q19 0 30.5 15t15.5 41h74
q-9 -63 -44.5 -98.5t-82.5 -35.5z" />
    <glyph glyph-name="uni1EBE" unicode="&#x1ebe;" horiz-adv-x="607" 
d="M45 0l104 745h486l-13 -90h-386l-34 -236h367l-12 -90h-367l-34 -239h387l-12 -90h-486zM234 847l139 145h108l99 -145h-95l-60 80l-80 -80h-111zM549 920l79 135h118l-111 -135h-86z" />
    <glyph glyph-name="uni1EBF" unicode="&#x1ebf;" horiz-adv-x="616" 
d="M305 -12q-75 0 -132 34t-89.5 93.5t-32.5 135.5q0 61 20.5 115t59 96t89 65.5t111.5 23.5q76 0 129 -34t81 -88.5t28 -118.5q0 -17 -3 -36t-6 -32h-442l5 80h389l-47 -35q13 51 -2 91.5t-50 65t-83 24.5q-61 0 -101.5 -29.5t-61 -82t-20.5 -120.5q0 -50 21.5 -87
t57.5 -56.5t80 -19.5q55 0 94.5 25.5t64.5 64.5l77 -42q-19 -37 -54 -67.5t-82 -48t-101 -17.5zM188 640l139 145h108l99 -145h-95l-60 80l-80 -80h-111zM503 713l79 135h118l-111 -135h-86z" />
    <glyph glyph-name="uni1EC0" unicode="&#x1ec0;" horiz-adv-x="607" 
d="M45 0l104 745h486l-13 -90h-386l-34 -236h367l-12 -90h-367l-34 -239h387l-12 -90h-486zM234 847l139 145h108l99 -145h-95l-60 80l-80 -80h-111zM609 920l-73 135h118l41 -135h-86z" />
    <glyph glyph-name="uni1EC1" unicode="&#x1ec1;" horiz-adv-x="616" 
d="M305 -12q-75 0 -132 34t-89.5 93.5t-32.5 135.5q0 61 20.5 115t59 96t89 65.5t111.5 23.5q76 0 129 -34t81 -88.5t28 -118.5q0 -17 -3 -36t-6 -32h-442l5 80h389l-47 -35q13 51 -2 91.5t-50 65t-83 24.5q-61 0 -101.5 -29.5t-61 -82t-20.5 -120.5q0 -50 21.5 -87
t57.5 -56.5t80 -19.5q55 0 94.5 25.5t64.5 64.5l77 -42q-19 -37 -54 -67.5t-82 -48t-101 -17.5zM188 640l139 145h108l99 -145h-95l-60 80l-80 -80h-111zM563 713l-73 135h118l41 -135h-86z" />
    <glyph glyph-name="uni1EC2" unicode="&#x1ec2;" horiz-adv-x="607" 
d="M45 0l104 745h486l-13 -90h-386l-34 -236h367l-12 -90h-367l-34 -239h387l-12 -90h-486zM234 847l139 145h108l99 -145h-95l-60 80l-80 -80h-111zM579 917l-32 50q27 10 41.5 25t14.5 36q0 16 -12.5 26t-33.5 10q-12 0 -23.5 -2t-28.5 -9l-5 59q17 9 36.5 13.5t42.5 4.5
q50 0 79.5 -23.5t29.5 -62.5q0 -27 -14.5 -52t-38.5 -44t-56 -31z" />
    <glyph glyph-name="uni1EC3" unicode="&#x1ec3;" horiz-adv-x="616" 
d="M305 -12q-75 0 -132 34t-89.5 93.5t-32.5 135.5q0 61 20.5 115t59 96t89 65.5t111.5 23.5q76 0 129 -34t81 -88.5t28 -118.5q0 -17 -3 -36t-6 -32h-442l5 80h389l-47 -35q13 51 -2 91.5t-50 65t-83 24.5q-61 0 -101.5 -29.5t-61 -82t-20.5 -120.5q0 -50 21.5 -87
t57.5 -56.5t80 -19.5q55 0 94.5 25.5t64.5 64.5l77 -42q-19 -37 -54 -67.5t-82 -48t-101 -17.5zM188 640l139 145h108l99 -145h-95l-60 80l-80 -80h-111zM533 710l-32 50q27 10 41.5 25t14.5 36q0 16 -12.5 26t-33.5 10q-12 0 -23.5 -2t-28.5 -9l-5 59q17 9 36.5 13.5
t42.5 4.5q50 0 79.5 -23.5t29.5 -62.5q0 -27 -14.5 -52t-38.5 -44t-56 -31z" />
    <glyph glyph-name="uni1EC4" unicode="&#x1ec4;" horiz-adv-x="607" 
d="M45 0l104 745h486l-13 -90h-386l-34 -236h367l-12 -90h-367l-34 -239h387l-12 -90h-486zM233 847l140 145h108l99 -145h-95l-60 80l-81 -80h-111zM491 1054q-22 0 -34.5 9.5t-21.5 21t-17.5 21t-22.5 9.5t-22.5 -14t-13.5 -43h-73q7 45 23.5 74.5t40 44.5t48.5 15
q23 0 36 -9t22 -21t17.5 -21t21.5 -9q15 0 24 13.5t12 42.5h74q-9 -61 -41 -97.5t-73 -36.5z" />
    <glyph glyph-name="uni1EC5" unicode="&#x1ec5;" horiz-adv-x="616" 
d="M305 -12q-75 0 -132 34t-89.5 93.5t-32.5 135.5q0 61 20.5 115t59 96t89 65.5t111.5 23.5q76 0 129 -34t81 -88.5t28 -118.5q0 -17 -3 -36t-6 -32h-442l5 80h389l-47 -35q13 51 -2 91.5t-50 65t-83 24.5q-61 0 -101.5 -29.5t-61 -82t-20.5 -120.5q0 -50 21.5 -87
t57.5 -56.5t80 -19.5q55 0 94.5 25.5t64.5 64.5l77 -42q-19 -37 -54 -67.5t-82 -48t-101 -17.5zM188 640l140 145h108l99 -145h-95l-60 80l-81 -80h-111zM446 847q-22 0 -34.5 9.5t-21.5 21t-17.5 21t-22.5 9.5t-22.5 -14t-13.5 -43h-73q7 45 23.5 74.5t40 44.5t48.5 15
q23 0 36 -9t22 -21t17.5 -21t21.5 -9q15 0 24 13.5t12 42.5h74q-9 -61 -41 -97.5t-73 -36.5z" />
    <glyph glyph-name="uni1EC6" unicode="&#x1ec6;" horiz-adv-x="607" 
d="M45 0l104 745h486l-13 -90h-386l-34 -236h367l-12 -90h-367l-34 -239h387l-12 -90h-486zM203 -202l16 112h112l-16 -112h-112zM208 847l141 155h108l97 -155h-95l-59 91l-84 -91h-108z" />
    <glyph glyph-name="uni1EC7" unicode="&#x1ec7;" horiz-adv-x="616" 
d="M305 -12q-75 0 -132 34t-89.5 93.5t-32.5 135.5q0 61 20.5 115t59 96t89 65.5t111.5 23.5q76 0 129 -34t81 -88.5t28 -118.5q0 -17 -3 -36t-6 -32h-442l5 80h389l-47 -35q13 51 -2 91.5t-50 65t-83 24.5q-61 0 -101.5 -29.5t-61 -82t-20.5 -120.5q0 -50 21.5 -87
t57.5 -56.5t80 -19.5q55 0 94.5 25.5t64.5 64.5l77 -42q-19 -37 -54 -67.5t-82 -48t-101 -17.5zM186 -202l16 112h112l-16 -112h-112zM163 640l141 155h108l97 -155h-95l-59 91l-84 -91h-108z" />
    <glyph glyph-name="uni1EC8" unicode="&#x1ec8;" horiz-adv-x="265" 
d="M45 0l104 745h99l-104 -745h-99zM216 807l-33 52q28 10 42.5 26t14.5 36q0 16 -13 26.5t-34 10.5q-12 0 -24 -2t-29 -9l-5 61q20 11 41 14.5t40 3.5q52 0 81.5 -24t29.5 -64q0 -28 -14.5 -53.5t-39.5 -45t-57 -32.5z" />
    <glyph glyph-name="uni1EC9" unicode="&#x1ec9;" horiz-adv-x="211" 
d="M20 0l76 539h94l-75 -539h-95zM159 600l-33 52q28 10 42.5 26t14.5 36q0 16 -13 26.5t-34 10.5q-12 0 -24 -2t-29 -9l-5 61q20 11 41 14.5t40 3.5q52 0 81.5 -24t29.5 -64q0 -28 -14.5 -53.5t-39.5 -45t-57 -32.5z" />
    <glyph glyph-name="uni1ECA" unicode="&#x1eca;" horiz-adv-x="265" 
d="M45 0l104 745h99l-104 -745h-99zM10 -202l16 112h112l-16 -112h-112z" />
    <glyph glyph-name="uni1ECB" unicode="&#x1ecb;" horiz-adv-x="239" 
d="M34 0l76 539h94l-75 -539h-95zM122 625l16 120h95l-16 -120h-95zM-3 -202l16 112h112l-16 -112h-112z" />
    <glyph glyph-name="uni1ECC" unicode="&#x1ecc;" horiz-adv-x="881" 
d="M431 -12q-76 0 -140.5 26.5t-113 74t-75 113t-26.5 144.5q0 86 30.5 160t85 131t128 88.5t158.5 31.5q77 0 142 -26t113 -74t75 -113.5t27 -143.5q0 -86 -31 -160.5t-86 -131t-128.5 -88.5t-158.5 -32zM432 79q65 0 120.5 25.5t96.5 69.5t64 101.5t23 122.5
q0 76 -32.5 136.5t-90 96t-135.5 35.5q-65 0 -120.5 -25.5t-96.5 -69.5t-64 -101t-23 -122q0 -76 33 -137t90.5 -96.5t134.5 -35.5zM319 -202l16 112h112l-16 -112h-112z" />
    <glyph glyph-name="uni1ECD" unicode="&#x1ecd;" horiz-adv-x="657" 
d="M314 -12q-74 0 -133.5 34t-94.5 94t-35 138q0 62 22.5 115.5t62.5 94.5t93.5 64t114.5 23q75 0 134.5 -34t94.5 -93.5t35 -136.5q0 -62 -23 -116t-64 -95.5t-94 -64.5t-113 -23zM313 78q56 0 100 29t70 76.5t26 104.5q0 50 -21 89t-58.5 61.5t-85.5 22.5
q-54 0 -98.5 -28.5t-70 -75.5t-25.5 -105q0 -50 21 -89.5t58 -62t84 -22.5zM206 -202l16 112h112l-16 -112h-112z" />
    <glyph glyph-name="uni1ECE" unicode="&#x1ece;" horiz-adv-x="881" 
d="M431 -12q-76 0 -140.5 26.5t-113 74t-75 113t-26.5 144.5q0 86 30.5 160t85 131t128 88.5t158.5 31.5q77 0 142 -26t113 -74t75 -113.5t27 -143.5q0 -86 -31 -160.5t-86 -131t-128.5 -88.5t-158.5 -32zM432 79q65 0 120.5 25.5t96.5 69.5t64 101.5t23 122.5
q0 76 -32.5 136.5t-90 96t-135.5 35.5q-65 0 -120.5 -25.5t-96.5 -69.5t-64 -101t-23 -122q0 -76 33 -137t90.5 -96.5t134.5 -35.5zM524 807l-33 52q28 10 42.5 26t14.5 36q0 16 -13 26.5t-34 10.5q-12 0 -24 -2t-29 -9l-5 61q20 11 41 14.5t40 3.5q52 0 81.5 -24t29.5 -64
q0 -28 -14.5 -53.5t-39.5 -45t-57 -32.5z" />
    <glyph glyph-name="uni1ECF" unicode="&#x1ecf;" horiz-adv-x="657" 
d="M314 -12q-74 0 -133.5 34t-94.5 94t-35 138q0 62 22.5 115.5t62.5 94.5t93.5 64t114.5 23q75 0 134.5 -34t94.5 -93.5t35 -136.5q0 -62 -23 -116t-64 -95.5t-94 -64.5t-113 -23zM313 78q56 0 100 29t70 76.5t26 104.5q0 50 -21 89t-58.5 61.5t-85.5 22.5
q-54 0 -98.5 -28.5t-70 -75.5t-25.5 -105q0 -50 21 -89.5t58 -62t84 -22.5zM383 600l-33 52q28 10 42.5 26t14.5 36q0 16 -13 26.5t-34 10.5q-12 0 -24 -2t-29 -9l-5 61q20 11 41 14.5t40 3.5q52 0 81.5 -24t29.5 -64q0 -28 -14.5 -53.5t-39.5 -45t-57 -32.5z" />
    <glyph glyph-name="uni1ED0" unicode="&#x1ed0;" horiz-adv-x="881" 
d="M431 -12q-76 0 -140.5 26.5t-113 74t-75 113t-26.5 144.5q0 86 30.5 160t85 131t128 88.5t158.5 31.5q77 0 142 -26t113 -74t75 -113.5t27 -143.5q0 -86 -31 -160.5t-86 -131t-128.5 -88.5t-158.5 -32zM432 79q65 0 120.5 25.5t96.5 69.5t64 101.5t23 122.5
q0 76 -32.5 136.5t-90 96t-135.5 35.5q-65 0 -120.5 -25.5t-96.5 -69.5t-64 -101t-23 -122q0 -76 33 -137t90.5 -96.5t134.5 -35.5zM350 847l139 145h108l99 -145h-95l-60 80l-80 -80h-111zM665 920l79 135h118l-111 -135h-86z" />
    <glyph glyph-name="uni1ED1" unicode="&#x1ed1;" horiz-adv-x="657" 
d="M314 -12q-74 0 -133.5 34t-94.5 94t-35 138q0 62 22.5 115.5t62.5 94.5t93.5 64t114.5 23q75 0 134.5 -34t94.5 -93.5t35 -136.5q0 -62 -23 -116t-64 -95.5t-94 -64.5t-113 -23zM313 78q56 0 100 29t70 76.5t26 104.5q0 50 -21 89t-58.5 61.5t-85.5 22.5
q-54 0 -98.5 -28.5t-70 -75.5t-25.5 -105q0 -50 21 -89.5t58 -62t84 -22.5zM209 640l139 145h108l99 -145h-95l-60 80l-80 -80h-111zM524 713l79 135h118l-111 -135h-86z" />
    <glyph glyph-name="uni1ED2" unicode="&#x1ed2;" horiz-adv-x="881" 
d="M431 -12q-76 0 -140.5 26.5t-113 74t-75 113t-26.5 144.5q0 86 30.5 160t85 131t128 88.5t158.5 31.5q77 0 142 -26t113 -74t75 -113.5t27 -143.5q0 -86 -31 -160.5t-86 -131t-128.5 -88.5t-158.5 -32zM432 79q65 0 120.5 25.5t96.5 69.5t64 101.5t23 122.5
q0 76 -32.5 136.5t-90 96t-135.5 35.5q-65 0 -120.5 -25.5t-96.5 -69.5t-64 -101t-23 -122q0 -76 33 -137t90.5 -96.5t134.5 -35.5zM350 847l139 145h108l99 -145h-95l-60 80l-80 -80h-111zM725 920l-73 135h118l41 -135h-86z" />
    <glyph glyph-name="uni1ED3" unicode="&#x1ed3;" horiz-adv-x="657" 
d="M314 -12q-74 0 -133.5 34t-94.5 94t-35 138q0 62 22.5 115.5t62.5 94.5t93.5 64t114.5 23q75 0 134.5 -34t94.5 -93.5t35 -136.5q0 -62 -23 -116t-64 -95.5t-94 -64.5t-113 -23zM313 78q56 0 100 29t70 76.5t26 104.5q0 50 -21 89t-58.5 61.5t-85.5 22.5
q-54 0 -98.5 -28.5t-70 -75.5t-25.5 -105q0 -50 21 -89.5t58 -62t84 -22.5zM209 640l139 145h108l99 -145h-95l-60 80l-80 -80h-111zM584 713l-73 135h118l41 -135h-86z" />
    <glyph glyph-name="uni1ED4" unicode="&#x1ed4;" horiz-adv-x="881" 
d="M431 -12q-76 0 -140.5 26.5t-113 74t-75 113t-26.5 144.5q0 86 30.5 160t85 131t128 88.5t158.5 31.5q77 0 142 -26t113 -74t75 -113.5t27 -143.5q0 -86 -31 -160.5t-86 -131t-128.5 -88.5t-158.5 -32zM432 79q65 0 120.5 25.5t96.5 69.5t64 101.5t23 122.5
q0 76 -32.5 136.5t-90 96t-135.5 35.5q-65 0 -120.5 -25.5t-96.5 -69.5t-64 -101t-23 -122q0 -76 33 -137t90.5 -96.5t134.5 -35.5zM350 847l139 145h108l99 -145h-95l-60 80l-80 -80h-111zM695 917l-32 50q27 10 41.5 25t14.5 36q0 16 -12.5 26t-33.5 10q-12 0 -23.5 -2
t-28.5 -9l-5 59q17 9 36.5 13.5t42.5 4.5q50 0 79.5 -23.5t29.5 -62.5q0 -27 -14.5 -52t-38.5 -44t-56 -31z" />
    <glyph glyph-name="uni1ED5" unicode="&#x1ed5;" horiz-adv-x="657" 
d="M314 -12q-74 0 -133.5 34t-94.5 94t-35 138q0 62 22.5 115.5t62.5 94.5t93.5 64t114.5 23q75 0 134.5 -34t94.5 -93.5t35 -136.5q0 -62 -23 -116t-64 -95.5t-94 -64.5t-113 -23zM313 78q56 0 100 29t70 76.5t26 104.5q0 50 -21 89t-58.5 61.5t-85.5 22.5
q-54 0 -98.5 -28.5t-70 -75.5t-25.5 -105q0 -50 21 -89.5t58 -62t84 -22.5zM209 640l139 145h108l99 -145h-95l-60 80l-80 -80h-111zM554 710l-32 50q27 10 41.5 25t14.5 36q0 16 -12.5 26t-33.5 10q-12 0 -23.5 -2t-28.5 -9l-5 59q17 9 36.5 13.5t42.5 4.5q50 0 79.5 -23.5
t29.5 -62.5q0 -27 -14.5 -52t-38.5 -44t-56 -31z" />
    <glyph glyph-name="uni1ED6" unicode="&#x1ed6;" horiz-adv-x="881" 
d="M431 -12q-76 0 -140.5 26.5t-113 74t-75 113t-26.5 144.5q0 86 30.5 160t85 131t128 88.5t158.5 31.5q77 0 142 -26t113 -74t75 -113.5t27 -143.5q0 -86 -31 -160.5t-86 -131t-128.5 -88.5t-158.5 -32zM432 79q65 0 120.5 25.5t96.5 69.5t64 101.5t23 122.5
q0 76 -32.5 136.5t-90 96t-135.5 35.5q-65 0 -120.5 -25.5t-96.5 -69.5t-64 -101t-23 -122q0 -76 33 -137t90.5 -96.5t134.5 -35.5zM349 847l140 145h108l99 -145h-95l-60 80l-81 -80h-111zM607 1054q-22 0 -34.5 9.5t-21.5 21t-17.5 21t-22.5 9.5t-22.5 -14t-13.5 -43h-73
q7 45 23.5 74.5t40 44.5t48.5 15q23 0 36 -9t22 -21t17.5 -21t21.5 -9q15 0 24 13.5t12 42.5h74q-9 -61 -41 -97.5t-73 -36.5z" />
    <glyph glyph-name="uni1ED7" unicode="&#x1ed7;" horiz-adv-x="657" 
d="M314 -12q-74 0 -133.5 34t-94.5 94t-35 138q0 62 22.5 115.5t62.5 94.5t93.5 64t114.5 23q75 0 134.5 -34t94.5 -93.5t35 -136.5q0 -62 -23 -116t-64 -95.5t-94 -64.5t-113 -23zM313 78q56 0 100 29t70 76.5t26 104.5q0 50 -21 89t-58.5 61.5t-85.5 22.5
q-54 0 -98.5 -28.5t-70 -75.5t-25.5 -105q0 -50 21 -89.5t58 -62t84 -22.5zM208 640l140 145h108l99 -145h-95l-60 80l-81 -80h-111zM466 847q-22 0 -34.5 9.5t-21.5 21t-17.5 21t-22.5 9.5t-22.5 -14t-13.5 -43h-73q7 45 23.5 74.5t40 44.5t48.5 15q23 0 36 -9t22 -21
t17.5 -21t21.5 -9q15 0 24 13.5t12 42.5h74q-9 -61 -41 -97.5t-73 -36.5z" />
    <glyph glyph-name="uni1ED8" unicode="&#x1ed8;" horiz-adv-x="881" 
d="M431 -12q-76 0 -140.5 26.5t-113 74t-75 113t-26.5 144.5q0 86 30.5 160t85 131t128 88.5t158.5 31.5q77 0 142 -26t113 -74t75 -113.5t27 -143.5q0 -86 -31 -160.5t-86 -131t-128.5 -88.5t-158.5 -32zM432 79q65 0 120.5 25.5t96.5 69.5t64 101.5t23 122.5
q0 76 -32.5 136.5t-90 96t-135.5 35.5q-65 0 -120.5 -25.5t-96.5 -69.5t-64 -101t-23 -122q0 -76 33 -137t90.5 -96.5t134.5 -35.5zM319 -202l16 112h112l-16 -112h-112zM324 847l141 155h108l97 -155h-95l-59 91l-84 -91h-108z" />
    <glyph glyph-name="uni1ED9" unicode="&#x1ed9;" horiz-adv-x="657" 
d="M314 -12q-74 0 -133.5 34t-94.5 94t-35 138q0 62 22.5 115.5t62.5 94.5t93.5 64t114.5 23q75 0 134.5 -34t94.5 -93.5t35 -136.5q0 -62 -23 -116t-64 -95.5t-94 -64.5t-113 -23zM313 78q56 0 100 29t70 76.5t26 104.5q0 50 -21 89t-58.5 61.5t-85.5 22.5
q-54 0 -98.5 -28.5t-70 -75.5t-25.5 -105q0 -50 21 -89.5t58 -62t84 -22.5zM206 -202l16 112h112l-16 -112h-112zM183 640l141 155h108l97 -155h-95l-59 91l-84 -91h-108z" />
    <glyph glyph-name="uni1EDA" unicode="&#x1eda;" horiz-adv-x="881" 
d="M431 -12q-76 0 -140.5 26.5t-113 74t-75 113t-26.5 144.5q0 86 30.5 160t85 131t128 88.5t158.5 31.5h210q13 0 26.5 5t22.5 19t9 42q0 16 -3 32t-9 32h101q6 -15 10 -31.5t4 -33.5q0 -68 -33.5 -107t-89.5 -39h-48l17 14q65 -47 102.5 -122t37.5 -168q0 -86 -31 -160.5
t-86 -131t-128.5 -88.5t-158.5 -32zM432 79q65 0 120.5 25.5t96.5 69.5t64 101.5t23 122.5q0 76 -32.5 136.5t-90 96t-135.5 35.5q-65 0 -120.5 -25.5t-96.5 -69.5t-64 -101t-23 -122q0 -76 33 -137t90.5 -96.5t134.5 -35.5zM475 847l102 158h126l-135 -158h-93z" />
    <glyph glyph-name="uni1EDB" unicode="&#x1edb;" horiz-adv-x="657" 
d="M314 -12q-74 0 -133.5 34t-94.5 94t-35 138q0 62 22.5 115.5t62.5 94.5t93.5 64t114.5 23h110q13 0 26.5 5t22.5 19t9 42q0 15 -3.5 31.5t-8.5 32.5h100q7 -16 11 -32.5t4 -33.5q0 -55 -32 -90.5t-87 -44.5l8 20q47 -35 75.5 -89.5t28.5 -123.5q0 -62 -23 -116t-64 -95.5
t-94 -64.5t-113 -23zM313 78q56 0 100 29t70 76.5t26 104.5q0 50 -21 89t-58 61.5t-86 22.5q-54 0 -98.5 -28.5t-70 -75.5t-25.5 -105q0 -50 21 -89.5t58 -62t84 -22.5zM334 640l102 158h126l-135 -158h-93z" />
    <glyph glyph-name="uni1EDC" unicode="&#x1edc;" horiz-adv-x="881" 
d="M431 -12q-76 0 -140.5 26.5t-113 74t-75 113t-26.5 144.5q0 86 30.5 160t85 131t128 88.5t158.5 31.5h210q13 0 26.5 5t22.5 19t9 42q0 16 -3 32t-9 32h101q6 -15 10 -31.5t4 -33.5q0 -68 -33.5 -107t-89.5 -39h-48l17 14q65 -47 102.5 -122t37.5 -168q0 -86 -31 -160.5
t-86 -131t-128.5 -88.5t-158.5 -32zM432 79q65 0 120.5 25.5t96.5 69.5t64 101.5t23 122.5q0 76 -32.5 136.5t-90 96t-135.5 35.5q-65 0 -120.5 -25.5t-96.5 -69.5t-64 -101t-23 -122q0 -76 33 -137t90.5 -96.5t134.5 -35.5zM475 847l-88 158h125l57 -158h-94z" />
    <glyph glyph-name="uni1EDD" unicode="&#x1edd;" horiz-adv-x="657" 
d="M314 -12q-74 0 -133.5 34t-94.5 94t-35 138q0 62 22.5 115.5t62.5 94.5t93.5 64t114.5 23h110q13 0 26.5 5t22.5 19t9 42q0 15 -3.5 31.5t-8.5 32.5h100q7 -16 11 -32.5t4 -33.5q0 -55 -32 -90.5t-87 -44.5l8 20q47 -35 75.5 -89.5t28.5 -123.5q0 -62 -23 -116t-64 -95.5
t-94 -64.5t-113 -23zM313 78q56 0 100 29t70 76.5t26 104.5q0 50 -21 89t-58 61.5t-86 22.5q-54 0 -98.5 -28.5t-70 -75.5t-25.5 -105q0 -50 21 -89.5t58 -62t84 -22.5zM334 640l-88 158h125l57 -158h-94z" />
    <glyph glyph-name="uni1EDE" unicode="&#x1ede;" horiz-adv-x="881" 
d="M431 -12q-76 0 -140.5 26.5t-113 74t-75 113t-26.5 144.5q0 86 30.5 160t85 131t128 88.5t158.5 31.5h210q13 0 26.5 5t22.5 19t9 42q0 16 -3 32t-9 32h101q6 -15 10 -31.5t4 -33.5q0 -68 -33.5 -107t-89.5 -39h-48l17 14q65 -47 102.5 -122t37.5 -168q0 -86 -31 -160.5
t-86 -131t-128.5 -88.5t-158.5 -32zM432 79q65 0 120.5 25.5t96.5 69.5t64 101.5t23 122.5q0 76 -32.5 136.5t-90 96t-135.5 35.5q-65 0 -120.5 -25.5t-96.5 -69.5t-64 -101t-23 -122q0 -76 33 -137t90.5 -96.5t134.5 -35.5zM524 807l-33 52q28 10 42.5 26t14.5 36
q0 16 -13 26.5t-34 10.5q-12 0 -24 -2t-29 -9l-5 61q20 11 41 14.5t40 3.5q52 0 81.5 -24t29.5 -64q0 -28 -14.5 -53.5t-39.5 -45t-57 -32.5z" />
    <glyph glyph-name="uni1EDF" unicode="&#x1edf;" horiz-adv-x="657" 
d="M314 -12q-74 0 -133.5 34t-94.5 94t-35 138q0 62 22.5 115.5t62.5 94.5t93.5 64t114.5 23h110q13 0 26.5 5t22.5 19t9 42q0 15 -3.5 31.5t-8.5 32.5h100q7 -16 11 -32.5t4 -33.5q0 -55 -32 -90.5t-87 -44.5l8 20q47 -35 75.5 -89.5t28.5 -123.5q0 -62 -23 -116t-64 -95.5
t-94 -64.5t-113 -23zM313 78q56 0 100 29t70 76.5t26 104.5q0 50 -21 89t-58 61.5t-86 22.5q-54 0 -98.5 -28.5t-70 -75.5t-25.5 -105q0 -50 21 -89.5t58 -62t84 -22.5zM383 600l-33 52q28 10 42.5 26t14.5 36q0 16 -13 26.5t-34 10.5q-12 0 -24 -2t-29 -9l-5 61
q20 11 41 14.5t40 3.5q52 0 81.5 -24t29.5 -64q0 -28 -14.5 -53.5t-39.5 -45t-57 -32.5z" />
    <glyph glyph-name="uni1EE0" unicode="&#x1ee0;" horiz-adv-x="881" 
d="M431 -12q-76 0 -140.5 26.5t-113 74t-75 113t-26.5 144.5q0 86 30.5 160t85 131t128 88.5t158.5 31.5h210q13 0 26.5 5t22.5 19t9 42q0 16 -3 32t-9 32h101q6 -15 10 -31.5t4 -33.5q0 -68 -33.5 -107t-89.5 -39h-48l17 14q65 -47 102.5 -122t37.5 -168q0 -86 -31 -160.5
t-86 -131t-128.5 -88.5t-158.5 -32zM432 79q65 0 120.5 25.5t96.5 69.5t64 101.5t23 122.5q0 76 -32.5 136.5t-90 96t-135.5 35.5q-65 0 -120.5 -25.5t-96.5 -69.5t-64 -101t-23 -122q0 -76 33 -137t90.5 -96.5t134.5 -35.5zM586 847q-27 0 -42.5 9t-25.5 21t-20.5 21
t-27.5 9q-16 0 -27.5 -13t-15.5 -43h-76q7 45 25 74.5t44 44.5t56 15q27 0 42.5 -9t26 -21t21 -21t27.5 -9q19 0 30.5 15t15.5 41h74q-9 -63 -44.5 -98.5t-82.5 -35.5z" />
    <glyph glyph-name="uni1EE1" unicode="&#x1ee1;" horiz-adv-x="657" 
d="M314 -12q-74 0 -133.5 34t-94.5 94t-35 138q0 62 22.5 115.5t62.5 94.5t93.5 64t114.5 23h110q13 0 26.5 5t22.5 19t9 42q0 15 -3.5 31.5t-8.5 32.5h100q7 -16 11 -32.5t4 -33.5q0 -55 -32 -90.5t-87 -44.5l8 20q47 -35 75.5 -89.5t28.5 -123.5q0 -62 -23 -116t-64 -95.5
t-94 -64.5t-113 -23zM313 78q56 0 100 29t70 76.5t26 104.5q0 50 -21 89t-58 61.5t-86 22.5q-54 0 -98.5 -28.5t-70 -75.5t-25.5 -105q0 -50 21 -89.5t58 -62t84 -22.5zM445 640q-27 0 -42.5 9t-25.5 21t-20.5 21t-27.5 9q-16 0 -27.5 -13t-15.5 -43h-76q7 45 25 74.5
t44 44.5t56 15q27 0 42.5 -9t26 -21t21 -21t27.5 -9q19 0 30.5 15t15.5 41h74q-9 -63 -44.5 -98.5t-82.5 -35.5z" />
    <glyph glyph-name="uni1EE2" unicode="&#x1ee2;" horiz-adv-x="881" 
d="M431 -12q-76 0 -140.5 26.5t-113 74t-75 113t-26.5 144.5q0 86 30.5 160t85 131t128 88.5t158.5 31.5h210q13 0 26.5 5t22.5 19t9 42q0 16 -3 32t-9 32h101q6 -15 10 -31.5t4 -33.5q0 -68 -33.5 -107t-89.5 -39h-48l17 14q65 -47 102.5 -122t37.5 -168q0 -86 -31 -160.5
t-86 -131t-128.5 -88.5t-158.5 -32zM432 79q65 0 120.5 25.5t96.5 69.5t64 101.5t23 122.5q0 76 -32.5 136.5t-90 96t-135.5 35.5q-65 0 -120.5 -25.5t-96.5 -69.5t-64 -101t-23 -122q0 -76 33 -137t90.5 -96.5t134.5 -35.5zM319 -202l16 112h112l-16 -112h-112z" />
    <glyph glyph-name="uni1EE3" unicode="&#x1ee3;" horiz-adv-x="657" 
d="M314 -12q-74 0 -133.5 34t-94.5 94t-35 138q0 62 22.5 115.5t62.5 94.5t93.5 64t114.5 23h110q13 0 26.5 5t22.5 19t9 42q0 15 -3.5 31.5t-8.5 32.5h100q7 -16 11 -32.5t4 -33.5q0 -55 -32 -90.5t-87 -44.5l8 20q47 -35 75.5 -89.5t28.5 -123.5q0 -62 -23 -116t-64 -95.5
t-94 -64.5t-113 -23zM313 78q56 0 100 29t70 76.5t26 104.5q0 50 -21 89t-58 61.5t-86 22.5q-54 0 -98.5 -28.5t-70 -75.5t-25.5 -105q0 -50 21 -89.5t58 -62t84 -22.5zM206 -202l16 112h112l-16 -112h-112z" />
    <glyph glyph-name="uni1EE4" unicode="&#x1ee4;" horiz-adv-x="706" 
d="M323 -12q-83 0 -142 34.5t-87 94.5t-18 136l69 492h99l-68 -493q-7 -51 9.5 -90t53.5 -61t89 -22t94.5 22t70.5 61t35 92l69 491h98l-70 -497q-10 -76 -51.5 -134.5t-105.5 -92t-145 -33.5zM231 -202l16 112h112l-16 -112h-112z" />
    <glyph glyph-name="uni1EE5" unicode="&#x1ee5;" horiz-adv-x="581" 
d="M229 -12q-60 0 -103 28t-62.5 79t-10.5 120l46 324h94l-47 -328q-5 -40 7 -70t38 -46.5t64 -16.5q39 0 71 17.5t54 49.5t28 76l45 318h93l-75 -539h-91l14 105l14 -11q-26 -52 -73.5 -79t-105.5 -27zM168 -202l16 112h112l-16 -112h-112z" />
    <glyph glyph-name="uni1EE6" unicode="&#x1ee6;" horiz-adv-x="706" 
d="M323 -12q-83 0 -142 34.5t-87 94.5t-18 136l69 492h99l-68 -493q-7 -51 9.5 -90t53.5 -61t89 -22t94.5 22t70.5 61t35 92l69 491h98l-70 -497q-10 -76 -51.5 -134.5t-105.5 -92t-145 -33.5zM436 807l-33 52q28 10 42.5 26t14.5 36q0 16 -13 26.5t-34 10.5q-12 0 -24 -2
t-29 -9l-5 61q20 11 41 14.5t40 3.5q52 0 81.5 -24t29.5 -64q0 -28 -14.5 -53.5t-39.5 -45t-57 -32.5z" />
    <glyph glyph-name="uni1EE7" unicode="&#x1ee7;" horiz-adv-x="581" 
d="M229 -12q-60 0 -103 28t-62.5 79t-10.5 120l46 324h94l-47 -328q-5 -40 7 -70t38 -46.5t64 -16.5q39 0 71 17.5t54 49.5t28 76l45 318h93l-75 -539h-91l14 105l14 -11q-26 -52 -73.5 -79t-105.5 -27zM345 600l-33 52q28 10 42.5 26t14.5 36q0 16 -13 26.5t-34 10.5
q-12 0 -24 -2t-29 -9l-5 61q20 11 41 14.5t40 3.5q52 0 81.5 -24t29.5 -64q0 -28 -14.5 -53.5t-39.5 -45t-57 -32.5z" />
    <glyph glyph-name="uni1EE8" unicode="&#x1ee8;" horiz-adv-x="706" 
d="M323 -12q-83 0 -142 34.5t-87 94.5t-18 136l69 492h99l-68 -493q-7 -51 9.5 -90t53.5 -61t89 -22t94.5 22t70.5 61t35 92l69 491h98l-70 -497q-10 -76 -51.5 -134.5t-105.5 -92t-145 -33.5zM656 664l11 81h15q13 0 26.5 5t22.5 19t9 42q0 16 -3 32t-9 32h101
q6 -15 10 -31.5t4 -33.5q0 -68 -42 -107t-113 -39h-32zM387 847l102 158h126l-135 -158h-93z" />
    <glyph glyph-name="uni1EE9" unicode="&#x1ee9;" horiz-adv-x="618" 
d="M229 -12q-60 0 -103 28t-62.5 79t-10.5 120l46 324h94l-47 -328q-5 -40 7 -70t38 -46.5t64 -16.5q39 0 71 17.5t54 49.5t28 76l45 318h53q15 0 28.5 5.5t22.5 20t9 41.5q0 14 -3 29.5t-9 34.5h87q5 -17 8.5 -34t3.5 -33q0 -62 -38.5 -99t-104.5 -36l32 35l-71 -503h-91
l9 63q-29 -36 -70.5 -55.5t-89.5 -19.5zM296 640l102 158h126l-135 -158h-93z" />
    <glyph glyph-name="uni1EEA" unicode="&#x1eea;" horiz-adv-x="706" 
d="M323 -12q-83 0 -142 34.5t-87 94.5t-18 136l69 492h99l-68 -493q-7 -51 9.5 -90t53.5 -61t89 -22t94.5 22t70.5 61t35 92l69 491h98l-70 -497q-10 -76 -51.5 -134.5t-105.5 -92t-145 -33.5zM656 664l11 81h15q13 0 26.5 5t22.5 19t9 42q0 16 -3 32t-9 32h101
q6 -15 10 -31.5t4 -33.5q0 -68 -42 -107t-113 -39h-32zM387 847l-88 158h125l57 -158h-94z" />
    <glyph glyph-name="uni1EEB" unicode="&#x1eeb;" horiz-adv-x="618" 
d="M229 -12q-60 0 -103 28t-62.5 79t-10.5 120l46 324h94l-47 -328q-5 -40 7 -70t38 -46.5t64 -16.5q39 0 71 17.5t54 49.5t28 76l45 318h53q15 0 28.5 5.5t22.5 20t9 41.5q0 14 -3 29.5t-9 34.5h87q5 -17 8.5 -34t3.5 -33q0 -62 -38.5 -99t-104.5 -36l32 35l-71 -503h-91
l9 63q-29 -36 -70.5 -55.5t-89.5 -19.5zM295 640l-88 158h125l57 -158h-94z" />
    <glyph glyph-name="uni1EEC" unicode="&#x1eec;" horiz-adv-x="706" 
d="M323 -12q-83 0 -142 34.5t-87 94.5t-18 136l69 492h99l-68 -493q-7 -51 9.5 -90t53.5 -61t89 -22t94.5 22t70.5 61t35 92l69 491h98l-70 -497q-10 -76 -51.5 -134.5t-105.5 -92t-145 -33.5zM656 664l11 81h15q13 0 26.5 5t22.5 19t9 42q0 16 -3 32t-9 32h101
q6 -15 10 -31.5t4 -33.5q0 -68 -42 -107t-113 -39h-32zM436 807l-33 52q28 10 42.5 26t14.5 36q0 16 -13 26.5t-34 10.5q-12 0 -24 -2t-29 -9l-5 61q20 11 41 14.5t40 3.5q52 0 81.5 -24t29.5 -64q0 -28 -14.5 -53.5t-39.5 -45t-57 -32.5z" />
    <glyph glyph-name="uni1EED" unicode="&#x1eed;" horiz-adv-x="618" 
d="M229 -12q-60 0 -103 28t-62.5 79t-10.5 120l46 324h94l-47 -328q-5 -40 7 -70t38 -46.5t64 -16.5q39 0 71 17.5t54 49.5t28 76l45 318h53q15 0 28.5 5.5t22.5 20t9 41.5q0 14 -3 29.5t-9 34.5h87q5 -17 8.5 -34t3.5 -33q0 -62 -38.5 -99t-104.5 -36l32 35l-71 -503h-91
l9 63q-29 -36 -70.5 -55.5t-89.5 -19.5zM345 600l-33 52q28 10 42.5 26t14.5 36q0 16 -13 26.5t-34 10.5q-12 0 -24 -2t-29 -9l-5 61q20 11 41 14.5t40 3.5q52 0 81.5 -24t29.5 -64q0 -28 -14.5 -53.5t-39.5 -45t-57 -32.5z" />
    </font>
</defs>
</svg>
