<?xml version="1.0" standalone="no"?>
<!DOCTYPE svg PUBLIC "-//W3C//DTD SVG 1.1//EN" "http://www.w3.org/Graphics/SVG/1.1/DTD/svg11.dtd" >
<svg xmlns="http://www.w3.org/2000/svg" xmlns:xlink="http://www.w3.org/1999/xlink" version="1.1">
<metadata>
Created by FontForge 20201107 at Thu Jun  8 17:17:00 2023
 By 
Copyright 2020 The Plus Jakarta Sans Project Authors (https://github.com/tokotype/PlusJakartaSans)
</metadata>
<defs>
<font id="PlusJakartaSans-BoldItalic" horiz-adv-x="581" >
  <font-face 
    font-family="Plus Jakarta Sans"
    font-weight="700"
    font-style="italic"
    font-stretch="normal"
    units-per-em="1000"
    panose-1="0 0 0 0 0 0 0 0 0 0"
    ascent="800"
    descent="-200"
    x-height="544"
    cap-height="745"
    bbox="-207 -257 1422 1268"
    underline-thickness="40"
    underline-position="-175"
    slope="-8"
    unicode-range="U+000D-FB02"
  />
<missing-glyph horiz-adv-x="744" 
d="M126 675v70h520v-70h-520zM126 0v70h520v-70h-520zM126 225v70h520v-70h-520zM126 450v70h520v-70h-520z" />
    <glyph glyph-name="fi" unicode="fi" horiz-adv-x="626" 
d="M85 0l60 427h-95l16 117h96l3 19q10 63 40 106.5t77 65.5t108 22q15 0 29.5 -2t24.5 -4l-8 -111q-10 2 -18 2h-13q-46 0 -74.5 -18.5t-35.5 -65.5l-2 -14h239l-16 -117h-239l-60 -427h-132zM407 0l76 544h132l-75 -544h-133z" />
    <glyph glyph-name="fl" unicode="fl" horiz-adv-x="660" 
d="M85 0l60 427h-95l16 117h96l3 19q10 63 40 106.5t77 65.5t108 22q15 0 29.5 -2t24.5 -4l-8 -111q-10 2 -18 2h-13q-46 0 -74.5 -18.5t-35.5 -65.5l-2 -14h239l-16 -117h-239l-60 -427h-132zM429 0l106 757h133l-106 -757h-133z" />
    <glyph glyph-name="f_f" unicode="ff" horiz-adv-x="806" 
d="M85 0l60 427h-95l16 117h96l3 19q10 63 40 106.5t77 65.5t108 22q15 0 29.5 -2t24.5 -4l-8 -111q-10 2 -18 2h-13q-46 0 -74.5 -18.5t-35.5 -65.5l-2 -14h239l-16 -117h-239l-60 -427h-132zM482 0l59 427h-95l17 117h95l3 19q11 63 41 106.5t77 65.5t107 22q16 0 30.5 -2
t24.5 -4l-9 -111q-9 2 -17 2h-13q-46 0 -75 -18.5t-35 -65.5l-2 -14h120l-16 -117h-121l-59 -427h-132z" />
    <glyph glyph-name="f_f_i" unicode="ffi" horiz-adv-x="1023" 
d="M85 0l60 427h-95l16 117h96l3 19q10 63 40 106.5t77 65.5t108 22q15 0 29.5 -2t24.5 -4l-8 -111q-10 2 -18 2h-13q-46 0 -74.5 -18.5t-35.5 -65.5l-2 -14h239l-16 -117h-239l-60 -427h-132zM804 0l76 544h132l-76 -544h-132zM482 0l59 427h-95l17 117h95l3 19
q11 63 41 106.5t77 65.5t107 22q16 0 30.5 -2t24.5 -4l-9 -111q-9 2 -17 2h-13q-46 0 -75 -18.5t-35 -65.5l-2 -14h238l-16 -117h-239l-59 -427h-132z" />
    <glyph glyph-name="f_f_l" unicode="ffl" horiz-adv-x="1057" 
d="M85 0l60 427h-95l16 117h96l3 19q10 63 40 106.5t77 65.5t108 22q15 0 29.5 -2t24.5 -4l-8 -111q-10 2 -18 2h-13q-46 0 -74.5 -18.5t-35.5 -65.5l-2 -14h239l-16 -117h-239l-60 -427h-132zM826 0l106 757h132l-106 -757h-132zM482 0l59 427h-95l17 117h95l3 19
q11 63 41 106.5t77 65.5t107 22q16 0 30.5 -2t24.5 -4l-9 -111q-9 2 -17 2h-13q-46 0 -75 -18.5t-35 -65.5l-2 -14h238l-16 -117h-239l-59 -427h-132z" />
    <glyph glyph-name=".notdef" horiz-adv-x="744" 
d="M126 675v70h520v-70h-520zM126 0v70h520v-70h-520zM126 225v70h520v-70h-520zM126 450v70h520v-70h-520z" />
    <glyph glyph-name=".null" horiz-adv-x="0" 
 />
    <glyph glyph-name="nonmarkingreturn" horiz-adv-x="333" 
 />
    <glyph glyph-name="CR" unicode="&#xd;" horiz-adv-x="178" 
 />
    <glyph glyph-name="space" unicode=" " horiz-adv-x="178" 
 />
    <glyph glyph-name="exclam" unicode="!" horiz-adv-x="371" 
d="M122 226l63 519h133l-81 -519h-115zM81 0l20 140h132l-19 -140h-133z" />
    <glyph glyph-name="quotedbl" unicode="&#x22;" horiz-adv-x="498" 
d="M140 462l23 283h117l-55 -283h-85zM327 462l22 283h118l-55 -283h-85z" />
    <glyph glyph-name="numbersign" unicode="#" horiz-adv-x="915" 
d="M98 0l69 164h-120l16 115h153l81 188h-120l16 115h153l70 163h132l-69 -163h165l68 163h133l-69 -163h120l-16 -115h-153l-81 -188h120l-16 -115h-154l-68 -164h-133l69 164h-164l-70 -164h-132zM348 279h165l81 188h-164z" />
    <glyph glyph-name="dollar" unicode="$" horiz-adv-x="649" 
d="M325 -12q-75 0 -136.5 26t-103 73.5t-57.5 110.5l117 44q19 -64 67.5 -99.5t112.5 -35.5q39 0 68 13.5t44.5 36.5t15.5 51q0 29 -17.5 49t-55.5 32l-132 44q-79 26 -118 75t-39 119q0 65 34.5 117t93.5 82.5t134 30.5q70 0 126 -24t93.5 -66t51.5 -99l-116 -44
q-15 54 -57 84t-101 30q-36 0 -64 -12.5t-43.5 -34.5t-15.5 -52t18.5 -51.5t57.5 -34.5l125 -43q82 -27 122 -75t40 -118q0 -63 -35 -115t-94.5 -83t-135.5 -31zM232 -100l132 945h86l-132 -945h-86z" />
    <glyph glyph-name="percent" unicode="%" horiz-adv-x="1074" 
d="M129 0l708 745h140l-708 -745h-140zM298 367q-54 0 -95.5 24t-65 65.5t-23.5 91.5q0 57 28.5 104.5t76.5 76t106 28.5q52 0 93.5 -24t65 -65t23.5 -92q0 -57 -28.5 -104.5t-76 -76t-104.5 -28.5zM305 468q28 0 50 14t34.5 37.5t12.5 49.5q0 23 -10 42.5t-28.5 32.5
t-46.5 13t-50 -14.5t-35 -37.5t-13 -50q0 -22 10 -42t29.5 -32.5t46.5 -12.5zM778 -12q-52 0 -94 24t-65.5 65.5t-23.5 91.5q0 58 29 105t77 75.5t105 28.5q53 0 94 -24t64.5 -65t23.5 -92q0 -57 -28.5 -104.5t-76 -76t-105.5 -28.5zM786 89q28 0 50 14t34.5 37.5t12.5 49.5
q0 23 -10 43t-28.5 32.5t-45.5 12.5q-28 0 -50.5 -14.5t-35 -37.5t-12.5 -50q0 -23 10 -43t29 -32t46 -12z" />
    <glyph glyph-name="ampersand" unicode="&#x26;" horiz-adv-x="801" 
d="M282 -12q-65 0 -114 23t-75.5 66t-26.5 103q0 45 15 80.5t41 63.5t58 49.5t65 38.5l75 38q55 28 83 50.5t38 43t10 41.5q0 29 -17 47t-46 18q-26 0 -47 -12t-33 -33.5t-12 -49.5q0 -22 8.5 -43t21.5 -39.5t24 -33.5l351 -439h-155l-293 366q-19 24 -38 51t-31 59.5
t-12 71.5q0 60 29 107.5t78.5 74.5t108.5 27q54 0 94.5 -22t64 -61t23.5 -88q0 -50 -21 -88.5t-59.5 -70t-89.5 -60.5l-79 -43q-29 -16 -56 -35t-44.5 -44.5t-17.5 -62.5q0 -36 23 -59t63 -23q30 0 53 10t41.5 25t32.5 31.5t26 31.5l133 167h141l-157 -213
q-18 -24 -42.5 -52.5t-58 -54t-77 -41.5t-99.5 -16z" />
    <glyph glyph-name="quotesingle" unicode="'" horiz-adv-x="311" 
d="M140 462l23 283h117l-55 -283h-85z" />
    <glyph glyph-name="parenleft" unicode="(" horiz-adv-x="397" 
d="M188 -170q-63 83 -94 178t-31 201q0 101 25.5 196.5t75 181.5t120.5 158h110q-54 -70 -98.5 -155t-70.5 -181.5t-26 -204.5q0 -98 24.5 -192t74.5 -182h-110z" />
    <glyph glyph-name="parenright" unicode=")" horiz-adv-x="396" 
d="M7 -170q57 75 101 161t69 182t25 200q0 99 -25 192t-74 180h110q63 -83 94 -177t31 -200q0 -101 -25.5 -196t-75 -181t-120.5 -161h-110z" />
    <glyph glyph-name="asterisk" unicode="*" horiz-adv-x="540" 
d="M209 364l-73 59l88 99l-110 39l44 94l110 -38l18 128h100l-18 -128l120 38l18 -94l-120 -39l58 -99l-88 -59l-59 99z" />
    <glyph glyph-name="plus" unicode="+" horiz-adv-x="660" 
d="M237 0l27 194h-195l16 113h195l27 193h113l-27 -193h192l-16 -113h-192l-27 -194h-113z" />
    <glyph glyph-name="comma" unicode="," horiz-adv-x="357" 
d="M43 -156l8 64q36 8 60 31t35 61h-61l19 140h133l-14 -96q-11 -81 -57 -132.5t-123 -67.5z" />
    <glyph glyph-name="hyphen" unicode="-" horiz-adv-x="600" 
d="M80 214l16 115h425l-16 -115h-425z" />
    <glyph glyph-name="period" unicode="." horiz-adv-x="378" 
d="M85 0l20 140h133l-21 -140h-132z" />
    <glyph glyph-name="slash" unicode="/" horiz-adv-x="513" 
d="M-39 -120l448 825h150l-448 -825h-150z" />
    <glyph glyph-name="zero" unicode="0" horiz-adv-x="712" 
d="M335 -12q-82 0 -142 40t-92.5 113t-32.5 172q0 88 22.5 168t66.5 142t106.5 98t141.5 36q82 0 142 -40t92.5 -112.5t32.5 -170.5q0 -88 -22.5 -168.5t-66 -142.5t-106.5 -98.5t-142 -36.5zM338 112q54 0 92 30.5t61 80t34 106.5t11 108q0 93 -34.5 144.5t-100.5 51.5
q-50 0 -87 -28t-61.5 -74.5t-36.5 -104t-12 -116.5q0 -62 15.5 -106.5t45.5 -68t73 -23.5z" />
    <glyph glyph-name="one" unicode="1" horiz-adv-x="403" 
d="M133 0l89 629h-143l16 116h280l-104 -745h-138z" />
    <glyph glyph-name="two" unicode="2" horiz-adv-x="616" 
d="M29 0l10 103l223 213q51 48 85.5 82t54.5 59t29 46.5t9 45.5q0 41 -26 63.5t-70 22.5q-48 0 -85.5 -28.5t-58.5 -81.5l-117 42q19 59 58.5 101.5t93.5 65.5t117 23q64 0 115 -24t80.5 -67.5t29.5 -103.5q0 -42 -14 -78t-37 -68t-51.5 -61.5t-58.5 -56.5l-197 -183h324
l-16 -115h-498z" />
    <glyph glyph-name="three" unicode="3" horiz-adv-x="612" 
d="M269 -12q-63 0 -117 22.5t-89.5 64t-44.5 98.5l123 42q13 -51 48 -77.5t85 -26.5q43 0 75.5 17.5t51 48.5t18.5 71q0 36 -14.5 61t-41.5 38.5t-65 13.5q-19 0 -40 -4.5t-38 -11.5l-24 65l217 220h-306l15 115h466l-14 -107l-217 -227l-2 51q63 0 108 -27.5t69.5 -75
t24.5 -107.5q0 -58 -23 -107t-63.5 -83.5t-92 -54t-109.5 -19.5z" />
    <glyph glyph-name="four" unicode="4" horiz-adv-x="655" 
d="M341 0l22 164h-342l15 114l401 467h143l-66 -467h108l-16 -114h-108l-22 -164h-135zM130 229l-15 49h264l51 360l36 -11z" />
    <glyph glyph-name="five" unicode="5" horiz-adv-x="614" 
d="M272 -12q-61 0 -114 22t-88.5 62.5t-43.5 96.5l122 42q12 -51 47.5 -75.5t80.5 -24.5q43 0 75.5 19t50.5 51t18 72q0 35 -14.5 62t-40.5 42t-62 15q-41 0 -75 -17t-52 -49l-111 25l117 414h399l-13 -115h-350l65 60l-86 -313l-33 24q31 46 74.5 66.5t97.5 20.5
q68 0 117.5 -29.5t76.5 -80.5t27 -116q0 -60 -22 -110t-61.5 -86.5t-91 -57t-110.5 -20.5z" />
    <glyph glyph-name="six" unicode="6" horiz-adv-x="605" 
d="M276 -12q-68 0 -122 28.5t-85 79t-31 118.5q0 54 18 101t46.5 87.5t57.5 74.5l235 268h171l-288 -325l-27 24q16 11 31 17.5t31.5 9.5t34.5 3q59 0 107 -27t76 -75.5t28 -113.5q0 -76 -38 -137t-101.5 -97t-143.5 -36zM285 111q38 0 69 19t49.5 51t18.5 70q0 50 -31.5 80
t-78.5 30q-39 0 -70 -19t-49.5 -50.5t-18.5 -70.5q0 -50 31.5 -80t79.5 -30z" />
    <glyph glyph-name="seven" unicode="7" horiz-adv-x="561" 
d="M25 0l402 631h-345l15 115h494l-14 -115l-392 -631h-160z" />
    <glyph glyph-name="eight" unicode="8" horiz-adv-x="634" 
d="M293 -12q-75 0 -131.5 27t-87.5 75t-31 107q0 52 22.5 95t62 74.5t89.5 46.5l-11 -33q-46 15 -71.5 57t-25.5 96q0 62 33.5 113t91.5 81t131 30q64 0 112.5 -23.5t76 -64t27.5 -94.5q0 -44 -17.5 -83.5t-47.5 -69t-69 -43.5l-4 35q64 -24 98.5 -68t34.5 -109
q0 -67 -35 -123.5t-98 -91t-150 -34.5zM297 103q42 0 74.5 17t50.5 46t18 65q0 47 -32 75t-86 28q-41 0 -73 -16.5t-50.5 -45.5t-18.5 -66q0 -46 31.5 -74.5t85.5 -28.5zM333 449q33 0 57.5 14.5t38.5 39.5t14 55q0 37 -24 60.5t-65 23.5q-31 0 -56 -14t-39.5 -38.5
t-14.5 -54.5q0 -37 24.5 -61.5t64.5 -24.5z" />
    <glyph glyph-name="nine" unicode="9" horiz-adv-x="605" 
d="M68 0l287 326l28 -25q-15 -10 -30.5 -17t-31.5 -10t-35 -3q-60 0 -107.5 27t-75.5 75.5t-28 113.5q0 76 37.5 137t101.5 97t143 36q69 0 123 -28t85 -78.5t31 -119.5q0 -54 -18.5 -101t-46.5 -87t-58 -74l-235 -269h-170zM321 385q39 0 70.5 18.5t49.5 50.5t18 70
q0 50 -31 80.5t-79 30.5q-38 0 -69.5 -19t-49.5 -51t-18 -71q0 -50 31 -79.5t78 -29.5z" />
    <glyph glyph-name="colon" unicode=":" horiz-adv-x="378" 
d="M85 0l19 140h133l-20 -140h-132zM141 404l20 140h132l-20 -140h-132z" />
    <glyph glyph-name="semicolon" unicode=";" horiz-adv-x="398" 
d="M62 -156l9 64q35 8 59 31t35 61h-61l20 140h132l-14 -96q-11 -81 -57 -132.5t-123 -67.5zM161 404l20 140h132l-20 -140h-132z" />
    <glyph glyph-name="less" unicode="&#x3c;" horiz-adv-x="660" 
d="M520 13l-431 196l18 128l486 195l-19 -140l-368 -147l1 46l331 -152z" />
    <glyph glyph-name="equal" unicode="=" horiz-adv-x="660" 
d="M110 301l16 113h450l-16 -113h-450zM76 59l16 112h450l-16 -112h-450z" />
    <glyph glyph-name="greater" unicode="&#x3e;" horiz-adv-x="660" 
d="M68 13l19 140l368 146l-1 -45l-331 151l18 127l431 -196l-18 -128z" />
    <glyph glyph-name="question" unicode="?" horiz-adv-x="585" 
d="M227 226l4 20q12 65 39.5 109t64.5 79q24 22 44 40.5t32.5 39t12.5 45.5q0 32 -23 54t-68 22q-41 0 -73.5 -26t-42.5 -69l-120 30q13 56 48 98t86.5 65.5t113.5 23.5q71 0 119 -26.5t72.5 -69.5t24.5 -92q0 -42 -16.5 -75t-43.5 -61t-56 -55q-35 -31 -57.5 -64t-32.5 -76
l-3 -12h-125zM195 0l20 140h133l-21 -140h-132z" />
    <glyph glyph-name="at" unicode="@" horiz-adv-x="929" 
d="M445 -218q-90 0 -164 29.5t-127.5 83t-82.5 125.5t-29 158q0 93 31.5 175.5t91.5 146t144.5 100.5t189.5 37q94 0 168 -30t125 -82.5t78 -123t27 -152.5q0 -81 -25.5 -136.5t-68.5 -84t-98 -28.5q-35 0 -68 13.5t-53.5 41.5t-19.5 74l21 -50q-11 -25 -35.5 -42.5t-56 -27
t-64.5 -9.5q-55 0 -99 25.5t-70 70t-26 102.5q0 63 30.5 116.5t83 86t116.5 32.5q51 0 91.5 -18.5t51.5 -49.5l-16 -34l14 92h91l-33 -248q-4 -26 2.5 -44t19 -26.5t27.5 -8.5q36 0 55.5 35t19.5 101q0 92 -33 160t-97 106.5t-156 38.5q-78 0 -142.5 -27.5t-111 -76
t-72 -112t-25.5 -135.5q0 -91 39 -159.5t108 -106.5t158 -38q47 0 90.5 11.5t81.5 34.5l40 -88q-48 -29 -104.5 -43.5t-117.5 -14.5zM447 96q35 0 63 18t44.5 47.5t16.5 64.5q0 47 -29.5 78t-76.5 32q-36 0 -64.5 -16.5t-45.5 -46t-17 -65.5q0 -49 31 -80.5t78 -31.5z" />
    <glyph glyph-name="A" unicode="A" horiz-adv-x="712" 
d="M-27 0l361 745h176l153 -745h-142l-31 160h-287l-76 -160h-154zM259 280h208l-71 369l37 -4z" />
    <glyph glyph-name="B" unicode="B" horiz-adv-x="697" 
d="M34 0l104 745h301q103 0 159.5 -48.5t56.5 -135.5q0 -40 -12.5 -74.5t-37 -61.5t-61.5 -47l-9 48q65 -28 91.5 -73.5t26.5 -97.5q0 -78 -35.5 -135.5t-101 -88.5t-154.5 -31h-328zM187 120h201q38 0 67 15.5t45 43.5t16 63q0 43 -28.5 69t-76.5 26h-194zM234 456h182
q30 0 53 13t36 35t13 51q0 34 -22.5 54t-61.5 20h-176z" />
    <glyph glyph-name="C" unicode="C" horiz-adv-x="790" 
d="M414 -12q-75 0 -139 26t-111 74t-73 113.5t-26 145.5q0 85 29 159.5t82.5 130.5t126 88t158.5 32q81 0 143.5 -27.5t103.5 -72.5t57 -97l-125 -55q-18 57 -64.5 92.5t-118.5 35.5q-56 0 -102.5 -21t-81 -60t-53.5 -91.5t-19 -113.5q0 -72 26.5 -124.5t74.5 -81.5t112 -29
q74 0 127.5 37t79.5 94l118 -61q-22 -53 -69 -97t-112 -70.5t-144 -26.5z" />
    <glyph glyph-name="D" unicode="D" horiz-adv-x="743" 
d="M34 0l104 745h230q107 0 186 -43t123 -118.5t44 -173.5q0 -89 -29 -164t-84.5 -130t-131.5 -85.5t-171 -30.5h-271zM187 120h119q62 0 112.5 20.5t87.5 59t57 91t20 115.5q0 68 -27 117t-77 75.5t-120 26.5h-102z" />
    <glyph glyph-name="E" unicode="E" horiz-adv-x="595" 
d="M34 0l104 745h496l-17 -120h-360l-26 -191h339l-16 -120h-340l-27 -194h359l-16 -120h-496z" />
    <glyph glyph-name="F" unicode="F" horiz-adv-x="586" 
d="M34 0l104 745h497l-16 -120h-362l-28 -206h316l-17 -120h-316l-42 -299h-136z" />
    <glyph glyph-name="G" unicode="G" horiz-adv-x="814" 
d="M412 -12q-72 0 -135 25t-110.5 72t-74.5 113t-27 147q0 86 30.5 161t84.5 131.5t126.5 88t157.5 31.5q80 0 142 -27t103 -71.5t56 -97.5l-125 -58q-18 58 -65 94t-120 36q-56 0 -102.5 -21.5t-80.5 -60t-52.5 -89.5t-18.5 -111q0 -72 27.5 -126t77.5 -83.5t116 -29.5
q58 0 105.5 22.5t79 64.5t37.5 98l7 57l58 -54h-276l9 115h351l-9 -90q-7 -82 -40.5 -145t-84.5 -105.5t-114.5 -64.5t-132.5 -22z" />
    <glyph glyph-name="H" unicode="H" horiz-adv-x="733" 
d="M34 0l104 745h136l-45 -325h317l46 325h136l-104 -745h-136l41 300h-317l-42 -300h-136z" />
    <glyph glyph-name="I" unicode="I" horiz-adv-x="280" 
d="M34 0l104 745h136l-104 -745h-136z" />
    <glyph glyph-name="J" unicode="J" horiz-adv-x="393" 
d="M1 0l17 125h41q49 0 82 27.5t40 73.5l73 519h136l-75 -536q-8 -59 -40.5 -106t-87 -75t-127.5 -28h-59z" />
    <glyph glyph-name="K" unicode="K" horiz-adv-x="679" 
d="M34 0l104 745h136l-54 -388l-36 13l370 375h171l-346 -352l22 96l229 -489h-151l-157 334l-123 -125l-29 -209h-136z" />
    <glyph glyph-name="L" unicode="L" horiz-adv-x="543" 
d="M34 0l104 745h136l-87 -625h319l-17 -120h-455z" />
    <glyph glyph-name="M" unicode="M" horiz-adv-x="893" 
d="M34 0l104 745h130l226 -390l-82 5l342 385h134l-104 -745h-136l81 586l41 -14l-326 -372h-16l-230 403l54 -17l-82 -586h-136z" />
    <glyph glyph-name="N" unicode="N" horiz-adv-x="741" 
d="M34 0l104 745h107l323 -552l-48 -11l79 563h136l-104 -745h-107l-319 556l44 11l-79 -567h-136z" />
    <glyph glyph-name="O" unicode="O" horiz-adv-x="882" 
d="M433 -12q-79 0 -146.5 27t-117 75.5t-77 114t-27.5 143.5q0 87 31.5 161t87.5 130t131 87t162 31q80 0 147.5 -26.5t117 -75t77 -114t27.5 -142.5q0 -87 -32 -161.5t-88.5 -130.5t-131.5 -87.5t-161 -31.5zM433 112q58 0 108 21.5t88 60.5t59 91t21 112q0 70 -29.5 123
t-82 83t-120.5 30q-58 0 -108 -21.5t-88 -60t-59 -90t-21 -112.5q0 -69 30 -122.5t82 -84t120 -30.5z" />
    <glyph glyph-name="P" unicode="P" horiz-adv-x="647" 
d="M34 0l104 745h267q71 0 124 -26t82.5 -75.5t29.5 -121.5t-34.5 -128t-97 -87.5t-147.5 -31.5h-153l-39 -275h-136zM226 395h145q39 0 69 16.5t47 45.5t17 66q0 47 -29.5 74.5t-80.5 27.5h-137z" />
    <glyph glyph-name="Q" unicode="Q" horiz-adv-x="882" 
d="M433 -12q-79 0 -146.5 27t-117 75.5t-77 114t-27.5 143.5q0 87 31.5 161t87.5 130t131 87t162 31q80 0 147.5 -26.5t117 -75t77 -114t27.5 -142.5q0 -87 -32 -161.5t-88.5 -130.5t-131.5 -87.5t-161 -31.5zM433 112q58 0 108 21.5t88 60.5t59 91t21 112q0 70 -29.5 123
t-82 83t-120.5 30q-58 0 -108 -21.5t-88 -60t-59 -90t-21 -112.5q0 -69 30 -122.5t82 -84t120 -30.5zM568 -90l-178 388h135l180 -388h-137z" />
    <glyph glyph-name="R" unicode="R" horiz-adv-x="669" 
d="M34 0l104 745h267q71 0 124 -26t82.5 -75.5t29.5 -121.5q0 -54 -19 -99t-55 -78t-87 -51l126 -294h-146l-138 330l82 -55h-195l-39 -275h-136zM226 395h145q39 0 69 16.5t47 45.5t17 66q0 47 -29.5 74.5t-80.5 27.5h-137z" />
    <glyph glyph-name="S" unicode="S" horiz-adv-x="649" 
d="M325 -12q-75 0 -136.5 26t-103 73.5t-57.5 110.5l117 44q19 -64 67.5 -99.5t112.5 -35.5q39 0 68 13.5t44.5 36.5t15.5 51q0 29 -17.5 49t-55.5 32l-132 44q-79 26 -118 75t-39 119q0 65 34.5 117t93.5 82.5t134 30.5q70 0 126 -24t93.5 -66t51.5 -99l-116 -44
q-15 54 -57 84t-101 30q-36 0 -64 -12.5t-43.5 -34.5t-15.5 -52t18.5 -51.5t57.5 -34.5l125 -43q82 -27 122 -75t40 -118q0 -63 -35 -115t-94.5 -83t-135.5 -31z" />
    <glyph glyph-name="T" unicode="T" horiz-adv-x="542" 
d="M167 0l87 625h-193l16 120h520l-16 -120h-191l-87 -625h-136z" />
    <glyph glyph-name="U" unicode="U" horiz-adv-x="718" 
d="M332 -12q-88 0 -152 37t-95.5 100.5t-20.5 143.5l66 476h137l-66 -475q-7 -46 8.5 -82t49 -56t80.5 -20q46 0 84 20t63.5 57t32.5 87l65 469h136l-68 -483q-10 -80 -54.5 -142t-113 -97t-152.5 -35z" />
    <glyph glyph-name="V" unicode="V" horiz-adv-x="697" 
d="M233 0l-156 745h143l118 -617h-32l291 617h155l-363 -745h-156z" />
    <glyph glyph-name="W" unicode="W" horiz-adv-x="1020" 
d="M173 0l-96 745h143l68 -635h-43l261 635h135l81 -635h-48l253 635h148l-303 -745h-157l-78 618h44l-252 -618h-156z" />
    <glyph glyph-name="X" unicode="X" horiz-adv-x="662" 
d="M-27 0l297 382l-182 363h147l152 -303l-63 5l224 298h167l-286 -375l184 -370h-147l-153 309l63 -6l-237 -303h-166z" />
    <glyph glyph-name="Y" unicode="Y" horiz-adv-x="660" 
d="M224 0l46 330l-193 415h147l147 -324l-56 1l235 323h165l-307 -414l-46 -331h-138z" />
    <glyph glyph-name="Z" unicode="Z" horiz-adv-x="572" 
d="M-24 0l15 107l422 518h-328l16 120h513l-14 -107l-426 -518h363l-17 -120h-544z" />
    <glyph glyph-name="bracketleft" unicode="[" horiz-adv-x="416" 
d="M42 -170l129 915h260l-16 -115h-127l-97 -685h127l-16 -115h-260z" />
    <glyph glyph-name="backslash" unicode="\" horiz-adv-x="504" 
d="M292 -120l-216 825h141l216 -825h-141z" />
    <glyph glyph-name="bracketright" unicode="]" horiz-adv-x="416" 
d="M-10 -170l16 115h127l97 685h-128l16 115h260l-128 -915h-260z" />
    <glyph glyph-name="asciicircum" unicode="^" horiz-adv-x="660" 
d="M118 420l216 325h126l124 -325h-137l-84 221h55l-147 -221h-153z" />
    <glyph glyph-name="underscore" unicode="_" horiz-adv-x="663" 
d="M34 -115l16 115h487l-16 -115h-487z" />
    <glyph glyph-name="grave" unicode="`" horiz-adv-x="381" 
d="M280 640l-81 173h170l40 -173h-129z" />
    <glyph glyph-name="a" unicode="a" 
d="M201 -12q-52 0 -92.5 17t-63.5 50t-23 81q0 52 26 89t72 60.5t106 32.5l183 29l-10 -100l-154 -27q-37 -7 -62 -25.5t-25 -50.5q0 -28 20.5 -42t52.5 -14q40 0 72 18.5t53 49.5t25 68l19 136q4 27 -8.5 45.5t-34.5 28.5t-48 10q-45 0 -80.5 -24t-54.5 -61l-103 58
q21 43 57.5 73.5t85 48t103.5 17.5q66 0 117.5 -26t78.5 -71t18 -105l-49 -354h-125l13 93l33 -1q-25 -35 -56 -58t-67.5 -34.5t-78.5 -11.5z" />
    <glyph glyph-name="b" unicode="b" horiz-adv-x="671" 
d="M339 -12q-64 0 -115.5 24.5t-78.5 68.5l17 24l-14 -105h-125l106 757h132l-44 -321l-36 29q32 44 81.5 67.5t109.5 23.5q76 0 134 -35.5t91.5 -95.5t33.5 -135q0 -62 -22.5 -117t-62.5 -96.5t-93 -65t-114 -23.5zM326 108q49 0 87 24.5t59.5 65.5t21.5 91q0 43 -17.5 76
t-48.5 52t-74 19q-48 0 -85.5 -24.5t-58.5 -65.5t-21 -91q0 -43 17.5 -76.5t48.5 -52t71 -18.5z" />
    <glyph glyph-name="c" unicode="c" horiz-adv-x="620" 
d="M307 -12q-77 0 -138 35t-95 95.5t-34 136.5q0 63 23 118t64.5 96t96 64t116.5 23q60 0 109 -20.5t83.5 -57t47.5 -84.5l-117 -48q-12 42 -45 66t-79 24q-48 0 -85 -25.5t-57 -66.5t-20 -89q0 -43 16.5 -76t47 -52t69.5 -19q49 0 86 25.5t56 67.5l111 -55q-19 -46 -57 -82
t-89 -56t-110 -20z" />
    <glyph glyph-name="d" unicode="d" horiz-adv-x="669" 
d="M297 -12q-77 0 -135 33t-90.5 91.5t-32.5 134.5q0 69 23.5 125.5t65 97.5t96 63.5t115.5 22.5q65 0 113.5 -25.5t74.5 -69.5l-28 -25l44 321h133l-105 -757h-125l14 105l29 -20q-30 -48 -81.5 -72.5t-110.5 -24.5zM315 108q49 0 86.5 24.5t58.5 66t21 91.5q0 42 -17.5 75
t-48 52t-71.5 19q-49 0 -87 -24.5t-59.5 -65.5t-21.5 -92q0 -43 17.5 -75.5t49 -51.5t72.5 -19z" />
    <glyph glyph-name="e" unicode="e" horiz-adv-x="613" 
d="M304 -12q-80 0 -139.5 35t-92 95.5t-32.5 135.5q0 62 21.5 116.5t61 96.5t91.5 65.5t114 23.5q80 0 136 -33t85 -88.5t29 -124.5q0 -18 -3 -37t-8 -38h-420l7 100h345l-65 -45q13 45 2.5 80.5t-39 56.5t-70.5 21q-55 0 -88.5 -27t-49 -73.5t-15.5 -103.5q0 -44 16.5 -76
t46.5 -48.5t70 -16.5q45 0 79 20t54 51l104 -54q-19 -39 -54.5 -69t-83 -46.5t-102.5 -16.5z" />
    <glyph glyph-name="f" unicode="f" horiz-adv-x="410" 
d="M85 0l60 427h-95l16 117h96l3 19q10 63 40 106.5t77 65.5t108 22q15 0 29.5 -2t24.5 -4l-8 -111q-10 2 -18 2h-13q-46 0 -74.5 -18.5t-35.5 -65.5l-2 -14h121l-17 -117h-120l-60 -427h-132z" />
    <glyph glyph-name="g" unicode="g" horiz-adv-x="654" 
d="M266 -220q-62 0 -113 21t-84.5 57.5t-43.5 84.5l124 38q7 -38 40 -59.5t87 -21.5q39 0 71 15t53 42t25 63l19 131l33 -32q-31 -49 -78.5 -73t-107.5 -24q-72 0 -128.5 32t-88.5 88.5t-32 129.5q0 61 21.5 113t59.5 90t89 59.5t110 21.5q64 0 115 -26t79 -75l-26 -31
l16 120h125l-73 -528q-9 -69 -49.5 -122t-103 -83.5t-139.5 -30.5zM309 143q45 0 80.5 22t55 58t19.5 79q0 39 -16 69t-44.5 47.5t-68.5 17.5q-44 0 -79.5 -21.5t-56.5 -57.5t-21 -82q0 -38 16.5 -68t46 -47t68.5 -17z" />
    <glyph glyph-name="h" unicode="h" horiz-adv-x="593" 
d="M23 0l106 757h130l-44 -320l-15 22q26 50 71 73.5t100 23.5q62 0 105.5 -29t64 -78.5t11.5 -111.5l-47 -337h-131l44 322q8 52 -18 83t-74 31q-32 0 -59 -14.5t-45 -40.5t-24 -62l-44 -319h-131z" />
    <glyph glyph-name="i" unicode="i" horiz-adv-x="254" 
d="M23 0l76 544h132l-76 -544h-132zM107 605l20 140h132l-19 -140h-133z" />
    <glyph glyph-name="j" unicode="j" horiz-adv-x="257" 
d="M-72 -221q-15 0 -30 1.5t-24 3.5l9 112q9 -1 17.5 -1.5t14.5 -0.5q45 0 73.5 21.5t33.5 60.5l80 568h132l-80 -575q-9 -62 -39 -104.5t-78 -64t-109 -21.5zM111 605l19 140h133l-20 -140h-132z" />
    <glyph glyph-name="k" unicode="k" horiz-adv-x="576" 
d="M23 0l106 757h132l-70 -496l-61 15l294 268h175l-232 -219l160 -325h-142l-138 282l72 16l-189 -176l53 80l-28 -202h-132z" />
    <glyph glyph-name="l" unicode="l" horiz-adv-x="254" 
d="M23 0l106 757h132l-106 -757h-132z" />
    <glyph glyph-name="m" unicode="m" horiz-adv-x="924" 
d="M23 0l76 544h123l-16 -120l-13 19q26 60 70.5 86.5t102.5 26.5q67 0 113.5 -35t60.5 -93l-46 -3q36 70 91.5 100.5t121.5 30.5q59 0 102 -27t63.5 -75t11.5 -110l-47 -344h-132l45 322q5 35 -4.5 60t-30.5 39.5t-53 14.5q-31 0 -57 -14t-43 -39.5t-22 -60.5l-45 -322
h-131l45 322q5 35 -4.5 60t-30.5 39.5t-53 14.5q-31 0 -57.5 -14.5t-43 -40.5t-22.5 -62l-44 -319h-131z" />
    <glyph glyph-name="n" unicode="n" horiz-adv-x="593" 
d="M23 0l76 544h123l-14 -107l-8 22q26 50 71 73.5t100 23.5q62 0 105.5 -29t64 -78.5t11.5 -111.5l-47 -337h-131l45 322q7 52 -19 83t-74 31q-32 0 -59.5 -14.5t-45 -40.5t-23.5 -62l-44 -319h-131z" />
    <glyph glyph-name="o" unicode="o" horiz-adv-x="656" 
d="M313 -12q-77 0 -139 34.5t-98 95t-36 138.5q0 63 23.5 117.5t65.5 95.5t97 64t118 23q77 0 139 -34.5t98 -94.5t36 -139q0 -62 -24 -116.5t-66 -96t-97 -64.5t-117 -23zM314 108q48 0 85.5 24.5t59 66t21.5 91.5q0 43 -17 75.5t-48 51.5t-72 19q-48 0 -86 -24.5
t-59 -65.5t-21 -92q0 -43 17 -75.5t48 -51.5t72 -19z" />
    <glyph glyph-name="p" unicode="p" horiz-adv-x="671" 
d="M-5 -200l104 744h124l-14 -108l-28 29q32 44 81.5 67.5t109.5 23.5q76 0 134 -35.5t91.5 -95.5t33.5 -135q0 -62 -22.5 -117t-62.5 -96.5t-93 -65t-114 -23.5q-64 0 -115.5 24.5t-78.5 68.5l28 24l-41 -305h-137zM326 108q49 0 87 24.5t59.5 65.5t21.5 91q0 43 -17.5 76
t-48.5 52t-74 19q-48 0 -85.5 -24.5t-58.5 -65.5t-21 -91q0 -43 17.5 -76.5t48.5 -52t71 -18.5z" />
    <glyph glyph-name="q" unicode="q" horiz-adv-x="671" 
d="M412 -200l40 305l37 -20q-30 -48 -81.5 -72.5t-110.5 -24.5q-77 0 -135 33t-90.5 91.5t-32.5 134.5q0 69 23.5 125.5t65 97.5t96 63.5t115.5 22.5q65 0 113.5 -25.5t74.5 -69.5l-20 -25l14 108h125l-102 -744h-132zM315 108q49 0 86.5 24.5t58.5 66t21 91.5
q0 42 -17.5 75t-48 52t-71.5 19q-49 0 -87 -24.5t-59.5 -65.5t-21.5 -92q0 -43 17.5 -75.5t49 -51.5t72.5 -19z" />
    <glyph glyph-name="r" unicode="r" horiz-adv-x="374" 
d="M23 0l76 544h124l-16 -121l-9 18q28 61 71.5 85t100.5 24h32l-16 -116h-47q-56 0 -94.5 -35.5t-49.5 -105.5l-40 -293h-132z" />
    <glyph glyph-name="s" unicode="s" horiz-adv-x="512" 
d="M238 -12q-57 0 -105 19.5t-80 55t-44 82.5l101 41q18 -45 52.5 -70t80.5 -25q40 0 62.5 18t22.5 44q0 23 -17 35t-38 17l-87 25q-60 17 -92.5 55.5t-32.5 92.5q0 51 28 91t76.5 63.5t108.5 23.5q79 0 135.5 -38.5t74.5 -105.5l-103 -41q-9 36 -40.5 57t-71.5 21
q-35 0 -57.5 -16t-22.5 -42q0 -24 17 -36t40 -18l84 -26q62 -19 94.5 -56.5t32.5 -89.5q0 -50 -28 -90t-77.5 -63.5t-113.5 -23.5z" />
    <glyph glyph-name="t" unicode="t" horiz-adv-x="416" 
d="M277 -6q-94 0 -139.5 52.5t-33.5 143.5l33 237h-93l16 117h7q40 0 67 23t32 63l5 38h133l-17 -124h123l-16 -117h-124l-33 -236q-4 -28 1.5 -46t23 -27t48.5 -9q9 0 18 0.5t21 2.5l-10 -112q-14 -4 -31.5 -5t-30.5 -1z" />
    <glyph glyph-name="u" unicode="u" horiz-adv-x="594" 
d="M223 -12q-65 0 -109 29.5t-62.5 82.5t-8.5 124l45 320h132l-45 -322q-5 -34 5 -60t33 -40t55 -14q33 0 59.5 14.5t45 41t22.5 61.5l45 319h131l-76 -544h-124l14 107l9 -22q-25 -50 -70.5 -73.5t-100.5 -23.5z" />
    <glyph glyph-name="v" unicode="v" horiz-adv-x="566" 
d="M186 0l-137 544h137l96 -428h-55l216 428h150l-291 -544h-116z" />
    <glyph glyph-name="w" unicode="w" horiz-adv-x="883" 
d="M160 0l-111 544h133l79 -413l-49 1l208 412h116l86 -412l-47 -1l195 413h140l-263 -544h-117l-86 431h46l-214 -431h-116z" />
    <glyph glyph-name="x" unicode="x" horiz-adv-x="558" 
d="M-27 0l231 277l-149 267h143l119 -218l-68 1l177 217h159l-228 -272l150 -272h-141l-120 218l60 -1l-175 -217h-158z" />
    <glyph glyph-name="y" unicode="y" horiz-adv-x="586" 
d="M63 -221q-25 0 -45.5 4.5t-36.5 12.5l8 107q13 -3 30.5 -5.5t30.5 -2.5q30 0 50.5 10.5t36 29t28.5 40.5l49 80l-13 -110l-152 599h135l104 -442h-52l229 442h148l-322 -603q-28 -52 -62.5 -88.5t-75.5 -55t-90 -18.5z" />
    <glyph glyph-name="z" unicode="z" horiz-adv-x="482" 
d="M-23 0l13 106l356 363l26 -42h-322l17 117h438l-13 -107l-354 -363l-22 42h331l-16 -116h-454z" />
    <glyph glyph-name="braceleft" unicode="{" horiz-adv-x="399" 
d="M240 -170q-84 0 -125 42.5t-30 118.5l25 175q4 28 -7.5 43.5t-36.5 15.5h-31l16 115h31q25 0 41 16t20 43l26 186q10 75 63 117.5t136 42.5h46l-16 -115h-46q-21 0 -34.5 -12.5t-16.5 -35.5l-24 -172q-5 -40 -25.5 -73t-52.5 -53q27 -18 38 -49.5t5 -70.5l-24 -170
q-3 -22 7 -35.5t31 -13.5h46l-16 -115h-46z" />
    <glyph glyph-name="bar" unicode="|" horiz-adv-x="396" 
d="M66 -190l146 1035h133l-146 -1035h-133z" />
    <glyph glyph-name="braceright" unicode="}" horiz-adv-x="399" 
d="M-10 -170l16 115h46q21 0 34.5 13t16.5 36l24 170q5 39 25 70.5t51 49.5q-25 20 -36 52.5t-5 73.5l24 172q3 23 -7.5 35.5t-30.5 12.5h-46l16 115h46q84 0 125 -42.5t30 -117.5l-26 -186q-4 -27 7 -43t36 -16h31l-16 -115h-31q-24 0 -40 -15.5t-20 -43.5l-25 -175
q-11 -76 -63 -118.5t-136 -42.5h-46z" />
    <glyph glyph-name="asciitilde" unicode="~" horiz-adv-x="660" 
d="M422 190q-36 0 -58.5 10t-39.5 23t-32 23t-36 10q-25 0 -44 -17t-28 -48h-107q11 87 56.5 130.5t110.5 43.5q35 0 58 -9.5t39.5 -23t32 -23t35.5 -9.5q24 0 42 16t28 48h106q-10 -87 -54.5 -130.5t-108.5 -43.5z" />
    <glyph glyph-name="uni00A0" unicode="&#xa0;" horiz-adv-x="178" 
 />
    <glyph glyph-name="exclamdown" unicode="&#xa1;" horiz-adv-x="371" 
d="M53 -201l81 519h115l-63 -519h-133zM138 404l19 140h133l-20 -140h-132z" />
    <glyph glyph-name="cent" unicode="&#xa2;" horiz-adv-x="619" 
d="M321 89q-77 0 -138 35t-95 95.5t-34 136.5q0 63 23 118t64.5 96t96 64t116.5 23q60 0 109 -20.5t83.5 -57t47.5 -84.5l-117 -47q-12 41 -45 65t-79 24q-48 0 -85 -25t-57 -66.5t-20 -89.5q0 -43 16.5 -76t47 -52t69.5 -19q49 0 86 26t56 68l111 -56q-19 -46 -57 -81.5
t-89 -56t-110 -20.5zM242 0l103 745h86l-103 -745h-86z" />
    <glyph glyph-name="sterling" unicode="&#xa3;" horiz-adv-x="666" 
d="M-1 0l16 115h100l56 402q11 74 47.5 127.5t96 83t135.5 29.5q62 0 112 -24.5t79.5 -69t28.5 -103.5l-123 -22q0 49 -28.5 73t-72.5 24q-57 0 -93.5 -33.5t-44.5 -91.5l-56 -395h322l-15 -115h-560zM45 337l12 84h420l-11 -84h-421z" />
    <glyph glyph-name="currency" unicode="&#xa4;" horiz-adv-x="607" 
d="M94 11l-68 76l87 78q-9 18 -14 38.5t-5 43.5q0 34 11 66.5t29 59.5l-70 79l84 76l70 -79q25 14 52.5 21t54.5 7q28 0 54 -7t47 -21l87 79l68 -76l-87 -79q10 -21 14.5 -42t4.5 -40q0 -34 -11 -66.5t-30 -59.5l71 -78l-84 -76l-71 78q-23 -13 -50.5 -20.5t-55.5 -7.5
t-53.5 7t-47.5 21zM293 177q28 0 51 14.5t37 37.5t14 50q0 24 -10.5 42t-29.5 29t-42 11q-28 0 -51 -14t-37.5 -37.5t-14.5 -50.5q0 -23 11 -41.5t30 -29.5t42 -11z" />
    <glyph glyph-name="yen" unicode="&#xa5;" horiz-adv-x="660" 
d="M224 0l46 330l-193 415h147l147 -324l-56 1l235 323h165l-307 -414l-46 -331h-138zM121 289l12 83h420l-12 -83h-420zM101 145l12 84h420l-11 -84h-421z" />
    <glyph glyph-name="brokenbar" unicode="&#xa6;" horiz-adv-x="396" 
d="M153 428l59 417h133l-59 -417h-133zM66 -190l59 418h133l-59 -418h-133z" />
    <glyph glyph-name="section" unicode="&#xa7;" horiz-adv-x="531" 
d="M232 -97q-89 0 -152.5 43.5t-81.5 117.5l104 47q19 -48 56 -75.5t85 -27.5q28 0 49 9t33 24.5t12 36.5q0 14 -8.5 25.5t-22.5 19t-32 12.5l-91 27q-65 18 -98 57t-33 90q0 55 30.5 98.5t82 68.5t116.5 25l-9 -73q-25 0 -45 -11t-31 -30.5t-11 -45.5q0 -20 9.5 -34.5
t26.5 -24t38 -16.5l77 -23q64 -19 97 -57.5t33 -90.5q0 -56 -30.5 -99t-83 -68t-120.5 -25zM259 159l7 70q28 0 49.5 11.5t34 32t12.5 47.5q0 18 -8.5 32.5t-25 25.5t-40.5 17l-78 23q-65 18 -97.5 57t-32.5 90q0 55 29.5 98.5t81.5 68.5t117 25q77 0 136 -38t78 -109
l-105 -47q-12 39 -45 62.5t-77 23.5q-24 0 -43.5 -8.5t-30.5 -23t-11 -34.5q0 -16 9.5 -27.5t24 -18t29.5 -11.5l90 -27q64 -19 97 -57.5t33 -90.5q0 -56 -30 -99t-83 -68t-121 -25z" />
    <glyph glyph-name="dieresis" unicode="&#xa8;" horiz-adv-x="534" 
d="M175 640l19 138h137l-19 -138h-137zM392 640l19 138h138l-19 -138h-138z" />
    <glyph glyph-name="copyright" unicode="&#xa9;" horiz-adv-x="941" 
d="M462 -12q-77 0 -143 27.5t-115.5 77t-77 115t-27.5 141.5q0 84 32.5 158t89.5 130t131 88t157 32q77 0 142.5 -27.5t115 -76.5t77 -114.5t27.5 -141.5q0 -84 -32.5 -158t-89.5 -130.5t-130.5 -88.5t-156.5 -32zM462 81q64 0 121 24.5t101 68.5t69 101t25 123
q0 57 -20.5 105.5t-56.5 85t-85 56.5t-106 20q-65 0 -122.5 -24.5t-101.5 -68.5t-69 -101t-25 -122q0 -76 35 -137t96.5 -96t138.5 -35zM479 163q-58 0 -102.5 26t-70 70.5t-25.5 100.5q0 65 30 115t80 78.5t111 28.5q45 0 81 -15t59.5 -40.5t31.5 -57.5l-91 -31
q-7 23 -28 39t-53 16q-35 0 -62 -17.5t-42.5 -48t-15.5 -70.5q0 -47 26 -75.5t70 -28.5q33 0 58.5 17t36.5 41l89 -39q-13 -31 -39.5 -56t-63.5 -39t-80 -14z" />
    <glyph glyph-name="ordfeminine" unicode="&#xaa;" horiz-adv-x="445" 
d="M194 355q-57 0 -92.5 27t-35.5 78q0 39 19.5 65t53 42t74.5 22l120 19l-7 -78l-99 -19q-20 -3 -36 -14t-16 -30q0 -17 13 -25.5t32 -8.5q25 0 45 11.5t32.5 31t16.5 42.5l13 99q4 23 -15 36.5t-43 13.5q-28 0 -52 -15.5t-36 -43.5l-82 46q22 47 69.5 74t108.5 27
q47 0 84.5 -18t57 -50.5t13.5 -75.5l-34 -247h-99l8 62l28 1q-28 -37 -62.5 -54.5t-78.5 -17.5z" />
    <glyph glyph-name="guillemotleft" unicode="&#xab;" horiz-adv-x="683" 
d="M170 72l-126 197l182 198h154l-191 -211l116 -184h-135zM455 72l-126 197l182 198h154l-191 -211l116 -184h-135z" />
    <glyph glyph-name="logicalnot" unicode="&#xac;" horiz-adv-x="660" 
d="M436 40l22 154h-388l15 113h500l-37 -267h-112z" />
    <glyph glyph-name="registered" unicode="&#xae;" horiz-adv-x="682" 
d="M363 271q-69 0 -124 32.5t-87 87.5t-32 123q0 55 21.5 104t59.5 86t87.5 58.5t104.5 21.5q68 0 122.5 -32t86.5 -86t32 -122q0 -56 -22 -105.5t-59.5 -87t-86.5 -59t-103 -21.5zM362 342q54 0 100 27.5t74 73.5t28 101q0 49 -22.5 87.5t-61 61t-86.5 22.5
q-59 0 -105 -27.5t-72.5 -74t-26.5 -101.5q0 -48 22.5 -86.5t61.5 -61t88 -22.5zM250 393l37 271h109q43 0 70 -21t27 -64q0 -27 -12 -47.5t-33 -32.5l52 -106h-78l-44 92h-42l-12 -92h-74zM345 547h44q12 0 21.5 8.5t9.5 22.5q0 10 -6.5 16.5t-18.5 6.5h-42z" />
    <glyph glyph-name="macron" unicode="&#xaf;" horiz-adv-x="455" 
d="M177 660l15 108h323l-16 -108h-322z" />
    <glyph glyph-name="degree" unicode="&#xb0;" horiz-adv-x="536" 
d="M301 423q-45 0 -80 20.5t-56 55.5t-21 79q0 49 24.5 89.5t65.5 65t90 24.5q44 0 79.5 -20.5t56 -56t20.5 -78.5q0 -49 -24.5 -89.5t-65 -65t-89.5 -24.5zM307 513q23 0 41.5 11t30 30t11.5 42q0 31 -21 51t-52 20q-33 0 -57.5 -24.5t-24.5 -58.5q0 -30 21 -50.5t51 -20.5
z" />
    <glyph glyph-name="plusminus" unicode="&#xb1;" horiz-adv-x="660" 
d="M263 183l20 146h-194l16 113h194l21 146h113l-20 -146h192l-16 -113h-192l-21 -146h-113zM42 0l17 113h500l-17 -113h-500z" />
    <glyph glyph-name="uni00B2" unicode="&#xb2;" horiz-adv-x="423" 
d="M31 224l8 84l152 142q48 46 74 72.5t36 44.5t10 37q0 25 -17 38.5t-42 13.5q-31 0 -54.5 -18t-36.5 -50l-92 34q19 61 72 96.5t118 35.5q46 0 82 -17t57.5 -48.5t21.5 -74.5q0 -38 -16.5 -70t-41.5 -58.5t-51 -50.5l-131 -119h217l-13 -92h-353z" />
    <glyph glyph-name="uni00B3" unicode="&#xb3;" horiz-adv-x="425" 
d="M205 215q-45 0 -83.5 16.5t-64 46.5t-31.5 69l99 33q9 -33 31.5 -49.5t52.5 -16.5q41 0 66 24.5t25 62.5q0 32 -20 50.5t-56 18.5q-13 0 -30 -3.5t-30 -10.5l-20 53l149 146h-204l12 90h332l-12 -84l-151 -154v42q44 0 75.5 -18.5t48 -51.5t16.5 -75q0 -56 -29 -98.5
t-75.5 -66.5t-100.5 -24z" />
    <glyph glyph-name="acute" unicode="&#xb4;" horiz-adv-x="381" 
d="M175 640l90 173h170l-131 -173h-129z" />
    <glyph glyph-name="uni00B5" unicode="&#xb5;" horiz-adv-x="593" 
d="M-8 -140l96 684h132l-46 -325q-4 -34 5 -59t30.5 -38.5t51.5 -13.5q34 0 62.5 15.5t47 42.5t23.5 62l44 316h132l-76 -544h-123l16 125l12 -23q-22 -59 -69 -86.5t-108 -27.5q-33 0 -60 8.5t-49 22.5l39 44l-27 -203h-133z" />
    <glyph glyph-name="paragraph" unicode="&#xb6;" horiz-adv-x="564" 
d="M245 -100l57 410q-67 0 -113.5 27.5t-67.5 76.5t-12 113q9 65 44 114t89 76.5t121 27.5h136l-118 -845h-136z" />
    <glyph glyph-name="periodcentered" unicode="&#xb7;" horiz-adv-x="378" 
d="M112 202l21 140h132l-20 -140h-133z" />
    <glyph glyph-name="cedilla" unicode="&#xb8;" horiz-adv-x="381" 
d="M165 -237q-27 0 -58 8.5t-52 24.5l40 75q14 -10 30.5 -15.5t33.5 -5.5q23 0 37 10.5t14 27.5t-21.5 27.5t-65.5 15.5l32 79h77l-15 -40q45 -6 72.5 -27.5t27.5 -56.5q0 -36 -20 -63.5t-54.5 -43.5t-77.5 -16z" />
    <glyph glyph-name="uni00B9" unicode="&#xb9;" horiz-adv-x="316" 
d="M110 224l60 430h-100l12 91h211l-73 -521h-110z" />
    <glyph glyph-name="ordmasculine" unicode="&#xba;" horiz-adv-x="489" 
d="M274 355q-55 0 -99.5 24.5t-70 67t-25.5 97.5q0 60 29.5 107.5t79 75.5t108.5 28q54 0 98 -24t70 -67t26 -98q0 -58 -29.5 -106t-79 -76.5t-107.5 -28.5zM275 450q31 0 54.5 16t37 42.5t13.5 58.5q0 41 -23.5 67t-62.5 26q-31 0 -54.5 -15.5t-37.5 -42t-14 -59.5
q0 -27 11 -48t30.5 -33t45.5 -12z" />
    <glyph glyph-name="guillemotright" unicode="&#xbb;" horiz-adv-x="683" 
d="M302 72l191 210l-116 185h135l126 -198l-182 -197h-154zM17 72l191 210l-116 185h135l126 -198l-182 -197h-154z" />
    <glyph glyph-name="onequarter" unicode="&#xbc;" horiz-adv-x="874" 
d="M106 328l46 339h-80l11 78h175l-58 -417h-94zM74 0l550 745h99l-550 -745h-99zM652 0l13 89h-181l9 78l210 250h102l-35 -250h65l-11 -78h-65l-12 -89h-95zM555 134l-10 33h130l25 179l24 -8z" />
    <glyph glyph-name="onehalf" unicode="&#xbd;" horiz-adv-x="828" 
d="M106 328l46 339h-80l11 78h175l-58 -417h-94zM74 0l550 745h99l-550 -745h-99zM474 0l6 72l121 112q35 33 55 53.5t29 35t9 29.5q0 18 -12.5 28t-30.5 10q-23 0 -40.5 -14t-27.5 -36l-79 29q15 48 58.5 76.5t95.5 28.5q54 0 92 -30.5t38 -82.5q0 -31 -14 -57t-33.5 -47
t-37.5 -37l-102 -91h168l-10 -79h-285z" />
    <glyph glyph-name="threequarters" unicode="&#xbe;" horiz-adv-x="947" 
d="M183 321q-35 0 -67 13t-52.5 37.5t-25.5 56.5l86 28q6 -25 22.5 -37.5t39.5 -12.5q31 0 49.5 18.5t18.5 46.5q0 23 -14.5 36.5t-41.5 13.5q-12 0 -26 -3t-25 -8l-17 44l118 114h-160l11 77h268l-10 -73l-120 -121l1 39q52 0 81.5 -33.5t29.5 -83.5q0 -45 -23.5 -79.5
t-61.5 -53.5t-81 -19zM146 0l550 745h99l-550 -745h-99zM724 0l13 89h-181l9 78l210 250h102l-35 -250h65l-11 -78h-65l-12 -89h-95zM627 134l-10 33h130l25 179l24 -8z" />
    <glyph glyph-name="questiondown" unicode="&#xbf;" horiz-adv-x="585" 
d="M240 -213q-70 0 -118.5 26.5t-73 69.5t-24.5 92q0 42 16.5 75t43.5 61t56 55q35 32 57.5 64.5t32.5 74.5l3 13h125l-4 -20q-11 -65 -39 -109t-65 -79q-24 -22 -44 -41t-32.5 -38.5t-12.5 -45.5q0 -32 23.5 -54t67.5 -22q42 0 74 25.5t42 68.5l120 -30q-12 -55 -47.5 -97
t-86.5 -65.5t-114 -23.5zM237 404l21 140h132l-20 -140h-133z" />
    <glyph glyph-name="Agrave" unicode="&#xc0;" horiz-adv-x="712" 
d="M-27 0l361 745h176l153 -745h-142l-31 160h-287l-76 -160h-154zM259 280h208l-71 369l37 -4zM371 842l-81 173h170l40 -173h-129z" />
    <glyph glyph-name="Aacute" unicode="&#xc1;" horiz-adv-x="712" 
d="M-27 0l361 745h176l153 -745h-142l-31 160h-287l-76 -160h-154zM259 280h208l-71 369l37 -4zM371 842l90 173h170l-131 -173h-129z" />
    <glyph glyph-name="Acircumflex" unicode="&#xc2;" horiz-adv-x="712" 
d="M-27 0l361 745h176l153 -745h-142l-31 160h-287l-76 -160h-154zM259 280h208l-71 369l37 -4zM216 842l140 165h155l95 -165h-123l-52 90l-77 -90h-138z" />
    <glyph glyph-name="Atilde" unicode="&#xc3;" horiz-adv-x="712" 
d="M-27 0l361 745h176l153 -745h-142l-31 160h-287l-76 -160h-154zM259 280h208l-71 369l37 -4zM509 842q-28 0 -45 8.5t-29 19t-23.5 19t-28.5 8.5q-18 0 -28 -13.5t-13 -37.5h-102q7 54 29 88t52 50.5t64 16.5q28 0 45.5 -8t30 -19t24 -19t27.5 -8q20 0 29.5 14t12.5 36
h102q-12 -77 -54 -116t-93 -39z" />
    <glyph glyph-name="Adieresis" unicode="&#xc4;" horiz-adv-x="712" 
d="M-27 0l361 745h176l153 -745h-142l-31 160h-287l-76 -160h-154zM259 280h208l-71 369l37 -4zM259 842l19 138h137l-19 -138h-137zM476 842l19 138h138l-19 -138h-138z" />
    <glyph glyph-name="Aring" unicode="&#xc5;" horiz-adv-x="712" 
d="M-27 0l361 745h176l153 -745h-142l-31 160h-287l-76 -160h-154zM259 280h208l-71 369l37 -4zM431 800q-49 0 -79.5 28t-30.5 74q0 39 19.5 70t51.5 50t72 19q49 0 79 -28t30 -74q0 -38 -19 -70t-51.5 -50.5t-71.5 -18.5zM442 878q20 0 34 15t14 35q0 16 -10.5 25.5
t-26.5 9.5q-20 0 -34 -14t-14 -36q0 -15 10 -25t27 -10z" />
    <glyph glyph-name="AE" unicode="&#xc6;" horiz-adv-x="991" 
d="M-27 0l361 745h696l-17 -120h-360l-26 -191h339l-16 -120h-340l-27 -194h359l-17 -120h-495l22 160h-248l-76 -160h-155zM259 280h210l48 345h-93z" />
    <glyph glyph-name="Ccedilla" unicode="&#xc7;" horiz-adv-x="790" 
d="M414 -12q-75 0 -139 26t-111 74t-73 113.5t-26 145.5q0 85 29 159.5t82.5 130.5t126 88t158.5 32q81 0 143.5 -27.5t103.5 -72.5t57 -97l-125 -55q-18 57 -64.5 92.5t-118.5 35.5q-56 0 -102.5 -21t-81 -60t-53.5 -91.5t-19 -113.5q0 -72 26.5 -124.5t74.5 -81.5t112 -29
q74 0 127.5 37t79.5 94l118 -61q-22 -53 -69 -97t-112 -70.5t-144 -26.5zM393 -237q-27 0 -58 8.5t-52 24.5l40 75q14 -10 30.5 -15.5t33.5 -5.5q23 0 37 10.5t14 27.5t-21.5 27.5t-65.5 15.5l32 79h77l-15 -40q45 -6 72.5 -27.5t27.5 -56.5q0 -36 -20 -63.5t-54.5 -43.5
t-77.5 -16z" />
    <glyph glyph-name="Egrave" unicode="&#xc8;" horiz-adv-x="595" 
d="M34 0l104 745h496l-17 -120h-360l-26 -191h339l-16 -120h-340l-27 -194h359l-16 -120h-496zM335 842l-81 173h170l40 -173h-129z" />
    <glyph glyph-name="Eacute" unicode="&#xc9;" horiz-adv-x="595" 
d="M34 0l104 745h496l-17 -120h-360l-26 -191h339l-16 -120h-340l-27 -194h359l-16 -120h-496zM335 842l90 173h170l-131 -173h-129z" />
    <glyph glyph-name="Ecircumflex" unicode="&#xca;" horiz-adv-x="595" 
d="M34 0l104 745h496l-17 -120h-360l-26 -191h339l-16 -120h-340l-27 -194h359l-16 -120h-496zM180 842l140 165h155l95 -165h-123l-52 90l-77 -90h-138z" />
    <glyph glyph-name="Edieresis" unicode="&#xcb;" horiz-adv-x="595" 
d="M34 0l104 745h496l-17 -120h-360l-26 -191h339l-16 -120h-340l-27 -194h359l-16 -120h-496zM223 842l19 138h137l-19 -138h-137zM440 842l19 138h138l-19 -138h-138z" />
    <glyph glyph-name="Igrave" unicode="&#xcc;" horiz-adv-x="280" 
d="M34 0l104 745h136l-104 -745h-136zM156 842l-81 173h170l40 -173h-129z" />
    <glyph glyph-name="Iacute" unicode="&#xcd;" horiz-adv-x="280" 
d="M34 0l104 745h136l-104 -745h-136zM155 842l90 173h170l-131 -173h-129z" />
    <glyph glyph-name="Icircumflex" unicode="&#xce;" horiz-adv-x="280" 
d="M34 0l104 745h136l-104 -745h-136zM0 842l140 165h155l95 -165h-123l-52 90l-77 -90h-138z" />
    <glyph glyph-name="Idieresis" unicode="&#xcf;" horiz-adv-x="280" 
d="M34 0l104 745h136l-104 -745h-136zM43 842l19 138h137l-19 -138h-137zM260 842l19 138h138l-19 -138h-138z" />
    <glyph glyph-name="Eth" unicode="&#xd0;" horiz-adv-x="743" 
d="M22 316l16 115h348l-16 -115h-348zM34 0l104 745h230q107 0 186 -43t123 -118.5t44 -173.5q0 -89 -29 -164t-84.5 -130t-131.5 -85.5t-171 -30.5h-271zM187 120h119q62 0 112.5 20.5t87.5 59t57 91t20 115.5q0 68 -27 117t-77 75.5t-120 26.5h-102z" />
    <glyph glyph-name="Ntilde" unicode="&#xd1;" horiz-adv-x="741" 
d="M34 0l104 745h107l323 -552l-48 -11l79 563h136l-104 -745h-107l-319 556l44 11l-79 -567h-136zM523 842q-28 0 -45 8.5t-29 19t-23.5 19t-28.5 8.5q-18 0 -28 -13.5t-13 -37.5h-102q7 54 29 88t52 50.5t64 16.5q28 0 45.5 -8t30 -19t24 -19t27.5 -8q20 0 29.5 14
t12.5 36h102q-12 -77 -54 -116t-93 -39z" />
    <glyph glyph-name="Ograve" unicode="&#xd2;" horiz-adv-x="882" 
d="M433 -12q-79 0 -146.5 27t-117 75.5t-77 114t-27.5 143.5q0 87 31.5 161t87.5 130t131 87t162 31q80 0 147.5 -26.5t117 -75t77 -114t27.5 -142.5q0 -87 -32 -161.5t-88.5 -130.5t-131.5 -87.5t-161 -31.5zM433 112q58 0 108 21.5t88 60.5t59 91t21 112q0 70 -29.5 123
t-82 83t-120.5 30q-58 0 -108 -21.5t-88 -60t-59 -90t-21 -112.5q0 -69 30 -122.5t82 -84t120 -30.5zM456 842l-81 173h170l40 -173h-129z" />
    <glyph glyph-name="Oacute" unicode="&#xd3;" horiz-adv-x="882" 
d="M433 -12q-79 0 -146.5 27t-117 75.5t-77 114t-27.5 143.5q0 87 31.5 161t87.5 130t131 87t162 31q80 0 147.5 -26.5t117 -75t77 -114t27.5 -142.5q0 -87 -32 -161.5t-88.5 -130.5t-131.5 -87.5t-161 -31.5zM433 112q58 0 108 21.5t88 60.5t59 91t21 112q0 70 -29.5 123
t-82 83t-120.5 30q-58 0 -108 -21.5t-88 -60t-59 -90t-21 -112.5q0 -69 30 -122.5t82 -84t120 -30.5zM456 842l90 173h170l-131 -173h-129z" />
    <glyph glyph-name="Ocircumflex" unicode="&#xd4;" horiz-adv-x="882" 
d="M433 -12q-79 0 -146.5 27t-117 75.5t-77 114t-27.5 143.5q0 87 31.5 161t87.5 130t131 87t162 31q80 0 147.5 -26.5t117 -75t77 -114t27.5 -142.5q0 -87 -32 -161.5t-88.5 -130.5t-131.5 -87.5t-161 -31.5zM433 112q58 0 108 21.5t88 60.5t59 91t21 112q0 70 -29.5 123
t-82 83t-120.5 30q-58 0 -108 -21.5t-88 -60t-59 -90t-21 -112.5q0 -69 30 -122.5t82 -84t120 -30.5zM301 842l140 165h155l95 -165h-123l-52 90l-77 -90h-138z" />
    <glyph glyph-name="Otilde" unicode="&#xd5;" horiz-adv-x="882" 
d="M433 -12q-79 0 -146.5 27t-117 75.5t-77 114t-27.5 143.5q0 87 31.5 161t87.5 130t131 87t162 31q80 0 147.5 -26.5t117 -75t77 -114t27.5 -142.5q0 -87 -32 -161.5t-88.5 -130.5t-131.5 -87.5t-161 -31.5zM433 112q58 0 108 21.5t88 60.5t59 91t21 112q0 70 -29.5 123
t-82 83t-120.5 30q-58 0 -108 -21.5t-88 -60t-59 -90t-21 -112.5q0 -69 30 -122.5t82 -84t120 -30.5zM594 842q-28 0 -45 8.5t-29 19t-23.5 19t-28.5 8.5q-18 0 -28 -13.5t-13 -37.5h-102q7 54 29 88t52 50.5t64 16.5q28 0 45.5 -8t30 -19t24 -19t27.5 -8q20 0 29.5 14
t12.5 36h102q-12 -77 -54 -116t-93 -39z" />
    <glyph glyph-name="Odieresis" unicode="&#xd6;" horiz-adv-x="882" 
d="M433 -12q-79 0 -146.5 27t-117 75.5t-77 114t-27.5 143.5q0 87 31.5 161t87.5 130t131 87t162 31q80 0 147.5 -26.5t117 -75t77 -114t27.5 -142.5q0 -87 -32 -161.5t-88.5 -130.5t-131.5 -87.5t-161 -31.5zM433 112q58 0 108 21.5t88 60.5t59 91t21 112q0 70 -29.5 123
t-82 83t-120.5 30q-58 0 -108 -21.5t-88 -60t-59 -90t-21 -112.5q0 -69 30 -122.5t82 -84t120 -30.5zM344 842l19 138h137l-19 -138h-137zM561 842l19 138h138l-19 -138h-138z" />
    <glyph glyph-name="multiply" unicode="&#xd7;" horiz-adv-x="660" 
d="M144 0l-72 81l173 152l-129 149l89 79l128 -149l171 151l73 -81l-172 -150l130 -152l-88 -80l-130 152z" />
    <glyph glyph-name="Oslash" unicode="&#xd8;" horiz-adv-x="882" 
d="M22 0l714 745h152l-714 -745h-152zM433 -12q-79 0 -146.5 27t-117 75.5t-77 114t-27.5 143.5q0 87 31.5 161t87.5 130t131 87t162 31q80 0 147.5 -26.5t117 -75t77 -114t27.5 -142.5q0 -87 -32 -161.5t-88.5 -130.5t-131.5 -87.5t-161 -31.5zM433 112q58 0 108 21.5
t88 60.5t59 91t21 112q0 70 -29.5 123t-82 83t-120.5 30q-58 0 -108 -21.5t-88 -60t-59 -90t-21 -112.5q0 -69 30 -122.5t82 -84t120 -30.5z" />
    <glyph glyph-name="Ugrave" unicode="&#xd9;" horiz-adv-x="718" 
d="M332 -12q-88 0 -152 37t-95.5 100.5t-20.5 143.5l66 476h137l-66 -475q-7 -46 8.5 -82t49 -56t80.5 -20q46 0 84 20t63.5 57t32.5 87l65 469h136l-68 -483q-10 -80 -54.5 -142t-113 -97t-152.5 -35zM374 842l-81 173h170l40 -173h-129z" />
    <glyph glyph-name="Uacute" unicode="&#xda;" horiz-adv-x="718" 
d="M332 -12q-88 0 -152 37t-95.5 100.5t-20.5 143.5l66 476h137l-66 -475q-7 -46 8.5 -82t49 -56t80.5 -20q46 0 84 20t63.5 57t32.5 87l65 469h136l-68 -483q-10 -80 -54.5 -142t-113 -97t-152.5 -35zM374 842l90 173h170l-131 -173h-129z" />
    <glyph glyph-name="Ucircumflex" unicode="&#xdb;" horiz-adv-x="718" 
d="M332 -12q-88 0 -152 37t-95.5 100.5t-20.5 143.5l66 476h137l-66 -475q-7 -46 8.5 -82t49 -56t80.5 -20q46 0 84 20t63.5 57t32.5 87l65 469h136l-68 -483q-10 -80 -54.5 -142t-113 -97t-152.5 -35zM219 842l140 165h155l95 -165h-123l-52 90l-77 -90h-138z" />
    <glyph glyph-name="Udieresis" unicode="&#xdc;" horiz-adv-x="718" 
d="M332 -12q-88 0 -152 37t-95.5 100.5t-20.5 143.5l66 476h137l-66 -475q-7 -46 8.5 -82t49 -56t80.5 -20q46 0 84 20t63.5 57t32.5 87l65 469h136l-68 -483q-10 -80 -54.5 -142t-113 -97t-152.5 -35zM262 842l19 138h137l-19 -138h-137zM479 842l19 138h138l-19 -138h-138
z" />
    <glyph glyph-name="Yacute" unicode="&#xdd;" horiz-adv-x="660" 
d="M224 0l46 330l-193 415h147l147 -324l-56 1l235 323h165l-307 -414l-46 -331h-138zM345 842l90 173h170l-131 -173h-129z" />
    <glyph glyph-name="Thorn" unicode="&#xde;" horiz-adv-x="669" 
d="M27 0l104 745h137l-20 -137h151q71 0 124 -26t82.5 -75.5t29.5 -121.5q0 -73 -34.5 -129t-97 -87t-147.5 -31h-173l-19 -138h-137zM200 258h164q40 0 69.5 16.5t47 45t17.5 65.5q0 47 -30 75t-80 28h-157z" />
    <glyph glyph-name="germandbls" unicode="&#xdf;" horiz-adv-x="642" 
d="M11 -157l94 663q11 79 51 135.5t101.5 86t134.5 29.5q64 0 113.5 -22t78 -63.5t28.5 -100.5q0 -35 -13.5 -73.5t-46 -70.5t-89.5 -51l9 38q62 -19 93.5 -59.5t31.5 -109.5q0 -46 -16 -90t-50 -79t-87.5 -55.5t-128.5 -20.5h-67l15 115h54q45 0 73.5 12.5t44 32.5
t21.5 41.5t6 39.5q0 45 -27.5 71t-79.5 26h-60l16 115h38q36 0 60.5 11t39.5 28.5t21.5 37t6.5 36.5q0 35 -24 55.5t-66 20.5q-38 0 -70.5 -17.5t-53.5 -49.5t-27 -76l-92 -656h-133z" />
    <glyph glyph-name="agrave" unicode="&#xe0;" 
d="M201 -12q-52 0 -92.5 17t-63.5 50t-23 81q0 52 26 89t72 60.5t106 32.5l183 29l-10 -100l-154 -27q-37 -7 -62 -25.5t-25 -50.5q0 -28 20.5 -42t52.5 -14q40 0 72 18.5t53 49.5t25 68l19 136q4 27 -8.5 45.5t-34.5 28.5t-48 10q-45 0 -80.5 -24t-54.5 -61l-103 58
q21 43 57.5 73.5t85 48t103.5 17.5q66 0 117.5 -26t78.5 -71t18 -105l-49 -354h-125l13 93l33 -1q-25 -35 -56 -58t-67.5 -34.5t-78.5 -11.5zM278 640l-81 173h170l40 -173h-129z" />
    <glyph glyph-name="aacute" unicode="&#xe1;" 
d="M201 -12q-52 0 -92.5 17t-63.5 50t-23 81q0 52 26 89t72 60.5t106 32.5l183 29l-10 -100l-154 -27q-37 -7 -62 -25.5t-25 -50.5q0 -28 20.5 -42t52.5 -14q40 0 72 18.5t53 49.5t25 68l19 136q4 27 -8.5 45.5t-34.5 28.5t-48 10q-45 0 -80.5 -24t-54.5 -61l-103 58
q21 43 57.5 73.5t85 48t103.5 17.5q66 0 117.5 -26t78.5 -71t18 -105l-49 -354h-125l13 93l33 -1q-25 -35 -56 -58t-67.5 -34.5t-78.5 -11.5zM278 640l90 173h170l-131 -173h-129z" />
    <glyph glyph-name="acircumflex" unicode="&#xe2;" 
d="M201 -12q-52 0 -92.5 17t-63.5 50t-23 81q0 52 26 89t72 60.5t106 32.5l183 29l-10 -100l-154 -27q-37 -7 -62 -25.5t-25 -50.5q0 -28 20.5 -42t52.5 -14q40 0 72 18.5t53 49.5t25 68l19 136q4 27 -8.5 45.5t-34.5 28.5t-48 10q-45 0 -80.5 -24t-54.5 -61l-103 58
q21 43 57.5 73.5t85 48t103.5 17.5q66 0 117.5 -26t78.5 -71t18 -105l-49 -354h-125l13 93l33 -1q-25 -35 -56 -58t-67.5 -34.5t-78.5 -11.5zM123 640l140 165h155l95 -165h-123l-52 90l-77 -90h-138z" />
    <glyph glyph-name="atilde" unicode="&#xe3;" 
d="M201 -12q-52 0 -92.5 17t-63.5 50t-23 81q0 52 26 89t72 60.5t106 32.5l183 29l-10 -100l-154 -27q-37 -7 -62 -25.5t-25 -50.5q0 -28 20.5 -42t52.5 -14q40 0 72 18.5t53 49.5t25 68l19 136q4 27 -8.5 45.5t-34.5 28.5t-48 10q-45 0 -80.5 -24t-54.5 -61l-103 58
q21 43 57.5 73.5t85 48t103.5 17.5q66 0 117.5 -26t78.5 -71t18 -105l-49 -354h-125l13 93l33 -1q-25 -35 -56 -58t-67.5 -34.5t-78.5 -11.5zM415 640q-28 0 -45 8.5t-29 19t-23.5 19t-28.5 8.5q-18 0 -28 -13.5t-13 -37.5h-102q7 54 29 88t52 50.5t64 16.5q28 0 45.5 -8
t30 -19t24 -19t27.5 -8q20 0 29.5 14t12.5 36h102q-12 -77 -54 -116t-93 -39z" />
    <glyph glyph-name="adieresis" unicode="&#xe4;" 
d="M201 -12q-52 0 -92.5 17t-63.5 50t-23 81q0 52 26 89t72 60.5t106 32.5l183 29l-10 -100l-154 -27q-37 -7 -62 -25.5t-25 -50.5q0 -28 20.5 -42t52.5 -14q40 0 72 18.5t53 49.5t25 68l19 136q4 27 -8.5 45.5t-34.5 28.5t-48 10q-45 0 -80.5 -24t-54.5 -61l-103 58
q21 43 57.5 73.5t85 48t103.5 17.5q66 0 117.5 -26t78.5 -71t18 -105l-49 -354h-125l13 93l33 -1q-25 -35 -56 -58t-67.5 -34.5t-78.5 -11.5zM165 640l19 138h137l-19 -138h-137zM382 640l19 138h138l-19 -138h-138z" />
    <glyph glyph-name="aring" unicode="&#xe5;" 
d="M201 -12q-52 0 -92.5 17t-63.5 50t-23 81q0 52 26 89t72 60.5t106 32.5l183 29l-10 -100l-154 -27q-37 -7 -62 -25.5t-25 -50.5q0 -28 20.5 -42t52.5 -14q40 0 72 18.5t53 49.5t25 68l19 136q4 27 -8.5 45.5t-34.5 28.5t-48 10q-45 0 -80.5 -24t-54.5 -61l-103 58
q21 43 57.5 73.5t85 48t103.5 17.5q66 0 117.5 -26t78.5 -71t18 -105l-49 -354h-125l13 93l33 -1q-25 -35 -56 -58t-67.5 -34.5t-78.5 -11.5zM338 598q-49 0 -79.5 28t-30.5 74q0 39 19.5 70t51.5 50t72 19q49 0 79 -28t30 -74q0 -38 -19 -70t-51.5 -50.5t-71.5 -18.5z
M349 676q20 0 34 15t14 35q0 16 -10.5 25.5t-26.5 9.5q-20 0 -34 -14t-14 -36q0 -15 10 -25t27 -10z" />
    <glyph glyph-name="ae" unicode="&#xe6;" horiz-adv-x="968" 
d="M201 -12q-52 0 -92.5 17t-63.5 50t-23 81q0 52 26 89t72 60.5t106 32.5l172 27l2 15q3 27 -9 45.5t-34 28.5t-48 10q-45 0 -80.5 -24t-54.5 -61l-103 58q21 43 57.5 73.5t85 48t103.5 17.5q45 0 83.5 -12.5t68 -35t44.5 -54.5l-47 2q40 46 95.5 73t120.5 27
q81 0 136.5 -33t84.5 -88.5t29 -124.5q0 -18 -3 -37t-7 -38h-393q2 -42 18.5 -71t45.5 -45t68 -16q46 0 79.5 20t53.5 51l104 -54q-19 -39 -54.5 -69t-83 -46.5t-101.5 -16.5q-63 0 -113 22.5t-83 61.5l35 35l-16 -107h-125l16 108l21 -29q-25 -30 -55 -50.5t-64 -30.5
t-74 -10zM231 88q40 0 72 18.5t53 49.5t25 68l3 21l-139 -25q-37 -7 -62 -25.5t-25 -50.5q0 -28 20.5 -42t52.5 -14zM539 335h256q1 33 -13.5 58.5t-40 40t-60.5 14.5q-38 0 -66.5 -14.5t-47 -39.5t-28.5 -59z" />
    <glyph glyph-name="ccedilla" unicode="&#xe7;" horiz-adv-x="620" 
d="M307 -12q-77 0 -138 35t-95 95.5t-34 136.5q0 63 23 118t64.5 96t96 64t116.5 23q60 0 109 -20.5t83.5 -57t47.5 -84.5l-117 -48q-12 42 -45 66t-79 24q-48 0 -85 -25.5t-57 -66.5t-20 -89q0 -43 16.5 -76t47 -52t69.5 -19q49 0 86 25.5t56 67.5l111 -55q-19 -46 -57 -82
t-89 -56t-110 -20zM287 -237q-27 0 -58 8.5t-52 24.5l40 75q14 -10 30.5 -15.5t33.5 -5.5q23 0 37 10.5t14 27.5t-21.5 27.5t-65.5 15.5l32 79h77l-15 -40q45 -6 72.5 -27.5t27.5 -56.5q0 -36 -20 -63.5t-54.5 -43.5t-77.5 -16z" />
    <glyph glyph-name="egrave" unicode="&#xe8;" horiz-adv-x="613" 
d="M304 -12q-80 0 -139.5 35t-92 95.5t-32.5 135.5q0 62 21.5 116.5t61 96.5t91.5 65.5t114 23.5q80 0 136 -33t85 -88.5t29 -124.5q0 -18 -3 -37t-8 -38h-420l7 100h345l-65 -45q13 45 2.5 80.5t-39 56.5t-70.5 21q-55 0 -88.5 -27t-49 -73.5t-15.5 -103.5q0 -44 16.5 -76
t46.5 -48.5t70 -16.5q45 0 79 20t54 51l104 -54q-19 -39 -54.5 -69t-83 -46.5t-102.5 -16.5zM294 640l-81 173h170l40 -173h-129z" />
    <glyph glyph-name="eacute" unicode="&#xe9;" horiz-adv-x="613" 
d="M304 -12q-80 0 -139.5 35t-92 95.5t-32.5 135.5q0 62 21.5 116.5t61 96.5t91.5 65.5t114 23.5q80 0 136 -33t85 -88.5t29 -124.5q0 -18 -3 -37t-8 -38h-420l7 100h345l-65 -45q13 45 2.5 80.5t-39 56.5t-70.5 21q-55 0 -88.5 -27t-49 -73.5t-15.5 -103.5q0 -44 16.5 -76
t46.5 -48.5t70 -16.5q45 0 79 20t54 51l104 -54q-19 -39 -54.5 -69t-83 -46.5t-102.5 -16.5zM294 640l90 173h170l-131 -173h-129z" />
    <glyph glyph-name="ecircumflex" unicode="&#xea;" horiz-adv-x="613" 
d="M304 -12q-80 0 -139.5 35t-92 95.5t-32.5 135.5q0 62 21.5 116.5t61 96.5t91.5 65.5t114 23.5q80 0 136 -33t85 -88.5t29 -124.5q0 -18 -3 -37t-8 -38h-420l7 100h345l-65 -45q13 45 2.5 80.5t-39 56.5t-70.5 21q-55 0 -88.5 -27t-49 -73.5t-15.5 -103.5q0 -44 16.5 -76
t46.5 -48.5t70 -16.5q45 0 79 20t54 51l104 -54q-19 -39 -54.5 -69t-83 -46.5t-102.5 -16.5zM139 640l140 165h155l95 -165h-123l-52 90l-77 -90h-138z" />
    <glyph glyph-name="edieresis" unicode="&#xeb;" horiz-adv-x="613" 
d="M304 -12q-80 0 -139.5 35t-92 95.5t-32.5 135.5q0 62 21.5 116.5t61 96.5t91.5 65.5t114 23.5q80 0 136 -33t85 -88.5t29 -124.5q0 -18 -3 -37t-8 -38h-420l7 100h345l-65 -45q13 45 2.5 80.5t-39 56.5t-70.5 21q-55 0 -88.5 -27t-49 -73.5t-15.5 -103.5q0 -44 16.5 -76
t46.5 -48.5t70 -16.5q45 0 79 20t54 51l104 -54q-19 -39 -54.5 -69t-83 -46.5t-102.5 -16.5zM181 640l19 138h137l-19 -138h-137zM398 640l19 138h138l-19 -138h-138z" />
    <glyph glyph-name="igrave" unicode="&#xec;" horiz-adv-x="230" 
d="M11 0l76 544h132l-76 -544h-132zM102 640l-81 173h170l40 -173h-129z" />
    <glyph glyph-name="iacute" unicode="&#xed;" horiz-adv-x="230" 
d="M11 0l76 544h132l-76 -544h-132zM102 640l90 173h170l-131 -173h-129z" />
    <glyph glyph-name="icircumflex" unicode="&#xee;" horiz-adv-x="230" 
d="M11 0l76 544h132l-76 -544h-132zM-53 640l140 165h155l95 -165h-123l-52 90l-77 -90h-138z" />
    <glyph glyph-name="idieresis" unicode="&#xef;" horiz-adv-x="230" 
d="M11 0l76 544h132l-76 -544h-132zM-10 640l19 138h137l-19 -138h-137zM207 640l19 138h138l-19 -138h-138z" />
    <glyph glyph-name="eth" unicode="&#xf0;" horiz-adv-x="660" 
d="M312 -12q-74 0 -134.5 33.5t-96 92.5t-35.5 136q0 62 23.5 116t64 94.5t94.5 63t116 22.5q36 0 67.5 -9t58 -28t45.5 -51l-22 -31q3 57 -16 103.5t-55 80t-84 52t-101 18.5q-26 0 -53 -4.5t-53 -12.5l-11 108q38 13 74 18.5t68 5.5q90 0 158 -34.5t114.5 -95t70 -138.5
t23.5 -165q0 -107 -35.5 -192t-106 -134t-174.5 -49zM321 108q47 0 85 24t59.5 65t21.5 89q0 40 -16.5 71.5t-47.5 50t-73 18.5q-49 0 -87 -24t-59.5 -63.5t-21.5 -86.5q0 -42 18 -74.5t49.5 -51t71.5 -18.5zM251 563l4 60l349 131l-3 -60z" />
    <glyph glyph-name="ntilde" unicode="&#xf1;" horiz-adv-x="593" 
d="M23 0l76 544h123l-14 -107l-8 22q26 50 71 73.5t100 23.5q62 0 105.5 -29t64 -78.5t11.5 -111.5l-47 -337h-131l45 322q7 52 -19 83t-74 31q-32 0 -59.5 -14.5t-45 -40.5t-23.5 -62l-44 -319h-131zM421 640q-28 0 -45 8.5t-29 19t-23.5 19t-28.5 8.5q-18 0 -28 -13.5
t-13 -37.5h-102q7 54 29 88t52 50.5t64 16.5q28 0 45.5 -8t30 -19t24 -19t27.5 -8q20 0 29.5 14t12.5 36h102q-12 -77 -54 -116t-93 -39z" />
    <glyph glyph-name="ograve" unicode="&#xf2;" horiz-adv-x="656" 
d="M313 -12q-77 0 -139 34.5t-98 95t-36 138.5q0 63 23.5 117.5t65.5 95.5t97 64t118 23q77 0 139 -34.5t98 -94.5t36 -139q0 -62 -24 -116.5t-66 -96t-97 -64.5t-117 -23zM314 108q48 0 85.5 24.5t59 66t21.5 91.5q0 43 -17 75.5t-48 51.5t-72 19q-48 0 -86 -24.5
t-59 -65.5t-21 -92q0 -43 17 -75.5t48 -51.5t72 -19zM315 640l-81 173h170l40 -173h-129z" />
    <glyph glyph-name="oacute" unicode="&#xf3;" horiz-adv-x="656" 
d="M313 -12q-77 0 -139 34.5t-98 95t-36 138.5q0 63 23.5 117.5t65.5 95.5t97 64t118 23q77 0 139 -34.5t98 -94.5t36 -139q0 -62 -24 -116.5t-66 -96t-97 -64.5t-117 -23zM314 108q48 0 85.5 24.5t59 66t21.5 91.5q0 43 -17 75.5t-48 51.5t-72 19q-48 0 -86 -24.5
t-59 -65.5t-21 -92q0 -43 17 -75.5t48 -51.5t72 -19zM315 640l90 173h170l-131 -173h-129z" />
    <glyph glyph-name="ocircumflex" unicode="&#xf4;" horiz-adv-x="656" 
d="M313 -12q-77 0 -139 34.5t-98 95t-36 138.5q0 63 23.5 117.5t65.5 95.5t97 64t118 23q77 0 139 -34.5t98 -94.5t36 -139q0 -62 -24 -116.5t-66 -96t-97 -64.5t-117 -23zM314 108q48 0 85.5 24.5t59 66t21.5 91.5q0 43 -17 75.5t-48 51.5t-72 19q-48 0 -86 -24.5
t-59 -65.5t-21 -92q0 -43 17 -75.5t48 -51.5t72 -19zM160 640l140 165h155l95 -165h-123l-52 90l-77 -90h-138z" />
    <glyph glyph-name="otilde" unicode="&#xf5;" horiz-adv-x="656" 
d="M313 -12q-77 0 -139 34.5t-98 95t-36 138.5q0 63 23.5 117.5t65.5 95.5t97 64t118 23q77 0 139 -34.5t98 -94.5t36 -139q0 -62 -24 -116.5t-66 -96t-97 -64.5t-117 -23zM314 108q48 0 85.5 24.5t59 66t21.5 91.5q0 43 -17 75.5t-48 51.5t-72 19q-48 0 -86 -24.5
t-59 -65.5t-21 -92q0 -43 17 -75.5t48 -51.5t72 -19zM453 640q-28 0 -45 8.5t-29 19t-23.5 19t-28.5 8.5q-18 0 -28 -13.5t-13 -37.5h-102q7 54 29 88t52 50.5t64 16.5q28 0 45.5 -8t30 -19t24 -19t27.5 -8q20 0 29.5 14t12.5 36h102q-12 -77 -54 -116t-93 -39z" />
    <glyph glyph-name="odieresis" unicode="&#xf6;" horiz-adv-x="656" 
d="M313 -12q-77 0 -139 34.5t-98 95t-36 138.5q0 63 23.5 117.5t65.5 95.5t97 64t118 23q77 0 139 -34.5t98 -94.5t36 -139q0 -62 -24 -116.5t-66 -96t-97 -64.5t-117 -23zM314 108q48 0 85.5 24.5t59 66t21.5 91.5q0 43 -17 75.5t-48 51.5t-72 19q-48 0 -86 -24.5
t-59 -65.5t-21 -92q0 -43 17 -75.5t48 -51.5t72 -19zM203 640l19 138h137l-19 -138h-137zM420 640l19 138h138l-19 -138h-138z" />
    <glyph glyph-name="divide" unicode="&#xf7;" horiz-adv-x="660" 
d="M69 194l16 113h500l-16 -113h-500zM226 0l16 114h132l-15 -114h-133zM281 386l15 114h133l-16 -114h-132z" />
    <glyph glyph-name="oslash" unicode="&#xf8;" horiz-adv-x="656" 
d="M-19 0l545 544h150l-545 -544h-150zM313 -12q-77 0 -139 34.5t-98 95t-36 138.5q0 63 23.5 117.5t65.5 95.5t97 64t118 23q77 0 139 -34.5t98 -94.5t36 -139q0 -62 -24 -116.5t-66 -96t-97 -64.5t-117 -23zM314 108q48 0 85.5 24.5t59 66t21.5 91.5q0 43 -17 75.5
t-48 51.5t-72 19q-48 0 -86 -24.5t-59 -65.5t-21 -92q0 -43 17 -75.5t48 -51.5t72 -19z" />
    <glyph glyph-name="ugrave" unicode="&#xf9;" horiz-adv-x="594" 
d="M223 -12q-65 0 -109 29.5t-62.5 82.5t-8.5 124l45 320h132l-45 -322q-5 -34 5 -60t33 -40t55 -14q33 0 59.5 14.5t45 41t22.5 61.5l45 319h131l-76 -544h-124l14 107l9 -22q-25 -50 -70.5 -73.5t-100.5 -23.5zM284 640l-81 173h170l40 -173h-129z" />
    <glyph glyph-name="uacute" unicode="&#xfa;" horiz-adv-x="594" 
d="M223 -12q-65 0 -109 29.5t-62.5 82.5t-8.5 124l45 320h132l-45 -322q-5 -34 5 -60t33 -40t55 -14q33 0 59.5 14.5t45 41t22.5 61.5l45 319h131l-76 -544h-124l14 107l9 -22q-25 -50 -70.5 -73.5t-100.5 -23.5zM284 640l90 173h170l-131 -173h-129z" />
    <glyph glyph-name="ucircumflex" unicode="&#xfb;" horiz-adv-x="594" 
d="M223 -12q-65 0 -109 29.5t-62.5 82.5t-8.5 124l45 320h132l-45 -322q-5 -34 5 -60t33 -40t55 -14q33 0 59.5 14.5t45 41t22.5 61.5l45 319h131l-76 -544h-124l14 107l9 -22q-25 -50 -70.5 -73.5t-100.5 -23.5zM129 640l140 165h155l95 -165h-123l-52 90l-77 -90h-138z
" />
    <glyph glyph-name="udieresis" unicode="&#xfc;" horiz-adv-x="594" 
d="M223 -12q-65 0 -109 29.5t-62.5 82.5t-8.5 124l45 320h132l-45 -322q-5 -34 5 -60t33 -40t55 -14q33 0 59.5 14.5t45 41t22.5 61.5l45 319h131l-76 -544h-124l14 107l9 -22q-25 -50 -70.5 -73.5t-100.5 -23.5zM171 640l19 138h137l-19 -138h-137zM388 640l19 138h138
l-19 -138h-138z" />
    <glyph glyph-name="yacute" unicode="&#xfd;" horiz-adv-x="586" 
d="M63 -221q-25 0 -45.5 4.5t-36.5 12.5l8 107q13 -3 30.5 -5.5t30.5 -2.5q30 0 50.5 10.5t36 29t28.5 40.5l49 80l-13 -110l-152 599h135l104 -442h-52l229 442h148l-322 -603q-28 -52 -62.5 -88.5t-75.5 -55t-90 -18.5zM280 640l90 173h170l-131 -173h-129z" />
    <glyph glyph-name="thorn" unicode="&#xfe;" horiz-adv-x="671" 
d="M-5 -200l132 945h136l-42 -309l-40 29q32 44 81.5 67.5t109.5 23.5q76 0 134 -35.5t91.5 -95.5t33.5 -135q0 -62 -22.5 -117t-62.5 -96.5t-93 -65t-114 -23.5q-64 0 -115.5 24.5t-78.5 68.5l28 24l-41 -305h-137zM326 108q49 0 87 24.5t59.5 65.5t21.5 91q0 43 -17.5 76
t-48.5 52t-74 19q-48 0 -85.5 -24.5t-58.5 -65.5t-21 -91q0 -43 17.5 -76.5t48.5 -52t71 -18.5z" />
    <glyph glyph-name="ydieresis" unicode="&#xff;" horiz-adv-x="586" 
d="M63 -221q-25 0 -45.5 4.5t-36.5 12.5l8 107q13 -3 30.5 -5.5t30.5 -2.5q30 0 50.5 10.5t36 29t28.5 40.5l49 80l-13 -110l-152 599h135l104 -442h-52l229 442h148l-322 -603q-28 -52 -62.5 -88.5t-75.5 -55t-90 -18.5zM167 640l19 138h137l-19 -138h-137zM384 640l19 138
h138l-19 -138h-138z" />
    <glyph glyph-name="Amacron" unicode="&#x100;" horiz-adv-x="712" 
d="M-27 0l361 745h176l153 -745h-142l-31 160h-287l-76 -160h-154zM259 280h208l-71 369l37 -4zM278 862l15 108h323l-16 -108h-322z" />
    <glyph glyph-name="amacron" unicode="&#x101;" 
d="M201 -12q-52 0 -92.5 17t-63.5 50t-23 81q0 52 26 89t72 60.5t106 32.5l183 29l-10 -100l-154 -27q-37 -7 -62 -25.5t-25 -50.5q0 -28 20.5 -42t52.5 -14q40 0 72 18.5t53 49.5t25 68l19 136q4 27 -8.5 45.5t-34.5 28.5t-48 10q-45 0 -80.5 -24t-54.5 -61l-103 58
q21 43 57.5 73.5t85 48t103.5 17.5q66 0 117.5 -26t78.5 -71t18 -105l-49 -354h-125l13 93l33 -1q-25 -35 -56 -58t-67.5 -34.5t-78.5 -11.5zM184 660l15 108h323l-16 -108h-322z" />
    <glyph glyph-name="Abreve" unicode="&#x102;" horiz-adv-x="712" 
d="M-27 0l361 745h176l153 -745h-142l-31 160h-287l-76 -160h-154zM259 280h208l-71 369l37 -4zM441 845q-68 0 -109.5 24t-59 61.5t-13.5 79.5h129q-2 -30 14 -47t49 -17t54 17t27 47h128q-6 -43 -32 -81t-72 -61t-115 -23z" />
    <glyph glyph-name="abreve" unicode="&#x103;" 
d="M201 -12q-52 0 -92.5 17t-63.5 50t-23 81q0 52 26 89t72 60.5t106 32.5l183 29l-10 -100l-154 -27q-37 -7 -62 -25.5t-25 -50.5q0 -28 20.5 -42t52.5 -14q40 0 72 18.5t53 49.5t25 68l19 136q4 27 -8.5 45.5t-34.5 28.5t-48 10q-45 0 -80.5 -24t-54.5 -61l-103 58
q21 43 57.5 73.5t85 48t103.5 17.5q66 0 117.5 -26t78.5 -71t18 -105l-49 -354h-125l13 93l33 -1q-25 -35 -56 -58t-67.5 -34.5t-78.5 -11.5zM348 644q-68 0 -109.5 24t-59 61.5t-13.5 79.5h129q-2 -30 14 -47t49 -17t54 17t27 47h128q-6 -43 -32 -81t-72 -61t-115 -23z" />
    <glyph glyph-name="Aogonek" unicode="&#x104;" horiz-adv-x="712" 
d="M-27 0l361 745h176l153 -745h-142l-31 160h-287l-76 -160h-154zM259 280h208l-71 369l37 -4zM532 -237q-58 0 -91 29t-33 74q0 43 22 79t61.5 60.5t91.5 33.5h29l-6 -39q-23 -4 -43 -21t-32 -39.5t-12 -46.5q0 -20 14 -31.5t32 -11.5q17 0 31.5 5t28.5 16l18 -75
q-23 -15 -50 -24t-61 -9z" />
    <glyph glyph-name="aogonek" unicode="&#x105;" 
d="M201 -12q-52 0 -92.5 17t-63.5 50t-23 81q0 52 26 89t72 60.5t106 32.5l183 29l-10 -100l-154 -27q-37 -7 -62 -25.5t-25 -50.5q0 -28 20.5 -42t52.5 -14q40 0 72 18.5t53 49.5t25 68l19 136q4 27 -8.5 45.5t-34.5 28.5t-48 10q-45 0 -80.5 -24t-54.5 -61l-103 58
q21 43 57.5 73.5t85 48t103.5 17.5q66 0 117.5 -26t78.5 -71t18 -105l-49 -354h-125l13 93l33 -1q-25 -35 -56 -58t-67.5 -34.5t-78.5 -11.5zM390 -237q-58 0 -91 29t-33 74q0 43 22 79t61.5 60.5t91.5 33.5h29l-6 -39q-23 -4 -43 -21t-32 -39.5t-12 -46.5q0 -20 14 -31.5
t32 -11.5q17 0 31.5 5t28.5 16l18 -75q-23 -15 -50 -24t-61 -9z" />
    <glyph glyph-name="Cacute" unicode="&#x106;" horiz-adv-x="790" 
d="M414 -12q-75 0 -139 26t-111 74t-73 113.5t-26 145.5q0 85 29 159.5t82.5 130.5t126 88t158.5 32q81 0 143.5 -27.5t103.5 -72.5t57 -97l-125 -55q-18 57 -64.5 92.5t-118.5 35.5q-56 0 -102.5 -21t-81 -60t-53.5 -91.5t-19 -113.5q0 -72 26.5 -124.5t74.5 -81.5t112 -29
q74 0 127.5 37t79.5 94l118 -61q-22 -53 -69 -97t-112 -70.5t-144 -26.5zM410 842l90 173h170l-131 -173h-129z" />
    <glyph glyph-name="cacute" unicode="&#x107;" horiz-adv-x="620" 
d="M307 -12q-77 0 -138 35t-95 95.5t-34 136.5q0 63 23 118t64.5 96t96 64t116.5 23q60 0 109 -20.5t83.5 -57t47.5 -84.5l-117 -48q-12 42 -45 66t-79 24q-48 0 -85 -25.5t-57 -66.5t-20 -89q0 -43 16.5 -76t47 -52t69.5 -19q49 0 86 25.5t56 67.5l111 -55q-19 -46 -57 -82
t-89 -56t-110 -20zM297 640l90 173h170l-131 -173h-129z" />
    <glyph glyph-name="Ccircumflex" unicode="&#x108;" horiz-adv-x="790" 
d="M414 -12q-75 0 -139 26t-111 74t-73 113.5t-26 145.5q0 85 29 159.5t82.5 130.5t126 88t158.5 32q81 0 143.5 -27.5t103.5 -72.5t57 -97l-125 -55q-18 57 -64.5 92.5t-118.5 35.5q-56 0 -102.5 -21t-81 -60t-53.5 -91.5t-19 -113.5q0 -72 26.5 -124.5t74.5 -81.5t112 -29
q74 0 127.5 37t79.5 94l118 -61q-22 -53 -69 -97t-112 -70.5t-144 -26.5zM255 842l140 165h155l95 -165h-123l-52 90l-77 -90h-138z" />
    <glyph glyph-name="ccircumflex" unicode="&#x109;" horiz-adv-x="620" 
d="M307 -12q-77 0 -138 35t-95 95.5t-34 136.5q0 63 23 118t64.5 96t96 64t116.5 23q60 0 109 -20.5t83.5 -57t47.5 -84.5l-117 -48q-12 42 -45 66t-79 24q-48 0 -85 -25.5t-57 -66.5t-20 -89q0 -43 16.5 -76t47 -52t69.5 -19q49 0 86 25.5t56 67.5l111 -55q-19 -46 -57 -82
t-89 -56t-110 -20zM142 640l140 165h155l95 -165h-123l-52 90l-77 -90h-138z" />
    <glyph glyph-name="Cdotaccent" unicode="&#x10a;" horiz-adv-x="790" 
d="M414 -12q-75 0 -139 26t-111 74t-73 113.5t-26 145.5q0 85 29 159.5t82.5 130.5t126 88t158.5 32q81 0 143.5 -27.5t103.5 -72.5t57 -97l-125 -55q-18 57 -64.5 92.5t-118.5 35.5q-56 0 -102.5 -21t-81 -60t-53.5 -91.5t-19 -113.5q0 -72 26.5 -124.5t74.5 -81.5t112 -29
q74 0 127.5 37t79.5 94l118 -61q-22 -53 -69 -97t-112 -70.5t-144 -26.5zM407 842l20 138h137l-20 -138h-137z" />
    <glyph glyph-name="cdotaccent" unicode="&#x10b;" horiz-adv-x="620" 
d="M307 -12q-77 0 -138 35t-95 95.5t-34 136.5q0 63 23 118t64.5 96t96 64t116.5 23q60 0 109 -20.5t83.5 -57t47.5 -84.5l-117 -48q-12 42 -45 66t-79 24q-48 0 -85 -25.5t-57 -66.5t-20 -89q0 -43 16.5 -76t47 -52t69.5 -19q49 0 86 25.5t56 67.5l111 -55q-19 -46 -57 -82
t-89 -56t-110 -20zM293 640l20 138h137l-20 -138h-137z" />
    <glyph glyph-name="Ccaron" unicode="&#x10c;" horiz-adv-x="790" 
d="M414 -12q-75 0 -139 26t-111 74t-73 113.5t-26 145.5q0 85 29 159.5t82.5 130.5t126 88t158.5 32q81 0 143.5 -27.5t103.5 -72.5t57 -97l-125 -55q-18 57 -64.5 92.5t-118.5 35.5q-56 0 -102.5 -21t-81 -60t-53.5 -91.5t-19 -113.5q0 -72 26.5 -124.5t74.5 -81.5t112 -29
q74 0 127.5 37t79.5 94l118 -61q-22 -53 -69 -97t-112 -70.5t-144 -26.5zM391 842l-94 165h122l52 -89l77 89h139l-141 -165h-155z" />
    <glyph glyph-name="ccaron" unicode="&#x10d;" horiz-adv-x="620" 
d="M307 -12q-77 0 -138 35t-95 95.5t-34 136.5q0 63 23 118t64.5 96t96 64t116.5 23q60 0 109 -20.5t83.5 -57t47.5 -84.5l-117 -48q-12 42 -45 66t-79 24q-48 0 -85 -25.5t-57 -66.5t-20 -89q0 -43 16.5 -76t47 -52t69.5 -19q49 0 86 25.5t56 67.5l111 -55q-19 -46 -57 -82
t-89 -56t-110 -20zM277 640l-94 165h122l52 -89l77 89h139l-141 -165h-155z" />
    <glyph glyph-name="Dcaron" unicode="&#x10e;" horiz-adv-x="743" 
d="M34 0l104 745h230q107 0 186 -43t123 -118.5t44 -173.5q0 -89 -29 -164t-84.5 -130t-131.5 -85.5t-171 -30.5h-271zM187 120h119q62 0 112.5 20.5t87.5 59t57 91t20 115.5q0 68 -27 117t-77 75.5t-120 26.5h-102zM374 842l-94 165h122l52 -89l77 89h139l-141 -165h-155z
" />
    <glyph glyph-name="dcaron" unicode="&#x10f;" horiz-adv-x="863" 
d="M297 -12q-77 0 -135 33t-90.5 91.5t-32.5 134.5q0 69 23.5 125.5t65 97.5t96 63.5t115.5 22.5q65 0 113.5 -25.5t74.5 -69.5l-28 -25l44 321h133l-105 -757h-125l14 105l29 -20q-30 -48 -81.5 -72.5t-110.5 -24.5zM315 108q49 0 86.5 24.5t58.5 66t21 91.5q0 42 -17.5 75
t-48 52t-71.5 19q-49 0 -87 -24.5t-59.5 -65.5t-21.5 -92q0 -43 17.5 -75.5t49 -51.5t72.5 -19zM711 568l27 189h162l-70 -189h-119z" />
    <glyph glyph-name="Dcroat" unicode="&#x110;" horiz-adv-x="743" 
d="M22 316l16 115h348l-16 -115h-348zM34 0l104 745h230q107 0 186 -43t123 -118.5t44 -173.5q0 -89 -29 -164t-84.5 -130t-131.5 -85.5t-171 -30.5h-271zM187 120h119q62 0 112.5 20.5t87.5 59t57 91t20 115.5q0 68 -27 117t-77 75.5t-120 26.5h-102z" />
    <glyph glyph-name="dcroat" unicode="&#x111;" horiz-adv-x="669" 
d="M438 590l15 100h295l-15 -100h-295zM297 -12q-77 0 -135 33t-90.5 91.5t-32.5 134.5q0 69 23.5 125.5t65 97.5t96 63.5t115.5 22.5q65 0 113.5 -25.5t74.5 -69.5l-28 -25l44 321h133l-105 -757h-125l14 105l29 -20q-30 -48 -81.5 -72.5t-110.5 -24.5zM315 108
q49 0 86.5 24.5t58.5 66t21 91.5q0 42 -17.5 75t-48 52t-71.5 19q-49 0 -87 -24.5t-59.5 -65.5t-21.5 -92q0 -43 17.5 -75.5t49 -51.5t72.5 -19z" />
    <glyph glyph-name="Emacron" unicode="&#x112;" horiz-adv-x="595" 
d="M34 0l104 745h496l-17 -120h-360l-26 -191h339l-16 -120h-340l-27 -194h359l-16 -120h-496zM241 862l15 108h323l-16 -108h-322z" />
    <glyph glyph-name="emacron" unicode="&#x113;" horiz-adv-x="613" 
d="M304 -12q-80 0 -139.5 35t-92 95.5t-32.5 135.5q0 62 21.5 116.5t61 96.5t91.5 65.5t114 23.5q80 0 136 -33t85 -88.5t29 -124.5q0 -18 -3 -37t-8 -38h-420l7 100h345l-65 -45q13 45 2.5 80.5t-39 56.5t-70.5 21q-55 0 -88.5 -27t-49 -73.5t-15.5 -103.5q0 -44 16.5 -76
t46.5 -48.5t70 -16.5q45 0 79 20t54 51l104 -54q-19 -39 -54.5 -69t-83 -46.5t-102.5 -16.5zM200 660l15 108h323l-16 -108h-322z" />
    <glyph glyph-name="Ebreve" unicode="&#x114;" horiz-adv-x="595" 
d="M34 0l104 745h496l-17 -120h-360l-26 -191h339l-16 -120h-340l-27 -194h359l-16 -120h-496zM405 845q-68 0 -109.5 24t-59 61.5t-13.5 79.5h129q-2 -30 14 -47t49 -17t54 17t27 47h128q-6 -43 -32 -81t-72 -61t-115 -23z" />
    <glyph glyph-name="ebreve" unicode="&#x115;" horiz-adv-x="613" 
d="M304 -12q-80 0 -139.5 35t-92 95.5t-32.5 135.5q0 62 21.5 116.5t61 96.5t91.5 65.5t114 23.5q80 0 136 -33t85 -88.5t29 -124.5q0 -18 -3 -37t-8 -38h-420l7 100h345l-65 -45q13 45 2.5 80.5t-39 56.5t-70.5 21q-55 0 -88.5 -27t-49 -73.5t-15.5 -103.5q0 -44 16.5 -76
t46.5 -48.5t70 -16.5q45 0 79 20t54 51l104 -54q-19 -39 -54.5 -69t-83 -46.5t-102.5 -16.5zM364 644q-68 0 -109.5 24t-59 61.5t-13.5 79.5h129q-2 -30 14 -47t49 -17t54 17t27 47h128q-6 -43 -32 -81t-72 -61t-115 -23z" />
    <glyph glyph-name="Edotaccent" unicode="&#x116;" horiz-adv-x="595" 
d="M34 0l104 745h496l-17 -120h-360l-26 -191h339l-16 -120h-340l-27 -194h359l-16 -120h-496zM331 842l20 138h137l-20 -138h-137z" />
    <glyph glyph-name="edotaccent" unicode="&#x117;" horiz-adv-x="613" 
d="M304 -12q-80 0 -139.5 35t-92 95.5t-32.5 135.5q0 62 21.5 116.5t61 96.5t91.5 65.5t114 23.5q80 0 136 -33t85 -88.5t29 -124.5q0 -18 -3 -37t-8 -38h-420l7 100h345l-65 -45q13 45 2.5 80.5t-39 56.5t-70.5 21q-55 0 -88.5 -27t-49 -73.5t-15.5 -103.5q0 -44 16.5 -76
t46.5 -48.5t70 -16.5q45 0 79 20t54 51l104 -54q-19 -39 -54.5 -69t-83 -46.5t-102.5 -16.5zM290 640l20 138h137l-20 -138h-137z" />
    <glyph glyph-name="Eogonek" unicode="&#x118;" horiz-adv-x="595" 
d="M34 0l104 745h496l-17 -120h-360l-26 -191h339l-16 -120h-340l-27 -194h359l-16 -120h-496zM370 -237q-58 0 -91 29t-33 74q0 43 22 79t61.5 60.5t91.5 33.5h29l-6 -39q-23 -4 -43 -21t-32 -39.5t-12 -46.5q0 -20 14 -31.5t32 -11.5q17 0 31.5 5t28.5 16l18 -75
q-23 -15 -50 -24t-61 -9z" />
    <glyph glyph-name="eogonek" unicode="&#x119;" horiz-adv-x="613" 
d="M304 -12q-80 0 -139.5 35t-92 95.5t-32.5 135.5q0 62 21.5 116.5t61 96.5t91.5 65.5t114 23.5q80 0 136 -33t85 -88.5t29 -124.5q0 -18 -3 -37t-8 -38h-420l7 100h345l-65 -45q13 45 2.5 80.5t-39 56.5t-70.5 21q-55 0 -88.5 -27t-49 -73.5t-15.5 -103.5q0 -44 16.5 -76
t46.5 -48.5t70 -16.5q45 0 79 20t54 51l104 -54q-19 -39 -54.5 -69t-83 -46.5t-102.5 -16.5zM311 -237q-58 0 -91 29t-33 74q0 43 22 79t61.5 60.5t91.5 33.5h29l-6 -39q-23 -4 -43 -21t-32 -39.5t-12 -46.5q0 -20 14 -31.5t32 -11.5q17 0 31.5 5t28.5 16l18 -75
q-23 -15 -50 -24t-61 -9z" />
    <glyph glyph-name="Ecaron" unicode="&#x11a;" horiz-adv-x="595" 
d="M34 0l104 745h496l-17 -120h-360l-26 -191h339l-16 -120h-340l-27 -194h359l-16 -120h-496zM315 842l-94 165h122l52 -89l77 89h139l-141 -165h-155z" />
    <glyph glyph-name="ecaron" unicode="&#x11b;" horiz-adv-x="613" 
d="M304 -12q-80 0 -139.5 35t-92 95.5t-32.5 135.5q0 62 21.5 116.5t61 96.5t91.5 65.5t114 23.5q80 0 136 -33t85 -88.5t29 -124.5q0 -18 -3 -37t-8 -38h-420l7 100h345l-65 -45q13 45 2.5 80.5t-39 56.5t-70.5 21q-55 0 -88.5 -27t-49 -73.5t-15.5 -103.5q0 -44 16.5 -76
t46.5 -48.5t70 -16.5q45 0 79 20t54 51l104 -54q-19 -39 -54.5 -69t-83 -46.5t-102.5 -16.5zM274 640l-94 165h122l52 -89l77 89h139l-141 -165h-155z" />
    <glyph glyph-name="Gcircumflex" unicode="&#x11c;" horiz-adv-x="814" 
d="M412 -12q-72 0 -135 25t-110.5 72t-74.5 113t-27 147q0 86 30.5 161t84.5 131.5t126.5 88t157.5 31.5q80 0 142 -27t103 -71.5t56 -97.5l-125 -58q-18 58 -65 94t-120 36q-56 0 -102.5 -21.5t-80.5 -60t-52.5 -89.5t-18.5 -111q0 -72 27.5 -126t77.5 -83.5t116 -29.5
q58 0 105.5 22.5t79 64.5t37.5 98l7 57l58 -54h-276l9 115h351l-9 -90q-7 -82 -40.5 -145t-84.5 -105.5t-114.5 -64.5t-132.5 -22zM267 842l140 165h155l95 -165h-123l-52 90l-77 -90h-138z" />
    <glyph glyph-name="gcircumflex" unicode="&#x11d;" horiz-adv-x="654" 
d="M266 -220q-62 0 -113 21t-84.5 57.5t-43.5 84.5l124 38q7 -38 40 -59.5t87 -21.5q39 0 71 15t53 42t25 63l19 131l33 -32q-31 -49 -78.5 -73t-107.5 -24q-72 0 -128.5 32t-88.5 88.5t-32 129.5q0 61 21.5 113t59.5 90t89 59.5t110 21.5q64 0 115 -26t79 -75l-26 -31
l16 120h125l-73 -528q-9 -69 -49.5 -122t-103 -83.5t-139.5 -30.5zM309 143q45 0 80.5 22t55 58t19.5 79q0 39 -16 69t-44.5 47.5t-68.5 17.5q-44 0 -79.5 -21.5t-56.5 -57.5t-21 -82q0 -38 16.5 -68t46 -47t68.5 -17zM159 640l140 165h155l95 -165h-123l-52 90l-77 -90
h-138z" />
    <glyph glyph-name="Gbreve" unicode="&#x11e;" horiz-adv-x="814" 
d="M412 -12q-72 0 -135 25t-110.5 72t-74.5 113t-27 147q0 86 30.5 161t84.5 131.5t126.5 88t157.5 31.5q80 0 142 -27t103 -71.5t56 -97.5l-125 -58q-18 58 -65 94t-120 36q-56 0 -102.5 -21.5t-80.5 -60t-52.5 -89.5t-18.5 -111q0 -72 27.5 -126t77.5 -83.5t116 -29.5
q58 0 105.5 22.5t79 64.5t37.5 98l7 57l58 -54h-276l9 115h351l-9 -90q-7 -82 -40.5 -145t-84.5 -105.5t-114.5 -64.5t-132.5 -22zM492 845q-68 0 -109.5 24t-59 61.5t-13.5 79.5h129q-2 -30 14 -47t49 -17t54 17t27 47h128q-6 -43 -32 -81t-72 -61t-115 -23z" />
    <glyph glyph-name="gbreve" unicode="&#x11f;" horiz-adv-x="654" 
d="M266 -220q-62 0 -113 21t-84.5 57.5t-43.5 84.5l124 38q7 -38 40 -59.5t87 -21.5q39 0 71 15t53 42t25 63l19 131l33 -32q-31 -49 -78.5 -73t-107.5 -24q-72 0 -128.5 32t-88.5 88.5t-32 129.5q0 61 21.5 113t59.5 90t89 59.5t110 21.5q64 0 115 -26t79 -75l-26 -31
l16 120h125l-73 -528q-9 -69 -49.5 -122t-103 -83.5t-139.5 -30.5zM309 143q45 0 80.5 22t55 58t19.5 79q0 39 -16 69t-44.5 47.5t-68.5 17.5q-44 0 -79.5 -21.5t-56.5 -57.5t-21 -82q0 -38 16.5 -68t46 -47t68.5 -17zM384 644q-68 0 -109.5 24t-59 61.5t-13.5 79.5h129
q-2 -30 14 -47t49 -17t54 17t27 47h128q-6 -43 -32 -81t-72 -61t-115 -23z" />
    <glyph glyph-name="Gdotaccent" unicode="&#x120;" horiz-adv-x="814" 
d="M412 -12q-72 0 -135 25t-110.5 72t-74.5 113t-27 147q0 86 30.5 161t84.5 131.5t126.5 88t157.5 31.5q80 0 142 -27t103 -71.5t56 -97.5l-125 -58q-18 58 -65 94t-120 36q-56 0 -102.5 -21.5t-80.5 -60t-52.5 -89.5t-18.5 -111q0 -72 27.5 -126t77.5 -83.5t116 -29.5
q58 0 105.5 22.5t79 64.5t37.5 98l7 57l58 -54h-276l9 115h351l-9 -90q-7 -82 -40.5 -145t-84.5 -105.5t-114.5 -64.5t-132.5 -22zM419 842l20 138h137l-20 -138h-137z" />
    <glyph glyph-name="gdotaccent" unicode="&#x121;" horiz-adv-x="654" 
d="M266 -220q-62 0 -113 21t-84.5 57.5t-43.5 84.5l124 38q7 -38 40 -59.5t87 -21.5q39 0 71 15t53 42t25 63l19 131l33 -32q-31 -49 -78.5 -73t-107.5 -24q-72 0 -128.5 32t-88.5 88.5t-32 129.5q0 61 21.5 113t59.5 90t89 59.5t110 21.5q64 0 115 -26t79 -75l-26 -31
l16 120h125l-73 -528q-9 -69 -49.5 -122t-103 -83.5t-139.5 -30.5zM309 143q45 0 80.5 22t55 58t19.5 79q0 39 -16 69t-44.5 47.5t-68.5 17.5q-44 0 -79.5 -21.5t-56.5 -57.5t-21 -82q0 -38 16.5 -68t46 -47t68.5 -17zM311 640l20 138h137l-20 -138h-137z" />
    <glyph glyph-name="uni0122" unicode="&#x122;" horiz-adv-x="814" 
d="M412 -12q-72 0 -135 25t-110.5 72t-74.5 113t-27 147q0 86 30.5 161t84.5 131.5t126.5 88t157.5 31.5q80 0 142 -27t103 -71.5t56 -97.5l-125 -58q-18 58 -65 94t-120 36q-56 0 -102.5 -21.5t-80.5 -60t-52.5 -89.5t-18.5 -111q0 -72 27.5 -126t77.5 -83.5t116 -29.5
q58 0 105.5 22.5t79 64.5t37.5 98l7 57l58 -54h-276l9 115h351l-9 -90q-7 -82 -40.5 -145t-84.5 -105.5t-114.5 -64.5t-132.5 -22zM221 -257l56 187h167l-100 -187h-123z" />
    <glyph glyph-name="uni0123" unicode="&#x123;" horiz-adv-x="654" 
d="M266 -220q-62 0 -113 21t-84.5 57.5t-43.5 84.5l124 38q7 -38 40 -59.5t87 -21.5q39 0 71 15t53 42t25 63l19 131l33 -32q-31 -49 -78.5 -73t-107.5 -24q-72 0 -128.5 32t-88.5 88.5t-32 129.5q0 61 21.5 113t59.5 90t89 59.5t110 21.5q64 0 115 -26t79 -75l-26 -31
l16 120h125l-73 -528q-9 -69 -49.5 -122t-103 -83.5t-139.5 -30.5zM309 143q45 0 80.5 22t55 58t19.5 79q0 39 -16 69t-44.5 47.5t-68.5 17.5q-44 0 -79.5 -21.5t-56.5 -57.5t-21 -82q0 -38 16.5 -68t46 -47t68.5 -17zM273 609l99 187h123l-55 -187h-167z" />
    <glyph glyph-name="Hcircumflex" unicode="&#x124;" horiz-adv-x="733" 
d="M34 0l104 745h136l-45 -325h317l46 325h136l-104 -745h-136l41 300h-317l-42 -300h-136zM227 842l140 165h155l95 -165h-123l-52 90l-77 -90h-138z" />
    <glyph glyph-name="hcircumflex" unicode="&#x125;" horiz-adv-x="593" 
d="M23 0l106 757h130l-44 -320l-15 22q26 50 71 73.5t100 23.5q62 0 105.5 -29t64 -78.5t11.5 -111.5l-47 -337h-131l44 322q8 52 -18 83t-74 31q-32 0 -59 -14.5t-45 -40.5t-24 -62l-44 -319h-131zM-14 842l140 165h155l95 -165h-123l-52 90l-77 -90h-138z" />
    <glyph glyph-name="Hbar" unicode="&#x126;" horiz-adv-x="733" 
d="M31 537l16 116h746l-16 -116h-746zM34 0l104 745h136l-45 -325h317l46 325h136l-104 -745h-136l41 300h-317l-42 -300h-136z" />
    <glyph glyph-name="hbar" unicode="&#x127;" horiz-adv-x="593" 
d="M23 590l14 100h295l-14 -100h-295zM23 0l106 757h130l-44 -320l-15 22q26 50 71 73.5t100 23.5q62 0 105.5 -29t64 -78.5t11.5 -111.5l-47 -337h-131l44 322q8 52 -18 83t-74 31q-32 0 -59 -14.5t-45 -40.5t-24 -62l-44 -319h-131z" />
    <glyph glyph-name="Itilde" unicode="&#x128;" horiz-adv-x="280" 
d="M34 0l104 745h136l-104 -745h-136zM293 842q-28 0 -45 8.5t-29 19t-23.5 19t-28.5 8.5q-18 0 -28 -13.5t-13 -37.5h-102q7 54 29 88t52 50.5t64 16.5q28 0 45.5 -8t30 -19t24 -19t27.5 -8q20 0 29.5 14t12.5 36h102q-12 -77 -54 -116t-93 -39z" />
    <glyph glyph-name="itilde" unicode="&#x129;" horiz-adv-x="230" 
d="M11 0l76 544h132l-76 -544h-132zM239 640q-28 0 -45 8.5t-29 19t-23.5 19t-28.5 8.5q-18 0 -28 -13.5t-13 -37.5h-102q7 54 29 88t52 50.5t64 16.5q28 0 45.5 -8t30 -19t24 -19t27.5 -8q20 0 29.5 14t12.5 36h102q-12 -77 -54 -116t-93 -39z" />
    <glyph glyph-name="Imacron" unicode="&#x12a;" horiz-adv-x="280" 
d="M34 0l104 745h136l-104 -745h-136zM62 862l15 108h323l-16 -108h-322z" />
    <glyph glyph-name="imacron" unicode="&#x12b;" horiz-adv-x="230" 
d="M11 0l76 544h132l-76 -544h-132zM8 660l15 108h323l-16 -108h-322z" />
    <glyph glyph-name="Ibreve" unicode="&#x12c;" horiz-adv-x="280" 
d="M34 0l104 745h136l-104 -745h-136zM225 845q-68 0 -109.5 24t-59 61.5t-13.5 79.5h129q-2 -30 14 -47t49 -17t54 17t27 47h128q-6 -43 -32 -81t-72 -61t-115 -23z" />
    <glyph glyph-name="ibreve" unicode="&#x12d;" horiz-adv-x="230" 
d="M11 0l76 544h132l-76 -544h-132zM172 644q-68 0 -109.5 24t-59 61.5t-13.5 79.5h129q-2 -30 14 -47t49 -17t54 17t27 47h128q-6 -43 -32 -81t-72 -61t-115 -23z" />
    <glyph glyph-name="Iogonek" unicode="&#x12e;" horiz-adv-x="280" 
d="M34 0l104 745h136l-104 -745h-136zM65 -237q-58 0 -91 29t-33 74q0 43 22 79t61.5 60.5t91.5 33.5h29l-6 -39q-23 -4 -43 -21t-32 -39.5t-12 -46.5q0 -20 14 -31.5t32 -11.5q17 0 31.5 5t28.5 16l18 -75q-23 -15 -50 -24t-61 -9z" />
    <glyph glyph-name="iogonek" unicode="&#x12f;" horiz-adv-x="230" 
d="M11 0l76 544h132l-76 -544h-132zM98 640l20 138h137l-20 -138h-137zM37 -237q-58 0 -91 29t-33 74q0 43 22 79t61.5 60.5t91.5 33.5h29l-6 -39q-23 -4 -43 -21t-32 -39.5t-12 -46.5q0 -20 14 -31.5t32 -11.5q17 0 31.5 5t28.5 16l18 -75q-23 -15 -50 -24t-61 -9z" />
    <glyph glyph-name="Idotaccent" unicode="&#x130;" horiz-adv-x="280" 
d="M34 0l104 745h136l-104 -745h-136zM152 842l20 138h137l-20 -138h-137z" />
    <glyph glyph-name="dotlessi" unicode="&#x131;" horiz-adv-x="230" 
d="M11 0l76 544h132l-76 -544h-132z" />
    <glyph glyph-name="IJ" unicode="&#x132;" horiz-adv-x="672" 
d="M34 0l104 745h136l-104 -745h-136zM281 0l17 125h41q49 0 82 27.5t40 73.5l73 519h136l-75 -536q-8 -59 -40.5 -106t-87 -75t-127.5 -28h-59z" />
    <glyph glyph-name="ij" unicode="&#x133;" horiz-adv-x="510" 
d="M23 0l76 544h132l-76 -544h-132zM107 605l20 140h132l-19 -140h-133zM182 -221q-15 0 -30 1.5t-24 3.5l9 112q9 -1 17.5 -1.5t14.5 -0.5q45 0 73.5 21.5t33.5 60.5l80 568h132l-80 -575q-9 -62 -39 -104.5t-78 -64t-109 -21.5zM365 605l19 140h133l-20 -140h-132z" />
    <glyph glyph-name="Jcircumflex" unicode="&#x134;" horiz-adv-x="393" 
d="M1 0l17 125h41q49 0 82 27.5t40 73.5l73 519h136l-75 -536q-8 -59 -40.5 -106t-87 -75t-127.5 -28h-59zM116 842l140 165h155l95 -165h-123l-52 90l-77 -90h-138z" />
    <glyph glyph-name="jcircumflex" unicode="&#x135;" horiz-adv-x="257" 
d="M-72 -221q-15 0 -30 1.5t-24 3.5l9 112q9 -1 17.5 -1.5t14.5 -0.5q45 0 73.5 21.5t33.5 60.5l80 568h132l-80 -575q-9 -62 -39 -104.5t-78 -64t-109 -21.5zM-39 640l140 165h155l95 -165h-123l-52 90l-77 -90h-138z" />
    <glyph glyph-name="uni0136" unicode="&#x136;" horiz-adv-x="679" 
d="M34 0l104 745h136l-54 -388l-36 13l370 375h171l-346 -352l22 96l229 -489h-151l-157 334l-123 -125l-29 -209h-136zM154 -257l56 187h167l-100 -187h-123z" />
    <glyph glyph-name="uni0137" unicode="&#x137;" horiz-adv-x="576" 
d="M23 0l106 757h132l-70 -496l-61 15l294 268h175l-232 -219l160 -325h-142l-138 282l72 16l-189 -176l53 80l-28 -202h-132zM102 -257l56 187h167l-100 -187h-123z" />
    <glyph glyph-name="kgreenlandic" unicode="&#x138;" horiz-adv-x="577" 
d="M387 0l-129 230l4 106l163 208h155l-206 -266l154 -278h-141zM23 0l76 544h132l-76 -544h-132zM136 225l17 117h190l-17 -117h-190z" />
    <glyph glyph-name="Lacute" unicode="&#x139;" horiz-adv-x="543" 
d="M34 0l104 745h136l-87 -625h319l-17 -120h-455zM155 842l90 173h170l-131 -173h-129z" />
    <glyph glyph-name="lacute" unicode="&#x13a;" horiz-adv-x="254" 
d="M23 0l106 757h132l-106 -757h-132zM142 842l90 173h170l-131 -173h-129z" />
    <glyph glyph-name="uni013B" unicode="&#x13b;" horiz-adv-x="543" 
d="M34 0l104 745h136l-87 -625h319l-17 -120h-455zM113 -257l56 187h167l-100 -187h-123z" />
    <glyph glyph-name="uni013C" unicode="&#x13c;" horiz-adv-x="254" 
d="M23 0l106 757h132l-106 -757h-132zM-59 -257l56 187h167l-100 -187h-123z" />
    <glyph glyph-name="Lcaron" unicode="&#x13d;" horiz-adv-x="543" 
d="M34 0l104 745h136l-87 -625h319l-17 -120h-455zM409 568l27 189h162l-70 -189h-119z" />
    <glyph glyph-name="lcaron" unicode="&#x13e;" horiz-adv-x="447" 
d="M23 0l106 757h132l-106 -757h-132zM296 568l27 189h162l-70 -189h-119z" />
    <glyph glyph-name="Ldot" unicode="&#x13f;" horiz-adv-x="543" 
d="M382 300q-30 0 -51.5 21.5t-21.5 51.5t21.5 51t51.5 21t51 -21t21 -51q0 -31 -21 -52t-51 -21zM34 0l104 745h136l-87 -625h319l-17 -120h-455z" />
    <glyph glyph-name="ldot" unicode="&#x140;" horiz-adv-x="434" 
d="M344 300q-30 0 -51.5 21.5t-21.5 51.5t21.5 51t51.5 21t51 -21t21 -51q0 -31 -21 -52t-51 -21zM23 0l106 757h132l-106 -757h-132z" />
    <glyph glyph-name="Lslash" unicode="&#x141;" horiz-adv-x="612" 
d="M27 209l18 128l372 200l-18 -128zM102 0l104 745h136l-87 -625h319l-17 -120h-455z" />
    <glyph glyph-name="lslash" unicode="&#x142;" horiz-adv-x="389" 
d="M26 241l18 128l322 174l-18 -128zM75 0l106 757h133l-106 -757h-133z" />
    <glyph glyph-name="Nacute" unicode="&#x143;" horiz-adv-x="741" 
d="M34 0l104 745h107l323 -552l-48 -11l79 563h136l-104 -745h-107l-319 556l44 11l-79 -567h-136zM386 842l90 173h170l-131 -173h-129z" />
    <glyph glyph-name="nacute" unicode="&#x144;" horiz-adv-x="593" 
d="M23 0l76 544h123l-14 -107l-8 22q26 50 71 73.5t100 23.5q62 0 105.5 -29t64 -78.5t11.5 -111.5l-47 -337h-131l45 322q7 52 -19 83t-74 31q-32 0 -59.5 -14.5t-45 -40.5t-23.5 -62l-44 -319h-131zM284 640l90 173h170l-131 -173h-129z" />
    <glyph glyph-name="uni0145" unicode="&#x145;" horiz-adv-x="741" 
d="M34 0l104 745h107l323 -552l-48 -11l79 563h136l-104 -745h-107l-319 556l44 11l-79 -567h-136zM185 -257l56 187h167l-100 -187h-123z" />
    <glyph glyph-name="uni0146" unicode="&#x146;" horiz-adv-x="593" 
d="M23 0l76 544h123l-14 -107l-8 22q26 50 71 73.5t100 23.5q62 0 105.5 -29t64 -78.5t11.5 -111.5l-47 -337h-131l45 322q7 52 -19 83t-74 31q-32 0 -59.5 -14.5t-45 -40.5t-23.5 -62l-44 -319h-131zM111 -257l56 187h167l-100 -187h-123z" />
    <glyph glyph-name="Ncaron" unicode="&#x147;" horiz-adv-x="741" 
d="M34 0l104 745h107l323 -552l-48 -11l79 563h136l-104 -745h-107l-319 556l44 11l-79 -567h-136zM366 842l-94 165h122l52 -89l77 89h139l-141 -165h-155z" />
    <glyph glyph-name="ncaron" unicode="&#x148;" horiz-adv-x="593" 
d="M23 0l76 544h123l-14 -107l-8 22q26 50 71 73.5t100 23.5q62 0 105.5 -29t64 -78.5t11.5 -111.5l-47 -337h-131l45 322q7 52 -19 83t-74 31q-32 0 -59.5 -14.5t-45 -40.5t-23.5 -62l-44 -319h-131zM264 640l-94 165h122l52 -89l77 89h139l-141 -165h-155z" />
    <glyph glyph-name="Eng" unicode="&#x14a;" horiz-adv-x="741" 
d="M394 -221q-13 0 -27 1t-22 3l16 115q16 -3 35 -3q43 0 68 19.5t31 58.5l18 121l21 -110l-325 565l38 7l-77 -556h-136l104 745h107l316 -540l-39 -8l77 548h136l-108 -772q-8 -62 -39.5 -105.5t-81 -66t-112.5 -22.5z" />
    <glyph glyph-name="eng" unicode="&#x14b;" horiz-adv-x="600" 
d="M268 -221q-15 0 -29.5 1.5t-23.5 3.5l9 112q9 -1 17.5 -1.5t14.5 -0.5q45 0 73.5 21.5t33.5 60.5l49 346q7 52 -19 83t-74 31q-32 0 -59 -14.5t-45 -40.5t-24 -62l-44 -319h-131l76 544h124l-14 -107l-9 22q26 50 71 73.5t101 23.5q61 0 105 -29t64.5 -78.5t11.5 -111.5
l-52 -368q-9 -62 -39.5 -104t-78 -64t-108.5 -22z" />
    <glyph glyph-name="Omacron" unicode="&#x14c;" horiz-adv-x="882" 
d="M433 -12q-79 0 -146.5 27t-117 75.5t-77 114t-27.5 143.5q0 87 31.5 161t87.5 130t131 87t162 31q80 0 147.5 -26.5t117 -75t77 -114t27.5 -142.5q0 -87 -32 -161.5t-88.5 -130.5t-131.5 -87.5t-161 -31.5zM433 112q58 0 108 21.5t88 60.5t59 91t21 112q0 70 -29.5 123
t-82 83t-120.5 30q-58 0 -108 -21.5t-88 -60t-59 -90t-21 -112.5q0 -69 30 -122.5t82 -84t120 -30.5zM363 862l15 108h323l-16 -108h-322z" />
    <glyph glyph-name="omacron" unicode="&#x14d;" horiz-adv-x="656" 
d="M313 -12q-77 0 -139 34.5t-98 95t-36 138.5q0 63 23.5 117.5t65.5 95.5t97 64t118 23q77 0 139 -34.5t98 -94.5t36 -139q0 -62 -24 -116.5t-66 -96t-97 -64.5t-117 -23zM314 108q48 0 85.5 24.5t59 66t21.5 91.5q0 43 -17 75.5t-48 51.5t-72 19q-48 0 -86 -24.5
t-59 -65.5t-21 -92q0 -43 17 -75.5t48 -51.5t72 -19zM222 660l15 108h323l-16 -108h-322z" />
    <glyph glyph-name="Obreve" unicode="&#x14e;" horiz-adv-x="882" 
d="M433 -12q-79 0 -146.5 27t-117 75.5t-77 114t-27.5 143.5q0 87 31.5 161t87.5 130t131 87t162 31q80 0 147.5 -26.5t117 -75t77 -114t27.5 -142.5q0 -87 -32 -161.5t-88.5 -130.5t-131.5 -87.5t-161 -31.5zM433 112q58 0 108 21.5t88 60.5t59 91t21 112q0 70 -29.5 123
t-82 83t-120.5 30q-58 0 -108 -21.5t-88 -60t-59 -90t-21 -112.5q0 -69 30 -122.5t82 -84t120 -30.5zM526 845q-68 0 -109.5 24t-59 61.5t-13.5 79.5h129q-2 -30 14 -47t49 -17t54 17t27 47h128q-6 -43 -32 -81t-72 -61t-115 -23z" />
    <glyph glyph-name="obreve" unicode="&#x14f;" horiz-adv-x="656" 
d="M313 -12q-77 0 -139 34.5t-98 95t-36 138.5q0 63 23.5 117.5t65.5 95.5t97 64t118 23q77 0 139 -34.5t98 -94.5t36 -139q0 -62 -24 -116.5t-66 -96t-97 -64.5t-117 -23zM314 108q48 0 85.5 24.5t59 66t21.5 91.5q0 43 -17 75.5t-48 51.5t-72 19q-48 0 -86 -24.5
t-59 -65.5t-21 -92q0 -43 17 -75.5t48 -51.5t72 -19zM385 644q-68 0 -109.5 24t-59 61.5t-13.5 79.5h129q-2 -30 14 -47t49 -17t54 17t27 47h128q-6 -43 -32 -81t-72 -61t-115 -23z" />
    <glyph glyph-name="Ohungarumlaut" unicode="&#x150;" horiz-adv-x="882" 
d="M433 -12q-79 0 -146.5 27t-117 75.5t-77 114t-27.5 143.5q0 87 31.5 161t87.5 130t131 87t162 31q80 0 147.5 -26.5t117 -75t77 -114t27.5 -142.5q0 -87 -32 -161.5t-88.5 -130.5t-131.5 -87.5t-161 -31.5zM433 112q58 0 108 21.5t88 60.5t59 91t21 112q0 70 -29.5 123
t-82 83t-120.5 30q-58 0 -108 -21.5t-88 -60t-59 -90t-21 -112.5q0 -69 30 -122.5t82 -84t120 -30.5zM347 842l67 173h168l-109 -173h-126zM568 842l68 173h168l-109 -173h-127z" />
    <glyph glyph-name="ohungarumlaut" unicode="&#x151;" horiz-adv-x="656" 
d="M313 -12q-77 0 -139 34.5t-98 95t-36 138.5q0 63 23.5 117.5t65.5 95.5t97 64t118 23q77 0 139 -34.5t98 -94.5t36 -139q0 -62 -24 -116.5t-66 -96t-97 -64.5t-117 -23zM314 108q48 0 85.5 24.5t59 66t21.5 91.5q0 43 -17 75.5t-48 51.5t-72 19q-48 0 -86 -24.5
t-59 -65.5t-21 -92q0 -43 17 -75.5t48 -51.5t72 -19zM206 640l67 173h168l-109 -173h-126zM427 640l68 173h168l-109 -173h-127z" />
    <glyph glyph-name="OE" unicode="&#x152;" horiz-adv-x="1227" 
d="M433 -12q-79 0 -146.5 27t-117 75.5t-77 114t-27.5 143.5q0 87 31.5 161t87.5 130t131 87t162 31q65 0 121.5 -17.5t102.5 -52.5t79 -88l-33 -22l23 168h496l-17 -120h-359l-26 -191h338l-16 -120h-339l-27 -194h358l-17 -120h-495l17 127l23 -27q-54 -55 -123.5 -83.5
t-149.5 -28.5zM433 112q58 0 108 21.5t88 60.5t59 91t21 112q0 70 -29.5 123t-82 83t-120.5 30q-58 0 -108 -21.5t-88 -60t-59 -90t-21 -112.5q0 -69 30 -122.5t82 -84t120 -30.5z" />
    <glyph glyph-name="oe" unicode="&#x153;" horiz-adv-x="1058" 
d="M313 -12q-77 0 -139 34.5t-98 95t-36 138.5q0 63 23.5 117.5t65.5 95.5t97 64t118 23q78 0 140.5 -35.5t96.5 -96.5l-46 1q25 40 61 69t81 45.5t96 16.5q80 0 136 -33t85 -88.5t29 -124.5q0 -18 -3 -37t-8 -38h-392q2 -42 18.5 -71t45.5 -45t68 -16q45 0 79 20t54 51
l104 -54q-19 -39 -54.5 -69t-83 -46.5t-102.5 -16.5q-53 0 -98 16t-78.5 46t-54.5 70l45 -1q-27 -40 -66 -69.5t-85.5 -45.5t-98.5 -16zM314 108q48 0 85.5 24.5t59 66t21.5 91.5q0 43 -17 75.5t-48 51.5t-72 19q-48 0 -86 -24.5t-59 -65.5t-21 -92q0 -43 17 -75.5t48 -51.5
t72 -19zM630 335h256q1 33 -13.5 58.5t-40.5 40t-60 14.5q-39 0 -67 -14.5t-47 -39.5t-28 -59z" />
    <glyph glyph-name="Racute" unicode="&#x154;" horiz-adv-x="669" 
d="M34 0l104 745h267q71 0 124 -26t82.5 -75.5t29.5 -121.5q0 -54 -19 -99t-55 -78t-87 -51l126 -294h-146l-138 330l82 -55h-195l-39 -275h-136zM226 395h145q39 0 69 16.5t47 45.5t17 66q0 47 -29.5 74.5t-80.5 27.5h-137zM345 842l90 173h170l-131 -173h-129z" />
    <glyph glyph-name="racute" unicode="&#x155;" horiz-adv-x="374" 
d="M23 0l76 544h124l-16 -121l-9 18q28 61 71.5 85t100.5 24h32l-16 -116h-47q-56 0 -94.5 -35.5t-49.5 -105.5l-40 -293h-132zM199 640l90 173h170l-131 -173h-129z" />
    <glyph glyph-name="uni0156" unicode="&#x156;" horiz-adv-x="669" 
d="M34 0l104 745h267q71 0 124 -26t82.5 -75.5t29.5 -121.5q0 -54 -19 -99t-55 -78t-87 -51l126 -294h-146l-138 330l82 -55h-195l-39 -275h-136zM226 395h145q39 0 69 16.5t47 45.5t17 66q0 47 -29.5 74.5t-80.5 27.5h-137zM144 -257l56 187h167l-100 -187h-123z" />
    <glyph glyph-name="uni0157" unicode="&#x157;" horiz-adv-x="374" 
d="M23 0l76 544h124l-16 -121l-9 18q28 61 71.5 85t100.5 24h32l-16 -116h-47q-56 0 -94.5 -35.5t-49.5 -105.5l-40 -293h-132zM-59 -257l56 187h167l-100 -187h-123z" />
    <glyph glyph-name="Rcaron" unicode="&#x158;" horiz-adv-x="669" 
d="M34 0l104 745h267q71 0 124 -26t82.5 -75.5t29.5 -121.5q0 -54 -19 -99t-55 -78t-87 -51l126 -294h-146l-138 330l82 -55h-195l-39 -275h-136zM226 395h145q39 0 69 16.5t47 45.5t17 66q0 47 -29.5 74.5t-80.5 27.5h-137zM325 842l-94 165h122l52 -89l77 89h139
l-141 -165h-155z" />
    <glyph glyph-name="rcaron" unicode="&#x159;" horiz-adv-x="374" 
d="M23 0l76 544h124l-16 -121l-9 18q28 61 71.5 85t100.5 24h32l-16 -116h-47q-56 0 -94.5 -35.5t-49.5 -105.5l-40 -293h-132zM179 640l-94 165h122l52 -89l77 89h139l-141 -165h-155z" />
    <glyph glyph-name="Sacute" unicode="&#x15a;" horiz-adv-x="649" 
d="M325 -12q-75 0 -136.5 26t-103 73.5t-57.5 110.5l117 44q19 -64 67.5 -99.5t112.5 -35.5q39 0 68 13.5t44.5 36.5t15.5 51q0 29 -17.5 49t-55.5 32l-132 44q-79 26 -118 75t-39 119q0 65 34.5 117t93.5 82.5t134 30.5q70 0 126 -24t93.5 -66t51.5 -99l-116 -44
q-15 54 -57 84t-101 30q-36 0 -64 -12.5t-43.5 -34.5t-15.5 -52t18.5 -51.5t57.5 -34.5l125 -43q82 -27 122 -75t40 -118q0 -63 -35 -115t-94.5 -83t-135.5 -31zM340 842l90 173h170l-131 -173h-129z" />
    <glyph glyph-name="sacute" unicode="&#x15b;" horiz-adv-x="512" 
d="M238 -12q-57 0 -105 19.5t-80 55t-44 82.5l101 41q18 -45 52.5 -70t80.5 -25q40 0 62.5 18t22.5 44q0 23 -17 35t-38 17l-87 25q-60 17 -92.5 55.5t-32.5 92.5q0 51 28 91t76.5 63.5t108.5 23.5q79 0 135.5 -38.5t74.5 -105.5l-103 -41q-9 36 -40.5 57t-71.5 21
q-35 0 -57.5 -16t-22.5 -42q0 -24 17 -36t40 -18l84 -26q62 -19 94.5 -56.5t32.5 -89.5q0 -50 -28 -90t-77.5 -63.5t-113.5 -23.5zM243 640l90 173h170l-131 -173h-129z" />
    <glyph glyph-name="Scircumflex" unicode="&#x15c;" horiz-adv-x="649" 
d="M325 -12q-75 0 -136.5 26t-103 73.5t-57.5 110.5l117 44q19 -64 67.5 -99.5t112.5 -35.5q39 0 68 13.5t44.5 36.5t15.5 51q0 29 -17.5 49t-55.5 32l-132 44q-79 26 -118 75t-39 119q0 65 34.5 117t93.5 82.5t134 30.5q70 0 126 -24t93.5 -66t51.5 -99l-116 -44
q-15 54 -57 84t-101 30q-36 0 -64 -12.5t-43.5 -34.5t-15.5 -52t18.5 -51.5t57.5 -34.5l125 -43q82 -27 122 -75t40 -118q0 -63 -35 -115t-94.5 -83t-135.5 -31zM185 842l140 165h155l95 -165h-123l-52 90l-77 -90h-138z" />
    <glyph glyph-name="scircumflex" unicode="&#x15d;" horiz-adv-x="512" 
d="M238 -12q-57 0 -105 19.5t-80 55t-44 82.5l101 41q18 -45 52.5 -70t80.5 -25q40 0 62.5 18t22.5 44q0 23 -17 35t-38 17l-87 25q-60 17 -92.5 55.5t-32.5 92.5q0 51 28 91t76.5 63.5t108.5 23.5q79 0 135.5 -38.5t74.5 -105.5l-103 -41q-9 36 -40.5 57t-71.5 21
q-35 0 -57.5 -16t-22.5 -42q0 -24 17 -36t40 -18l84 -26q62 -19 94.5 -56.5t32.5 -89.5q0 -50 -28 -90t-77.5 -63.5t-113.5 -23.5zM88 640l140 165h155l95 -165h-123l-52 90l-77 -90h-138z" />
    <glyph glyph-name="Scedilla" unicode="&#x15e;" horiz-adv-x="649" 
d="M325 -12q-75 0 -136.5 26t-103 73.5t-57.5 110.5l117 44q19 -64 67.5 -99.5t112.5 -35.5q39 0 68 13.5t44.5 36.5t15.5 51q0 29 -17.5 49t-55.5 32l-132 44q-79 26 -118 75t-39 119q0 65 34.5 117t93.5 82.5t134 30.5q70 0 126 -24t93.5 -66t51.5 -99l-116 -44
q-15 54 -57 84t-101 30q-36 0 -64 -12.5t-43.5 -34.5t-15.5 -52t18.5 -51.5t57.5 -34.5l125 -43q82 -27 122 -75t40 -118q0 -63 -35 -115t-94.5 -83t-135.5 -31zM265 -237q-27 0 -58 8.5t-52 24.5l40 75q14 -10 30.5 -15.5t33.5 -5.5q23 0 37 10.5t14 27.5t-21.5 27.5
t-65.5 15.5l32 79h77l-15 -40q45 -6 72.5 -27.5t27.5 -56.5q0 -36 -20 -63.5t-54.5 -43.5t-77.5 -16z" />
    <glyph glyph-name="scedilla" unicode="&#x15f;" horiz-adv-x="512" 
d="M238 -12q-57 0 -105 19.5t-80 55t-44 82.5l101 41q18 -45 52.5 -70t80.5 -25q40 0 62.5 18t22.5 44q0 23 -17 35t-38 17l-87 25q-60 17 -92.5 55.5t-32.5 92.5q0 51 28 91t76.5 63.5t108.5 23.5q79 0 135.5 -38.5t74.5 -105.5l-103 -41q-9 36 -40.5 57t-71.5 21
q-35 0 -57.5 -16t-22.5 -42q0 -24 17 -36t40 -18l84 -26q62 -19 94.5 -56.5t32.5 -89.5q0 -50 -28 -90t-77.5 -63.5t-113.5 -23.5zM196 -237q-27 0 -58 8.5t-52 24.5l40 75q14 -10 30.5 -15.5t33.5 -5.5q23 0 37 10.5t14 27.5t-21.5 27.5t-65.5 15.5l32 79h77l-15 -40
q45 -6 72.5 -27.5t27.5 -56.5q0 -36 -20 -63.5t-54.5 -43.5t-77.5 -16z" />
    <glyph glyph-name="Scaron" unicode="&#x160;" horiz-adv-x="649" 
d="M325 -12q-75 0 -136.5 26t-103 73.5t-57.5 110.5l117 44q19 -64 67.5 -99.5t112.5 -35.5q39 0 68 13.5t44.5 36.5t15.5 51q0 29 -17.5 49t-55.5 32l-132 44q-79 26 -118 75t-39 119q0 65 34.5 117t93.5 82.5t134 30.5q70 0 126 -24t93.5 -66t51.5 -99l-116 -44
q-15 54 -57 84t-101 30q-36 0 -64 -12.5t-43.5 -34.5t-15.5 -52t18.5 -51.5t57.5 -34.5l125 -43q82 -27 122 -75t40 -118q0 -63 -35 -115t-94.5 -83t-135.5 -31zM320 842l-94 165h122l52 -89l77 89h139l-141 -165h-155z" />
    <glyph glyph-name="scaron" unicode="&#x161;" horiz-adv-x="512" 
d="M238 -12q-57 0 -105 19.5t-80 55t-44 82.5l101 41q18 -45 52.5 -70t80.5 -25q40 0 62.5 18t22.5 44q0 23 -17 35t-38 17l-87 25q-60 17 -92.5 55.5t-32.5 92.5q0 51 28 91t76.5 63.5t108.5 23.5q79 0 135.5 -38.5t74.5 -105.5l-103 -41q-9 36 -40.5 57t-71.5 21
q-35 0 -57.5 -16t-22.5 -42q0 -24 17 -36t40 -18l84 -26q62 -19 94.5 -56.5t32.5 -89.5q0 -50 -28 -90t-77.5 -63.5t-113.5 -23.5zM223 640l-94 165h122l52 -89l77 89h139l-141 -165h-155z" />
    <glyph glyph-name="uni0162" unicode="&#x162;" horiz-adv-x="542" 
d="M167 0l87 625h-193l16 120h520l-16 -120h-191l-87 -625h-136zM211 -237q-27 0 -58 8.5t-52 24.5l40 75q14 -10 30.5 -15.5t33.5 -5.5q23 0 37 10.5t14 27.5t-21.5 27.5t-65.5 15.5l32 79h77l-15 -40q45 -6 72.5 -27.5t27.5 -56.5q0 -36 -20 -63.5t-54.5 -43.5t-77.5 -16z
" />
    <glyph glyph-name="uni0163" unicode="&#x163;" horiz-adv-x="416" 
d="M277 -6q-94 0 -139.5 52.5t-33.5 143.5l33 237h-93l16 117h7q40 0 67 23t32 63l5 38h133l-17 -124h123l-16 -117h-124l-33 -236q-4 -28 1.5 -46t23 -27t48.5 -9q9 0 18 0.5t21 2.5l-10 -112q-14 -4 -31.5 -5t-30.5 -1zM244 -237q-27 0 -58 8.5t-52 24.5l40 75
q14 -10 30.5 -15.5t33.5 -5.5q23 0 37 10.5t14 27.5t-21.5 27.5t-65.5 15.5l32 79h77l-15 -40q45 -6 72.5 -27.5t27.5 -56.5q0 -36 -20 -63.5t-54.5 -43.5t-77.5 -16z" />
    <glyph glyph-name="Tcaron" unicode="&#x164;" horiz-adv-x="542" 
d="M167 0l87 625h-193l16 120h520l-16 -120h-191l-87 -625h-136zM267 842l-94 165h122l52 -89l77 89h139l-141 -165h-155z" />
    <glyph glyph-name="tcaron" unicode="&#x165;" horiz-adv-x="493" 
d="M277 -6q-94 0 -139.5 52.5t-33.5 143.5l33 237h-93l16 117h7q40 0 67 23t32 63l5 38h133l-17 -124h123l-16 -117h-124l-33 -236q-4 -28 1.5 -46t23 -27t48.5 -9q9 0 18 0.5t21 2.5l-10 -112q-14 -4 -31.5 -5t-30.5 -1zM352 568l27 189h162l-70 -189h-119z" />
    <glyph glyph-name="Tbar" unicode="&#x166;" horiz-adv-x="542" 
d="M104 316l16 115h348l-16 -115h-348zM167 0l87 625h-193l16 120h520l-16 -120h-191l-87 -625h-136z" />
    <glyph glyph-name="tbar" unicode="&#x167;" horiz-adv-x="416" 
d="M277 -6q-94 0 -139.5 52.5t-33.5 143.5l33 237h-93l16 117h7q40 0 67 23t32 63l5 38h133l-17 -124h123l-16 -117h-124l-33 -236q-4 -28 1.5 -46t23 -27t48.5 -9q9 0 18 0.5t21 2.5l-10 -112q-14 -4 -31.5 -5t-30.5 -1zM-1 214l16 116h350l-16 -116h-350z" />
    <glyph glyph-name="Utilde" unicode="&#x168;" horiz-adv-x="718" 
d="M332 -12q-88 0 -152 37t-95.5 100.5t-20.5 143.5l66 476h137l-66 -475q-7 -46 8.5 -82t49 -56t80.5 -20q46 0 84 20t63.5 57t32.5 87l65 469h136l-68 -483q-10 -80 -54.5 -142t-113 -97t-152.5 -35zM512 842q-28 0 -45 8.5t-29 19t-23.5 19t-28.5 8.5q-18 0 -28 -13.5
t-13 -37.5h-102q7 54 29 88t52 50.5t64 16.5q28 0 45.5 -8t30 -19t24 -19t27.5 -8q20 0 29.5 14t12.5 36h102q-12 -77 -54 -116t-93 -39z" />
    <glyph glyph-name="utilde" unicode="&#x169;" horiz-adv-x="594" 
d="M223 -12q-65 0 -109 29.5t-62.5 82.5t-8.5 124l45 320h132l-45 -322q-5 -34 5 -60t33 -40t55 -14q33 0 59.5 14.5t45 41t22.5 61.5l45 319h131l-76 -544h-124l14 107l9 -22q-25 -50 -70.5 -73.5t-100.5 -23.5zM421 640q-28 0 -45 8.5t-29 19t-23.5 19t-28.5 8.5
q-18 0 -28 -13.5t-13 -37.5h-102q7 54 29 88t52 50.5t64 16.5q28 0 45.5 -8t30 -19t24 -19t27.5 -8q20 0 29.5 14t12.5 36h102q-12 -77 -54 -116t-93 -39z" />
    <glyph glyph-name="Umacron" unicode="&#x16a;" horiz-adv-x="718" 
d="M332 -12q-88 0 -152 37t-95.5 100.5t-20.5 143.5l66 476h137l-66 -475q-7 -46 8.5 -82t49 -56t80.5 -20q46 0 84 20t63.5 57t32.5 87l65 469h136l-68 -483q-10 -80 -54.5 -142t-113 -97t-152.5 -35zM281 862l15 108h323l-16 -108h-322z" />
    <glyph glyph-name="umacron" unicode="&#x16b;" horiz-adv-x="594" 
d="M223 -12q-65 0 -109 29.5t-62.5 82.5t-8.5 124l45 320h132l-45 -322q-5 -34 5 -60t33 -40t55 -14q33 0 59.5 14.5t45 41t22.5 61.5l45 319h131l-76 -544h-124l14 107l9 -22q-25 -50 -70.5 -73.5t-100.5 -23.5zM190 660l15 108h323l-16 -108h-322z" />
    <glyph glyph-name="Ubreve" unicode="&#x16c;" horiz-adv-x="718" 
d="M332 -12q-88 0 -152 37t-95.5 100.5t-20.5 143.5l66 476h137l-66 -475q-7 -46 8.5 -82t49 -56t80.5 -20q46 0 84 20t63.5 57t32.5 87l65 469h136l-68 -483q-10 -80 -54.5 -142t-113 -97t-152.5 -35zM444 845q-68 0 -109.5 24t-59 61.5t-13.5 79.5h129q-2 -30 14 -47
t49 -17t54 17t27 47h128q-6 -43 -32 -81t-72 -61t-115 -23z" />
    <glyph glyph-name="ubreve" unicode="&#x16d;" horiz-adv-x="594" 
d="M223 -12q-65 0 -109 29.5t-62.5 82.5t-8.5 124l45 320h132l-45 -322q-5 -34 5 -60t33 -40t55 -14q33 0 59.5 14.5t45 41t22.5 61.5l45 319h131l-76 -544h-124l14 107l9 -22q-25 -50 -70.5 -73.5t-100.5 -23.5zM354 644q-68 0 -109.5 24t-59 61.5t-13.5 79.5h129
q-2 -30 14 -47t49 -17t54 17t27 47h128q-6 -43 -32 -81t-72 -61t-115 -23z" />
    <glyph glyph-name="Uring" unicode="&#x16e;" horiz-adv-x="718" 
d="M332 -12q-88 0 -152 37t-95.5 100.5t-20.5 143.5l66 476h137l-66 -475q-7 -46 8.5 -82t49 -56t80.5 -20q46 0 84 20t63.5 57t32.5 87l65 469h136l-68 -483q-10 -80 -54.5 -142t-113 -97t-152.5 -35zM434 800q-49 0 -79.5 28t-30.5 74q0 39 19.5 70t51.5 50t72 19
q49 0 79 -28t30 -74q0 -38 -19 -70t-51.5 -50.5t-71.5 -18.5zM445 878q20 0 34 15t14 35q0 16 -10.5 25.5t-26.5 9.5q-20 0 -34 -14t-14 -36q0 -15 10 -25t27 -10z" />
    <glyph glyph-name="uring" unicode="&#x16f;" horiz-adv-x="594" 
d="M223 -12q-65 0 -109 29.5t-62.5 82.5t-8.5 124l45 320h132l-45 -322q-5 -34 5 -60t33 -40t55 -14q33 0 59.5 14.5t45 41t22.5 61.5l45 319h131l-76 -544h-124l14 107l9 -22q-25 -50 -70.5 -73.5t-100.5 -23.5zM344 598q-49 0 -79.5 28t-30.5 74q0 39 19.5 70t51.5 50
t72 19q49 0 79 -28t30 -74q0 -38 -19 -70t-51.5 -50.5t-71.5 -18.5zM355 676q20 0 34 15t14 35q0 16 -10.5 25.5t-26.5 9.5q-20 0 -34 -14t-14 -36q0 -15 10 -25t27 -10z" />
    <glyph glyph-name="Uhungarumlaut" unicode="&#x170;" horiz-adv-x="718" 
d="M332 -12q-88 0 -152 37t-95.5 100.5t-20.5 143.5l66 476h137l-66 -475q-7 -46 8.5 -82t49 -56t80.5 -20q46 0 84 20t63.5 57t32.5 87l65 469h136l-68 -483q-10 -80 -54.5 -142t-113 -97t-152.5 -35zM265 842l67 173h168l-109 -173h-126zM486 842l68 173h168l-109 -173
h-127z" />
    <glyph glyph-name="uhungarumlaut" unicode="&#x171;" horiz-adv-x="594" 
d="M223 -12q-65 0 -109 29.5t-62.5 82.5t-8.5 124l45 320h132l-45 -322q-5 -34 5 -60t33 -40t55 -14q33 0 59.5 14.5t45 41t22.5 61.5l45 319h131l-76 -544h-124l14 107l9 -22q-25 -50 -70.5 -73.5t-100.5 -23.5zM174 640l67 173h168l-109 -173h-126zM395 640l68 173h168
l-109 -173h-127z" />
    <glyph glyph-name="Uogonek" unicode="&#x172;" horiz-adv-x="718" 
d="M332 -12q-88 0 -152 37t-95.5 100.5t-20.5 143.5l66 476h137l-66 -475q-7 -46 8.5 -82t49 -56t80.5 -20q46 0 84 20t63.5 57t32.5 87l65 469h136l-68 -483q-10 -80 -54.5 -142t-113 -97t-152.5 -35zM282 -237q-58 0 -91 29t-33 74q0 43 22 79t61.5 60.5t91.5 33.5h29
l-6 -39q-23 -4 -43 -21t-32 -39.5t-12 -46.5q0 -20 14 -31.5t32 -11.5q17 0 31.5 5t28.5 16l18 -75q-23 -15 -50 -24t-61 -9z" />
    <glyph glyph-name="uogonek" unicode="&#x173;" horiz-adv-x="594" 
d="M223 -12q-65 0 -109 29.5t-62.5 82.5t-8.5 124l45 320h132l-45 -322q-5 -34 5 -60t33 -40t55 -14q33 0 59.5 14.5t45 41t22.5 61.5l45 319h131l-76 -544h-124l14 107l9 -22q-25 -50 -70.5 -73.5t-100.5 -23.5zM403 -237q-58 0 -91 29t-33 74q0 43 22 79t61.5 60.5
t91.5 33.5h29l-6 -39q-23 -4 -43 -21t-32 -39.5t-12 -46.5q0 -20 14 -31.5t32 -11.5q17 0 31.5 5t28.5 16l18 -75q-23 -15 -50 -24t-61 -9z" />
    <glyph glyph-name="Wcircumflex" unicode="&#x174;" horiz-adv-x="1020" 
d="M173 0l-96 745h143l68 -635h-43l261 635h135l81 -635h-48l253 635h148l-303 -745h-157l-78 618h44l-252 -618h-156zM370 842l140 165h155l95 -165h-123l-52 90l-77 -90h-138z" />
    <glyph glyph-name="wcircumflex" unicode="&#x175;" horiz-adv-x="883" 
d="M160 0l-111 544h133l79 -413l-49 1l208 412h116l86 -412l-47 -1l195 413h140l-263 -544h-117l-86 431h46l-214 -431h-116zM274 640l140 165h155l95 -165h-123l-52 90l-77 -90h-138z" />
    <glyph glyph-name="Ycircumflex" unicode="&#x176;" horiz-adv-x="660" 
d="M224 0l46 330l-193 415h147l147 -324l-56 1l235 323h165l-307 -414l-46 -331h-138zM190 842l140 165h155l95 -165h-123l-52 90l-77 -90h-138z" />
    <glyph glyph-name="ycircumflex" unicode="&#x177;" horiz-adv-x="586" 
d="M63 -221q-25 0 -45.5 4.5t-36.5 12.5l8 107q13 -3 30.5 -5.5t30.5 -2.5q30 0 50.5 10.5t36 29t28.5 40.5l49 80l-13 -110l-152 599h135l104 -442h-52l229 442h148l-322 -603q-28 -52 -62.5 -88.5t-75.5 -55t-90 -18.5zM125 640l140 165h155l95 -165h-123l-52 90l-77 -90
h-138z" />
    <glyph glyph-name="Ydieresis" unicode="&#x178;" horiz-adv-x="660" 
d="M224 0l46 330l-193 415h147l147 -324l-56 1l235 323h165l-307 -414l-46 -331h-138zM233 842l19 138h137l-19 -138h-137zM450 842l19 138h138l-19 -138h-138z" />
    <glyph glyph-name="Zacute" unicode="&#x179;" horiz-adv-x="572" 
d="M-24 0l15 107l422 518h-328l16 120h513l-14 -107l-426 -518h363l-17 -120h-544zM301 842l90 173h170l-131 -173h-129z" />
    <glyph glyph-name="zacute" unicode="&#x17a;" horiz-adv-x="482" 
d="M-23 0l13 106l356 363l26 -42h-322l17 117h438l-13 -107l-354 -363l-22 42h331l-16 -116h-454zM231 640l90 173h170l-131 -173h-129z" />
    <glyph glyph-name="Zdotaccent" unicode="&#x17b;" horiz-adv-x="572" 
d="M-24 0l15 107l422 518h-328l16 120h513l-14 -107l-426 -518h363l-17 -120h-544zM298 842l20 138h137l-20 -138h-137z" />
    <glyph glyph-name="zdotaccent" unicode="&#x17c;" horiz-adv-x="482" 
d="M-23 0l13 106l356 363l26 -42h-322l17 117h438l-13 -107l-354 -363l-22 42h331l-16 -116h-454zM227 640l20 138h137l-20 -138h-137z" />
    <glyph glyph-name="Zcaron" unicode="&#x17d;" horiz-adv-x="572" 
d="M-24 0l15 107l422 518h-328l16 120h513l-14 -107l-426 -518h363l-17 -120h-544zM282 842l-94 165h122l52 -89l77 89h139l-141 -165h-155z" />
    <glyph glyph-name="zcaron" unicode="&#x17e;" horiz-adv-x="482" 
d="M-23 0l13 106l356 363l26 -42h-322l17 117h438l-13 -107l-354 -363l-22 42h331l-16 -116h-454zM211 640l-94 165h122l52 -89l77 89h139l-141 -165h-155z" />
    <glyph glyph-name="uni018F" unicode="&#x18f;" horiz-adv-x="815" 
d="M386 -12q-95 0 -168.5 41t-115.5 114.5t-42 172.5q0 36 4.5 60.5t7.5 36.5h597l-7 -109h-517l66 46q-1 -9 -3.5 -23.5t-2.5 -29.5q0 -53 24 -94.5t67.5 -66t101.5 -24.5q50 0 93 18t75.5 52t52.5 82.5t22 107.5q8 77 -18.5 135.5t-79.5 92t-126 33.5q-65 0 -118 -27.5
t-86 -80.5l-109 55q28 53 76.5 93t112 62t134.5 22q80 0 145 -27.5t111 -77t71 -115.5t25 -142q0 -85 -30 -159t-83 -129.5t-124.5 -87t-155.5 -31.5z" />
    <glyph glyph-name="florin" unicode="&#x192;" horiz-adv-x="576" 
d="M115 -12q-15 0 -29.5 2t-23.5 4l8 111q10 -1 18 -1.5t13 -0.5q45 0 75 23.5t37 78.5l16 111h-121l16 114h121l18 126q9 68 40.5 112.5t79 66.5t107.5 22q14 0 29 -2t24 -4l-9 -111q-9 2 -17 2h-13q-45 0 -74.5 -23.5t-38.5 -77.5l-15 -111h120l-16 -114h-120l-18 -127
q-10 -68 -41 -112.5t-78.5 -66.5t-107.5 -22z" />
    <glyph glyph-name="Ohorn" unicode="&#x1a0;" horiz-adv-x="882" 
d="M433 -12q-79 0 -146.5 27t-117 75.5t-77 114t-27.5 143.5q0 87 31.5 161t87.5 130t131 87t162 31h206q11 0 23.5 4t22.5 17.5t10 42.5q0 15 -3 31t-8 32h118q5 -15 8.5 -31.5t3.5 -33.5q0 -72 -29.5 -115t-80.5 -43h-71l29 24q65 -47 102.5 -121t37.5 -165
q0 -87 -32 -161.5t-88.5 -130.5t-131.5 -87.5t-161 -31.5zM433 112q58 0 108 21.5t88 60.5t59 91t21 112q0 70 -29.5 123t-82 83t-120.5 30q-58 0 -108 -21.5t-88 -60t-59 -90t-21 -112.5q0 -69 30 -122.5t82 -84t120 -30.5z" />
    <glyph glyph-name="ohorn" unicode="&#x1a1;" horiz-adv-x="656" 
d="M313 -12q-77 0 -139 34.5t-98 95t-36 138.5q0 63 23.5 117.5t65.5 95.5t97 64t118 23h106q11 0 24 4t22.5 17t9.5 43q0 14 -3 30t-8 32h118q5 -15 9 -31.5t4 -32.5q0 -61 -33.5 -101t-91.5 -50l11 36q48 -35 76.5 -90.5t28.5 -124.5q0 -62 -24 -116.5t-66 -96t-97 -64.5
t-117 -23zM314 108q48 0 85.5 24.5t59 66t21.5 91.5q0 43 -17 75.5t-48 51.5t-72 19q-48 0 -86 -24.5t-59 -65.5t-21 -92q0 -43 17 -75.5t48 -51.5t72 -19z" />
    <glyph glyph-name="Uhorn" unicode="&#x1af;" horiz-adv-x="718" 
d="M332 -12q-88 0 -152 37t-95.5 100.5t-20.5 143.5l66 476h137l-66 -475q-7 -46 8.5 -82t49 -56t80.5 -20q46 0 84 20t63.5 57t32.5 87l65 469h136l-68 -483q-10 -80 -54.5 -142t-113 -97t-152.5 -35zM665 649l13 96h21q11 0 23.5 4t22.5 17.5t10 42.5q0 15 -3 31t-8 32
h118q5 -15 8.5 -31.5t3.5 -33.5q0 -72 -45 -115t-122 -43h-42z" />
    <glyph glyph-name="uhorn" unicode="&#x1b0;" horiz-adv-x="661" 
d="M223 -12q-65 0 -109 29.5t-62.5 82.5t-8.5 124l45 320h132l-45 -322q-5 -34 5 -60t33 -40t55 -14q33 0 59.5 14.5t45 41t22.5 61.5l45 319h87q11 0 24 4t22.5 17.5t9.5 42.5q0 14 -3 30t-7 33h113q5 -16 8.5 -32.5t3.5 -32.5q0 -76 -50.5 -118t-135.5 -35l55 57l-72 -510
h-124l9 61q-28 -37 -68.5 -55t-88.5 -18z" />
    <glyph glyph-name="uni01C4" unicode="&#x1c4;" horiz-adv-x="1225" 
d="M34 0l104 745h230q107 0 186 -43t123 -118.5t44 -173.5q0 -89 -29 -164t-84.5 -130t-131.5 -85.5t-171 -30.5h-271zM187 120h119q62 0 112.5 20.5t87.5 59t57 91t20 115.5q0 68 -27 117t-77 75.5t-120 26.5h-102zM720 0l13 106l356 363l26 -42h-322l17 117h438l-13 -107
l-354 -363l-22 42h331l-16 -116h-454zM954 640l-94 165h122l52 -89l77 89h139l-141 -165h-155z" />
    <glyph glyph-name="uni01C5" unicode="&#x1c5;" horiz-adv-x="1225" 
d="M34 0l104 745h230q107 0 186 -43t123 -118.5t44 -173.5q0 -89 -29 -164t-84.5 -130t-131.5 -85.5t-171 -30.5h-271zM187 120h119q62 0 112.5 20.5t87.5 59t57 91t20 115.5q0 68 -27 117t-77 75.5t-120 26.5h-102zM720 0l13 106l356 363l26 -42h-322l17 117h438l-13 -107
l-354 -363l-22 42h331l-16 -116h-454zM954 640l-94 165h122l52 -89l77 89h139l-141 -165h-155z" />
    <glyph glyph-name="uni01C6" unicode="&#x1c6;" horiz-adv-x="1151" 
d="M297 -12q-77 0 -135 33t-90.5 91.5t-32.5 134.5q0 69 23.5 125.5t65 97.5t96 63.5t115.5 22.5q65 0 113.5 -25.5t74.5 -69.5l-28 -25l44 321h133l-105 -757h-125l14 105l29 -20q-30 -48 -81.5 -72.5t-110.5 -24.5zM315 108q49 0 86.5 24.5t58.5 66t21 91.5q0 42 -17.5 75
t-48 52t-71.5 19q-49 0 -87 -24.5t-59.5 -65.5t-21.5 -92q0 -43 17.5 -75.5t49 -51.5t72.5 -19zM646 0l13 106l356 363l26 -42h-322l17 117h438l-13 -107l-354 -363l-22 42h331l-16 -116h-454zM880 640l-94 165h122l52 -89l77 89h139l-141 -165h-155z" />
    <glyph glyph-name="uni01C7" unicode="&#x1c7;" horiz-adv-x="1157" 
d="M34 0l104 745h136l-87 -625h319l-17 -120h-455zM800 -12q-105 0 -169 54t-71 144l129 28q7 -51 37.5 -76.5t78.5 -25.5q58 0 96 34t45 90l71 509h136l-72 -516q-10 -70 -46.5 -124t-96 -85.5t-138.5 -31.5z" />
    <glyph glyph-name="uni01C8" unicode="&#x1c8;" horiz-adv-x="800" 
d="M34 0l104 745h136l-87 -625h319l-17 -120h-455zM471 -221q-15 0 -30 1.5t-24 3.5l9 112q9 -1 17.5 -1.5t14.5 -0.5q45 0 73.5 21.5t33.5 60.5l80 568h132l-80 -575q-9 -62 -39 -104.5t-78 -64t-109 -21.5zM654 605l19 140h133l-20 -140h-132z" />
    <glyph glyph-name="uni01C9" unicode="&#x1c9;" horiz-adv-x="510" 
d="M23 0l106 757h132l-106 -757h-132zM182 -221q-15 0 -30 1.5t-24 3.5l9 112q9 -1 17.5 -1.5t14.5 -0.5q45 0 73.5 21.5t33.5 60.5l80 568h132l-80 -575q-9 -62 -39 -104.5t-78 -64t-109 -21.5zM365 605l19 140h133l-20 -140h-132z" />
    <glyph glyph-name="uni01CA" unicode="&#x1ca;" horiz-adv-x="1134" 
d="M34 0l104 745h107l323 -552l-48 -11l79 563h136l-104 -745h-107l-319 556l44 11l-79 -567h-136zM742 0l17 125h41q49 0 82 27.5t40 73.5l73 519h136l-75 -536q-8 -59 -40.5 -106t-87 -75t-127.5 -28h-59z" />
    <glyph glyph-name="uni01CB" unicode="&#x1cb;" horiz-adv-x="998" 
d="M34 0l104 745h107l323 -552l-48 -11l79 563h136l-104 -745h-107l-319 556l44 11l-79 -567h-136zM669 -221q-15 0 -30 1.5t-24 3.5l9 112q9 -1 17.5 -1.5t14.5 -0.5q45 0 73.5 21.5t33.5 60.5l80 568h132l-80 -575q-9 -62 -39 -104.5t-78 -64t-109 -21.5zM852 605l19 140
h133l-20 -140h-132z" />
    <glyph glyph-name="uni01CC" unicode="&#x1cc;" horiz-adv-x="850" 
d="M23 0l76 544h123l-14 -107l-8 22q26 50 71 73.5t100 23.5q62 0 105.5 -29t64 -78.5t11.5 -111.5l-47 -337h-131l45 322q7 52 -19 83t-74 31q-32 0 -59.5 -14.5t-45 -40.5t-23.5 -62l-44 -319h-131zM521 -221q-15 0 -30 1.5t-24 3.5l9 112q9 -1 17.5 -1.5t14.5 -0.5
q45 0 73.5 21.5t33.5 60.5l80 568h132l-80 -575q-9 -62 -39 -104.5t-78 -64t-109 -21.5zM704 605l19 140h133l-20 -140h-132z" />
    <glyph glyph-name="Gcaron" unicode="&#x1e6;" horiz-adv-x="814" 
d="M412 -12q-72 0 -135 25t-110.5 72t-74.5 113t-27 147q0 86 30.5 161t84.5 131.5t126.5 88t157.5 31.5q80 0 142 -27t103 -71.5t56 -97.5l-125 -58q-18 58 -65 94t-120 36q-56 0 -102.5 -21.5t-80.5 -60t-52.5 -89.5t-18.5 -111q0 -72 27.5 -126t77.5 -83.5t116 -29.5
q58 0 105.5 22.5t79 64.5t37.5 98l7 57l58 -54h-276l9 115h351l-9 -90q-7 -82 -40.5 -145t-84.5 -105.5t-114.5 -64.5t-132.5 -22zM403 842l-94 165h122l52 -89l77 89h139l-141 -165h-155z" />
    <glyph glyph-name="gcaron" unicode="&#x1e7;" horiz-adv-x="654" 
d="M266 -220q-62 0 -113 21t-84.5 57.5t-43.5 84.5l124 38q7 -38 40 -59.5t87 -21.5q39 0 71 15t53 42t25 63l19 131l33 -32q-31 -49 -78.5 -73t-107.5 -24q-72 0 -128.5 32t-88.5 88.5t-32 129.5q0 61 21.5 113t59.5 90t89 59.5t110 21.5q64 0 115 -26t79 -75l-26 -31
l16 120h125l-73 -528q-9 -69 -49.5 -122t-103 -83.5t-139.5 -30.5zM309 143q45 0 80.5 22t55 58t19.5 79q0 39 -16 69t-44.5 47.5t-68.5 17.5q-44 0 -79.5 -21.5t-56.5 -57.5t-21 -82q0 -38 16.5 -68t46 -47t68.5 -17zM295 640l-94 165h122l52 -89l77 89h139l-141 -165h-155
z" />
    <glyph glyph-name="uni01EA" unicode="&#x1ea;" horiz-adv-x="882" 
d="M433 -12q-79 0 -146.5 27t-117 75.5t-77 114t-27.5 143.5q0 87 31.5 161t87.5 130t131 87t162 31q80 0 147.5 -26.5t117 -75t77 -114t27.5 -142.5q0 -87 -32 -161.5t-88.5 -130.5t-131.5 -87.5t-161 -31.5zM433 112q58 0 108 21.5t88 60.5t59 91t21 112q0 70 -29.5 123
t-82 83t-120.5 30q-58 0 -108 -21.5t-88 -60t-59 -90t-21 -112.5q0 -69 30 -122.5t82 -84t120 -30.5zM363 -237q-58 0 -91 29t-33 74q0 43 22 79t61.5 60.5t91.5 33.5h29l-6 -39q-23 -4 -43 -21t-32 -39.5t-12 -46.5q0 -20 14 -31.5t32 -11.5q17 0 31.5 5t28.5 16l18 -75
q-23 -15 -50 -24t-61 -9z" />
    <glyph glyph-name="uni01EB" unicode="&#x1eb;" horiz-adv-x="656" 
d="M313 -12q-77 0 -139 34.5t-98 95t-36 138.5q0 63 23.5 117.5t65.5 95.5t97 64t118 23q77 0 139 -34.5t98 -94.5t36 -139q0 -62 -24 -116.5t-66 -96t-97 -64.5t-117 -23zM314 108q48 0 85.5 24.5t59 66t21.5 91.5q0 43 -17 75.5t-48 51.5t-72 19q-48 0 -86 -24.5
t-59 -65.5t-21 -92q0 -43 17 -75.5t48 -51.5t72 -19zM250 -237q-58 0 -91 29t-33 74q0 43 22 79t61.5 60.5t91.5 33.5h29l-6 -39q-23 -4 -43 -21t-32 -39.5t-12 -46.5q0 -20 14 -31.5t32 -11.5q17 0 31.5 5t28.5 16l18 -75q-23 -15 -50 -24t-61 -9z" />
    <glyph glyph-name="Aringacute" unicode="&#x1fa;" horiz-adv-x="712" 
d="M-27 0l361 745h176l153 -745h-142l-31 160h-287l-76 -160h-154zM259 280h208l-71 369l37 -4zM431 800q-49 0 -79.5 28t-30.5 74q0 39 19.5 70t51.5 50t72 19q49 0 79 -28t30 -74q0 -38 -19 -70t-51.5 -50.5t-71.5 -18.5zM442 878q20 0 34 15t14 35q0 16 -10.5 25.5
t-26.5 9.5q-20 0 -34 -14t-14 -36q0 -15 10 -25t27 -10zM428 975l73 162h148l-106 -162h-115z" />
    <glyph glyph-name="aringacute" unicode="&#x1fb;" 
d="M201 -12q-52 0 -92.5 17t-63.5 50t-23 81q0 52 26 89t72 60.5t106 32.5l183 29l-10 -100l-154 -27q-37 -7 -62 -25.5t-25 -50.5q0 -28 20.5 -42t52.5 -14q40 0 72 18.5t53 49.5t25 68l19 136q4 27 -8.5 45.5t-34.5 28.5t-48 10q-45 0 -80.5 -24t-54.5 -61l-103 58
q21 43 57.5 73.5t85 48t103.5 17.5q66 0 117.5 -26t78.5 -71t18 -105l-49 -354h-125l13 93l33 -1q-25 -35 -56 -58t-67.5 -34.5t-78.5 -11.5zM338 598q-49 0 -79.5 28t-30.5 74q0 39 19.5 70t51.5 50t72 19q49 0 79 -28t30 -74q0 -38 -19 -70t-51.5 -50.5t-71.5 -18.5z
M349 676q20 0 34 15t14 35q0 16 -10.5 25.5t-26.5 9.5q-20 0 -34 -14t-14 -36q0 -15 10 -25t27 -10zM335 773l73 162h148l-106 -162h-115z" />
    <glyph glyph-name="AEacute" unicode="&#x1fc;" horiz-adv-x="991" 
d="M-27 0l361 745h696l-17 -120h-360l-26 -191h339l-16 -120h-340l-27 -194h359l-17 -120h-495l22 160h-248l-76 -160h-155zM259 280h210l48 345h-93zM511 842l90 173h170l-131 -173h-129z" />
    <glyph glyph-name="aeacute" unicode="&#x1fd;" horiz-adv-x="968" 
d="M201 -12q-52 0 -92.5 17t-63.5 50t-23 81q0 52 26 89t72 60.5t106 32.5l172 27l2 15q3 27 -9 45.5t-34 28.5t-48 10q-45 0 -80.5 -24t-54.5 -61l-103 58q21 43 57.5 73.5t85 48t103.5 17.5q45 0 83.5 -12.5t68 -35t44.5 -54.5l-47 2q40 46 95.5 73t120.5 27
q81 0 136.5 -33t84.5 -88.5t29 -124.5q0 -18 -3 -37t-7 -38h-393q2 -42 18.5 -71t45.5 -45t68 -16q46 0 79.5 20t53.5 51l104 -54q-19 -39 -54.5 -69t-83 -46.5t-101.5 -16.5q-63 0 -113 22.5t-83 61.5l35 35l-16 -107h-125l16 108l21 -29q-25 -30 -55 -50.5t-64 -30.5
t-74 -10zM231 88q40 0 72 18.5t53 49.5t25 68l3 21l-139 -25q-37 -7 -62 -25.5t-25 -50.5q0 -28 20.5 -42t52.5 -14zM539 335h256q1 33 -13.5 58.5t-40 40t-60.5 14.5q-38 0 -66.5 -14.5t-47 -39.5t-28.5 -59zM471 640l90 173h170l-131 -173h-129z" />
    <glyph glyph-name="Oslashacute" unicode="&#x1fe;" horiz-adv-x="882" 
d="M22 0l714 745h152l-714 -745h-152zM433 -12q-79 0 -146.5 27t-117 75.5t-77 114t-27.5 143.5q0 87 31.5 161t87.5 130t131 87t162 31q80 0 147.5 -26.5t117 -75t77 -114t27.5 -142.5q0 -87 -32 -161.5t-88.5 -130.5t-131.5 -87.5t-161 -31.5zM433 112q58 0 108 21.5
t88 60.5t59 91t21 112q0 70 -29.5 123t-82 83t-120.5 30q-58 0 -108 -21.5t-88 -60t-59 -90t-21 -112.5q0 -69 30 -122.5t82 -84t120 -30.5zM456 842l90 173h170l-131 -173h-129z" />
    <glyph glyph-name="oslashacute" unicode="&#x1ff;" horiz-adv-x="656" 
d="M-19 0l545 544h150l-545 -544h-150zM313 -12q-77 0 -139 34.5t-98 95t-36 138.5q0 63 23.5 117.5t65.5 95.5t97 64t118 23q77 0 139 -34.5t98 -94.5t36 -139q0 -62 -24 -116.5t-66 -96t-97 -64.5t-117 -23zM314 108q48 0 85.5 24.5t59 66t21.5 91.5q0 43 -17 75.5
t-48 51.5t-72 19q-48 0 -86 -24.5t-59 -65.5t-21 -92q0 -43 17 -75.5t48 -51.5t72 -19zM315 640l90 173h170l-131 -173h-129z" />
    <glyph glyph-name="uni0200" unicode="&#x200;" horiz-adv-x="712" 
d="M-27 0l361 745h176l153 -745h-142l-31 160h-287l-76 -160h-154zM259 280h208l-71 369l37 -4zM261 842l-81 176h168l40 -176h-127zM483 842l-82 176h168l41 -176h-127z" />
    <glyph glyph-name="uni0201" unicode="&#x201;" 
d="M201 -12q-52 0 -92.5 17t-63.5 50t-23 81q0 52 26 89t72 60.5t106 32.5l183 29l-10 -100l-154 -27q-37 -7 -62 -25.5t-25 -50.5q0 -28 20.5 -42t52.5 -14q40 0 72 18.5t53 49.5t25 68l19 136q4 27 -8.5 45.5t-34.5 28.5t-48 10q-45 0 -80.5 -24t-54.5 -61l-103 58
q21 43 57.5 73.5t85 48t103.5 17.5q66 0 117.5 -26t78.5 -71t18 -105l-49 -354h-125l13 93l33 -1q-25 -35 -56 -58t-67.5 -34.5t-78.5 -11.5zM168 640l-81 176h168l40 -176h-127zM390 640l-82 176h168l41 -176h-127z" />
    <glyph glyph-name="uni0202" unicode="&#x202;" horiz-adv-x="712" 
d="M-27 0l361 745h176l153 -745h-142l-31 160h-287l-76 -160h-154zM259 280h208l-71 369l37 -4zM236 842q6 41 31.5 79t72 62t115.5 24t110.5 -23.5t59 -61t12.5 -80.5h-128q3 30 -13.5 47t-49.5 17t-54 -17t-27 -47h-129z" />
    <glyph glyph-name="uni0203" unicode="&#x203;" 
d="M201 -12q-52 0 -92.5 17t-63.5 50t-23 81q0 52 26 89t72 60.5t106 32.5l183 29l-10 -100l-154 -27q-37 -7 -62 -25.5t-25 -50.5q0 -28 20.5 -42t52.5 -14q40 0 72 18.5t53 49.5t25 68l19 136q4 27 -8.5 45.5t-34.5 28.5t-48 10q-45 0 -80.5 -24t-54.5 -61l-103 58
q21 43 57.5 73.5t85 48t103.5 17.5q66 0 117.5 -26t78.5 -71t18 -105l-49 -354h-125l13 93l33 -1q-25 -35 -56 -58t-67.5 -34.5t-78.5 -11.5zM142 640q6 41 31.5 79t72 62t115.5 24t110.5 -23.5t59 -61t12.5 -80.5h-128q3 30 -13.5 47t-49.5 17t-54 -17t-27 -47h-129z" />
    <glyph glyph-name="uni0204" unicode="&#x204;" horiz-adv-x="595" 
d="M34 0l104 745h496l-17 -120h-360l-26 -191h339l-16 -120h-340l-27 -194h359l-16 -120h-496zM225 842l-81 176h168l40 -176h-127zM447 842l-82 176h168l41 -176h-127z" />
    <glyph glyph-name="uni0205" unicode="&#x205;" horiz-adv-x="613" 
d="M304 -12q-80 0 -139.5 35t-92 95.5t-32.5 135.5q0 62 21.5 116.5t61 96.5t91.5 65.5t114 23.5q80 0 136 -33t85 -88.5t29 -124.5q0 -18 -3 -37t-8 -38h-420l7 100h345l-65 -45q13 45 2.5 80.5t-39 56.5t-70.5 21q-55 0 -88.5 -27t-49 -73.5t-15.5 -103.5q0 -44 16.5 -76
t46.5 -48.5t70 -16.5q45 0 79 20t54 51l104 -54q-19 -39 -54.5 -69t-83 -46.5t-102.5 -16.5zM184 640l-81 176h168l40 -176h-127zM406 640l-82 176h168l41 -176h-127z" />
    <glyph glyph-name="uni0206" unicode="&#x206;" horiz-adv-x="595" 
d="M34 0l104 745h496l-17 -120h-360l-26 -191h339l-16 -120h-340l-27 -194h359l-16 -120h-496zM199 842q6 41 31.5 79t72 62t115.5 24t110.5 -23.5t59 -61t12.5 -80.5h-128q3 30 -13.5 47t-49.5 17t-54 -17t-27 -47h-129z" />
    <glyph glyph-name="uni0207" unicode="&#x207;" horiz-adv-x="613" 
d="M304 -12q-80 0 -139.5 35t-92 95.5t-32.5 135.5q0 62 21.5 116.5t61 96.5t91.5 65.5t114 23.5q80 0 136 -33t85 -88.5t29 -124.5q0 -18 -3 -37t-8 -38h-420l7 100h345l-65 -45q13 45 2.5 80.5t-39 56.5t-70.5 21q-55 0 -88.5 -27t-49 -73.5t-15.5 -103.5q0 -44 16.5 -76
t46.5 -48.5t70 -16.5q45 0 79 20t54 51l104 -54q-19 -39 -54.5 -69t-83 -46.5t-102.5 -16.5zM158 640q6 41 31.5 79t72 62t115.5 24t110.5 -23.5t59 -61t12.5 -80.5h-128q3 30 -13.5 47t-49.5 17t-54 -17t-27 -47h-129z" />
    <glyph glyph-name="uni0208" unicode="&#x208;" horiz-adv-x="280" 
d="M34 0l104 745h136l-104 -745h-136zM45 842l-81 176h168l40 -176h-127zM267 842l-82 176h168l41 -176h-127z" />
    <glyph glyph-name="uni0209" unicode="&#x209;" horiz-adv-x="230" 
d="M11 0l76 544h132l-76 -544h-132zM-8 640l-81 176h168l40 -176h-127zM214 640l-82 176h168l41 -176h-127z" />
    <glyph glyph-name="uni020A" unicode="&#x20a;" horiz-adv-x="280" 
d="M34 0l104 745h136l-104 -745h-136zM20 842q6 41 31.5 79t72 62t115.5 24t110.5 -23.5t59 -61t12.5 -80.5h-128q3 30 -13.5 47t-49.5 17t-54 -17t-27 -47h-129z" />
    <glyph glyph-name="uni020B" unicode="&#x20b;" horiz-adv-x="230" 
d="M11 0l76 544h132l-76 -544h-132zM-34 640q6 41 31.5 79t72 62t115.5 24t110.5 -23.5t59 -61t12.5 -80.5h-128q3 30 -13.5 47t-49.5 17t-54 -17t-27 -47h-129z" />
    <glyph glyph-name="uni020C" unicode="&#x20c;" horiz-adv-x="882" 
d="M433 -12q-79 0 -146.5 27t-117 75.5t-77 114t-27.5 143.5q0 87 31.5 161t87.5 130t131 87t162 31q80 0 147.5 -26.5t117 -75t77 -114t27.5 -142.5q0 -87 -32 -161.5t-88.5 -130.5t-131.5 -87.5t-161 -31.5zM433 112q58 0 108 21.5t88 60.5t59 91t21 112q0 70 -29.5 123
t-82 83t-120.5 30q-58 0 -108 -21.5t-88 -60t-59 -90t-21 -112.5q0 -69 30 -122.5t82 -84t120 -30.5zM346 842l-81 176h168l40 -176h-127zM568 842l-82 176h168l41 -176h-127z" />
    <glyph glyph-name="uni020D" unicode="&#x20d;" horiz-adv-x="656" 
d="M313 -12q-77 0 -139 34.5t-98 95t-36 138.5q0 63 23.5 117.5t65.5 95.5t97 64t118 23q77 0 139 -34.5t98 -94.5t36 -139q0 -62 -24 -116.5t-66 -96t-97 -64.5t-117 -23zM314 108q48 0 85.5 24.5t59 66t21.5 91.5q0 43 -17 75.5t-48 51.5t-72 19q-48 0 -86 -24.5
t-59 -65.5t-21 -92q0 -43 17 -75.5t48 -51.5t72 -19zM205 640l-81 176h168l40 -176h-127zM427 640l-82 176h168l41 -176h-127z" />
    <glyph glyph-name="uni020E" unicode="&#x20e;" horiz-adv-x="882" 
d="M433 -12q-79 0 -146.5 27t-117 75.5t-77 114t-27.5 143.5q0 87 31.5 161t87.5 130t131 87t162 31q80 0 147.5 -26.5t117 -75t77 -114t27.5 -142.5q0 -87 -32 -161.5t-88.5 -130.5t-131.5 -87.5t-161 -31.5zM433 112q58 0 108 21.5t88 60.5t59 91t21 112q0 70 -29.5 123
t-82 83t-120.5 30q-58 0 -108 -21.5t-88 -60t-59 -90t-21 -112.5q0 -69 30 -122.5t82 -84t120 -30.5zM321 842q6 41 31.5 79t72 62t115.5 24t110.5 -23.5t59 -61t12.5 -80.5h-128q3 30 -13.5 47t-49.5 17t-54 -17t-27 -47h-129z" />
    <glyph glyph-name="uni020F" unicode="&#x20f;" horiz-adv-x="656" 
d="M313 -12q-77 0 -139 34.5t-98 95t-36 138.5q0 63 23.5 117.5t65.5 95.5t97 64t118 23q77 0 139 -34.5t98 -94.5t36 -139q0 -62 -24 -116.5t-66 -96t-97 -64.5t-117 -23zM314 108q48 0 85.5 24.5t59 66t21.5 91.5q0 43 -17 75.5t-48 51.5t-72 19q-48 0 -86 -24.5
t-59 -65.5t-21 -92q0 -43 17 -75.5t48 -51.5t72 -19zM180 640q6 41 31.5 79t72 62t115.5 24t110.5 -23.5t59 -61t12.5 -80.5h-128q3 30 -13.5 47t-49.5 17t-54 -17t-27 -47h-129z" />
    <glyph glyph-name="uni0210" unicode="&#x210;" horiz-adv-x="669" 
d="M34 0l104 745h267q71 0 124 -26t82.5 -75.5t29.5 -121.5q0 -54 -19 -99t-55 -78t-87 -51l126 -294h-146l-138 330l82 -55h-195l-39 -275h-136zM226 395h145q39 0 69 16.5t47 45.5t17 66q0 47 -29.5 74.5t-80.5 27.5h-137zM235 842l-81 176h168l40 -176h-127zM457 842
l-82 176h168l41 -176h-127z" />
    <glyph glyph-name="uni0211" unicode="&#x211;" horiz-adv-x="374" 
d="M23 0l76 544h124l-16 -121l-9 18q28 61 71.5 85t100.5 24h32l-16 -116h-47q-56 0 -94.5 -35.5t-49.5 -105.5l-40 -293h-132zM89 640l-81 176h168l40 -176h-127zM311 640l-82 176h168l41 -176h-127z" />
    <glyph glyph-name="uni0212" unicode="&#x212;" horiz-adv-x="669" 
d="M34 0l104 745h267q71 0 124 -26t82.5 -75.5t29.5 -121.5q0 -54 -19 -99t-55 -78t-87 -51l126 -294h-146l-138 330l82 -55h-195l-39 -275h-136zM226 395h145q39 0 69 16.5t47 45.5t17 66q0 47 -29.5 74.5t-80.5 27.5h-137zM209 842q6 41 31.5 79t72 62t115.5 24
t110.5 -23.5t59 -61t12.5 -80.5h-128q3 30 -13.5 47t-49.5 17t-54 -17t-27 -47h-129z" />
    <glyph glyph-name="uni0213" unicode="&#x213;" horiz-adv-x="374" 
d="M23 0l76 544h124l-16 -121l-9 18q28 61 71.5 85t100.5 24h32l-16 -116h-47q-56 0 -94.5 -35.5t-49.5 -105.5l-40 -293h-132zM63 640q6 41 31.5 79t72 62t115.5 24t110.5 -23.5t59 -61t12.5 -80.5h-128q3 30 -13.5 47t-49.5 17t-54 -17t-27 -47h-129z" />
    <glyph glyph-name="uni0214" unicode="&#x214;" horiz-adv-x="718" 
d="M332 -12q-88 0 -152 37t-95.5 100.5t-20.5 143.5l66 476h137l-66 -475q-7 -46 8.5 -82t49 -56t80.5 -20q46 0 84 20t63.5 57t32.5 87l65 469h136l-68 -483q-10 -80 -54.5 -142t-113 -97t-152.5 -35zM264 842l-81 176h168l40 -176h-127zM486 842l-82 176h168l41 -176h-127
z" />
    <glyph glyph-name="uni0215" unicode="&#x215;" horiz-adv-x="594" 
d="M223 -12q-65 0 -109 29.5t-62.5 82.5t-8.5 124l45 320h132l-45 -322q-5 -34 5 -60t33 -40t55 -14q33 0 59.5 14.5t45 41t22.5 61.5l45 319h131l-76 -544h-124l14 107l9 -22q-25 -50 -70.5 -73.5t-100.5 -23.5zM174 640l-81 176h168l40 -176h-127zM396 640l-82 176h168
l41 -176h-127z" />
    <glyph glyph-name="uni0216" unicode="&#x216;" horiz-adv-x="718" 
d="M332 -12q-88 0 -152 37t-95.5 100.5t-20.5 143.5l66 476h137l-66 -475q-7 -46 8.5 -82t49 -56t80.5 -20q46 0 84 20t63.5 57t32.5 87l65 469h136l-68 -483q-10 -80 -54.5 -142t-113 -97t-152.5 -35zM239 842q6 41 31.5 79t72 62t115.5 24t110.5 -23.5t59 -61t12.5 -80.5
h-128q3 30 -13.5 47t-49.5 17t-54 -17t-27 -47h-129z" />
    <glyph glyph-name="uni0217" unicode="&#x217;" horiz-adv-x="594" 
d="M223 -12q-65 0 -109 29.5t-62.5 82.5t-8.5 124l45 320h132l-45 -322q-5 -34 5 -60t33 -40t55 -14q33 0 59.5 14.5t45 41t22.5 61.5l45 319h131l-76 -544h-124l14 107l9 -22q-25 -50 -70.5 -73.5t-100.5 -23.5zM148 640q6 41 31.5 79t72 62t115.5 24t110.5 -23.5t59 -61
t12.5 -80.5h-128q3 30 -13.5 47t-49.5 17t-54 -17t-27 -47h-129z" />
    <glyph glyph-name="uni0218" unicode="&#x218;" horiz-adv-x="649" 
d="M325 -12q-75 0 -136.5 26t-103 73.5t-57.5 110.5l117 44q19 -64 67.5 -99.5t112.5 -35.5q39 0 68 13.5t44.5 36.5t15.5 51q0 29 -17.5 49t-55.5 32l-132 44q-79 26 -118 75t-39 119q0 65 34.5 117t93.5 82.5t134 30.5q70 0 126 -24t93.5 -66t51.5 -99l-116 -44
q-15 54 -57 84t-101 30q-36 0 -64 -12.5t-43.5 -34.5t-15.5 -52t18.5 -51.5t57.5 -34.5l125 -43q82 -27 122 -75t40 -118q0 -63 -35 -115t-94.5 -83t-135.5 -31zM139 -257l56 187h167l-100 -187h-123z" />
    <glyph glyph-name="uni0219" unicode="&#x219;" horiz-adv-x="512" 
d="M238 -12q-57 0 -105 19.5t-80 55t-44 82.5l101 41q18 -45 52.5 -70t80.5 -25q40 0 62.5 18t22.5 44q0 23 -17 35t-38 17l-87 25q-60 17 -92.5 55.5t-32.5 92.5q0 51 28 91t76.5 63.5t108.5 23.5q79 0 135.5 -38.5t74.5 -105.5l-103 -41q-9 36 -40.5 57t-71.5 21
q-35 0 -57.5 -16t-22.5 -42q0 -24 17 -36t40 -18l84 -26q62 -19 94.5 -56.5t32.5 -89.5q0 -50 -28 -90t-77.5 -63.5t-113.5 -23.5zM70 -257l56 187h167l-100 -187h-123z" />
    <glyph glyph-name="uni021A" unicode="&#x21a;" horiz-adv-x="542" 
d="M167 0l87 625h-193l16 120h520l-16 -120h-191l-87 -625h-136zM85 -257l56 187h167l-100 -187h-123z" />
    <glyph glyph-name="uni021B" unicode="&#x21b;" horiz-adv-x="416" 
d="M277 -6q-94 0 -139.5 52.5t-33.5 143.5l33 237h-93l16 117h7q40 0 67 23t32 63l5 38h133l-17 -124h123l-16 -117h-124l-33 -236q-4 -28 1.5 -46t23 -27t48.5 -9q9 0 18 0.5t21 2.5l-10 -112q-14 -4 -31.5 -5t-30.5 -1zM118 -257l56 187h167l-100 -187h-123z" />
    <glyph glyph-name="uni022A" unicode="&#x22a;" horiz-adv-x="882" 
d="M433 -12q-79 0 -146.5 27t-117 75.5t-77 114t-27.5 143.5q0 87 31.5 161t87.5 130t131 87t162 31q80 0 147.5 -26.5t117 -75t77 -114t27.5 -142.5q0 -87 -32 -161.5t-88.5 -130.5t-131.5 -87.5t-161 -31.5zM433 112q58 0 108 21.5t88 60.5t59 91t21 112q0 70 -29.5 123
t-82 83t-120.5 30q-58 0 -108 -21.5t-88 -60t-59 -90t-21 -112.5q0 -69 30 -122.5t82 -84t120 -30.5zM344 842l20 138h137l-20 -138h-137zM561 842l20 138h138l-20 -138h-138zM388 1040l15 108h323l-15 -108h-323z" />
    <glyph glyph-name="uni022B" unicode="&#x22b;" horiz-adv-x="656" 
d="M313 -12q-77 0 -139 34.5t-98 95t-36 138.5q0 63 23.5 117.5t65.5 95.5t97 64t118 23q77 0 139 -34.5t98 -94.5t36 -139q0 -62 -24 -116.5t-66 -96t-97 -64.5t-117 -23zM314 108q48 0 85.5 24.5t59 66t21.5 91.5q0 43 -17 75.5t-48 51.5t-72 19q-48 0 -86 -24.5
t-59 -65.5t-21 -92q0 -43 17 -75.5t48 -51.5t72 -19zM203 640l20 138h137l-20 -138h-137zM420 640l20 138h138l-20 -138h-138zM247 838l15 108h323l-15 -108h-323z" />
    <glyph glyph-name="uni022C" unicode="&#x22c;" horiz-adv-x="882" 
d="M433 -12q-79 0 -146.5 27t-117 75.5t-77 114t-27.5 143.5q0 87 31.5 161t87.5 130t131 87t162 31q80 0 147.5 -26.5t117 -75t77 -114t27.5 -142.5q0 -87 -32 -161.5t-88.5 -130.5t-131.5 -87.5t-161 -31.5zM433 112q58 0 108 21.5t88 60.5t59 91t21 112q0 70 -29.5 123
t-82 83t-120.5 30q-58 0 -108 -21.5t-88 -60t-59 -90t-21 -112.5q0 -69 30 -122.5t82 -84t120 -30.5zM594 842q-28 0 -45 8.5t-29 19t-23.5 19t-28.5 8.5q-18 0 -28 -13.5t-13 -37.5h-102q7 54 29 88t52 50.5t64 16.5q28 0 45.5 -8t30 -19t24 -19t27.5 -8q20 0 29.5 14
t12.5 36h102q-12 -77 -54 -116t-93 -39zM389 1045l15 107h323l-16 -107h-322z" />
    <glyph glyph-name="uni022D" unicode="&#x22d;" horiz-adv-x="656" 
d="M313 -12q-77 0 -139 34.5t-98 95t-36 138.5q0 63 23.5 117.5t65.5 95.5t97 64t118 23q77 0 139 -34.5t98 -94.5t36 -139q0 -62 -24 -116.5t-66 -96t-97 -64.5t-117 -23zM314 108q48 0 85.5 24.5t59 66t21.5 91.5q0 43 -17 75.5t-48 51.5t-72 19q-48 0 -86 -24.5
t-59 -65.5t-21 -92q0 -43 17 -75.5t48 -51.5t72 -19zM453 640q-28 0 -45 8.5t-29 19t-23.5 19t-28.5 8.5q-18 0 -28 -13.5t-13 -37.5h-102q7 54 29 88t52 50.5t64 16.5q28 0 45.5 -8t30 -19t24 -19t27.5 -8q20 0 29.5 14t12.5 36h102q-12 -77 -54 -116t-93 -39zM248 843
l15 107h323l-16 -107h-322z" />
    <glyph glyph-name="uni0230" unicode="&#x230;" horiz-adv-x="882" 
d="M433 -12q-79 0 -146.5 27t-117 75.5t-77 114t-27.5 143.5q0 87 31.5 161t87.5 130t131 87t162 31q80 0 147.5 -26.5t117 -75t77 -114t27.5 -142.5q0 -87 -32 -161.5t-88.5 -130.5t-131.5 -87.5t-161 -31.5zM433 112q58 0 108 21.5t88 60.5t59 91t21 112q0 70 -29.5 123
t-82 83t-120.5 30q-58 0 -108 -21.5t-88 -60t-59 -90t-21 -112.5q0 -69 30 -122.5t82 -84t120 -30.5zM453 842l20 138h137l-20 -138h-137zM388 1040l16 108h322l-15 -108h-323z" />
    <glyph glyph-name="uni0231" unicode="&#x231;" horiz-adv-x="656" 
d="M313 -12q-77 0 -139 34.5t-98 95t-36 138.5q0 63 23.5 117.5t65.5 95.5t97 64t118 23q77 0 139 -34.5t98 -94.5t36 -139q0 -62 -24 -116.5t-66 -96t-97 -64.5t-117 -23zM314 108q48 0 85.5 24.5t59 66t21.5 91.5q0 43 -17 75.5t-48 51.5t-72 19q-48 0 -86 -24.5
t-59 -65.5t-21 -92q0 -43 17 -75.5t48 -51.5t72 -19zM312 640l20 138h137l-20 -138h-137zM247 838l16 108h322l-15 -108h-323z" />
    <glyph glyph-name="uni0232" unicode="&#x232;" horiz-adv-x="660" 
d="M224 0l46 330l-193 415h147l147 -324l-56 1l235 323h165l-307 -414l-46 -331h-138zM252 862l15 108h323l-16 -108h-322z" />
    <glyph glyph-name="uni0233" unicode="&#x233;" horiz-adv-x="586" 
d="M63 -221q-25 0 -45.5 4.5t-36.5 12.5l8 107q13 -3 30.5 -5.5t30.5 -2.5q30 0 50.5 10.5t36 29t28.5 40.5l49 80l-13 -110l-152 599h135l104 -442h-52l229 442h148l-322 -603q-28 -52 -62.5 -88.5t-75.5 -55t-90 -18.5zM186 660l15 108h323l-16 -108h-322z" />
    <glyph glyph-name="uni0237" unicode="&#x237;" horiz-adv-x="257" 
d="M-72 -221q-15 0 -30 1.5t-24 3.5l9 112q9 -1 17.5 -1.5t14.5 -0.5q45 0 73.5 21.5t33.5 60.5l80 568h132l-80 -575q-9 -62 -39 -104.5t-78 -64t-109 -21.5z" />
    <glyph glyph-name="uni0259" unicode="&#x259;" horiz-adv-x="613" 
d="M286 -12q-81 0 -136.5 33t-84.5 89t-29 124q0 18 3 37t7 38h421l-7 -100h-346l66 45q-13 -44 -3 -80t39 -57t71 -21q54 0 88 27t49.5 73.5t15.5 103.5q0 45 -16.5 76.5t-46.5 48t-70 16.5q-46 0 -80 -20t-53 -52l-105 55q20 39 55.5 69t82.5 46.5t102 16.5
q81 0 140.5 -35t92 -95.5t32.5 -135.5q0 -62 -21.5 -116.5t-61 -96.5t-92 -65.5t-113.5 -23.5z" />
    <glyph glyph-name="circumflex" unicode="&#x2c6;" horiz-adv-x="541" 
d="M175 640l140 165h155l95 -165h-123l-52 90l-77 -90h-138z" />
    <glyph glyph-name="caron" unicode="&#x2c7;" horiz-adv-x="541" 
d="M291 640l-94 165h122l52 -89l77 89h139l-141 -165h-155z" />
    <glyph glyph-name="breve" unicode="&#x2d8;" horiz-adv-x="523" 
d="M379 640q-68 0 -109.5 24t-59 61.5t-13.5 79.5h129q-2 -30 14 -47t49 -17t54 17t27 47h128q-6 -43 -32 -81t-72 -61t-115 -23z" />
    <glyph glyph-name="dotaccent" unicode="&#x2d9;" horiz-adv-x="295" 
d="M175 640l20 138h137l-20 -138h-137z" />
    <glyph glyph-name="ring" unicode="&#x2da;" horiz-adv-x="381" 
d="M294 598q-49 0 -79.5 28t-30.5 74q0 39 19.5 70t51.5 50t72 19q49 0 79 -28t30 -74q0 -38 -19 -70t-51.5 -50.5t-71.5 -18.5zM305 676q20 0 34 15t14 35q0 16 -10.5 25.5t-26.5 9.5q-20 0 -34 -14t-14 -36q0 -15 10 -25t27 -10z" />
    <glyph glyph-name="ogonek" unicode="&#x2db;" horiz-adv-x="381" 
d="M191 -237q-58 0 -91 29t-33 74q0 43 22 79t61.5 60.5t91.5 33.5h29l-6 -39q-23 -4 -43 -21t-32 -39.5t-12 -46.5q0 -20 14 -31.5t32 -11.5q17 0 31.5 5t28.5 16l18 -75q-23 -15 -50 -24t-61 -9z" />
    <glyph glyph-name="tilde" unicode="&#x2dc;" horiz-adv-x="525" 
d="M444 640q-28 0 -45 8.5t-29 19t-23.5 19t-28.5 8.5q-18 0 -28 -13.5t-13 -37.5h-102q7 54 29 88t52 50.5t64 16.5q28 0 45.5 -8t30 -19t24 -19t27.5 -8q20 0 29.5 14t12.5 36h102q-12 -77 -54 -116t-93 -39z" />
    <glyph glyph-name="hungarumlaut" unicode="&#x2dd;" horiz-adv-x="539" 
d="M175 640l67 173h168l-109 -173h-126zM396 640l68 173h168l-109 -173h-127z" />
    <glyph glyph-name="gravecomb" unicode="&#x300;" horiz-adv-x="0" 
d="M280 640l-81 173h170l40 -173h-129z" />
    <glyph glyph-name="acutecomb" unicode="&#x301;" horiz-adv-x="0" 
d="M175 640l90 173h170l-131 -173h-129z" />
    <glyph glyph-name="uni0302" unicode="&#x302;" horiz-adv-x="0" 
d="M175 640l140 165h155l95 -165h-123l-52 90l-77 -90h-138z" />
    <glyph glyph-name="tildecomb" unicode="&#x303;" horiz-adv-x="0" 
d="M444 640q-28 0 -45 8.5t-29 19t-23.5 19t-28.5 8.5q-18 0 -28 -13.5t-13 -37.5h-102q7 54 29 88t52 50.5t64 16.5q28 0 45.5 -8t30 -19t24 -19t27.5 -8q20 0 29.5 14t12.5 36h102q-12 -77 -54 -116t-93 -39z" />
    <glyph glyph-name="uni0304" unicode="&#x304;" horiz-adv-x="0" 
d="M177 660l15 108h323l-16 -108h-322z" />
    <glyph glyph-name="uni0306" unicode="&#x306;" horiz-adv-x="0" 
d="M379 640q-68 0 -109.5 24t-59 61.5t-13.5 79.5h129q-2 -30 14 -47t49 -17t54 17t27 47h128q-6 -43 -32 -81t-72 -61t-115 -23z" />
    <glyph glyph-name="uni0307" unicode="&#x307;" horiz-adv-x="0" 
d="M175 640l20 138h137l-20 -138h-137z" />
    <glyph glyph-name="uni0308" unicode="&#x308;" horiz-adv-x="0" 
d="M175 640l19 138h137l-19 -138h-137zM392 640l19 138h138l-19 -138h-138z" />
    <glyph glyph-name="hookabovecomb" unicode="&#x309;" horiz-adv-x="0" 
d="M298 600l-47 65q28 13 43 28.5t15 37.5q0 16 -13.5 25.5t-38.5 9.5q-12 0 -25 -1.5t-26 -7.5l-4 83q19 9 42 13t48 4q64 0 100 -27.5t36 -75.5q0 -34 -18 -63.5t-48 -52t-64 -38.5z" />
    <glyph glyph-name="uni030A" unicode="&#x30a;" horiz-adv-x="0" 
d="M294 598q-49 0 -79.5 28t-30.5 74q0 39 19.5 70t51.5 50t72 19q49 0 79 -28t30 -74q0 -38 -19 -70t-51.5 -50.5t-71.5 -18.5zM305 676q20 0 34 15t14 35q0 16 -10.5 25.5t-26.5 9.5q-20 0 -34 -14t-14 -36q0 -15 10 -25t27 -10z" />
    <glyph glyph-name="uni030B" unicode="&#x30b;" horiz-adv-x="0" 
d="M175 640l67 173h168l-109 -173h-126zM396 640l68 173h168l-109 -173h-127z" />
    <glyph glyph-name="uni030C" unicode="&#x30c;" horiz-adv-x="0" 
d="M291 640l-94 165h122l52 -89l77 89h139l-141 -165h-155z" />
    <glyph glyph-name="uni030F" unicode="&#x30f;" horiz-adv-x="0" 
d="M280 640l-81 176h168l40 -176h-127zM502 640l-82 176h168l41 -176h-127z" />
    <glyph glyph-name="uni0311" unicode="&#x311;" horiz-adv-x="0" 
d="M175 640q6 41 31.5 79t72 62t115.5 24t110.5 -23.5t59 -61t12.5 -80.5h-128q3 30 -13.5 47t-49.5 17t-54 -17t-27 -47h-129z" />
    <glyph glyph-name="uni0312" unicode="&#x312;" horiz-adv-x="0" 
d="M169 600l99 187h123l-55 -187h-167z" />
    <glyph glyph-name="uni031B" unicode="&#x31b;" horiz-adv-x="0" 
d="M175 640l12 93h7q6 0 19.5 3t25 16t11.5 44q0 15 -3 31.5t-8 32.5h113q5 -16 8.5 -32.5t3.5 -33.5q0 -70 -44 -112t-119 -42h-26z" />
    <glyph glyph-name="dotbelowcomb" unicode="&#x323;" horiz-adv-x="0" 
d="M53 -227l20 137h137l-20 -137h-137z" />
    <glyph glyph-name="uni0324" unicode="&#x324;" horiz-adv-x="0" 
d="M53 -227l20 137h137l-20 -137h-137zM270 -227l20 137h138l-20 -137h-138z" />
    <glyph glyph-name="uni0326" unicode="&#x326;" horiz-adv-x="0" 
d="M49 -257l56 187h167l-100 -187h-123z" />
    <glyph glyph-name="uni0327" unicode="&#x327;" horiz-adv-x="0" 
d="M165 -237q-27 0 -58 8.5t-52 24.5l40 75q14 -10 30.5 -15.5t33.5 -5.5q23 0 37 10.5t14 27.5t-21.5 27.5t-65.5 15.5l32 79h77l-15 -40q45 -6 72.5 -27.5t27.5 -56.5q0 -36 -20 -63.5t-54.5 -43.5t-77.5 -16z" />
    <glyph glyph-name="uni0328" unicode="&#x328;" horiz-adv-x="0" 
d="M191 -237q-58 0 -91 29t-33 74q0 43 22 79t61.5 60.5t91.5 33.5h29l-6 -39q-23 -4 -43 -21t-32 -39.5t-12 -46.5q0 -20 14 -31.5t32 -11.5q17 0 31.5 5t28.5 16l18 -75q-23 -15 -50 -24t-61 -9z" />
    <glyph glyph-name="uni032E" unicode="&#x32e;" horiz-adv-x="0" 
d="M254 -255q-69 0 -111 24.5t-59 63t-12 77.5h129q-2 -30 14.5 -47t47.5 -17q34 0 55 17t27 47h128q-7 -44 -32.5 -81.5t-71.5 -60.5t-115 -23z" />
    <glyph glyph-name="uni0331" unicode="&#x331;" horiz-adv-x="0" 
d="M56 -207l15 107h322l-14 -107h-323z" />
    <glyph glyph-name="uni0394" unicode="&#x394;" horiz-adv-x="630" 
d="M-27 0l17 120l304 625h176l128 -625l-17 -120h-608zM112 64l-36 56h435l-40 -56l-112 586h31z" />
    <glyph glyph-name="uni03A9" unicode="&#x3a9;" horiz-adv-x="902" 
d="M35 0l17 120h169l-30 -25q-60 44 -93 111t-33 147t31 152t87.5 129t132.5 90t166 33q81 0 147.5 -26.5t115 -75t75 -112t26.5 -138.5q0 -70 -22.5 -129t-59.5 -104.5t-84 -76.5l-27 25h178l-17 -120h-312l17 120q58 17 100.5 57t66 96t23.5 119q0 72 -30 126.5
t-83.5 84.5t-122.5 30q-59 0 -108.5 -22t-86.5 -61t-57 -89t-20 -107t20.5 -105t58 -81t84.5 -48l-17 -120h-312z" />
    <glyph glyph-name="pi" unicode="&#x3c0;" horiz-adv-x="682" 
d="M76 0l60 427h-92l16 117h638l-16 -117h-91l-60 -427h-131l60 427h-193l-59 -427h-132z" />
    <glyph glyph-name="uni0E3F" unicode="&#xe3f;" horiz-adv-x="697" 
d="M34 0l104 745h301q103 0 159.5 -48.5t56.5 -135.5q0 -40 -12.5 -74.5t-37 -61.5t-61.5 -47l-9 48q65 -28 91.5 -73.5t26.5 -97.5q0 -78 -35.5 -135.5t-101 -88.5t-154.5 -31h-328zM187 120h201q38 0 67 15.5t45 43.5t16 63q0 43 -28.5 69t-76.5 26h-194zM234 456h182
q30 0 53 13t36 35t13 51q0 34 -22.5 54t-61.5 20h-176zM246 -100l132 945h86l-132 -945h-86z" />
    <glyph glyph-name="uni1E08" unicode="&#x1e08;" horiz-adv-x="790" 
d="M414 -12q-75 0 -139 26t-111 74t-73 113.5t-26 145.5q0 85 29 159.5t82.5 130.5t126 88t158.5 32q81 0 143.5 -27.5t103.5 -72.5t57 -97l-125 -55q-18 57 -64.5 92.5t-118.5 35.5q-56 0 -102.5 -21t-81 -60t-53.5 -91.5t-19 -113.5q0 -72 26.5 -124.5t74.5 -81.5t112 -29
q74 0 127.5 37t79.5 94l118 -61q-22 -53 -69 -97t-112 -70.5t-144 -26.5zM393 -237q-27 0 -58 8.5t-52 24.5l40 75q14 -10 30.5 -15.5t33.5 -5.5q23 0 37 10.5t14 27.5t-21.5 27.5t-65.5 15.5l32 79h77l-15 -40q45 -6 72.5 -27.5t27.5 -56.5q0 -36 -20 -63.5t-54.5 -43.5
t-77.5 -16zM410 842l90 173h170l-131 -173h-129z" />
    <glyph glyph-name="uni1E09" unicode="&#x1e09;" horiz-adv-x="620" 
d="M307 -12q-77 0 -138 35t-95 95.5t-34 136.5q0 63 23 118t64.5 96t96 64t116.5 23q60 0 109 -20.5t83.5 -57t47.5 -84.5l-117 -48q-12 42 -45 66t-79 24q-48 0 -85 -25.5t-57 -66.5t-20 -89q0 -43 16.5 -76t47 -52t69.5 -19q49 0 86 25.5t56 67.5l111 -55q-19 -46 -57 -82
t-89 -56t-110 -20zM287 -237q-27 0 -58 8.5t-52 24.5l40 75q14 -10 30.5 -15.5t33.5 -5.5q23 0 37 10.5t14 27.5t-21.5 27.5t-65.5 15.5l32 79h77l-15 -40q45 -6 72.5 -27.5t27.5 -56.5q0 -36 -20 -63.5t-54.5 -43.5t-77.5 -16zM297 640l90 173h170l-131 -173h-129z" />
    <glyph glyph-name="uni1E0C" unicode="&#x1e0c;" horiz-adv-x="743" 
d="M34 0l104 745h230q107 0 186 -43t123 -118.5t44 -173.5q0 -89 -29 -164t-84.5 -130t-131.5 -85.5t-171 -30.5h-271zM187 120h119q62 0 112.5 20.5t87.5 59t57 91t20 115.5q0 68 -27 117t-77 75.5t-120 26.5h-102zM240 -227l20 137h137l-20 -137h-137z" />
    <glyph glyph-name="uni1E0D" unicode="&#x1e0d;" horiz-adv-x="669" 
d="M297 -12q-77 0 -135 33t-90.5 91.5t-32.5 134.5q0 69 23.5 125.5t65 97.5t96 63.5t115.5 22.5q65 0 113.5 -25.5t74.5 -69.5l-28 -25l44 321h133l-105 -757h-125l14 105l29 -20q-30 -48 -81.5 -72.5t-110.5 -24.5zM315 108q49 0 86.5 24.5t58.5 66t21 91.5q0 42 -17.5 75
t-48 52t-71.5 19q-49 0 -87 -24.5t-59.5 -65.5t-21.5 -92q0 -43 17.5 -75.5t49 -51.5t72.5 -19zM197 -227l20 137h137l-20 -137h-137z" />
    <glyph glyph-name="uni1E0E" unicode="&#x1e0e;" horiz-adv-x="743" 
d="M34 0l104 745h230q107 0 186 -43t123 -118.5t44 -173.5q0 -89 -29 -164t-84.5 -130t-131.5 -85.5t-171 -30.5h-271zM187 120h119q62 0 112.5 20.5t87.5 59t57 91t20 115.5q0 68 -27 117t-77 75.5t-120 26.5h-102zM151 -207l15 107h322l-14 -107h-323z" />
    <glyph glyph-name="uni1E0F" unicode="&#x1e0f;" horiz-adv-x="669" 
d="M297 -12q-77 0 -135 33t-90.5 91.5t-32.5 134.5q0 69 23.5 125.5t65 97.5t96 63.5t115.5 22.5q65 0 113.5 -25.5t74.5 -69.5l-28 -25l44 321h133l-105 -757h-125l14 105l29 -20q-30 -48 -81.5 -72.5t-110.5 -24.5zM315 108q49 0 86.5 24.5t58.5 66t21 91.5q0 42 -17.5 75
t-48 52t-71.5 19q-49 0 -87 -24.5t-59.5 -65.5t-21.5 -92q0 -43 17.5 -75.5t49 -51.5t72.5 -19zM107 -207l15 107h322l-14 -107h-323z" />
    <glyph glyph-name="uni1E14" unicode="&#x1e14;" horiz-adv-x="595" 
d="M34 0l104 745h496l-17 -120h-360l-26 -191h339l-16 -120h-340l-27 -194h359l-16 -120h-496zM241 862l16 108h322l-15 -108h-323zM362 1032l-82 173h171l40 -173h-129z" />
    <glyph glyph-name="uni1E15" unicode="&#x1e15;" horiz-adv-x="613" 
d="M304 -12q-80 0 -139.5 35t-92 95.5t-32.5 135.5q0 62 21.5 116.5t61 96.5t91.5 65.5t114 23.5q80 0 136 -33t85 -88.5t29 -124.5q0 -18 -3 -37t-8 -38h-420l7 100h345l-65 -45q13 45 2.5 80.5t-39 56.5t-70.5 21q-55 0 -88.5 -27t-49 -73.5t-15.5 -103.5q0 -44 16.5 -76
t46.5 -48.5t70 -16.5q45 0 79 20t54 51l104 -54q-19 -39 -54.5 -69t-83 -46.5t-102.5 -16.5zM200 660l16 108h322l-15 -108h-323zM321 830l-82 173h171l40 -173h-129z" />
    <glyph glyph-name="uni1E16" unicode="&#x1e16;" horiz-adv-x="595" 
d="M34 0l104 745h496l-17 -120h-360l-26 -191h339l-16 -120h-340l-27 -194h359l-16 -120h-496zM359 1032l90 173h170l-131 -173h-129zM239 862l15 108h323l-16 -108h-322z" />
    <glyph glyph-name="uni1E17" unicode="&#x1e17;" horiz-adv-x="613" 
d="M304 -12q-80 0 -139.5 35t-92 95.5t-32.5 135.5q0 62 21.5 116.5t61 96.5t91.5 65.5t114 23.5q80 0 136 -33t85 -88.5t29 -124.5q0 -18 -3 -37t-8 -38h-420l7 100h345l-65 -45q13 45 2.5 80.5t-39 56.5t-70.5 21q-55 0 -88.5 -27t-49 -73.5t-15.5 -103.5q0 -44 16.5 -76
t46.5 -48.5t70 -16.5q45 0 79 20t54 51l104 -54q-19 -39 -54.5 -69t-83 -46.5t-102.5 -16.5zM318 830l90 173h170l-131 -173h-129zM198 660l15 108h323l-16 -108h-322z" />
    <glyph glyph-name="uni1E1C" unicode="&#x1e1c;" horiz-adv-x="595" 
d="M34 0l104 745h496l-17 -120h-360l-26 -191h339l-16 -120h-340l-27 -194h359l-16 -120h-496zM260 -237q-27 0 -58 8.5t-52 24.5l40 75q14 -10 30.5 -15.5t33.5 -5.5q23 0 37 10.5t14 27.5t-21.5 27.5t-65.5 15.5l32 79h77l-15 -40q45 -6 72.5 -27.5t27.5 -56.5
q0 -36 -20 -63.5t-54.5 -43.5t-77.5 -16zM405 845q-68 0 -109.5 24t-59 61.5t-13.5 79.5h129q-2 -30 14 -47t49 -17t54 17t27 47h128q-6 -43 -32 -81t-72 -61t-115 -23z" />
    <glyph glyph-name="uni1E1D" unicode="&#x1e1d;" horiz-adv-x="613" 
d="M304 -12q-80 0 -139.5 35t-92 95.5t-32.5 135.5q0 62 21.5 116.5t61 96.5t91.5 65.5t114 23.5q80 0 136 -33t85 -88.5t29 -124.5q0 -18 -3 -37t-8 -38h-420l7 100h345l-65 -45q13 45 2.5 80.5t-39 56.5t-70.5 21q-55 0 -88.5 -27t-49 -73.5t-15.5 -103.5q0 -44 16.5 -76
t46.5 -48.5t70 -16.5q45 0 79 20t54 51l104 -54q-19 -39 -54.5 -69t-83 -46.5t-102.5 -16.5zM247 -237q-27 0 -58 8.5t-52 24.5l40 75q14 -10 30.5 -15.5t33.5 -5.5q23 0 37 10.5t14 27.5t-21.5 27.5t-65.5 15.5l32 79h77l-15 -40q45 -6 72.5 -27.5t27.5 -56.5
q0 -36 -20 -63.5t-54.5 -43.5t-77.5 -16zM364 644q-68 0 -109.5 24t-59 61.5t-13.5 79.5h129q-2 -30 14 -47t49 -17t54 17t27 47h128q-6 -43 -32 -81t-72 -61t-115 -23z" />
    <glyph glyph-name="uni1E20" unicode="&#x1e20;" horiz-adv-x="814" 
d="M412 -12q-72 0 -135 25t-110.5 72t-74.5 113t-27 147q0 86 30.5 161t84.5 131.5t126.5 88t157.5 31.5q80 0 142 -27t103 -71.5t56 -97.5l-125 -58q-18 58 -65 94t-120 36q-56 0 -102.5 -21.5t-80.5 -60t-52.5 -89.5t-18.5 -111q0 -72 27.5 -126t77.5 -83.5t116 -29.5
q58 0 105.5 22.5t79 64.5t37.5 98l7 57l58 -54h-276l9 115h351l-9 -90q-7 -82 -40.5 -145t-84.5 -105.5t-114.5 -64.5t-132.5 -22zM329 862l15 108h323l-16 -108h-322z" />
    <glyph glyph-name="uni1E21" unicode="&#x1e21;" horiz-adv-x="654" 
d="M266 -220q-62 0 -113 21t-84.5 57.5t-43.5 84.5l124 38q7 -38 40 -59.5t87 -21.5q39 0 71 15t53 42t25 63l19 131l33 -32q-31 -49 -78.5 -73t-107.5 -24q-72 0 -128.5 32t-88.5 88.5t-32 129.5q0 61 21.5 113t59.5 90t89 59.5t110 21.5q64 0 115 -26t79 -75l-26 -31
l16 120h125l-73 -528q-9 -69 -49.5 -122t-103 -83.5t-139.5 -30.5zM309 143q45 0 80.5 22t55 58t19.5 79q0 39 -16 69t-44.5 47.5t-68.5 17.5q-44 0 -79.5 -21.5t-56.5 -57.5t-21 -82q0 -38 16.5 -68t46 -47t68.5 -17zM221 660l15 108h323l-16 -108h-322z" />
    <glyph glyph-name="uni1E24" unicode="&#x1e24;" horiz-adv-x="733" 
d="M34 0l104 745h136l-45 -325h317l46 325h136l-104 -745h-136l41 300h-317l-42 -300h-136zM228 -227l20 137h137l-20 -137h-137z" />
    <glyph glyph-name="uni1E25" unicode="&#x1e25;" horiz-adv-x="593" 
d="M23 0l106 757h130l-44 -320l-15 22q26 50 71 73.5t100 23.5q62 0 105.5 -29t64 -78.5t11.5 -111.5l-47 -337h-131l44 322q8 52 -18 83t-74 31q-32 0 -59 -14.5t-45 -40.5t-24 -62l-44 -319h-131zM158 -227l20 137h137l-20 -137h-137z" />
    <glyph glyph-name="uni1E2A" unicode="&#x1e2a;" horiz-adv-x="733" 
d="M34 0l104 745h136l-45 -325h317l46 325h136l-104 -745h-136l41 300h-317l-42 -300h-136zM297 -255q-69 0 -111 24.5t-59 63t-12 77.5h129q-2 -30 14.5 -47t47.5 -17q34 0 55 17t27 47h128q-7 -44 -32.5 -81.5t-71.5 -60.5t-115 -23z" />
    <glyph glyph-name="uni1E2B" unicode="&#x1e2b;" horiz-adv-x="593" 
d="M23 0l106 757h130l-44 -320l-15 22q26 50 71 73.5t100 23.5q62 0 105.5 -29t64 -78.5t11.5 -111.5l-47 -337h-131l44 322q8 52 -18 83t-74 31q-32 0 -59 -14.5t-45 -40.5t-24 -62l-44 -319h-131zM227 -255q-69 0 -111 24.5t-59 63t-12 77.5h129q-2 -30 14.5 -47t47.5 -17
q34 0 55 17t27 47h128q-7 -44 -32.5 -81.5t-71.5 -60.5t-115 -23z" />
    <glyph glyph-name="uni1E2E" unicode="&#x1e2e;" horiz-adv-x="280" 
d="M34 0l104 745h136l-104 -745h-136zM182 1032l89 173h171l-131 -173h-129zM42 842l19 138h137l-19 -138h-137zM259 842l19 138h138l-19 -138h-138z" />
    <glyph glyph-name="uni1E2F" unicode="&#x1e2f;" horiz-adv-x="230" 
d="M11 0l76 544h132l-76 -544h-132zM128 830l89 173h171l-131 -173h-129zM-12 640l19 138h137l-19 -138h-137zM205 640l19 138h138l-19 -138h-138z" />
    <glyph glyph-name="uni1E36" unicode="&#x1e36;" horiz-adv-x="543" 
d="M34 0l104 745h136l-87 -625h319l-17 -120h-455zM161 -227l20 137h137l-20 -137h-137z" />
    <glyph glyph-name="uni1E37" unicode="&#x1e37;" horiz-adv-x="254" 
d="M23 0l106 757h132l-106 -757h-132zM-11 -227l20 137h137l-20 -137h-137z" />
    <glyph glyph-name="uni1E3A" unicode="&#x1e3a;" horiz-adv-x="543" 
d="M34 0l104 745h136l-87 -625h319l-17 -120h-455zM72 -207l15 107h322l-14 -107h-323z" />
    <glyph glyph-name="uni1E3B" unicode="&#x1e3b;" horiz-adv-x="254" 
d="M23 0l106 757h132l-106 -757h-132zM-100 -207l15 107h322l-14 -107h-323z" />
    <glyph glyph-name="uni1E42" unicode="&#x1e42;" horiz-adv-x="893" 
d="M34 0l104 745h130l226 -390l-82 5l342 385h134l-104 -745h-136l81 586l41 -14l-326 -372h-16l-230 403l54 -17l-82 -586h-136zM308 -227l20 137h137l-20 -137h-137z" />
    <glyph glyph-name="uni1E43" unicode="&#x1e43;" horiz-adv-x="924" 
d="M23 0l76 544h123l-16 -120l-13 19q26 60 70.5 86.5t102.5 26.5q67 0 113.5 -35t60.5 -93l-46 -3q36 70 91.5 100.5t121.5 30.5q59 0 102 -27t63.5 -75t11.5 -110l-47 -344h-132l45 322q5 35 -4.5 60t-30.5 39.5t-53 14.5q-31 0 -57 -14t-43 -39.5t-22 -60.5l-45 -322
h-131l45 322q5 35 -4.5 60t-30.5 39.5t-53 14.5q-31 0 -57.5 -14.5t-43 -40.5t-22.5 -62l-44 -319h-131zM324 -227l20 137h137l-20 -137h-137z" />
    <glyph glyph-name="uni1E44" unicode="&#x1e44;" horiz-adv-x="741" 
d="M34 0l104 745h107l323 -552l-48 -11l79 563h136l-104 -745h-107l-319 556l44 11l-79 -567h-136zM382 842l20 138h137l-20 -138h-137z" />
    <glyph glyph-name="uni1E45" unicode="&#x1e45;" horiz-adv-x="593" 
d="M23 0l76 544h123l-14 -107l-8 22q26 50 71 73.5t100 23.5q62 0 105.5 -29t64 -78.5t11.5 -111.5l-47 -337h-131l45 322q7 52 -19 83t-74 31q-32 0 -59.5 -14.5t-45 -40.5t-23.5 -62l-44 -319h-131zM280 640l20 138h137l-20 -138h-137z" />
    <glyph glyph-name="uni1E46" unicode="&#x1e46;" horiz-adv-x="741" 
d="M34 0l104 745h107l323 -552l-48 -11l79 563h136l-104 -745h-107l-319 556l44 11l-79 -567h-136zM232 -227l20 137h137l-20 -137h-137z" />
    <glyph glyph-name="uni1E47" unicode="&#x1e47;" horiz-adv-x="593" 
d="M23 0l76 544h123l-14 -107l-8 22q26 50 71 73.5t100 23.5q62 0 105.5 -29t64 -78.5t11.5 -111.5l-47 -337h-131l45 322q7 52 -19 83t-74 31q-32 0 -59.5 -14.5t-45 -40.5t-23.5 -62l-44 -319h-131zM158 -227l20 137h137l-20 -137h-137z" />
    <glyph glyph-name="uni1E48" unicode="&#x1e48;" horiz-adv-x="741" 
d="M34 0l104 745h107l323 -552l-48 -11l79 563h136l-104 -745h-107l-319 556l44 11l-79 -567h-136zM143 -207l15 107h322l-14 -107h-323z" />
    <glyph glyph-name="uni1E49" unicode="&#x1e49;" horiz-adv-x="593" 
d="M23 0l76 544h123l-14 -107l-8 22q26 50 71 73.5t100 23.5q62 0 105.5 -29t64 -78.5t11.5 -111.5l-47 -337h-131l45 322q7 52 -19 83t-74 31q-32 0 -59.5 -14.5t-45 -40.5t-23.5 -62l-44 -319h-131zM69 -207l15 107h322l-14 -107h-323z" />
    <glyph glyph-name="uni1E4C" unicode="&#x1e4c;" horiz-adv-x="882" 
d="M433 -12q-79 0 -146.5 27t-117 75.5t-77 114t-27.5 143.5q0 87 31.5 161t87.5 130t131 87t162 31q80 0 147.5 -26.5t117 -75t77 -114t27.5 -142.5q0 -87 -32 -161.5t-88.5 -130.5t-131.5 -87.5t-161 -31.5zM433 112q58 0 108 21.5t88 60.5t59 91t21 112q0 70 -29.5 123
t-82 83t-120.5 30q-58 0 -108 -21.5t-88 -60t-59 -90t-21 -112.5q0 -69 30 -122.5t82 -84t120 -30.5zM594 842q-28 0 -45 8.5t-29 19t-23.5 19t-28.5 8.5q-18 0 -28 -13.5t-13 -37.5h-102q7 54 29 88t52 50.5t64 16.5q28 0 45.5 -8t30 -19t24 -19t27.5 -8q20 0 29.5 14
t12.5 36h102q-12 -77 -54 -116t-93 -39zM484 1032l89 173h170l-130 -173h-129z" />
    <glyph glyph-name="uni1E4D" unicode="&#x1e4d;" horiz-adv-x="656" 
d="M313 -12q-77 0 -139 34.5t-98 95t-36 138.5q0 63 23.5 117.5t65.5 95.5t97 64t118 23q77 0 139 -34.5t98 -94.5t36 -139q0 -62 -24 -116.5t-66 -96t-97 -64.5t-117 -23zM314 108q48 0 85.5 24.5t59 66t21.5 91.5q0 43 -17 75.5t-48 51.5t-72 19q-48 0 -86 -24.5
t-59 -65.5t-21 -92q0 -43 17 -75.5t48 -51.5t72 -19zM453 640q-28 0 -45 8.5t-29 19t-23.5 19t-28.5 8.5q-18 0 -28 -13.5t-13 -37.5h-102q7 54 29 88t52 50.5t64 16.5q28 0 45.5 -8t30 -19t24 -19t27.5 -8q20 0 29.5 14t12.5 36h102q-12 -77 -54 -116t-93 -39zM343 830
l89 173h170l-130 -173h-129z" />
    <glyph glyph-name="uni1E4E" unicode="&#x1e4e;" horiz-adv-x="882" 
d="M433 -12q-79 0 -146.5 27t-117 75.5t-77 114t-27.5 143.5q0 87 31.5 161t87.5 130t131 87t162 31q80 0 147.5 -26.5t117 -75t77 -114t27.5 -142.5q0 -87 -32 -161.5t-88.5 -130.5t-131.5 -87.5t-161 -31.5zM433 112q58 0 108 21.5t88 60.5t59 91t21 112q0 70 -29.5 123
t-82 83t-120.5 30q-58 0 -108 -21.5t-88 -60t-59 -90t-21 -112.5q0 -69 30 -122.5t82 -84t120 -30.5zM594 842q-28 0 -45 8.5t-29 19t-23.5 19t-28.5 8.5q-18 0 -28 -13.5t-13 -37.5h-102q7 54 29 88t52 50.5t64 16.5q28 0 45.5 -8t30 -19t24 -19t27.5 -8q20 0 29.5 14
t12.5 36h102q-12 -77 -54 -116t-93 -39zM372 1037l19 138h138l-20 -138h-137zM589 1037l20 138h137l-19 -138h-138z" />
    <glyph glyph-name="uni1E4F" unicode="&#x1e4f;" horiz-adv-x="656" 
d="M313 -12q-77 0 -139 34.5t-98 95t-36 138.5q0 63 23.5 117.5t65.5 95.5t97 64t118 23q77 0 139 -34.5t98 -94.5t36 -139q0 -62 -24 -116.5t-66 -96t-97 -64.5t-117 -23zM314 108q48 0 85.5 24.5t59 66t21.5 91.5q0 43 -17 75.5t-48 51.5t-72 19q-48 0 -86 -24.5
t-59 -65.5t-21 -92q0 -43 17 -75.5t48 -51.5t72 -19zM453 640q-28 0 -45 8.5t-29 19t-23.5 19t-28.5 8.5q-18 0 -28 -13.5t-13 -37.5h-102q7 54 29 88t52 50.5t64 16.5q28 0 45.5 -8t30 -19t24 -19t27.5 -8q20 0 29.5 14t12.5 36h102q-12 -77 -54 -116t-93 -39zM231 835
l19 138h138l-20 -138h-137zM448 835l20 138h137l-19 -138h-138z" />
    <glyph glyph-name="uni1E50" unicode="&#x1e50;" horiz-adv-x="882" 
d="M433 -12q-79 0 -146.5 27t-117 75.5t-77 114t-27.5 143.5q0 87 31.5 161t87.5 130t131 87t162 31q80 0 147.5 -26.5t117 -75t77 -114t27.5 -142.5q0 -87 -32 -161.5t-88.5 -130.5t-131.5 -87.5t-161 -31.5zM433 112q58 0 108 21.5t88 60.5t59 91t21 112q0 70 -29.5 123
t-82 83t-120.5 30q-58 0 -108 -21.5t-88 -60t-59 -90t-21 -112.5q0 -69 30 -122.5t82 -84t120 -30.5zM362 862l16 108h322l-15 -108h-323zM483 1032l-82 173h171l40 -173h-129z" />
    <glyph glyph-name="uni1E51" unicode="&#x1e51;" horiz-adv-x="656" 
d="M313 -12q-77 0 -139 34.5t-98 95t-36 138.5q0 63 23.5 117.5t65.5 95.5t97 64t118 23q77 0 139 -34.5t98 -94.5t36 -139q0 -62 -24 -116.5t-66 -96t-97 -64.5t-117 -23zM314 108q48 0 85.5 24.5t59 66t21.5 91.5q0 43 -17 75.5t-48 51.5t-72 19q-48 0 -86 -24.5
t-59 -65.5t-21 -92q0 -43 17 -75.5t48 -51.5t72 -19zM221 660l16 108h322l-15 -108h-323zM342 830l-82 173h171l40 -173h-129z" />
    <glyph glyph-name="uni1E52" unicode="&#x1e52;" horiz-adv-x="882" 
d="M433 -12q-79 0 -146.5 27t-117 75.5t-77 114t-27.5 143.5q0 87 31.5 161t87.5 130t131 87t162 31q80 0 147.5 -26.5t117 -75t77 -114t27.5 -142.5q0 -87 -32 -161.5t-88.5 -130.5t-131.5 -87.5t-161 -31.5zM433 112q58 0 108 21.5t88 60.5t59 91t21 112q0 70 -29.5 123
t-82 83t-120.5 30q-58 0 -108 -21.5t-88 -60t-59 -90t-21 -112.5q0 -69 30 -122.5t82 -84t120 -30.5zM480 1032l90 173h170l-131 -173h-129zM360 862l15 108h323l-16 -108h-322z" />
    <glyph glyph-name="uni1E53" unicode="&#x1e53;" horiz-adv-x="656" 
d="M313 -12q-77 0 -139 34.5t-98 95t-36 138.5q0 63 23.5 117.5t65.5 95.5t97 64t118 23q77 0 139 -34.5t98 -94.5t36 -139q0 -62 -24 -116.5t-66 -96t-97 -64.5t-117 -23zM314 108q48 0 85.5 24.5t59 66t21.5 91.5q0 43 -17 75.5t-48 51.5t-72 19q-48 0 -86 -24.5
t-59 -65.5t-21 -92q0 -43 17 -75.5t48 -51.5t72 -19zM339 830l90 173h170l-131 -173h-129zM219 660l15 108h323l-16 -108h-322z" />
    <glyph glyph-name="uni1E5A" unicode="&#x1e5a;" horiz-adv-x="669" 
d="M34 0l104 745h267q71 0 124 -26t82.5 -75.5t29.5 -121.5q0 -54 -19 -99t-55 -78t-87 -51l126 -294h-146l-138 330l82 -55h-195l-39 -275h-136zM226 395h145q39 0 69 16.5t47 45.5t17 66q0 47 -29.5 74.5t-80.5 27.5h-137zM191 -227l20 137h137l-20 -137h-137z" />
    <glyph glyph-name="uni1E5B" unicode="&#x1e5b;" horiz-adv-x="374" 
d="M23 0l76 544h124l-16 -121l-9 18q28 61 71.5 85t100.5 24h32l-16 -116h-47q-56 0 -94.5 -35.5t-49.5 -105.5l-40 -293h-132zM-11 -227l20 137h137l-20 -137h-137z" />
    <glyph glyph-name="uni1E5E" unicode="&#x1e5e;" horiz-adv-x="669" 
d="M34 0l104 745h267q71 0 124 -26t82.5 -75.5t29.5 -121.5q0 -54 -19 -99t-55 -78t-87 -51l126 -294h-146l-138 330l82 -55h-195l-39 -275h-136zM226 395h145q39 0 69 16.5t47 45.5t17 66q0 47 -29.5 74.5t-80.5 27.5h-137zM102 -207l15 107h322l-14 -107h-323z" />
    <glyph glyph-name="uni1E5F" unicode="&#x1e5f;" horiz-adv-x="374" 
d="M23 0l76 544h124l-16 -121l-9 18q28 61 71.5 85t100.5 24h32l-16 -116h-47q-56 0 -94.5 -35.5t-49.5 -105.5l-40 -293h-132zM-100 -207l15 107h322l-14 -107h-323z" />
    <glyph glyph-name="uni1E60" unicode="&#x1e60;" horiz-adv-x="649" 
d="M325 -12q-75 0 -136.5 26t-103 73.5t-57.5 110.5l117 44q19 -64 67.5 -99.5t112.5 -35.5q39 0 68 13.5t44.5 36.5t15.5 51q0 29 -17.5 49t-55.5 32l-132 44q-79 26 -118 75t-39 119q0 65 34.5 117t93.5 82.5t134 30.5q70 0 126 -24t93.5 -66t51.5 -99l-116 -44
q-15 54 -57 84t-101 30q-36 0 -64 -12.5t-43.5 -34.5t-15.5 -52t18.5 -51.5t57.5 -34.5l125 -43q82 -27 122 -75t40 -118q0 -63 -35 -115t-94.5 -83t-135.5 -31zM336 842l20 138h137l-20 -138h-137z" />
    <glyph glyph-name="uni1E61" unicode="&#x1e61;" horiz-adv-x="512" 
d="M238 -12q-57 0 -105 19.5t-80 55t-44 82.5l101 41q18 -45 52.5 -70t80.5 -25q40 0 62.5 18t22.5 44q0 23 -17 35t-38 17l-87 25q-60 17 -92.5 55.5t-32.5 92.5q0 51 28 91t76.5 63.5t108.5 23.5q79 0 135.5 -38.5t74.5 -105.5l-103 -41q-9 36 -40.5 57t-71.5 21
q-35 0 -57.5 -16t-22.5 -42q0 -24 17 -36t40 -18l84 -26q62 -19 94.5 -56.5t32.5 -89.5q0 -50 -28 -90t-77.5 -63.5t-113.5 -23.5zM239 640l20 138h137l-20 -138h-137z" />
    <glyph glyph-name="uni1E62" unicode="&#x1e62;" horiz-adv-x="649" 
d="M325 -12q-75 0 -136.5 26t-103 73.5t-57.5 110.5l117 44q19 -64 67.5 -99.5t112.5 -35.5q39 0 68 13.5t44.5 36.5t15.5 51q0 29 -17.5 49t-55.5 32l-132 44q-79 26 -118 75t-39 119q0 65 34.5 117t93.5 82.5t134 30.5q70 0 126 -24t93.5 -66t51.5 -99l-116 -44
q-15 54 -57 84t-101 30q-36 0 -64 -12.5t-43.5 -34.5t-15.5 -52t18.5 -51.5t57.5 -34.5l125 -43q82 -27 122 -75t40 -118q0 -63 -35 -115t-94.5 -83t-135.5 -31zM186 -227l20 137h137l-20 -137h-137z" />
    <glyph glyph-name="uni1E63" unicode="&#x1e63;" horiz-adv-x="512" 
d="M238 -12q-57 0 -105 19.5t-80 55t-44 82.5l101 41q18 -45 52.5 -70t80.5 -25q40 0 62.5 18t22.5 44q0 23 -17 35t-38 17l-87 25q-60 17 -92.5 55.5t-32.5 92.5q0 51 28 91t76.5 63.5t108.5 23.5q79 0 135.5 -38.5t74.5 -105.5l-103 -41q-9 36 -40.5 57t-71.5 21
q-35 0 -57.5 -16t-22.5 -42q0 -24 17 -36t40 -18l84 -26q62 -19 94.5 -56.5t32.5 -89.5q0 -50 -28 -90t-77.5 -63.5t-113.5 -23.5zM117 -227l20 137h137l-20 -137h-137z" />
    <glyph glyph-name="uni1E64" unicode="&#x1e64;" horiz-adv-x="649" 
d="M325 -12q-75 0 -136.5 26t-103 73.5t-57.5 110.5l117 44q19 -64 67.5 -99.5t112.5 -35.5q39 0 68 13.5t44.5 36.5t15.5 51q0 29 -17.5 49t-55.5 32l-132 44q-79 26 -118 75t-39 119q0 65 34.5 117t93.5 82.5t134 30.5q70 0 126 -24t93.5 -66t51.5 -99l-116 -44
q-15 54 -57 84t-101 30q-36 0 -64 -12.5t-43.5 -34.5t-15.5 -52t18.5 -51.5t57.5 -34.5l125 -43q82 -27 122 -75t40 -118q0 -63 -35 -115t-94.5 -83t-135.5 -31zM329 842l86 150h186l-128 -150h-144zM206 950l20 137h137l-19 -137h-138z" />
    <glyph glyph-name="uni1E65" unicode="&#x1e65;" horiz-adv-x="512" 
d="M238 -12q-57 0 -105 19.5t-80 55t-44 82.5l101 41q18 -45 52.5 -70t80.5 -25q40 0 62.5 18t22.5 44q0 23 -17 35t-38 17l-87 25q-60 17 -92.5 55.5t-32.5 92.5q0 51 28 91t76.5 63.5t108.5 23.5q79 0 135.5 -38.5t74.5 -105.5l-103 -41q-9 36 -40.5 57t-71.5 21
q-35 0 -57.5 -16t-22.5 -42q0 -24 17 -36t40 -18l84 -26q62 -19 94.5 -56.5t32.5 -89.5q0 -50 -28 -90t-77.5 -63.5t-113.5 -23.5zM232 640l86 150h186l-128 -150h-144zM109 748l20 137h137l-19 -137h-138z" />
    <glyph glyph-name="uni1E66" unicode="&#x1e66;" horiz-adv-x="649" 
d="M325 -12q-75 0 -136.5 26t-103 73.5t-57.5 110.5l117 44q19 -64 67.5 -99.5t112.5 -35.5q39 0 68 13.5t44.5 36.5t15.5 51q0 29 -17.5 49t-55.5 32l-132 44q-79 26 -118 75t-39 119q0 65 34.5 117t93.5 82.5t134 30.5q70 0 126 -24t93.5 -66t51.5 -99l-116 -44
q-15 54 -57 84t-101 30q-36 0 -64 -12.5t-43.5 -34.5t-15.5 -52t18.5 -51.5t57.5 -34.5l125 -43q82 -27 122 -75t40 -118q0 -63 -35 -115t-94.5 -83t-135.5 -31zM289 842l-95 155h122l52 -78l75 78h141l-140 -155h-155zM327 1037l19 138h137l-19 -138h-137z" />
    <glyph glyph-name="uni1E67" unicode="&#x1e67;" horiz-adv-x="512" 
d="M238 -12q-57 0 -105 19.5t-80 55t-44 82.5l101 41q18 -45 52.5 -70t80.5 -25q40 0 62.5 18t22.5 44q0 23 -17 35t-38 17l-87 25q-60 17 -92.5 55.5t-32.5 92.5q0 51 28 91t76.5 63.5t108.5 23.5q79 0 135.5 -38.5t74.5 -105.5l-103 -41q-9 36 -40.5 57t-71.5 21
q-35 0 -57.5 -16t-22.5 -42q0 -24 17 -36t40 -18l84 -26q62 -19 94.5 -56.5t32.5 -89.5q0 -50 -28 -90t-77.5 -63.5t-113.5 -23.5zM192 640l-95 155h122l52 -78l75 78h141l-140 -155h-155zM230 835l19 138h137l-19 -138h-137z" />
    <glyph glyph-name="uni1E68" unicode="&#x1e68;" horiz-adv-x="649" 
d="M325 -12q-75 0 -136.5 26t-103 73.5t-57.5 110.5l117 44q19 -64 67.5 -99.5t112.5 -35.5q39 0 68 13.5t44.5 36.5t15.5 51q0 29 -17.5 49t-55.5 32l-132 44q-79 26 -118 75t-39 119q0 65 34.5 117t93.5 82.5t134 30.5q70 0 126 -24t93.5 -66t51.5 -99l-116 -44
q-15 54 -57 84t-101 30q-36 0 -64 -12.5t-43.5 -34.5t-15.5 -52t18.5 -51.5t57.5 -34.5l125 -43q82 -27 122 -75t40 -118q0 -63 -35 -115t-94.5 -83t-135.5 -31zM186 -227l20 137h137l-20 -137h-137zM336 842l20 138h137l-20 -138h-137z" />
    <glyph glyph-name="uni1E69" unicode="&#x1e69;" horiz-adv-x="512" 
d="M238 -12q-57 0 -105 19.5t-80 55t-44 82.5l101 41q18 -45 52.5 -70t80.5 -25q40 0 62.5 18t22.5 44q0 23 -17 35t-38 17l-87 25q-60 17 -92.5 55.5t-32.5 92.5q0 51 28 91t76.5 63.5t108.5 23.5q79 0 135.5 -38.5t74.5 -105.5l-103 -41q-9 36 -40.5 57t-71.5 21
q-35 0 -57.5 -16t-22.5 -42q0 -24 17 -36t40 -18l84 -26q62 -19 94.5 -56.5t32.5 -89.5q0 -50 -28 -90t-77.5 -63.5t-113.5 -23.5zM117 -227l20 137h137l-20 -137h-137zM239 640l20 138h137l-20 -138h-137z" />
    <glyph glyph-name="uni1E6C" unicode="&#x1e6c;" horiz-adv-x="542" 
d="M167 0l87 625h-193l16 120h520l-16 -120h-191l-87 -625h-136zM133 -227l20 137h137l-20 -137h-137z" />
    <glyph glyph-name="uni1E6D" unicode="&#x1e6d;" horiz-adv-x="416" 
d="M277 -6q-94 0 -139.5 52.5t-33.5 143.5l33 237h-93l16 117h7q40 0 67 23t32 63l5 38h133l-17 -124h123l-16 -117h-124l-33 -236q-4 -28 1.5 -46t23 -27t48.5 -9q9 0 18 0.5t21 2.5l-10 -112q-14 -4 -31.5 -5t-30.5 -1zM165 -227l20 137h137l-20 -137h-137z" />
    <glyph glyph-name="uni1E6E" unicode="&#x1e6e;" horiz-adv-x="542" 
d="M167 0l87 625h-193l16 120h520l-16 -120h-191l-87 -625h-136zM44 -207l15 107h322l-14 -107h-323z" />
    <glyph glyph-name="uni1E6F" unicode="&#x1e6f;" horiz-adv-x="416" 
d="M277 -6q-94 0 -139.5 52.5t-33.5 143.5l33 237h-93l16 117h7q40 0 67 23t32 63l5 38h133l-17 -124h123l-16 -117h-124l-33 -236q-4 -28 1.5 -46t23 -27t48.5 -9q9 0 18 0.5t21 2.5l-10 -112q-14 -4 -31.5 -5t-30.5 -1zM76 -207l15 107h322l-14 -107h-323z" />
    <glyph glyph-name="uni1E78" unicode="&#x1e78;" horiz-adv-x="718" 
d="M332 -12q-88 0 -152 37t-95.5 100.5t-20.5 143.5l66 476h137l-66 -475q-7 -46 8.5 -82t49 -56t80.5 -20q46 0 84 20t63.5 57t32.5 87l65 469h136l-68 -483q-10 -80 -54.5 -142t-113 -97t-152.5 -35zM512 842q-28 0 -45 8.5t-29 19t-23.5 19t-28.5 8.5q-18 0 -28 -13.5
t-13 -37.5h-102q7 54 29 88t52 50.5t64 16.5q28 0 45.5 -8t30 -19t24 -19t27.5 -8q20 0 29.5 14t12.5 36h102q-12 -77 -54 -116t-93 -39zM402 1032l89 173h170l-130 -173h-129z" />
    <glyph glyph-name="uni1E79" unicode="&#x1e79;" horiz-adv-x="594" 
d="M223 -12q-65 0 -109 29.5t-62.5 82.5t-8.5 124l45 320h132l-45 -322q-5 -34 5 -60t33 -40t55 -14q33 0 59.5 14.5t45 41t22.5 61.5l45 319h131l-76 -544h-124l14 107l9 -22q-25 -50 -70.5 -73.5t-100.5 -23.5zM421 640q-28 0 -45 8.5t-29 19t-23.5 19t-28.5 8.5
q-18 0 -28 -13.5t-13 -37.5h-102q7 54 29 88t52 50.5t64 16.5q28 0 45.5 -8t30 -19t24 -19t27.5 -8q20 0 29.5 14t12.5 36h102q-12 -77 -54 -116t-93 -39zM311 830l89 173h170l-130 -173h-129z" />
    <glyph glyph-name="uni1E7A" unicode="&#x1e7a;" horiz-adv-x="718" 
d="M332 -12q-88 0 -152 37t-95.5 100.5t-20.5 143.5l66 476h137l-66 -475q-7 -46 8.5 -82t49 -56t80.5 -20q46 0 84 20t63.5 57t32.5 87l65 469h136l-68 -483q-10 -80 -54.5 -142t-113 -97t-152.5 -35zM280 862l15 108h323l-15 -108h-323zM288 1037l20 138h137l-19 -138
h-138zM506 1037l19 138h138l-20 -138h-137z" />
    <glyph glyph-name="uni1E7B" unicode="&#x1e7b;" horiz-adv-x="594" 
d="M223 -12q-65 0 -109 29.5t-62.5 82.5t-8.5 124l45 320h132l-45 -322q-5 -34 5 -60t33 -40t55 -14q33 0 59.5 14.5t45 41t22.5 61.5l45 319h131l-76 -544h-124l14 107l9 -22q-25 -50 -70.5 -73.5t-100.5 -23.5zM190 660l15 108h323l-15 -108h-323zM198 835l20 138h137
l-19 -138h-138zM416 835l19 138h138l-20 -138h-137z" />
    <glyph glyph-name="Wgrave" unicode="&#x1e80;" horiz-adv-x="1020" 
d="M173 0l-96 745h143l68 -635h-43l261 635h135l81 -635h-48l253 635h148l-303 -745h-157l-78 618h44l-252 -618h-156zM525 842l-81 173h170l40 -173h-129z" />
    <glyph glyph-name="wgrave" unicode="&#x1e81;" horiz-adv-x="883" 
d="M160 0l-111 544h133l79 -413l-49 1l208 412h116l86 -412l-47 -1l195 413h140l-263 -544h-117l-86 431h46l-214 -431h-116zM429 640l-81 173h170l40 -173h-129z" />
    <glyph glyph-name="Wacute" unicode="&#x1e82;" horiz-adv-x="1020" 
d="M173 0l-96 745h143l68 -635h-43l261 635h135l81 -635h-48l253 635h148l-303 -745h-157l-78 618h44l-252 -618h-156zM525 842l90 173h170l-131 -173h-129z" />
    <glyph glyph-name="wacute" unicode="&#x1e83;" horiz-adv-x="883" 
d="M160 0l-111 544h133l79 -413l-49 1l208 412h116l86 -412l-47 -1l195 413h140l-263 -544h-117l-86 431h46l-214 -431h-116zM429 640l90 173h170l-131 -173h-129z" />
    <glyph glyph-name="Wdieresis" unicode="&#x1e84;" horiz-adv-x="1020" 
d="M173 0l-96 745h143l68 -635h-43l261 635h135l81 -635h-48l253 635h148l-303 -745h-157l-78 618h44l-252 -618h-156zM413 842l19 138h137l-19 -138h-137zM630 842l19 138h138l-19 -138h-138z" />
    <glyph glyph-name="wdieresis" unicode="&#x1e85;" horiz-adv-x="883" 
d="M160 0l-111 544h133l79 -413l-49 1l208 412h116l86 -412l-47 -1l195 413h140l-263 -544h-117l-86 431h46l-214 -431h-116zM316 640l19 138h137l-19 -138h-137zM533 640l19 138h138l-19 -138h-138z" />
    <glyph glyph-name="uni1E8E" unicode="&#x1e8e;" horiz-adv-x="660" 
d="M224 0l46 330l-193 415h147l147 -324l-56 1l235 323h165l-307 -414l-46 -331h-138zM342 842l20 138h137l-20 -138h-137z" />
    <glyph glyph-name="uni1E8F" unicode="&#x1e8f;" horiz-adv-x="586" 
d="M63 -221q-25 0 -45.5 4.5t-36.5 12.5l8 107q13 -3 30.5 -5.5t30.5 -2.5q30 0 50.5 10.5t36 29t28.5 40.5l49 80l-13 -110l-152 599h135l104 -442h-52l229 442h148l-322 -603q-28 -52 -62.5 -88.5t-75.5 -55t-90 -18.5zM276 640l20 138h137l-20 -138h-137z" />
    <glyph glyph-name="uni1E92" unicode="&#x1e92;" horiz-adv-x="572" 
d="M-24 0l15 107l422 518h-328l16 120h513l-14 -107l-426 -518h363l-17 -120h-544zM148 -227l20 137h137l-20 -137h-137z" />
    <glyph glyph-name="uni1E93" unicode="&#x1e93;" horiz-adv-x="482" 
d="M-23 0l13 106l356 363l26 -42h-322l17 117h438l-13 -107l-354 -363l-22 42h331l-16 -116h-454zM106 -227l20 137h137l-20 -137h-137z" />
    <glyph glyph-name="uni1E97" unicode="&#x1e97;" horiz-adv-x="416" 
d="M277 -6q-94 0 -139.5 52.5t-33.5 143.5l33 237h-93l16 117h7q40 0 67 23t32 63l5 38h133l-17 -124h123l-16 -117h-124l-33 -236q-4 -28 1.5 -46t23 -27t48.5 -9q9 0 18 0.5t21 2.5l-10 -112q-14 -4 -31.5 -5t-30.5 -1zM74 764l19 138h137l-19 -138h-137zM291 764l19 138
h138l-19 -138h-138z" />
    <glyph glyph-name="uni1E9E" unicode="&#x1e9e;" horiz-adv-x="1299" 
d="M325 -12q-75 0 -136.5 26t-103 73.5t-57.5 110.5l117 44q19 -64 67.5 -99.5t112.5 -35.5q39 0 68 13.5t44.5 36.5t15.5 51q0 29 -17.5 49t-55.5 32l-132 44q-79 26 -118 75t-39 119q0 65 34.5 117t93.5 82.5t134 30.5q70 0 126 -24t93.5 -66t51.5 -99l-116 -44
q-15 54 -57 84t-101 30q-36 0 -64 -12.5t-43.5 -34.5t-15.5 -52t18.5 -51.5t57.5 -34.5l125 -43q82 -27 122 -75t40 -118q0 -63 -35 -115t-94.5 -83t-135.5 -31zM974 -12q-75 0 -136.5 26t-103 73.5t-57.5 110.5l117 44q19 -64 67.5 -99.5t112.5 -35.5q39 0 68 13.5
t44.5 36.5t15.5 51q0 29 -17.5 49t-55.5 32l-132 44q-79 26 -118 75t-39 119q0 65 34.5 117t93.5 82.5t134 30.5q70 0 126 -24t93.5 -66t51.5 -99l-116 -44q-15 54 -57 84t-101 30q-36 0 -64 -12.5t-43.5 -34.5t-15.5 -52t18.5 -51.5t57.5 -34.5l125 -43q82 -27 122 -75
t40 -118q0 -63 -35 -115t-94.5 -83t-135.5 -31z" />
    <glyph glyph-name="uni1EA0" unicode="&#x1ea0;" horiz-adv-x="712" 
d="M-27 0l361 745h176l153 -745h-142l-31 160h-287l-76 -160h-154zM259 280h208l-71 369l37 -4zM218 -227l20 137h137l-20 -137h-137z" />
    <glyph glyph-name="uni1EA1" unicode="&#x1ea1;" 
d="M201 -12q-52 0 -92.5 17t-63.5 50t-23 81q0 52 26 89t72 60.5t106 32.5l183 29l-10 -100l-154 -27q-37 -7 -62 -25.5t-25 -50.5q0 -28 20.5 -42t52.5 -14q40 0 72 18.5t53 49.5t25 68l19 136q4 27 -8.5 45.5t-34.5 28.5t-48 10q-45 0 -80.5 -24t-54.5 -61l-103 58
q21 43 57.5 73.5t85 48t103.5 17.5q66 0 117.5 -26t78.5 -71t18 -105l-49 -354h-125l13 93l33 -1q-25 -35 -56 -58t-67.5 -34.5t-78.5 -11.5zM152 -227l20 137h137l-20 -137h-137z" />
    <glyph glyph-name="uni1EA2" unicode="&#x1ea2;" horiz-adv-x="712" 
d="M-27 0l361 745h176l153 -745h-142l-31 160h-287l-76 -160h-154zM259 280h208l-71 369l37 -4zM440 802l-47 65q28 13 43 28.5t15 37.5q0 16 -13.5 25.5t-38.5 9.5q-12 0 -25 -1.5t-26 -7.5l-4 83q19 9 42 13t48 4q64 0 100 -27.5t36 -75.5q0 -34 -18 -63.5t-48 -52
t-64 -38.5z" />
    <glyph glyph-name="uni1EA3" unicode="&#x1ea3;" 
d="M201 -12q-52 0 -92.5 17t-63.5 50t-23 81q0 52 26 89t72 60.5t106 32.5l183 29l-10 -100l-154 -27q-37 -7 -62 -25.5t-25 -50.5q0 -28 20.5 -42t52.5 -14q40 0 72 18.5t53 49.5t25 68l19 136q4 27 -8.5 45.5t-34.5 28.5t-48 10q-45 0 -80.5 -24t-54.5 -61l-103 58
q21 43 57.5 73.5t85 48t103.5 17.5q66 0 117.5 -26t78.5 -71t18 -105l-49 -354h-125l13 93l33 -1q-25 -35 -56 -58t-67.5 -34.5t-78.5 -11.5zM347 600l-47 65q28 13 43 28.5t15 37.5q0 16 -13.5 25.5t-38.5 9.5q-12 0 -25 -1.5t-26 -7.5l-4 83q19 9 42 13t48 4
q64 0 100 -27.5t36 -75.5q0 -34 -18 -63.5t-48 -52t-64 -38.5z" />
    <glyph glyph-name="uni1EA4" unicode="&#x1ea4;" horiz-adv-x="712" 
d="M-27 0l361 745h176l153 -745h-142l-31 160h-287l-76 -160h-154zM259 280h208l-71 369l37 -4zM241 842l138 155h155l97 -155h-123l-52 79l-74 -79h-141zM599 920l66 145h148l-107 -145h-107z" />
    <glyph glyph-name="uni1EA5" unicode="&#x1ea5;" 
d="M201 -12q-52 0 -92.5 17t-63.5 50t-23 81q0 52 26 89t72 60.5t106 32.5l183 29l-10 -100l-154 -27q-37 -7 -62 -25.5t-25 -50.5q0 -28 20.5 -42t52.5 -14q40 0 72 18.5t53 49.5t25 68l19 136q4 27 -8.5 45.5t-34.5 28.5t-48 10q-45 0 -80.5 -24t-54.5 -61l-103 58
q21 43 57.5 73.5t85 48t103.5 17.5q66 0 117.5 -26t78.5 -71t18 -105l-49 -354h-125l13 93l33 -1q-25 -35 -56 -58t-67.5 -34.5t-78.5 -11.5zM148 640l138 155h155l97 -155h-123l-52 79l-74 -79h-141zM506 718l66 145h148l-107 -145h-107z" />
    <glyph glyph-name="uni1EA6" unicode="&#x1ea6;" horiz-adv-x="712" 
d="M-27 0l361 745h176l153 -745h-142l-31 160h-287l-76 -160h-154zM259 280h208l-71 369l37 -4zM241 842l138 155h155l97 -155h-123l-52 79l-74 -79h-141zM655 920l-66 145h148l25 -145h-107z" />
    <glyph glyph-name="uni1EA7" unicode="&#x1ea7;" 
d="M201 -12q-52 0 -92.5 17t-63.5 50t-23 81q0 52 26 89t72 60.5t106 32.5l183 29l-10 -100l-154 -27q-37 -7 -62 -25.5t-25 -50.5q0 -28 20.5 -42t52.5 -14q40 0 72 18.5t53 49.5t25 68l19 136q4 27 -8.5 45.5t-34.5 28.5t-48 10q-45 0 -80.5 -24t-54.5 -61l-103 58
q21 43 57.5 73.5t85 48t103.5 17.5q66 0 117.5 -26t78.5 -71t18 -105l-49 -354h-125l13 93l33 -1q-25 -35 -56 -58t-67.5 -34.5t-78.5 -11.5zM148 640l138 155h155l97 -155h-123l-52 79l-74 -79h-141zM562 718l-66 145h148l25 -145h-107z" />
    <glyph glyph-name="uni1EA8" unicode="&#x1ea8;" horiz-adv-x="712" 
d="M-27 0l361 745h176l153 -745h-142l-31 160h-287l-76 -160h-154zM259 280h208l-71 369l37 -4zM241 842l138 155h155l97 -155h-123l-52 79l-74 -79h-141zM639 911l-43 61q26 12 40 26.5t14 33.5q0 16 -12.5 25t-35.5 9q-11 0 -23 -1.5t-25 -7.5l-3 77q17 7 38.5 11.5
t45.5 4.5q58 0 92 -25.5t34 -70.5q0 -31 -17 -58.5t-44.5 -48.5t-60.5 -36z" />
    <glyph glyph-name="uni1EA9" unicode="&#x1ea9;" 
d="M201 -12q-52 0 -92.5 17t-63.5 50t-23 81q0 52 26 89t72 60.5t106 32.5l183 29l-10 -100l-154 -27q-37 -7 -62 -25.5t-25 -50.5q0 -28 20.5 -42t52.5 -14q40 0 72 18.5t53 49.5t25 68l19 136q4 27 -8.5 45.5t-34.5 28.5t-48 10q-45 0 -80.5 -24t-54.5 -61l-103 58
q21 43 57.5 73.5t85 48t103.5 17.5q66 0 117.5 -26t78.5 -71t18 -105l-49 -354h-125l13 93l33 -1q-25 -35 -56 -58t-67.5 -34.5t-78.5 -11.5zM148 640l138 155h155l97 -155h-123l-52 79l-74 -79h-141zM546 709l-43 61q26 12 40 26.5t14 33.5q0 16 -12.5 25t-35.5 9
q-11 0 -23 -1.5t-25 -7.5l-3 77q17 7 38.5 11.5t45.5 4.5q58 0 92 -25.5t34 -70.5q0 -31 -17 -58.5t-44.5 -48.5t-60.5 -36z" />
    <glyph glyph-name="uni1EAA" unicode="&#x1eaa;" horiz-adv-x="712" 
d="M-27 0l361 745h176l153 -745h-142l-31 160h-287l-76 -160h-154zM259 280h208l-71 369l37 -4zM241 842l138 155h156l96 -155h-122l-53 79l-74 -79h-141zM529 1058q-23 0 -37 8.5t-24 19t-19.5 19t-23.5 8.5t-22 -13t-12 -38h-100q8 53 28.5 87.5t48 51t56.5 16.5
q23 0 38 -8t26 -19t20.5 -19t21.5 -8q16 0 23 13t10 37h100q-11 -73 -49 -114t-85 -41z" />
    <glyph glyph-name="uni1EAB" unicode="&#x1eab;" 
d="M201 -12q-52 0 -92.5 17t-63.5 50t-23 81q0 52 26 89t72 60.5t106 32.5l183 29l-10 -100l-154 -27q-37 -7 -62 -25.5t-25 -50.5q0 -28 20.5 -42t52.5 -14q40 0 72 18.5t53 49.5t25 68l19 136q4 27 -8.5 45.5t-34.5 28.5t-48 10q-45 0 -80.5 -24t-54.5 -61l-103 58
q21 43 57.5 73.5t85 48t103.5 17.5q66 0 117.5 -26t78.5 -71t18 -105l-49 -354h-125l13 93l33 -1q-25 -35 -56 -58t-67.5 -34.5t-78.5 -11.5zM148 640l138 155h156l96 -155h-122l-53 79l-74 -79h-141zM436 856q-23 0 -37 8.5t-24 19t-19.5 19t-23.5 8.5t-22 -13t-12 -38
h-100q8 53 28.5 87.5t48 51t56.5 16.5q23 0 38 -8t26 -19t20.5 -19t21.5 -8q16 0 23 13t10 37h100q-11 -73 -49 -114t-85 -41z" />
    <glyph glyph-name="uni1EAC" unicode="&#x1eac;" horiz-adv-x="712" 
d="M-27 0l361 745h176l153 -745h-142l-31 160h-287l-76 -160h-154zM259 280h208l-71 369l37 -4zM218 -227l20 137h137l-20 -137h-137zM216 842l140 165h155l95 -165h-123l-52 90l-77 -90h-138z" />
    <glyph glyph-name="uni1EAD" unicode="&#x1ead;" 
d="M201 -12q-52 0 -92.5 17t-63.5 50t-23 81q0 52 26 89t72 60.5t106 32.5l183 29l-10 -100l-154 -27q-37 -7 -62 -25.5t-25 -50.5q0 -28 20.5 -42t52.5 -14q40 0 72 18.5t53 49.5t25 68l19 136q4 27 -8.5 45.5t-34.5 28.5t-48 10q-45 0 -80.5 -24t-54.5 -61l-103 58
q21 43 57.5 73.5t85 48t103.5 17.5q66 0 117.5 -26t78.5 -71t18 -105l-49 -354h-125l13 93l33 -1q-25 -35 -56 -58t-67.5 -34.5t-78.5 -11.5zM152 -227l20 137h137l-20 -137h-137zM123 640l140 165h155l95 -165h-123l-52 90l-77 -90h-138z" />
    <glyph glyph-name="uni1EAE" unicode="&#x1eae;" horiz-adv-x="712" 
d="M-27 0l361 745h176l153 -745h-142l-31 160h-287l-76 -160h-154zM259 280h208l-71 369l37 -4zM442 845q-70 0 -112 24t-59 61t-12 75h129q-2 -28 14.5 -43.5t48.5 -15.5q33 0 54 15.5t27 43.5h128q-7 -42 -32.5 -78.5t-71 -59t-114.5 -22.5zM398 1035l90 173h171
l-131 -173h-130z" />
    <glyph glyph-name="uni1EAF" unicode="&#x1eaf;" 
d="M201 -12q-52 0 -92.5 17t-63.5 50t-23 81q0 52 26 89t72 60.5t106 32.5l183 29l-10 -100l-154 -27q-37 -7 -62 -25.5t-25 -50.5q0 -28 20.5 -42t52.5 -14q40 0 72 18.5t53 49.5t25 68l19 136q4 27 -8.5 45.5t-34.5 28.5t-48 10q-45 0 -80.5 -24t-54.5 -61l-103 58
q21 43 57.5 73.5t85 48t103.5 17.5q66 0 117.5 -26t78.5 -71t18 -105l-49 -354h-125l13 93l33 -1q-25 -35 -56 -58t-67.5 -34.5t-78.5 -11.5zM348 644q-70 0 -112 24t-59 61t-12 75h129q-2 -28 14.5 -43.5t48.5 -15.5q33 0 54 15.5t27 43.5h128q-7 -42 -32.5 -78.5t-71 -59
t-114.5 -22.5zM304 834l90 173h171l-131 -173h-130z" />
    <glyph glyph-name="uni1EB0" unicode="&#x1eb0;" horiz-adv-x="712" 
d="M-27 0l361 745h176l153 -745h-142l-31 160h-287l-76 -160h-154zM259 280h208l-71 369l37 -4zM442 845q-69 0 -111 22.5t-59.5 59t-12.5 78.5h128q-2 -28 14.5 -43.5t49.5 -15.5q32 0 53 15.5t27 43.5h129q-7 -39 -32 -76t-71 -60.5t-115 -23.5zM399 1035l-82 173h171
l40 -173h-129z" />
    <glyph glyph-name="uni1EB1" unicode="&#x1eb1;" 
d="M201 -12q-52 0 -92.5 17t-63.5 50t-23 81q0 52 26 89t72 60.5t106 32.5l183 29l-10 -100l-154 -27q-37 -7 -62 -25.5t-25 -50.5q0 -28 20.5 -42t52.5 -14q40 0 72 18.5t53 49.5t25 68l19 136q4 27 -8.5 45.5t-34.5 28.5t-48 10q-45 0 -80.5 -24t-54.5 -61l-103 58
q21 43 57.5 73.5t85 48t103.5 17.5q66 0 117.5 -26t78.5 -71t18 -105l-49 -354h-125l13 93l33 -1q-25 -35 -56 -58t-67.5 -34.5t-78.5 -11.5zM349 644q-69 0 -111 22.5t-59.5 59t-12.5 78.5h128q-2 -28 14.5 -43.5t49.5 -15.5q32 0 53 15.5t27 43.5h129q-7 -39 -32 -76
t-71 -60.5t-115 -23.5zM306 834l-82 173h171l40 -173h-129z" />
    <glyph glyph-name="uni1EB2" unicode="&#x1eb2;" horiz-adv-x="712" 
d="M-27 0l361 745h176l153 -745h-142l-31 160h-287l-76 -160h-154zM259 280h208l-71 369l37 -4zM442 845q-70 0 -112 24t-59 61t-12 75h128q-1 -28 15.5 -43.5t48.5 -15.5q33 0 54 15.5t27 43.5h128q-8 -41 -33.5 -77.5t-71 -59.5t-113.5 -23zM469 1011l-47 65
q29 13 44 28.5t15 36.5q0 16 -13.5 26t-38.5 10q-12 0 -25.5 -1.5t-26.5 -7.5l-3 82q19 9 42 13.5t48 4.5q63 0 99.5 -28t36.5 -75q0 -35 -18 -64.5t-48 -52t-65 -37.5z" />
    <glyph glyph-name="uni1EB3" unicode="&#x1eb3;" 
d="M201 -12q-52 0 -92.5 17t-63.5 50t-23 81q0 52 26 89t72 60.5t106 32.5l183 29l-10 -100l-154 -27q-37 -7 -62 -25.5t-25 -50.5q0 -28 20.5 -42t52.5 -14q40 0 72 18.5t53 49.5t25 68l19 136q4 27 -8.5 45.5t-34.5 28.5t-48 10q-45 0 -80.5 -24t-54.5 -61l-103 58
q21 43 57.5 73.5t85 48t103.5 17.5q66 0 117.5 -26t78.5 -71t18 -105l-49 -354h-125l13 93l33 -1q-25 -35 -56 -58t-67.5 -34.5t-78.5 -11.5zM348 644q-70 0 -112 24t-59 61t-12 75h128q-1 -28 15.5 -43.5t48.5 -15.5q33 0 54 15.5t27 43.5h128q-8 -41 -33.5 -77.5
t-71 -59.5t-113.5 -23zM375 810l-47 65q29 13 44 28.5t15 36.5q0 16 -13.5 26t-38.5 10q-12 0 -25.5 -1.5t-26.5 -7.5l-3 82q19 9 42 13.5t48 4.5q63 0 99.5 -28t36.5 -75q0 -35 -18 -64.5t-48 -52t-65 -37.5z" />
    <glyph glyph-name="uni1EB4" unicode="&#x1eb4;" horiz-adv-x="712" 
d="M-27 0l361 745h176l153 -745h-142l-31 160h-287l-76 -160h-154zM259 280h208l-71 369l37 -4zM529 1058q-23 0 -37.5 8.5t-24 19t-19 19t-23.5 8.5t-22 -13t-11 -38h-100q7 53 27.5 87.5t48 51t56.5 16.5q23 0 38 -8t25.5 -19t20.5 -19t22 -8q15 0 22.5 13t10.5 37h100
q-8 -51 -29 -85.5t-48.5 -52t-56.5 -17.5zM441 842q-69 0 -111 24t-59 61t-13 75h129q-2 -28 14.5 -43.5t48.5 -15.5q34 0 55 15.5t26 43.5h128q-8 -41 -33.5 -77.5t-71 -59.5t-113.5 -23z" />
    <glyph glyph-name="uni1EB5" unicode="&#x1eb5;" 
d="M201 -12q-52 0 -92.5 17t-63.5 50t-23 81q0 52 26 89t72 60.5t106 32.5l183 29l-10 -100l-154 -27q-37 -7 -62 -25.5t-25 -50.5q0 -28 20.5 -42t52.5 -14q40 0 72 18.5t53 49.5t25 68l19 136q4 27 -8.5 45.5t-34.5 28.5t-48 10q-45 0 -80.5 -24t-54.5 -61l-103 58
q21 43 57.5 73.5t85 48t103.5 17.5q66 0 117.5 -26t78.5 -71t18 -105l-49 -354h-125l13 93l33 -1q-25 -35 -56 -58t-67.5 -34.5t-78.5 -11.5zM435 856q-23 0 -37.5 8.5t-24 19t-19 19t-23.5 8.5t-22 -13t-11 -38h-100q7 53 27.5 87.5t48 51t56.5 16.5q23 0 38 -8t25.5 -19
t20.5 -19t22 -8q15 0 22.5 13t10.5 37h100q-8 -51 -29 -85.5t-48.5 -52t-56.5 -17.5zM347 640q-69 0 -111 24t-59 61t-13 75h129q-2 -28 14.5 -43.5t48.5 -15.5q34 0 55 15.5t26 43.5h128q-8 -41 -33.5 -77.5t-71 -59.5t-113.5 -23z" />
    <glyph glyph-name="uni1EB6" unicode="&#x1eb6;" horiz-adv-x="712" 
d="M-27 0l361 745h176l153 -745h-142l-31 160h-287l-76 -160h-154zM259 280h208l-71 369l37 -4zM218 -227l20 137h137l-20 -137h-137zM441 845q-68 0 -109.5 24t-59 61.5t-13.5 79.5h129q-2 -30 14 -47t49 -17t54 17t27 47h128q-6 -43 -32 -81t-72 -61t-115 -23z" />
    <glyph glyph-name="uni1EB7" unicode="&#x1eb7;" 
d="M201 -12q-52 0 -92.5 17t-63.5 50t-23 81q0 52 26 89t72 60.5t106 32.5l183 29l-10 -100l-154 -27q-37 -7 -62 -25.5t-25 -50.5q0 -28 20.5 -42t52.5 -14q40 0 72 18.5t53 49.5t25 68l19 136q4 27 -8.5 45.5t-34.5 28.5t-48 10q-45 0 -80.5 -24t-54.5 -61l-103 58
q21 43 57.5 73.5t85 48t103.5 17.5q66 0 117.5 -26t78.5 -71t18 -105l-49 -354h-125l13 93l33 -1q-25 -35 -56 -58t-67.5 -34.5t-78.5 -11.5zM152 -227l20 137h137l-20 -137h-137zM348 644q-68 0 -109.5 24t-59 61.5t-13.5 79.5h129q-2 -30 14 -47t49 -17t54 17t27 47h128
q-6 -43 -32 -81t-72 -61t-115 -23z" />
    <glyph glyph-name="uni1EB8" unicode="&#x1eb8;" horiz-adv-x="595" 
d="M34 0l104 745h496l-17 -120h-360l-26 -191h339l-16 -120h-340l-27 -194h359l-16 -120h-496zM181 -227l20 137h137l-20 -137h-137z" />
    <glyph glyph-name="uni1EB9" unicode="&#x1eb9;" horiz-adv-x="613" 
d="M304 -12q-80 0 -139.5 35t-92 95.5t-32.5 135.5q0 62 21.5 116.5t61 96.5t91.5 65.5t114 23.5q80 0 136 -33t85 -88.5t29 -124.5q0 -18 -3 -37t-8 -38h-420l7 100h345l-65 -45q13 45 2.5 80.5t-39 56.5t-70.5 21q-55 0 -88.5 -27t-49 -73.5t-15.5 -103.5q0 -44 16.5 -76
t46.5 -48.5t70 -16.5q45 0 79 20t54 51l104 -54q-19 -39 -54.5 -69t-83 -46.5t-102.5 -16.5zM168 -227l20 137h137l-20 -137h-137z" />
    <glyph glyph-name="uni1EBA" unicode="&#x1eba;" horiz-adv-x="595" 
d="M34 0l104 745h496l-17 -120h-360l-26 -191h339l-16 -120h-340l-27 -194h359l-16 -120h-496zM404 802l-47 65q28 13 43 28.5t15 37.5q0 16 -13.5 25.5t-38.5 9.5q-12 0 -25 -1.5t-26 -7.5l-4 83q19 9 42 13t48 4q64 0 100 -27.5t36 -75.5q0 -34 -18 -63.5t-48 -52
t-64 -38.5z" />
    <glyph glyph-name="uni1EBB" unicode="&#x1ebb;" horiz-adv-x="613" 
d="M304 -12q-80 0 -139.5 35t-92 95.5t-32.5 135.5q0 62 21.5 116.5t61 96.5t91.5 65.5t114 23.5q80 0 136 -33t85 -88.5t29 -124.5q0 -18 -3 -37t-8 -38h-420l7 100h345l-65 -45q13 45 2.5 80.5t-39 56.5t-70.5 21q-55 0 -88.5 -27t-49 -73.5t-15.5 -103.5q0 -44 16.5 -76
t46.5 -48.5t70 -16.5q45 0 79 20t54 51l104 -54q-19 -39 -54.5 -69t-83 -46.5t-102.5 -16.5zM363 600l-47 65q28 13 43 28.5t15 37.5q0 16 -13.5 25.5t-38.5 9.5q-12 0 -25 -1.5t-26 -7.5l-4 83q19 9 42 13t48 4q64 0 100 -27.5t36 -75.5q0 -34 -18 -63.5t-48 -52t-64 -38.5
z" />
    <glyph glyph-name="uni1EBC" unicode="&#x1ebc;" horiz-adv-x="595" 
d="M34 0l104 745h496l-17 -120h-360l-26 -191h339l-16 -120h-340l-27 -194h359l-16 -120h-496zM472 842q-28 0 -45 8.5t-29 19t-23.5 19t-28.5 8.5q-18 0 -28 -13.5t-13 -37.5h-102q7 54 29 88t52 50.5t64 16.5q28 0 45.5 -8t30 -19t24 -19t27.5 -8q20 0 29.5 14t12.5 36
h102q-12 -77 -54 -116t-93 -39z" />
    <glyph glyph-name="uni1EBD" unicode="&#x1ebd;" horiz-adv-x="613" 
d="M304 -12q-80 0 -139.5 35t-92 95.5t-32.5 135.5q0 62 21.5 116.5t61 96.5t91.5 65.5t114 23.5q80 0 136 -33t85 -88.5t29 -124.5q0 -18 -3 -37t-8 -38h-420l7 100h345l-65 -45q13 45 2.5 80.5t-39 56.5t-70.5 21q-55 0 -88.5 -27t-49 -73.5t-15.5 -103.5q0 -44 16.5 -76
t46.5 -48.5t70 -16.5q45 0 79 20t54 51l104 -54q-19 -39 -54.5 -69t-83 -46.5t-102.5 -16.5zM431 640q-28 0 -45 8.5t-29 19t-23.5 19t-28.5 8.5q-18 0 -28 -13.5t-13 -37.5h-102q7 54 29 88t52 50.5t64 16.5q28 0 45.5 -8t30 -19t24 -19t27.5 -8q20 0 29.5 14t12.5 36h102
q-12 -77 -54 -116t-93 -39z" />
    <glyph glyph-name="uni1EBE" unicode="&#x1ebe;" horiz-adv-x="595" 
d="M34 0l104 745h496l-17 -120h-360l-26 -191h339l-16 -120h-340l-27 -194h359l-16 -120h-496zM205 842l138 155h155l97 -155h-123l-52 79l-74 -79h-141zM563 920l66 145h148l-107 -145h-107z" />
    <glyph glyph-name="uni1EBF" unicode="&#x1ebf;" horiz-adv-x="613" 
d="M304 -12q-80 0 -139.5 35t-92 95.5t-32.5 135.5q0 62 21.5 116.5t61 96.5t91.5 65.5t114 23.5q80 0 136 -33t85 -88.5t29 -124.5q0 -18 -3 -37t-8 -38h-420l7 100h345l-65 -45q13 45 2.5 80.5t-39 56.5t-70.5 21q-55 0 -88.5 -27t-49 -73.5t-15.5 -103.5q0 -44 16.5 -76
t46.5 -48.5t70 -16.5q45 0 79 20t54 51l104 -54q-19 -39 -54.5 -69t-83 -46.5t-102.5 -16.5zM164 640l138 155h155l97 -155h-123l-52 79l-74 -79h-141zM522 718l66 145h148l-107 -145h-107z" />
    <glyph glyph-name="uni1EC0" unicode="&#x1ec0;" horiz-adv-x="595" 
d="M34 0l104 745h496l-17 -120h-360l-26 -191h339l-16 -120h-340l-27 -194h359l-16 -120h-496zM205 842l138 155h155l97 -155h-123l-52 79l-74 -79h-141zM619 920l-66 145h148l25 -145h-107z" />
    <glyph glyph-name="uni1EC1" unicode="&#x1ec1;" horiz-adv-x="613" 
d="M304 -12q-80 0 -139.5 35t-92 95.5t-32.5 135.5q0 62 21.5 116.5t61 96.5t91.5 65.5t114 23.5q80 0 136 -33t85 -88.5t29 -124.5q0 -18 -3 -37t-8 -38h-420l7 100h345l-65 -45q13 45 2.5 80.5t-39 56.5t-70.5 21q-55 0 -88.5 -27t-49 -73.5t-15.5 -103.5q0 -44 16.5 -76
t46.5 -48.5t70 -16.5q45 0 79 20t54 51l104 -54q-19 -39 -54.5 -69t-83 -46.5t-102.5 -16.5zM164 640l138 155h155l97 -155h-123l-52 79l-74 -79h-141zM578 718l-66 145h148l25 -145h-107z" />
    <glyph glyph-name="uni1EC2" unicode="&#x1ec2;" horiz-adv-x="595" 
d="M34 0l104 745h496l-17 -120h-360l-26 -191h339l-16 -120h-340l-27 -194h359l-16 -120h-496zM205 842l138 155h155l97 -155h-123l-52 79l-74 -79h-141zM603 911l-43 61q26 12 40 26.5t14 33.5q0 16 -12.5 25t-35.5 9q-11 0 -23 -1.5t-25 -7.5l-3 77q17 7 38.5 11.5
t45.5 4.5q58 0 92 -25.5t34 -70.5q0 -31 -17 -58.5t-44.5 -48.5t-60.5 -36z" />
    <glyph glyph-name="uni1EC3" unicode="&#x1ec3;" horiz-adv-x="613" 
d="M304 -12q-80 0 -139.5 35t-92 95.5t-32.5 135.5q0 62 21.5 116.5t61 96.5t91.5 65.5t114 23.5q80 0 136 -33t85 -88.5t29 -124.5q0 -18 -3 -37t-8 -38h-420l7 100h345l-65 -45q13 45 2.5 80.5t-39 56.5t-70.5 21q-55 0 -88.5 -27t-49 -73.5t-15.5 -103.5q0 -44 16.5 -76
t46.5 -48.5t70 -16.5q45 0 79 20t54 51l104 -54q-19 -39 -54.5 -69t-83 -46.5t-102.5 -16.5zM164 640l138 155h155l97 -155h-123l-52 79l-74 -79h-141zM562 709l-43 61q26 12 40 26.5t14 33.5q0 16 -12.5 25t-35.5 9q-11 0 -23 -1.5t-25 -7.5l-3 77q17 7 38.5 11.5t45.5 4.5
q58 0 92 -25.5t34 -70.5q0 -31 -17 -58.5t-44.5 -48.5t-60.5 -36z" />
    <glyph glyph-name="uni1EC4" unicode="&#x1ec4;" horiz-adv-x="595" 
d="M34 0l104 745h496l-17 -120h-360l-26 -191h339l-16 -120h-340l-27 -194h359l-16 -120h-496zM205 842l138 155h156l96 -155h-122l-53 79l-74 -79h-141zM493 1058q-23 0 -37 8.5t-24 19t-19.5 19t-23.5 8.5t-22 -13t-12 -38h-100q8 53 28.5 87.5t48 51t56.5 16.5
q23 0 38 -8t26 -19t20.5 -19t21.5 -8q16 0 23 13t10 37h100q-11 -73 -49 -114t-85 -41z" />
    <glyph glyph-name="uni1EC5" unicode="&#x1ec5;" horiz-adv-x="613" 
d="M304 -12q-80 0 -139.5 35t-92 95.5t-32.5 135.5q0 62 21.5 116.5t61 96.5t91.5 65.5t114 23.5q80 0 136 -33t85 -88.5t29 -124.5q0 -18 -3 -37t-8 -38h-420l7 100h345l-65 -45q13 45 2.5 80.5t-39 56.5t-70.5 21q-55 0 -88.5 -27t-49 -73.5t-15.5 -103.5q0 -44 16.5 -76
t46.5 -48.5t70 -16.5q45 0 79 20t54 51l104 -54q-19 -39 -54.5 -69t-83 -46.5t-102.5 -16.5zM164 640l138 155h156l96 -155h-122l-53 79l-74 -79h-141zM452 856q-23 0 -37 8.5t-24 19t-19.5 19t-23.5 8.5t-22 -13t-12 -38h-100q8 53 28.5 87.5t48 51t56.5 16.5q23 0 38 -8
t26 -19t20.5 -19t21.5 -8q16 0 23 13t10 37h100q-11 -73 -49 -114t-85 -41z" />
    <glyph glyph-name="uni1EC6" unicode="&#x1ec6;" horiz-adv-x="595" 
d="M34 0l104 745h496l-17 -120h-360l-26 -191h339l-16 -120h-340l-27 -194h359l-16 -120h-496zM181 -227l20 137h137l-20 -137h-137zM180 842l140 165h155l95 -165h-123l-52 90l-77 -90h-138z" />
    <glyph glyph-name="uni1EC7" unicode="&#x1ec7;" horiz-adv-x="613" 
d="M304 -12q-80 0 -139.5 35t-92 95.5t-32.5 135.5q0 62 21.5 116.5t61 96.5t91.5 65.5t114 23.5q80 0 136 -33t85 -88.5t29 -124.5q0 -18 -3 -37t-8 -38h-420l7 100h345l-65 -45q13 45 2.5 80.5t-39 56.5t-70.5 21q-55 0 -88.5 -27t-49 -73.5t-15.5 -103.5q0 -44 16.5 -76
t46.5 -48.5t70 -16.5q45 0 79 20t54 51l104 -54q-19 -39 -54.5 -69t-83 -46.5t-102.5 -16.5zM168 -227l20 137h137l-20 -137h-137zM139 640l140 165h155l95 -165h-123l-52 90l-77 -90h-138z" />
    <glyph glyph-name="uni1EC8" unicode="&#x1ec8;" horiz-adv-x="280" 
d="M34 0l104 745h136l-104 -745h-136zM224 802l-47 65q28 13 43 28.5t15 37.5q0 16 -13.5 25.5t-38.5 9.5q-12 0 -25 -1.5t-26 -7.5l-4 83q19 9 42 13t48 4q64 0 100 -27.5t36 -75.5q0 -34 -18 -63.5t-48 -52t-64 -38.5z" />
    <glyph glyph-name="uni1EC9" unicode="&#x1ec9;" horiz-adv-x="230" 
d="M11 0l76 544h132l-76 -544h-132zM171 600l-47 65q28 13 43 28.5t15 37.5q0 16 -13.5 25.5t-38.5 9.5q-12 0 -25 -1.5t-26 -7.5l-4 83q19 9 42 13t48 4q64 0 100 -27.5t36 -75.5q0 -34 -18 -63.5t-48 -52t-64 -38.5z" />
    <glyph glyph-name="uni1ECA" unicode="&#x1eca;" horiz-adv-x="280" 
d="M34 0l104 745h136l-104 -745h-136zM2 -227l20 137h137l-20 -137h-137z" />
    <glyph glyph-name="uni1ECB" unicode="&#x1ecb;" horiz-adv-x="254" 
d="M23 0l76 544h132l-76 -544h-132zM107 605l20 140h132l-19 -140h-133zM-11 -227l20 137h137l-20 -137h-137z" />
    <glyph glyph-name="uni1ECC" unicode="&#x1ecc;" horiz-adv-x="882" 
d="M433 -12q-79 0 -146.5 27t-117 75.5t-77 114t-27.5 143.5q0 87 31.5 161t87.5 130t131 87t162 31q80 0 147.5 -26.5t117 -75t77 -114t27.5 -142.5q0 -87 -32 -161.5t-88.5 -130.5t-131.5 -87.5t-161 -31.5zM433 112q58 0 108 21.5t88 60.5t59 91t21 112q0 70 -29.5 123
t-82 83t-120.5 30q-58 0 -108 -21.5t-88 -60t-59 -90t-21 -112.5q0 -69 30 -122.5t82 -84t120 -30.5zM303 -227l20 137h137l-20 -137h-137z" />
    <glyph glyph-name="uni1ECD" unicode="&#x1ecd;" horiz-adv-x="656" 
d="M313 -12q-77 0 -139 34.5t-98 95t-36 138.5q0 63 23.5 117.5t65.5 95.5t97 64t118 23q77 0 139 -34.5t98 -94.5t36 -139q0 -62 -24 -116.5t-66 -96t-97 -64.5t-117 -23zM314 108q48 0 85.5 24.5t59 66t21.5 91.5q0 43 -17 75.5t-48 51.5t-72 19q-48 0 -86 -24.5
t-59 -65.5t-21 -92q0 -43 17 -75.5t48 -51.5t72 -19zM190 -227l20 137h137l-20 -137h-137z" />
    <glyph glyph-name="uni1ECE" unicode="&#x1ece;" horiz-adv-x="882" 
d="M433 -12q-79 0 -146.5 27t-117 75.5t-77 114t-27.5 143.5q0 87 31.5 161t87.5 130t131 87t162 31q80 0 147.5 -26.5t117 -75t77 -114t27.5 -142.5q0 -87 -32 -161.5t-88.5 -130.5t-131.5 -87.5t-161 -31.5zM433 112q58 0 108 21.5t88 60.5t59 91t21 112q0 70 -29.5 123
t-82 83t-120.5 30q-58 0 -108 -21.5t-88 -60t-59 -90t-21 -112.5q0 -69 30 -122.5t82 -84t120 -30.5zM525 802l-47 65q28 13 43 28.5t15 37.5q0 16 -13.5 25.5t-38.5 9.5q-12 0 -25 -1.5t-26 -7.5l-4 83q19 9 42 13t48 4q64 0 100 -27.5t36 -75.5q0 -34 -18 -63.5t-48 -52
t-64 -38.5z" />
    <glyph glyph-name="uni1ECF" unicode="&#x1ecf;" horiz-adv-x="656" 
d="M313 -12q-77 0 -139 34.5t-98 95t-36 138.5q0 63 23.5 117.5t65.5 95.5t97 64t118 23q77 0 139 -34.5t98 -94.5t36 -139q0 -62 -24 -116.5t-66 -96t-97 -64.5t-117 -23zM314 108q48 0 85.5 24.5t59 66t21.5 91.5q0 43 -17 75.5t-48 51.5t-72 19q-48 0 -86 -24.5
t-59 -65.5t-21 -92q0 -43 17 -75.5t48 -51.5t72 -19zM384 600l-47 65q28 13 43 28.5t15 37.5q0 16 -13.5 25.5t-38.5 9.5q-12 0 -25 -1.5t-26 -7.5l-4 83q19 9 42 13t48 4q64 0 100 -27.5t36 -75.5q0 -34 -18 -63.5t-48 -52t-64 -38.5z" />
    <glyph glyph-name="uni1ED0" unicode="&#x1ed0;" horiz-adv-x="882" 
d="M433 -12q-79 0 -146.5 27t-117 75.5t-77 114t-27.5 143.5q0 87 31.5 161t87.5 130t131 87t162 31q80 0 147.5 -26.5t117 -75t77 -114t27.5 -142.5q0 -87 -32 -161.5t-88.5 -130.5t-131.5 -87.5t-161 -31.5zM433 112q58 0 108 21.5t88 60.5t59 91t21 112q0 70 -29.5 123
t-82 83t-120.5 30q-58 0 -108 -21.5t-88 -60t-59 -90t-21 -112.5q0 -69 30 -122.5t82 -84t120 -30.5zM326 842l138 155h155l97 -155h-123l-52 79l-74 -79h-141zM684 920l66 145h148l-107 -145h-107z" />
    <glyph glyph-name="uni1ED1" unicode="&#x1ed1;" horiz-adv-x="656" 
d="M313 -12q-77 0 -139 34.5t-98 95t-36 138.5q0 63 23.5 117.5t65.5 95.5t97 64t118 23q77 0 139 -34.5t98 -94.5t36 -139q0 -62 -24 -116.5t-66 -96t-97 -64.5t-117 -23zM314 108q48 0 85.5 24.5t59 66t21.5 91.5q0 43 -17 75.5t-48 51.5t-72 19q-48 0 -86 -24.5
t-59 -65.5t-21 -92q0 -43 17 -75.5t48 -51.5t72 -19zM185 640l138 155h155l97 -155h-123l-52 79l-74 -79h-141zM543 718l66 145h148l-107 -145h-107z" />
    <glyph glyph-name="uni1ED2" unicode="&#x1ed2;" horiz-adv-x="882" 
d="M433 -12q-79 0 -146.5 27t-117 75.5t-77 114t-27.5 143.5q0 87 31.5 161t87.5 130t131 87t162 31q80 0 147.5 -26.5t117 -75t77 -114t27.5 -142.5q0 -87 -32 -161.5t-88.5 -130.5t-131.5 -87.5t-161 -31.5zM433 112q58 0 108 21.5t88 60.5t59 91t21 112q0 70 -29.5 123
t-82 83t-120.5 30q-58 0 -108 -21.5t-88 -60t-59 -90t-21 -112.5q0 -69 30 -122.5t82 -84t120 -30.5zM326 842l138 155h155l97 -155h-123l-52 79l-74 -79h-141zM740 920l-66 145h148l25 -145h-107z" />
    <glyph glyph-name="uni1ED3" unicode="&#x1ed3;" horiz-adv-x="656" 
d="M313 -12q-77 0 -139 34.5t-98 95t-36 138.5q0 63 23.5 117.5t65.5 95.5t97 64t118 23q77 0 139 -34.5t98 -94.5t36 -139q0 -62 -24 -116.5t-66 -96t-97 -64.5t-117 -23zM314 108q48 0 85.5 24.5t59 66t21.5 91.5q0 43 -17 75.5t-48 51.5t-72 19q-48 0 -86 -24.5
t-59 -65.5t-21 -92q0 -43 17 -75.5t48 -51.5t72 -19zM185 640l138 155h155l97 -155h-123l-52 79l-74 -79h-141zM599 718l-66 145h148l25 -145h-107z" />
    <glyph glyph-name="uni1ED4" unicode="&#x1ed4;" horiz-adv-x="882" 
d="M433 -12q-79 0 -146.5 27t-117 75.5t-77 114t-27.5 143.5q0 87 31.5 161t87.5 130t131 87t162 31q80 0 147.5 -26.5t117 -75t77 -114t27.5 -142.5q0 -87 -32 -161.5t-88.5 -130.5t-131.5 -87.5t-161 -31.5zM433 112q58 0 108 21.5t88 60.5t59 91t21 112q0 70 -29.5 123
t-82 83t-120.5 30q-58 0 -108 -21.5t-88 -60t-59 -90t-21 -112.5q0 -69 30 -122.5t82 -84t120 -30.5zM326 842l138 155h155l97 -155h-123l-52 79l-74 -79h-141zM724 911l-43 61q26 12 40 26.5t14 33.5q0 16 -12.5 25t-35.5 9q-11 0 -23 -1.5t-25 -7.5l-3 77q17 7 38.5 11.5
t45.5 4.5q58 0 92 -25.5t34 -70.5q0 -31 -17 -58.5t-44.5 -48.5t-60.5 -36z" />
    <glyph glyph-name="uni1ED5" unicode="&#x1ed5;" horiz-adv-x="656" 
d="M313 -12q-77 0 -139 34.5t-98 95t-36 138.5q0 63 23.5 117.5t65.5 95.5t97 64t118 23q77 0 139 -34.5t98 -94.5t36 -139q0 -62 -24 -116.5t-66 -96t-97 -64.5t-117 -23zM314 108q48 0 85.5 24.5t59 66t21.5 91.5q0 43 -17 75.5t-48 51.5t-72 19q-48 0 -86 -24.5
t-59 -65.5t-21 -92q0 -43 17 -75.5t48 -51.5t72 -19zM185 640l138 155h155l97 -155h-123l-52 79l-74 -79h-141zM583 709l-43 61q26 12 40 26.5t14 33.5q0 16 -12.5 25t-35.5 9q-11 0 -23 -1.5t-25 -7.5l-3 77q17 7 38.5 11.5t45.5 4.5q58 0 92 -25.5t34 -70.5
q0 -31 -17 -58.5t-44.5 -48.5t-60.5 -36z" />
    <glyph glyph-name="uni1ED6" unicode="&#x1ed6;" horiz-adv-x="882" 
d="M433 -12q-79 0 -146.5 27t-117 75.5t-77 114t-27.5 143.5q0 87 31.5 161t87.5 130t131 87t162 31q80 0 147.5 -26.5t117 -75t77 -114t27.5 -142.5q0 -87 -32 -161.5t-88.5 -130.5t-131.5 -87.5t-161 -31.5zM433 112q58 0 108 21.5t88 60.5t59 91t21 112q0 70 -29.5 123
t-82 83t-120.5 30q-58 0 -108 -21.5t-88 -60t-59 -90t-21 -112.5q0 -69 30 -122.5t82 -84t120 -30.5zM326 842l138 155h156l96 -155h-122l-53 79l-74 -79h-141zM614 1058q-23 0 -37 8.5t-24 19t-19.5 19t-23.5 8.5t-22 -13t-12 -38h-100q8 53 28.5 87.5t48 51t56.5 16.5
q23 0 38 -8t26 -19t20.5 -19t21.5 -8q16 0 23 13t10 37h100q-11 -73 -49 -114t-85 -41z" />
    <glyph glyph-name="uni1ED7" unicode="&#x1ed7;" horiz-adv-x="656" 
d="M313 -12q-77 0 -139 34.5t-98 95t-36 138.5q0 63 23.5 117.5t65.5 95.5t97 64t118 23q77 0 139 -34.5t98 -94.5t36 -139q0 -62 -24 -116.5t-66 -96t-97 -64.5t-117 -23zM314 108q48 0 85.5 24.5t59 66t21.5 91.5q0 43 -17 75.5t-48 51.5t-72 19q-48 0 -86 -24.5
t-59 -65.5t-21 -92q0 -43 17 -75.5t48 -51.5t72 -19zM185 640l138 155h156l96 -155h-122l-53 79l-74 -79h-141zM473 856q-23 0 -37 8.5t-24 19t-19.5 19t-23.5 8.5t-22 -13t-12 -38h-100q8 53 28.5 87.5t48 51t56.5 16.5q23 0 38 -8t26 -19t20.5 -19t21.5 -8q16 0 23 13
t10 37h100q-11 -73 -49 -114t-85 -41z" />
    <glyph glyph-name="uni1ED8" unicode="&#x1ed8;" horiz-adv-x="882" 
d="M433 -12q-79 0 -146.5 27t-117 75.5t-77 114t-27.5 143.5q0 87 31.5 161t87.5 130t131 87t162 31q80 0 147.5 -26.5t117 -75t77 -114t27.5 -142.5q0 -87 -32 -161.5t-88.5 -130.5t-131.5 -87.5t-161 -31.5zM433 112q58 0 108 21.5t88 60.5t59 91t21 112q0 70 -29.5 123
t-82 83t-120.5 30q-58 0 -108 -21.5t-88 -60t-59 -90t-21 -112.5q0 -69 30 -122.5t82 -84t120 -30.5zM303 -227l20 137h137l-20 -137h-137zM301 842l140 165h155l95 -165h-123l-52 90l-77 -90h-138z" />
    <glyph glyph-name="uni1ED9" unicode="&#x1ed9;" horiz-adv-x="656" 
d="M313 -12q-77 0 -139 34.5t-98 95t-36 138.5q0 63 23.5 117.5t65.5 95.5t97 64t118 23q77 0 139 -34.5t98 -94.5t36 -139q0 -62 -24 -116.5t-66 -96t-97 -64.5t-117 -23zM314 108q48 0 85.5 24.5t59 66t21.5 91.5q0 43 -17 75.5t-48 51.5t-72 19q-48 0 -86 -24.5
t-59 -65.5t-21 -92q0 -43 17 -75.5t48 -51.5t72 -19zM190 -227l20 137h137l-20 -137h-137zM160 640l140 165h155l95 -165h-123l-52 90l-77 -90h-138z" />
    <glyph glyph-name="uni1EDA" unicode="&#x1eda;" horiz-adv-x="882" 
d="M433 -12q-79 0 -146.5 27t-117 75.5t-77 114t-27.5 143.5q0 87 31.5 161t87.5 130t131 87t162 31h206q11 0 23.5 4t22.5 17.5t10 42.5q0 15 -3 31t-8 32h118q5 -15 8.5 -31.5t3.5 -33.5q0 -72 -29.5 -115t-80.5 -43h-71l29 24q65 -47 102.5 -121t37.5 -165
q0 -87 -32 -161.5t-88.5 -130.5t-131.5 -87.5t-161 -31.5zM433 112q58 0 108 21.5t88 60.5t59 91t21 112q0 70 -29.5 123t-82 83t-120.5 30q-58 0 -108 -21.5t-88 -60t-59 -90t-21 -112.5q0 -69 30 -122.5t82 -84t120 -30.5zM456 842l90 173h170l-131 -173h-129z" />
    <glyph glyph-name="uni1EDB" unicode="&#x1edb;" horiz-adv-x="656" 
d="M313 -12q-77 0 -139 34.5t-98 95t-36 138.5q0 63 23.5 117.5t65.5 95.5t97 64t118 23h106q11 0 24 4t22.5 17t9.5 43q0 14 -3 30t-8 32h118q5 -15 9 -31.5t4 -32.5q0 -61 -33.5 -101t-91.5 -50l11 36q48 -35 76.5 -90.5t28.5 -124.5q0 -62 -24 -116.5t-66 -96t-97 -64.5
t-117 -23zM314 108q48 0 85.5 24.5t59 66t21.5 91.5q0 43 -17 75.5t-48 51.5t-72 19q-48 0 -86 -24.5t-59 -65.5t-21 -92q0 -43 17 -75.5t48 -51.5t72 -19zM315 640l90 173h170l-131 -173h-129z" />
    <glyph glyph-name="uni1EDC" unicode="&#x1edc;" horiz-adv-x="882" 
d="M433 -12q-79 0 -146.5 27t-117 75.5t-77 114t-27.5 143.5q0 87 31.5 161t87.5 130t131 87t162 31h206q11 0 23.5 4t22.5 17.5t10 42.5q0 15 -3 31t-8 32h118q5 -15 8.5 -31.5t3.5 -33.5q0 -72 -29.5 -115t-80.5 -43h-71l29 24q65 -47 102.5 -121t37.5 -165
q0 -87 -32 -161.5t-88.5 -130.5t-131.5 -87.5t-161 -31.5zM433 112q58 0 108 21.5t88 60.5t59 91t21 112q0 70 -29.5 123t-82 83t-120.5 30q-58 0 -108 -21.5t-88 -60t-59 -90t-21 -112.5q0 -69 30 -122.5t82 -84t120 -30.5zM456 842l-81 173h170l40 -173h-129z" />
    <glyph glyph-name="uni1EDD" unicode="&#x1edd;" horiz-adv-x="656" 
d="M313 -12q-77 0 -139 34.5t-98 95t-36 138.5q0 63 23.5 117.5t65.5 95.5t97 64t118 23h106q11 0 24 4t22.5 17t9.5 43q0 14 -3 30t-8 32h118q5 -15 9 -31.5t4 -32.5q0 -61 -33.5 -101t-91.5 -50l11 36q48 -35 76.5 -90.5t28.5 -124.5q0 -62 -24 -116.5t-66 -96t-97 -64.5
t-117 -23zM314 108q48 0 85.5 24.5t59 66t21.5 91.5q0 43 -17 75.5t-48 51.5t-72 19q-48 0 -86 -24.5t-59 -65.5t-21 -92q0 -43 17 -75.5t48 -51.5t72 -19zM315 640l-81 173h170l40 -173h-129z" />
    <glyph glyph-name="uni1EDE" unicode="&#x1ede;" horiz-adv-x="882" 
d="M433 -12q-79 0 -146.5 27t-117 75.5t-77 114t-27.5 143.5q0 87 31.5 161t87.5 130t131 87t162 31h206q11 0 23.5 4t22.5 17.5t10 42.5q0 15 -3 31t-8 32h118q5 -15 8.5 -31.5t3.5 -33.5q0 -72 -29.5 -115t-80.5 -43h-71l29 24q65 -47 102.5 -121t37.5 -165
q0 -87 -32 -161.5t-88.5 -130.5t-131.5 -87.5t-161 -31.5zM433 112q58 0 108 21.5t88 60.5t59 91t21 112q0 70 -29.5 123t-82 83t-120.5 30q-58 0 -108 -21.5t-88 -60t-59 -90t-21 -112.5q0 -69 30 -122.5t82 -84t120 -30.5zM525 802l-47 65q28 13 43 28.5t15 37.5
q0 16 -13.5 25.5t-38.5 9.5q-12 0 -25 -1.5t-26 -7.5l-4 83q19 9 42 13t48 4q64 0 100 -27.5t36 -75.5q0 -34 -18 -63.5t-48 -52t-64 -38.5z" />
    <glyph glyph-name="uni1EDF" unicode="&#x1edf;" horiz-adv-x="656" 
d="M313 -12q-77 0 -139 34.5t-98 95t-36 138.5q0 63 23.5 117.5t65.5 95.5t97 64t118 23h106q11 0 24 4t22.5 17t9.5 43q0 14 -3 30t-8 32h118q5 -15 9 -31.5t4 -32.5q0 -61 -33.5 -101t-91.5 -50l11 36q48 -35 76.5 -90.5t28.5 -124.5q0 -62 -24 -116.5t-66 -96t-97 -64.5
t-117 -23zM314 108q48 0 85.5 24.5t59 66t21.5 91.5q0 43 -17 75.5t-48 51.5t-72 19q-48 0 -86 -24.5t-59 -65.5t-21 -92q0 -43 17 -75.5t48 -51.5t72 -19zM384 600l-47 65q28 13 43 28.5t15 37.5q0 16 -13.5 25.5t-38.5 9.5q-12 0 -25 -1.5t-26 -7.5l-4 83q19 9 42 13t48 4
q64 0 100 -27.5t36 -75.5q0 -34 -18 -63.5t-48 -52t-64 -38.5z" />
    <glyph glyph-name="uni1EE0" unicode="&#x1ee0;" horiz-adv-x="882" 
d="M433 -12q-79 0 -146.5 27t-117 75.5t-77 114t-27.5 143.5q0 87 31.5 161t87.5 130t131 87t162 31h206q11 0 23.5 4t22.5 17.5t10 42.5q0 15 -3 31t-8 32h118q5 -15 8.5 -31.5t3.5 -33.5q0 -72 -29.5 -115t-80.5 -43h-71l29 24q65 -47 102.5 -121t37.5 -165
q0 -87 -32 -161.5t-88.5 -130.5t-131.5 -87.5t-161 -31.5zM433 112q58 0 108 21.5t88 60.5t59 91t21 112q0 70 -29.5 123t-82 83t-120.5 30q-58 0 -108 -21.5t-88 -60t-59 -90t-21 -112.5q0 -69 30 -122.5t82 -84t120 -30.5zM594 842q-28 0 -45 8.5t-29 19t-23.5 19
t-28.5 8.5q-18 0 -28 -13.5t-13 -37.5h-102q7 54 29 88t52 50.5t64 16.5q28 0 45.5 -8t30 -19t24 -19t27.5 -8q20 0 29.5 14t12.5 36h102q-12 -77 -54 -116t-93 -39z" />
    <glyph glyph-name="uni1EE1" unicode="&#x1ee1;" horiz-adv-x="656" 
d="M313 -12q-77 0 -139 34.5t-98 95t-36 138.5q0 63 23.5 117.5t65.5 95.5t97 64t118 23h106q11 0 24 4t22.5 17t9.5 43q0 14 -3 30t-8 32h118q5 -15 9 -31.5t4 -32.5q0 -61 -33.5 -101t-91.5 -50l11 36q48 -35 76.5 -90.5t28.5 -124.5q0 -62 -24 -116.5t-66 -96t-97 -64.5
t-117 -23zM314 108q48 0 85.5 24.5t59 66t21.5 91.5q0 43 -17 75.5t-48 51.5t-72 19q-48 0 -86 -24.5t-59 -65.5t-21 -92q0 -43 17 -75.5t48 -51.5t72 -19zM453 640q-28 0 -45 8.5t-29 19t-23.5 19t-28.5 8.5q-18 0 -28 -13.5t-13 -37.5h-102q7 54 29 88t52 50.5t64 16.5
q28 0 45.5 -8t30 -19t24 -19t27.5 -8q20 0 29.5 14t12.5 36h102q-12 -77 -54 -116t-93 -39z" />
    <glyph glyph-name="uni1EE2" unicode="&#x1ee2;" horiz-adv-x="882" 
d="M433 -12q-79 0 -146.5 27t-117 75.5t-77 114t-27.5 143.5q0 87 31.5 161t87.5 130t131 87t162 31h206q11 0 23.5 4t22.5 17.5t10 42.5q0 15 -3 31t-8 32h118q5 -15 8.5 -31.5t3.5 -33.5q0 -72 -29.5 -115t-80.5 -43h-71l29 24q65 -47 102.5 -121t37.5 -165
q0 -87 -32 -161.5t-88.5 -130.5t-131.5 -87.5t-161 -31.5zM433 112q58 0 108 21.5t88 60.5t59 91t21 112q0 70 -29.5 123t-82 83t-120.5 30q-58 0 -108 -21.5t-88 -60t-59 -90t-21 -112.5q0 -69 30 -122.5t82 -84t120 -30.5zM303 -227l20 137h137l-20 -137h-137z" />
    <glyph glyph-name="uni1EE3" unicode="&#x1ee3;" horiz-adv-x="656" 
d="M313 -12q-77 0 -139 34.5t-98 95t-36 138.5q0 63 23.5 117.5t65.5 95.5t97 64t118 23h106q11 0 24 4t22.5 17t9.5 43q0 14 -3 30t-8 32h118q5 -15 9 -31.5t4 -32.5q0 -61 -33.5 -101t-91.5 -50l11 36q48 -35 76.5 -90.5t28.5 -124.5q0 -62 -24 -116.5t-66 -96t-97 -64.5
t-117 -23zM314 108q48 0 85.5 24.5t59 66t21.5 91.5q0 43 -17 75.5t-48 51.5t-72 19q-48 0 -86 -24.5t-59 -65.5t-21 -92q0 -43 17 -75.5t48 -51.5t72 -19zM190 -227l20 137h137l-20 -137h-137z" />
    <glyph glyph-name="uni1EE4" unicode="&#x1ee4;" horiz-adv-x="718" 
d="M332 -12q-88 0 -152 37t-95.5 100.5t-20.5 143.5l66 476h137l-66 -475q-7 -46 8.5 -82t49 -56t80.5 -20q46 0 84 20t63.5 57t32.5 87l65 469h136l-68 -483q-10 -80 -54.5 -142t-113 -97t-152.5 -35zM221 -227l20 137h137l-20 -137h-137z" />
    <glyph glyph-name="uni1EE5" unicode="&#x1ee5;" horiz-adv-x="594" 
d="M223 -12q-65 0 -109 29.5t-62.5 82.5t-8.5 124l45 320h132l-45 -322q-5 -34 5 -60t33 -40t55 -14q33 0 59.5 14.5t45 41t22.5 61.5l45 319h131l-76 -544h-124l14 107l9 -22q-25 -50 -70.5 -73.5t-100.5 -23.5zM158 -227l20 137h137l-20 -137h-137z" />
    <glyph glyph-name="uni1EE6" unicode="&#x1ee6;" horiz-adv-x="718" 
d="M332 -12q-88 0 -152 37t-95.5 100.5t-20.5 143.5l66 476h137l-66 -475q-7 -46 8.5 -82t49 -56t80.5 -20q46 0 84 20t63.5 57t32.5 87l65 469h136l-68 -483q-10 -80 -54.5 -142t-113 -97t-152.5 -35zM443 802l-47 65q28 13 43 28.5t15 37.5q0 16 -13.5 25.5t-38.5 9.5
q-12 0 -25 -1.5t-26 -7.5l-4 83q19 9 42 13t48 4q64 0 100 -27.5t36 -75.5q0 -34 -18 -63.5t-48 -52t-64 -38.5z" />
    <glyph glyph-name="uni1EE7" unicode="&#x1ee7;" horiz-adv-x="594" 
d="M223 -12q-65 0 -109 29.5t-62.5 82.5t-8.5 124l45 320h132l-45 -322q-5 -34 5 -60t33 -40t55 -14q33 0 59.5 14.5t45 41t22.5 61.5l45 319h131l-76 -544h-124l14 107l9 -22q-25 -50 -70.5 -73.5t-100.5 -23.5zM353 600l-47 65q28 13 43 28.5t15 37.5q0 16 -13.5 25.5
t-38.5 9.5q-12 0 -25 -1.5t-26 -7.5l-4 83q19 9 42 13t48 4q64 0 100 -27.5t36 -75.5q0 -34 -18 -63.5t-48 -52t-64 -38.5z" />
    <glyph glyph-name="uni1EE8" unicode="&#x1ee8;" horiz-adv-x="718" 
d="M332 -12q-88 0 -152 37t-95.5 100.5t-20.5 143.5l66 476h137l-66 -475q-7 -46 8.5 -82t49 -56t80.5 -20q46 0 84 20t63.5 57t32.5 87l65 469h136l-68 -483q-10 -80 -54.5 -142t-113 -97t-152.5 -35zM665 649l13 96h21q11 0 23.5 4t22.5 17.5t10 42.5q0 15 -3 31t-8 32
h118q5 -15 8.5 -31.5t3.5 -33.5q0 -72 -45 -115t-122 -43h-42zM374 842l90 173h170l-131 -173h-129z" />
    <glyph glyph-name="uni1EE9" unicode="&#x1ee9;" horiz-adv-x="661" 
d="M223 -12q-65 0 -109 29.5t-62.5 82.5t-8.5 124l45 320h132l-45 -322q-5 -34 5 -60t33 -40t55 -14q33 0 59.5 14.5t45 41t22.5 61.5l45 319h87q11 0 24 4t22.5 17.5t9.5 42.5q0 14 -3 30t-7 33h113q5 -16 8.5 -32.5t3.5 -32.5q0 -76 -50.5 -118t-135.5 -35l55 57l-72 -510
h-124l9 61q-28 -37 -68.5 -55t-88.5 -18zM284 640l90 173h170l-131 -173h-129z" />
    <glyph glyph-name="uni1EEA" unicode="&#x1eea;" horiz-adv-x="718" 
d="M332 -12q-88 0 -152 37t-95.5 100.5t-20.5 143.5l66 476h137l-66 -475q-7 -46 8.5 -82t49 -56t80.5 -20q46 0 84 20t63.5 57t32.5 87l65 469h136l-68 -483q-10 -80 -54.5 -142t-113 -97t-152.5 -35zM665 649l13 96h21q11 0 23.5 4t22.5 17.5t10 42.5q0 15 -3 31t-8 32
h118q5 -15 8.5 -31.5t3.5 -33.5q0 -72 -45 -115t-122 -43h-42zM374 842l-81 173h170l40 -173h-129z" />
    <glyph glyph-name="uni1EEB" unicode="&#x1eeb;" horiz-adv-x="661" 
d="M223 -12q-65 0 -109 29.5t-62.5 82.5t-8.5 124l45 320h132l-45 -322q-5 -34 5 -60t33 -40t55 -14q33 0 59.5 14.5t45 41t22.5 61.5l45 319h87q11 0 24 4t22.5 17.5t9.5 42.5q0 14 -3 30t-7 33h113q5 -16 8.5 -32.5t3.5 -32.5q0 -76 -50.5 -118t-135.5 -35l55 57l-72 -510
h-124l9 61q-28 -37 -68.5 -55t-88.5 -18zM284 640l-81 173h170l40 -173h-129z" />
    <glyph glyph-name="uni1EEC" unicode="&#x1eec;" horiz-adv-x="718" 
d="M332 -12q-88 0 -152 37t-95.5 100.5t-20.5 143.5l66 476h137l-66 -475q-7 -46 8.5 -82t49 -56t80.5 -20q46 0 84 20t63.5 57t32.5 87l65 469h136l-68 -483q-10 -80 -54.5 -142t-113 -97t-152.5 -35zM665 649l13 96h21q11 0 23.5 4t22.5 17.5t10 42.5q0 15 -3 31t-8 32
h118q5 -15 8.5 -31.5t3.5 -33.5q0 -72 -45 -115t-122 -43h-42zM443 802l-47 65q28 13 43 28.5t15 37.5q0 16 -13.5 25.5t-38.5 9.5q-12 0 -25 -1.5t-26 -7.5l-4 83q19 9 42 13t48 4q64 0 100 -27.5t36 -75.5q0 -34 -18 -63.5t-48 -52t-64 -38.5z" />
    <glyph glyph-name="uni1EED" unicode="&#x1eed;" horiz-adv-x="661" 
d="M223 -12q-65 0 -109 29.5t-62.5 82.5t-8.5 124l45 320h132l-45 -322q-5 -34 5 -60t33 -40t55 -14q33 0 59.5 14.5t45 41t22.5 61.5l45 319h87q11 0 24 4t22.5 17.5t9.5 42.5q0 14 -3 30t-7 33h113q5 -16 8.5 -32.5t3.5 -32.5q0 -76 -50.5 -118t-135.5 -35l55 57l-72 -510
h-124l9 61q-28 -37 -68.5 -55t-88.5 -18zM353 600l-47 65q28 13 43 28.5t15 37.5q0 16 -13.5 25.5t-38.5 9.5q-12 0 -25 -1.5t-26 -7.5l-4 83q19 9 42 13t48 4q64 0 100 -27.5t36 -75.5q0 -34 -18 -63.5t-48 -52t-64 -38.5z" />
    <glyph glyph-name="uni1EEE" unicode="&#x1eee;" horiz-adv-x="718" 
d="M332 -12q-88 0 -152 37t-95.5 100.5t-20.5 143.5l66 476h137l-66 -475q-7 -46 8.5 -82t49 -56t80.5 -20q46 0 84 20t63.5 57t32.5 87l65 469h136l-68 -483q-10 -80 -54.5 -142t-113 -97t-152.5 -35zM665 649l13 96h21q11 0 23.5 4t22.5 17.5t10 42.5q0 15 -3 31t-8 32
h118q5 -15 8.5 -31.5t3.5 -33.5q0 -72 -45 -115t-122 -43h-42zM512 842q-28 0 -45 8.5t-29 19t-23.5 19t-28.5 8.5q-18 0 -28 -13.5t-13 -37.5h-102q7 54 29 88t52 50.5t64 16.5q28 0 45.5 -8t30 -19t24 -19t27.5 -8q20 0 29.5 14t12.5 36h102q-12 -77 -54 -116t-93 -39z
" />
    </font>
</defs>
</svg>
